%TF.GenerationSoftware,KiCad,Pcbnew,9.0.0*%
%TF.CreationDate,2025-04-14T04:50:01-04:00*%
%TF.ProjectId,W4MLB_Band_Display,57344d4c-425f-4426-916e-645f44697370,1.0*%
%TF.SameCoordinates,Original*%
%TF.FileFunction,Copper,L1,Top*%
%TF.FilePolarity,Positive*%
%FSLAX46Y46*%
G04 Gerber Fmt 4.6, Leading zero omitted, Abs format (unit mm)*
G04 Created by KiCad (PCBNEW 9.0.0) date 2025-04-14 04:50:01*
%MOMM*%
%LPD*%
G01*
G04 APERTURE LIST*
G04 Aperture macros list*
%AMRoundRect*
0 Rectangle with rounded corners*
0 $1 Rounding radius*
0 $2 $3 $4 $5 $6 $7 $8 $9 X,Y pos of 4 corners*
0 Add a 4 corners polygon primitive as box body*
4,1,4,$2,$3,$4,$5,$6,$7,$8,$9,$2,$3,0*
0 Add four circle primitives for the rounded corners*
1,1,$1+$1,$2,$3*
1,1,$1+$1,$4,$5*
1,1,$1+$1,$6,$7*
1,1,$1+$1,$8,$9*
0 Add four rect primitives between the rounded corners*
20,1,$1+$1,$2,$3,$4,$5,0*
20,1,$1+$1,$4,$5,$6,$7,0*
20,1,$1+$1,$6,$7,$8,$9,0*
20,1,$1+$1,$8,$9,$2,$3,0*%
G04 Aperture macros list end*
%TA.AperFunction,ComponentPad*%
%ADD10O,1.800000X3.600000*%
%TD*%
%TA.AperFunction,ComponentPad*%
%ADD11O,4.000000X2.000000*%
%TD*%
%TA.AperFunction,SMDPad,CuDef*%
%ADD12RoundRect,0.250000X0.450000X-0.325000X0.450000X0.325000X-0.450000X0.325000X-0.450000X-0.325000X0*%
%TD*%
%TA.AperFunction,SMDPad,CuDef*%
%ADD13RoundRect,0.250000X-0.450000X0.325000X-0.450000X-0.325000X0.450000X-0.325000X0.450000X0.325000X0*%
%TD*%
%TA.AperFunction,SMDPad,CuDef*%
%ADD14RoundRect,0.250000X0.350000X0.450000X-0.350000X0.450000X-0.350000X-0.450000X0.350000X-0.450000X0*%
%TD*%
%TA.AperFunction,ComponentPad*%
%ADD15C,2.400000*%
%TD*%
%TA.AperFunction,ComponentPad*%
%ADD16C,1.850000*%
%TD*%
%TA.AperFunction,ComponentPad*%
%ADD17R,1.850000X1.850000*%
%TD*%
%TA.AperFunction,ComponentPad*%
%ADD18C,1.390000*%
%TD*%
%TA.AperFunction,ComponentPad*%
%ADD19R,1.390000X1.390000*%
%TD*%
%TA.AperFunction,ComponentPad*%
%ADD20R,1.370000X1.370000*%
%TD*%
%TA.AperFunction,ComponentPad*%
%ADD21C,1.370000*%
%TD*%
%TA.AperFunction,ComponentPad*%
%ADD22R,1.700000X1.700000*%
%TD*%
%TA.AperFunction,ComponentPad*%
%ADD23O,1.700000X1.700000*%
%TD*%
%TA.AperFunction,ComponentPad*%
%ADD24R,2.400000X2.400000*%
%TD*%
%TA.AperFunction,ComponentPad*%
%ADD25O,2.400000X2.400000*%
%TD*%
%TA.AperFunction,ComponentPad*%
%ADD26O,3.800000X1.900000*%
%TD*%
%TA.AperFunction,ComponentPad*%
%ADD27O,1.900000X3.800000*%
%TD*%
%TA.AperFunction,ComponentPad*%
%ADD28C,1.620010*%
%TD*%
%TA.AperFunction,ComponentPad*%
%ADD29R,2.000000X2.000000*%
%TD*%
%TA.AperFunction,ComponentPad*%
%ADD30C,2.000000*%
%TD*%
%TA.AperFunction,ComponentPad*%
%ADD31O,3.800000X5.500000*%
%TD*%
%TA.AperFunction,ComponentPad*%
%ADD32O,3.800000X5.300000*%
%TD*%
%TA.AperFunction,ViaPad*%
%ADD33C,0.600000*%
%TD*%
%TA.AperFunction,ViaPad*%
%ADD34C,0.700000*%
%TD*%
%TA.AperFunction,Conductor*%
%ADD35C,0.400000*%
%TD*%
%TA.AperFunction,Conductor*%
%ADD36C,0.200000*%
%TD*%
%TA.AperFunction,Conductor*%
%ADD37C,1.000000*%
%TD*%
%TA.AperFunction,Conductor*%
%ADD38C,0.762000*%
%TD*%
%TA.AperFunction,Conductor*%
%ADD39C,0.600000*%
%TD*%
%TA.AperFunction,Conductor*%
%ADD40C,0.254000*%
%TD*%
G04 APERTURE END LIST*
D10*
%TO.P,J8,3*%
%TO.N,GND*%
X145017500Y-121300000D03*
D11*
%TO.P,J8,1*%
X141267500Y-125000000D03*
D10*
%TO.P,J8,2*%
%TO.N,GPIO15*%
X137517500Y-121300000D03*
%TD*%
D12*
%TO.P,D3,1,K*%
%TO.N,GND*%
X183750000Y-77550000D03*
%TO.P,D3,2,A*%
%TO.N,Net-(D3-A)*%
X183750000Y-75500000D03*
%TD*%
D13*
%TO.P,D1,1,K*%
%TO.N,GPIO17*%
X142750000Y-95750000D03*
%TO.P,D1,2,A*%
%TO.N,GPIO16*%
X142750000Y-97800000D03*
%TD*%
D14*
%TO.P,R1,1*%
%TO.N,Net-(D3-A)*%
X180500000Y-75500000D03*
%TO.P,R1,2*%
%TO.N,+5V*%
X178500000Y-75500000D03*
%TD*%
D15*
%TO.P,F1,1*%
%TO.N,/PWR IN*%
X180810000Y-108410000D03*
%TO.P,F1,2*%
%TO.N,+5V*%
X180810000Y-98490000D03*
%TO.P,F1,3*%
%TO.N,N/C*%
X184210000Y-108410000D03*
%TO.P,F1,4*%
X184210000Y-98490000D03*
%TD*%
D16*
%TO.P,J6,2,2*%
%TO.N,GND*%
X181000000Y-86000000D03*
D17*
%TO.P,J6,1,1*%
%TO.N,+5V*%
X181000000Y-91000000D03*
%TD*%
D18*
%TO.P,J2,04,04*%
%TO.N,GPIO3*%
X147230000Y-79480000D03*
%TO.P,J2,14,14*%
%TO.N,GND*%
X147230000Y-104880000D03*
D19*
%TO.P,J2,01,01*%
%TO.N,GPIO23*%
X147230000Y-71860000D03*
D18*
%TO.P,J2,02,02*%
%TO.N,GPIO22*%
X147230000Y-74400000D03*
%TO.P,J2,03,03*%
%TO.N,GPIO1*%
X147230000Y-76940000D03*
%TO.P,J2,05,05*%
%TO.N,GPIO21*%
X147230000Y-82020000D03*
%TO.P,J2,06,06*%
%TO.N,GPIO19*%
X147230000Y-84560000D03*
%TO.P,J2,07,07*%
%TO.N,GPIO18*%
X147230000Y-87100000D03*
%TO.P,J2,08,08*%
%TO.N,GPIO5*%
X147230000Y-89640000D03*
%TO.P,J2,09,09*%
%TO.N,GPIO17*%
X147230000Y-92180000D03*
%TO.P,J2,10,10*%
%TO.N,GPIO16*%
X147230000Y-94720000D03*
%TO.P,J2,11,11*%
%TO.N,GPIO4*%
X147230000Y-97260000D03*
%TO.P,J2,12,12*%
%TO.N,GPIO2*%
X147230000Y-99800000D03*
%TO.P,J2,13,13*%
%TO.N,GPIO15*%
X147230000Y-102340000D03*
%TO.P,J2,15,15*%
%TO.N,/+3.3VDC*%
X147230000Y-107420000D03*
%TD*%
D20*
%TO.P,J3,01,01*%
%TO.N,GPIO32*%
X133010000Y-80802500D03*
D21*
%TO.P,J3,02,02*%
%TO.N,GPIO23*%
X135550000Y-80802500D03*
%TO.P,J3,03,03*%
%TO.N,GPIO33*%
X133010000Y-83342500D03*
%TO.P,J3,05,05*%
%TO.N,GPIO25*%
X133010000Y-85882500D03*
%TO.P,J3,06,06*%
%TO.N,GPIO22*%
X135550000Y-85882500D03*
%TO.P,J3,07,07*%
%TO.N,GPIO26*%
X133010000Y-88422500D03*
%TO.P,J3,08,08*%
%TO.N,GPIO21*%
X135550000Y-88422500D03*
%TO.P,J3,09,09*%
%TO.N,GPIO27*%
X133010000Y-90962500D03*
%TO.P,J3,10,10*%
%TO.N,GPIO19*%
X135550000Y-90962500D03*
%TO.P,J3,11,11*%
%TO.N,GPIO14*%
X133010000Y-93502500D03*
%TO.P,J3,12,12*%
%TO.N,GPIO18*%
X135550000Y-93502500D03*
%TO.P,J3,13,13*%
%TO.N,GPIO12*%
X133010000Y-96042500D03*
%TO.P,J3,14,14*%
%TO.N,GPIO5*%
X135550000Y-96042500D03*
%TO.P,J3,15,15*%
%TO.N,GPIO13*%
X133010000Y-98582500D03*
%TO.P,J3,04,04*%
%TO.N,GND*%
X135550000Y-83342500D03*
%TO.P,J3,16,16*%
X135550000Y-98582500D03*
%TD*%
D22*
%TO.P,J9,1,Pin_1*%
%TO.N,GPIO36*%
X125430000Y-66582500D03*
D23*
%TO.P,J9,2,Pin_2*%
%TO.N,GPIO39*%
X127970000Y-66582500D03*
%TO.P,J9,3,Pin_3*%
%TO.N,GPIO34*%
X130510000Y-66582500D03*
%TO.P,J9,4,Pin_4*%
%TO.N,GPIO35*%
X133050000Y-66582500D03*
%TO.P,J9,5,Pin_5*%
%TO.N,GPIO2*%
X135590000Y-66582500D03*
%TO.P,J9,6,Pin_6*%
%TO.N,GPIO3*%
X138130000Y-66582500D03*
%TO.P,J9,7,Pin_7*%
%TO.N,GPIO1*%
X140670000Y-66582500D03*
%TO.P,J9,8,Pin_8*%
%TO.N,GND*%
X143210000Y-66582500D03*
%TO.P,J9,9,Pin_9*%
%TO.N,/+3.3VDC*%
X145750000Y-66582500D03*
%TO.P,J9,10,Pin_10*%
%TO.N,+5V*%
X148290000Y-66582500D03*
%TD*%
D18*
%TO.P,J1,14,14*%
%TO.N,GND*%
X121830000Y-104880000D03*
D19*
%TO.P,J1,01,01*%
%TO.N,unconnected-(J1-Pad01)*%
X121830000Y-71860000D03*
D18*
%TO.P,J1,02,02*%
%TO.N,GPIO36*%
X121830000Y-74400000D03*
%TO.P,J1,03,03*%
%TO.N,GPIO39*%
X121830000Y-76940000D03*
%TO.P,J1,04,04*%
%TO.N,GPIO34*%
X121830000Y-79480000D03*
%TO.P,J1,05,05*%
%TO.N,GPIO35*%
X121830000Y-82020000D03*
%TO.P,J1,06,06*%
%TO.N,GPIO32*%
X121830000Y-84560000D03*
%TO.P,J1,07,07*%
%TO.N,GPIO33*%
X121830000Y-87100000D03*
%TO.P,J1,08,08*%
%TO.N,GPIO25*%
X121830000Y-89640000D03*
%TO.P,J1,09,09*%
%TO.N,GPIO26*%
X121830000Y-92180000D03*
%TO.P,J1,10,10*%
%TO.N,GPIO27*%
X121830000Y-94720000D03*
%TO.P,J1,11,11*%
%TO.N,GPIO14*%
X121830000Y-97260000D03*
%TO.P,J1,12,12*%
%TO.N,GPIO12*%
X121830000Y-99800000D03*
%TO.P,J1,13,13*%
%TO.N,GPIO13*%
X121830000Y-102340000D03*
%TO.P,J1,15,15*%
%TO.N,+5V*%
X121830000Y-107420000D03*
%TD*%
D24*
%TO.P,C2,1*%
%TO.N,+5V*%
X174750000Y-122750000D03*
D25*
%TO.P,C2,2*%
%TO.N,GND*%
X149750000Y-122750000D03*
%TD*%
D10*
%TO.P,J7,3*%
%TO.N,GND*%
X129767500Y-121300000D03*
D11*
%TO.P,J7,1*%
X126017500Y-125000000D03*
D10*
%TO.P,J7,2*%
%TO.N,GPIO16*%
X122267500Y-121300000D03*
%TD*%
D26*
%TO.P,J5,2*%
%TO.N,GND*%
X182950000Y-119167500D03*
D27*
%TO.P,J5,3*%
X187600000Y-115917500D03*
D26*
%TO.P,J5,1*%
%TO.N,/PWR IN*%
X182950000Y-113237500D03*
%TD*%
D28*
%TO.P,J4,15,15*%
%TO.N,GPIO13*%
X163500000Y-82210000D03*
%TO.P,J4,13,13*%
%TO.N,GPIO12*%
X163500000Y-84750000D03*
%TO.P,J4,11,11*%
%TO.N,GPIO14*%
X163500000Y-87290000D03*
%TO.P,J4,10,10*%
%TO.N,GPIO19*%
X160960000Y-89830000D03*
%TO.P,J4,9,9*%
%TO.N,GPIO27*%
X163500000Y-89830000D03*
%TO.P,J4,8,8*%
%TO.N,GPIO21*%
X160960000Y-92370000D03*
%TO.P,J4,7,7*%
%TO.N,GPIO26*%
X163500000Y-92370000D03*
%TO.P,J4,6,6*%
%TO.N,GPIO22*%
X160960000Y-94910000D03*
%TO.P,J4,5,5*%
%TO.N,GPIO25*%
X163500000Y-94910000D03*
%TO.P,J4,3,3*%
%TO.N,GPIO33*%
X163500000Y-97450000D03*
%TO.P,J4,2,2*%
%TO.N,GPIO23*%
X160960000Y-99990000D03*
%TO.P,J4,1,1*%
%TO.N,GPIO32*%
X163500000Y-99990000D03*
%TO.P,J4,4,4*%
%TO.N,GND*%
X160960000Y-97450000D03*
%TO.P,J4,12,12*%
%TO.N,GPIO18*%
X160960000Y-87290000D03*
%TO.P,J4,14,14*%
%TO.N,GPIO5*%
X160960000Y-84750000D03*
%TO.P,J4,16,16*%
%TO.N,GND*%
X160960000Y-82210000D03*
%TD*%
D13*
%TO.P,D2,1,K*%
%TO.N,GPIO4*%
X150750000Y-98950000D03*
%TO.P,D2,2,A*%
%TO.N,GPIO15*%
X150750000Y-101000000D03*
%TD*%
D29*
%TO.P,U1,1,3V3*%
%TO.N,unconnected-(U1-3V3-Pad1)*%
X207350000Y-79190000D03*
D30*
%TO.P,U1,2,GND*%
%TO.N,unconnected-(U1-GND-Pad2)*%
X207350000Y-81730000D03*
%TO.P,U1,3,D15*%
%TO.N,unconnected-(U1-D15-Pad3)*%
X207350000Y-84270000D03*
%TO.P,U1,4,D2*%
%TO.N,unconnected-(U1-D2-Pad4)*%
X207350000Y-86810000D03*
%TO.P,U1,5,D4*%
%TO.N,unconnected-(U1-D4-Pad5)*%
X207350000Y-89350000D03*
%TO.P,U1,6,RX2*%
%TO.N,unconnected-(U1-RX2-Pad6)*%
X207350000Y-91890000D03*
%TO.P,U1,7,TX2*%
%TO.N,unconnected-(U1-TX2-Pad7)*%
X207350000Y-94430000D03*
%TO.P,U1,8,D5*%
%TO.N,unconnected-(U1-D5-Pad8)*%
X207350000Y-96970000D03*
%TO.P,U1,9,D18*%
%TO.N,unconnected-(U1-D18-Pad9)*%
X207350000Y-99510000D03*
%TO.P,U1,10,D19*%
%TO.N,unconnected-(U1-D19-Pad10)*%
X207350000Y-102050000D03*
%TO.P,U1,11,D21*%
%TO.N,unconnected-(U1-D21-Pad11)*%
X207350000Y-104590000D03*
%TO.P,U1,12,RX0*%
%TO.N,unconnected-(U1-RX0-Pad12)*%
X207350000Y-107130000D03*
%TO.P,U1,13,TX0*%
%TO.N,unconnected-(U1-TX0-Pad13)*%
X207350000Y-109670000D03*
%TO.P,U1,14,D22*%
%TO.N,unconnected-(U1-D22-Pad14)*%
X207350000Y-112210000D03*
%TO.P,U1,15,D23*%
%TO.N,unconnected-(U1-D23-Pad15)*%
X207350000Y-114750000D03*
%TO.P,U1,16,EN*%
%TO.N,unconnected-(U1-EN-Pad16)*%
X232750000Y-114750000D03*
%TO.P,U1,17,VP*%
%TO.N,unconnected-(U1-VP-Pad17)*%
X232750000Y-112210000D03*
%TO.P,U1,18,VN*%
%TO.N,unconnected-(U1-VN-Pad18)*%
X232750000Y-109670000D03*
%TO.P,U1,19,D34*%
%TO.N,unconnected-(U1-D34-Pad19)*%
X232750000Y-107130000D03*
%TO.P,U1,20,D35*%
%TO.N,unconnected-(U1-D35-Pad20)*%
X232750000Y-104590000D03*
%TO.P,U1,21,D32*%
%TO.N,unconnected-(U1-D32-Pad21)*%
X232750000Y-102050000D03*
%TO.P,U1,22,D33*%
%TO.N,unconnected-(U1-D33-Pad22)*%
X232750000Y-99510000D03*
%TO.P,U1,23,D25*%
%TO.N,unconnected-(U1-D25-Pad23)*%
X232750000Y-96970000D03*
%TO.P,U1,24,D26*%
%TO.N,unconnected-(U1-D26-Pad24)*%
X232750000Y-94430000D03*
%TO.P,U1,25,D27*%
%TO.N,unconnected-(U1-D27-Pad25)*%
X232750000Y-91890000D03*
%TO.P,U1,26,D14*%
%TO.N,unconnected-(U1-D14-Pad26)*%
X232750000Y-89350000D03*
%TO.P,U1,27,D12*%
%TO.N,unconnected-(U1-D12-Pad27)*%
X232750000Y-86810000D03*
%TO.P,U1,28,D13*%
%TO.N,unconnected-(U1-D13-Pad28)*%
X232750000Y-84270000D03*
%TO.P,U1,29,GND__1*%
%TO.N,unconnected-(U1-GND__1-Pad29)*%
X232750000Y-81730000D03*
%TO.P,U1,30,VIN*%
%TO.N,unconnected-(U1-VIN-Pad30)*%
X232750000Y-79190000D03*
%TD*%
D31*
%TO.P,F2,1*%
%TO.N,unconnected-(F2-Pad1)*%
X200000000Y-108750000D03*
D32*
%TO.P,F2,2*%
%TO.N,unconnected-(F2-Pad2)*%
X200000000Y-100750000D03*
%TD*%
D33*
%TO.N,GND*%
X183750000Y-79600000D03*
%TO.N,GPIO15*%
X142300000Y-117000000D03*
X139750000Y-121050000D03*
%TO.N,GPIO33*%
X130267322Y-83437322D03*
%TO.N,GPIO21*%
X157150000Y-92370000D03*
%TO.N,GPIO27*%
X127531250Y-93701250D03*
%TO.N,GPIO5*%
X150150000Y-89650000D03*
%TO.N,GPIO19*%
X155800000Y-89800000D03*
%TO.N,GPIO12*%
X125520000Y-99800000D03*
%TO.N,GPIO32*%
X131220000Y-80802500D03*
D34*
%TO.N,/+3.3VDC*%
X138111250Y-75940000D03*
D33*
%TO.N,GPIO14*%
X126590000Y-97260000D03*
%TO.N,GPIO13*%
X124140000Y-102340000D03*
%TO.N,GPIO18*%
X154460000Y-87350000D03*
%TO.N,GPIO16*%
X122267500Y-116850000D03*
%TO.N,GPIO25*%
X129411250Y-86271250D03*
%TO.N,GPIO26*%
X128576250Y-89856250D03*
%TO.N,GPIO16*%
X124607500Y-114510000D03*
%TD*%
D35*
%TO.N,Net-(D3-A)*%
X183450000Y-75550000D02*
X183750000Y-75250000D01*
X181050000Y-75550000D02*
X183450000Y-75550000D01*
X180750000Y-75250000D02*
X181050000Y-75550000D01*
%TO.N,+5V*%
X178200000Y-75250000D02*
X175540000Y-77910000D01*
X175540000Y-77910000D02*
X175540000Y-78460000D01*
D36*
X175540000Y-78460000D02*
X175400000Y-78460000D01*
D37*
X175400000Y-78460000D02*
X175400000Y-77920000D01*
D35*
%TO.N,GND*%
X183750000Y-77900000D02*
X183750000Y-79600000D01*
D37*
%TO.N,+5V*%
X175400000Y-77920000D02*
X175400000Y-76050000D01*
D36*
X175580000Y-77920000D02*
X175400000Y-77920000D01*
D37*
X175400000Y-76050000D02*
X175400000Y-74150000D01*
D36*
%TO.N,GPIO15*%
X142300000Y-105200000D02*
X142300000Y-117000000D01*
X145160000Y-102340000D02*
X142300000Y-105200000D01*
X147230000Y-102340000D02*
X145160000Y-102340000D01*
D38*
%TO.N,+5V*%
X121830000Y-114430000D02*
X121830000Y-107420000D01*
X125700000Y-118300000D02*
X121830000Y-114430000D01*
X169300000Y-118300000D02*
X125700000Y-118300000D01*
X174750000Y-123750000D02*
X169300000Y-118300000D01*
D36*
%TO.N,GPIO15*%
X137517500Y-121050000D02*
X139750000Y-121050000D01*
D37*
%TO.N,+5V*%
X167900000Y-66650000D02*
X148357500Y-66650000D01*
X175400000Y-74150000D02*
X167900000Y-66650000D01*
X175650000Y-85650000D02*
X175400000Y-85400000D01*
X175400000Y-85400000D02*
X175400000Y-78460000D01*
X180500000Y-90500000D02*
X175650000Y-85650000D01*
D36*
%TO.N,GPIO16*%
X141400000Y-97800000D02*
X142750000Y-97800000D01*
X124690000Y-114510000D02*
X141400000Y-97800000D01*
X124607500Y-114510000D02*
X124690000Y-114510000D01*
%TO.N,GPIO33*%
X133010000Y-83342500D02*
X133010000Y-83340000D01*
%TO.N,+5V*%
X148357500Y-66650000D02*
X148290000Y-66582500D01*
D39*
%TO.N,/+3.3VDC*%
X138111250Y-74221250D02*
X138111250Y-75940000D01*
D36*
X138111250Y-74261250D02*
X138100000Y-74250000D01*
X138111250Y-75940000D02*
X138111250Y-74261250D01*
D39*
X145750000Y-66582500D02*
X138111250Y-74221250D01*
D36*
%TO.N,GPIO21*%
X147230000Y-82020000D02*
X144030000Y-82020000D01*
X137627500Y-88422500D02*
X135550000Y-88422500D01*
X144030000Y-82020000D02*
X137627500Y-88422500D01*
%TO.N,GPIO33*%
X130267322Y-83437322D02*
X130362144Y-83342500D01*
%TO.N,GPIO16*%
X122267500Y-116850000D02*
X122267500Y-121050000D01*
%TO.N,GPIO23*%
X135647500Y-80900000D02*
X135550000Y-80802500D01*
%TO.N,GPIO33*%
X126604644Y-87100000D02*
X130267322Y-83437322D01*
X130362144Y-83342500D02*
X133010000Y-83342500D01*
X121830000Y-87100000D02*
X126604644Y-87100000D01*
%TO.N,GPIO17*%
X147230000Y-92180000D02*
X144870000Y-92180000D01*
%TO.N,GPIO5*%
X149600000Y-89650000D02*
X149590000Y-89640000D01*
%TO.N,GPIO26*%
X129982500Y-88450000D02*
X132982500Y-88450000D01*
%TO.N,GPIO5*%
X149590000Y-89640000D02*
X147230000Y-89640000D01*
%TO.N,GPIO26*%
X132982500Y-88450000D02*
X133010000Y-88422500D01*
%TO.N,GPIO17*%
X144870000Y-92180000D02*
X142750000Y-94300000D01*
D40*
%TO.N,GPIO32*%
X127340000Y-84560000D02*
X131097500Y-80802500D01*
D36*
%TO.N,GPIO5*%
X150150000Y-89650000D02*
X149600000Y-89650000D01*
%TO.N,GPIO26*%
X126252500Y-92180000D02*
X128576250Y-89856250D01*
D40*
%TO.N,GPIO32*%
X121830000Y-84560000D02*
X127340000Y-84560000D01*
X131097500Y-80802500D02*
X131220000Y-80802500D01*
D36*
%TO.N,GPIO26*%
X121830000Y-92180000D02*
X126252500Y-92180000D01*
%TO.N,GPIO17*%
X142750000Y-94300000D02*
X142750000Y-95750000D01*
%TO.N,GPIO18*%
X147230000Y-87100000D02*
X145000000Y-87100000D01*
%TO.N,GPIO19*%
X137787500Y-90962500D02*
X135550000Y-90962500D01*
X147230000Y-84560000D02*
X144190000Y-84560000D01*
X144190000Y-84560000D02*
X137787500Y-90962500D01*
%TO.N,GPIO18*%
X138597500Y-93502500D02*
X135550000Y-93502500D01*
X145000000Y-87100000D02*
X138597500Y-93502500D01*
%TO.N,GPIO26*%
X128576250Y-89856250D02*
X129982500Y-88450000D01*
%TO.N,GPIO25*%
X129411250Y-86271250D02*
X129800000Y-85882500D01*
%TO.N,GPIO34*%
X130510000Y-70800000D02*
X130510000Y-66582500D01*
%TO.N,GPIO35*%
X121830000Y-82020000D02*
X133050000Y-70800000D01*
X133050000Y-70800000D02*
X133050000Y-66582500D01*
%TO.N,GPIO39*%
X127970000Y-70800000D02*
X127970000Y-66582500D01*
%TO.N,GPIO34*%
X121830000Y-79480000D02*
X130510000Y-70800000D01*
%TO.N,GPIO39*%
X121830000Y-76940000D02*
X127970000Y-70800000D01*
%TO.N,GPIO4*%
X147230000Y-97260000D02*
X149060000Y-97260000D01*
%TO.N,GPIO16*%
X144150000Y-97800000D02*
X142750000Y-97800000D01*
%TO.N,GPIO36*%
X125430000Y-70800000D02*
X125430000Y-66582500D01*
X121830000Y-74400000D02*
X125430000Y-70800000D01*
%TO.N,GPIO16*%
X147230000Y-94720000D02*
X144150000Y-97800000D01*
%TO.N,GPIO15*%
X147230000Y-102340000D02*
X149410000Y-102340000D01*
X149410000Y-102340000D02*
X150750000Y-101000000D01*
%TO.N,GPIO4*%
X149060000Y-97260000D02*
X150750000Y-98950000D01*
%TO.N,GPIO12*%
X125520000Y-99800000D02*
X126682500Y-99800000D01*
%TO.N,GPIO13*%
X124140000Y-102340000D02*
X126342500Y-102340000D01*
%TO.N,GPIO14*%
X126590000Y-97260000D02*
X126722500Y-97260000D01*
%TO.N,GPIO27*%
X127531250Y-93701250D02*
X130270000Y-90962500D01*
D40*
%TO.N,GPIO32*%
X131220000Y-80802500D02*
X133010000Y-80802500D01*
D36*
%TO.N,GPIO19*%
X155800000Y-85900000D02*
X155800000Y-89800000D01*
%TO.N,GPIO21*%
X157150000Y-83950000D02*
X157150000Y-92370000D01*
%TO.N,GPIO18*%
X150900000Y-88900000D02*
X152910000Y-88900000D01*
X152910000Y-88900000D02*
X154460000Y-87350000D01*
%TO.N,GPIO21*%
X155220000Y-82020000D02*
X157150000Y-83950000D01*
%TO.N,GPIO19*%
X154460000Y-84560000D02*
X155800000Y-85900000D01*
%TO.N,GPIO21*%
X147230000Y-82020000D02*
X155220000Y-82020000D01*
%TO.N,GPIO19*%
X147230000Y-84560000D02*
X154460000Y-84560000D01*
%TO.N,GPIO18*%
X149100000Y-87100000D02*
X150900000Y-88900000D01*
X147230000Y-87100000D02*
X149100000Y-87100000D01*
%TO.N,GPIO23*%
X151660000Y-71860000D02*
X158100000Y-78300000D01*
X147230000Y-71860000D02*
X151660000Y-71860000D01*
X159140000Y-99990000D02*
X160960000Y-99990000D01*
X158100000Y-98950000D02*
X159140000Y-99990000D01*
X158100000Y-78300000D02*
X158100000Y-98950000D01*
%TO.N,GPIO14*%
X121830000Y-97260000D02*
X126590000Y-97260000D01*
X130480000Y-93502500D02*
X133010000Y-93502500D01*
%TO.N,GPIO27*%
X126512500Y-94720000D02*
X127531250Y-93701250D01*
X130270000Y-90962500D02*
X133010000Y-90962500D01*
%TO.N,GPIO25*%
X126042500Y-89640000D02*
X129411250Y-86271250D01*
%TO.N,GPIO27*%
X121830000Y-94720000D02*
X126512500Y-94720000D01*
%TO.N,GPIO25*%
X129800000Y-85882500D02*
X133010000Y-85882500D01*
%TO.N,GPIO14*%
X126722500Y-97260000D02*
X130480000Y-93502500D01*
%TO.N,GPIO25*%
X121830000Y-89640000D02*
X126042500Y-89640000D01*
%TO.N,GPIO12*%
X133010000Y-96042500D02*
X133642500Y-96042500D01*
%TO.N,GPIO23*%
X147230000Y-71860000D02*
X144240000Y-71860000D01*
X144240000Y-71860000D02*
X135550000Y-80550000D01*
%TO.N,GPIO22*%
X135550000Y-85882500D02*
X135747500Y-85882500D01*
%TO.N,GPIO23*%
X135550000Y-80550000D02*
X135550000Y-80802500D01*
%TO.N,GPIO22*%
X135747500Y-85882500D02*
X147230000Y-74400000D01*
%TO.N,GPIO5*%
X138842500Y-96042500D02*
X135550000Y-96042500D01*
X138850000Y-96050000D02*
X138842500Y-96042500D01*
X145260000Y-89640000D02*
X138850000Y-96050000D01*
X147230000Y-89640000D02*
X145260000Y-89640000D01*
%TO.N,GPIO26*%
X133010000Y-88460000D02*
X133010000Y-88422500D01*
%TO.N,GPIO13*%
X126342500Y-102340000D02*
X130100000Y-98582500D01*
%TO.N,GPIO12*%
X126682500Y-99800000D02*
X130440000Y-96042500D01*
%TO.N,GPIO13*%
X130100000Y-98582500D02*
X133010000Y-98582500D01*
%TO.N,GPIO12*%
X130440000Y-96042500D02*
X133010000Y-96042500D01*
%TO.N,GPIO13*%
X121830000Y-102340000D02*
X124140000Y-102340000D01*
%TO.N,GPIO12*%
X121830000Y-99800000D02*
X125520000Y-99800000D01*
%TD*%
%TA.AperFunction,Conductor*%
%TO.N,/PWR IN*%
G36*
X186183237Y-106279685D02*
G01*
X186228992Y-106332489D01*
X186240198Y-106383801D01*
X186249938Y-112461347D01*
X186230361Y-112528418D01*
X186228087Y-112531842D01*
X185609999Y-113430000D01*
X185658087Y-116565291D01*
X185639433Y-116632625D01*
X185587337Y-116679184D01*
X185535283Y-116691187D01*
X178434823Y-116758811D01*
X178367599Y-116739766D01*
X178321343Y-116687400D01*
X178309643Y-116635171D01*
X178309443Y-116565291D01*
X178299221Y-112987500D01*
X180571522Y-112987500D01*
X181517599Y-112987500D01*
X181500924Y-113004175D01*
X181450896Y-113090825D01*
X181425000Y-113187472D01*
X181425000Y-113287528D01*
X181450896Y-113384175D01*
X181500924Y-113470825D01*
X181517599Y-113487500D01*
X180571522Y-113487500D01*
X180585704Y-113577044D01*
X180656230Y-113794104D01*
X180759849Y-113997466D01*
X180894004Y-114182114D01*
X181055385Y-114343495D01*
X181240033Y-114477650D01*
X181443395Y-114581269D01*
X181660455Y-114651795D01*
X181885884Y-114687500D01*
X182700000Y-114687500D01*
X182700000Y-113617500D01*
X183200000Y-113617500D01*
X183200000Y-114687500D01*
X184014116Y-114687500D01*
X184239544Y-114651795D01*
X184456604Y-114581269D01*
X184659966Y-114477650D01*
X184844614Y-114343495D01*
X185005995Y-114182114D01*
X185140150Y-113997466D01*
X185243769Y-113794104D01*
X185314295Y-113577044D01*
X185328478Y-113487500D01*
X184382401Y-113487500D01*
X184399076Y-113470825D01*
X184449104Y-113384175D01*
X184475000Y-113287528D01*
X184475000Y-113187472D01*
X184449104Y-113090825D01*
X184399076Y-113004175D01*
X184382401Y-112987500D01*
X185328478Y-112987500D01*
X185314295Y-112897955D01*
X185243769Y-112680895D01*
X185140150Y-112477533D01*
X185005995Y-112292885D01*
X184844614Y-112131504D01*
X184659966Y-111997349D01*
X184456604Y-111893730D01*
X184239544Y-111823204D01*
X184014116Y-111787500D01*
X183200000Y-111787500D01*
X183200000Y-112857500D01*
X182700000Y-112857500D01*
X182700000Y-111787500D01*
X181885884Y-111787500D01*
X181660455Y-111823204D01*
X181443395Y-111893730D01*
X181240033Y-111997349D01*
X181055385Y-112131504D01*
X180894004Y-112292885D01*
X180759849Y-112477533D01*
X180656230Y-112680895D01*
X180585704Y-112897955D01*
X180571522Y-112987500D01*
X178299221Y-112987500D01*
X178290573Y-109960500D01*
X178289910Y-109728357D01*
X178285825Y-108298575D01*
X179110000Y-108298575D01*
X179110000Y-108521424D01*
X179139085Y-108742354D01*
X179139088Y-108742367D01*
X179196763Y-108957618D01*
X179282045Y-109163502D01*
X179282054Y-109163520D01*
X179393464Y-109356491D01*
X179393473Y-109356504D01*
X179444040Y-109422403D01*
X179444043Y-109422403D01*
X180094152Y-108772293D01*
X180101049Y-108788942D01*
X180188599Y-108919970D01*
X180300030Y-109031401D01*
X180431058Y-109118951D01*
X180447705Y-109125846D01*
X179797595Y-109775955D01*
X179797595Y-109775956D01*
X179863507Y-109826533D01*
X180056485Y-109937949D01*
X180056497Y-109937954D01*
X180262381Y-110023236D01*
X180477632Y-110080911D01*
X180477645Y-110080914D01*
X180698575Y-110110000D01*
X180921425Y-110110000D01*
X181142354Y-110080914D01*
X181142367Y-110080911D01*
X181357618Y-110023236D01*
X181563502Y-109937954D01*
X181563514Y-109937949D01*
X181756498Y-109826530D01*
X181822403Y-109775957D01*
X181822404Y-109775956D01*
X181172294Y-109125846D01*
X181188942Y-109118951D01*
X181319970Y-109031401D01*
X181431401Y-108919970D01*
X181518951Y-108788942D01*
X181525846Y-108772294D01*
X182175956Y-109422404D01*
X182175957Y-109422403D01*
X182226530Y-109356498D01*
X182337949Y-109163514D01*
X182337954Y-109163502D01*
X182423236Y-108957618D01*
X182466025Y-108797926D01*
X182502390Y-108738265D01*
X182565237Y-108707736D01*
X182634612Y-108716031D01*
X182688490Y-108760516D01*
X182703729Y-108791698D01*
X182773096Y-109005185D01*
X182877454Y-109210000D01*
X182883896Y-109222642D01*
X183027339Y-109420076D01*
X183027343Y-109420081D01*
X183199918Y-109592656D01*
X183199923Y-109592660D01*
X183372136Y-109717779D01*
X183397361Y-109736106D01*
X183614815Y-109846904D01*
X183846924Y-109922321D01*
X184087973Y-109960500D01*
X184087974Y-109960500D01*
X184332026Y-109960500D01*
X184332027Y-109960500D01*
X184573076Y-109922321D01*
X184805185Y-109846904D01*
X185022639Y-109736106D01*
X185220083Y-109592655D01*
X185392655Y-109420083D01*
X185536106Y-109222639D01*
X185646904Y-109005185D01*
X185722321Y-108773076D01*
X185760500Y-108532027D01*
X185760500Y-108287973D01*
X185722321Y-108046924D01*
X185646904Y-107814815D01*
X185536106Y-107597361D01*
X185438856Y-107463507D01*
X185392660Y-107399923D01*
X185392656Y-107399918D01*
X185220081Y-107227343D01*
X185220076Y-107227339D01*
X185022642Y-107083896D01*
X185022641Y-107083895D01*
X185022639Y-107083894D01*
X184805185Y-106973096D01*
X184573076Y-106897679D01*
X184573074Y-106897678D01*
X184573072Y-106897678D01*
X184404769Y-106871021D01*
X184332027Y-106859500D01*
X184087973Y-106859500D01*
X184032093Y-106868350D01*
X183846927Y-106897678D01*
X183614812Y-106973097D01*
X183397357Y-107083896D01*
X183199923Y-107227339D01*
X183199918Y-107227343D01*
X183027343Y-107399918D01*
X183027339Y-107399923D01*
X182883896Y-107597357D01*
X182773097Y-107814812D01*
X182703731Y-108028298D01*
X182664293Y-108085974D01*
X182599935Y-108113172D01*
X182531088Y-108101257D01*
X182479613Y-108054013D01*
X182466025Y-108022073D01*
X182423236Y-107862381D01*
X182337954Y-107656497D01*
X182337949Y-107656485D01*
X182226533Y-107463507D01*
X182175956Y-107397595D01*
X182175955Y-107397595D01*
X181525846Y-108047704D01*
X181518951Y-108031058D01*
X181431401Y-107900030D01*
X181319970Y-107788599D01*
X181188942Y-107701049D01*
X181172293Y-107694152D01*
X181822403Y-107044043D01*
X181822403Y-107044040D01*
X181756504Y-106993473D01*
X181756491Y-106993464D01*
X181563520Y-106882054D01*
X181563502Y-106882045D01*
X181357618Y-106796763D01*
X181142367Y-106739088D01*
X181142354Y-106739085D01*
X180921425Y-106710000D01*
X180698575Y-106710000D01*
X180477645Y-106739085D01*
X180477632Y-106739088D01*
X180262381Y-106796763D01*
X180056497Y-106882045D01*
X180056479Y-106882054D01*
X179863511Y-106993462D01*
X179797595Y-107044042D01*
X180447706Y-107694152D01*
X180431058Y-107701049D01*
X180300030Y-107788599D01*
X180188599Y-107900030D01*
X180101049Y-108031058D01*
X180094153Y-108047706D01*
X179444042Y-107397595D01*
X179393462Y-107463511D01*
X179282054Y-107656479D01*
X179282045Y-107656497D01*
X179196763Y-107862381D01*
X179139088Y-108077632D01*
X179139085Y-108077645D01*
X179110000Y-108298575D01*
X178285825Y-108298575D01*
X178285814Y-108294871D01*
X178282378Y-107092349D01*
X178282240Y-107044040D01*
X178280355Y-106384352D01*
X178299847Y-106317259D01*
X178352520Y-106271353D01*
X178404354Y-106260000D01*
X186116198Y-106260000D01*
X186183237Y-106279685D01*
G37*
%TD.AperFunction*%
%TD*%
%TA.AperFunction,Conductor*%
%TO.N,+5V*%
G36*
X186284167Y-88499762D02*
G01*
X186329995Y-88552502D01*
X186341266Y-88602893D01*
X186399969Y-94297057D01*
X186399891Y-94302924D01*
X186390000Y-94569993D01*
X186360533Y-101406138D01*
X186340559Y-101473092D01*
X186287559Y-101518619D01*
X186236137Y-101529603D01*
X177000000Y-101499999D01*
X177000000Y-124376000D01*
X176980315Y-124443039D01*
X176927511Y-124488794D01*
X176876000Y-124500000D01*
X176410573Y-124500000D01*
X176343534Y-124480315D01*
X176297779Y-124427511D01*
X176287835Y-124358353D01*
X176311306Y-124301689D01*
X176393353Y-124192088D01*
X176393354Y-124192086D01*
X176443596Y-124057379D01*
X176443598Y-124057372D01*
X176449999Y-123997844D01*
X176450000Y-123997827D01*
X176450000Y-123000000D01*
X175298482Y-123000000D01*
X175309111Y-122981591D01*
X175350000Y-122828991D01*
X175350000Y-122671009D01*
X175309111Y-122518409D01*
X175298482Y-122500000D01*
X176450000Y-122500000D01*
X176450000Y-121502172D01*
X176449999Y-121502155D01*
X176443598Y-121442627D01*
X176443596Y-121442620D01*
X176393354Y-121307913D01*
X176393350Y-121307906D01*
X176307190Y-121192812D01*
X176307187Y-121192809D01*
X176192093Y-121106649D01*
X176192086Y-121106645D01*
X176057379Y-121056403D01*
X176057372Y-121056401D01*
X175997844Y-121050000D01*
X175000000Y-121050000D01*
X175000000Y-122201517D01*
X174981591Y-122190889D01*
X174828991Y-122150000D01*
X174671009Y-122150000D01*
X174518409Y-122190889D01*
X174500000Y-122201517D01*
X174500000Y-121050000D01*
X173502155Y-121050000D01*
X173442627Y-121056401D01*
X173442620Y-121056403D01*
X173307913Y-121106645D01*
X173307906Y-121106649D01*
X173192812Y-121192809D01*
X173192809Y-121192812D01*
X173106649Y-121307906D01*
X173106645Y-121307913D01*
X173056403Y-121442620D01*
X173056401Y-121442627D01*
X173050000Y-121502155D01*
X173050000Y-122500000D01*
X174201518Y-122500000D01*
X174190889Y-122518409D01*
X174150000Y-122671009D01*
X174150000Y-122828991D01*
X174190889Y-122981591D01*
X174201518Y-123000000D01*
X173050000Y-123000000D01*
X173050000Y-123997844D01*
X173056401Y-124057372D01*
X173056403Y-124057379D01*
X173106645Y-124192086D01*
X173106646Y-124192088D01*
X173188694Y-124301689D01*
X173213111Y-124367153D01*
X173198260Y-124435426D01*
X173148855Y-124484832D01*
X173089427Y-124500000D01*
X172124000Y-124500000D01*
X172056961Y-124480315D01*
X172011206Y-124427511D01*
X172000000Y-124376000D01*
X172000000Y-98378575D01*
X179110000Y-98378575D01*
X179110000Y-98601424D01*
X179139085Y-98822354D01*
X179139088Y-98822367D01*
X179196763Y-99037618D01*
X179282045Y-99243502D01*
X179282054Y-99243520D01*
X179393464Y-99436491D01*
X179393473Y-99436504D01*
X179444040Y-99502403D01*
X179444043Y-99502403D01*
X180094152Y-98852293D01*
X180101049Y-98868942D01*
X180188599Y-98999970D01*
X180300030Y-99111401D01*
X180431058Y-99198951D01*
X180447705Y-99205846D01*
X179797595Y-99855955D01*
X179797595Y-99855956D01*
X179863507Y-99906533D01*
X180056485Y-100017949D01*
X180056497Y-100017954D01*
X180262381Y-100103236D01*
X180477632Y-100160911D01*
X180477645Y-100160914D01*
X180698575Y-100190000D01*
X180921425Y-100190000D01*
X181142354Y-100160914D01*
X181142367Y-100160911D01*
X181357618Y-100103236D01*
X181563502Y-100017954D01*
X181563514Y-100017949D01*
X181756498Y-99906530D01*
X181822403Y-99855957D01*
X181822404Y-99855956D01*
X181172294Y-99205846D01*
X181188942Y-99198951D01*
X181319970Y-99111401D01*
X181431401Y-98999970D01*
X181518951Y-98868942D01*
X181525846Y-98852294D01*
X182175956Y-99502404D01*
X182175957Y-99502403D01*
X182226530Y-99436498D01*
X182337949Y-99243514D01*
X182337954Y-99243502D01*
X182423236Y-99037618D01*
X182480911Y-98822367D01*
X182480914Y-98822354D01*
X182510000Y-98601424D01*
X182510000Y-98379778D01*
X182809500Y-98379778D01*
X182809500Y-98600222D01*
X182826742Y-98709086D01*
X182843985Y-98817952D01*
X182912103Y-99027603D01*
X182912104Y-99027606D01*
X183012187Y-99224025D01*
X183141752Y-99402358D01*
X183141756Y-99402363D01*
X183297636Y-99558243D01*
X183297641Y-99558247D01*
X183453192Y-99671260D01*
X183475978Y-99687815D01*
X183604375Y-99753237D01*
X183672393Y-99787895D01*
X183672396Y-99787896D01*
X183777221Y-99821955D01*
X183882049Y-99856015D01*
X184099778Y-99890500D01*
X184099779Y-99890500D01*
X184320221Y-99890500D01*
X184320222Y-99890500D01*
X184537951Y-99856015D01*
X184747606Y-99787895D01*
X184944022Y-99687815D01*
X185122365Y-99558242D01*
X185278242Y-99402365D01*
X185407815Y-99224022D01*
X185507895Y-99027606D01*
X185576015Y-98817951D01*
X185610500Y-98600222D01*
X185610500Y-98379778D01*
X185576015Y-98162049D01*
X185541955Y-98057221D01*
X185507896Y-97952396D01*
X185507895Y-97952393D01*
X185420589Y-97781049D01*
X185407815Y-97755978D01*
X185382215Y-97720743D01*
X185278247Y-97577641D01*
X185278243Y-97577636D01*
X185122363Y-97421756D01*
X185122358Y-97421752D01*
X184944025Y-97292187D01*
X184944024Y-97292186D01*
X184944022Y-97292185D01*
X184881096Y-97260122D01*
X184747606Y-97192104D01*
X184747603Y-97192103D01*
X184537952Y-97123985D01*
X184429086Y-97106742D01*
X184320222Y-97089500D01*
X184099778Y-97089500D01*
X184027201Y-97100995D01*
X183882047Y-97123985D01*
X183672396Y-97192103D01*
X183672393Y-97192104D01*
X183475974Y-97292187D01*
X183297641Y-97421752D01*
X183297636Y-97421756D01*
X183141756Y-97577636D01*
X183141752Y-97577641D01*
X183012187Y-97755974D01*
X182912104Y-97952393D01*
X182912103Y-97952396D01*
X182843985Y-98162047D01*
X182843985Y-98162049D01*
X182809500Y-98379778D01*
X182510000Y-98379778D01*
X182510000Y-98378575D01*
X182480914Y-98157645D01*
X182480911Y-98157632D01*
X182423236Y-97942381D01*
X182337954Y-97736497D01*
X182337949Y-97736485D01*
X182226533Y-97543507D01*
X182175956Y-97477595D01*
X182175955Y-97477595D01*
X181525846Y-98127704D01*
X181518951Y-98111058D01*
X181431401Y-97980030D01*
X181319970Y-97868599D01*
X181188942Y-97781049D01*
X181172293Y-97774152D01*
X181822403Y-97124043D01*
X181822403Y-97124040D01*
X181756504Y-97073473D01*
X181756491Y-97073464D01*
X181563520Y-96962054D01*
X181563502Y-96962045D01*
X181357618Y-96876763D01*
X181142367Y-96819088D01*
X181142354Y-96819085D01*
X180921425Y-96790000D01*
X180698575Y-96790000D01*
X180477645Y-96819085D01*
X180477632Y-96819088D01*
X180262381Y-96876763D01*
X180056497Y-96962045D01*
X180056479Y-96962054D01*
X179863511Y-97073462D01*
X179797595Y-97124042D01*
X180447706Y-97774152D01*
X180431058Y-97781049D01*
X180300030Y-97868599D01*
X180188599Y-97980030D01*
X180101049Y-98111058D01*
X180094153Y-98127706D01*
X179444042Y-97477595D01*
X179393462Y-97543511D01*
X179282054Y-97736479D01*
X179282045Y-97736497D01*
X179196763Y-97942381D01*
X179139088Y-98157632D01*
X179139085Y-98157645D01*
X179110000Y-98378575D01*
X172000000Y-98378575D01*
X172000000Y-90027155D01*
X179575000Y-90027155D01*
X179575000Y-90750000D01*
X180291759Y-90750000D01*
X180278822Y-90781233D01*
X180250000Y-90926131D01*
X180250000Y-91073869D01*
X180278822Y-91218767D01*
X180291759Y-91250000D01*
X179575000Y-91250000D01*
X179575000Y-91972844D01*
X179581401Y-92032372D01*
X179581403Y-92032379D01*
X179631645Y-92167086D01*
X179631649Y-92167093D01*
X179717809Y-92282187D01*
X179717812Y-92282190D01*
X179832906Y-92368350D01*
X179832913Y-92368354D01*
X179967620Y-92418596D01*
X179967627Y-92418598D01*
X180027155Y-92424999D01*
X180027172Y-92425000D01*
X180750000Y-92425000D01*
X180750000Y-91708240D01*
X180781233Y-91721178D01*
X180926131Y-91750000D01*
X181073869Y-91750000D01*
X181218767Y-91721178D01*
X181250000Y-91708240D01*
X181250000Y-92425000D01*
X181972828Y-92425000D01*
X181972844Y-92424999D01*
X182032372Y-92418598D01*
X182032379Y-92418596D01*
X182167086Y-92368354D01*
X182167093Y-92368350D01*
X182282187Y-92282190D01*
X182282190Y-92282187D01*
X182368350Y-92167093D01*
X182368354Y-92167086D01*
X182418596Y-92032379D01*
X182418598Y-92032372D01*
X182424999Y-91972844D01*
X182425000Y-91972827D01*
X182425000Y-91250000D01*
X181708241Y-91250000D01*
X181721178Y-91218767D01*
X181750000Y-91073869D01*
X181750000Y-90926131D01*
X181721178Y-90781233D01*
X181708241Y-90750000D01*
X182425000Y-90750000D01*
X182425000Y-90027172D01*
X182424999Y-90027155D01*
X182418598Y-89967627D01*
X182418596Y-89967620D01*
X182368354Y-89832913D01*
X182368350Y-89832906D01*
X182282190Y-89717812D01*
X182282187Y-89717809D01*
X182167093Y-89631649D01*
X182167086Y-89631645D01*
X182032379Y-89581403D01*
X182032372Y-89581401D01*
X181972844Y-89575000D01*
X181250000Y-89575000D01*
X181250000Y-90291759D01*
X181218767Y-90278822D01*
X181073869Y-90250000D01*
X180926131Y-90250000D01*
X180781233Y-90278822D01*
X180750000Y-90291759D01*
X180750000Y-89575000D01*
X180027155Y-89575000D01*
X179967627Y-89581401D01*
X179967620Y-89581403D01*
X179832913Y-89631645D01*
X179832906Y-89631649D01*
X179717812Y-89717809D01*
X179717809Y-89717812D01*
X179631649Y-89832906D01*
X179631645Y-89832913D01*
X179581403Y-89967620D01*
X179581401Y-89967627D01*
X179575000Y-90027155D01*
X172000000Y-90027155D01*
X172000000Y-88623827D01*
X172019685Y-88556788D01*
X172072489Y-88511033D01*
X172123825Y-88499827D01*
X186217101Y-88480171D01*
X186284167Y-88499762D01*
G37*
%TD.AperFunction*%
%TD*%
M02*
