M48
; DRILL file {KiCad 9.0.0} date 2025-04-14T04:42:38-0400
; FORMAT={-:-/ absolute / metric / decimal}
; #@! TF.CreationDate,2025-04-14T04:42:38-04:00
; #@! TF.GenerationSoftware,Kicad,Pcbnew,9.0.0
; #@! TF.FileFunction,Plated,1,2,PTH
FMAT,2
METRIC
; #@! TA.AperFunction,Plated,PTH,ViaDrill
T1C0.300
; #@! TA.AperFunction,Plated,PTH,ViaDrill
T2C0.400
; #@! TA.AperFunction,Plated,PTH,ComponentDrill
T3C0.760
; #@! TA.AperFunction,Plated,PTH,ComponentDrill
T4C1.000
; #@! TA.AperFunction,Plated,PTH,ComponentDrill
T5C1.020
; #@! TA.AperFunction,Plated,PTH,ComponentDrill
T6C1.020
; #@! TA.AperFunction,Plated,PTH,ComponentDrill
T7C1.040
; #@! TA.AperFunction,Plated,PTH,ComponentDrill
T8C1.200
; #@! TA.AperFunction,Plated,PTH,ComponentDrill
T9C1.300
; #@! TA.AperFunction,Plated,PTH,ComponentDrill
T10C1.500
; #@! TA.AperFunction,Plated,PTH,ComponentDrill
T11C1.600
; #@! TA.AperFunction,Plated,PTH,ComponentDrill
T12C2.000
%
G90
G05
T1
X122.267Y-116.85
X124.14Y-102.34
X124.607Y-114.51
X125.52Y-99.8
X126.59Y-97.26
X127.531Y-93.701
X128.576Y-89.856
X129.411Y-86.271
X130.267Y-83.437
X131.22Y-80.802
X139.75Y-121.05
X142.3Y-117.0
X150.15Y-89.65
X154.46Y-87.35
X155.8Y-89.8
X157.15Y-92.37
X183.75Y-79.6
T2
X138.111Y-75.94
T4
X125.43Y-66.582
X127.97Y-66.582
X130.51Y-66.582
X133.05Y-66.582
X135.59Y-66.582
X138.13Y-66.582
X140.67Y-66.582
X143.21Y-66.582
X145.75Y-66.582
X148.29Y-66.582
T5
X160.96Y-82.21
X160.96Y-84.75
X160.96Y-87.29
X160.96Y-89.83
X160.96Y-92.37
X160.96Y-94.91
X160.96Y-97.45
X160.96Y-99.99
X163.5Y-82.21
X163.5Y-84.75
X163.5Y-87.29
X163.5Y-89.83
X163.5Y-92.37
X163.5Y-94.91
X163.5Y-97.45
X163.5Y-99.99
T6
X133.01Y-80.802
X133.01Y-83.343
X133.01Y-85.882
X133.01Y-88.422
X133.01Y-90.962
X133.01Y-93.502
X133.01Y-96.042
X133.01Y-98.582
X135.55Y-80.802
X135.55Y-83.343
X135.55Y-85.882
X135.55Y-88.422
X135.55Y-90.962
X135.55Y-93.502
X135.55Y-96.042
X135.55Y-98.582
X207.35Y-79.19
X207.35Y-81.73
X207.35Y-84.27
X207.35Y-86.81
X207.35Y-89.35
X207.35Y-91.89
X207.35Y-94.43
X207.35Y-96.97
X207.35Y-99.51
X207.35Y-102.05
X207.35Y-104.59
X207.35Y-107.13
X207.35Y-109.67
X207.35Y-112.21
X207.35Y-114.75
X232.75Y-79.19
X232.75Y-81.73
X232.75Y-84.27
X232.75Y-86.81
X232.75Y-89.35
X232.75Y-91.89
X232.75Y-94.43
X232.75Y-96.97
X232.75Y-99.51
X232.75Y-102.05
X232.75Y-104.59
X232.75Y-107.13
X232.75Y-109.67
X232.75Y-112.21
X232.75Y-114.75
T7
X121.83Y-71.86
X121.83Y-74.4
X121.83Y-76.94
X121.83Y-79.48
X121.83Y-82.02
X121.83Y-84.56
X121.83Y-87.1
X121.83Y-89.64
X121.83Y-92.18
X121.83Y-94.72
X121.83Y-97.26
X121.83Y-99.8
X121.83Y-102.34
X121.83Y-104.88
X121.83Y-107.42
X147.23Y-71.86
X147.23Y-74.4
X147.23Y-76.94
X147.23Y-79.48
X147.23Y-82.02
X147.23Y-84.56
X147.23Y-87.1
X147.23Y-89.64
X147.23Y-92.18
X147.23Y-94.72
X147.23Y-97.26
X147.23Y-99.8
X147.23Y-102.34
X147.23Y-104.88
X147.23Y-107.42
T8
X149.75Y-122.75
X174.75Y-122.75
T10
X181.0Y-86.0
X181.0Y-91.0
T11
X180.81Y-98.49
X180.81Y-108.41
X184.21Y-98.49
X184.21Y-108.41
T3
G00X181.805Y-113.237
M15
G01X184.095Y-113.237
M16
G05
G00X181.805Y-119.167
M15
G01X184.095Y-119.167
M16
G05
G00X187.6Y-114.772
M15
G01X187.6Y-117.062
M16
G05
T4
G00X122.267Y-120.55
M15
G01X122.267Y-122.05
M16
G05
G00X129.767Y-120.55
M15
G01X129.767Y-122.05
M16
G05
G00X137.517Y-120.55
M15
G01X137.517Y-122.05
M16
G05
G00X145.017Y-120.55
M15
G01X145.017Y-122.05
M16
G05
T9
G00X125.417Y-125.0
M15
G01X126.617Y-125.0
M16
G05
G00X140.667Y-125.0
M15
G01X141.868Y-125.0
M16
G05
T12
G00X200.0Y-101.5
M15
G01X200.0Y-100.0
M16
G05
G00X200.0Y-109.5
M15
G01X200.0Y-108.0
M16
G05
M30
