%TF.GenerationSoftware,KiCad,Pcbnew,9.0.0*%
%TF.CreationDate,2025-04-30T00:07:22-04:00*%
%TF.ProjectId,W4MLB_Band_Display,57344d4c-425f-4426-916e-645f44697370,1.0*%
%TF.SameCoordinates,Original*%
%TF.FileFunction,Legend,Bot*%
%TF.FilePolarity,Positive*%
%FSLAX46Y46*%
G04 Gerber Fmt 4.6, Leading zero omitted, Abs format (unit mm)*
G04 Created by KiCad (PCBNEW 9.0.0) date 2025-04-30 00:07:22*
%MOMM*%
%LPD*%
G01*
G04 APERTURE LIST*
%ADD10C,0.125000*%
%ADD11C,0.150000*%
%ADD12C,0.508000*%
%ADD13C,0.200000*%
G04 APERTURE END LIST*
D10*
X133251231Y-66120331D02*
X132251231Y-66120331D01*
X132251231Y-66120331D02*
X132251231Y-66501283D01*
X132251231Y-66501283D02*
X132298850Y-66596521D01*
X132298850Y-66596521D02*
X132346469Y-66644140D01*
X132346469Y-66644140D02*
X132441707Y-66691759D01*
X132441707Y-66691759D02*
X132584564Y-66691759D01*
X132584564Y-66691759D02*
X132679802Y-66644140D01*
X132679802Y-66644140D02*
X132727421Y-66596521D01*
X132727421Y-66596521D02*
X132775040Y-66501283D01*
X132775040Y-66501283D02*
X132775040Y-66120331D01*
X133251231Y-67263188D02*
X133203612Y-67167950D01*
X133203612Y-67167950D02*
X133108373Y-67120331D01*
X133108373Y-67120331D02*
X132251231Y-67120331D01*
X132584564Y-68072712D02*
X133251231Y-68072712D01*
X132584564Y-67644141D02*
X133108373Y-67644141D01*
X133108373Y-67644141D02*
X133203612Y-67691760D01*
X133203612Y-67691760D02*
X133251231Y-67786998D01*
X133251231Y-67786998D02*
X133251231Y-67929855D01*
X133251231Y-67929855D02*
X133203612Y-68025093D01*
X133203612Y-68025093D02*
X133155992Y-68072712D01*
X132584564Y-68977474D02*
X133394088Y-68977474D01*
X133394088Y-68977474D02*
X133489326Y-68929855D01*
X133489326Y-68929855D02*
X133536945Y-68882236D01*
X133536945Y-68882236D02*
X133584564Y-68786998D01*
X133584564Y-68786998D02*
X133584564Y-68644141D01*
X133584564Y-68644141D02*
X133536945Y-68548903D01*
X133203612Y-68977474D02*
X133251231Y-68882236D01*
X133251231Y-68882236D02*
X133251231Y-68691760D01*
X133251231Y-68691760D02*
X133203612Y-68596522D01*
X133203612Y-68596522D02*
X133155992Y-68548903D01*
X133155992Y-68548903D02*
X133060754Y-68501284D01*
X133060754Y-68501284D02*
X132775040Y-68501284D01*
X132775040Y-68501284D02*
X132679802Y-68548903D01*
X132679802Y-68548903D02*
X132632183Y-68596522D01*
X132632183Y-68596522D02*
X132584564Y-68691760D01*
X132584564Y-68691760D02*
X132584564Y-68882236D01*
X132584564Y-68882236D02*
X132632183Y-68977474D01*
X133251231Y-70644141D02*
X132251231Y-70644141D01*
X133203612Y-70644141D02*
X133251231Y-70548903D01*
X133251231Y-70548903D02*
X133251231Y-70358427D01*
X133251231Y-70358427D02*
X133203612Y-70263189D01*
X133203612Y-70263189D02*
X133155992Y-70215570D01*
X133155992Y-70215570D02*
X133060754Y-70167951D01*
X133060754Y-70167951D02*
X132775040Y-70167951D01*
X132775040Y-70167951D02*
X132679802Y-70215570D01*
X132679802Y-70215570D02*
X132632183Y-70263189D01*
X132632183Y-70263189D02*
X132584564Y-70358427D01*
X132584564Y-70358427D02*
X132584564Y-70548903D01*
X132584564Y-70548903D02*
X132632183Y-70644141D01*
X133251231Y-71120332D02*
X132584564Y-71120332D01*
X132251231Y-71120332D02*
X132298850Y-71072713D01*
X132298850Y-71072713D02*
X132346469Y-71120332D01*
X132346469Y-71120332D02*
X132298850Y-71167951D01*
X132298850Y-71167951D02*
X132251231Y-71120332D01*
X132251231Y-71120332D02*
X132346469Y-71120332D01*
X133251231Y-71596522D02*
X132584564Y-71596522D01*
X132775040Y-71596522D02*
X132679802Y-71644141D01*
X132679802Y-71644141D02*
X132632183Y-71691760D01*
X132632183Y-71691760D02*
X132584564Y-71786998D01*
X132584564Y-71786998D02*
X132584564Y-71882236D01*
X133203612Y-72596522D02*
X133251231Y-72501284D01*
X133251231Y-72501284D02*
X133251231Y-72310808D01*
X133251231Y-72310808D02*
X133203612Y-72215570D01*
X133203612Y-72215570D02*
X133108373Y-72167951D01*
X133108373Y-72167951D02*
X132727421Y-72167951D01*
X132727421Y-72167951D02*
X132632183Y-72215570D01*
X132632183Y-72215570D02*
X132584564Y-72310808D01*
X132584564Y-72310808D02*
X132584564Y-72501284D01*
X132584564Y-72501284D02*
X132632183Y-72596522D01*
X132632183Y-72596522D02*
X132727421Y-72644141D01*
X132727421Y-72644141D02*
X132822659Y-72644141D01*
X132822659Y-72644141D02*
X132917897Y-72167951D01*
X133203612Y-73501284D02*
X133251231Y-73406046D01*
X133251231Y-73406046D02*
X133251231Y-73215570D01*
X133251231Y-73215570D02*
X133203612Y-73120332D01*
X133203612Y-73120332D02*
X133155992Y-73072713D01*
X133155992Y-73072713D02*
X133060754Y-73025094D01*
X133060754Y-73025094D02*
X132775040Y-73025094D01*
X132775040Y-73025094D02*
X132679802Y-73072713D01*
X132679802Y-73072713D02*
X132632183Y-73120332D01*
X132632183Y-73120332D02*
X132584564Y-73215570D01*
X132584564Y-73215570D02*
X132584564Y-73406046D01*
X132584564Y-73406046D02*
X132632183Y-73501284D01*
X132584564Y-73786999D02*
X132584564Y-74167951D01*
X132251231Y-73929856D02*
X133108373Y-73929856D01*
X133108373Y-73929856D02*
X133203612Y-73977475D01*
X133203612Y-73977475D02*
X133251231Y-74072713D01*
X133251231Y-74072713D02*
X133251231Y-74167951D01*
X133251231Y-74644142D02*
X133203612Y-74548904D01*
X133203612Y-74548904D02*
X133108373Y-74501285D01*
X133108373Y-74501285D02*
X132251231Y-74501285D01*
X132584564Y-74929857D02*
X133251231Y-75167952D01*
X132584564Y-75406047D02*
X133251231Y-75167952D01*
X133251231Y-75167952D02*
X133489326Y-75072714D01*
X133489326Y-75072714D02*
X133536945Y-75025095D01*
X133536945Y-75025095D02*
X133584564Y-74929857D01*
X134861175Y-66120331D02*
X134194508Y-66120331D01*
X133861175Y-66120331D02*
X133908794Y-66072712D01*
X133908794Y-66072712D02*
X133956413Y-66120331D01*
X133956413Y-66120331D02*
X133908794Y-66167950D01*
X133908794Y-66167950D02*
X133861175Y-66120331D01*
X133861175Y-66120331D02*
X133956413Y-66120331D01*
X134194508Y-66596521D02*
X134861175Y-66596521D01*
X134289746Y-66596521D02*
X134242127Y-66644140D01*
X134242127Y-66644140D02*
X134194508Y-66739378D01*
X134194508Y-66739378D02*
X134194508Y-66882235D01*
X134194508Y-66882235D02*
X134242127Y-66977473D01*
X134242127Y-66977473D02*
X134337365Y-67025092D01*
X134337365Y-67025092D02*
X134861175Y-67025092D01*
X134194508Y-67358426D02*
X134194508Y-67739378D01*
X133861175Y-67501283D02*
X134718317Y-67501283D01*
X134718317Y-67501283D02*
X134813556Y-67548902D01*
X134813556Y-67548902D02*
X134861175Y-67644140D01*
X134861175Y-67644140D02*
X134861175Y-67739378D01*
X134861175Y-68215569D02*
X134813556Y-68120331D01*
X134813556Y-68120331D02*
X134765936Y-68072712D01*
X134765936Y-68072712D02*
X134670698Y-68025093D01*
X134670698Y-68025093D02*
X134384984Y-68025093D01*
X134384984Y-68025093D02*
X134289746Y-68072712D01*
X134289746Y-68072712D02*
X134242127Y-68120331D01*
X134242127Y-68120331D02*
X134194508Y-68215569D01*
X134194508Y-68215569D02*
X134194508Y-68358426D01*
X134194508Y-68358426D02*
X134242127Y-68453664D01*
X134242127Y-68453664D02*
X134289746Y-68501283D01*
X134289746Y-68501283D02*
X134384984Y-68548902D01*
X134384984Y-68548902D02*
X134670698Y-68548902D01*
X134670698Y-68548902D02*
X134765936Y-68501283D01*
X134765936Y-68501283D02*
X134813556Y-68453664D01*
X134813556Y-68453664D02*
X134861175Y-68358426D01*
X134861175Y-68358426D02*
X134861175Y-68215569D01*
X134861175Y-69739379D02*
X133861175Y-69739379D01*
X134337365Y-69739379D02*
X134337365Y-70310807D01*
X134861175Y-70310807D02*
X133861175Y-70310807D01*
X133861175Y-70786998D02*
X134670698Y-70786998D01*
X134670698Y-70786998D02*
X134765936Y-70834617D01*
X134765936Y-70834617D02*
X134813556Y-70882236D01*
X134813556Y-70882236D02*
X134861175Y-70977474D01*
X134861175Y-70977474D02*
X134861175Y-71167950D01*
X134861175Y-71167950D02*
X134813556Y-71263188D01*
X134813556Y-71263188D02*
X134765936Y-71310807D01*
X134765936Y-71310807D02*
X134670698Y-71358426D01*
X134670698Y-71358426D02*
X133861175Y-71358426D01*
X134337365Y-72167950D02*
X134384984Y-72310807D01*
X134384984Y-72310807D02*
X134432603Y-72358426D01*
X134432603Y-72358426D02*
X134527841Y-72406045D01*
X134527841Y-72406045D02*
X134670698Y-72406045D01*
X134670698Y-72406045D02*
X134765936Y-72358426D01*
X134765936Y-72358426D02*
X134813556Y-72310807D01*
X134813556Y-72310807D02*
X134861175Y-72215569D01*
X134861175Y-72215569D02*
X134861175Y-71834617D01*
X134861175Y-71834617D02*
X133861175Y-71834617D01*
X133861175Y-71834617D02*
X133861175Y-72167950D01*
X133861175Y-72167950D02*
X133908794Y-72263188D01*
X133908794Y-72263188D02*
X133956413Y-72310807D01*
X133956413Y-72310807D02*
X134051651Y-72358426D01*
X134051651Y-72358426D02*
X134146889Y-72358426D01*
X134146889Y-72358426D02*
X134242127Y-72310807D01*
X134242127Y-72310807D02*
X134289746Y-72263188D01*
X134289746Y-72263188D02*
X134337365Y-72167950D01*
X134337365Y-72167950D02*
X134337365Y-71834617D01*
X133861175Y-72739379D02*
X133861175Y-73406045D01*
X133861175Y-73406045D02*
X134861175Y-72977474D01*
X133861175Y-74263188D02*
X133861175Y-73786998D01*
X133861175Y-73786998D02*
X134337365Y-73739379D01*
X134337365Y-73739379D02*
X134289746Y-73786998D01*
X134289746Y-73786998D02*
X134242127Y-73882236D01*
X134242127Y-73882236D02*
X134242127Y-74120331D01*
X134242127Y-74120331D02*
X134289746Y-74215569D01*
X134289746Y-74215569D02*
X134337365Y-74263188D01*
X134337365Y-74263188D02*
X134432603Y-74310807D01*
X134432603Y-74310807D02*
X134670698Y-74310807D01*
X134670698Y-74310807D02*
X134765936Y-74263188D01*
X134765936Y-74263188D02*
X134813556Y-74215569D01*
X134813556Y-74215569D02*
X134861175Y-74120331D01*
X134861175Y-74120331D02*
X134861175Y-73882236D01*
X134861175Y-73882236D02*
X134813556Y-73786998D01*
X134813556Y-73786998D02*
X134765936Y-73739379D01*
X136471119Y-66596521D02*
X136471119Y-66120331D01*
X136471119Y-66120331D02*
X135471119Y-66120331D01*
X135947309Y-66929855D02*
X135947309Y-67263188D01*
X136471119Y-67406045D02*
X136471119Y-66929855D01*
X136471119Y-66929855D02*
X135471119Y-66929855D01*
X135471119Y-66929855D02*
X135471119Y-67406045D01*
X136471119Y-67834617D02*
X135471119Y-67834617D01*
X135471119Y-67834617D02*
X135471119Y-68072712D01*
X135471119Y-68072712D02*
X135518738Y-68215569D01*
X135518738Y-68215569D02*
X135613976Y-68310807D01*
X135613976Y-68310807D02*
X135709214Y-68358426D01*
X135709214Y-68358426D02*
X135899690Y-68406045D01*
X135899690Y-68406045D02*
X136042547Y-68406045D01*
X136042547Y-68406045D02*
X136233023Y-68358426D01*
X136233023Y-68358426D02*
X136328261Y-68310807D01*
X136328261Y-68310807D02*
X136423500Y-68215569D01*
X136423500Y-68215569D02*
X136471119Y-68072712D01*
X136471119Y-68072712D02*
X136471119Y-67834617D01*
X136471119Y-69596522D02*
X135471119Y-69596522D01*
X135471119Y-69596522D02*
X136185404Y-69929855D01*
X136185404Y-69929855D02*
X135471119Y-70263188D01*
X135471119Y-70263188D02*
X136471119Y-70263188D01*
X136471119Y-71167950D02*
X135947309Y-71167950D01*
X135947309Y-71167950D02*
X135852071Y-71120331D01*
X135852071Y-71120331D02*
X135804452Y-71025093D01*
X135804452Y-71025093D02*
X135804452Y-70834617D01*
X135804452Y-70834617D02*
X135852071Y-70739379D01*
X136423500Y-71167950D02*
X136471119Y-71072712D01*
X136471119Y-71072712D02*
X136471119Y-70834617D01*
X136471119Y-70834617D02*
X136423500Y-70739379D01*
X136423500Y-70739379D02*
X136328261Y-70691760D01*
X136328261Y-70691760D02*
X136233023Y-70691760D01*
X136233023Y-70691760D02*
X136137785Y-70739379D01*
X136137785Y-70739379D02*
X136090166Y-70834617D01*
X136090166Y-70834617D02*
X136090166Y-71072712D01*
X136090166Y-71072712D02*
X136042547Y-71167950D01*
X135804452Y-71501284D02*
X135804452Y-71882236D01*
X135471119Y-71644141D02*
X136328261Y-71644141D01*
X136328261Y-71644141D02*
X136423500Y-71691760D01*
X136423500Y-71691760D02*
X136471119Y-71786998D01*
X136471119Y-71786998D02*
X136471119Y-71882236D01*
X136471119Y-72215570D02*
X135804452Y-72215570D01*
X135994928Y-72215570D02*
X135899690Y-72263189D01*
X135899690Y-72263189D02*
X135852071Y-72310808D01*
X135852071Y-72310808D02*
X135804452Y-72406046D01*
X135804452Y-72406046D02*
X135804452Y-72501284D01*
X136471119Y-72834618D02*
X135804452Y-72834618D01*
X135471119Y-72834618D02*
X135518738Y-72786999D01*
X135518738Y-72786999D02*
X135566357Y-72834618D01*
X135566357Y-72834618D02*
X135518738Y-72882237D01*
X135518738Y-72882237D02*
X135471119Y-72834618D01*
X135471119Y-72834618D02*
X135566357Y-72834618D01*
X136471119Y-73215570D02*
X135804452Y-73739379D01*
X135804452Y-73215570D02*
X136471119Y-73739379D01*
X136171119Y-101944140D02*
X136171119Y-101372712D01*
X136171119Y-101658426D02*
X135171119Y-101658426D01*
X135171119Y-101658426D02*
X135313976Y-101563188D01*
X135313976Y-101563188D02*
X135409214Y-101467950D01*
X135409214Y-101467950D02*
X135456833Y-101372712D01*
X135171119Y-102801283D02*
X135171119Y-102610807D01*
X135171119Y-102610807D02*
X135218738Y-102515569D01*
X135218738Y-102515569D02*
X135266357Y-102467950D01*
X135266357Y-102467950D02*
X135409214Y-102372712D01*
X135409214Y-102372712D02*
X135599690Y-102325093D01*
X135599690Y-102325093D02*
X135980642Y-102325093D01*
X135980642Y-102325093D02*
X136075880Y-102372712D01*
X136075880Y-102372712D02*
X136123500Y-102420331D01*
X136123500Y-102420331D02*
X136171119Y-102515569D01*
X136171119Y-102515569D02*
X136171119Y-102706045D01*
X136171119Y-102706045D02*
X136123500Y-102801283D01*
X136123500Y-102801283D02*
X136075880Y-102848902D01*
X136075880Y-102848902D02*
X135980642Y-102896521D01*
X135980642Y-102896521D02*
X135742547Y-102896521D01*
X135742547Y-102896521D02*
X135647309Y-102848902D01*
X135647309Y-102848902D02*
X135599690Y-102801283D01*
X135599690Y-102801283D02*
X135552071Y-102706045D01*
X135552071Y-102706045D02*
X135552071Y-102515569D01*
X135552071Y-102515569D02*
X135599690Y-102420331D01*
X135599690Y-102420331D02*
X135647309Y-102372712D01*
X135647309Y-102372712D02*
X135742547Y-102325093D01*
X132871119Y-77944140D02*
X132871119Y-77372712D01*
X132871119Y-77658426D02*
X131871119Y-77658426D01*
X131871119Y-77658426D02*
X132013976Y-77563188D01*
X132013976Y-77563188D02*
X132109214Y-77467950D01*
X132109214Y-77467950D02*
X132156833Y-77372712D01*
X134966357Y-77272712D02*
X134918738Y-77320331D01*
X134918738Y-77320331D02*
X134871119Y-77415569D01*
X134871119Y-77415569D02*
X134871119Y-77653664D01*
X134871119Y-77653664D02*
X134918738Y-77748902D01*
X134918738Y-77748902D02*
X134966357Y-77796521D01*
X134966357Y-77796521D02*
X135061595Y-77844140D01*
X135061595Y-77844140D02*
X135156833Y-77844140D01*
X135156833Y-77844140D02*
X135299690Y-77796521D01*
X135299690Y-77796521D02*
X135871119Y-77225093D01*
X135871119Y-77225093D02*
X135871119Y-77844140D01*
X133371119Y-101844140D02*
X133371119Y-101272712D01*
X133371119Y-101558426D02*
X132371119Y-101558426D01*
X132371119Y-101558426D02*
X132513976Y-101463188D01*
X132513976Y-101463188D02*
X132609214Y-101367950D01*
X132609214Y-101367950D02*
X132656833Y-101272712D01*
X132371119Y-102748902D02*
X132371119Y-102272712D01*
X132371119Y-102272712D02*
X132847309Y-102225093D01*
X132847309Y-102225093D02*
X132799690Y-102272712D01*
X132799690Y-102272712D02*
X132752071Y-102367950D01*
X132752071Y-102367950D02*
X132752071Y-102606045D01*
X132752071Y-102606045D02*
X132799690Y-102701283D01*
X132799690Y-102701283D02*
X132847309Y-102748902D01*
X132847309Y-102748902D02*
X132942547Y-102796521D01*
X132942547Y-102796521D02*
X133180642Y-102796521D01*
X133180642Y-102796521D02*
X133275880Y-102748902D01*
X133275880Y-102748902D02*
X133323500Y-102701283D01*
X133323500Y-102701283D02*
X133371119Y-102606045D01*
X133371119Y-102606045D02*
X133371119Y-102367950D01*
X133371119Y-102367950D02*
X133323500Y-102272712D01*
X133323500Y-102272712D02*
X133275880Y-102225093D01*
X140361175Y-64820331D02*
X139361175Y-64820331D01*
X139361175Y-64820331D02*
X139361175Y-65201283D01*
X139361175Y-65201283D02*
X139408794Y-65296521D01*
X139408794Y-65296521D02*
X139456413Y-65344140D01*
X139456413Y-65344140D02*
X139551651Y-65391759D01*
X139551651Y-65391759D02*
X139694508Y-65391759D01*
X139694508Y-65391759D02*
X139789746Y-65344140D01*
X139789746Y-65344140D02*
X139837365Y-65296521D01*
X139837365Y-65296521D02*
X139884984Y-65201283D01*
X139884984Y-65201283D02*
X139884984Y-64820331D01*
X140265936Y-66391759D02*
X140313556Y-66344140D01*
X140313556Y-66344140D02*
X140361175Y-66201283D01*
X140361175Y-66201283D02*
X140361175Y-66106045D01*
X140361175Y-66106045D02*
X140313556Y-65963188D01*
X140313556Y-65963188D02*
X140218317Y-65867950D01*
X140218317Y-65867950D02*
X140123079Y-65820331D01*
X140123079Y-65820331D02*
X139932603Y-65772712D01*
X139932603Y-65772712D02*
X139789746Y-65772712D01*
X139789746Y-65772712D02*
X139599270Y-65820331D01*
X139599270Y-65820331D02*
X139504032Y-65867950D01*
X139504032Y-65867950D02*
X139408794Y-65963188D01*
X139408794Y-65963188D02*
X139361175Y-66106045D01*
X139361175Y-66106045D02*
X139361175Y-66201283D01*
X139361175Y-66201283D02*
X139408794Y-66344140D01*
X139408794Y-66344140D02*
X139456413Y-66391759D01*
X140075460Y-66772712D02*
X140075460Y-67248902D01*
X140361175Y-66677474D02*
X139361175Y-67010807D01*
X139361175Y-67010807D02*
X140361175Y-67344140D01*
X140361175Y-68248902D02*
X139884984Y-67915569D01*
X140361175Y-67677474D02*
X139361175Y-67677474D01*
X139361175Y-67677474D02*
X139361175Y-68058426D01*
X139361175Y-68058426D02*
X139408794Y-68153664D01*
X139408794Y-68153664D02*
X139456413Y-68201283D01*
X139456413Y-68201283D02*
X139551651Y-68248902D01*
X139551651Y-68248902D02*
X139694508Y-68248902D01*
X139694508Y-68248902D02*
X139789746Y-68201283D01*
X139789746Y-68201283D02*
X139837365Y-68153664D01*
X139837365Y-68153664D02*
X139884984Y-68058426D01*
X139884984Y-68058426D02*
X139884984Y-67677474D01*
X140313556Y-68629855D02*
X140361175Y-68772712D01*
X140361175Y-68772712D02*
X140361175Y-69010807D01*
X140361175Y-69010807D02*
X140313556Y-69106045D01*
X140313556Y-69106045D02*
X140265936Y-69153664D01*
X140265936Y-69153664D02*
X140170698Y-69201283D01*
X140170698Y-69201283D02*
X140075460Y-69201283D01*
X140075460Y-69201283D02*
X139980222Y-69153664D01*
X139980222Y-69153664D02*
X139932603Y-69106045D01*
X139932603Y-69106045D02*
X139884984Y-69010807D01*
X139884984Y-69010807D02*
X139837365Y-68820331D01*
X139837365Y-68820331D02*
X139789746Y-68725093D01*
X139789746Y-68725093D02*
X139742127Y-68677474D01*
X139742127Y-68677474D02*
X139646889Y-68629855D01*
X139646889Y-68629855D02*
X139551651Y-68629855D01*
X139551651Y-68629855D02*
X139456413Y-68677474D01*
X139456413Y-68677474D02*
X139408794Y-68725093D01*
X139408794Y-68725093D02*
X139361175Y-68820331D01*
X139361175Y-68820331D02*
X139361175Y-69058426D01*
X139361175Y-69058426D02*
X139408794Y-69201283D01*
X139837365Y-70725093D02*
X139884984Y-70867950D01*
X139884984Y-70867950D02*
X139932603Y-70915569D01*
X139932603Y-70915569D02*
X140027841Y-70963188D01*
X140027841Y-70963188D02*
X140170698Y-70963188D01*
X140170698Y-70963188D02*
X140265936Y-70915569D01*
X140265936Y-70915569D02*
X140313556Y-70867950D01*
X140313556Y-70867950D02*
X140361175Y-70772712D01*
X140361175Y-70772712D02*
X140361175Y-70391760D01*
X140361175Y-70391760D02*
X139361175Y-70391760D01*
X139361175Y-70391760D02*
X139361175Y-70725093D01*
X139361175Y-70725093D02*
X139408794Y-70820331D01*
X139408794Y-70820331D02*
X139456413Y-70867950D01*
X139456413Y-70867950D02*
X139551651Y-70915569D01*
X139551651Y-70915569D02*
X139646889Y-70915569D01*
X139646889Y-70915569D02*
X139742127Y-70867950D01*
X139742127Y-70867950D02*
X139789746Y-70820331D01*
X139789746Y-70820331D02*
X139837365Y-70725093D01*
X139837365Y-70725093D02*
X139837365Y-70391760D01*
X140361175Y-71820331D02*
X139837365Y-71820331D01*
X139837365Y-71820331D02*
X139742127Y-71772712D01*
X139742127Y-71772712D02*
X139694508Y-71677474D01*
X139694508Y-71677474D02*
X139694508Y-71486998D01*
X139694508Y-71486998D02*
X139742127Y-71391760D01*
X140313556Y-71820331D02*
X140361175Y-71725093D01*
X140361175Y-71725093D02*
X140361175Y-71486998D01*
X140361175Y-71486998D02*
X140313556Y-71391760D01*
X140313556Y-71391760D02*
X140218317Y-71344141D01*
X140218317Y-71344141D02*
X140123079Y-71344141D01*
X140123079Y-71344141D02*
X140027841Y-71391760D01*
X140027841Y-71391760D02*
X139980222Y-71486998D01*
X139980222Y-71486998D02*
X139980222Y-71725093D01*
X139980222Y-71725093D02*
X139932603Y-71820331D01*
X139694508Y-72296522D02*
X140361175Y-72296522D01*
X139789746Y-72296522D02*
X139742127Y-72344141D01*
X139742127Y-72344141D02*
X139694508Y-72439379D01*
X139694508Y-72439379D02*
X139694508Y-72582236D01*
X139694508Y-72582236D02*
X139742127Y-72677474D01*
X139742127Y-72677474D02*
X139837365Y-72725093D01*
X139837365Y-72725093D02*
X140361175Y-72725093D01*
X140361175Y-73629855D02*
X139361175Y-73629855D01*
X140313556Y-73629855D02*
X140361175Y-73534617D01*
X140361175Y-73534617D02*
X140361175Y-73344141D01*
X140361175Y-73344141D02*
X140313556Y-73248903D01*
X140313556Y-73248903D02*
X140265936Y-73201284D01*
X140265936Y-73201284D02*
X140170698Y-73153665D01*
X140170698Y-73153665D02*
X139884984Y-73153665D01*
X139884984Y-73153665D02*
X139789746Y-73201284D01*
X139789746Y-73201284D02*
X139742127Y-73248903D01*
X139742127Y-73248903D02*
X139694508Y-73344141D01*
X139694508Y-73344141D02*
X139694508Y-73534617D01*
X139694508Y-73534617D02*
X139742127Y-73629855D01*
X140361175Y-74867951D02*
X139361175Y-74867951D01*
X139361175Y-74867951D02*
X139361175Y-75106046D01*
X139361175Y-75106046D02*
X139408794Y-75248903D01*
X139408794Y-75248903D02*
X139504032Y-75344141D01*
X139504032Y-75344141D02*
X139599270Y-75391760D01*
X139599270Y-75391760D02*
X139789746Y-75439379D01*
X139789746Y-75439379D02*
X139932603Y-75439379D01*
X139932603Y-75439379D02*
X140123079Y-75391760D01*
X140123079Y-75391760D02*
X140218317Y-75344141D01*
X140218317Y-75344141D02*
X140313556Y-75248903D01*
X140313556Y-75248903D02*
X140361175Y-75106046D01*
X140361175Y-75106046D02*
X140361175Y-74867951D01*
X140361175Y-75867951D02*
X139694508Y-75867951D01*
X139361175Y-75867951D02*
X139408794Y-75820332D01*
X139408794Y-75820332D02*
X139456413Y-75867951D01*
X139456413Y-75867951D02*
X139408794Y-75915570D01*
X139408794Y-75915570D02*
X139361175Y-75867951D01*
X139361175Y-75867951D02*
X139456413Y-75867951D01*
X140313556Y-76296522D02*
X140361175Y-76391760D01*
X140361175Y-76391760D02*
X140361175Y-76582236D01*
X140361175Y-76582236D02*
X140313556Y-76677474D01*
X140313556Y-76677474D02*
X140218317Y-76725093D01*
X140218317Y-76725093D02*
X140170698Y-76725093D01*
X140170698Y-76725093D02*
X140075460Y-76677474D01*
X140075460Y-76677474D02*
X140027841Y-76582236D01*
X140027841Y-76582236D02*
X140027841Y-76439379D01*
X140027841Y-76439379D02*
X139980222Y-76344141D01*
X139980222Y-76344141D02*
X139884984Y-76296522D01*
X139884984Y-76296522D02*
X139837365Y-76296522D01*
X139837365Y-76296522D02*
X139742127Y-76344141D01*
X139742127Y-76344141D02*
X139694508Y-76439379D01*
X139694508Y-76439379D02*
X139694508Y-76582236D01*
X139694508Y-76582236D02*
X139742127Y-76677474D01*
X139694508Y-77153665D02*
X140694508Y-77153665D01*
X139742127Y-77153665D02*
X139694508Y-77248903D01*
X139694508Y-77248903D02*
X139694508Y-77439379D01*
X139694508Y-77439379D02*
X139742127Y-77534617D01*
X139742127Y-77534617D02*
X139789746Y-77582236D01*
X139789746Y-77582236D02*
X139884984Y-77629855D01*
X139884984Y-77629855D02*
X140170698Y-77629855D01*
X140170698Y-77629855D02*
X140265936Y-77582236D01*
X140265936Y-77582236D02*
X140313556Y-77534617D01*
X140313556Y-77534617D02*
X140361175Y-77439379D01*
X140361175Y-77439379D02*
X140361175Y-77248903D01*
X140361175Y-77248903D02*
X140313556Y-77153665D01*
X140361175Y-78201284D02*
X140313556Y-78106046D01*
X140313556Y-78106046D02*
X140218317Y-78058427D01*
X140218317Y-78058427D02*
X139361175Y-78058427D01*
X140361175Y-79010808D02*
X139837365Y-79010808D01*
X139837365Y-79010808D02*
X139742127Y-78963189D01*
X139742127Y-78963189D02*
X139694508Y-78867951D01*
X139694508Y-78867951D02*
X139694508Y-78677475D01*
X139694508Y-78677475D02*
X139742127Y-78582237D01*
X140313556Y-79010808D02*
X140361175Y-78915570D01*
X140361175Y-78915570D02*
X140361175Y-78677475D01*
X140361175Y-78677475D02*
X140313556Y-78582237D01*
X140313556Y-78582237D02*
X140218317Y-78534618D01*
X140218317Y-78534618D02*
X140123079Y-78534618D01*
X140123079Y-78534618D02*
X140027841Y-78582237D01*
X140027841Y-78582237D02*
X139980222Y-78677475D01*
X139980222Y-78677475D02*
X139980222Y-78915570D01*
X139980222Y-78915570D02*
X139932603Y-79010808D01*
X139694508Y-79391761D02*
X140361175Y-79629856D01*
X139694508Y-79867951D02*
X140361175Y-79629856D01*
X140361175Y-79629856D02*
X140599270Y-79534618D01*
X140599270Y-79534618D02*
X140646889Y-79486999D01*
X140646889Y-79486999D02*
X140694508Y-79391761D01*
X140361175Y-81010809D02*
X139361175Y-81010809D01*
X139694508Y-81486999D02*
X140361175Y-81486999D01*
X139789746Y-81486999D02*
X139742127Y-81534618D01*
X139742127Y-81534618D02*
X139694508Y-81629856D01*
X139694508Y-81629856D02*
X139694508Y-81772713D01*
X139694508Y-81772713D02*
X139742127Y-81867951D01*
X139742127Y-81867951D02*
X139837365Y-81915570D01*
X139837365Y-81915570D02*
X140361175Y-81915570D01*
X139694508Y-82248904D02*
X139694508Y-82629856D01*
X139361175Y-82391761D02*
X140218317Y-82391761D01*
X140218317Y-82391761D02*
X140313556Y-82439380D01*
X140313556Y-82439380D02*
X140361175Y-82534618D01*
X140361175Y-82534618D02*
X140361175Y-82629856D01*
X140313556Y-83344142D02*
X140361175Y-83248904D01*
X140361175Y-83248904D02*
X140361175Y-83058428D01*
X140361175Y-83058428D02*
X140313556Y-82963190D01*
X140313556Y-82963190D02*
X140218317Y-82915571D01*
X140218317Y-82915571D02*
X139837365Y-82915571D01*
X139837365Y-82915571D02*
X139742127Y-82963190D01*
X139742127Y-82963190D02*
X139694508Y-83058428D01*
X139694508Y-83058428D02*
X139694508Y-83248904D01*
X139694508Y-83248904D02*
X139742127Y-83344142D01*
X139742127Y-83344142D02*
X139837365Y-83391761D01*
X139837365Y-83391761D02*
X139932603Y-83391761D01*
X139932603Y-83391761D02*
X140027841Y-82915571D01*
X140361175Y-83820333D02*
X139694508Y-83820333D01*
X139884984Y-83820333D02*
X139789746Y-83867952D01*
X139789746Y-83867952D02*
X139742127Y-83915571D01*
X139742127Y-83915571D02*
X139694508Y-84010809D01*
X139694508Y-84010809D02*
X139694508Y-84106047D01*
X139694508Y-84296524D02*
X139694508Y-84677476D01*
X140361175Y-84439381D02*
X139504032Y-84439381D01*
X139504032Y-84439381D02*
X139408794Y-84487000D01*
X139408794Y-84487000D02*
X139361175Y-84582238D01*
X139361175Y-84582238D02*
X139361175Y-84677476D01*
X140361175Y-85439381D02*
X139837365Y-85439381D01*
X139837365Y-85439381D02*
X139742127Y-85391762D01*
X139742127Y-85391762D02*
X139694508Y-85296524D01*
X139694508Y-85296524D02*
X139694508Y-85106048D01*
X139694508Y-85106048D02*
X139742127Y-85010810D01*
X140313556Y-85439381D02*
X140361175Y-85344143D01*
X140361175Y-85344143D02*
X140361175Y-85106048D01*
X140361175Y-85106048D02*
X140313556Y-85010810D01*
X140313556Y-85010810D02*
X140218317Y-84963191D01*
X140218317Y-84963191D02*
X140123079Y-84963191D01*
X140123079Y-84963191D02*
X140027841Y-85010810D01*
X140027841Y-85010810D02*
X139980222Y-85106048D01*
X139980222Y-85106048D02*
X139980222Y-85344143D01*
X139980222Y-85344143D02*
X139932603Y-85439381D01*
X140313556Y-86344143D02*
X140361175Y-86248905D01*
X140361175Y-86248905D02*
X140361175Y-86058429D01*
X140361175Y-86058429D02*
X140313556Y-85963191D01*
X140313556Y-85963191D02*
X140265936Y-85915572D01*
X140265936Y-85915572D02*
X140170698Y-85867953D01*
X140170698Y-85867953D02*
X139884984Y-85867953D01*
X139884984Y-85867953D02*
X139789746Y-85915572D01*
X139789746Y-85915572D02*
X139742127Y-85963191D01*
X139742127Y-85963191D02*
X139694508Y-86058429D01*
X139694508Y-86058429D02*
X139694508Y-86248905D01*
X139694508Y-86248905D02*
X139742127Y-86344143D01*
X140313556Y-87153667D02*
X140361175Y-87058429D01*
X140361175Y-87058429D02*
X140361175Y-86867953D01*
X140361175Y-86867953D02*
X140313556Y-86772715D01*
X140313556Y-86772715D02*
X140218317Y-86725096D01*
X140218317Y-86725096D02*
X139837365Y-86725096D01*
X139837365Y-86725096D02*
X139742127Y-86772715D01*
X139742127Y-86772715D02*
X139694508Y-86867953D01*
X139694508Y-86867953D02*
X139694508Y-87058429D01*
X139694508Y-87058429D02*
X139742127Y-87153667D01*
X139742127Y-87153667D02*
X139837365Y-87201286D01*
X139837365Y-87201286D02*
X139932603Y-87201286D01*
X139932603Y-87201286D02*
X140027841Y-86725096D01*
X139837365Y-88725096D02*
X139884984Y-88867953D01*
X139884984Y-88867953D02*
X139932603Y-88915572D01*
X139932603Y-88915572D02*
X140027841Y-88963191D01*
X140027841Y-88963191D02*
X140170698Y-88963191D01*
X140170698Y-88963191D02*
X140265936Y-88915572D01*
X140265936Y-88915572D02*
X140313556Y-88867953D01*
X140313556Y-88867953D02*
X140361175Y-88772715D01*
X140361175Y-88772715D02*
X140361175Y-88391763D01*
X140361175Y-88391763D02*
X139361175Y-88391763D01*
X139361175Y-88391763D02*
X139361175Y-88725096D01*
X139361175Y-88725096D02*
X139408794Y-88820334D01*
X139408794Y-88820334D02*
X139456413Y-88867953D01*
X139456413Y-88867953D02*
X139551651Y-88915572D01*
X139551651Y-88915572D02*
X139646889Y-88915572D01*
X139646889Y-88915572D02*
X139742127Y-88867953D01*
X139742127Y-88867953D02*
X139789746Y-88820334D01*
X139789746Y-88820334D02*
X139837365Y-88725096D01*
X139837365Y-88725096D02*
X139837365Y-88391763D01*
X140361175Y-89534620D02*
X140313556Y-89439382D01*
X140313556Y-89439382D02*
X140265936Y-89391763D01*
X140265936Y-89391763D02*
X140170698Y-89344144D01*
X140170698Y-89344144D02*
X139884984Y-89344144D01*
X139884984Y-89344144D02*
X139789746Y-89391763D01*
X139789746Y-89391763D02*
X139742127Y-89439382D01*
X139742127Y-89439382D02*
X139694508Y-89534620D01*
X139694508Y-89534620D02*
X139694508Y-89677477D01*
X139694508Y-89677477D02*
X139742127Y-89772715D01*
X139742127Y-89772715D02*
X139789746Y-89820334D01*
X139789746Y-89820334D02*
X139884984Y-89867953D01*
X139884984Y-89867953D02*
X140170698Y-89867953D01*
X140170698Y-89867953D02*
X140265936Y-89820334D01*
X140265936Y-89820334D02*
X140313556Y-89772715D01*
X140313556Y-89772715D02*
X140361175Y-89677477D01*
X140361175Y-89677477D02*
X140361175Y-89534620D01*
X140361175Y-90725096D02*
X139837365Y-90725096D01*
X139837365Y-90725096D02*
X139742127Y-90677477D01*
X139742127Y-90677477D02*
X139694508Y-90582239D01*
X139694508Y-90582239D02*
X139694508Y-90391763D01*
X139694508Y-90391763D02*
X139742127Y-90296525D01*
X140313556Y-90725096D02*
X140361175Y-90629858D01*
X140361175Y-90629858D02*
X140361175Y-90391763D01*
X140361175Y-90391763D02*
X140313556Y-90296525D01*
X140313556Y-90296525D02*
X140218317Y-90248906D01*
X140218317Y-90248906D02*
X140123079Y-90248906D01*
X140123079Y-90248906D02*
X140027841Y-90296525D01*
X140027841Y-90296525D02*
X139980222Y-90391763D01*
X139980222Y-90391763D02*
X139980222Y-90629858D01*
X139980222Y-90629858D02*
X139932603Y-90725096D01*
X140361175Y-91201287D02*
X139694508Y-91201287D01*
X139884984Y-91201287D02*
X139789746Y-91248906D01*
X139789746Y-91248906D02*
X139742127Y-91296525D01*
X139742127Y-91296525D02*
X139694508Y-91391763D01*
X139694508Y-91391763D02*
X139694508Y-91487001D01*
X140361175Y-92248906D02*
X139361175Y-92248906D01*
X140313556Y-92248906D02*
X140361175Y-92153668D01*
X140361175Y-92153668D02*
X140361175Y-91963192D01*
X140361175Y-91963192D02*
X140313556Y-91867954D01*
X140313556Y-91867954D02*
X140265936Y-91820335D01*
X140265936Y-91820335D02*
X140170698Y-91772716D01*
X140170698Y-91772716D02*
X139884984Y-91772716D01*
X139884984Y-91772716D02*
X139789746Y-91820335D01*
X139789746Y-91820335D02*
X139742127Y-91867954D01*
X139742127Y-91867954D02*
X139694508Y-91963192D01*
X139694508Y-91963192D02*
X139694508Y-92153668D01*
X139694508Y-92153668D02*
X139742127Y-92248906D01*
X139361175Y-93344145D02*
X140361175Y-93677478D01*
X140361175Y-93677478D02*
X139361175Y-94010811D01*
X140361175Y-94867954D02*
X140361175Y-94296526D01*
X140361175Y-94582240D02*
X139361175Y-94582240D01*
X139361175Y-94582240D02*
X139504032Y-94487002D01*
X139504032Y-94487002D02*
X139599270Y-94391764D01*
X139599270Y-94391764D02*
X139646889Y-94296526D01*
X140265936Y-95296526D02*
X140313556Y-95344145D01*
X140313556Y-95344145D02*
X140361175Y-95296526D01*
X140361175Y-95296526D02*
X140313556Y-95248907D01*
X140313556Y-95248907D02*
X140265936Y-95296526D01*
X140265936Y-95296526D02*
X140361175Y-95296526D01*
X139361175Y-95963192D02*
X139361175Y-96058430D01*
X139361175Y-96058430D02*
X139408794Y-96153668D01*
X139408794Y-96153668D02*
X139456413Y-96201287D01*
X139456413Y-96201287D02*
X139551651Y-96248906D01*
X139551651Y-96248906D02*
X139742127Y-96296525D01*
X139742127Y-96296525D02*
X139980222Y-96296525D01*
X139980222Y-96296525D02*
X140170698Y-96248906D01*
X140170698Y-96248906D02*
X140265936Y-96201287D01*
X140265936Y-96201287D02*
X140313556Y-96153668D01*
X140313556Y-96153668D02*
X140361175Y-96058430D01*
X140361175Y-96058430D02*
X140361175Y-95963192D01*
X140361175Y-95963192D02*
X140313556Y-95867954D01*
X140313556Y-95867954D02*
X140265936Y-95820335D01*
X140265936Y-95820335D02*
X140170698Y-95772716D01*
X140170698Y-95772716D02*
X139980222Y-95725097D01*
X139980222Y-95725097D02*
X139742127Y-95725097D01*
X139742127Y-95725097D02*
X139551651Y-95772716D01*
X139551651Y-95772716D02*
X139456413Y-95820335D01*
X139456413Y-95820335D02*
X139408794Y-95867954D01*
X139408794Y-95867954D02*
X139361175Y-95963192D01*
X141971119Y-64820331D02*
X140971119Y-64820331D01*
X141971119Y-65248902D02*
X141447309Y-65248902D01*
X141447309Y-65248902D02*
X141352071Y-65201283D01*
X141352071Y-65201283D02*
X141304452Y-65106045D01*
X141304452Y-65106045D02*
X141304452Y-64963188D01*
X141304452Y-64963188D02*
X141352071Y-64867950D01*
X141352071Y-64867950D02*
X141399690Y-64820331D01*
X141304452Y-65582236D02*
X141304452Y-65963188D01*
X140971119Y-65725093D02*
X141828261Y-65725093D01*
X141828261Y-65725093D02*
X141923500Y-65772712D01*
X141923500Y-65772712D02*
X141971119Y-65867950D01*
X141971119Y-65867950D02*
X141971119Y-65963188D01*
X141304452Y-66153665D02*
X141304452Y-66534617D01*
X140971119Y-66296522D02*
X141828261Y-66296522D01*
X141828261Y-66296522D02*
X141923500Y-66344141D01*
X141923500Y-66344141D02*
X141971119Y-66439379D01*
X141971119Y-66439379D02*
X141971119Y-66534617D01*
X141304452Y-66867951D02*
X142304452Y-66867951D01*
X141352071Y-66867951D02*
X141304452Y-66963189D01*
X141304452Y-66963189D02*
X141304452Y-67153665D01*
X141304452Y-67153665D02*
X141352071Y-67248903D01*
X141352071Y-67248903D02*
X141399690Y-67296522D01*
X141399690Y-67296522D02*
X141494928Y-67344141D01*
X141494928Y-67344141D02*
X141780642Y-67344141D01*
X141780642Y-67344141D02*
X141875880Y-67296522D01*
X141875880Y-67296522D02*
X141923500Y-67248903D01*
X141923500Y-67248903D02*
X141971119Y-67153665D01*
X141971119Y-67153665D02*
X141971119Y-66963189D01*
X141971119Y-66963189D02*
X141923500Y-66867951D01*
X141923500Y-67725094D02*
X141971119Y-67820332D01*
X141971119Y-67820332D02*
X141971119Y-68010808D01*
X141971119Y-68010808D02*
X141923500Y-68106046D01*
X141923500Y-68106046D02*
X141828261Y-68153665D01*
X141828261Y-68153665D02*
X141780642Y-68153665D01*
X141780642Y-68153665D02*
X141685404Y-68106046D01*
X141685404Y-68106046D02*
X141637785Y-68010808D01*
X141637785Y-68010808D02*
X141637785Y-67867951D01*
X141637785Y-67867951D02*
X141590166Y-67772713D01*
X141590166Y-67772713D02*
X141494928Y-67725094D01*
X141494928Y-67725094D02*
X141447309Y-67725094D01*
X141447309Y-67725094D02*
X141352071Y-67772713D01*
X141352071Y-67772713D02*
X141304452Y-67867951D01*
X141304452Y-67867951D02*
X141304452Y-68010808D01*
X141304452Y-68010808D02*
X141352071Y-68106046D01*
X141875880Y-68582237D02*
X141923500Y-68629856D01*
X141923500Y-68629856D02*
X141971119Y-68582237D01*
X141971119Y-68582237D02*
X141923500Y-68534618D01*
X141923500Y-68534618D02*
X141875880Y-68582237D01*
X141875880Y-68582237D02*
X141971119Y-68582237D01*
X141352071Y-68582237D02*
X141399690Y-68629856D01*
X141399690Y-68629856D02*
X141447309Y-68582237D01*
X141447309Y-68582237D02*
X141399690Y-68534618D01*
X141399690Y-68534618D02*
X141352071Y-68582237D01*
X141352071Y-68582237D02*
X141447309Y-68582237D01*
X140923500Y-69772712D02*
X142209214Y-68915570D01*
X140923500Y-70820331D02*
X142209214Y-69963189D01*
X141304452Y-71582236D02*
X142113976Y-71582236D01*
X142113976Y-71582236D02*
X142209214Y-71534617D01*
X142209214Y-71534617D02*
X142256833Y-71486998D01*
X142256833Y-71486998D02*
X142304452Y-71391760D01*
X142304452Y-71391760D02*
X142304452Y-71248903D01*
X142304452Y-71248903D02*
X142256833Y-71153665D01*
X141923500Y-71582236D02*
X141971119Y-71486998D01*
X141971119Y-71486998D02*
X141971119Y-71296522D01*
X141971119Y-71296522D02*
X141923500Y-71201284D01*
X141923500Y-71201284D02*
X141875880Y-71153665D01*
X141875880Y-71153665D02*
X141780642Y-71106046D01*
X141780642Y-71106046D02*
X141494928Y-71106046D01*
X141494928Y-71106046D02*
X141399690Y-71153665D01*
X141399690Y-71153665D02*
X141352071Y-71201284D01*
X141352071Y-71201284D02*
X141304452Y-71296522D01*
X141304452Y-71296522D02*
X141304452Y-71486998D01*
X141304452Y-71486998D02*
X141352071Y-71582236D01*
X141971119Y-72058427D02*
X141304452Y-72058427D01*
X140971119Y-72058427D02*
X141018738Y-72010808D01*
X141018738Y-72010808D02*
X141066357Y-72058427D01*
X141066357Y-72058427D02*
X141018738Y-72106046D01*
X141018738Y-72106046D02*
X140971119Y-72058427D01*
X140971119Y-72058427D02*
X141066357Y-72058427D01*
X141304452Y-72391760D02*
X141304452Y-72772712D01*
X140971119Y-72534617D02*
X141828261Y-72534617D01*
X141828261Y-72534617D02*
X141923500Y-72582236D01*
X141923500Y-72582236D02*
X141971119Y-72677474D01*
X141971119Y-72677474D02*
X141971119Y-72772712D01*
X141971119Y-73106046D02*
X140971119Y-73106046D01*
X141971119Y-73534617D02*
X141447309Y-73534617D01*
X141447309Y-73534617D02*
X141352071Y-73486998D01*
X141352071Y-73486998D02*
X141304452Y-73391760D01*
X141304452Y-73391760D02*
X141304452Y-73248903D01*
X141304452Y-73248903D02*
X141352071Y-73153665D01*
X141352071Y-73153665D02*
X141399690Y-73106046D01*
X141304452Y-74439379D02*
X141971119Y-74439379D01*
X141304452Y-74010808D02*
X141828261Y-74010808D01*
X141828261Y-74010808D02*
X141923500Y-74058427D01*
X141923500Y-74058427D02*
X141971119Y-74153665D01*
X141971119Y-74153665D02*
X141971119Y-74296522D01*
X141971119Y-74296522D02*
X141923500Y-74391760D01*
X141923500Y-74391760D02*
X141875880Y-74439379D01*
X141971119Y-74915570D02*
X140971119Y-74915570D01*
X141352071Y-74915570D02*
X141304452Y-75010808D01*
X141304452Y-75010808D02*
X141304452Y-75201284D01*
X141304452Y-75201284D02*
X141352071Y-75296522D01*
X141352071Y-75296522D02*
X141399690Y-75344141D01*
X141399690Y-75344141D02*
X141494928Y-75391760D01*
X141494928Y-75391760D02*
X141780642Y-75391760D01*
X141780642Y-75391760D02*
X141875880Y-75344141D01*
X141875880Y-75344141D02*
X141923500Y-75296522D01*
X141923500Y-75296522D02*
X141971119Y-75201284D01*
X141971119Y-75201284D02*
X141971119Y-75010808D01*
X141971119Y-75010808D02*
X141923500Y-74915570D01*
X141875880Y-75820332D02*
X141923500Y-75867951D01*
X141923500Y-75867951D02*
X141971119Y-75820332D01*
X141971119Y-75820332D02*
X141923500Y-75772713D01*
X141923500Y-75772713D02*
X141875880Y-75820332D01*
X141875880Y-75820332D02*
X141971119Y-75820332D01*
X141923500Y-76725093D02*
X141971119Y-76629855D01*
X141971119Y-76629855D02*
X141971119Y-76439379D01*
X141971119Y-76439379D02*
X141923500Y-76344141D01*
X141923500Y-76344141D02*
X141875880Y-76296522D01*
X141875880Y-76296522D02*
X141780642Y-76248903D01*
X141780642Y-76248903D02*
X141494928Y-76248903D01*
X141494928Y-76248903D02*
X141399690Y-76296522D01*
X141399690Y-76296522D02*
X141352071Y-76344141D01*
X141352071Y-76344141D02*
X141304452Y-76439379D01*
X141304452Y-76439379D02*
X141304452Y-76629855D01*
X141304452Y-76629855D02*
X141352071Y-76725093D01*
X141971119Y-77296522D02*
X141923500Y-77201284D01*
X141923500Y-77201284D02*
X141875880Y-77153665D01*
X141875880Y-77153665D02*
X141780642Y-77106046D01*
X141780642Y-77106046D02*
X141494928Y-77106046D01*
X141494928Y-77106046D02*
X141399690Y-77153665D01*
X141399690Y-77153665D02*
X141352071Y-77201284D01*
X141352071Y-77201284D02*
X141304452Y-77296522D01*
X141304452Y-77296522D02*
X141304452Y-77439379D01*
X141304452Y-77439379D02*
X141352071Y-77534617D01*
X141352071Y-77534617D02*
X141399690Y-77582236D01*
X141399690Y-77582236D02*
X141494928Y-77629855D01*
X141494928Y-77629855D02*
X141780642Y-77629855D01*
X141780642Y-77629855D02*
X141875880Y-77582236D01*
X141875880Y-77582236D02*
X141923500Y-77534617D01*
X141923500Y-77534617D02*
X141971119Y-77439379D01*
X141971119Y-77439379D02*
X141971119Y-77296522D01*
X141971119Y-78058427D02*
X141304452Y-78058427D01*
X141399690Y-78058427D02*
X141352071Y-78106046D01*
X141352071Y-78106046D02*
X141304452Y-78201284D01*
X141304452Y-78201284D02*
X141304452Y-78344141D01*
X141304452Y-78344141D02*
X141352071Y-78439379D01*
X141352071Y-78439379D02*
X141447309Y-78486998D01*
X141447309Y-78486998D02*
X141971119Y-78486998D01*
X141447309Y-78486998D02*
X141352071Y-78534617D01*
X141352071Y-78534617D02*
X141304452Y-78629855D01*
X141304452Y-78629855D02*
X141304452Y-78772712D01*
X141304452Y-78772712D02*
X141352071Y-78867951D01*
X141352071Y-78867951D02*
X141447309Y-78915570D01*
X141447309Y-78915570D02*
X141971119Y-78915570D01*
X140923500Y-80106045D02*
X142209214Y-79248903D01*
X141971119Y-80867950D02*
X140971119Y-80867950D01*
X141923500Y-80867950D02*
X141971119Y-80772712D01*
X141971119Y-80772712D02*
X141971119Y-80582236D01*
X141971119Y-80582236D02*
X141923500Y-80486998D01*
X141923500Y-80486998D02*
X141875880Y-80439379D01*
X141875880Y-80439379D02*
X141780642Y-80391760D01*
X141780642Y-80391760D02*
X141494928Y-80391760D01*
X141494928Y-80391760D02*
X141399690Y-80439379D01*
X141399690Y-80439379D02*
X141352071Y-80486998D01*
X141352071Y-80486998D02*
X141304452Y-80582236D01*
X141304452Y-80582236D02*
X141304452Y-80772712D01*
X141304452Y-80772712D02*
X141352071Y-80867950D01*
X141971119Y-81772712D02*
X141447309Y-81772712D01*
X141447309Y-81772712D02*
X141352071Y-81725093D01*
X141352071Y-81725093D02*
X141304452Y-81629855D01*
X141304452Y-81629855D02*
X141304452Y-81439379D01*
X141304452Y-81439379D02*
X141352071Y-81344141D01*
X141923500Y-81772712D02*
X141971119Y-81677474D01*
X141971119Y-81677474D02*
X141971119Y-81439379D01*
X141971119Y-81439379D02*
X141923500Y-81344141D01*
X141923500Y-81344141D02*
X141828261Y-81296522D01*
X141828261Y-81296522D02*
X141733023Y-81296522D01*
X141733023Y-81296522D02*
X141637785Y-81344141D01*
X141637785Y-81344141D02*
X141590166Y-81439379D01*
X141590166Y-81439379D02*
X141590166Y-81677474D01*
X141590166Y-81677474D02*
X141542547Y-81772712D01*
X141304452Y-82248903D02*
X141971119Y-82248903D01*
X141399690Y-82248903D02*
X141352071Y-82296522D01*
X141352071Y-82296522D02*
X141304452Y-82391760D01*
X141304452Y-82391760D02*
X141304452Y-82534617D01*
X141304452Y-82534617D02*
X141352071Y-82629855D01*
X141352071Y-82629855D02*
X141447309Y-82677474D01*
X141447309Y-82677474D02*
X141971119Y-82677474D01*
X141304452Y-83010808D02*
X141304452Y-83391760D01*
X140971119Y-83153665D02*
X141828261Y-83153665D01*
X141828261Y-83153665D02*
X141923500Y-83201284D01*
X141923500Y-83201284D02*
X141971119Y-83296522D01*
X141971119Y-83296522D02*
X141971119Y-83391760D01*
X141971119Y-83725094D02*
X140971119Y-83725094D01*
X141971119Y-84153665D02*
X141447309Y-84153665D01*
X141447309Y-84153665D02*
X141352071Y-84106046D01*
X141352071Y-84106046D02*
X141304452Y-84010808D01*
X141304452Y-84010808D02*
X141304452Y-83867951D01*
X141304452Y-83867951D02*
X141352071Y-83772713D01*
X141352071Y-83772713D02*
X141399690Y-83725094D01*
X141923500Y-85010808D02*
X141971119Y-84915570D01*
X141971119Y-84915570D02*
X141971119Y-84725094D01*
X141971119Y-84725094D02*
X141923500Y-84629856D01*
X141923500Y-84629856D02*
X141828261Y-84582237D01*
X141828261Y-84582237D02*
X141447309Y-84582237D01*
X141447309Y-84582237D02*
X141352071Y-84629856D01*
X141352071Y-84629856D02*
X141304452Y-84725094D01*
X141304452Y-84725094D02*
X141304452Y-84915570D01*
X141304452Y-84915570D02*
X141352071Y-85010808D01*
X141352071Y-85010808D02*
X141447309Y-85058427D01*
X141447309Y-85058427D02*
X141542547Y-85058427D01*
X141542547Y-85058427D02*
X141637785Y-84582237D01*
X141304452Y-85486999D02*
X142304452Y-85486999D01*
X141352071Y-85486999D02*
X141304452Y-85582237D01*
X141304452Y-85582237D02*
X141304452Y-85772713D01*
X141304452Y-85772713D02*
X141352071Y-85867951D01*
X141352071Y-85867951D02*
X141399690Y-85915570D01*
X141399690Y-85915570D02*
X141494928Y-85963189D01*
X141494928Y-85963189D02*
X141780642Y-85963189D01*
X141780642Y-85963189D02*
X141875880Y-85915570D01*
X141875880Y-85915570D02*
X141923500Y-85867951D01*
X141923500Y-85867951D02*
X141971119Y-85772713D01*
X141971119Y-85772713D02*
X141971119Y-85582237D01*
X141971119Y-85582237D02*
X141923500Y-85486999D01*
X141971119Y-86391761D02*
X141304452Y-86391761D01*
X140971119Y-86391761D02*
X141018738Y-86344142D01*
X141018738Y-86344142D02*
X141066357Y-86391761D01*
X141066357Y-86391761D02*
X141018738Y-86439380D01*
X141018738Y-86439380D02*
X140971119Y-86391761D01*
X140971119Y-86391761D02*
X141066357Y-86391761D01*
X141971119Y-87010808D02*
X141923500Y-86915570D01*
X141923500Y-86915570D02*
X141828261Y-86867951D01*
X141828261Y-86867951D02*
X140971119Y-86867951D01*
X141971119Y-87534618D02*
X141923500Y-87439380D01*
X141923500Y-87439380D02*
X141875880Y-87391761D01*
X141875880Y-87391761D02*
X141780642Y-87344142D01*
X141780642Y-87344142D02*
X141494928Y-87344142D01*
X141494928Y-87344142D02*
X141399690Y-87391761D01*
X141399690Y-87391761D02*
X141352071Y-87439380D01*
X141352071Y-87439380D02*
X141304452Y-87534618D01*
X141304452Y-87534618D02*
X141304452Y-87677475D01*
X141304452Y-87677475D02*
X141352071Y-87772713D01*
X141352071Y-87772713D02*
X141399690Y-87820332D01*
X141399690Y-87820332D02*
X141494928Y-87867951D01*
X141494928Y-87867951D02*
X141780642Y-87867951D01*
X141780642Y-87867951D02*
X141875880Y-87820332D01*
X141875880Y-87820332D02*
X141923500Y-87772713D01*
X141923500Y-87772713D02*
X141971119Y-87677475D01*
X141971119Y-87677475D02*
X141971119Y-87534618D01*
X141304452Y-88153666D02*
X141304452Y-88534618D01*
X140971119Y-88296523D02*
X141828261Y-88296523D01*
X141828261Y-88296523D02*
X141923500Y-88344142D01*
X141923500Y-88344142D02*
X141971119Y-88439380D01*
X141971119Y-88439380D02*
X141971119Y-88534618D01*
X141971119Y-88867952D02*
X141304452Y-88867952D01*
X141399690Y-88867952D02*
X141352071Y-88915571D01*
X141352071Y-88915571D02*
X141304452Y-89010809D01*
X141304452Y-89010809D02*
X141304452Y-89153666D01*
X141304452Y-89153666D02*
X141352071Y-89248904D01*
X141352071Y-89248904D02*
X141447309Y-89296523D01*
X141447309Y-89296523D02*
X141971119Y-89296523D01*
X141447309Y-89296523D02*
X141352071Y-89344142D01*
X141352071Y-89344142D02*
X141304452Y-89439380D01*
X141304452Y-89439380D02*
X141304452Y-89582237D01*
X141304452Y-89582237D02*
X141352071Y-89677476D01*
X141352071Y-89677476D02*
X141447309Y-89725095D01*
X141447309Y-89725095D02*
X141971119Y-89725095D01*
X141971119Y-90629856D02*
X141447309Y-90629856D01*
X141447309Y-90629856D02*
X141352071Y-90582237D01*
X141352071Y-90582237D02*
X141304452Y-90486999D01*
X141304452Y-90486999D02*
X141304452Y-90296523D01*
X141304452Y-90296523D02*
X141352071Y-90201285D01*
X141923500Y-90629856D02*
X141971119Y-90534618D01*
X141971119Y-90534618D02*
X141971119Y-90296523D01*
X141971119Y-90296523D02*
X141923500Y-90201285D01*
X141923500Y-90201285D02*
X141828261Y-90153666D01*
X141828261Y-90153666D02*
X141733023Y-90153666D01*
X141733023Y-90153666D02*
X141637785Y-90201285D01*
X141637785Y-90201285D02*
X141590166Y-90296523D01*
X141590166Y-90296523D02*
X141590166Y-90534618D01*
X141590166Y-90534618D02*
X141542547Y-90629856D01*
X141304452Y-91106047D02*
X141971119Y-91106047D01*
X141399690Y-91106047D02*
X141352071Y-91153666D01*
X141352071Y-91153666D02*
X141304452Y-91248904D01*
X141304452Y-91248904D02*
X141304452Y-91391761D01*
X141304452Y-91391761D02*
X141352071Y-91486999D01*
X141352071Y-91486999D02*
X141447309Y-91534618D01*
X141447309Y-91534618D02*
X141971119Y-91534618D01*
X140923500Y-92725094D02*
X142209214Y-91867952D01*
X141971119Y-93058428D02*
X140971119Y-93058428D01*
X140971119Y-93058428D02*
X140971119Y-93439380D01*
X140971119Y-93439380D02*
X141018738Y-93534618D01*
X141018738Y-93534618D02*
X141066357Y-93582237D01*
X141066357Y-93582237D02*
X141161595Y-93629856D01*
X141161595Y-93629856D02*
X141304452Y-93629856D01*
X141304452Y-93629856D02*
X141399690Y-93582237D01*
X141399690Y-93582237D02*
X141447309Y-93534618D01*
X141447309Y-93534618D02*
X141494928Y-93439380D01*
X141494928Y-93439380D02*
X141494928Y-93058428D01*
X141875880Y-94629856D02*
X141923500Y-94582237D01*
X141923500Y-94582237D02*
X141971119Y-94439380D01*
X141971119Y-94439380D02*
X141971119Y-94344142D01*
X141971119Y-94344142D02*
X141923500Y-94201285D01*
X141923500Y-94201285D02*
X141828261Y-94106047D01*
X141828261Y-94106047D02*
X141733023Y-94058428D01*
X141733023Y-94058428D02*
X141542547Y-94010809D01*
X141542547Y-94010809D02*
X141399690Y-94010809D01*
X141399690Y-94010809D02*
X141209214Y-94058428D01*
X141209214Y-94058428D02*
X141113976Y-94106047D01*
X141113976Y-94106047D02*
X141018738Y-94201285D01*
X141018738Y-94201285D02*
X140971119Y-94344142D01*
X140971119Y-94344142D02*
X140971119Y-94439380D01*
X140971119Y-94439380D02*
X141018738Y-94582237D01*
X141018738Y-94582237D02*
X141066357Y-94629856D01*
X141685404Y-95010809D02*
X141685404Y-95486999D01*
X141971119Y-94915571D02*
X140971119Y-95248904D01*
X140971119Y-95248904D02*
X141971119Y-95582237D01*
X141971119Y-96486999D02*
X141494928Y-96153666D01*
X141971119Y-95915571D02*
X140971119Y-95915571D01*
X140971119Y-95915571D02*
X140971119Y-96296523D01*
X140971119Y-96296523D02*
X141018738Y-96391761D01*
X141018738Y-96391761D02*
X141066357Y-96439380D01*
X141066357Y-96439380D02*
X141161595Y-96486999D01*
X141161595Y-96486999D02*
X141304452Y-96486999D01*
X141304452Y-96486999D02*
X141399690Y-96439380D01*
X141399690Y-96439380D02*
X141447309Y-96391761D01*
X141447309Y-96391761D02*
X141494928Y-96296523D01*
X141494928Y-96296523D02*
X141494928Y-95915571D01*
X141923500Y-96867952D02*
X141971119Y-97010809D01*
X141971119Y-97010809D02*
X141971119Y-97248904D01*
X141971119Y-97248904D02*
X141923500Y-97344142D01*
X141923500Y-97344142D02*
X141875880Y-97391761D01*
X141875880Y-97391761D02*
X141780642Y-97439380D01*
X141780642Y-97439380D02*
X141685404Y-97439380D01*
X141685404Y-97439380D02*
X141590166Y-97391761D01*
X141590166Y-97391761D02*
X141542547Y-97344142D01*
X141542547Y-97344142D02*
X141494928Y-97248904D01*
X141494928Y-97248904D02*
X141447309Y-97058428D01*
X141447309Y-97058428D02*
X141399690Y-96963190D01*
X141399690Y-96963190D02*
X141352071Y-96915571D01*
X141352071Y-96915571D02*
X141256833Y-96867952D01*
X141256833Y-96867952D02*
X141161595Y-96867952D01*
X141161595Y-96867952D02*
X141066357Y-96915571D01*
X141066357Y-96915571D02*
X141018738Y-96963190D01*
X141018738Y-96963190D02*
X140971119Y-97058428D01*
X140971119Y-97058428D02*
X140971119Y-97296523D01*
X140971119Y-97296523D02*
X141018738Y-97439380D01*
X142066357Y-97629857D02*
X142066357Y-98391761D01*
X141447309Y-98963190D02*
X141494928Y-99106047D01*
X141494928Y-99106047D02*
X141542547Y-99153666D01*
X141542547Y-99153666D02*
X141637785Y-99201285D01*
X141637785Y-99201285D02*
X141780642Y-99201285D01*
X141780642Y-99201285D02*
X141875880Y-99153666D01*
X141875880Y-99153666D02*
X141923500Y-99106047D01*
X141923500Y-99106047D02*
X141971119Y-99010809D01*
X141971119Y-99010809D02*
X141971119Y-98629857D01*
X141971119Y-98629857D02*
X140971119Y-98629857D01*
X140971119Y-98629857D02*
X140971119Y-98963190D01*
X140971119Y-98963190D02*
X141018738Y-99058428D01*
X141018738Y-99058428D02*
X141066357Y-99106047D01*
X141066357Y-99106047D02*
X141161595Y-99153666D01*
X141161595Y-99153666D02*
X141256833Y-99153666D01*
X141256833Y-99153666D02*
X141352071Y-99106047D01*
X141352071Y-99106047D02*
X141399690Y-99058428D01*
X141399690Y-99058428D02*
X141447309Y-98963190D01*
X141447309Y-98963190D02*
X141447309Y-98629857D01*
X141971119Y-100058428D02*
X141447309Y-100058428D01*
X141447309Y-100058428D02*
X141352071Y-100010809D01*
X141352071Y-100010809D02*
X141304452Y-99915571D01*
X141304452Y-99915571D02*
X141304452Y-99725095D01*
X141304452Y-99725095D02*
X141352071Y-99629857D01*
X141923500Y-100058428D02*
X141971119Y-99963190D01*
X141971119Y-99963190D02*
X141971119Y-99725095D01*
X141971119Y-99725095D02*
X141923500Y-99629857D01*
X141923500Y-99629857D02*
X141828261Y-99582238D01*
X141828261Y-99582238D02*
X141733023Y-99582238D01*
X141733023Y-99582238D02*
X141637785Y-99629857D01*
X141637785Y-99629857D02*
X141590166Y-99725095D01*
X141590166Y-99725095D02*
X141590166Y-99963190D01*
X141590166Y-99963190D02*
X141542547Y-100058428D01*
X141304452Y-100534619D02*
X141971119Y-100534619D01*
X141399690Y-100534619D02*
X141352071Y-100582238D01*
X141352071Y-100582238D02*
X141304452Y-100677476D01*
X141304452Y-100677476D02*
X141304452Y-100820333D01*
X141304452Y-100820333D02*
X141352071Y-100915571D01*
X141352071Y-100915571D02*
X141447309Y-100963190D01*
X141447309Y-100963190D02*
X141971119Y-100963190D01*
X141971119Y-101867952D02*
X140971119Y-101867952D01*
X141923500Y-101867952D02*
X141971119Y-101772714D01*
X141971119Y-101772714D02*
X141971119Y-101582238D01*
X141971119Y-101582238D02*
X141923500Y-101487000D01*
X141923500Y-101487000D02*
X141875880Y-101439381D01*
X141875880Y-101439381D02*
X141780642Y-101391762D01*
X141780642Y-101391762D02*
X141494928Y-101391762D01*
X141494928Y-101391762D02*
X141399690Y-101439381D01*
X141399690Y-101439381D02*
X141352071Y-101487000D01*
X141352071Y-101487000D02*
X141304452Y-101582238D01*
X141304452Y-101582238D02*
X141304452Y-101772714D01*
X141304452Y-101772714D02*
X141352071Y-101867952D01*
X142066357Y-102106048D02*
X142066357Y-102867952D01*
X141971119Y-103106048D02*
X140971119Y-103106048D01*
X140971119Y-103106048D02*
X140971119Y-103344143D01*
X140971119Y-103344143D02*
X141018738Y-103487000D01*
X141018738Y-103487000D02*
X141113976Y-103582238D01*
X141113976Y-103582238D02*
X141209214Y-103629857D01*
X141209214Y-103629857D02*
X141399690Y-103677476D01*
X141399690Y-103677476D02*
X141542547Y-103677476D01*
X141542547Y-103677476D02*
X141733023Y-103629857D01*
X141733023Y-103629857D02*
X141828261Y-103582238D01*
X141828261Y-103582238D02*
X141923500Y-103487000D01*
X141923500Y-103487000D02*
X141971119Y-103344143D01*
X141971119Y-103344143D02*
X141971119Y-103106048D01*
X141971119Y-104106048D02*
X141304452Y-104106048D01*
X140971119Y-104106048D02*
X141018738Y-104058429D01*
X141018738Y-104058429D02*
X141066357Y-104106048D01*
X141066357Y-104106048D02*
X141018738Y-104153667D01*
X141018738Y-104153667D02*
X140971119Y-104106048D01*
X140971119Y-104106048D02*
X141066357Y-104106048D01*
X141923500Y-104534619D02*
X141971119Y-104629857D01*
X141971119Y-104629857D02*
X141971119Y-104820333D01*
X141971119Y-104820333D02*
X141923500Y-104915571D01*
X141923500Y-104915571D02*
X141828261Y-104963190D01*
X141828261Y-104963190D02*
X141780642Y-104963190D01*
X141780642Y-104963190D02*
X141685404Y-104915571D01*
X141685404Y-104915571D02*
X141637785Y-104820333D01*
X141637785Y-104820333D02*
X141637785Y-104677476D01*
X141637785Y-104677476D02*
X141590166Y-104582238D01*
X141590166Y-104582238D02*
X141494928Y-104534619D01*
X141494928Y-104534619D02*
X141447309Y-104534619D01*
X141447309Y-104534619D02*
X141352071Y-104582238D01*
X141352071Y-104582238D02*
X141304452Y-104677476D01*
X141304452Y-104677476D02*
X141304452Y-104820333D01*
X141304452Y-104820333D02*
X141352071Y-104915571D01*
X141304452Y-105391762D02*
X142304452Y-105391762D01*
X141352071Y-105391762D02*
X141304452Y-105487000D01*
X141304452Y-105487000D02*
X141304452Y-105677476D01*
X141304452Y-105677476D02*
X141352071Y-105772714D01*
X141352071Y-105772714D02*
X141399690Y-105820333D01*
X141399690Y-105820333D02*
X141494928Y-105867952D01*
X141494928Y-105867952D02*
X141780642Y-105867952D01*
X141780642Y-105867952D02*
X141875880Y-105820333D01*
X141875880Y-105820333D02*
X141923500Y-105772714D01*
X141923500Y-105772714D02*
X141971119Y-105677476D01*
X141971119Y-105677476D02*
X141971119Y-105487000D01*
X141971119Y-105487000D02*
X141923500Y-105391762D01*
X141971119Y-106439381D02*
X141923500Y-106344143D01*
X141923500Y-106344143D02*
X141828261Y-106296524D01*
X141828261Y-106296524D02*
X140971119Y-106296524D01*
X141971119Y-107248905D02*
X141447309Y-107248905D01*
X141447309Y-107248905D02*
X141352071Y-107201286D01*
X141352071Y-107201286D02*
X141304452Y-107106048D01*
X141304452Y-107106048D02*
X141304452Y-106915572D01*
X141304452Y-106915572D02*
X141352071Y-106820334D01*
X141923500Y-107248905D02*
X141971119Y-107153667D01*
X141971119Y-107153667D02*
X141971119Y-106915572D01*
X141971119Y-106915572D02*
X141923500Y-106820334D01*
X141923500Y-106820334D02*
X141828261Y-106772715D01*
X141828261Y-106772715D02*
X141733023Y-106772715D01*
X141733023Y-106772715D02*
X141637785Y-106820334D01*
X141637785Y-106820334D02*
X141590166Y-106915572D01*
X141590166Y-106915572D02*
X141590166Y-107153667D01*
X141590166Y-107153667D02*
X141542547Y-107248905D01*
X141304452Y-107629858D02*
X141971119Y-107867953D01*
X141304452Y-108106048D02*
X141971119Y-107867953D01*
X141971119Y-107867953D02*
X142209214Y-107772715D01*
X142209214Y-107772715D02*
X142256833Y-107725096D01*
X142256833Y-107725096D02*
X142304452Y-107629858D01*
D11*
X129354819Y-80166666D02*
X130069104Y-80166666D01*
X130069104Y-80166666D02*
X130211961Y-80119047D01*
X130211961Y-80119047D02*
X130307200Y-80023809D01*
X130307200Y-80023809D02*
X130354819Y-79880952D01*
X130354819Y-79880952D02*
X130354819Y-79785714D01*
X129354819Y-80547619D02*
X129354819Y-81166666D01*
X129354819Y-81166666D02*
X129735771Y-80833333D01*
X129735771Y-80833333D02*
X129735771Y-80976190D01*
X129735771Y-80976190D02*
X129783390Y-81071428D01*
X129783390Y-81071428D02*
X129831009Y-81119047D01*
X129831009Y-81119047D02*
X129926247Y-81166666D01*
X129926247Y-81166666D02*
X130164342Y-81166666D01*
X130164342Y-81166666D02*
X130259580Y-81119047D01*
X130259580Y-81119047D02*
X130307200Y-81071428D01*
X130307200Y-81071428D02*
X130354819Y-80976190D01*
X130354819Y-80976190D02*
X130354819Y-80690476D01*
X130354819Y-80690476D02*
X130307200Y-80595238D01*
X130307200Y-80595238D02*
X130259580Y-80547619D01*
D12*
%TO.C,J7*%
X177567000Y-103417000D02*
G75*
G02*
X176805000Y-103417000I-381000J0D01*
G01*
X176805000Y-103417000D02*
G75*
G02*
X177567000Y-103417000I381000J0D01*
G01*
D13*
%TO.C,J3*%
X131805000Y-79277500D02*
X131805000Y-100107500D01*
X131805000Y-100107500D02*
X136755000Y-100107500D01*
X136755000Y-79277500D02*
X131805000Y-79277500D01*
X136755000Y-79277500D02*
X136755000Y-100107500D01*
X133110000Y-78627500D02*
G75*
G02*
X132910000Y-78627500I-100000J0D01*
G01*
X132910000Y-78627500D02*
G75*
G02*
X133110000Y-78627500I100000J0D01*
G01*
%TD*%
M02*
