%TF.GenerationSoftware,KiCad,Pcbnew,9.0.0*%
%TF.CreationDate,2025-04-30T00:07:22-04:00*%
%TF.ProjectId,W4MLB_Band_Display,57344d4c-425f-4426-916e-645f44697370,1.0*%
%TF.SameCoordinates,Original*%
%TF.FileFunction,Soldermask,Bot*%
%TF.FilePolarity,Negative*%
%FSLAX46Y46*%
G04 Gerber Fmt 4.6, Leading zero omitted, Abs format (unit mm)*
G04 Created by KiCad (PCBNEW 9.0.0) date 2025-04-30 00:07:22*
%MOMM*%
%LPD*%
G01*
G04 APERTURE LIST*
%ADD10C,0.860984*%
%ADD11C,2.200000*%
%ADD12C,2.336800*%
%ADD13R,2.000000X2.000000*%
%ADD14C,2.000000*%
%ADD15O,4.000000X2.000000*%
%ADD16O,1.800000X3.600000*%
%ADD17R,1.390000X1.390000*%
%ADD18C,1.390000*%
%ADD19O,3.800000X1.900000*%
%ADD20O,1.900000X3.800000*%
%ADD21R,1.700000X1.700000*%
%ADD22O,1.700000X1.700000*%
%ADD23R,1.370000X1.370000*%
%ADD24C,1.370000*%
G04 APERTURE END LIST*
%TO.C,J4*%
D10*
X161390492Y-82210000D02*
G75*
G02*
X160529508Y-82210000I-430492J0D01*
G01*
X160529508Y-82210000D02*
G75*
G02*
X161390492Y-82210000I430492J0D01*
G01*
X161390492Y-84750000D02*
G75*
G02*
X160529508Y-84750000I-430492J0D01*
G01*
X160529508Y-84750000D02*
G75*
G02*
X161390492Y-84750000I430492J0D01*
G01*
X161390492Y-87290000D02*
G75*
G02*
X160529508Y-87290000I-430492J0D01*
G01*
X160529508Y-87290000D02*
G75*
G02*
X161390492Y-87290000I430492J0D01*
G01*
X161390492Y-89830000D02*
G75*
G02*
X160529508Y-89830000I-430492J0D01*
G01*
X160529508Y-89830000D02*
G75*
G02*
X161390492Y-89830000I430492J0D01*
G01*
X161390492Y-92370000D02*
G75*
G02*
X160529508Y-92370000I-430492J0D01*
G01*
X160529508Y-92370000D02*
G75*
G02*
X161390492Y-92370000I430492J0D01*
G01*
X161390492Y-94910000D02*
G75*
G02*
X160529508Y-94910000I-430492J0D01*
G01*
X160529508Y-94910000D02*
G75*
G02*
X161390492Y-94910000I430492J0D01*
G01*
X161390492Y-97450000D02*
G75*
G02*
X160529508Y-97450000I-430492J0D01*
G01*
X160529508Y-97450000D02*
G75*
G02*
X161390492Y-97450000I430492J0D01*
G01*
X161390492Y-99990000D02*
G75*
G02*
X160529508Y-99990000I-430492J0D01*
G01*
X160529508Y-99990000D02*
G75*
G02*
X161390492Y-99990000I430492J0D01*
G01*
X163930492Y-82210000D02*
G75*
G02*
X163069508Y-82210000I-430492J0D01*
G01*
X163069508Y-82210000D02*
G75*
G02*
X163930492Y-82210000I430492J0D01*
G01*
X163930492Y-84750000D02*
G75*
G02*
X163069508Y-84750000I-430492J0D01*
G01*
X163069508Y-84750000D02*
G75*
G02*
X163930492Y-84750000I430492J0D01*
G01*
X163930492Y-87290000D02*
G75*
G02*
X163069508Y-87290000I-430492J0D01*
G01*
X163069508Y-87290000D02*
G75*
G02*
X163930492Y-87290000I430492J0D01*
G01*
X163930492Y-89830000D02*
G75*
G02*
X163069508Y-89830000I-430492J0D01*
G01*
X163069508Y-89830000D02*
G75*
G02*
X163930492Y-89830000I430492J0D01*
G01*
X163930492Y-92370000D02*
G75*
G02*
X163069508Y-92370000I-430492J0D01*
G01*
X163069508Y-92370000D02*
G75*
G02*
X163930492Y-92370000I430492J0D01*
G01*
X163930492Y-94910000D02*
G75*
G02*
X163069508Y-94910000I-430492J0D01*
G01*
X163069508Y-94910000D02*
G75*
G02*
X163930492Y-94910000I430492J0D01*
G01*
X163930492Y-97450000D02*
G75*
G02*
X163069508Y-97450000I-430492J0D01*
G01*
X163069508Y-97450000D02*
G75*
G02*
X163930492Y-97450000I430492J0D01*
G01*
X163930492Y-99990000D02*
G75*
G02*
X163069508Y-99990000I-430492J0D01*
G01*
X163069508Y-99990000D02*
G75*
G02*
X163930492Y-99990000I430492J0D01*
G01*
%TD*%
D11*
%TO.C,MH4*%
X162500000Y-121000000D03*
%TD*%
D12*
%TO.C,J7*%
X177186000Y-96305000D03*
X177186000Y-88050000D03*
%TD*%
D11*
%TO.C,MH1*%
X122200000Y-66500000D03*
%TD*%
D13*
%TO.C,BZ1*%
X186500000Y-74250000D03*
D14*
X178900000Y-74250000D03*
%TD*%
D11*
%TO.C,MH2*%
X187000000Y-66500000D03*
%TD*%
D15*
%TO.C,J6*%
X141267500Y-125000000D03*
D16*
X137517500Y-121300000D03*
X145017500Y-121300000D03*
%TD*%
D17*
%TO.C,J2*%
X147230000Y-71860000D03*
D18*
X147230000Y-74400000D03*
X147230000Y-76940000D03*
X147230000Y-79480000D03*
X147230000Y-82020000D03*
X147230000Y-84560000D03*
X147230000Y-87100000D03*
X147230000Y-89640000D03*
X147230000Y-92180000D03*
X147230000Y-94720000D03*
X147230000Y-97260000D03*
X147230000Y-99800000D03*
X147230000Y-102340000D03*
X147230000Y-104880000D03*
X147230000Y-107420000D03*
%TD*%
D19*
%TO.C,J8*%
X182950000Y-113237500D03*
X182950000Y-119167500D03*
D20*
X187600000Y-115917500D03*
%TD*%
D21*
%TO.C,J9*%
X152500000Y-66500000D03*
D22*
X155040000Y-66500000D03*
X157580000Y-66500000D03*
X160120000Y-66500000D03*
X162660000Y-66500000D03*
X165200000Y-66500000D03*
X167740000Y-66500000D03*
X170280000Y-66500000D03*
X172820000Y-66500000D03*
%TD*%
D11*
%TO.C,MH3*%
X124000000Y-113750000D03*
%TD*%
D15*
%TO.C,J5*%
X126017500Y-125000000D03*
D16*
X122267500Y-121300000D03*
X129767500Y-121300000D03*
%TD*%
D13*
%TO.C,U1*%
X-41750000Y-179690000D03*
D14*
X-41750000Y-182230000D03*
X-41750000Y-184770000D03*
X-41750000Y-187310000D03*
X-41750000Y-189850000D03*
X-41750000Y-192390000D03*
X-41750000Y-194930000D03*
X-41750000Y-197470000D03*
X-41750000Y-200010000D03*
X-41750000Y-202550000D03*
X-41750000Y-205090000D03*
X-41750000Y-207630000D03*
X-41750000Y-210170000D03*
X-41750000Y-212710000D03*
X-41750000Y-215250000D03*
X-16350000Y-215250000D03*
X-16350000Y-212710000D03*
X-16350000Y-210170000D03*
X-16350000Y-207630000D03*
X-16350000Y-205090000D03*
X-16350000Y-202550000D03*
X-16350000Y-200010000D03*
X-16350000Y-197470000D03*
X-16350000Y-194930000D03*
X-16350000Y-192390000D03*
X-16350000Y-189850000D03*
X-16350000Y-187310000D03*
X-16350000Y-184770000D03*
X-16350000Y-182230000D03*
X-16350000Y-179690000D03*
%TD*%
D13*
%TO.C,C2*%
X174750000Y-121000000D03*
D14*
X169750000Y-121000000D03*
%TD*%
D17*
%TO.C,J1*%
X121830000Y-71860000D03*
D18*
X121830000Y-74400000D03*
X121830000Y-76940000D03*
X121830000Y-79480000D03*
X121830000Y-82020000D03*
X121830000Y-84560000D03*
X121830000Y-87100000D03*
X121830000Y-89640000D03*
X121830000Y-92180000D03*
X121830000Y-94720000D03*
X121830000Y-97260000D03*
X121830000Y-99800000D03*
X121830000Y-102340000D03*
X121830000Y-104880000D03*
X121830000Y-107420000D03*
%TD*%
D23*
%TO.C,J3*%
X133010000Y-80802500D03*
D24*
X135550000Y-80802500D03*
X133010000Y-83342500D03*
X135550000Y-83342500D03*
X133010000Y-85882500D03*
X135550000Y-85882500D03*
X133010000Y-88422500D03*
X135550000Y-88422500D03*
X133010000Y-90962500D03*
X135550000Y-90962500D03*
X133010000Y-93502500D03*
X135550000Y-93502500D03*
X133010000Y-96042500D03*
X135550000Y-96042500D03*
X133010000Y-98582500D03*
X135550000Y-98582500D03*
%TD*%
M02*
