%TF.GenerationSoftware,KiCad,Pcbnew,9.0.0*%
%TF.CreationDate,2025-04-14T04:50:01-04:00*%
%TF.ProjectId,W4MLB_Band_Display,57344d4c-425f-4426-916e-645f44697370,1.0*%
%TF.SameCoordinates,Original*%
%TF.FileFunction,Legend,Top*%
%TF.FilePolarity,Positive*%
%FSLAX46Y46*%
G04 Gerber Fmt 4.6, Leading zero omitted, Abs format (unit mm)*
G04 Created by KiCad (PCBNEW 9.0.0) date 2025-04-14 04:50:01*
%MOMM*%
%LPD*%
G01*
G04 APERTURE LIST*
%ADD10C,0.125000*%
%ADD11C,0.200000*%
%ADD12C,1.168034*%
%ADD13C,0.100000*%
%ADD14C,0.300000*%
%ADD15C,0.150000*%
%ADD16C,0.127000*%
%ADD17C,0.120000*%
G04 APERTURE END LIST*
D10*
X182496521Y-71061175D02*
X182020331Y-71061175D01*
X182020331Y-71061175D02*
X181972712Y-71537365D01*
X181972712Y-71537365D02*
X182020331Y-71489746D01*
X182020331Y-71489746D02*
X182115569Y-71442127D01*
X182115569Y-71442127D02*
X182353664Y-71442127D01*
X182353664Y-71442127D02*
X182448902Y-71489746D01*
X182448902Y-71489746D02*
X182496521Y-71537365D01*
X182496521Y-71537365D02*
X182544140Y-71632603D01*
X182544140Y-71632603D02*
X182544140Y-71870698D01*
X182544140Y-71870698D02*
X182496521Y-71965936D01*
X182496521Y-71965936D02*
X182448902Y-72013556D01*
X182448902Y-72013556D02*
X182353664Y-72061175D01*
X182353664Y-72061175D02*
X182115569Y-72061175D01*
X182115569Y-72061175D02*
X182020331Y-72013556D01*
X182020331Y-72013556D02*
X181972712Y-71965936D01*
X182829855Y-71061175D02*
X183163188Y-72061175D01*
X183163188Y-72061175D02*
X183496521Y-71061175D01*
X183829855Y-72061175D02*
X183829855Y-71061175D01*
X183829855Y-71061175D02*
X184067950Y-71061175D01*
X184067950Y-71061175D02*
X184210807Y-71108794D01*
X184210807Y-71108794D02*
X184306045Y-71204032D01*
X184306045Y-71204032D02*
X184353664Y-71299270D01*
X184353664Y-71299270D02*
X184401283Y-71489746D01*
X184401283Y-71489746D02*
X184401283Y-71632603D01*
X184401283Y-71632603D02*
X184353664Y-71823079D01*
X184353664Y-71823079D02*
X184306045Y-71918317D01*
X184306045Y-71918317D02*
X184210807Y-72013556D01*
X184210807Y-72013556D02*
X184067950Y-72061175D01*
X184067950Y-72061175D02*
X183829855Y-72061175D01*
X185401283Y-71965936D02*
X185353664Y-72013556D01*
X185353664Y-72013556D02*
X185210807Y-72061175D01*
X185210807Y-72061175D02*
X185115569Y-72061175D01*
X185115569Y-72061175D02*
X184972712Y-72013556D01*
X184972712Y-72013556D02*
X184877474Y-71918317D01*
X184877474Y-71918317D02*
X184829855Y-71823079D01*
X184829855Y-71823079D02*
X184782236Y-71632603D01*
X184782236Y-71632603D02*
X184782236Y-71489746D01*
X184782236Y-71489746D02*
X184829855Y-71299270D01*
X184829855Y-71299270D02*
X184877474Y-71204032D01*
X184877474Y-71204032D02*
X184972712Y-71108794D01*
X184972712Y-71108794D02*
X185115569Y-71061175D01*
X185115569Y-71061175D02*
X185210807Y-71061175D01*
X185210807Y-71061175D02*
X185353664Y-71108794D01*
X185353664Y-71108794D02*
X185401283Y-71156413D01*
X182020331Y-73671119D02*
X182020331Y-72671119D01*
X182020331Y-72671119D02*
X182401283Y-72671119D01*
X182401283Y-72671119D02*
X182496521Y-72718738D01*
X182496521Y-72718738D02*
X182544140Y-72766357D01*
X182544140Y-72766357D02*
X182591759Y-72861595D01*
X182591759Y-72861595D02*
X182591759Y-73004452D01*
X182591759Y-73004452D02*
X182544140Y-73099690D01*
X182544140Y-73099690D02*
X182496521Y-73147309D01*
X182496521Y-73147309D02*
X182401283Y-73194928D01*
X182401283Y-73194928D02*
X182020331Y-73194928D01*
X183163188Y-73671119D02*
X183067950Y-73623500D01*
X183067950Y-73623500D02*
X183020331Y-73575880D01*
X183020331Y-73575880D02*
X182972712Y-73480642D01*
X182972712Y-73480642D02*
X182972712Y-73194928D01*
X182972712Y-73194928D02*
X183020331Y-73099690D01*
X183020331Y-73099690D02*
X183067950Y-73052071D01*
X183067950Y-73052071D02*
X183163188Y-73004452D01*
X183163188Y-73004452D02*
X183306045Y-73004452D01*
X183306045Y-73004452D02*
X183401283Y-73052071D01*
X183401283Y-73052071D02*
X183448902Y-73099690D01*
X183448902Y-73099690D02*
X183496521Y-73194928D01*
X183496521Y-73194928D02*
X183496521Y-73480642D01*
X183496521Y-73480642D02*
X183448902Y-73575880D01*
X183448902Y-73575880D02*
X183401283Y-73623500D01*
X183401283Y-73623500D02*
X183306045Y-73671119D01*
X183306045Y-73671119D02*
X183163188Y-73671119D01*
X183829855Y-73004452D02*
X184020331Y-73671119D01*
X184020331Y-73671119D02*
X184210807Y-73194928D01*
X184210807Y-73194928D02*
X184401283Y-73671119D01*
X184401283Y-73671119D02*
X184591759Y-73004452D01*
X185353664Y-73623500D02*
X185258426Y-73671119D01*
X185258426Y-73671119D02*
X185067950Y-73671119D01*
X185067950Y-73671119D02*
X184972712Y-73623500D01*
X184972712Y-73623500D02*
X184925093Y-73528261D01*
X184925093Y-73528261D02*
X184925093Y-73147309D01*
X184925093Y-73147309D02*
X184972712Y-73052071D01*
X184972712Y-73052071D02*
X185067950Y-73004452D01*
X185067950Y-73004452D02*
X185258426Y-73004452D01*
X185258426Y-73004452D02*
X185353664Y-73052071D01*
X185353664Y-73052071D02*
X185401283Y-73147309D01*
X185401283Y-73147309D02*
X185401283Y-73242547D01*
X185401283Y-73242547D02*
X184925093Y-73337785D01*
X185829855Y-73671119D02*
X185829855Y-73004452D01*
X185829855Y-73194928D02*
X185877474Y-73099690D01*
X185877474Y-73099690D02*
X185925093Y-73052071D01*
X185925093Y-73052071D02*
X186020331Y-73004452D01*
X186020331Y-73004452D02*
X186115569Y-73004452D01*
X132644140Y-102471119D02*
X132072712Y-102471119D01*
X132358426Y-102471119D02*
X132358426Y-101471119D01*
X132358426Y-101471119D02*
X132263188Y-101613976D01*
X132263188Y-101613976D02*
X132167950Y-101709214D01*
X132167950Y-101709214D02*
X132072712Y-101756833D01*
X133548902Y-101471119D02*
X133072712Y-101471119D01*
X133072712Y-101471119D02*
X133025093Y-101947309D01*
X133025093Y-101947309D02*
X133072712Y-101899690D01*
X133072712Y-101899690D02*
X133167950Y-101852071D01*
X133167950Y-101852071D02*
X133406045Y-101852071D01*
X133406045Y-101852071D02*
X133501283Y-101899690D01*
X133501283Y-101899690D02*
X133548902Y-101947309D01*
X133548902Y-101947309D02*
X133596521Y-102042547D01*
X133596521Y-102042547D02*
X133596521Y-102280642D01*
X133596521Y-102280642D02*
X133548902Y-102375880D01*
X133548902Y-102375880D02*
X133501283Y-102423500D01*
X133501283Y-102423500D02*
X133406045Y-102471119D01*
X133406045Y-102471119D02*
X133167950Y-102471119D01*
X133167950Y-102471119D02*
X133072712Y-102423500D01*
X133072712Y-102423500D02*
X133025093Y-102375880D01*
D11*
X175511917Y-119330753D02*
X175511917Y-118568849D01*
X175892870Y-118949801D02*
X175130965Y-118949801D01*
D12*
X176074017Y-115680000D02*
G75*
G02*
X174905983Y-115680000I-584017J0D01*
G01*
X174905983Y-115680000D02*
G75*
G02*
X176074017Y-115680000I584017J0D01*
G01*
D13*
X174092292Y-116946945D02*
G75*
G02*
X176711754Y-117028991I1353408J1353445D01*
G01*
D14*
X175490000Y-115680000D02*
X175490000Y-118180000D01*
D10*
X138859259Y-118275880D02*
X138811640Y-118323500D01*
X138811640Y-118323500D02*
X138668783Y-118371119D01*
X138668783Y-118371119D02*
X138573545Y-118371119D01*
X138573545Y-118371119D02*
X138430688Y-118323500D01*
X138430688Y-118323500D02*
X138335450Y-118228261D01*
X138335450Y-118228261D02*
X138287831Y-118133023D01*
X138287831Y-118133023D02*
X138240212Y-117942547D01*
X138240212Y-117942547D02*
X138240212Y-117799690D01*
X138240212Y-117799690D02*
X138287831Y-117609214D01*
X138287831Y-117609214D02*
X138335450Y-117513976D01*
X138335450Y-117513976D02*
X138430688Y-117418738D01*
X138430688Y-117418738D02*
X138573545Y-117371119D01*
X138573545Y-117371119D02*
X138668783Y-117371119D01*
X138668783Y-117371119D02*
X138811640Y-117418738D01*
X138811640Y-117418738D02*
X138859259Y-117466357D01*
X139287831Y-118371119D02*
X139287831Y-117371119D01*
X139764021Y-117990166D02*
X140525926Y-117990166D01*
X140859259Y-117371119D02*
X141192592Y-118371119D01*
X141192592Y-118371119D02*
X141525925Y-117371119D01*
X142573545Y-117704452D02*
X143287830Y-117704452D01*
X142859259Y-117275880D02*
X142573545Y-118561595D01*
X143192592Y-118133023D02*
X142478307Y-118133023D01*
X142906878Y-118561595D02*
X143192592Y-117275880D01*
X144335450Y-117466357D02*
X144383069Y-117418738D01*
X144383069Y-117418738D02*
X144478307Y-117371119D01*
X144478307Y-117371119D02*
X144716402Y-117371119D01*
X144716402Y-117371119D02*
X144811640Y-117418738D01*
X144811640Y-117418738D02*
X144859259Y-117466357D01*
X144859259Y-117466357D02*
X144906878Y-117561595D01*
X144906878Y-117561595D02*
X144906878Y-117656833D01*
X144906878Y-117656833D02*
X144859259Y-117799690D01*
X144859259Y-117799690D02*
X144287831Y-118371119D01*
X144287831Y-118371119D02*
X144906878Y-118371119D01*
X124159259Y-118275880D02*
X124111640Y-118323500D01*
X124111640Y-118323500D02*
X123968783Y-118371119D01*
X123968783Y-118371119D02*
X123873545Y-118371119D01*
X123873545Y-118371119D02*
X123730688Y-118323500D01*
X123730688Y-118323500D02*
X123635450Y-118228261D01*
X123635450Y-118228261D02*
X123587831Y-118133023D01*
X123587831Y-118133023D02*
X123540212Y-117942547D01*
X123540212Y-117942547D02*
X123540212Y-117799690D01*
X123540212Y-117799690D02*
X123587831Y-117609214D01*
X123587831Y-117609214D02*
X123635450Y-117513976D01*
X123635450Y-117513976D02*
X123730688Y-117418738D01*
X123730688Y-117418738D02*
X123873545Y-117371119D01*
X123873545Y-117371119D02*
X123968783Y-117371119D01*
X123968783Y-117371119D02*
X124111640Y-117418738D01*
X124111640Y-117418738D02*
X124159259Y-117466357D01*
X124587831Y-118371119D02*
X124587831Y-117371119D01*
X125064021Y-117990166D02*
X125825926Y-117990166D01*
X126159259Y-117371119D02*
X126492592Y-118371119D01*
X126492592Y-118371119D02*
X126825925Y-117371119D01*
X127873545Y-117704452D02*
X128587830Y-117704452D01*
X128159259Y-117275880D02*
X127873545Y-118561595D01*
X128492592Y-118133023D02*
X127778307Y-118133023D01*
X128206878Y-118561595D02*
X128492592Y-117275880D01*
X130206878Y-118371119D02*
X129635450Y-118371119D01*
X129921164Y-118371119D02*
X129921164Y-117371119D01*
X129921164Y-117371119D02*
X129825926Y-117513976D01*
X129825926Y-117513976D02*
X129730688Y-117609214D01*
X129730688Y-117609214D02*
X129635450Y-117656833D01*
X176148738Y-106689192D02*
X176148738Y-107641573D01*
X176148738Y-107641573D02*
X177101119Y-107736811D01*
X177101119Y-107736811D02*
X177005880Y-107641573D01*
X177005880Y-107641573D02*
X176910642Y-107451097D01*
X176910642Y-107451097D02*
X176910642Y-106974906D01*
X176910642Y-106974906D02*
X177005880Y-106784430D01*
X177005880Y-106784430D02*
X177101119Y-106689192D01*
X177101119Y-106689192D02*
X177291595Y-106593954D01*
X177291595Y-106593954D02*
X177767785Y-106593954D01*
X177767785Y-106593954D02*
X177958261Y-106689192D01*
X177958261Y-106689192D02*
X178053500Y-106784430D01*
X178053500Y-106784430D02*
X178148738Y-106974906D01*
X178148738Y-106974906D02*
X178148738Y-107451097D01*
X178148738Y-107451097D02*
X178053500Y-107641573D01*
X178053500Y-107641573D02*
X177958261Y-107736811D01*
X177577309Y-104308239D02*
X177577309Y-103355858D01*
X178148738Y-104498715D02*
X176148738Y-103832049D01*
X176148738Y-103832049D02*
X178148738Y-103165382D01*
X178148738Y-102498715D02*
X176148738Y-102498715D01*
X176148738Y-102498715D02*
X177577309Y-101832048D01*
X177577309Y-101832048D02*
X176148738Y-101165382D01*
X176148738Y-101165382D02*
X178148738Y-101165382D01*
X178148738Y-100213001D02*
X176148738Y-100213001D01*
X176148738Y-100213001D02*
X176148738Y-99451096D01*
X176148738Y-99451096D02*
X176243976Y-99260620D01*
X176243976Y-99260620D02*
X176339214Y-99165382D01*
X176339214Y-99165382D02*
X176529690Y-99070144D01*
X176529690Y-99070144D02*
X176815404Y-99070144D01*
X176815404Y-99070144D02*
X177005880Y-99165382D01*
X177005880Y-99165382D02*
X177101119Y-99260620D01*
X177101119Y-99260620D02*
X177196357Y-99451096D01*
X177196357Y-99451096D02*
X177196357Y-100213001D01*
X135672712Y-76666357D02*
X135720331Y-76618738D01*
X135720331Y-76618738D02*
X135815569Y-76571119D01*
X135815569Y-76571119D02*
X136053664Y-76571119D01*
X136053664Y-76571119D02*
X136148902Y-76618738D01*
X136148902Y-76618738D02*
X136196521Y-76666357D01*
X136196521Y-76666357D02*
X136244140Y-76761595D01*
X136244140Y-76761595D02*
X136244140Y-76856833D01*
X136244140Y-76856833D02*
X136196521Y-76999690D01*
X136196521Y-76999690D02*
X135625093Y-77571119D01*
X135625093Y-77571119D02*
X136244140Y-77571119D01*
X186618738Y-86755859D02*
X186571119Y-86851097D01*
X186571119Y-86851097D02*
X186571119Y-86993954D01*
X186571119Y-86993954D02*
X186618738Y-87136811D01*
X186618738Y-87136811D02*
X186713976Y-87232049D01*
X186713976Y-87232049D02*
X186809214Y-87279668D01*
X186809214Y-87279668D02*
X186999690Y-87327287D01*
X186999690Y-87327287D02*
X187142547Y-87327287D01*
X187142547Y-87327287D02*
X187333023Y-87279668D01*
X187333023Y-87279668D02*
X187428261Y-87232049D01*
X187428261Y-87232049D02*
X187523500Y-87136811D01*
X187523500Y-87136811D02*
X187571119Y-86993954D01*
X187571119Y-86993954D02*
X187571119Y-86898716D01*
X187571119Y-86898716D02*
X187523500Y-86755859D01*
X187523500Y-86755859D02*
X187475880Y-86708240D01*
X187475880Y-86708240D02*
X187142547Y-86708240D01*
X187142547Y-86708240D02*
X187142547Y-86898716D01*
X187571119Y-86279668D02*
X186571119Y-86279668D01*
X186571119Y-86279668D02*
X187571119Y-85708240D01*
X187571119Y-85708240D02*
X186571119Y-85708240D01*
X187571119Y-85232049D02*
X186571119Y-85232049D01*
X186571119Y-85232049D02*
X186571119Y-84993954D01*
X186571119Y-84993954D02*
X186618738Y-84851097D01*
X186618738Y-84851097D02*
X186713976Y-84755859D01*
X186713976Y-84755859D02*
X186809214Y-84708240D01*
X186809214Y-84708240D02*
X186999690Y-84660621D01*
X186999690Y-84660621D02*
X187142547Y-84660621D01*
X187142547Y-84660621D02*
X187333023Y-84708240D01*
X187333023Y-84708240D02*
X187428261Y-84755859D01*
X187428261Y-84755859D02*
X187523500Y-84851097D01*
X187523500Y-84851097D02*
X187571119Y-84993954D01*
X187571119Y-84993954D02*
X187571119Y-85232049D01*
X134006045Y-74371119D02*
X134006045Y-75085404D01*
X134006045Y-75085404D02*
X133958426Y-75228261D01*
X133958426Y-75228261D02*
X133863188Y-75323500D01*
X133863188Y-75323500D02*
X133720331Y-75371119D01*
X133720331Y-75371119D02*
X133625093Y-75371119D01*
X134386998Y-74371119D02*
X135006045Y-74371119D01*
X135006045Y-74371119D02*
X134672712Y-74752071D01*
X134672712Y-74752071D02*
X134815569Y-74752071D01*
X134815569Y-74752071D02*
X134910807Y-74799690D01*
X134910807Y-74799690D02*
X134958426Y-74847309D01*
X134958426Y-74847309D02*
X135006045Y-74942547D01*
X135006045Y-74942547D02*
X135006045Y-75180642D01*
X135006045Y-75180642D02*
X134958426Y-75275880D01*
X134958426Y-75275880D02*
X134910807Y-75323500D01*
X134910807Y-75323500D02*
X134815569Y-75371119D01*
X134815569Y-75371119D02*
X134529855Y-75371119D01*
X134529855Y-75371119D02*
X134434617Y-75323500D01*
X134434617Y-75323500D02*
X134386998Y-75275880D01*
X187190166Y-93079668D02*
X187190166Y-92317764D01*
X187571119Y-92698716D02*
X186809214Y-92698716D01*
X186571119Y-91365383D02*
X186571119Y-91841573D01*
X186571119Y-91841573D02*
X187047309Y-91889192D01*
X187047309Y-91889192D02*
X186999690Y-91841573D01*
X186999690Y-91841573D02*
X186952071Y-91746335D01*
X186952071Y-91746335D02*
X186952071Y-91508240D01*
X186952071Y-91508240D02*
X186999690Y-91413002D01*
X186999690Y-91413002D02*
X187047309Y-91365383D01*
X187047309Y-91365383D02*
X187142547Y-91317764D01*
X187142547Y-91317764D02*
X187380642Y-91317764D01*
X187380642Y-91317764D02*
X187475880Y-91365383D01*
X187475880Y-91365383D02*
X187523500Y-91413002D01*
X187523500Y-91413002D02*
X187571119Y-91508240D01*
X187571119Y-91508240D02*
X187571119Y-91746335D01*
X187571119Y-91746335D02*
X187523500Y-91841573D01*
X187523500Y-91841573D02*
X187475880Y-91889192D01*
X186571119Y-91032049D02*
X187571119Y-90698716D01*
X187571119Y-90698716D02*
X186571119Y-90365383D01*
X135594140Y-102453619D02*
X135022712Y-102453619D01*
X135308426Y-102453619D02*
X135308426Y-101453619D01*
X135308426Y-101453619D02*
X135213188Y-101596476D01*
X135213188Y-101596476D02*
X135117950Y-101691714D01*
X135117950Y-101691714D02*
X135022712Y-101739333D01*
X136451283Y-101453619D02*
X136260807Y-101453619D01*
X136260807Y-101453619D02*
X136165569Y-101501238D01*
X136165569Y-101501238D02*
X136117950Y-101548857D01*
X136117950Y-101548857D02*
X136022712Y-101691714D01*
X136022712Y-101691714D02*
X135975093Y-101882190D01*
X135975093Y-101882190D02*
X135975093Y-102263142D01*
X135975093Y-102263142D02*
X136022712Y-102358380D01*
X136022712Y-102358380D02*
X136070331Y-102406000D01*
X136070331Y-102406000D02*
X136165569Y-102453619D01*
X136165569Y-102453619D02*
X136356045Y-102453619D01*
X136356045Y-102453619D02*
X136451283Y-102406000D01*
X136451283Y-102406000D02*
X136498902Y-102358380D01*
X136498902Y-102358380D02*
X136546521Y-102263142D01*
X136546521Y-102263142D02*
X136546521Y-102025047D01*
X136546521Y-102025047D02*
X136498902Y-101929809D01*
X136498902Y-101929809D02*
X136451283Y-101882190D01*
X136451283Y-101882190D02*
X136356045Y-101834571D01*
X136356045Y-101834571D02*
X136165569Y-101834571D01*
X136165569Y-101834571D02*
X136070331Y-101882190D01*
X136070331Y-101882190D02*
X136022712Y-101929809D01*
X136022712Y-101929809D02*
X135975093Y-102025047D01*
X133294140Y-77553619D02*
X132722712Y-77553619D01*
X133008426Y-77553619D02*
X133008426Y-76553619D01*
X133008426Y-76553619D02*
X132913188Y-76696476D01*
X132913188Y-76696476D02*
X132817950Y-76791714D01*
X132817950Y-76791714D02*
X132722712Y-76839333D01*
X175371119Y-93003478D02*
X175371119Y-93479668D01*
X175371119Y-93479668D02*
X174371119Y-93479668D01*
X174847309Y-92670144D02*
X174847309Y-92336811D01*
X175371119Y-92193954D02*
X175371119Y-92670144D01*
X175371119Y-92670144D02*
X174371119Y-92670144D01*
X174371119Y-92670144D02*
X174371119Y-92193954D01*
X175371119Y-91765382D02*
X174371119Y-91765382D01*
X174371119Y-91765382D02*
X174371119Y-91527287D01*
X174371119Y-91527287D02*
X174418738Y-91384430D01*
X174418738Y-91384430D02*
X174513976Y-91289192D01*
X174513976Y-91289192D02*
X174609214Y-91241573D01*
X174609214Y-91241573D02*
X174799690Y-91193954D01*
X174799690Y-91193954D02*
X174942547Y-91193954D01*
X174942547Y-91193954D02*
X175133023Y-91241573D01*
X175133023Y-91241573D02*
X175228261Y-91289192D01*
X175228261Y-91289192D02*
X175323500Y-91384430D01*
X175323500Y-91384430D02*
X175371119Y-91527287D01*
X175371119Y-91527287D02*
X175371119Y-91765382D01*
X175371119Y-90003477D02*
X174371119Y-90003477D01*
X174371119Y-90003477D02*
X175085404Y-89670144D01*
X175085404Y-89670144D02*
X174371119Y-89336811D01*
X174371119Y-89336811D02*
X175371119Y-89336811D01*
X175371119Y-88432049D02*
X174847309Y-88432049D01*
X174847309Y-88432049D02*
X174752071Y-88479668D01*
X174752071Y-88479668D02*
X174704452Y-88574906D01*
X174704452Y-88574906D02*
X174704452Y-88765382D01*
X174704452Y-88765382D02*
X174752071Y-88860620D01*
X175323500Y-88432049D02*
X175371119Y-88527287D01*
X175371119Y-88527287D02*
X175371119Y-88765382D01*
X175371119Y-88765382D02*
X175323500Y-88860620D01*
X175323500Y-88860620D02*
X175228261Y-88908239D01*
X175228261Y-88908239D02*
X175133023Y-88908239D01*
X175133023Y-88908239D02*
X175037785Y-88860620D01*
X175037785Y-88860620D02*
X174990166Y-88765382D01*
X174990166Y-88765382D02*
X174990166Y-88527287D01*
X174990166Y-88527287D02*
X174942547Y-88432049D01*
X174704452Y-88098715D02*
X174704452Y-87717763D01*
X174371119Y-87955858D02*
X175228261Y-87955858D01*
X175228261Y-87955858D02*
X175323500Y-87908239D01*
X175323500Y-87908239D02*
X175371119Y-87813001D01*
X175371119Y-87813001D02*
X175371119Y-87717763D01*
X175371119Y-87384429D02*
X174704452Y-87384429D01*
X174894928Y-87384429D02*
X174799690Y-87336810D01*
X174799690Y-87336810D02*
X174752071Y-87289191D01*
X174752071Y-87289191D02*
X174704452Y-87193953D01*
X174704452Y-87193953D02*
X174704452Y-87098715D01*
X175371119Y-86765381D02*
X174704452Y-86765381D01*
X174371119Y-86765381D02*
X174418738Y-86813000D01*
X174418738Y-86813000D02*
X174466357Y-86765381D01*
X174466357Y-86765381D02*
X174418738Y-86717762D01*
X174418738Y-86717762D02*
X174371119Y-86765381D01*
X174371119Y-86765381D02*
X174466357Y-86765381D01*
X175371119Y-86384429D02*
X174704452Y-85860620D01*
X174704452Y-86384429D02*
X175371119Y-85860620D01*
X175371119Y-84717762D02*
X174371119Y-84717762D01*
X174371119Y-84717762D02*
X174371119Y-84336810D01*
X174371119Y-84336810D02*
X174418738Y-84241572D01*
X174418738Y-84241572D02*
X174466357Y-84193953D01*
X174466357Y-84193953D02*
X174561595Y-84146334D01*
X174561595Y-84146334D02*
X174704452Y-84146334D01*
X174704452Y-84146334D02*
X174799690Y-84193953D01*
X174799690Y-84193953D02*
X174847309Y-84241572D01*
X174847309Y-84241572D02*
X174894928Y-84336810D01*
X174894928Y-84336810D02*
X174894928Y-84717762D01*
X174704452Y-83813000D02*
X175371119Y-83622524D01*
X175371119Y-83622524D02*
X174894928Y-83432048D01*
X174894928Y-83432048D02*
X175371119Y-83241572D01*
X175371119Y-83241572D02*
X174704452Y-83051096D01*
X175371119Y-82670143D02*
X174704452Y-82670143D01*
X174894928Y-82670143D02*
X174799690Y-82622524D01*
X174799690Y-82622524D02*
X174752071Y-82574905D01*
X174752071Y-82574905D02*
X174704452Y-82479667D01*
X174704452Y-82479667D02*
X174704452Y-82384429D01*
D15*
X147634166Y-119204819D02*
X147634166Y-119919104D01*
X147634166Y-119919104D02*
X147586547Y-120061961D01*
X147586547Y-120061961D02*
X147491309Y-120157200D01*
X147491309Y-120157200D02*
X147348452Y-120204819D01*
X147348452Y-120204819D02*
X147253214Y-120204819D01*
X148253214Y-119633390D02*
X148157976Y-119585771D01*
X148157976Y-119585771D02*
X148110357Y-119538152D01*
X148110357Y-119538152D02*
X148062738Y-119442914D01*
X148062738Y-119442914D02*
X148062738Y-119395295D01*
X148062738Y-119395295D02*
X148110357Y-119300057D01*
X148110357Y-119300057D02*
X148157976Y-119252438D01*
X148157976Y-119252438D02*
X148253214Y-119204819D01*
X148253214Y-119204819D02*
X148443690Y-119204819D01*
X148443690Y-119204819D02*
X148538928Y-119252438D01*
X148538928Y-119252438D02*
X148586547Y-119300057D01*
X148586547Y-119300057D02*
X148634166Y-119395295D01*
X148634166Y-119395295D02*
X148634166Y-119442914D01*
X148634166Y-119442914D02*
X148586547Y-119538152D01*
X148586547Y-119538152D02*
X148538928Y-119585771D01*
X148538928Y-119585771D02*
X148443690Y-119633390D01*
X148443690Y-119633390D02*
X148253214Y-119633390D01*
X148253214Y-119633390D02*
X148157976Y-119681009D01*
X148157976Y-119681009D02*
X148110357Y-119728628D01*
X148110357Y-119728628D02*
X148062738Y-119823866D01*
X148062738Y-119823866D02*
X148062738Y-120014342D01*
X148062738Y-120014342D02*
X148110357Y-120109580D01*
X148110357Y-120109580D02*
X148157976Y-120157200D01*
X148157976Y-120157200D02*
X148253214Y-120204819D01*
X148253214Y-120204819D02*
X148443690Y-120204819D01*
X148443690Y-120204819D02*
X148538928Y-120157200D01*
X148538928Y-120157200D02*
X148586547Y-120109580D01*
X148586547Y-120109580D02*
X148634166Y-120014342D01*
X148634166Y-120014342D02*
X148634166Y-119823866D01*
X148634166Y-119823866D02*
X148586547Y-119728628D01*
X148586547Y-119728628D02*
X148538928Y-119681009D01*
X148538928Y-119681009D02*
X148443690Y-119633390D01*
X185161905Y-77654819D02*
X185161905Y-76654819D01*
X185161905Y-76654819D02*
X185400000Y-76654819D01*
X185400000Y-76654819D02*
X185542857Y-76702438D01*
X185542857Y-76702438D02*
X185638095Y-76797676D01*
X185638095Y-76797676D02*
X185685714Y-76892914D01*
X185685714Y-76892914D02*
X185733333Y-77083390D01*
X185733333Y-77083390D02*
X185733333Y-77226247D01*
X185733333Y-77226247D02*
X185685714Y-77416723D01*
X185685714Y-77416723D02*
X185638095Y-77511961D01*
X185638095Y-77511961D02*
X185542857Y-77607200D01*
X185542857Y-77607200D02*
X185400000Y-77654819D01*
X185400000Y-77654819D02*
X185161905Y-77654819D01*
X186066667Y-76654819D02*
X186685714Y-76654819D01*
X186685714Y-76654819D02*
X186352381Y-77035771D01*
X186352381Y-77035771D02*
X186495238Y-77035771D01*
X186495238Y-77035771D02*
X186590476Y-77083390D01*
X186590476Y-77083390D02*
X186638095Y-77131009D01*
X186638095Y-77131009D02*
X186685714Y-77226247D01*
X186685714Y-77226247D02*
X186685714Y-77464342D01*
X186685714Y-77464342D02*
X186638095Y-77559580D01*
X186638095Y-77559580D02*
X186590476Y-77607200D01*
X186590476Y-77607200D02*
X186495238Y-77654819D01*
X186495238Y-77654819D02*
X186209524Y-77654819D01*
X186209524Y-77654819D02*
X186114286Y-77607200D01*
X186114286Y-77607200D02*
X186066667Y-77559580D01*
X144854819Y-97513094D02*
X143854819Y-97513094D01*
X143854819Y-97513094D02*
X143854819Y-97274999D01*
X143854819Y-97274999D02*
X143902438Y-97132142D01*
X143902438Y-97132142D02*
X143997676Y-97036904D01*
X143997676Y-97036904D02*
X144092914Y-96989285D01*
X144092914Y-96989285D02*
X144283390Y-96941666D01*
X144283390Y-96941666D02*
X144426247Y-96941666D01*
X144426247Y-96941666D02*
X144616723Y-96989285D01*
X144616723Y-96989285D02*
X144711961Y-97036904D01*
X144711961Y-97036904D02*
X144807200Y-97132142D01*
X144807200Y-97132142D02*
X144854819Y-97274999D01*
X144854819Y-97274999D02*
X144854819Y-97513094D01*
X144854819Y-95989285D02*
X144854819Y-96560713D01*
X144854819Y-96274999D02*
X143854819Y-96274999D01*
X143854819Y-96274999D02*
X143997676Y-96370237D01*
X143997676Y-96370237D02*
X144092914Y-96465475D01*
X144092914Y-96465475D02*
X144140533Y-96560713D01*
X179433333Y-77754819D02*
X179100000Y-77278628D01*
X178861905Y-77754819D02*
X178861905Y-76754819D01*
X178861905Y-76754819D02*
X179242857Y-76754819D01*
X179242857Y-76754819D02*
X179338095Y-76802438D01*
X179338095Y-76802438D02*
X179385714Y-76850057D01*
X179385714Y-76850057D02*
X179433333Y-76945295D01*
X179433333Y-76945295D02*
X179433333Y-77088152D01*
X179433333Y-77088152D02*
X179385714Y-77183390D01*
X179385714Y-77183390D02*
X179338095Y-77231009D01*
X179338095Y-77231009D02*
X179242857Y-77278628D01*
X179242857Y-77278628D02*
X178861905Y-77278628D01*
X180385714Y-77754819D02*
X179814286Y-77754819D01*
X180100000Y-77754819D02*
X180100000Y-76754819D01*
X180100000Y-76754819D02*
X180004762Y-76897676D01*
X180004762Y-76897676D02*
X179909524Y-76992914D01*
X179909524Y-76992914D02*
X179814286Y-77040533D01*
X177566666Y-96131009D02*
X177233333Y-96131009D01*
X177233333Y-96654819D02*
X177233333Y-95654819D01*
X177233333Y-95654819D02*
X177709523Y-95654819D01*
X178614285Y-96654819D02*
X178042857Y-96654819D01*
X178328571Y-96654819D02*
X178328571Y-95654819D01*
X178328571Y-95654819D02*
X178233333Y-95797676D01*
X178233333Y-95797676D02*
X178138095Y-95892914D01*
X178138095Y-95892914D02*
X178042857Y-95940533D01*
X181116666Y-81004819D02*
X181116666Y-81719104D01*
X181116666Y-81719104D02*
X181069047Y-81861961D01*
X181069047Y-81861961D02*
X180973809Y-81957200D01*
X180973809Y-81957200D02*
X180830952Y-82004819D01*
X180830952Y-82004819D02*
X180735714Y-82004819D01*
X182021428Y-81004819D02*
X181830952Y-81004819D01*
X181830952Y-81004819D02*
X181735714Y-81052438D01*
X181735714Y-81052438D02*
X181688095Y-81100057D01*
X181688095Y-81100057D02*
X181592857Y-81242914D01*
X181592857Y-81242914D02*
X181545238Y-81433390D01*
X181545238Y-81433390D02*
X181545238Y-81814342D01*
X181545238Y-81814342D02*
X181592857Y-81909580D01*
X181592857Y-81909580D02*
X181640476Y-81957200D01*
X181640476Y-81957200D02*
X181735714Y-82004819D01*
X181735714Y-82004819D02*
X181926190Y-82004819D01*
X181926190Y-82004819D02*
X182021428Y-81957200D01*
X182021428Y-81957200D02*
X182069047Y-81909580D01*
X182069047Y-81909580D02*
X182116666Y-81814342D01*
X182116666Y-81814342D02*
X182116666Y-81576247D01*
X182116666Y-81576247D02*
X182069047Y-81481009D01*
X182069047Y-81481009D02*
X182021428Y-81433390D01*
X182021428Y-81433390D02*
X181926190Y-81385771D01*
X181926190Y-81385771D02*
X181735714Y-81385771D01*
X181735714Y-81385771D02*
X181640476Y-81433390D01*
X181640476Y-81433390D02*
X181592857Y-81481009D01*
X181592857Y-81481009D02*
X181545238Y-81576247D01*
X149366666Y-71254819D02*
X149366666Y-71969104D01*
X149366666Y-71969104D02*
X149319047Y-72111961D01*
X149319047Y-72111961D02*
X149223809Y-72207200D01*
X149223809Y-72207200D02*
X149080952Y-72254819D01*
X149080952Y-72254819D02*
X148985714Y-72254819D01*
X149795238Y-71350057D02*
X149842857Y-71302438D01*
X149842857Y-71302438D02*
X149938095Y-71254819D01*
X149938095Y-71254819D02*
X150176190Y-71254819D01*
X150176190Y-71254819D02*
X150271428Y-71302438D01*
X150271428Y-71302438D02*
X150319047Y-71350057D01*
X150319047Y-71350057D02*
X150366666Y-71445295D01*
X150366666Y-71445295D02*
X150366666Y-71540533D01*
X150366666Y-71540533D02*
X150319047Y-71683390D01*
X150319047Y-71683390D02*
X149747619Y-72254819D01*
X149747619Y-72254819D02*
X150366666Y-72254819D01*
X121466666Y-67954819D02*
X121466666Y-68669104D01*
X121466666Y-68669104D02*
X121419047Y-68811961D01*
X121419047Y-68811961D02*
X121323809Y-68907200D01*
X121323809Y-68907200D02*
X121180952Y-68954819D01*
X121180952Y-68954819D02*
X121085714Y-68954819D01*
X122466666Y-68954819D02*
X121895238Y-68954819D01*
X122180952Y-68954819D02*
X122180952Y-67954819D01*
X122180952Y-67954819D02*
X122085714Y-68097676D01*
X122085714Y-68097676D02*
X121990476Y-68192914D01*
X121990476Y-68192914D02*
X121895238Y-68240533D01*
X162533333Y-117309580D02*
X162485714Y-117357200D01*
X162485714Y-117357200D02*
X162342857Y-117404819D01*
X162342857Y-117404819D02*
X162247619Y-117404819D01*
X162247619Y-117404819D02*
X162104762Y-117357200D01*
X162104762Y-117357200D02*
X162009524Y-117261961D01*
X162009524Y-117261961D02*
X161961905Y-117166723D01*
X161961905Y-117166723D02*
X161914286Y-116976247D01*
X161914286Y-116976247D02*
X161914286Y-116833390D01*
X161914286Y-116833390D02*
X161961905Y-116642914D01*
X161961905Y-116642914D02*
X162009524Y-116547676D01*
X162009524Y-116547676D02*
X162104762Y-116452438D01*
X162104762Y-116452438D02*
X162247619Y-116404819D01*
X162247619Y-116404819D02*
X162342857Y-116404819D01*
X162342857Y-116404819D02*
X162485714Y-116452438D01*
X162485714Y-116452438D02*
X162533333Y-116500057D01*
X162914286Y-116500057D02*
X162961905Y-116452438D01*
X162961905Y-116452438D02*
X163057143Y-116404819D01*
X163057143Y-116404819D02*
X163295238Y-116404819D01*
X163295238Y-116404819D02*
X163390476Y-116452438D01*
X163390476Y-116452438D02*
X163438095Y-116500057D01*
X163438095Y-116500057D02*
X163485714Y-116595295D01*
X163485714Y-116595295D02*
X163485714Y-116690533D01*
X163485714Y-116690533D02*
X163438095Y-116833390D01*
X163438095Y-116833390D02*
X162866667Y-117404819D01*
X162866667Y-117404819D02*
X163485714Y-117404819D01*
X132334166Y-119454819D02*
X132334166Y-120169104D01*
X132334166Y-120169104D02*
X132286547Y-120311961D01*
X132286547Y-120311961D02*
X132191309Y-120407200D01*
X132191309Y-120407200D02*
X132048452Y-120454819D01*
X132048452Y-120454819D02*
X131953214Y-120454819D01*
X132715119Y-119454819D02*
X133381785Y-119454819D01*
X133381785Y-119454819D02*
X132953214Y-120454819D01*
X176033333Y-111339866D02*
X176033333Y-112339866D01*
X176033333Y-112339866D02*
X175966666Y-112539866D01*
X175966666Y-112539866D02*
X175833333Y-112673200D01*
X175833333Y-112673200D02*
X175633333Y-112739866D01*
X175633333Y-112739866D02*
X175500000Y-112739866D01*
X177366667Y-111339866D02*
X176700000Y-111339866D01*
X176700000Y-111339866D02*
X176633333Y-112006533D01*
X176633333Y-112006533D02*
X176700000Y-111939866D01*
X176700000Y-111939866D02*
X176833333Y-111873200D01*
X176833333Y-111873200D02*
X177166667Y-111873200D01*
X177166667Y-111873200D02*
X177300000Y-111939866D01*
X177300000Y-111939866D02*
X177366667Y-112006533D01*
X177366667Y-112006533D02*
X177433333Y-112139866D01*
X177433333Y-112139866D02*
X177433333Y-112473200D01*
X177433333Y-112473200D02*
X177366667Y-112606533D01*
X177366667Y-112606533D02*
X177300000Y-112673200D01*
X177300000Y-112673200D02*
X177166667Y-112739866D01*
X177166667Y-112739866D02*
X176833333Y-112739866D01*
X176833333Y-112739866D02*
X176700000Y-112673200D01*
X176700000Y-112673200D02*
X176633333Y-112606533D01*
X161600000Y-106986128D02*
X161600000Y-108057557D01*
X161600000Y-108057557D02*
X161528571Y-108271842D01*
X161528571Y-108271842D02*
X161385714Y-108414700D01*
X161385714Y-108414700D02*
X161171428Y-108486128D01*
X161171428Y-108486128D02*
X161028571Y-108486128D01*
X162957143Y-107486128D02*
X162957143Y-108486128D01*
X162600000Y-106914700D02*
X162242857Y-107986128D01*
X162242857Y-107986128D02*
X163171428Y-107986128D01*
X168918214Y-101234819D02*
X168346786Y-101234819D01*
X168632500Y-101234819D02*
X168632500Y-100234819D01*
X168632500Y-100234819D02*
X168537262Y-100377676D01*
X168537262Y-100377676D02*
X168442024Y-100472914D01*
X168442024Y-100472914D02*
X168346786Y-100520533D01*
X155142023Y-82534819D02*
X154570595Y-82534819D01*
X154856309Y-82534819D02*
X154856309Y-81534819D01*
X154856309Y-81534819D02*
X154761071Y-81677676D01*
X154761071Y-81677676D02*
X154665833Y-81772914D01*
X154665833Y-81772914D02*
X154570595Y-81820533D01*
X155999166Y-81534819D02*
X155808690Y-81534819D01*
X155808690Y-81534819D02*
X155713452Y-81582438D01*
X155713452Y-81582438D02*
X155665833Y-81630057D01*
X155665833Y-81630057D02*
X155570595Y-81772914D01*
X155570595Y-81772914D02*
X155522976Y-81963390D01*
X155522976Y-81963390D02*
X155522976Y-82344342D01*
X155522976Y-82344342D02*
X155570595Y-82439580D01*
X155570595Y-82439580D02*
X155618214Y-82487200D01*
X155618214Y-82487200D02*
X155713452Y-82534819D01*
X155713452Y-82534819D02*
X155903928Y-82534819D01*
X155903928Y-82534819D02*
X155999166Y-82487200D01*
X155999166Y-82487200D02*
X156046785Y-82439580D01*
X156046785Y-82439580D02*
X156094404Y-82344342D01*
X156094404Y-82344342D02*
X156094404Y-82106247D01*
X156094404Y-82106247D02*
X156046785Y-82011009D01*
X156046785Y-82011009D02*
X155999166Y-81963390D01*
X155999166Y-81963390D02*
X155903928Y-81915771D01*
X155903928Y-81915771D02*
X155713452Y-81915771D01*
X155713452Y-81915771D02*
X155618214Y-81963390D01*
X155618214Y-81963390D02*
X155570595Y-82011009D01*
X155570595Y-82011009D02*
X155522976Y-82106247D01*
X154946786Y-100530057D02*
X154994405Y-100482438D01*
X154994405Y-100482438D02*
X155089643Y-100434819D01*
X155089643Y-100434819D02*
X155327738Y-100434819D01*
X155327738Y-100434819D02*
X155422976Y-100482438D01*
X155422976Y-100482438D02*
X155470595Y-100530057D01*
X155470595Y-100530057D02*
X155518214Y-100625295D01*
X155518214Y-100625295D02*
X155518214Y-100720533D01*
X155518214Y-100720533D02*
X155470595Y-100863390D01*
X155470595Y-100863390D02*
X154899167Y-101434819D01*
X154899167Y-101434819D02*
X155518214Y-101434819D01*
X168542023Y-82634819D02*
X167970595Y-82634819D01*
X168256309Y-82634819D02*
X168256309Y-81634819D01*
X168256309Y-81634819D02*
X168161071Y-81777676D01*
X168161071Y-81777676D02*
X168065833Y-81872914D01*
X168065833Y-81872914D02*
X167970595Y-81920533D01*
X169446785Y-81634819D02*
X168970595Y-81634819D01*
X168970595Y-81634819D02*
X168922976Y-82111009D01*
X168922976Y-82111009D02*
X168970595Y-82063390D01*
X168970595Y-82063390D02*
X169065833Y-82015771D01*
X169065833Y-82015771D02*
X169303928Y-82015771D01*
X169303928Y-82015771D02*
X169399166Y-82063390D01*
X169399166Y-82063390D02*
X169446785Y-82111009D01*
X169446785Y-82111009D02*
X169494404Y-82206247D01*
X169494404Y-82206247D02*
X169494404Y-82444342D01*
X169494404Y-82444342D02*
X169446785Y-82539580D01*
X169446785Y-82539580D02*
X169399166Y-82587200D01*
X169399166Y-82587200D02*
X169303928Y-82634819D01*
X169303928Y-82634819D02*
X169065833Y-82634819D01*
X169065833Y-82634819D02*
X168970595Y-82587200D01*
X168970595Y-82587200D02*
X168922976Y-82539580D01*
X151204819Y-97538094D02*
X150204819Y-97538094D01*
X150204819Y-97538094D02*
X150204819Y-97299999D01*
X150204819Y-97299999D02*
X150252438Y-97157142D01*
X150252438Y-97157142D02*
X150347676Y-97061904D01*
X150347676Y-97061904D02*
X150442914Y-97014285D01*
X150442914Y-97014285D02*
X150633390Y-96966666D01*
X150633390Y-96966666D02*
X150776247Y-96966666D01*
X150776247Y-96966666D02*
X150966723Y-97014285D01*
X150966723Y-97014285D02*
X151061961Y-97061904D01*
X151061961Y-97061904D02*
X151157200Y-97157142D01*
X151157200Y-97157142D02*
X151204819Y-97299999D01*
X151204819Y-97299999D02*
X151204819Y-97538094D01*
X150300057Y-96585713D02*
X150252438Y-96538094D01*
X150252438Y-96538094D02*
X150204819Y-96442856D01*
X150204819Y-96442856D02*
X150204819Y-96204761D01*
X150204819Y-96204761D02*
X150252438Y-96109523D01*
X150252438Y-96109523D02*
X150300057Y-96061904D01*
X150300057Y-96061904D02*
X150395295Y-96014285D01*
X150395295Y-96014285D02*
X150490533Y-96014285D01*
X150490533Y-96014285D02*
X150633390Y-96061904D01*
X150633390Y-96061904D02*
X151204819Y-96633332D01*
X151204819Y-96633332D02*
X151204819Y-96014285D01*
X219538095Y-93994819D02*
X219538095Y-94804342D01*
X219538095Y-94804342D02*
X219585714Y-94899580D01*
X219585714Y-94899580D02*
X219633333Y-94947200D01*
X219633333Y-94947200D02*
X219728571Y-94994819D01*
X219728571Y-94994819D02*
X219919047Y-94994819D01*
X219919047Y-94994819D02*
X220014285Y-94947200D01*
X220014285Y-94947200D02*
X220061904Y-94899580D01*
X220061904Y-94899580D02*
X220109523Y-94804342D01*
X220109523Y-94804342D02*
X220109523Y-93994819D01*
X221109523Y-94994819D02*
X220538095Y-94994819D01*
X220823809Y-94994819D02*
X220823809Y-93994819D01*
X220823809Y-93994819D02*
X220728571Y-94137676D01*
X220728571Y-94137676D02*
X220633333Y-94232914D01*
X220633333Y-94232914D02*
X220538095Y-94280533D01*
X203081009Y-105133333D02*
X203081009Y-105466666D01*
X203604819Y-105466666D02*
X202604819Y-105466666D01*
X202604819Y-105466666D02*
X202604819Y-104990476D01*
X202700057Y-104657142D02*
X202652438Y-104609523D01*
X202652438Y-104609523D02*
X202604819Y-104514285D01*
X202604819Y-104514285D02*
X202604819Y-104276190D01*
X202604819Y-104276190D02*
X202652438Y-104180952D01*
X202652438Y-104180952D02*
X202700057Y-104133333D01*
X202700057Y-104133333D02*
X202795295Y-104085714D01*
X202795295Y-104085714D02*
X202890533Y-104085714D01*
X202890533Y-104085714D02*
X203033390Y-104133333D01*
X203033390Y-104133333D02*
X203604819Y-104704761D01*
X203604819Y-104704761D02*
X203604819Y-104085714D01*
D16*
%TO.C,J8*%
X136267500Y-119000000D02*
X136267500Y-127500000D01*
X136267500Y-127500000D02*
X146267500Y-127500000D01*
X146267500Y-119000000D02*
X136267500Y-119000000D01*
X146267500Y-127500000D02*
X146267500Y-119000000D01*
D11*
X135257500Y-125300000D02*
G75*
G02*
X135057500Y-125300000I-100000J0D01*
G01*
X135057500Y-125300000D02*
G75*
G02*
X135257500Y-125300000I100000J0D01*
G01*
D17*
%TO.C,D3*%
X182790000Y-78385000D02*
X184710000Y-78385000D01*
X184710000Y-78385000D02*
X184710000Y-75525000D01*
X182790000Y-75525000D02*
X182790000Y-78385000D01*
%TO.C,D1*%
X143710000Y-94915000D02*
X141790000Y-94915000D01*
X141790000Y-94915000D02*
X141790000Y-97775000D01*
X143710000Y-97775000D02*
X143710000Y-94915000D01*
%TO.C,R1*%
X179727064Y-76235000D02*
X179272936Y-76235000D01*
X179727064Y-74765000D02*
X179272936Y-74765000D01*
D16*
%TO.C,F1*%
X179145000Y-95450000D02*
X185875000Y-95450000D01*
X179145000Y-111450000D02*
X179145000Y-95450000D01*
X185875000Y-95450000D02*
X185875000Y-111450000D01*
X185875000Y-111450000D02*
X179145000Y-111450000D01*
%TO.C,J6*%
X176500000Y-83000000D02*
X176500000Y-93500000D01*
X176500000Y-83000000D02*
X185500000Y-83000000D01*
X185500000Y-83000000D02*
X185500000Y-93500000D01*
X185500000Y-93500000D02*
X176500000Y-93500000D01*
D11*
X181100000Y-94150000D02*
G75*
G02*
X180900000Y-94150000I-100000J0D01*
G01*
X180900000Y-94150000D02*
G75*
G02*
X181100000Y-94150000I100000J0D01*
G01*
%TO.C,J2*%
X146023500Y-70335000D02*
X148436500Y-70335000D01*
X146023500Y-108945000D02*
X146023500Y-70335000D01*
X148436500Y-108945000D02*
X146023500Y-108945000D01*
X148436500Y-108945000D02*
X148436500Y-70335000D01*
X147330000Y-69685000D02*
G75*
G02*
X147130000Y-69685000I-100000J0D01*
G01*
X147130000Y-69685000D02*
G75*
G02*
X147330000Y-69685000I100000J0D01*
G01*
%TO.C,J1*%
X120623500Y-70335000D02*
X123036500Y-70335000D01*
X120623500Y-108945000D02*
X120623500Y-70335000D01*
X123036500Y-108945000D02*
X120623500Y-108945000D01*
X123036500Y-108945000D02*
X123036500Y-70335000D01*
X121930000Y-69685000D02*
G75*
G02*
X121730000Y-69685000I-100000J0D01*
G01*
X121730000Y-69685000D02*
G75*
G02*
X121930000Y-69685000I100000J0D01*
G01*
D17*
%TO.C,C2*%
X151190000Y-122750000D02*
X153130000Y-122750000D01*
X153130000Y-126870000D02*
X153130000Y-118630000D01*
X167770000Y-118630000D02*
X153130000Y-118630000D01*
X167770000Y-126870000D02*
X153130000Y-126870000D01*
X168670000Y-119530000D02*
X167770000Y-118630000D01*
X168670000Y-125970000D02*
X167770000Y-126870000D01*
X169570000Y-118630000D02*
X168670000Y-119530000D01*
X169570000Y-126870000D02*
X168670000Y-125970000D01*
X171370000Y-118630000D02*
X169570000Y-118630000D01*
X171370000Y-126870000D02*
X169570000Y-126870000D01*
X171370000Y-126870000D02*
X171370000Y-118630000D01*
X172570000Y-126250000D02*
X172570000Y-124450000D01*
X173310000Y-122750000D02*
X171370000Y-122750000D01*
X173470000Y-125350000D02*
X171670000Y-125350000D01*
D11*
%TO.C,J7*%
X120007500Y-125300000D02*
G75*
G02*
X119807500Y-125300000I-100000J0D01*
G01*
X119807500Y-125300000D02*
G75*
G02*
X120007500Y-125300000I100000J0D01*
G01*
D16*
X131017500Y-127500000D02*
X131017500Y-119000000D01*
X131017500Y-119000000D02*
X121017500Y-119000000D01*
X121017500Y-127500000D02*
X131017500Y-127500000D01*
X121017500Y-119000000D02*
X121017500Y-127500000D01*
%TO.C,J5*%
X178450000Y-112467500D02*
X178450000Y-126657500D01*
X178450000Y-126657500D02*
X187450000Y-126657500D01*
X180730000Y-112467500D02*
X178450000Y-112467500D01*
X185170000Y-112467500D02*
X187450000Y-112467500D01*
X187450000Y-112467500D02*
X187450000Y-113697500D01*
X187450000Y-126657500D02*
X187450000Y-118137500D01*
D11*
X183050000Y-111767500D02*
G75*
G02*
X182850000Y-111767500I-100000J0D01*
G01*
X182850000Y-111767500D02*
G75*
G02*
X183050000Y-111767500I100000J0D01*
G01*
%TO.C,J4*%
X156954020Y-76680000D02*
X156954020Y-105520000D01*
X156954020Y-105520000D02*
X167126000Y-105520000D01*
X167126000Y-76680000D02*
X156954020Y-76680000D01*
X167126000Y-105520000D02*
X167126000Y-76680000D01*
D17*
%TO.C,D2*%
X151710000Y-98115000D02*
X149790000Y-98115000D01*
X149790000Y-98115000D02*
X149790000Y-100975000D01*
X151710000Y-100975000D02*
X151710000Y-98115000D01*
D16*
%TO.C,U1*%
X205770000Y-69230000D02*
X216839000Y-69230000D01*
X205770000Y-69230000D02*
X234280000Y-69230000D01*
X205770000Y-120180000D02*
X205770000Y-69230000D01*
X205770000Y-120180000D02*
X205770000Y-69230000D01*
X205770000Y-120180000D02*
X211140000Y-120180000D01*
X211140000Y-120180000D02*
X228830000Y-120180000D01*
X216839000Y-69230000D02*
X223550000Y-69230000D01*
X223550000Y-69230000D02*
X234280000Y-69230000D01*
X228830000Y-120180000D02*
X234280000Y-120180000D01*
X234280000Y-69230000D02*
X234280000Y-120180000D01*
X234280000Y-69230000D02*
X234280000Y-120180000D01*
X234280000Y-120180000D02*
X205770000Y-120180000D01*
D11*
X205300000Y-79190000D02*
G75*
G02*
X205100000Y-79190000I-100000J0D01*
G01*
X205100000Y-79190000D02*
G75*
G02*
X205300000Y-79190000I100000J0D01*
G01*
D17*
%TO.C,F2*%
X198000000Y-106350000D02*
X198000000Y-103150000D01*
X200000000Y-105500000D02*
X200000000Y-103900000D01*
X202000000Y-103150000D02*
X202000000Y-106350000D01*
%TD*%
M02*
