%TF.GenerationSoftware,KiCad,Pcbnew,9.0.0*%
%TF.CreationDate,2025-04-30T00:07:22-04:00*%
%TF.ProjectId,W4MLB_Band_Display,57344d4c-425f-4426-916e-645f44697370,1.0*%
%TF.SameCoordinates,Original*%
%TF.FileFunction,Copper,L2,Bot*%
%TF.FilePolarity,Positive*%
%FSLAX46Y46*%
G04 Gerber Fmt 4.6, Leading zero omitted, Abs format (unit mm)*
G04 Created by KiCad (PCBNEW 9.0.0) date 2025-04-30 00:07:22*
%MOMM*%
%LPD*%
G01*
G04 APERTURE LIST*
%TA.AperFunction,ComponentPad*%
%ADD10C,2.336800*%
%TD*%
%TA.AperFunction,ComponentPad*%
%ADD11R,2.000000X2.000000*%
%TD*%
%TA.AperFunction,ComponentPad*%
%ADD12C,2.000000*%
%TD*%
%TA.AperFunction,ComponentPad*%
%ADD13O,4.000000X2.000000*%
%TD*%
%TA.AperFunction,ComponentPad*%
%ADD14O,1.800000X3.600000*%
%TD*%
%TA.AperFunction,ComponentPad*%
%ADD15R,1.390000X1.390000*%
%TD*%
%TA.AperFunction,ComponentPad*%
%ADD16C,1.390000*%
%TD*%
%TA.AperFunction,ComponentPad*%
%ADD17C,1.620010*%
%TD*%
%TA.AperFunction,ComponentPad*%
%ADD18O,3.800000X1.900000*%
%TD*%
%TA.AperFunction,ComponentPad*%
%ADD19O,1.900000X3.800000*%
%TD*%
%TA.AperFunction,ComponentPad*%
%ADD20R,1.700000X1.700000*%
%TD*%
%TA.AperFunction,ComponentPad*%
%ADD21O,1.700000X1.700000*%
%TD*%
%TA.AperFunction,ComponentPad*%
%ADD22R,1.370000X1.370000*%
%TD*%
%TA.AperFunction,ComponentPad*%
%ADD23C,1.370000*%
%TD*%
%TA.AperFunction,ViaPad*%
%ADD24C,0.600000*%
%TD*%
%TA.AperFunction,Conductor*%
%ADD25C,0.200000*%
%TD*%
%TA.AperFunction,Conductor*%
%ADD26C,0.254000*%
%TD*%
%TA.AperFunction,Conductor*%
%ADD27C,0.600000*%
%TD*%
G04 APERTURE END LIST*
D10*
%TO.P,J7,1,1*%
%TO.N,+5V*%
X177186000Y-96305000D03*
%TO.P,J7,2,2*%
%TO.N,GND*%
X177186000Y-88050000D03*
%TD*%
D11*
%TO.P,BZ1,1,+*%
%TO.N,+5V*%
X186500000Y-74250000D03*
D12*
%TO.P,BZ1,2,-*%
%TO.N,Net-(BZ1--)*%
X178900000Y-74250000D03*
%TD*%
D13*
%TO.P,J6,1*%
%TO.N,GND*%
X141267500Y-125000000D03*
D14*
%TO.P,J6,2*%
%TO.N,GPIO35*%
X137517500Y-121300000D03*
%TO.P,J6,3*%
%TO.N,GND*%
X145017500Y-121300000D03*
%TD*%
D15*
%TO.P,J2,01,01*%
%TO.N,GPIO23*%
X147230000Y-71860000D03*
D16*
%TO.P,J2,02,02*%
%TO.N,GPIO22*%
X147230000Y-74400000D03*
%TO.P,J2,03,03*%
%TO.N,GPIO1*%
X147230000Y-76940000D03*
%TO.P,J2,04,04*%
%TO.N,GPIO3*%
X147230000Y-79480000D03*
%TO.P,J2,05,05*%
%TO.N,GPIO21*%
X147230000Y-82020000D03*
%TO.P,J2,06,06*%
%TO.N,GPIO19*%
X147230000Y-84560000D03*
%TO.P,J2,07,07*%
%TO.N,GPIO18*%
X147230000Y-87100000D03*
%TO.P,J2,08,08*%
%TO.N,GPIO5*%
X147230000Y-89640000D03*
%TO.P,J2,09,09*%
%TO.N,GPIO17*%
X147230000Y-92180000D03*
%TO.P,J2,10,10*%
%TO.N,GPIO16*%
X147230000Y-94720000D03*
%TO.P,J2,11,11*%
%TO.N,GPIO4*%
X147230000Y-97260000D03*
%TO.P,J2,12,12*%
%TO.N,GPIO2*%
X147230000Y-99800000D03*
%TO.P,J2,13,13*%
%TO.N,GPIO15*%
X147230000Y-102340000D03*
%TO.P,J2,14,14*%
%TO.N,GND*%
X147230000Y-104880000D03*
%TO.P,J2,15,15*%
%TO.N,/+3.3VDC*%
X147230000Y-107420000D03*
%TD*%
D17*
%TO.P,J4,1,1*%
%TO.N,GPIO32*%
X163500000Y-99990000D03*
%TO.P,J4,2,2*%
%TO.N,GPIO18*%
X160960000Y-99990000D03*
%TO.P,J4,3,3*%
%TO.N,GPIO33*%
X163500000Y-97450000D03*
%TO.P,J4,4,4*%
%TO.N,GND*%
X160960000Y-97450000D03*
%TO.P,J4,5,5*%
%TO.N,GPIO25*%
X163500000Y-94910000D03*
%TO.P,J4,6,6*%
%TO.N,GPIO5*%
X160960000Y-94910000D03*
%TO.P,J4,7,7*%
%TO.N,GPIO26*%
X163500000Y-92370000D03*
%TO.P,J4,8,8*%
%TO.N,GPIO17*%
X160960000Y-92370000D03*
%TO.P,J4,9,9*%
%TO.N,GPIO27*%
X163500000Y-89830000D03*
%TO.P,J4,10,10*%
%TO.N,GPIO16*%
X160960000Y-89830000D03*
%TO.P,J4,11,11*%
%TO.N,GPIO14*%
X163500000Y-87290000D03*
%TO.P,J4,12,12*%
%TO.N,GPIO4*%
X160960000Y-87290000D03*
%TO.P,J4,13,13*%
%TO.N,GPIO12*%
X163500000Y-84750000D03*
%TO.P,J4,14,14*%
%TO.N,GPIO15*%
X160960000Y-84750000D03*
%TO.P,J4,15,15*%
%TO.N,GPIO13*%
X163500000Y-82210000D03*
%TO.P,J4,16,16*%
%TO.N,GND*%
X160960000Y-82210000D03*
%TD*%
D18*
%TO.P,J8,1*%
%TO.N,/PWR IN*%
X182950000Y-113237500D03*
%TO.P,J8,2*%
%TO.N,GND*%
X182950000Y-119167500D03*
D19*
%TO.P,J8,3*%
X187600000Y-115917500D03*
%TD*%
D20*
%TO.P,J9,1,Pin_1*%
%TO.N,GPIO36*%
X152500000Y-66500000D03*
D21*
%TO.P,J9,2,Pin_2*%
%TO.N,GPIO39*%
X155040000Y-66500000D03*
%TO.P,J9,3,Pin_3*%
%TO.N,GPIO21*%
X157580000Y-66500000D03*
%TO.P,J9,4,Pin_4*%
%TO.N,GPIO22*%
X160120000Y-66500000D03*
%TO.P,J9,5,Pin_5*%
%TO.N,GPIO1*%
X162660000Y-66500000D03*
%TO.P,J9,6,Pin_6*%
%TO.N,GPIO3*%
X165200000Y-66500000D03*
%TO.P,J9,7,Pin_7*%
%TO.N,GND*%
X167740000Y-66500000D03*
%TO.P,J9,8,Pin_8*%
%TO.N,/+3.3VDC*%
X170280000Y-66500000D03*
%TO.P,J9,9,Pin_9*%
%TO.N,+5V*%
X172820000Y-66500000D03*
%TD*%
D13*
%TO.P,J5,1*%
%TO.N,GND*%
X126017500Y-125000000D03*
D14*
%TO.P,J5,2*%
%TO.N,GPIO34*%
X122267500Y-121300000D03*
%TO.P,J5,3*%
%TO.N,GND*%
X129767500Y-121300000D03*
%TD*%
D11*
%TO.P,U1,1,3V3*%
%TO.N,unconnected-(U1-3V3-Pad1)*%
X-41750000Y-179690000D03*
D12*
%TO.P,U1,2,GND*%
%TO.N,unconnected-(U1-GND-Pad2)*%
X-41750000Y-182230000D03*
%TO.P,U1,3,D15*%
%TO.N,unconnected-(U1-D15-Pad3)*%
X-41750000Y-184770000D03*
%TO.P,U1,4,D2*%
%TO.N,unconnected-(U1-D2-Pad4)*%
X-41750000Y-187310000D03*
%TO.P,U1,5,D4*%
%TO.N,unconnected-(U1-D4-Pad5)*%
X-41750000Y-189850000D03*
%TO.P,U1,6,RX2*%
%TO.N,unconnected-(U1-RX2-Pad6)*%
X-41750000Y-192390000D03*
%TO.P,U1,7,TX2*%
%TO.N,unconnected-(U1-TX2-Pad7)*%
X-41750000Y-194930000D03*
%TO.P,U1,8,D5*%
%TO.N,unconnected-(U1-D5-Pad8)*%
X-41750000Y-197470000D03*
%TO.P,U1,9,D18*%
%TO.N,unconnected-(U1-D18-Pad9)*%
X-41750000Y-200010000D03*
%TO.P,U1,10,D19*%
%TO.N,unconnected-(U1-D19-Pad10)*%
X-41750000Y-202550000D03*
%TO.P,U1,11,D21*%
%TO.N,unconnected-(U1-D21-Pad11)*%
X-41750000Y-205090000D03*
%TO.P,U1,12,RX0*%
%TO.N,unconnected-(U1-RX0-Pad12)*%
X-41750000Y-207630000D03*
%TO.P,U1,13,TX0*%
%TO.N,unconnected-(U1-TX0-Pad13)*%
X-41750000Y-210170000D03*
%TO.P,U1,14,D22*%
%TO.N,unconnected-(U1-D22-Pad14)*%
X-41750000Y-212710000D03*
%TO.P,U1,15,D23*%
%TO.N,unconnected-(U1-D23-Pad15)*%
X-41750000Y-215250000D03*
%TO.P,U1,16,EN*%
%TO.N,unconnected-(U1-EN-Pad16)*%
X-16350000Y-215250000D03*
%TO.P,U1,17,VP*%
%TO.N,unconnected-(U1-VP-Pad17)*%
X-16350000Y-212710000D03*
%TO.P,U1,18,VN*%
%TO.N,unconnected-(U1-VN-Pad18)*%
X-16350000Y-210170000D03*
%TO.P,U1,19,D34*%
%TO.N,unconnected-(U1-D34-Pad19)*%
X-16350000Y-207630000D03*
%TO.P,U1,20,D35*%
%TO.N,unconnected-(U1-D35-Pad20)*%
X-16350000Y-205090000D03*
%TO.P,U1,21,D32*%
%TO.N,unconnected-(U1-D32-Pad21)*%
X-16350000Y-202550000D03*
%TO.P,U1,22,D33*%
%TO.N,unconnected-(U1-D33-Pad22)*%
X-16350000Y-200010000D03*
%TO.P,U1,23,D25*%
%TO.N,unconnected-(U1-D25-Pad23)*%
X-16350000Y-197470000D03*
%TO.P,U1,24,D26*%
%TO.N,unconnected-(U1-D26-Pad24)*%
X-16350000Y-194930000D03*
%TO.P,U1,25,D27*%
%TO.N,unconnected-(U1-D27-Pad25)*%
X-16350000Y-192390000D03*
%TO.P,U1,26,D14*%
%TO.N,unconnected-(U1-D14-Pad26)*%
X-16350000Y-189850000D03*
%TO.P,U1,27,D12*%
%TO.N,unconnected-(U1-D12-Pad27)*%
X-16350000Y-187310000D03*
%TO.P,U1,28,D13*%
%TO.N,unconnected-(U1-D13-Pad28)*%
X-16350000Y-184770000D03*
%TO.P,U1,29,GND__1*%
%TO.N,unconnected-(U1-GND__1-Pad29)*%
X-16350000Y-182230000D03*
%TO.P,U1,30,VIN*%
%TO.N,unconnected-(U1-VIN-Pad30)*%
X-16350000Y-179690000D03*
%TD*%
D11*
%TO.P,C2,1*%
%TO.N,+5V*%
X174750000Y-121000000D03*
D12*
%TO.P,C2,2*%
%TO.N,GND*%
X169750000Y-121000000D03*
%TD*%
D15*
%TO.P,J1,01,01*%
%TO.N,unconnected-(J1-Pad01)*%
X121830000Y-71860000D03*
D16*
%TO.P,J1,02,02*%
%TO.N,GPIO36*%
X121830000Y-74400000D03*
%TO.P,J1,03,03*%
%TO.N,GPIO39*%
X121830000Y-76940000D03*
%TO.P,J1,04,04*%
%TO.N,GPIO34*%
X121830000Y-79480000D03*
%TO.P,J1,05,05*%
%TO.N,GPIO35*%
X121830000Y-82020000D03*
%TO.P,J1,06,06*%
%TO.N,GPIO32*%
X121830000Y-84560000D03*
%TO.P,J1,07,07*%
%TO.N,GPIO33*%
X121830000Y-87100000D03*
%TO.P,J1,08,08*%
%TO.N,GPIO25*%
X121830000Y-89640000D03*
%TO.P,J1,09,09*%
%TO.N,GPIO26*%
X121830000Y-92180000D03*
%TO.P,J1,10,10*%
%TO.N,GPIO27*%
X121830000Y-94720000D03*
%TO.P,J1,11,11*%
%TO.N,GPIO14*%
X121830000Y-97260000D03*
%TO.P,J1,12,12*%
%TO.N,GPIO12*%
X121830000Y-99800000D03*
%TO.P,J1,13,13*%
%TO.N,GPIO13*%
X121830000Y-102340000D03*
%TO.P,J1,14,14*%
%TO.N,GND*%
X121830000Y-104880000D03*
%TO.P,J1,15,15*%
%TO.N,+5V*%
X121830000Y-107420000D03*
%TD*%
D22*
%TO.P,J3,01,01*%
%TO.N,GPIO32*%
X133010000Y-80802500D03*
D23*
%TO.P,J3,02,02*%
%TO.N,GPIO18*%
X135550000Y-80802500D03*
%TO.P,J3,03,03*%
%TO.N,GPIO33*%
X133010000Y-83342500D03*
%TO.P,J3,04,04*%
%TO.N,GND*%
X135550000Y-83342500D03*
%TO.P,J3,05,05*%
%TO.N,GPIO25*%
X133010000Y-85882500D03*
%TO.P,J3,06,06*%
%TO.N,GPIO5*%
X135550000Y-85882500D03*
%TO.P,J3,07,07*%
%TO.N,GPIO26*%
X133010000Y-88422500D03*
%TO.P,J3,08,08*%
%TO.N,GPIO17*%
X135550000Y-88422500D03*
%TO.P,J3,09,09*%
%TO.N,GPIO27*%
X133010000Y-90962500D03*
%TO.P,J3,10,10*%
%TO.N,GPIO16*%
X135550000Y-90962500D03*
%TO.P,J3,11,11*%
%TO.N,GPIO14*%
X133010000Y-93502500D03*
%TO.P,J3,12,12*%
%TO.N,GPIO4*%
X135550000Y-93502500D03*
%TO.P,J3,13,13*%
%TO.N,GPIO12*%
X133010000Y-96042500D03*
%TO.P,J3,14,14*%
%TO.N,GPIO15*%
X135550000Y-96042500D03*
%TO.P,J3,15,15*%
%TO.N,GPIO13*%
X133010000Y-98582500D03*
%TO.P,J3,16,16*%
%TO.N,GND*%
X135550000Y-98582500D03*
%TD*%
D24*
%TO.N,GND*%
X127980000Y-82000000D03*
X174125000Y-81000000D03*
X172400000Y-77050000D03*
X128000000Y-79450000D03*
X178750000Y-108490000D03*
%TO.N,GPIO32*%
X131200000Y-80802500D03*
%TO.N,GPIO16*%
X152250000Y-94750000D03*
%TO.N,GPIO17*%
X154100000Y-92370000D03*
%TO.N,GPIO13*%
X124200000Y-102362500D03*
%TO.N,GPIO33*%
X130200000Y-83882500D03*
%TO.N,GPIO25*%
X129200000Y-86962500D03*
%TO.N,GPIO27*%
X127200000Y-93122500D03*
%TO.N,GPIO26*%
X128200000Y-90042500D03*
%TO.N,GPIO2*%
X163550000Y-73350000D03*
%TO.N,GPIO14*%
X126200000Y-96202500D03*
%TO.N,GPIO12*%
X125200000Y-99282500D03*
%TO.N,GPIO5*%
X155500000Y-94900000D03*
%TO.N,GPIO15*%
X151400000Y-96750000D03*
%TD*%
D25*
%TO.N,GPIO35*%
X134800000Y-121300000D02*
X137517500Y-121300000D01*
X131400000Y-117900000D02*
X134800000Y-121300000D01*
X120050000Y-83800000D02*
X120050000Y-114700000D01*
X120050000Y-114700000D02*
X123250000Y-117900000D01*
X121830000Y-82020000D02*
X120050000Y-83800000D01*
X123250000Y-117900000D02*
X131400000Y-117900000D01*
%TO.N,GND*%
X181960000Y-102250000D02*
X182000000Y-102290000D01*
D26*
%TO.N,GPIO32*%
X161200000Y-109050000D02*
X163500000Y-106750000D01*
X137150000Y-109050000D02*
X161200000Y-109050000D01*
X131220000Y-80802500D02*
X131220000Y-103120000D01*
X163500000Y-106750000D02*
X163500000Y-99990000D01*
X131220000Y-103120000D02*
X137150000Y-109050000D01*
D25*
%TO.N,GPIO16*%
X152250000Y-94750000D02*
X152220000Y-94720000D01*
X152220000Y-94720000D02*
X147230000Y-94720000D01*
%TO.N,GPIO17*%
X154100000Y-92250000D02*
X153300000Y-91450000D01*
X147960000Y-91450000D02*
X147230000Y-92180000D01*
X154100000Y-92370000D02*
X154100000Y-92250000D01*
X153300000Y-91450000D02*
X147960000Y-91450000D01*
%TO.N,GPIO4*%
X160900000Y-87350000D02*
X160960000Y-87290000D01*
%TO.N,GPIO13*%
X124140000Y-108290000D02*
X131950000Y-116100000D01*
X168060000Y-82210000D02*
X163500000Y-82210000D01*
X124140000Y-102340000D02*
X124140000Y-108290000D01*
X172150000Y-108600000D02*
X172150000Y-108590000D01*
X164650000Y-116100000D02*
X172150000Y-108600000D01*
X172150000Y-86300000D02*
X168060000Y-82210000D01*
X172150000Y-108590000D02*
X172150000Y-86300000D01*
X131950000Y-116100000D02*
X164650000Y-116100000D01*
%TO.N,GPIO33*%
X165550000Y-106350000D02*
X165550000Y-98750000D01*
X161950000Y-109950000D02*
X165550000Y-106350000D01*
X130200000Y-103650000D02*
X136500000Y-109950000D01*
X136500000Y-109950000D02*
X161950000Y-109950000D01*
X165550000Y-98750000D02*
X164250000Y-97450000D01*
X130200000Y-83882500D02*
X130200000Y-103650000D01*
X164250000Y-97450000D02*
X163500000Y-97450000D01*
%TO.N,GPIO25*%
X166600000Y-95750000D02*
X165750000Y-94900000D01*
X129200000Y-104400000D02*
X135750000Y-110950000D01*
X163510000Y-94900000D02*
X163500000Y-94910000D01*
X162450000Y-110950000D02*
X166600000Y-106800000D01*
X135750000Y-110950000D02*
X162450000Y-110950000D01*
X129200000Y-86962500D02*
X129200000Y-104400000D01*
X166600000Y-106800000D02*
X166600000Y-95750000D01*
X165750000Y-94900000D02*
X163510000Y-94900000D01*
%TO.N,GPIO27*%
X168550000Y-91100000D02*
X167280000Y-89830000D01*
X127200000Y-93122500D02*
X127200000Y-106050000D01*
X127200000Y-106050000D02*
X134150000Y-113000000D01*
X163250000Y-113000000D02*
X168550000Y-107700000D01*
X167280000Y-89830000D02*
X163500000Y-89830000D01*
X168550000Y-107700000D02*
X168550000Y-91100000D01*
X134150000Y-113000000D02*
X163250000Y-113000000D01*
%TO.N,GPIO26*%
X167450000Y-93650000D02*
X166170000Y-92370000D01*
X162700000Y-112000000D02*
X167450000Y-107250000D01*
X128200000Y-90042500D02*
X128200000Y-105250000D01*
X167450000Y-107250000D02*
X167450000Y-93650000D01*
X166170000Y-92370000D02*
X163500000Y-92370000D01*
X128200000Y-105250000D02*
X134950000Y-112000000D01*
X134950000Y-112000000D02*
X162700000Y-112000000D01*
%TO.N,GPIO2*%
X145700000Y-99800000D02*
X147230000Y-99800000D01*
X144400000Y-76650000D02*
X144400000Y-98500000D01*
X145400000Y-75650000D02*
X144400000Y-76650000D01*
X163550000Y-73350000D02*
X160950000Y-73350000D01*
X158650000Y-75650000D02*
X145400000Y-75650000D01*
X144400000Y-98500000D02*
X145700000Y-99800000D01*
X160950000Y-73350000D02*
X158650000Y-75650000D01*
%TO.N,GPIO14*%
X163550000Y-114050000D02*
X169650000Y-107950000D01*
X133400000Y-114050000D02*
X163550000Y-114050000D01*
X167140000Y-87290000D02*
X163500000Y-87290000D01*
X126200000Y-96202500D02*
X126200000Y-106850000D01*
X169650000Y-107950000D02*
X169650000Y-89800000D01*
X169650000Y-89800000D02*
X167140000Y-87290000D01*
X126200000Y-106850000D02*
X133400000Y-114050000D01*
%TO.N,GPIO1*%
X146690000Y-76940000D02*
X147230000Y-76940000D01*
%TO.N,GPIO12*%
X167800000Y-84750000D02*
X163500000Y-84750000D01*
X171050000Y-108050000D02*
X171050000Y-88000000D01*
X132550000Y-115050000D02*
X164050000Y-115050000D01*
X125200000Y-107700000D02*
X132550000Y-115050000D01*
X125200000Y-99282500D02*
X125200000Y-107700000D01*
X171050000Y-88000000D02*
X167800000Y-84750000D01*
X164050000Y-115050000D02*
X171050000Y-108050000D01*
%TO.N,GPIO5*%
X155500000Y-90900000D02*
X154240000Y-89640000D01*
X154240000Y-89640000D02*
X147230000Y-89640000D01*
X155500000Y-94900000D02*
X155500000Y-90900000D01*
%TO.N,GPIO15*%
X151400000Y-96750000D02*
X151400000Y-100400000D01*
X149440000Y-102340000D02*
X147230000Y-102340000D01*
X151400000Y-100400000D02*
X149450000Y-102350000D01*
X149450000Y-102350000D02*
X149440000Y-102340000D01*
D27*
%TO.N,/+3.3VDC*%
X152180000Y-107420000D02*
X158200000Y-101400000D01*
X164400000Y-77900000D02*
X170300000Y-72000000D01*
X160350000Y-77900000D02*
X164400000Y-77900000D01*
X147230000Y-107420000D02*
X152180000Y-107420000D01*
X158200000Y-101400000D02*
X158200000Y-80050000D01*
X158200000Y-80050000D02*
X160350000Y-77900000D01*
X170300000Y-72000000D02*
X170300000Y-66630000D01*
%TD*%
%TA.AperFunction,Conductor*%
%TO.N,GND*%
G36*
X188004418Y-64000816D02*
G01*
X188204561Y-64015130D01*
X188222063Y-64017647D01*
X188413797Y-64059355D01*
X188430755Y-64064334D01*
X188614609Y-64132909D01*
X188630701Y-64140259D01*
X188802904Y-64234288D01*
X188817784Y-64243849D01*
X188974867Y-64361441D01*
X188988237Y-64373027D01*
X189126972Y-64511762D01*
X189138558Y-64525132D01*
X189256146Y-64682210D01*
X189265711Y-64697095D01*
X189359740Y-64869298D01*
X189367090Y-64885390D01*
X189435662Y-65069236D01*
X189440646Y-65086212D01*
X189482351Y-65277931D01*
X189484869Y-65295442D01*
X189487274Y-65329060D01*
X189497346Y-65469890D01*
X189499184Y-65495580D01*
X189499500Y-65504427D01*
X189499500Y-125495572D01*
X189499184Y-125504418D01*
X189499184Y-125504419D01*
X189484869Y-125704557D01*
X189482351Y-125722068D01*
X189440646Y-125913787D01*
X189435662Y-125930763D01*
X189367090Y-126114609D01*
X189359740Y-126130701D01*
X189265711Y-126302904D01*
X189256146Y-126317789D01*
X189138558Y-126474867D01*
X189126972Y-126488237D01*
X188988237Y-126626972D01*
X188974867Y-126638558D01*
X188817789Y-126756146D01*
X188802904Y-126765711D01*
X188630701Y-126859740D01*
X188614609Y-126867090D01*
X188430763Y-126935662D01*
X188413787Y-126940646D01*
X188222068Y-126982351D01*
X188204557Y-126984869D01*
X188023779Y-126997799D01*
X188004417Y-126999184D01*
X187995572Y-126999500D01*
X121004428Y-126999500D01*
X120995582Y-126999184D01*
X120973622Y-126997613D01*
X120795442Y-126984869D01*
X120777931Y-126982351D01*
X120586212Y-126940646D01*
X120569236Y-126935662D01*
X120385390Y-126867090D01*
X120369298Y-126859740D01*
X120197095Y-126765711D01*
X120182210Y-126756146D01*
X120025132Y-126638558D01*
X120011762Y-126626972D01*
X119873027Y-126488237D01*
X119861441Y-126474867D01*
X119852606Y-126463065D01*
X119743849Y-126317784D01*
X119734288Y-126302904D01*
X119640259Y-126130701D01*
X119632909Y-126114609D01*
X119564334Y-125930755D01*
X119559355Y-125913797D01*
X119517647Y-125722063D01*
X119515130Y-125704556D01*
X119505921Y-125575802D01*
X119500816Y-125504418D01*
X119500500Y-125495572D01*
X119500500Y-124750000D01*
X123538398Y-124750000D01*
X124817499Y-124750000D01*
X124792479Y-124810402D01*
X124767500Y-124935981D01*
X124767500Y-125064019D01*
X124792479Y-125189598D01*
X124817499Y-125250000D01*
X123538398Y-125250000D01*
X123554434Y-125351247D01*
X123627397Y-125575802D01*
X123734585Y-125786171D01*
X123873366Y-125977186D01*
X124040313Y-126144133D01*
X124231328Y-126282914D01*
X124441697Y-126390102D01*
X124666252Y-126463065D01*
X124666251Y-126463065D01*
X124899448Y-126500000D01*
X125767500Y-126500000D01*
X125767500Y-125650000D01*
X126267500Y-125650000D01*
X126267500Y-126500000D01*
X127135552Y-126500000D01*
X127368747Y-126463065D01*
X127593302Y-126390102D01*
X127803671Y-126282914D01*
X127994686Y-126144133D01*
X128161633Y-125977186D01*
X128300414Y-125786171D01*
X128407602Y-125575802D01*
X128480565Y-125351247D01*
X128496602Y-125250000D01*
X127217501Y-125250000D01*
X127242521Y-125189598D01*
X127267500Y-125064019D01*
X127267500Y-124935981D01*
X127242521Y-124810402D01*
X127217501Y-124750000D01*
X128496602Y-124750000D01*
X138788398Y-124750000D01*
X140067499Y-124750000D01*
X140042479Y-124810402D01*
X140017500Y-124935981D01*
X140017500Y-125064019D01*
X140042479Y-125189598D01*
X140067499Y-125250000D01*
X138788398Y-125250000D01*
X138804434Y-125351247D01*
X138877397Y-125575802D01*
X138984585Y-125786171D01*
X139123366Y-125977186D01*
X139290313Y-126144133D01*
X139481328Y-126282914D01*
X139691697Y-126390102D01*
X139916252Y-126463065D01*
X139916251Y-126463065D01*
X140149448Y-126500000D01*
X141017500Y-126500000D01*
X141017500Y-125650000D01*
X141517500Y-125650000D01*
X141517500Y-126500000D01*
X142385552Y-126500000D01*
X142618747Y-126463065D01*
X142843302Y-126390102D01*
X143053671Y-126282914D01*
X143244686Y-126144133D01*
X143411633Y-125977186D01*
X143550414Y-125786171D01*
X143657602Y-125575802D01*
X143730565Y-125351247D01*
X143746602Y-125250000D01*
X142467501Y-125250000D01*
X142492521Y-125189598D01*
X142517500Y-125064019D01*
X142517500Y-124935981D01*
X142492521Y-124810402D01*
X142467501Y-124750000D01*
X143746602Y-124750000D01*
X143730565Y-124648752D01*
X143657602Y-124424197D01*
X143550414Y-124213828D01*
X143411633Y-124022813D01*
X143244686Y-123855866D01*
X143053671Y-123717085D01*
X142843302Y-123609897D01*
X142618747Y-123536934D01*
X142618748Y-123536934D01*
X142385552Y-123500000D01*
X141517500Y-123500000D01*
X141517500Y-124350000D01*
X141017500Y-124350000D01*
X141017500Y-123500000D01*
X140149448Y-123500000D01*
X139916252Y-123536934D01*
X139691697Y-123609897D01*
X139481328Y-123717085D01*
X139290313Y-123855866D01*
X139123366Y-124022813D01*
X138984585Y-124213828D01*
X138877397Y-124424197D01*
X138804434Y-124648752D01*
X138788398Y-124750000D01*
X128496602Y-124750000D01*
X128480565Y-124648752D01*
X128407602Y-124424197D01*
X128300414Y-124213828D01*
X128161633Y-124022813D01*
X127994686Y-123855866D01*
X127803671Y-123717085D01*
X127593302Y-123609897D01*
X127368747Y-123536934D01*
X127368748Y-123536934D01*
X127135552Y-123500000D01*
X126267500Y-123500000D01*
X126267500Y-124350000D01*
X125767500Y-124350000D01*
X125767500Y-123500000D01*
X124899448Y-123500000D01*
X124666252Y-123536934D01*
X124441697Y-123609897D01*
X124231328Y-123717085D01*
X124040313Y-123855866D01*
X123873366Y-124022813D01*
X123734585Y-124213828D01*
X123627397Y-124424197D01*
X123554434Y-124648752D01*
X123538398Y-124750000D01*
X119500500Y-124750000D01*
X119500500Y-120301577D01*
X121017000Y-120301577D01*
X121017000Y-122298422D01*
X121047790Y-122492826D01*
X121108617Y-122680029D01*
X121197976Y-122855405D01*
X121313672Y-123014646D01*
X121452854Y-123153828D01*
X121612095Y-123269524D01*
X121694955Y-123311743D01*
X121787470Y-123358882D01*
X121787472Y-123358882D01*
X121787475Y-123358884D01*
X121887817Y-123391487D01*
X121974673Y-123419709D01*
X122169078Y-123450500D01*
X122169083Y-123450500D01*
X122365922Y-123450500D01*
X122560326Y-123419709D01*
X122747525Y-123358884D01*
X122922905Y-123269524D01*
X123082146Y-123153828D01*
X123221328Y-123014646D01*
X123337024Y-122855405D01*
X123426384Y-122680025D01*
X123487209Y-122492826D01*
X123503479Y-122390102D01*
X123518000Y-122298422D01*
X123518000Y-120301578D01*
X123516137Y-120289818D01*
X128367500Y-120289818D01*
X128367500Y-121050000D01*
X129267500Y-121050000D01*
X129267500Y-121550000D01*
X128367500Y-121550000D01*
X128367500Y-122310181D01*
X128401973Y-122527835D01*
X128470067Y-122737410D01*
X128570113Y-122933760D01*
X128699642Y-123112041D01*
X128855458Y-123267857D01*
X129033739Y-123397386D01*
X129230089Y-123497432D01*
X129439663Y-123565526D01*
X129517499Y-123577854D01*
X129517500Y-123577854D01*
X129517500Y-122483012D01*
X129574507Y-122515925D01*
X129701674Y-122550000D01*
X129833326Y-122550000D01*
X129960493Y-122515925D01*
X130017500Y-122483012D01*
X130017500Y-123577854D01*
X130095334Y-123565526D01*
X130095337Y-123565526D01*
X130304910Y-123497432D01*
X130501260Y-123397386D01*
X130679541Y-123267857D01*
X130835357Y-123112041D01*
X130964886Y-122933760D01*
X131064932Y-122737410D01*
X131133026Y-122527835D01*
X131167500Y-122310181D01*
X131167500Y-121550000D01*
X130267500Y-121550000D01*
X130267500Y-121050000D01*
X131167500Y-121050000D01*
X131167500Y-120289818D01*
X131133026Y-120072164D01*
X131064932Y-119862589D01*
X130964886Y-119666239D01*
X130835357Y-119487958D01*
X130679541Y-119332142D01*
X130501260Y-119202613D01*
X130304910Y-119102567D01*
X130095336Y-119034473D01*
X130017500Y-119022144D01*
X130017500Y-120116988D01*
X129960493Y-120084075D01*
X129833326Y-120050000D01*
X129701674Y-120050000D01*
X129574507Y-120084075D01*
X129517500Y-120116988D01*
X129517500Y-119022144D01*
X129439664Y-119034473D01*
X129439661Y-119034473D01*
X129230089Y-119102567D01*
X129033739Y-119202613D01*
X128855458Y-119332142D01*
X128699642Y-119487958D01*
X128570113Y-119666239D01*
X128470067Y-119862589D01*
X128401973Y-120072164D01*
X128367500Y-120289818D01*
X123516137Y-120289818D01*
X123487209Y-120107173D01*
X123441579Y-119966740D01*
X123426384Y-119919975D01*
X123426382Y-119919972D01*
X123426382Y-119919970D01*
X123338985Y-119748444D01*
X123337024Y-119744595D01*
X123221328Y-119585354D01*
X123082146Y-119446172D01*
X122922905Y-119330476D01*
X122747529Y-119241117D01*
X122560326Y-119180290D01*
X122365922Y-119149500D01*
X122365917Y-119149500D01*
X122169083Y-119149500D01*
X122169078Y-119149500D01*
X121974673Y-119180290D01*
X121787470Y-119241117D01*
X121612094Y-119330476D01*
X121521241Y-119396485D01*
X121452854Y-119446172D01*
X121452852Y-119446174D01*
X121452851Y-119446174D01*
X121313674Y-119585351D01*
X121313674Y-119585352D01*
X121313672Y-119585354D01*
X121267067Y-119649500D01*
X121197976Y-119744594D01*
X121108617Y-119919970D01*
X121047790Y-120107173D01*
X121017000Y-120301577D01*
X119500500Y-120301577D01*
X119500500Y-115086965D01*
X119520185Y-115019926D01*
X119572989Y-114974171D01*
X119642147Y-114964227D01*
X119705703Y-114993252D01*
X119712181Y-114999284D01*
X122973386Y-118260489D01*
X122973387Y-118260490D01*
X122973389Y-118260491D01*
X123032693Y-118294729D01*
X123032696Y-118294732D01*
X123066937Y-118314500D01*
X123076114Y-118319799D01*
X123190691Y-118350500D01*
X131162035Y-118350500D01*
X131229074Y-118370185D01*
X131249716Y-118386819D01*
X134523386Y-121660489D01*
X134626113Y-121719799D01*
X134650321Y-121726284D01*
X134650324Y-121726286D01*
X134650325Y-121726286D01*
X134680447Y-121734357D01*
X134740691Y-121750500D01*
X136143000Y-121750500D01*
X136210039Y-121770185D01*
X136255794Y-121822989D01*
X136267000Y-121874500D01*
X136267000Y-122298422D01*
X136297790Y-122492826D01*
X136358617Y-122680029D01*
X136447976Y-122855405D01*
X136563672Y-123014646D01*
X136702854Y-123153828D01*
X136862095Y-123269524D01*
X136944955Y-123311743D01*
X137037470Y-123358882D01*
X137037472Y-123358882D01*
X137037475Y-123358884D01*
X137137817Y-123391487D01*
X137224673Y-123419709D01*
X137419078Y-123450500D01*
X137419083Y-123450500D01*
X137615922Y-123450500D01*
X137810326Y-123419709D01*
X137997525Y-123358884D01*
X138172905Y-123269524D01*
X138332146Y-123153828D01*
X138471328Y-123014646D01*
X138587024Y-122855405D01*
X138676384Y-122680025D01*
X138737209Y-122492826D01*
X138753479Y-122390102D01*
X138768000Y-122298422D01*
X138768000Y-120301578D01*
X138766137Y-120289818D01*
X143617500Y-120289818D01*
X143617500Y-121050000D01*
X144517500Y-121050000D01*
X144517500Y-121550000D01*
X143617500Y-121550000D01*
X143617500Y-122310181D01*
X143651973Y-122527835D01*
X143720067Y-122737410D01*
X143820113Y-122933760D01*
X143949642Y-123112041D01*
X144105458Y-123267857D01*
X144283739Y-123397386D01*
X144480089Y-123497432D01*
X144689663Y-123565526D01*
X144767499Y-123577854D01*
X144767500Y-123577854D01*
X144767500Y-122483012D01*
X144824507Y-122515925D01*
X144951674Y-122550000D01*
X145083326Y-122550000D01*
X145210493Y-122515925D01*
X145267500Y-122483012D01*
X145267500Y-123577854D01*
X145345334Y-123565526D01*
X145345337Y-123565526D01*
X145554910Y-123497432D01*
X145751260Y-123397386D01*
X145929541Y-123267857D01*
X146085357Y-123112041D01*
X146214886Y-122933760D01*
X146314932Y-122737410D01*
X146383026Y-122527835D01*
X146417500Y-122310181D01*
X146417500Y-121550000D01*
X145517500Y-121550000D01*
X145517500Y-121050000D01*
X146417500Y-121050000D01*
X146417500Y-120893713D01*
X161149500Y-120893713D01*
X161149500Y-121106287D01*
X161159534Y-121169644D01*
X161182753Y-121316239D01*
X161248444Y-121518414D01*
X161344951Y-121707820D01*
X161469890Y-121879786D01*
X161620213Y-122030109D01*
X161792179Y-122155048D01*
X161792181Y-122155049D01*
X161792184Y-122155051D01*
X161981588Y-122251557D01*
X162183757Y-122317246D01*
X162393713Y-122350500D01*
X162393714Y-122350500D01*
X162606286Y-122350500D01*
X162606287Y-122350500D01*
X162816243Y-122317246D01*
X163018412Y-122251557D01*
X163207816Y-122155051D01*
X163379792Y-122030104D01*
X163530104Y-121879792D01*
X163530106Y-121879788D01*
X163530109Y-121879786D01*
X163655048Y-121707820D01*
X163655047Y-121707820D01*
X163655051Y-121707816D01*
X163751557Y-121518412D01*
X163817246Y-121316243D01*
X163850500Y-121106287D01*
X163850500Y-120893713D01*
X163848636Y-120881947D01*
X168250000Y-120881947D01*
X168250000Y-121118052D01*
X168286934Y-121351247D01*
X168359897Y-121575802D01*
X168467087Y-121786174D01*
X168527338Y-121869104D01*
X168527340Y-121869105D01*
X169267037Y-121129408D01*
X169284075Y-121192993D01*
X169349901Y-121307007D01*
X169442993Y-121400099D01*
X169557007Y-121465925D01*
X169620590Y-121482962D01*
X168880893Y-122222658D01*
X168963828Y-122282914D01*
X169174197Y-122390102D01*
X169398752Y-122463065D01*
X169398751Y-122463065D01*
X169631948Y-122500000D01*
X169868052Y-122500000D01*
X170101247Y-122463065D01*
X170325802Y-122390102D01*
X170536163Y-122282918D01*
X170536169Y-122282914D01*
X170619104Y-122222658D01*
X170619105Y-122222658D01*
X169879408Y-121482962D01*
X169942993Y-121465925D01*
X170057007Y-121400099D01*
X170150099Y-121307007D01*
X170215925Y-121192993D01*
X170232962Y-121129409D01*
X170972658Y-121869105D01*
X170972658Y-121869104D01*
X171032914Y-121786169D01*
X171032918Y-121786163D01*
X171140102Y-121575802D01*
X171213065Y-121351247D01*
X171250000Y-121118052D01*
X171250000Y-120881947D01*
X171213065Y-120648752D01*
X171140102Y-120424197D01*
X171032914Y-120213828D01*
X170972658Y-120130894D01*
X170972658Y-120130893D01*
X170232962Y-120870590D01*
X170215925Y-120807007D01*
X170150099Y-120692993D01*
X170057007Y-120599901D01*
X169942993Y-120534075D01*
X169879409Y-120517037D01*
X170429707Y-119966739D01*
X173399500Y-119966739D01*
X173399500Y-122033260D01*
X173409426Y-122101391D01*
X173460803Y-122206485D01*
X173543514Y-122289196D01*
X173543515Y-122289196D01*
X173543517Y-122289198D01*
X173648607Y-122340573D01*
X173682673Y-122345536D01*
X173716739Y-122350500D01*
X173716740Y-122350500D01*
X175783261Y-122350500D01*
X175805971Y-122347191D01*
X175851393Y-122340573D01*
X175956483Y-122289198D01*
X176039198Y-122206483D01*
X176090573Y-122101393D01*
X176100500Y-122033260D01*
X176100500Y-119966740D01*
X176090573Y-119898607D01*
X176039198Y-119793517D01*
X176039196Y-119793515D01*
X176039196Y-119793514D01*
X175956485Y-119710803D01*
X175851391Y-119659426D01*
X175783261Y-119649500D01*
X175783260Y-119649500D01*
X173716740Y-119649500D01*
X173716739Y-119649500D01*
X173648608Y-119659426D01*
X173543514Y-119710803D01*
X173460803Y-119793514D01*
X173409426Y-119898608D01*
X173399500Y-119966739D01*
X170429707Y-119966739D01*
X170521874Y-119874572D01*
X170619105Y-119777340D01*
X170619104Y-119777338D01*
X170536174Y-119717087D01*
X170325802Y-119609897D01*
X170101247Y-119536934D01*
X170101248Y-119536934D01*
X169886425Y-119502910D01*
X169868052Y-119500000D01*
X169631948Y-119500000D01*
X169398752Y-119536934D01*
X169174197Y-119609897D01*
X168963830Y-119717084D01*
X168880894Y-119777340D01*
X169620591Y-120517037D01*
X169557007Y-120534075D01*
X169442993Y-120599901D01*
X169349901Y-120692993D01*
X169284075Y-120807007D01*
X169267037Y-120870591D01*
X168527340Y-120130894D01*
X168467084Y-120213830D01*
X168359897Y-120424197D01*
X168286934Y-120648752D01*
X168250000Y-120881947D01*
X163848636Y-120881947D01*
X163817246Y-120683757D01*
X163751557Y-120481588D01*
X163655051Y-120292184D01*
X163655049Y-120292181D01*
X163655048Y-120292179D01*
X163530109Y-120120213D01*
X163379790Y-119969894D01*
X163379785Y-119969890D01*
X163317908Y-119924933D01*
X163317885Y-119924918D01*
X163207815Y-119844948D01*
X163018414Y-119748444D01*
X163018413Y-119748443D01*
X163018412Y-119748443D01*
X162816243Y-119682754D01*
X162816241Y-119682753D01*
X162816240Y-119682753D01*
X162654957Y-119657208D01*
X162606287Y-119649500D01*
X162393713Y-119649500D01*
X162345042Y-119657208D01*
X162183760Y-119682753D01*
X161981585Y-119748444D01*
X161792179Y-119844951D01*
X161620213Y-119969890D01*
X161469890Y-120120213D01*
X161344951Y-120292179D01*
X161248444Y-120481585D01*
X161182753Y-120683760D01*
X161156503Y-120849500D01*
X161149500Y-120893713D01*
X146417500Y-120893713D01*
X146417500Y-120289818D01*
X146383026Y-120072164D01*
X146314932Y-119862589D01*
X146214886Y-119666239D01*
X146085357Y-119487958D01*
X145929541Y-119332142D01*
X145751260Y-119202613D01*
X145554910Y-119102567D01*
X145462353Y-119072494D01*
X145345336Y-119034473D01*
X145267500Y-119022144D01*
X145267500Y-120116988D01*
X145210493Y-120084075D01*
X145083326Y-120050000D01*
X144951674Y-120050000D01*
X144824507Y-120084075D01*
X144767500Y-120116988D01*
X144767500Y-119022144D01*
X144689664Y-119034473D01*
X144689661Y-119034473D01*
X144480089Y-119102567D01*
X144283739Y-119202613D01*
X144105458Y-119332142D01*
X143949642Y-119487958D01*
X143820113Y-119666239D01*
X143720067Y-119862589D01*
X143651973Y-120072164D01*
X143617500Y-120289818D01*
X138766137Y-120289818D01*
X138737209Y-120107173D01*
X138691579Y-119966740D01*
X138676384Y-119919975D01*
X138676382Y-119919972D01*
X138676382Y-119919970D01*
X138588985Y-119748444D01*
X138587024Y-119744595D01*
X138471328Y-119585354D01*
X138332146Y-119446172D01*
X138172905Y-119330476D01*
X137997529Y-119241117D01*
X137810326Y-119180290D01*
X137615922Y-119149500D01*
X137615917Y-119149500D01*
X137419083Y-119149500D01*
X137419078Y-119149500D01*
X137224673Y-119180290D01*
X137037470Y-119241117D01*
X136862094Y-119330476D01*
X136771241Y-119396485D01*
X136702854Y-119446172D01*
X136702852Y-119446174D01*
X136702851Y-119446174D01*
X136563674Y-119585351D01*
X136563674Y-119585352D01*
X136563672Y-119585354D01*
X136517067Y-119649500D01*
X136447976Y-119744594D01*
X136358617Y-119919970D01*
X136297790Y-120107173D01*
X136267000Y-120301577D01*
X136267000Y-120725500D01*
X136247315Y-120792539D01*
X136194511Y-120838294D01*
X136143000Y-120849500D01*
X135037965Y-120849500D01*
X134970926Y-120829815D01*
X134950284Y-120813181D01*
X133054603Y-118917500D01*
X180571522Y-118917500D01*
X181517599Y-118917500D01*
X181500924Y-118934175D01*
X181450896Y-119020825D01*
X181425000Y-119117472D01*
X181425000Y-119217528D01*
X181450896Y-119314175D01*
X181500924Y-119400825D01*
X181517599Y-119417500D01*
X180571522Y-119417500D01*
X180585704Y-119507044D01*
X180656230Y-119724104D01*
X180759849Y-119927466D01*
X180894004Y-120112114D01*
X181055385Y-120273495D01*
X181240033Y-120407650D01*
X181443395Y-120511269D01*
X181660455Y-120581795D01*
X181885884Y-120617500D01*
X182700000Y-120617500D01*
X182700000Y-119547500D01*
X183200000Y-119547500D01*
X183200000Y-120617500D01*
X184014116Y-120617500D01*
X184239544Y-120581795D01*
X184456604Y-120511269D01*
X184659966Y-120407650D01*
X184844614Y-120273495D01*
X185005995Y-120112114D01*
X185140150Y-119927466D01*
X185243769Y-119724104D01*
X185314295Y-119507044D01*
X185328478Y-119417500D01*
X184382401Y-119417500D01*
X184399076Y-119400825D01*
X184449104Y-119314175D01*
X184475000Y-119217528D01*
X184475000Y-119117472D01*
X184449104Y-119020825D01*
X184399076Y-118934175D01*
X184382401Y-118917500D01*
X185328478Y-118917500D01*
X185314295Y-118827955D01*
X185243769Y-118610895D01*
X185140150Y-118407533D01*
X185005995Y-118222885D01*
X184844614Y-118061504D01*
X184659966Y-117927349D01*
X184456604Y-117823730D01*
X184239544Y-117753204D01*
X184014116Y-117717500D01*
X183200000Y-117717500D01*
X183200000Y-118787500D01*
X182700000Y-118787500D01*
X182700000Y-117717500D01*
X181885884Y-117717500D01*
X181660455Y-117753204D01*
X181443395Y-117823730D01*
X181240033Y-117927349D01*
X181055385Y-118061504D01*
X180894004Y-118222885D01*
X180759849Y-118407533D01*
X180656230Y-118610895D01*
X180585704Y-118827955D01*
X180571522Y-118917500D01*
X133054603Y-118917500D01*
X131676616Y-117539513D01*
X131676614Y-117539511D01*
X131625250Y-117509856D01*
X131573888Y-117480201D01*
X131561780Y-117476957D01*
X131549673Y-117473713D01*
X131549670Y-117473712D01*
X131511478Y-117463478D01*
X131459309Y-117449500D01*
X131459308Y-117449500D01*
X123487965Y-117449500D01*
X123420926Y-117429815D01*
X123400284Y-117413181D01*
X120536819Y-114549716D01*
X120503334Y-114488393D01*
X120500500Y-114462035D01*
X120500500Y-113643713D01*
X122649500Y-113643713D01*
X122649500Y-113856286D01*
X122675886Y-114022885D01*
X122682754Y-114066243D01*
X122735790Y-114229471D01*
X122748444Y-114268414D01*
X122844951Y-114457820D01*
X122969890Y-114629786D01*
X123120213Y-114780109D01*
X123292179Y-114905048D01*
X123292181Y-114905049D01*
X123292184Y-114905051D01*
X123481588Y-115001557D01*
X123683757Y-115067246D01*
X123893713Y-115100500D01*
X123893714Y-115100500D01*
X124106286Y-115100500D01*
X124106287Y-115100500D01*
X124316243Y-115067246D01*
X124518412Y-115001557D01*
X124707816Y-114905051D01*
X124750710Y-114873887D01*
X124879786Y-114780109D01*
X124879788Y-114780106D01*
X124879792Y-114780104D01*
X125030104Y-114629792D01*
X125030106Y-114629788D01*
X125030109Y-114629786D01*
X125155048Y-114457820D01*
X125155047Y-114457820D01*
X125155051Y-114457816D01*
X125251557Y-114268412D01*
X125317246Y-114066243D01*
X125350500Y-113856287D01*
X125350500Y-113643713D01*
X125317246Y-113433757D01*
X125251557Y-113231588D01*
X125155051Y-113042184D01*
X125155049Y-113042181D01*
X125155048Y-113042179D01*
X125030109Y-112870213D01*
X124879786Y-112719890D01*
X124707820Y-112594951D01*
X124518414Y-112498444D01*
X124518413Y-112498443D01*
X124518412Y-112498443D01*
X124316243Y-112432754D01*
X124316241Y-112432753D01*
X124316240Y-112432753D01*
X124154957Y-112407208D01*
X124106287Y-112399500D01*
X123893713Y-112399500D01*
X123845042Y-112407208D01*
X123683760Y-112432753D01*
X123481585Y-112498444D01*
X123292179Y-112594951D01*
X123120213Y-112719890D01*
X122969890Y-112870213D01*
X122844951Y-113042179D01*
X122748444Y-113231585D01*
X122682753Y-113433760D01*
X122649500Y-113643713D01*
X120500500Y-113643713D01*
X120500500Y-107317022D01*
X120784500Y-107317022D01*
X120784500Y-107522977D01*
X120824676Y-107724953D01*
X120824678Y-107724961D01*
X120903490Y-107915232D01*
X121017903Y-108086463D01*
X121017909Y-108086471D01*
X121163528Y-108232090D01*
X121163536Y-108232096D01*
X121334767Y-108346509D01*
X121341527Y-108349309D01*
X121525039Y-108425322D01*
X121647671Y-108449715D01*
X121727022Y-108465499D01*
X121727025Y-108465500D01*
X121727027Y-108465500D01*
X121932975Y-108465500D01*
X121932976Y-108465499D01*
X122134961Y-108425322D01*
X122325230Y-108346510D01*
X122325230Y-108346509D01*
X122325232Y-108346509D01*
X122472284Y-108248252D01*
X122496468Y-108232093D01*
X122642093Y-108086468D01*
X122715497Y-107976610D01*
X122756509Y-107915232D01*
X122764768Y-107895294D01*
X122835322Y-107724961D01*
X122875500Y-107522973D01*
X122875500Y-107317027D01*
X122875500Y-107317024D01*
X122875499Y-107317022D01*
X122873965Y-107309309D01*
X122835322Y-107115039D01*
X122756510Y-106924770D01*
X122756509Y-106924767D01*
X122642096Y-106753536D01*
X122642090Y-106753528D01*
X122496471Y-106607909D01*
X122496463Y-106607903D01*
X122325232Y-106493490D01*
X122134961Y-106414678D01*
X122134953Y-106414676D01*
X121932976Y-106374500D01*
X121932973Y-106374500D01*
X121727027Y-106374500D01*
X121727024Y-106374500D01*
X121525046Y-106414676D01*
X121525038Y-106414678D01*
X121334767Y-106493490D01*
X121163536Y-106607903D01*
X121163528Y-106607909D01*
X121017909Y-106753528D01*
X121017903Y-106753536D01*
X120903490Y-106924767D01*
X120824678Y-107115038D01*
X120824676Y-107115046D01*
X120784500Y-107317022D01*
X120500500Y-107317022D01*
X120500500Y-105419421D01*
X120520185Y-105352382D01*
X120572989Y-105306627D01*
X120642147Y-105296683D01*
X120705703Y-105325708D01*
X120734985Y-105363126D01*
X120807942Y-105506312D01*
X120825696Y-105530749D01*
X121330707Y-105025738D01*
X121345437Y-105080712D01*
X121413896Y-105199287D01*
X121510713Y-105296104D01*
X121629288Y-105364563D01*
X121684259Y-105379292D01*
X121179248Y-105884302D01*
X121179249Y-105884303D01*
X121203680Y-105902053D01*
X121371281Y-105987451D01*
X121550166Y-106045574D01*
X121735952Y-106075000D01*
X121924048Y-106075000D01*
X122109831Y-106045574D01*
X122109834Y-106045574D01*
X122288718Y-105987451D01*
X122456316Y-105902055D01*
X122480749Y-105884303D01*
X122480749Y-105884302D01*
X121975740Y-105379292D01*
X122030712Y-105364563D01*
X122149287Y-105296104D01*
X122246104Y-105199287D01*
X122314563Y-105080712D01*
X122329292Y-105025739D01*
X122834302Y-105530749D01*
X122834303Y-105530749D01*
X122852055Y-105506316D01*
X122937451Y-105338718D01*
X122995574Y-105159834D01*
X122995574Y-105159831D01*
X123025000Y-104974048D01*
X123025000Y-104785951D01*
X122995574Y-104600168D01*
X122995574Y-104600165D01*
X122937451Y-104421281D01*
X122852053Y-104253680D01*
X122834303Y-104229249D01*
X122834302Y-104229248D01*
X122329292Y-104734259D01*
X122314563Y-104679288D01*
X122246104Y-104560713D01*
X122149287Y-104463896D01*
X122030712Y-104395437D01*
X121975739Y-104380707D01*
X122480749Y-103875696D01*
X122456312Y-103857942D01*
X122288718Y-103772548D01*
X122109833Y-103714425D01*
X121924048Y-103685000D01*
X121735952Y-103685000D01*
X121550168Y-103714425D01*
X121550165Y-103714425D01*
X121371281Y-103772548D01*
X121203681Y-103857945D01*
X121179249Y-103875696D01*
X121179248Y-103875696D01*
X121684260Y-104380707D01*
X121629288Y-104395437D01*
X121510713Y-104463896D01*
X121413896Y-104560713D01*
X121345437Y-104679288D01*
X121330707Y-104734260D01*
X120825696Y-104229248D01*
X120825696Y-104229249D01*
X120807944Y-104253684D01*
X120734984Y-104396874D01*
X120687010Y-104447669D01*
X120619189Y-104464464D01*
X120553054Y-104441926D01*
X120509603Y-104387211D01*
X120500500Y-104340578D01*
X120500500Y-102237022D01*
X120784500Y-102237022D01*
X120784500Y-102442977D01*
X120824676Y-102644953D01*
X120824678Y-102644961D01*
X120903490Y-102835232D01*
X121017903Y-103006463D01*
X121017909Y-103006471D01*
X121163528Y-103152090D01*
X121163536Y-103152096D01*
X121334767Y-103266509D01*
X121390496Y-103289592D01*
X121525039Y-103345322D01*
X121727022Y-103385499D01*
X121727025Y-103385500D01*
X121727027Y-103385500D01*
X121932975Y-103385500D01*
X121932976Y-103385499D01*
X122134961Y-103345322D01*
X122325230Y-103266510D01*
X122325230Y-103266509D01*
X122325232Y-103266509D01*
X122410275Y-103209684D01*
X122496468Y-103152093D01*
X122642093Y-103006468D01*
X122756510Y-102835230D01*
X122835322Y-102644961D01*
X122875500Y-102442973D01*
X122875500Y-102426571D01*
X123549499Y-102426571D01*
X123574497Y-102552238D01*
X123574499Y-102552244D01*
X123623533Y-102670624D01*
X123623534Y-102670626D01*
X123623535Y-102670627D01*
X123668602Y-102738075D01*
X123689480Y-102804750D01*
X123689500Y-102806964D01*
X123689500Y-108349309D01*
X123709868Y-108425322D01*
X123709867Y-108425322D01*
X123709868Y-108425324D01*
X123720199Y-108463884D01*
X123721132Y-108465500D01*
X123779511Y-108566614D01*
X131673386Y-116460489D01*
X131776113Y-116519799D01*
X131800321Y-116526284D01*
X131800324Y-116526286D01*
X131800325Y-116526286D01*
X131830447Y-116534357D01*
X131890691Y-116550500D01*
X131890693Y-116550500D01*
X164709308Y-116550500D01*
X164709309Y-116550500D01*
X164799673Y-116526286D01*
X164823887Y-116519799D01*
X164926614Y-116460489D01*
X166533720Y-114853383D01*
X186150000Y-114853383D01*
X186150000Y-115667500D01*
X187220000Y-115667500D01*
X187220000Y-116167500D01*
X186150000Y-116167500D01*
X186150000Y-116981616D01*
X186185704Y-117207044D01*
X186256230Y-117424104D01*
X186359849Y-117627466D01*
X186494004Y-117812114D01*
X186655385Y-117973495D01*
X186840033Y-118107650D01*
X187043395Y-118211269D01*
X187260455Y-118281795D01*
X187350000Y-118295978D01*
X187350000Y-117349901D01*
X187366675Y-117366576D01*
X187453325Y-117416604D01*
X187549972Y-117442500D01*
X187650028Y-117442500D01*
X187746675Y-117416604D01*
X187833325Y-117366576D01*
X187850000Y-117349901D01*
X187850000Y-118295977D01*
X187939544Y-118281795D01*
X188156604Y-118211269D01*
X188359966Y-118107650D01*
X188544614Y-117973495D01*
X188705995Y-117812114D01*
X188840150Y-117627466D01*
X188943769Y-117424104D01*
X189014295Y-117207044D01*
X189050000Y-116981616D01*
X189050000Y-116167500D01*
X187980000Y-116167500D01*
X187980000Y-115667500D01*
X189050000Y-115667500D01*
X189050000Y-114853383D01*
X189014295Y-114627955D01*
X188943769Y-114410895D01*
X188840150Y-114207533D01*
X188705995Y-114022885D01*
X188544614Y-113861504D01*
X188359966Y-113727349D01*
X188156602Y-113623729D01*
X187939541Y-113553203D01*
X187850000Y-113539021D01*
X187850000Y-114485099D01*
X187833325Y-114468424D01*
X187746675Y-114418396D01*
X187650028Y-114392500D01*
X187549972Y-114392500D01*
X187453325Y-114418396D01*
X187366675Y-114468424D01*
X187350000Y-114485099D01*
X187350000Y-113539021D01*
X187349999Y-113539021D01*
X187260458Y-113553203D01*
X187043397Y-113623729D01*
X186840033Y-113727349D01*
X186655385Y-113861504D01*
X186494004Y-114022885D01*
X186359849Y-114207533D01*
X186256230Y-114410895D01*
X186185704Y-114627955D01*
X186150000Y-114853383D01*
X166533720Y-114853383D01*
X168251955Y-113135148D01*
X180699500Y-113135148D01*
X180699500Y-113339851D01*
X180731522Y-113542034D01*
X180794781Y-113736723D01*
X180887715Y-113919113D01*
X181008028Y-114084713D01*
X181152786Y-114229471D01*
X181307749Y-114342056D01*
X181318390Y-114349787D01*
X181402219Y-114392500D01*
X181500776Y-114442718D01*
X181500778Y-114442718D01*
X181500781Y-114442720D01*
X181579890Y-114468424D01*
X181695465Y-114505977D01*
X181796557Y-114521988D01*
X181897648Y-114538000D01*
X181897649Y-114538000D01*
X184002351Y-114538000D01*
X184002352Y-114538000D01*
X184204534Y-114505977D01*
X184399219Y-114442720D01*
X184581610Y-114349787D01*
X184693614Y-114268412D01*
X184747213Y-114229471D01*
X184747215Y-114229468D01*
X184747219Y-114229466D01*
X184891966Y-114084719D01*
X184891968Y-114084715D01*
X184891971Y-114084713D01*
X184944732Y-114012090D01*
X185012287Y-113919110D01*
X185105220Y-113736719D01*
X185168477Y-113542034D01*
X185200500Y-113339852D01*
X185200500Y-113135148D01*
X185168477Y-112932966D01*
X185105220Y-112738281D01*
X185105218Y-112738278D01*
X185105218Y-112738276D01*
X185071503Y-112672107D01*
X185012287Y-112555890D01*
X184989675Y-112524767D01*
X184891971Y-112390286D01*
X184747213Y-112245528D01*
X184581613Y-112125215D01*
X184581612Y-112125214D01*
X184581610Y-112125213D01*
X184524653Y-112096191D01*
X184399223Y-112032281D01*
X184204534Y-111969022D01*
X184029995Y-111941378D01*
X184002352Y-111937000D01*
X181897648Y-111937000D01*
X181873329Y-111940851D01*
X181695465Y-111969022D01*
X181500776Y-112032281D01*
X181318386Y-112125215D01*
X181152786Y-112245528D01*
X181008028Y-112390286D01*
X180887715Y-112555886D01*
X180794781Y-112738276D01*
X180731522Y-112932965D01*
X180699500Y-113135148D01*
X168251955Y-113135148D01*
X172510490Y-108876614D01*
X172569799Y-108773887D01*
X172586971Y-108709799D01*
X172600500Y-108659309D01*
X172600500Y-108530691D01*
X172600500Y-96185454D01*
X175667100Y-96185454D01*
X175667100Y-96424545D01*
X175704499Y-96660677D01*
X175778381Y-96888059D01*
X175854886Y-97038207D01*
X175886920Y-97101077D01*
X176027448Y-97294497D01*
X176196503Y-97463552D01*
X176389923Y-97604080D01*
X176453137Y-97636289D01*
X176602940Y-97712618D01*
X176602942Y-97712618D01*
X176602945Y-97712620D01*
X176674027Y-97735716D01*
X176830322Y-97786500D01*
X177066455Y-97823900D01*
X177066460Y-97823900D01*
X177305545Y-97823900D01*
X177541677Y-97786500D01*
X177567292Y-97778177D01*
X177769055Y-97712620D01*
X177982077Y-97604080D01*
X178175497Y-97463552D01*
X178344552Y-97294497D01*
X178485080Y-97101077D01*
X178593620Y-96888055D01*
X178667500Y-96660677D01*
X178687724Y-96532986D01*
X178704900Y-96424545D01*
X178704900Y-96185454D01*
X178667500Y-95949322D01*
X178633221Y-95843824D01*
X178593620Y-95721945D01*
X178593618Y-95721942D01*
X178593618Y-95721940D01*
X178507029Y-95552000D01*
X178485080Y-95508923D01*
X178344552Y-95315503D01*
X178175497Y-95146448D01*
X177982077Y-95005920D01*
X177973086Y-95001339D01*
X177769059Y-94897381D01*
X177541677Y-94823499D01*
X177305545Y-94786100D01*
X177305540Y-94786100D01*
X177066460Y-94786100D01*
X177066455Y-94786100D01*
X176830322Y-94823499D01*
X176602940Y-94897381D01*
X176389922Y-95005920D01*
X176333663Y-95046795D01*
X176196503Y-95146448D01*
X176196501Y-95146450D01*
X176196500Y-95146450D01*
X176027450Y-95315500D01*
X176027450Y-95315501D01*
X176027448Y-95315503D01*
X175975890Y-95386467D01*
X175886920Y-95508922D01*
X175778381Y-95721940D01*
X175704499Y-95949322D01*
X175667100Y-96185454D01*
X172600500Y-96185454D01*
X172600500Y-87940639D01*
X175517600Y-87940639D01*
X175517600Y-88159360D01*
X175546147Y-88376186D01*
X175602752Y-88587442D01*
X175686444Y-88789491D01*
X175686448Y-88789501D01*
X175795795Y-88978895D01*
X175795806Y-88978912D01*
X175842578Y-89039865D01*
X175842580Y-89039865D01*
X176385140Y-88497304D01*
X176475739Y-88632896D01*
X176603104Y-88760261D01*
X176738694Y-88850858D01*
X176196133Y-89393418D01*
X176196133Y-89393421D01*
X176257090Y-89440196D01*
X176446498Y-89549551D01*
X176446508Y-89549555D01*
X176648557Y-89633247D01*
X176859813Y-89689852D01*
X177076639Y-89718399D01*
X177076654Y-89718400D01*
X177295346Y-89718400D01*
X177295360Y-89718399D01*
X177512186Y-89689852D01*
X177723442Y-89633247D01*
X177925491Y-89549555D01*
X177925501Y-89549551D01*
X178114898Y-89440202D01*
X178175866Y-89393419D01*
X177633305Y-88850859D01*
X177768896Y-88760261D01*
X177896261Y-88632896D01*
X177986859Y-88497305D01*
X178529419Y-89039866D01*
X178576202Y-88978898D01*
X178685551Y-88789501D01*
X178685555Y-88789491D01*
X178769247Y-88587442D01*
X178825852Y-88376186D01*
X178854399Y-88159360D01*
X178854400Y-88159346D01*
X178854400Y-87940653D01*
X178854399Y-87940639D01*
X178825852Y-87723813D01*
X178769247Y-87512557D01*
X178685555Y-87310508D01*
X178685551Y-87310498D01*
X178576196Y-87121090D01*
X178529421Y-87060133D01*
X178529418Y-87060133D01*
X177986858Y-87602693D01*
X177896261Y-87467104D01*
X177768896Y-87339739D01*
X177633305Y-87249140D01*
X178175865Y-86706580D01*
X178175865Y-86706578D01*
X178114912Y-86659806D01*
X178114895Y-86659795D01*
X177925501Y-86550448D01*
X177925491Y-86550444D01*
X177723442Y-86466752D01*
X177512186Y-86410147D01*
X177295360Y-86381600D01*
X177076639Y-86381600D01*
X176859813Y-86410147D01*
X176648557Y-86466752D01*
X176446508Y-86550444D01*
X176446498Y-86550448D01*
X176257102Y-86659795D01*
X176196133Y-86706579D01*
X176738694Y-87249140D01*
X176603104Y-87339739D01*
X176475739Y-87467104D01*
X176385140Y-87602694D01*
X175842579Y-87060133D01*
X175795795Y-87121102D01*
X175686448Y-87310498D01*
X175686444Y-87310508D01*
X175602752Y-87512557D01*
X175546147Y-87723813D01*
X175517600Y-87940639D01*
X172600500Y-87940639D01*
X172600500Y-86240691D01*
X172569799Y-86126114D01*
X172569797Y-86126110D01*
X172544731Y-86082694D01*
X172510493Y-86023392D01*
X172510487Y-86023384D01*
X168336616Y-81849513D01*
X168336614Y-81849511D01*
X168247754Y-81798207D01*
X168233888Y-81790201D01*
X168221780Y-81786957D01*
X168209673Y-81783713D01*
X168209670Y-81783712D01*
X168154248Y-81768862D01*
X168119309Y-81759500D01*
X168119308Y-81759500D01*
X164648912Y-81759500D01*
X164581873Y-81739815D01*
X164538427Y-81691795D01*
X164492553Y-81601763D01*
X164485653Y-81592267D01*
X164385189Y-81453986D01*
X164256013Y-81324810D01*
X164108240Y-81217449D01*
X164108239Y-81217448D01*
X164108237Y-81217447D01*
X164026858Y-81175982D01*
X163945476Y-81134515D01*
X163771753Y-81078070D01*
X163591339Y-81049495D01*
X163591334Y-81049495D01*
X163408666Y-81049495D01*
X163408661Y-81049495D01*
X163228246Y-81078070D01*
X163054523Y-81134515D01*
X162891759Y-81217449D01*
X162743986Y-81324810D01*
X162614810Y-81453986D01*
X162507449Y-81601759D01*
X162424510Y-81764534D01*
X162423209Y-81767674D01*
X162422397Y-81768681D01*
X162422305Y-81768862D01*
X162422266Y-81768842D01*
X162379359Y-81822070D01*
X162313061Y-81844124D01*
X162245365Y-81826833D01*
X162197763Y-81775688D01*
X162190725Y-81758519D01*
X162174028Y-81707132D01*
X162080416Y-81523407D01*
X162046636Y-81476915D01*
X161451123Y-82072429D01*
X161435240Y-82013149D01*
X161368098Y-81896856D01*
X161273144Y-81801902D01*
X161156851Y-81734760D01*
X161097569Y-81718875D01*
X161693084Y-81123362D01*
X161693083Y-81123361D01*
X161646597Y-81089587D01*
X161646584Y-81089579D01*
X161462871Y-80995973D01*
X161266754Y-80932250D01*
X161063105Y-80899995D01*
X160856895Y-80899995D01*
X160653245Y-80932250D01*
X160457128Y-80995973D01*
X160273403Y-81089585D01*
X160226915Y-81123361D01*
X160226914Y-81123362D01*
X160822428Y-81718876D01*
X160763149Y-81734760D01*
X160646856Y-81801902D01*
X160551902Y-81896856D01*
X160484760Y-82013149D01*
X160468876Y-82072428D01*
X159873362Y-81476914D01*
X159873361Y-81476915D01*
X159839585Y-81523403D01*
X159745973Y-81707128D01*
X159682250Y-81903245D01*
X159649995Y-82106894D01*
X159649995Y-82313105D01*
X159682250Y-82516754D01*
X159745973Y-82712871D01*
X159839579Y-82896584D01*
X159839587Y-82896597D01*
X159873361Y-82943083D01*
X159873362Y-82943084D01*
X160468876Y-82347570D01*
X160484760Y-82406851D01*
X160551902Y-82523144D01*
X160646856Y-82618098D01*
X160763149Y-82685240D01*
X160822429Y-82701123D01*
X160226915Y-83296636D01*
X160273407Y-83330416D01*
X160457132Y-83424028D01*
X160508519Y-83440725D01*
X160566195Y-83480162D01*
X160593394Y-83544520D01*
X160581480Y-83613367D01*
X160534236Y-83664843D01*
X160517674Y-83673209D01*
X160514534Y-83674510D01*
X160351759Y-83757449D01*
X160203986Y-83864810D01*
X160074810Y-83993986D01*
X159967449Y-84141759D01*
X159884515Y-84304523D01*
X159828070Y-84478246D01*
X159799495Y-84658660D01*
X159799495Y-84841339D01*
X159828070Y-85021753D01*
X159884515Y-85195476D01*
X159967449Y-85358240D01*
X160074810Y-85506013D01*
X160203986Y-85635189D01*
X160342267Y-85735653D01*
X160351763Y-85742553D01*
X160514521Y-85825483D01*
X160514523Y-85825484D01*
X160601384Y-85853706D01*
X160688248Y-85881930D01*
X160739499Y-85890047D01*
X160786721Y-85897527D01*
X160849856Y-85927456D01*
X160886787Y-85986768D01*
X160885789Y-86056631D01*
X160847179Y-86114863D01*
X160786721Y-86142473D01*
X160688246Y-86158070D01*
X160514523Y-86214515D01*
X160351759Y-86297449D01*
X160203986Y-86404810D01*
X160074810Y-86533986D01*
X159967449Y-86681759D01*
X159884515Y-86844523D01*
X159828070Y-87018246D01*
X159799495Y-87198660D01*
X159799495Y-87381339D01*
X159828070Y-87561753D01*
X159884515Y-87735476D01*
X159921573Y-87808205D01*
X159960157Y-87883930D01*
X159967449Y-87898240D01*
X160074810Y-88046013D01*
X160203986Y-88175189D01*
X160290392Y-88237965D01*
X160351763Y-88282553D01*
X160514521Y-88365483D01*
X160514523Y-88365484D01*
X160601384Y-88393706D01*
X160688248Y-88421930D01*
X160739499Y-88430047D01*
X160786721Y-88437527D01*
X160849856Y-88467456D01*
X160886787Y-88526768D01*
X160885789Y-88596631D01*
X160847179Y-88654863D01*
X160786721Y-88682473D01*
X160688246Y-88698070D01*
X160514523Y-88754515D01*
X160351759Y-88837449D01*
X160203986Y-88944810D01*
X160074810Y-89073986D01*
X159967449Y-89221759D01*
X159884515Y-89384523D01*
X159828070Y-89558246D01*
X159799495Y-89738660D01*
X159799495Y-89921339D01*
X159828070Y-90101753D01*
X159884515Y-90275476D01*
X159967449Y-90438240D01*
X160074810Y-90586013D01*
X160203986Y-90715189D01*
X160342267Y-90815653D01*
X160351763Y-90822553D01*
X160514521Y-90905483D01*
X160514523Y-90905484D01*
X160601384Y-90933706D01*
X160688248Y-90961930D01*
X160739499Y-90970047D01*
X160786721Y-90977527D01*
X160849856Y-91007456D01*
X160886787Y-91066768D01*
X160885789Y-91136631D01*
X160847179Y-91194863D01*
X160786721Y-91222473D01*
X160688246Y-91238070D01*
X160514523Y-91294515D01*
X160351759Y-91377449D01*
X160203986Y-91484810D01*
X160074810Y-91613986D01*
X159967449Y-91761759D01*
X159884515Y-91924523D01*
X159828070Y-92098246D01*
X159799495Y-92278660D01*
X159799495Y-92461339D01*
X159828070Y-92641753D01*
X159884515Y-92815476D01*
X159900304Y-92846463D01*
X159951258Y-92946465D01*
X159967449Y-92978240D01*
X160074810Y-93126013D01*
X160203986Y-93255189D01*
X160342267Y-93355653D01*
X160351763Y-93362553D01*
X160514521Y-93445483D01*
X160514523Y-93445484D01*
X160593002Y-93470983D01*
X160688248Y-93501930D01*
X160739499Y-93510047D01*
X160786721Y-93517527D01*
X160849856Y-93547456D01*
X160886787Y-93606768D01*
X160885789Y-93676631D01*
X160847179Y-93734863D01*
X160786721Y-93762473D01*
X160688246Y-93778070D01*
X160514523Y-93834515D01*
X160351759Y-93917449D01*
X160203986Y-94024810D01*
X160074810Y-94153986D01*
X159967449Y-94301759D01*
X159884515Y-94464523D01*
X159828070Y-94638246D01*
X159799495Y-94818660D01*
X159799495Y-95001339D01*
X159828070Y-95181753D01*
X159884515Y-95355476D01*
X159909890Y-95405276D01*
X159962701Y-95508923D01*
X159967449Y-95518240D01*
X160074810Y-95666013D01*
X160203986Y-95795189D01*
X160340494Y-95894366D01*
X160351763Y-95902553D01*
X160514521Y-95985483D01*
X160517661Y-95986784D01*
X160518669Y-95987597D01*
X160518862Y-95987695D01*
X160518841Y-95987735D01*
X160572062Y-96030628D01*
X160594123Y-96096924D01*
X160576840Y-96164622D01*
X160525701Y-96212230D01*
X160508521Y-96219274D01*
X160457128Y-96235972D01*
X160273403Y-96329585D01*
X160226915Y-96363361D01*
X160226914Y-96363362D01*
X160822428Y-96958876D01*
X160763149Y-96974760D01*
X160646856Y-97041902D01*
X160551902Y-97136856D01*
X160484760Y-97253149D01*
X160468876Y-97312428D01*
X159873362Y-96716914D01*
X159873361Y-96716915D01*
X159839585Y-96763403D01*
X159745973Y-96947128D01*
X159682250Y-97143245D01*
X159649995Y-97346894D01*
X159649995Y-97553105D01*
X159682250Y-97756754D01*
X159745973Y-97952871D01*
X159839579Y-98136584D01*
X159839587Y-98136597D01*
X159873361Y-98183083D01*
X159873362Y-98183084D01*
X160468876Y-97587570D01*
X160484760Y-97646851D01*
X160551902Y-97763144D01*
X160646856Y-97858098D01*
X160763149Y-97925240D01*
X160822428Y-97941123D01*
X160226915Y-98536636D01*
X160273407Y-98570416D01*
X160457132Y-98664028D01*
X160508519Y-98680725D01*
X160566195Y-98720162D01*
X160593394Y-98784520D01*
X160581480Y-98853367D01*
X160534236Y-98904843D01*
X160517674Y-98913209D01*
X160514534Y-98914510D01*
X160351759Y-98997449D01*
X160203986Y-99104810D01*
X160074810Y-99233986D01*
X159967449Y-99381759D01*
X159884515Y-99544523D01*
X159828070Y-99718246D01*
X159799495Y-99898660D01*
X159799495Y-100081339D01*
X159828070Y-100261753D01*
X159884515Y-100435476D01*
X159896659Y-100459309D01*
X159962241Y-100588020D01*
X159967449Y-100598240D01*
X160074810Y-100746013D01*
X160203986Y-100875189D01*
X160342267Y-100975653D01*
X160351763Y-100982553D01*
X160500061Y-101058115D01*
X160514523Y-101065484D01*
X160556713Y-101079192D01*
X160688248Y-101121930D01*
X160771807Y-101135164D01*
X160868661Y-101150505D01*
X160868666Y-101150505D01*
X161051339Y-101150505D01*
X161138801Y-101136651D01*
X161231752Y-101121930D01*
X161405479Y-101065483D01*
X161568237Y-100982553D01*
X161651208Y-100922271D01*
X161716013Y-100875189D01*
X161716015Y-100875186D01*
X161716019Y-100875184D01*
X161845184Y-100746019D01*
X161845186Y-100746015D01*
X161845189Y-100746013D01*
X161895610Y-100676613D01*
X161952553Y-100598237D01*
X162035483Y-100435479D01*
X162091930Y-100261752D01*
X162107527Y-100163278D01*
X162137456Y-100100143D01*
X162196768Y-100063212D01*
X162266630Y-100064210D01*
X162324863Y-100102820D01*
X162352473Y-100163278D01*
X162368070Y-100261753D01*
X162424515Y-100435476D01*
X162436659Y-100459309D01*
X162502241Y-100588020D01*
X162507449Y-100598240D01*
X162614810Y-100746013D01*
X162743986Y-100875189D01*
X162891761Y-100982552D01*
X162954794Y-101014669D01*
X163005591Y-101062643D01*
X163022500Y-101125154D01*
X163022500Y-106500851D01*
X163002815Y-106567890D01*
X162986181Y-106588532D01*
X161038532Y-108536181D01*
X160977209Y-108569666D01*
X160950851Y-108572500D01*
X147795785Y-108572500D01*
X147728746Y-108552815D01*
X147682991Y-108500011D01*
X147673047Y-108430853D01*
X147702072Y-108367297D01*
X147726892Y-108345399D01*
X147896468Y-108232093D01*
X148021743Y-108106817D01*
X148083064Y-108073334D01*
X148109423Y-108070500D01*
X152244071Y-108070500D01*
X152336896Y-108052035D01*
X152369744Y-108045501D01*
X152488127Y-107996465D01*
X152594669Y-107925277D01*
X158705277Y-101814669D01*
X158776466Y-101708126D01*
X158825501Y-101589743D01*
X158850500Y-101464069D01*
X158850500Y-101335931D01*
X158850500Y-80370807D01*
X158870185Y-80303768D01*
X158886819Y-80283126D01*
X160583126Y-78586819D01*
X160644449Y-78553334D01*
X160670807Y-78550500D01*
X164464071Y-78550500D01*
X164548615Y-78533682D01*
X164589744Y-78525501D01*
X164708127Y-78476465D01*
X164710782Y-78474690D01*
X164710804Y-78474683D01*
X164710801Y-78474678D01*
X164710804Y-78474676D01*
X164814669Y-78405277D01*
X166977799Y-76242147D01*
X169076234Y-74143713D01*
X177549500Y-74143713D01*
X177549500Y-74356286D01*
X177572733Y-74502977D01*
X177582754Y-74566243D01*
X177627826Y-74704961D01*
X177648444Y-74768414D01*
X177744951Y-74957820D01*
X177869890Y-75129786D01*
X178020213Y-75280109D01*
X178192179Y-75405048D01*
X178192181Y-75405049D01*
X178192184Y-75405051D01*
X178381588Y-75501557D01*
X178583757Y-75567246D01*
X178793713Y-75600500D01*
X178793714Y-75600500D01*
X179006286Y-75600500D01*
X179006287Y-75600500D01*
X179216243Y-75567246D01*
X179418412Y-75501557D01*
X179607816Y-75405051D01*
X179629789Y-75389086D01*
X179779786Y-75280109D01*
X179779788Y-75280106D01*
X179779792Y-75280104D01*
X179930104Y-75129792D01*
X179930106Y-75129788D01*
X179930109Y-75129786D01*
X180055048Y-74957820D01*
X180055047Y-74957820D01*
X180055051Y-74957816D01*
X180151557Y-74768412D01*
X180217246Y-74566243D01*
X180250500Y-74356287D01*
X180250500Y-74143713D01*
X180217246Y-73933757D01*
X180151557Y-73731588D01*
X180055051Y-73542184D01*
X180055049Y-73542181D01*
X180055048Y-73542179D01*
X179930109Y-73370213D01*
X179779786Y-73219890D01*
X179775449Y-73216739D01*
X185149500Y-73216739D01*
X185149500Y-75283260D01*
X185159426Y-75351391D01*
X185210803Y-75456485D01*
X185293514Y-75539196D01*
X185293515Y-75539196D01*
X185293517Y-75539198D01*
X185398607Y-75590573D01*
X185432673Y-75595536D01*
X185466739Y-75600500D01*
X185466740Y-75600500D01*
X187533261Y-75600500D01*
X187555971Y-75597191D01*
X187601393Y-75590573D01*
X187706483Y-75539198D01*
X187789198Y-75456483D01*
X187840573Y-75351393D01*
X187850500Y-75283260D01*
X187850500Y-73216740D01*
X187840573Y-73148607D01*
X187789198Y-73043517D01*
X187789196Y-73043515D01*
X187789196Y-73043514D01*
X187706485Y-72960803D01*
X187601391Y-72909426D01*
X187533261Y-72899500D01*
X187533260Y-72899500D01*
X185466740Y-72899500D01*
X185466739Y-72899500D01*
X185398608Y-72909426D01*
X185293514Y-72960803D01*
X185210803Y-73043514D01*
X185159426Y-73148608D01*
X185149500Y-73216739D01*
X179775449Y-73216739D01*
X179607820Y-73094951D01*
X179418414Y-72998444D01*
X179418413Y-72998443D01*
X179418412Y-72998443D01*
X179216243Y-72932754D01*
X179216241Y-72932753D01*
X179216240Y-72932753D01*
X179044169Y-72905500D01*
X179006287Y-72899500D01*
X178793713Y-72899500D01*
X178755831Y-72905500D01*
X178583760Y-72932753D01*
X178381585Y-72998444D01*
X178192179Y-73094951D01*
X178020213Y-73219890D01*
X177869890Y-73370213D01*
X177744951Y-73542179D01*
X177648444Y-73731585D01*
X177582753Y-73933760D01*
X177549500Y-74143713D01*
X169076234Y-74143713D01*
X169168787Y-74051160D01*
X170805272Y-72414674D01*
X170805273Y-72414673D01*
X170805277Y-72414669D01*
X170876465Y-72308127D01*
X170925501Y-72189744D01*
X170950500Y-72064069D01*
X170950500Y-67559933D01*
X170970185Y-67492894D01*
X171001616Y-67459614D01*
X171012932Y-67451393D01*
X171062073Y-67415690D01*
X171195690Y-67282073D01*
X171306760Y-67129199D01*
X171392547Y-66960832D01*
X171432069Y-66839195D01*
X171471507Y-66781521D01*
X171535866Y-66754323D01*
X171604712Y-66766238D01*
X171656188Y-66813482D01*
X171667931Y-66839196D01*
X171707454Y-66960836D01*
X171793237Y-67129194D01*
X171793240Y-67129199D01*
X171904310Y-67282073D01*
X172037927Y-67415690D01*
X172190801Y-67526760D01*
X172249136Y-67556483D01*
X172359163Y-67612545D01*
X172359165Y-67612545D01*
X172359168Y-67612547D01*
X172441185Y-67639196D01*
X172538881Y-67670940D01*
X172725514Y-67700500D01*
X172725519Y-67700500D01*
X172914486Y-67700500D01*
X173101118Y-67670940D01*
X173280832Y-67612547D01*
X173449199Y-67526760D01*
X173602073Y-67415690D01*
X173735690Y-67282073D01*
X173846760Y-67129199D01*
X173932547Y-66960832D01*
X173990940Y-66781118D01*
X173995184Y-66754323D01*
X174020500Y-66594486D01*
X174020500Y-66405512D01*
X174020499Y-66405511D01*
X174018630Y-66393713D01*
X185649500Y-66393713D01*
X185649500Y-66606286D01*
X185682316Y-66813482D01*
X185682754Y-66816243D01*
X185738642Y-66988249D01*
X185748444Y-67018414D01*
X185844951Y-67207820D01*
X185969890Y-67379786D01*
X186120213Y-67530109D01*
X186292179Y-67655048D01*
X186292181Y-67655049D01*
X186292184Y-67655051D01*
X186481588Y-67751557D01*
X186683757Y-67817246D01*
X186893713Y-67850500D01*
X186893714Y-67850500D01*
X187106286Y-67850500D01*
X187106287Y-67850500D01*
X187316243Y-67817246D01*
X187518412Y-67751557D01*
X187707816Y-67655051D01*
X187766321Y-67612545D01*
X187879786Y-67530109D01*
X187879788Y-67530106D01*
X187879792Y-67530104D01*
X188030104Y-67379792D01*
X188030106Y-67379788D01*
X188030109Y-67379786D01*
X188155048Y-67207820D01*
X188155047Y-67207820D01*
X188155051Y-67207816D01*
X188251557Y-67018412D01*
X188317246Y-66816243D01*
X188350500Y-66606287D01*
X188350500Y-66393713D01*
X188317246Y-66183757D01*
X188251557Y-65981588D01*
X188155051Y-65792184D01*
X188155049Y-65792181D01*
X188155048Y-65792179D01*
X188030109Y-65620213D01*
X187879786Y-65469890D01*
X187707820Y-65344951D01*
X187518414Y-65248444D01*
X187518413Y-65248443D01*
X187518412Y-65248443D01*
X187316243Y-65182754D01*
X187316241Y-65182753D01*
X187316240Y-65182753D01*
X187154957Y-65157208D01*
X187106287Y-65149500D01*
X186893713Y-65149500D01*
X186845042Y-65157208D01*
X186683760Y-65182753D01*
X186481585Y-65248444D01*
X186292179Y-65344951D01*
X186120213Y-65469890D01*
X185969890Y-65620213D01*
X185844951Y-65792179D01*
X185748444Y-65981585D01*
X185682753Y-66183760D01*
X185649500Y-66393713D01*
X174018630Y-66393713D01*
X173990940Y-66218881D01*
X173944248Y-66075181D01*
X173932547Y-66039168D01*
X173932545Y-66039165D01*
X173932545Y-66039163D01*
X173846759Y-65870800D01*
X173735690Y-65717927D01*
X173602073Y-65584310D01*
X173449199Y-65473240D01*
X173442624Y-65469890D01*
X173280836Y-65387454D01*
X173101118Y-65329059D01*
X172914486Y-65299500D01*
X172914481Y-65299500D01*
X172725519Y-65299500D01*
X172725514Y-65299500D01*
X172538881Y-65329059D01*
X172359163Y-65387454D01*
X172190800Y-65473240D01*
X172103579Y-65536610D01*
X172037927Y-65584310D01*
X172037925Y-65584312D01*
X172037924Y-65584312D01*
X171904312Y-65717924D01*
X171904312Y-65717925D01*
X171904310Y-65717927D01*
X171856610Y-65783579D01*
X171793240Y-65870800D01*
X171707454Y-66039163D01*
X171667931Y-66160803D01*
X171628493Y-66218478D01*
X171564134Y-66245676D01*
X171495288Y-66233761D01*
X171443812Y-66186516D01*
X171432069Y-66160803D01*
X171404248Y-66075181D01*
X171392547Y-66039168D01*
X171392545Y-66039165D01*
X171392545Y-66039163D01*
X171306759Y-65870800D01*
X171195690Y-65717927D01*
X171062073Y-65584310D01*
X170909199Y-65473240D01*
X170902624Y-65469890D01*
X170740836Y-65387454D01*
X170561118Y-65329059D01*
X170374486Y-65299500D01*
X170374481Y-65299500D01*
X170185519Y-65299500D01*
X170185514Y-65299500D01*
X169998881Y-65329059D01*
X169819163Y-65387454D01*
X169650800Y-65473240D01*
X169563579Y-65536610D01*
X169497927Y-65584310D01*
X169497925Y-65584312D01*
X169497924Y-65584312D01*
X169364312Y-65717924D01*
X169364312Y-65717925D01*
X169364310Y-65717927D01*
X169310363Y-65792179D01*
X169253238Y-65870803D01*
X169204377Y-65966697D01*
X169156402Y-66017492D01*
X169088581Y-66034287D01*
X169022447Y-66011749D01*
X168983408Y-65966696D01*
X168894620Y-65792442D01*
X168769727Y-65620540D01*
X168769723Y-65620535D01*
X168619464Y-65470276D01*
X168619459Y-65470272D01*
X168447557Y-65345379D01*
X168258215Y-65248903D01*
X168056124Y-65183241D01*
X167990000Y-65172768D01*
X167990000Y-66066988D01*
X167932993Y-66034075D01*
X167805826Y-66000000D01*
X167674174Y-66000000D01*
X167547007Y-66034075D01*
X167490000Y-66066988D01*
X167490000Y-65172768D01*
X167489999Y-65172768D01*
X167423875Y-65183241D01*
X167221784Y-65248903D01*
X167032442Y-65345379D01*
X166860540Y-65470272D01*
X166860535Y-65470276D01*
X166710276Y-65620535D01*
X166710272Y-65620540D01*
X166585376Y-65792446D01*
X166585375Y-65792447D01*
X166496590Y-65966696D01*
X166448616Y-66017492D01*
X166380795Y-66034287D01*
X166314660Y-66011749D01*
X166275621Y-65966696D01*
X166226759Y-65870800D01*
X166115690Y-65717927D01*
X165982073Y-65584310D01*
X165829199Y-65473240D01*
X165822624Y-65469890D01*
X165660836Y-65387454D01*
X165481118Y-65329059D01*
X165294486Y-65299500D01*
X165294481Y-65299500D01*
X165105519Y-65299500D01*
X165105514Y-65299500D01*
X164918881Y-65329059D01*
X164739163Y-65387454D01*
X164570800Y-65473240D01*
X164483579Y-65536610D01*
X164417927Y-65584310D01*
X164417925Y-65584312D01*
X164417924Y-65584312D01*
X164284312Y-65717924D01*
X164284312Y-65717925D01*
X164284310Y-65717927D01*
X164236610Y-65783579D01*
X164173240Y-65870800D01*
X164087454Y-66039163D01*
X164047931Y-66160803D01*
X164008493Y-66218478D01*
X163944134Y-66245676D01*
X163875288Y-66233761D01*
X163823812Y-66186516D01*
X163812069Y-66160803D01*
X163784248Y-66075181D01*
X163772547Y-66039168D01*
X163772545Y-66039165D01*
X163772545Y-66039163D01*
X163686759Y-65870800D01*
X163575690Y-65717927D01*
X163442073Y-65584310D01*
X163289199Y-65473240D01*
X163282624Y-65469890D01*
X163120836Y-65387454D01*
X162941118Y-65329059D01*
X162754486Y-65299500D01*
X162754481Y-65299500D01*
X162565519Y-65299500D01*
X162565514Y-65299500D01*
X162378881Y-65329059D01*
X162199163Y-65387454D01*
X162030800Y-65473240D01*
X161943579Y-65536610D01*
X161877927Y-65584310D01*
X161877925Y-65584312D01*
X161877924Y-65584312D01*
X161744312Y-65717924D01*
X161744312Y-65717925D01*
X161744310Y-65717927D01*
X161696610Y-65783579D01*
X161633240Y-65870800D01*
X161547454Y-66039163D01*
X161507931Y-66160803D01*
X161468493Y-66218478D01*
X161404134Y-66245676D01*
X161335288Y-66233761D01*
X161283812Y-66186516D01*
X161272069Y-66160803D01*
X161244248Y-66075181D01*
X161232547Y-66039168D01*
X161232545Y-66039165D01*
X161232545Y-66039163D01*
X161146759Y-65870800D01*
X161035690Y-65717927D01*
X160902073Y-65584310D01*
X160749199Y-65473240D01*
X160742624Y-65469890D01*
X160580836Y-65387454D01*
X160401118Y-65329059D01*
X160214486Y-65299500D01*
X160214481Y-65299500D01*
X160025519Y-65299500D01*
X160025514Y-65299500D01*
X159838881Y-65329059D01*
X159659163Y-65387454D01*
X159490800Y-65473240D01*
X159403579Y-65536610D01*
X159337927Y-65584310D01*
X159337925Y-65584312D01*
X159337924Y-65584312D01*
X159204312Y-65717924D01*
X159204312Y-65717925D01*
X159204310Y-65717927D01*
X159156610Y-65783579D01*
X159093240Y-65870800D01*
X159007454Y-66039163D01*
X158967931Y-66160803D01*
X158928493Y-66218478D01*
X158864134Y-66245676D01*
X158795288Y-66233761D01*
X158743812Y-66186516D01*
X158732069Y-66160803D01*
X158704248Y-66075181D01*
X158692547Y-66039168D01*
X158692545Y-66039165D01*
X158692545Y-66039163D01*
X158606759Y-65870800D01*
X158495690Y-65717927D01*
X158362073Y-65584310D01*
X158209199Y-65473240D01*
X158202624Y-65469890D01*
X158040836Y-65387454D01*
X157861118Y-65329059D01*
X157674486Y-65299500D01*
X157674481Y-65299500D01*
X157485519Y-65299500D01*
X157485514Y-65299500D01*
X157298881Y-65329059D01*
X157119163Y-65387454D01*
X156950800Y-65473240D01*
X156863579Y-65536610D01*
X156797927Y-65584310D01*
X156797925Y-65584312D01*
X156797924Y-65584312D01*
X156664312Y-65717924D01*
X156664312Y-65717925D01*
X156664310Y-65717927D01*
X156616610Y-65783579D01*
X156553240Y-65870800D01*
X156467454Y-66039163D01*
X156427931Y-66160803D01*
X156388493Y-66218478D01*
X156324134Y-66245676D01*
X156255288Y-66233761D01*
X156203812Y-66186516D01*
X156192069Y-66160803D01*
X156164248Y-66075181D01*
X156152547Y-66039168D01*
X156152545Y-66039165D01*
X156152545Y-66039163D01*
X156066759Y-65870800D01*
X155955690Y-65717927D01*
X155822073Y-65584310D01*
X155669199Y-65473240D01*
X155662624Y-65469890D01*
X155500836Y-65387454D01*
X155321118Y-65329059D01*
X155134486Y-65299500D01*
X155134481Y-65299500D01*
X154945519Y-65299500D01*
X154945514Y-65299500D01*
X154758881Y-65329059D01*
X154579163Y-65387454D01*
X154410800Y-65473240D01*
X154323579Y-65536610D01*
X154257927Y-65584310D01*
X154257925Y-65584312D01*
X154257924Y-65584312D01*
X154124312Y-65717924D01*
X154124312Y-65717925D01*
X154124310Y-65717927D01*
X154076610Y-65783579D01*
X154013240Y-65870800D01*
X153934985Y-66024385D01*
X153887010Y-66075181D01*
X153819189Y-66091976D01*
X153753054Y-66069439D01*
X153709603Y-66014723D01*
X153700500Y-65968090D01*
X153700500Y-65616739D01*
X153690573Y-65548608D01*
X153690573Y-65548607D01*
X153639198Y-65443517D01*
X153639196Y-65443515D01*
X153639196Y-65443514D01*
X153556485Y-65360803D01*
X153451391Y-65309426D01*
X153383261Y-65299500D01*
X153383260Y-65299500D01*
X151616740Y-65299500D01*
X151616739Y-65299500D01*
X151548608Y-65309426D01*
X151443514Y-65360803D01*
X151360803Y-65443514D01*
X151309426Y-65548608D01*
X151299500Y-65616739D01*
X151299500Y-67383260D01*
X151309426Y-67451391D01*
X151360803Y-67556485D01*
X151443514Y-67639196D01*
X151443515Y-67639196D01*
X151443517Y-67639198D01*
X151548607Y-67690573D01*
X151582673Y-67695536D01*
X151616739Y-67700500D01*
X151616740Y-67700500D01*
X153383261Y-67700500D01*
X153405971Y-67697191D01*
X153451393Y-67690573D01*
X153556483Y-67639198D01*
X153639198Y-67556483D01*
X153690573Y-67451393D01*
X153700500Y-67383260D01*
X153700500Y-67031909D01*
X153720185Y-66964870D01*
X153772989Y-66919115D01*
X153842147Y-66909171D01*
X153905703Y-66938196D01*
X153934984Y-66975613D01*
X154013240Y-67129199D01*
X154124310Y-67282073D01*
X154257927Y-67415690D01*
X154410801Y-67526760D01*
X154469136Y-67556483D01*
X154579163Y-67612545D01*
X154579165Y-67612545D01*
X154579168Y-67612547D01*
X154661185Y-67639196D01*
X154758881Y-67670940D01*
X154945514Y-67700500D01*
X154945519Y-67700500D01*
X155134486Y-67700500D01*
X155321118Y-67670940D01*
X155500832Y-67612547D01*
X155669199Y-67526760D01*
X155822073Y-67415690D01*
X155955690Y-67282073D01*
X156066760Y-67129199D01*
X156152547Y-66960832D01*
X156192069Y-66839195D01*
X156231507Y-66781521D01*
X156295866Y-66754323D01*
X156364712Y-66766238D01*
X156416188Y-66813482D01*
X156427931Y-66839196D01*
X156467454Y-66960836D01*
X156553237Y-67129194D01*
X156553240Y-67129199D01*
X156664310Y-67282073D01*
X156797927Y-67415690D01*
X156950801Y-67526760D01*
X157009136Y-67556483D01*
X157119163Y-67612545D01*
X157119165Y-67612545D01*
X157119168Y-67612547D01*
X157201185Y-67639196D01*
X157298881Y-67670940D01*
X157485514Y-67700500D01*
X157485519Y-67700500D01*
X157674486Y-67700500D01*
X157861118Y-67670940D01*
X158040832Y-67612547D01*
X158209199Y-67526760D01*
X158362073Y-67415690D01*
X158495690Y-67282073D01*
X158606760Y-67129199D01*
X158692547Y-66960832D01*
X158732069Y-66839195D01*
X158771507Y-66781521D01*
X158835866Y-66754323D01*
X158904712Y-66766238D01*
X158956188Y-66813482D01*
X158967931Y-66839196D01*
X159007454Y-66960836D01*
X159093237Y-67129194D01*
X159093240Y-67129199D01*
X159204310Y-67282073D01*
X159337927Y-67415690D01*
X159490801Y-67526760D01*
X159549136Y-67556483D01*
X159659163Y-67612545D01*
X159659165Y-67612545D01*
X159659168Y-67612547D01*
X159741185Y-67639196D01*
X159838881Y-67670940D01*
X160025514Y-67700500D01*
X160025519Y-67700500D01*
X160214486Y-67700500D01*
X160401118Y-67670940D01*
X160580832Y-67612547D01*
X160749199Y-67526760D01*
X160902073Y-67415690D01*
X161035690Y-67282073D01*
X161146760Y-67129199D01*
X161232547Y-66960832D01*
X161272069Y-66839195D01*
X161311507Y-66781521D01*
X161375866Y-66754323D01*
X161444712Y-66766238D01*
X161496188Y-66813482D01*
X161507931Y-66839196D01*
X161547454Y-66960836D01*
X161633237Y-67129194D01*
X161633240Y-67129199D01*
X161744310Y-67282073D01*
X161877927Y-67415690D01*
X162030801Y-67526760D01*
X162089136Y-67556483D01*
X162199163Y-67612545D01*
X162199165Y-67612545D01*
X162199168Y-67612547D01*
X162281185Y-67639196D01*
X162378881Y-67670940D01*
X162565514Y-67700500D01*
X162565519Y-67700500D01*
X162754486Y-67700500D01*
X162941118Y-67670940D01*
X163120832Y-67612547D01*
X163289199Y-67526760D01*
X163442073Y-67415690D01*
X163575690Y-67282073D01*
X163686760Y-67129199D01*
X163772547Y-66960832D01*
X163812069Y-66839195D01*
X163851507Y-66781521D01*
X163915866Y-66754323D01*
X163984712Y-66766238D01*
X164036188Y-66813482D01*
X164047931Y-66839196D01*
X164087454Y-66960836D01*
X164173237Y-67129194D01*
X164173240Y-67129199D01*
X164284310Y-67282073D01*
X164417927Y-67415690D01*
X164570801Y-67526760D01*
X164629136Y-67556483D01*
X164739163Y-67612545D01*
X164739165Y-67612545D01*
X164739168Y-67612547D01*
X164821185Y-67639196D01*
X164918881Y-67670940D01*
X165105514Y-67700500D01*
X165105519Y-67700500D01*
X165294486Y-67700500D01*
X165481118Y-67670940D01*
X165660832Y-67612547D01*
X165829199Y-67526760D01*
X165982073Y-67415690D01*
X166115690Y-67282073D01*
X166226760Y-67129199D01*
X166275621Y-67033302D01*
X166323595Y-66982507D01*
X166391416Y-66965712D01*
X166457551Y-66988249D01*
X166496591Y-67033303D01*
X166585379Y-67207557D01*
X166710272Y-67379459D01*
X166710276Y-67379464D01*
X166860535Y-67529723D01*
X166860540Y-67529727D01*
X167032442Y-67654620D01*
X167221782Y-67751095D01*
X167423871Y-67816757D01*
X167490000Y-67827231D01*
X167490000Y-66933012D01*
X167547007Y-66965925D01*
X167674174Y-67000000D01*
X167805826Y-67000000D01*
X167932993Y-66965925D01*
X167990000Y-66933012D01*
X167990000Y-67827230D01*
X168056126Y-67816757D01*
X168056129Y-67816757D01*
X168258217Y-67751095D01*
X168447557Y-67654620D01*
X168619459Y-67529727D01*
X168619464Y-67529723D01*
X168769723Y-67379464D01*
X168769727Y-67379459D01*
X168894620Y-67207557D01*
X168983408Y-67033303D01*
X169031382Y-66982507D01*
X169099203Y-66965712D01*
X169165338Y-66988249D01*
X169204377Y-67033303D01*
X169253236Y-67129194D01*
X169253240Y-67129199D01*
X169364310Y-67282073D01*
X169497927Y-67415690D01*
X169598388Y-67488679D01*
X169641051Y-67544005D01*
X169649500Y-67588994D01*
X169649500Y-71679192D01*
X169629815Y-71746231D01*
X169613181Y-71766873D01*
X164166873Y-77213181D01*
X164105550Y-77246666D01*
X164079192Y-77249500D01*
X160285929Y-77249500D01*
X160160261Y-77274497D01*
X160160255Y-77274499D01*
X160041875Y-77323533D01*
X160041866Y-77323538D01*
X159935331Y-77394723D01*
X159935327Y-77394726D01*
X157694727Y-79635325D01*
X157694724Y-79635328D01*
X157628850Y-79733917D01*
X157623536Y-79741870D01*
X157574499Y-79860255D01*
X157574497Y-79860261D01*
X157549500Y-79985928D01*
X157549500Y-101079192D01*
X157529815Y-101146231D01*
X157513181Y-101166873D01*
X151946873Y-106733181D01*
X151885550Y-106766666D01*
X151859192Y-106769500D01*
X148109423Y-106769500D01*
X148042384Y-106749815D01*
X148021746Y-106733185D01*
X147896468Y-106607907D01*
X147896467Y-106607906D01*
X147896466Y-106607905D01*
X147896463Y-106607903D01*
X147725232Y-106493490D01*
X147534961Y-106414678D01*
X147534953Y-106414676D01*
X147332976Y-106374500D01*
X147332973Y-106374500D01*
X147127027Y-106374500D01*
X147127024Y-106374500D01*
X146925046Y-106414676D01*
X146925038Y-106414678D01*
X146734767Y-106493490D01*
X146563536Y-106607903D01*
X146563528Y-106607909D01*
X146417909Y-106753528D01*
X146417903Y-106753536D01*
X146303490Y-106924767D01*
X146224678Y-107115038D01*
X146224676Y-107115046D01*
X146184500Y-107317022D01*
X146184500Y-107522977D01*
X146224676Y-107724953D01*
X146224678Y-107724961D01*
X146303490Y-107915232D01*
X146417903Y-108086463D01*
X146417909Y-108086471D01*
X146563529Y-108232091D01*
X146563532Y-108232093D01*
X146733105Y-108345398D01*
X146777911Y-108399010D01*
X146786618Y-108468334D01*
X146756464Y-108531362D01*
X146697021Y-108568082D01*
X146664215Y-108572500D01*
X137399149Y-108572500D01*
X137332110Y-108552815D01*
X137311468Y-108536181D01*
X133561238Y-104785951D01*
X146035000Y-104785951D01*
X146035000Y-104974048D01*
X146064425Y-105159831D01*
X146064425Y-105159834D01*
X146122548Y-105338718D01*
X146207942Y-105506312D01*
X146225696Y-105530749D01*
X146730707Y-105025738D01*
X146745437Y-105080712D01*
X146813896Y-105199287D01*
X146910713Y-105296104D01*
X147029288Y-105364563D01*
X147084259Y-105379292D01*
X146579248Y-105884302D01*
X146579249Y-105884303D01*
X146603680Y-105902053D01*
X146771281Y-105987451D01*
X146950166Y-106045574D01*
X147135952Y-106075000D01*
X147324048Y-106075000D01*
X147509831Y-106045574D01*
X147509834Y-106045574D01*
X147688718Y-105987451D01*
X147856316Y-105902055D01*
X147880749Y-105884303D01*
X147880749Y-105884302D01*
X147375740Y-105379292D01*
X147430712Y-105364563D01*
X147549287Y-105296104D01*
X147646104Y-105199287D01*
X147714563Y-105080712D01*
X147729292Y-105025739D01*
X148234302Y-105530749D01*
X148234303Y-105530749D01*
X148252055Y-105506316D01*
X148337451Y-105338718D01*
X148395574Y-105159834D01*
X148395574Y-105159831D01*
X148425000Y-104974048D01*
X148425000Y-104785951D01*
X148395574Y-104600168D01*
X148395574Y-104600165D01*
X148337451Y-104421281D01*
X148252053Y-104253680D01*
X148234303Y-104229249D01*
X148234302Y-104229248D01*
X147729292Y-104734259D01*
X147714563Y-104679288D01*
X147646104Y-104560713D01*
X147549287Y-104463896D01*
X147430712Y-104395437D01*
X147375739Y-104380707D01*
X147880749Y-103875696D01*
X147856312Y-103857942D01*
X147688718Y-103772548D01*
X147509833Y-103714425D01*
X147324048Y-103685000D01*
X147135952Y-103685000D01*
X146950168Y-103714425D01*
X146950165Y-103714425D01*
X146771281Y-103772548D01*
X146603681Y-103857945D01*
X146579249Y-103875696D01*
X146579248Y-103875696D01*
X147084260Y-104380707D01*
X147029288Y-104395437D01*
X146910713Y-104463896D01*
X146813896Y-104560713D01*
X146745437Y-104679288D01*
X146730707Y-104734260D01*
X146225696Y-104229248D01*
X146225696Y-104229249D01*
X146207945Y-104253681D01*
X146122548Y-104421281D01*
X146064425Y-104600165D01*
X146064425Y-104600168D01*
X146035000Y-104785951D01*
X133561238Y-104785951D01*
X131733819Y-102958532D01*
X131700334Y-102897209D01*
X131697500Y-102870851D01*
X131697500Y-102237022D01*
X146184500Y-102237022D01*
X146184500Y-102442977D01*
X146224676Y-102644953D01*
X146224678Y-102644961D01*
X146303490Y-102835232D01*
X146417903Y-103006463D01*
X146417909Y-103006471D01*
X146563528Y-103152090D01*
X146563536Y-103152096D01*
X146734767Y-103266509D01*
X146790496Y-103289592D01*
X146925039Y-103345322D01*
X147127022Y-103385499D01*
X147127025Y-103385500D01*
X147127027Y-103385500D01*
X147332975Y-103385500D01*
X147332976Y-103385499D01*
X147534961Y-103345322D01*
X147725230Y-103266510D01*
X147725230Y-103266509D01*
X147725232Y-103266509D01*
X147810275Y-103209684D01*
X147896468Y-103152093D01*
X148042093Y-103006468D01*
X148098390Y-102922213D01*
X148149576Y-102845609D01*
X148203188Y-102800804D01*
X148252678Y-102790500D01*
X149337049Y-102790500D01*
X149369135Y-102794723D01*
X149390691Y-102800499D01*
X149390695Y-102800499D01*
X149509306Y-102800499D01*
X149509309Y-102800499D01*
X149596381Y-102777169D01*
X149623885Y-102769800D01*
X149623887Y-102769799D01*
X149726614Y-102710489D01*
X149810489Y-102626614D01*
X151760489Y-100676614D01*
X151819798Y-100573887D01*
X151819799Y-100573886D01*
X151850500Y-100459309D01*
X151850500Y-97270807D01*
X151870185Y-97203768D01*
X151886821Y-97183124D01*
X151905274Y-97164671D01*
X151905276Y-97164669D01*
X151976465Y-97058127D01*
X152025501Y-96939744D01*
X152050500Y-96814069D01*
X152050500Y-96685931D01*
X152050500Y-96685928D01*
X152025502Y-96560261D01*
X152025501Y-96560260D01*
X152025501Y-96560256D01*
X151978965Y-96447909D01*
X151976466Y-96441875D01*
X151976461Y-96441866D01*
X151905276Y-96335331D01*
X151905273Y-96335327D01*
X151814672Y-96244726D01*
X151814668Y-96244723D01*
X151708133Y-96173538D01*
X151708124Y-96173533D01*
X151589744Y-96124499D01*
X151589738Y-96124497D01*
X151464071Y-96099500D01*
X151464069Y-96099500D01*
X151335931Y-96099500D01*
X151335929Y-96099500D01*
X151210261Y-96124497D01*
X151210255Y-96124499D01*
X151091875Y-96173533D01*
X151091866Y-96173538D01*
X150985331Y-96244723D01*
X150985327Y-96244726D01*
X150894726Y-96335327D01*
X150894723Y-96335331D01*
X150823538Y-96441866D01*
X150823533Y-96441875D01*
X150774499Y-96560255D01*
X150774497Y-96560261D01*
X150749500Y-96685928D01*
X150749500Y-96685931D01*
X150749500Y-96814069D01*
X150749500Y-96814071D01*
X150749499Y-96814071D01*
X150774497Y-96939738D01*
X150774499Y-96939744D01*
X150823533Y-97058124D01*
X150823538Y-97058133D01*
X150894723Y-97164668D01*
X150894725Y-97164671D01*
X150913179Y-97183124D01*
X150946666Y-97244446D01*
X150949500Y-97270807D01*
X150949500Y-100162035D01*
X150929815Y-100229074D01*
X150913181Y-100249716D01*
X149309716Y-101853181D01*
X149248393Y-101886666D01*
X149222035Y-101889500D01*
X148252678Y-101889500D01*
X148185639Y-101869815D01*
X148149576Y-101834391D01*
X148042093Y-101673532D01*
X148042090Y-101673528D01*
X147896471Y-101527909D01*
X147896463Y-101527903D01*
X147725232Y-101413490D01*
X147534961Y-101334678D01*
X147534953Y-101334676D01*
X147332976Y-101294500D01*
X147332973Y-101294500D01*
X147127027Y-101294500D01*
X147127024Y-101294500D01*
X146925046Y-101334676D01*
X146925038Y-101334678D01*
X146734767Y-101413490D01*
X146563536Y-101527903D01*
X146563528Y-101527909D01*
X146417909Y-101673528D01*
X146417903Y-101673536D01*
X146303490Y-101844767D01*
X146224678Y-102035038D01*
X146224676Y-102035046D01*
X146184500Y-102237022D01*
X131697500Y-102237022D01*
X131697500Y-98684490D01*
X131974499Y-98684490D01*
X132014292Y-98884538D01*
X132014295Y-98884548D01*
X132092348Y-99072986D01*
X132092355Y-99072999D01*
X132205674Y-99242592D01*
X132205677Y-99242596D01*
X132349903Y-99386822D01*
X132349907Y-99386825D01*
X132519500Y-99500144D01*
X132519513Y-99500151D01*
X132707951Y-99578204D01*
X132707956Y-99578206D01*
X132707960Y-99578206D01*
X132707961Y-99578207D01*
X132908009Y-99618000D01*
X132908012Y-99618000D01*
X133111990Y-99618000D01*
X133249615Y-99590624D01*
X133312044Y-99578206D01*
X133500493Y-99500148D01*
X133508141Y-99495038D01*
X133606551Y-99429283D01*
X133637370Y-99408689D01*
X133670093Y-99386825D01*
X133814325Y-99242593D01*
X133927648Y-99072993D01*
X134005706Y-98884544D01*
X134027053Y-98777226D01*
X134045500Y-98684490D01*
X134045500Y-98489238D01*
X134365000Y-98489238D01*
X134365000Y-98675761D01*
X134394178Y-98859984D01*
X134451819Y-99037384D01*
X134536498Y-99203577D01*
X134552854Y-99226090D01*
X134552855Y-99226090D01*
X135058871Y-98720074D01*
X135074755Y-98779353D01*
X135141898Y-98895647D01*
X135236853Y-98990602D01*
X135353147Y-99057745D01*
X135412424Y-99073628D01*
X134906408Y-99579643D01*
X134906408Y-99579644D01*
X134928918Y-99595999D01*
X135095115Y-99680680D01*
X135272515Y-99738321D01*
X135456739Y-99767500D01*
X135643261Y-99767500D01*
X135827484Y-99738321D01*
X136004884Y-99680680D01*
X136171075Y-99596002D01*
X136193590Y-99579643D01*
X136193591Y-99579643D01*
X135687575Y-99073627D01*
X135746853Y-99057745D01*
X135863147Y-98990602D01*
X135958102Y-98895647D01*
X136025245Y-98779353D01*
X136041128Y-98720075D01*
X136547143Y-99226091D01*
X136547143Y-99226090D01*
X136563502Y-99203575D01*
X136648180Y-99037384D01*
X136705821Y-98859984D01*
X136735000Y-98675761D01*
X136735000Y-98489238D01*
X136705821Y-98305015D01*
X136648180Y-98127615D01*
X136563499Y-97961418D01*
X136547144Y-97938908D01*
X136547143Y-97938908D01*
X136041127Y-98444923D01*
X136025245Y-98385647D01*
X135958102Y-98269353D01*
X135863147Y-98174398D01*
X135746853Y-98107255D01*
X135687574Y-98091371D01*
X136193590Y-97585355D01*
X136193590Y-97585354D01*
X136171077Y-97568998D01*
X136004884Y-97484319D01*
X135827484Y-97426678D01*
X135643261Y-97397500D01*
X135456739Y-97397500D01*
X135272515Y-97426678D01*
X135095115Y-97484319D01*
X134928927Y-97568995D01*
X134928923Y-97568998D01*
X134906408Y-97585354D01*
X134906408Y-97585356D01*
X135412425Y-98091371D01*
X135353147Y-98107255D01*
X135236853Y-98174398D01*
X135141898Y-98269353D01*
X135074755Y-98385647D01*
X135058871Y-98444924D01*
X134552856Y-97938908D01*
X134552854Y-97938908D01*
X134536498Y-97961423D01*
X134536495Y-97961427D01*
X134451819Y-98127615D01*
X134394178Y-98305015D01*
X134365000Y-98489238D01*
X134045500Y-98489238D01*
X134045500Y-98480509D01*
X134005707Y-98280461D01*
X134005706Y-98280460D01*
X134005706Y-98280456D01*
X133984370Y-98228946D01*
X133927651Y-98092013D01*
X133927644Y-98092000D01*
X133814325Y-97922407D01*
X133814322Y-97922403D01*
X133670093Y-97778174D01*
X133606549Y-97735716D01*
X133500499Y-97664855D01*
X133500486Y-97664848D01*
X133312048Y-97586795D01*
X133312038Y-97586792D01*
X133111990Y-97547000D01*
X133111988Y-97547000D01*
X132908012Y-97547000D01*
X132908010Y-97547000D01*
X132707961Y-97586792D01*
X132707951Y-97586795D01*
X132519513Y-97664848D01*
X132519500Y-97664855D01*
X132349907Y-97778174D01*
X132349903Y-97778177D01*
X132205677Y-97922403D01*
X132205674Y-97922407D01*
X132092355Y-98092000D01*
X132092348Y-98092013D01*
X132014295Y-98280451D01*
X132014292Y-98280461D01*
X131974500Y-98480509D01*
X131974500Y-98480512D01*
X131974500Y-98684488D01*
X131974500Y-98684490D01*
X131974499Y-98684490D01*
X131697500Y-98684490D01*
X131697500Y-96144490D01*
X131974499Y-96144490D01*
X132014292Y-96344538D01*
X132014295Y-96344548D01*
X132092348Y-96532986D01*
X132092355Y-96532999D01*
X132205674Y-96702592D01*
X132205677Y-96702596D01*
X132349903Y-96846822D01*
X132349907Y-96846825D01*
X132519500Y-96960144D01*
X132519513Y-96960151D01*
X132707951Y-97038204D01*
X132707956Y-97038206D01*
X132707960Y-97038206D01*
X132707961Y-97038207D01*
X132908009Y-97078000D01*
X132908012Y-97078000D01*
X133111990Y-97078000D01*
X133246579Y-97051227D01*
X133312044Y-97038206D01*
X133500493Y-96960148D01*
X133670093Y-96846825D01*
X133814325Y-96702593D01*
X133927648Y-96532993D01*
X134005706Y-96344544D01*
X134032025Y-96212230D01*
X134045500Y-96144490D01*
X134514499Y-96144490D01*
X134554292Y-96344538D01*
X134554295Y-96344548D01*
X134632348Y-96532986D01*
X134632355Y-96532999D01*
X134745674Y-96702592D01*
X134745677Y-96702596D01*
X134889903Y-96846822D01*
X134889907Y-96846825D01*
X135059500Y-96960144D01*
X135059513Y-96960151D01*
X135247951Y-97038204D01*
X135247956Y-97038206D01*
X135247960Y-97038206D01*
X135247961Y-97038207D01*
X135448009Y-97078000D01*
X135448012Y-97078000D01*
X135651990Y-97078000D01*
X135786579Y-97051227D01*
X135852044Y-97038206D01*
X136040493Y-96960148D01*
X136210093Y-96846825D01*
X136354325Y-96702593D01*
X136467648Y-96532993D01*
X136545706Y-96344544D01*
X136572025Y-96212230D01*
X136585500Y-96144490D01*
X136585500Y-95940509D01*
X136545707Y-95740461D01*
X136545706Y-95740460D01*
X136545706Y-95740456D01*
X136538039Y-95721945D01*
X136467651Y-95552013D01*
X136467644Y-95552000D01*
X136354325Y-95382407D01*
X136354322Y-95382403D01*
X136210096Y-95238177D01*
X136210092Y-95238174D01*
X136040499Y-95124855D01*
X136040486Y-95124848D01*
X135852048Y-95046795D01*
X135852038Y-95046792D01*
X135651990Y-95007000D01*
X135651988Y-95007000D01*
X135448012Y-95007000D01*
X135448010Y-95007000D01*
X135247961Y-95046792D01*
X135247951Y-95046795D01*
X135059513Y-95124848D01*
X135059500Y-95124855D01*
X134889907Y-95238174D01*
X134889903Y-95238177D01*
X134745677Y-95382403D01*
X134745674Y-95382407D01*
X134632355Y-95552000D01*
X134632348Y-95552013D01*
X134554295Y-95740451D01*
X134554292Y-95740461D01*
X134514500Y-95940509D01*
X134514500Y-95940512D01*
X134514500Y-96144488D01*
X134514500Y-96144490D01*
X134514499Y-96144490D01*
X134045500Y-96144490D01*
X134045500Y-95940509D01*
X134005707Y-95740461D01*
X134005706Y-95740460D01*
X134005706Y-95740456D01*
X133998039Y-95721945D01*
X133927651Y-95552013D01*
X133927644Y-95552000D01*
X133814325Y-95382407D01*
X133814322Y-95382403D01*
X133670096Y-95238177D01*
X133670092Y-95238174D01*
X133500499Y-95124855D01*
X133500486Y-95124848D01*
X133312048Y-95046795D01*
X133312038Y-95046792D01*
X133111990Y-95007000D01*
X133111988Y-95007000D01*
X132908012Y-95007000D01*
X132908010Y-95007000D01*
X132707961Y-95046792D01*
X132707951Y-95046795D01*
X132519513Y-95124848D01*
X132519500Y-95124855D01*
X132349907Y-95238174D01*
X132349903Y-95238177D01*
X132205677Y-95382403D01*
X132205674Y-95382407D01*
X132092355Y-95552000D01*
X132092348Y-95552013D01*
X132014295Y-95740451D01*
X132014292Y-95740461D01*
X131974500Y-95940509D01*
X131974500Y-95940512D01*
X131974500Y-96144488D01*
X131974500Y-96144490D01*
X131974499Y-96144490D01*
X131697500Y-96144490D01*
X131697500Y-93604490D01*
X131974499Y-93604490D01*
X132014292Y-93804538D01*
X132014295Y-93804548D01*
X132092348Y-93992986D01*
X132092355Y-93992999D01*
X132205674Y-94162592D01*
X132205677Y-94162596D01*
X132349903Y-94306822D01*
X132349907Y-94306825D01*
X132519500Y-94420144D01*
X132519513Y-94420151D01*
X132648035Y-94473386D01*
X132707956Y-94498206D01*
X132707960Y-94498206D01*
X132707961Y-94498207D01*
X132908009Y-94538000D01*
X132908012Y-94538000D01*
X133111990Y-94538000D01*
X133246579Y-94511227D01*
X133312044Y-94498206D01*
X133500493Y-94420148D01*
X133670093Y-94306825D01*
X133814325Y-94162593D01*
X133927648Y-93992993D01*
X134005706Y-93804544D01*
X134031826Y-93673232D01*
X134045500Y-93604490D01*
X134514499Y-93604490D01*
X134554292Y-93804538D01*
X134554295Y-93804548D01*
X134632348Y-93992986D01*
X134632355Y-93992999D01*
X134745674Y-94162592D01*
X134745677Y-94162596D01*
X134889903Y-94306822D01*
X134889907Y-94306825D01*
X135059500Y-94420144D01*
X135059513Y-94420151D01*
X135188035Y-94473386D01*
X135247956Y-94498206D01*
X135247960Y-94498206D01*
X135247961Y-94498207D01*
X135448009Y-94538000D01*
X135448012Y-94538000D01*
X135651990Y-94538000D01*
X135786579Y-94511227D01*
X135852044Y-94498206D01*
X136040493Y-94420148D01*
X136210093Y-94306825D01*
X136354325Y-94162593D01*
X136467648Y-93992993D01*
X136545706Y-93804544D01*
X136571826Y-93673232D01*
X136585500Y-93604490D01*
X136585500Y-93400508D01*
X136545707Y-93200461D01*
X136545706Y-93200460D01*
X136545706Y-93200456D01*
X136514871Y-93126013D01*
X136467651Y-93012013D01*
X136467644Y-93012000D01*
X136354325Y-92842407D01*
X136354322Y-92842403D01*
X136210096Y-92698177D01*
X136210092Y-92698174D01*
X136040499Y-92584855D01*
X136040486Y-92584848D01*
X135852048Y-92506795D01*
X135852038Y-92506792D01*
X135651990Y-92467000D01*
X135651988Y-92467000D01*
X135448012Y-92467000D01*
X135448010Y-92467000D01*
X135247961Y-92506792D01*
X135247951Y-92506795D01*
X135059513Y-92584848D01*
X135059500Y-92584855D01*
X134889907Y-92698174D01*
X134889903Y-92698177D01*
X134745677Y-92842403D01*
X134745674Y-92842407D01*
X134632355Y-93012000D01*
X134632348Y-93012013D01*
X134554295Y-93200451D01*
X134554292Y-93200461D01*
X134514500Y-93400508D01*
X134514500Y-93400510D01*
X134514500Y-93400512D01*
X134514500Y-93604488D01*
X134514500Y-93604490D01*
X134514499Y-93604490D01*
X134045500Y-93604490D01*
X134045500Y-93400508D01*
X134005707Y-93200461D01*
X134005706Y-93200460D01*
X134005706Y-93200456D01*
X133974871Y-93126013D01*
X133927651Y-93012013D01*
X133927644Y-93012000D01*
X133814325Y-92842407D01*
X133814322Y-92842403D01*
X133670096Y-92698177D01*
X133670092Y-92698174D01*
X133500499Y-92584855D01*
X133500486Y-92584848D01*
X133312048Y-92506795D01*
X133312038Y-92506792D01*
X133111990Y-92467000D01*
X133111988Y-92467000D01*
X132908012Y-92467000D01*
X132908010Y-92467000D01*
X132707961Y-92506792D01*
X132707951Y-92506795D01*
X132519513Y-92584848D01*
X132519500Y-92584855D01*
X132349907Y-92698174D01*
X132349903Y-92698177D01*
X132205677Y-92842403D01*
X132205674Y-92842407D01*
X132092355Y-93012000D01*
X132092348Y-93012013D01*
X132014295Y-93200451D01*
X132014292Y-93200461D01*
X131974500Y-93400508D01*
X131974500Y-93400510D01*
X131974500Y-93400512D01*
X131974500Y-93604488D01*
X131974500Y-93604490D01*
X131974499Y-93604490D01*
X131697500Y-93604490D01*
X131697500Y-91064490D01*
X131974499Y-91064490D01*
X132014292Y-91264538D01*
X132014295Y-91264548D01*
X132092348Y-91452986D01*
X132092355Y-91452999D01*
X132205674Y-91622592D01*
X132205677Y-91622596D01*
X132349903Y-91766822D01*
X132349907Y-91766825D01*
X132519500Y-91880144D01*
X132519513Y-91880151D01*
X132688630Y-91950201D01*
X132707956Y-91958206D01*
X132707960Y-91958206D01*
X132707961Y-91958207D01*
X132908009Y-91998000D01*
X132908012Y-91998000D01*
X133111990Y-91998000D01*
X133246579Y-91971227D01*
X133312044Y-91958206D01*
X133500493Y-91880148D01*
X133670093Y-91766825D01*
X133814325Y-91622593D01*
X133927648Y-91452993D01*
X134005706Y-91264544D01*
X134030816Y-91138308D01*
X134045500Y-91064490D01*
X134514499Y-91064490D01*
X134554292Y-91264538D01*
X134554295Y-91264548D01*
X134632348Y-91452986D01*
X134632355Y-91452999D01*
X134745674Y-91622592D01*
X134745677Y-91622596D01*
X134889903Y-91766822D01*
X134889907Y-91766825D01*
X135059500Y-91880144D01*
X135059513Y-91880151D01*
X135228630Y-91950201D01*
X135247956Y-91958206D01*
X135247960Y-91958206D01*
X135247961Y-91958207D01*
X135448009Y-91998000D01*
X135448012Y-91998000D01*
X135651990Y-91998000D01*
X135786579Y-91971227D01*
X135852044Y-91958206D01*
X136040493Y-91880148D01*
X136210093Y-91766825D01*
X136354325Y-91622593D01*
X136467648Y-91452993D01*
X136545706Y-91264544D01*
X136570816Y-91138308D01*
X136585500Y-91064490D01*
X136585500Y-90860509D01*
X136545707Y-90660461D01*
X136545706Y-90660460D01*
X136545706Y-90660456D01*
X136539437Y-90645321D01*
X136467651Y-90472013D01*
X136467644Y-90472000D01*
X136354325Y-90302407D01*
X136354322Y-90302403D01*
X136210096Y-90158177D01*
X136210092Y-90158174D01*
X136040499Y-90044855D01*
X136040486Y-90044848D01*
X135852048Y-89966795D01*
X135852038Y-89966792D01*
X135651990Y-89927000D01*
X135651988Y-89927000D01*
X135448012Y-89927000D01*
X135448010Y-89927000D01*
X135247961Y-89966792D01*
X135247951Y-89966795D01*
X135059513Y-90044848D01*
X135059500Y-90044855D01*
X134889907Y-90158174D01*
X134889903Y-90158177D01*
X134745677Y-90302403D01*
X134745674Y-90302407D01*
X134632355Y-90472000D01*
X134632348Y-90472013D01*
X134554295Y-90660451D01*
X134554292Y-90660461D01*
X134514500Y-90860509D01*
X134514500Y-90860512D01*
X134514500Y-91064488D01*
X134514500Y-91064490D01*
X134514499Y-91064490D01*
X134045500Y-91064490D01*
X134045500Y-90860509D01*
X134005707Y-90660461D01*
X134005706Y-90660460D01*
X134005706Y-90660456D01*
X133999437Y-90645321D01*
X133927651Y-90472013D01*
X133927644Y-90472000D01*
X133814325Y-90302407D01*
X133814322Y-90302403D01*
X133670096Y-90158177D01*
X133670092Y-90158174D01*
X133500499Y-90044855D01*
X133500486Y-90044848D01*
X133312048Y-89966795D01*
X133312038Y-89966792D01*
X133111990Y-89927000D01*
X133111988Y-89927000D01*
X132908012Y-89927000D01*
X132908010Y-89927000D01*
X132707961Y-89966792D01*
X132707951Y-89966795D01*
X132519513Y-90044848D01*
X132519500Y-90044855D01*
X132349907Y-90158174D01*
X132349903Y-90158177D01*
X132205677Y-90302403D01*
X132205674Y-90302407D01*
X132092355Y-90472000D01*
X132092348Y-90472013D01*
X132014295Y-90660451D01*
X132014292Y-90660461D01*
X131974500Y-90860509D01*
X131974500Y-90860512D01*
X131974500Y-91064488D01*
X131974500Y-91064490D01*
X131974499Y-91064490D01*
X131697500Y-91064490D01*
X131697500Y-88524490D01*
X131974499Y-88524490D01*
X132014292Y-88724538D01*
X132014295Y-88724548D01*
X132092348Y-88912986D01*
X132092355Y-88912999D01*
X132205674Y-89082592D01*
X132205677Y-89082596D01*
X132349903Y-89226822D01*
X132349907Y-89226825D01*
X132519500Y-89340144D01*
X132519513Y-89340151D01*
X132688630Y-89410201D01*
X132707956Y-89418206D01*
X132707960Y-89418206D01*
X132707961Y-89418207D01*
X132908009Y-89458000D01*
X132908012Y-89458000D01*
X133111990Y-89458000D01*
X133246579Y-89431227D01*
X133312044Y-89418206D01*
X133500493Y-89340148D01*
X133670093Y-89226825D01*
X133814325Y-89082593D01*
X133927648Y-88912993D01*
X134005706Y-88724544D01*
X134032978Y-88587442D01*
X134045500Y-88524490D01*
X134514499Y-88524490D01*
X134554292Y-88724538D01*
X134554295Y-88724548D01*
X134632348Y-88912986D01*
X134632355Y-88912999D01*
X134745674Y-89082592D01*
X134745677Y-89082596D01*
X134889903Y-89226822D01*
X134889907Y-89226825D01*
X135059500Y-89340144D01*
X135059513Y-89340151D01*
X135228630Y-89410201D01*
X135247956Y-89418206D01*
X135247960Y-89418206D01*
X135247961Y-89418207D01*
X135448009Y-89458000D01*
X135448012Y-89458000D01*
X135651990Y-89458000D01*
X135786579Y-89431227D01*
X135852044Y-89418206D01*
X136040493Y-89340148D01*
X136210093Y-89226825D01*
X136354325Y-89082593D01*
X136467648Y-88912993D01*
X136545706Y-88724544D01*
X136572978Y-88587442D01*
X136585500Y-88524490D01*
X136585500Y-88320509D01*
X136545707Y-88120461D01*
X136545706Y-88120460D01*
X136545706Y-88120456D01*
X136514871Y-88046013D01*
X136467651Y-87932013D01*
X136467644Y-87932000D01*
X136354325Y-87762407D01*
X136354322Y-87762403D01*
X136210096Y-87618177D01*
X136210092Y-87618174D01*
X136040499Y-87504855D01*
X136040486Y-87504848D01*
X135852048Y-87426795D01*
X135852038Y-87426792D01*
X135651990Y-87387000D01*
X135651988Y-87387000D01*
X135448012Y-87387000D01*
X135448010Y-87387000D01*
X135247961Y-87426792D01*
X135247951Y-87426795D01*
X135059513Y-87504848D01*
X135059500Y-87504855D01*
X134889907Y-87618174D01*
X134889903Y-87618177D01*
X134745677Y-87762403D01*
X134745674Y-87762407D01*
X134632355Y-87932000D01*
X134632348Y-87932013D01*
X134554295Y-88120451D01*
X134554292Y-88120461D01*
X134514500Y-88320509D01*
X134514500Y-88320512D01*
X134514500Y-88524488D01*
X134514500Y-88524490D01*
X134514499Y-88524490D01*
X134045500Y-88524490D01*
X134045500Y-88320509D01*
X134005707Y-88120461D01*
X134005706Y-88120460D01*
X134005706Y-88120456D01*
X133974871Y-88046013D01*
X133927651Y-87932013D01*
X133927644Y-87932000D01*
X133814325Y-87762407D01*
X133814322Y-87762403D01*
X133670096Y-87618177D01*
X133670092Y-87618174D01*
X133500499Y-87504855D01*
X133500486Y-87504848D01*
X133312048Y-87426795D01*
X133312038Y-87426792D01*
X133111990Y-87387000D01*
X133111988Y-87387000D01*
X132908012Y-87387000D01*
X132908010Y-87387000D01*
X132707961Y-87426792D01*
X132707951Y-87426795D01*
X132519513Y-87504848D01*
X132519500Y-87504855D01*
X132349907Y-87618174D01*
X132349903Y-87618177D01*
X132205677Y-87762403D01*
X132205674Y-87762407D01*
X132092355Y-87932000D01*
X132092348Y-87932013D01*
X132014295Y-88120451D01*
X132014292Y-88120461D01*
X131974500Y-88320509D01*
X131974500Y-88320512D01*
X131974500Y-88524488D01*
X131974500Y-88524490D01*
X131974499Y-88524490D01*
X131697500Y-88524490D01*
X131697500Y-85984490D01*
X131974499Y-85984490D01*
X132014292Y-86184538D01*
X132014295Y-86184548D01*
X132092348Y-86372986D01*
X132092355Y-86372999D01*
X132205674Y-86542592D01*
X132205677Y-86542596D01*
X132349903Y-86686822D01*
X132349907Y-86686825D01*
X132519500Y-86800144D01*
X132519513Y-86800151D01*
X132688630Y-86870201D01*
X132707956Y-86878206D01*
X132707960Y-86878206D01*
X132707961Y-86878207D01*
X132908009Y-86918000D01*
X132908012Y-86918000D01*
X133111990Y-86918000D01*
X133246579Y-86891227D01*
X133312044Y-86878206D01*
X133500493Y-86800148D01*
X133670093Y-86686825D01*
X133814325Y-86542593D01*
X133927648Y-86372993D01*
X134005706Y-86184544D01*
X134025965Y-86082696D01*
X134045500Y-85984490D01*
X134514499Y-85984490D01*
X134554292Y-86184538D01*
X134554295Y-86184548D01*
X134632348Y-86372986D01*
X134632355Y-86372999D01*
X134745674Y-86542592D01*
X134745677Y-86542596D01*
X134889903Y-86686822D01*
X134889907Y-86686825D01*
X135059500Y-86800144D01*
X135059513Y-86800151D01*
X135228630Y-86870201D01*
X135247956Y-86878206D01*
X135247960Y-86878206D01*
X135247961Y-86878207D01*
X135448009Y-86918000D01*
X135448012Y-86918000D01*
X135651990Y-86918000D01*
X135786579Y-86891227D01*
X135852044Y-86878206D01*
X136040493Y-86800148D01*
X136210093Y-86686825D01*
X136354325Y-86542593D01*
X136467648Y-86372993D01*
X136545706Y-86184544D01*
X136565965Y-86082696D01*
X136585500Y-85984490D01*
X136585500Y-85780509D01*
X136545707Y-85580461D01*
X136545706Y-85580460D01*
X136545706Y-85580456D01*
X136514871Y-85506013D01*
X136467651Y-85392013D01*
X136467644Y-85392000D01*
X136354325Y-85222407D01*
X136354322Y-85222403D01*
X136210096Y-85078177D01*
X136210092Y-85078174D01*
X136040499Y-84964855D01*
X136040486Y-84964848D01*
X135852048Y-84886795D01*
X135852038Y-84886792D01*
X135651990Y-84847000D01*
X135651988Y-84847000D01*
X135448012Y-84847000D01*
X135448010Y-84847000D01*
X135247961Y-84886792D01*
X135247951Y-84886795D01*
X135059513Y-84964848D01*
X135059500Y-84964855D01*
X134889907Y-85078174D01*
X134889903Y-85078177D01*
X134745677Y-85222403D01*
X134745674Y-85222407D01*
X134632355Y-85392000D01*
X134632348Y-85392013D01*
X134554295Y-85580451D01*
X134554292Y-85580461D01*
X134514500Y-85780509D01*
X134514500Y-85780512D01*
X134514500Y-85984488D01*
X134514500Y-85984490D01*
X134514499Y-85984490D01*
X134045500Y-85984490D01*
X134045500Y-85780509D01*
X134005707Y-85580461D01*
X134005706Y-85580460D01*
X134005706Y-85580456D01*
X133974871Y-85506013D01*
X133927651Y-85392013D01*
X133927644Y-85392000D01*
X133814325Y-85222407D01*
X133814322Y-85222403D01*
X133670096Y-85078177D01*
X133670092Y-85078174D01*
X133500499Y-84964855D01*
X133500486Y-84964848D01*
X133312048Y-84886795D01*
X133312038Y-84886792D01*
X133111990Y-84847000D01*
X133111988Y-84847000D01*
X132908012Y-84847000D01*
X132908010Y-84847000D01*
X132707961Y-84886792D01*
X132707951Y-84886795D01*
X132519513Y-84964848D01*
X132519500Y-84964855D01*
X132349907Y-85078174D01*
X132349903Y-85078177D01*
X132205677Y-85222403D01*
X132205674Y-85222407D01*
X132092355Y-85392000D01*
X132092348Y-85392013D01*
X132014295Y-85580451D01*
X132014292Y-85580461D01*
X131974500Y-85780509D01*
X131974500Y-85780512D01*
X131974500Y-85984488D01*
X131974500Y-85984490D01*
X131974499Y-85984490D01*
X131697500Y-85984490D01*
X131697500Y-83444490D01*
X131974499Y-83444490D01*
X132014292Y-83644538D01*
X132014295Y-83644548D01*
X132092348Y-83832986D01*
X132092355Y-83832999D01*
X132205674Y-84002592D01*
X132205677Y-84002596D01*
X132349903Y-84146822D01*
X132349907Y-84146825D01*
X132519500Y-84260144D01*
X132519513Y-84260151D01*
X132688630Y-84330201D01*
X132707956Y-84338206D01*
X132707960Y-84338206D01*
X132707961Y-84338207D01*
X132908009Y-84378000D01*
X132908012Y-84378000D01*
X133111990Y-84378000D01*
X133246579Y-84351227D01*
X133312044Y-84338206D01*
X133500493Y-84260148D01*
X133528463Y-84241459D01*
X133606551Y-84189283D01*
X133637370Y-84168689D01*
X133670093Y-84146825D01*
X133814325Y-84002593D01*
X133927648Y-83832993D01*
X134005706Y-83644544D01*
X134027655Y-83534200D01*
X134045500Y-83444490D01*
X134045500Y-83249238D01*
X134365000Y-83249238D01*
X134365000Y-83435761D01*
X134394178Y-83619984D01*
X134451819Y-83797384D01*
X134536498Y-83963577D01*
X134552854Y-83986090D01*
X134552855Y-83986090D01*
X135058871Y-83480074D01*
X135074755Y-83539353D01*
X135141898Y-83655647D01*
X135236853Y-83750602D01*
X135353147Y-83817745D01*
X135412424Y-83833628D01*
X134906408Y-84339643D01*
X134906408Y-84339644D01*
X134928918Y-84355999D01*
X135095115Y-84440680D01*
X135272515Y-84498321D01*
X135456739Y-84527500D01*
X135643261Y-84527500D01*
X135827484Y-84498321D01*
X136004884Y-84440680D01*
X136171075Y-84356002D01*
X136193590Y-84339643D01*
X136193591Y-84339643D01*
X135687575Y-83833627D01*
X135746853Y-83817745D01*
X135863147Y-83750602D01*
X135958102Y-83655647D01*
X136025245Y-83539353D01*
X136041128Y-83480075D01*
X136547143Y-83986091D01*
X136547143Y-83986090D01*
X136563502Y-83963575D01*
X136648180Y-83797384D01*
X136705821Y-83619984D01*
X136735000Y-83435761D01*
X136735000Y-83249238D01*
X136705821Y-83065015D01*
X136648180Y-82887615D01*
X136563499Y-82721418D01*
X136547144Y-82698908D01*
X136547143Y-82698908D01*
X136041127Y-83204923D01*
X136025245Y-83145647D01*
X135958102Y-83029353D01*
X135863147Y-82934398D01*
X135746853Y-82867255D01*
X135687574Y-82851371D01*
X136193590Y-82345355D01*
X136193590Y-82345354D01*
X136171077Y-82328998D01*
X136004884Y-82244319D01*
X135827484Y-82186678D01*
X135643261Y-82157500D01*
X135456739Y-82157500D01*
X135272515Y-82186678D01*
X135095115Y-82244319D01*
X134928927Y-82328995D01*
X134928923Y-82328998D01*
X134906408Y-82345354D01*
X134906408Y-82345356D01*
X135412425Y-82851371D01*
X135353147Y-82867255D01*
X135236853Y-82934398D01*
X135141898Y-83029353D01*
X135074755Y-83145647D01*
X135058871Y-83204924D01*
X134552856Y-82698908D01*
X134552854Y-82698908D01*
X134536498Y-82721423D01*
X134536495Y-82721427D01*
X134451819Y-82887615D01*
X134394178Y-83065015D01*
X134365000Y-83249238D01*
X134045500Y-83249238D01*
X134045500Y-83240509D01*
X134005707Y-83040461D01*
X134005706Y-83040460D01*
X134005706Y-83040456D01*
X133974871Y-82966013D01*
X133927651Y-82852013D01*
X133927644Y-82852000D01*
X133814325Y-82682407D01*
X133814322Y-82682403D01*
X133670093Y-82538174D01*
X133606549Y-82495716D01*
X133500499Y-82424855D01*
X133500486Y-82424848D01*
X133312048Y-82346795D01*
X133312038Y-82346792D01*
X133111990Y-82307000D01*
X133111988Y-82307000D01*
X132908012Y-82307000D01*
X132908010Y-82307000D01*
X132707961Y-82346792D01*
X132707951Y-82346795D01*
X132519513Y-82424848D01*
X132519500Y-82424855D01*
X132349907Y-82538174D01*
X132349903Y-82538177D01*
X132205677Y-82682403D01*
X132205674Y-82682407D01*
X132092355Y-82852000D01*
X132092348Y-82852013D01*
X132014295Y-83040451D01*
X132014292Y-83040461D01*
X131974500Y-83240509D01*
X131974500Y-83240512D01*
X131974500Y-83444488D01*
X131974500Y-83444490D01*
X131974499Y-83444490D01*
X131697500Y-83444490D01*
X131697500Y-81266422D01*
X131717185Y-81199383D01*
X131718397Y-81197532D01*
X131747397Y-81154130D01*
X131801009Y-81109324D01*
X131870334Y-81100617D01*
X131933362Y-81130771D01*
X131970082Y-81190214D01*
X131974500Y-81223020D01*
X131974500Y-81520760D01*
X131984426Y-81588891D01*
X132035803Y-81693985D01*
X132118514Y-81776696D01*
X132118515Y-81776696D01*
X132118517Y-81776698D01*
X132223607Y-81828073D01*
X132257673Y-81833036D01*
X132291739Y-81838000D01*
X132291740Y-81838000D01*
X133728261Y-81838000D01*
X133750971Y-81834691D01*
X133796393Y-81828073D01*
X133901483Y-81776698D01*
X133984198Y-81693983D01*
X134035573Y-81588893D01*
X134045500Y-81520760D01*
X134045500Y-80904490D01*
X134514499Y-80904490D01*
X134554292Y-81104538D01*
X134554295Y-81104548D01*
X134632348Y-81292986D01*
X134632355Y-81292999D01*
X134745674Y-81462592D01*
X134745677Y-81462596D01*
X134889903Y-81606822D01*
X134889907Y-81606825D01*
X135059500Y-81720144D01*
X135059513Y-81720151D01*
X135228630Y-81790201D01*
X135247956Y-81798206D01*
X135247960Y-81798206D01*
X135247961Y-81798207D01*
X135448009Y-81838000D01*
X135448012Y-81838000D01*
X135651990Y-81838000D01*
X135786579Y-81811227D01*
X135852044Y-81798206D01*
X136040493Y-81720148D01*
X136210093Y-81606825D01*
X136354325Y-81462593D01*
X136467648Y-81292993D01*
X136545706Y-81104544D01*
X136585500Y-80904488D01*
X136585500Y-80700512D01*
X136585500Y-80700509D01*
X136545707Y-80500461D01*
X136545706Y-80500460D01*
X136545706Y-80500456D01*
X136543186Y-80494373D01*
X136467651Y-80312013D01*
X136467644Y-80312000D01*
X136354325Y-80142407D01*
X136354322Y-80142403D01*
X136210096Y-79998177D01*
X136210092Y-79998174D01*
X136040499Y-79884855D01*
X136040486Y-79884848D01*
X135852048Y-79806795D01*
X135852038Y-79806792D01*
X135651990Y-79767000D01*
X135651988Y-79767000D01*
X135448012Y-79767000D01*
X135448010Y-79767000D01*
X135247961Y-79806792D01*
X135247951Y-79806795D01*
X135059513Y-79884848D01*
X135059500Y-79884855D01*
X134889907Y-79998174D01*
X134889903Y-79998177D01*
X134745677Y-80142403D01*
X134745674Y-80142407D01*
X134632355Y-80312000D01*
X134632348Y-80312013D01*
X134554295Y-80500451D01*
X134554292Y-80500461D01*
X134514500Y-80700509D01*
X134514500Y-80700512D01*
X134514500Y-80904488D01*
X134514500Y-80904490D01*
X134514499Y-80904490D01*
X134045500Y-80904490D01*
X134045500Y-80084240D01*
X134035573Y-80016107D01*
X133984198Y-79911017D01*
X133984196Y-79911015D01*
X133984196Y-79911014D01*
X133901485Y-79828303D01*
X133796391Y-79776926D01*
X133728261Y-79767000D01*
X133728260Y-79767000D01*
X132291740Y-79767000D01*
X132291739Y-79767000D01*
X132223608Y-79776926D01*
X132118514Y-79828303D01*
X132035803Y-79911014D01*
X131984426Y-80016108D01*
X131974500Y-80084239D01*
X131974500Y-80381979D01*
X131954815Y-80449018D01*
X131902011Y-80494773D01*
X131832853Y-80504717D01*
X131769297Y-80475692D01*
X131747398Y-80450870D01*
X131705276Y-80387831D01*
X131705273Y-80387827D01*
X131614672Y-80297226D01*
X131614668Y-80297223D01*
X131508133Y-80226038D01*
X131508124Y-80226033D01*
X131389744Y-80176999D01*
X131389738Y-80176997D01*
X131264071Y-80152000D01*
X131264069Y-80152000D01*
X131135931Y-80152000D01*
X131135929Y-80152000D01*
X131010261Y-80176997D01*
X131010255Y-80176999D01*
X130891875Y-80226033D01*
X130891866Y-80226038D01*
X130785331Y-80297223D01*
X130785327Y-80297226D01*
X130694726Y-80387827D01*
X130694723Y-80387831D01*
X130623538Y-80494366D01*
X130623533Y-80494375D01*
X130574499Y-80612755D01*
X130574497Y-80612761D01*
X130549500Y-80738428D01*
X130549500Y-80738431D01*
X130549500Y-80866569D01*
X130549500Y-80866571D01*
X130549499Y-80866571D01*
X130574497Y-80992238D01*
X130574499Y-80992244D01*
X130623533Y-81110624D01*
X130623538Y-81110633D01*
X130694723Y-81217168D01*
X130694725Y-81217171D01*
X130706178Y-81228623D01*
X130739665Y-81289945D01*
X130742500Y-81316307D01*
X130742500Y-83230649D01*
X130722815Y-83297688D01*
X130670011Y-83343443D01*
X130600853Y-83353387D01*
X130549610Y-83333752D01*
X130508131Y-83306037D01*
X130508124Y-83306033D01*
X130389744Y-83256999D01*
X130389738Y-83256997D01*
X130264071Y-83232000D01*
X130264069Y-83232000D01*
X130135931Y-83232000D01*
X130135929Y-83232000D01*
X130010261Y-83256997D01*
X130010255Y-83256999D01*
X129891875Y-83306033D01*
X129891866Y-83306038D01*
X129785331Y-83377223D01*
X129785327Y-83377226D01*
X129694726Y-83467827D01*
X129694723Y-83467831D01*
X129623538Y-83574366D01*
X129623533Y-83574375D01*
X129574499Y-83692755D01*
X129574497Y-83692761D01*
X129549500Y-83818428D01*
X129549500Y-83818431D01*
X129549500Y-83946569D01*
X129549500Y-83946571D01*
X129549499Y-83946571D01*
X129574497Y-84072238D01*
X129574499Y-84072244D01*
X129623533Y-84190624D01*
X129623538Y-84190633D01*
X129694723Y-84297168D01*
X129694725Y-84297171D01*
X129713179Y-84315624D01*
X129746666Y-84376946D01*
X129749500Y-84403307D01*
X129749500Y-86315327D01*
X129729815Y-86382366D01*
X129677011Y-86428121D01*
X129607853Y-86438065D01*
X129556609Y-86418429D01*
X129508133Y-86386038D01*
X129508124Y-86386033D01*
X129389744Y-86336999D01*
X129389738Y-86336997D01*
X129264071Y-86312000D01*
X129264069Y-86312000D01*
X129135931Y-86312000D01*
X129135929Y-86312000D01*
X129010261Y-86336997D01*
X129010255Y-86336999D01*
X128891875Y-86386033D01*
X128891866Y-86386038D01*
X128785331Y-86457223D01*
X128785327Y-86457226D01*
X128694726Y-86547827D01*
X128694723Y-86547831D01*
X128623538Y-86654366D01*
X128623533Y-86654375D01*
X128574499Y-86772755D01*
X128574497Y-86772761D01*
X128549500Y-86898428D01*
X128549500Y-86898431D01*
X128549500Y-87026569D01*
X128549500Y-87026571D01*
X128549499Y-87026571D01*
X128574497Y-87152238D01*
X128574499Y-87152244D01*
X128623533Y-87270624D01*
X128623538Y-87270633D01*
X128694723Y-87377168D01*
X128694725Y-87377171D01*
X128713179Y-87395624D01*
X128746666Y-87456946D01*
X128749500Y-87483307D01*
X128749500Y-89395327D01*
X128729815Y-89462366D01*
X128677011Y-89508121D01*
X128607853Y-89518065D01*
X128556609Y-89498429D01*
X128508133Y-89466038D01*
X128508124Y-89466033D01*
X128389744Y-89416999D01*
X128389738Y-89416997D01*
X128264071Y-89392000D01*
X128264069Y-89392000D01*
X128135931Y-89392000D01*
X128135929Y-89392000D01*
X128010261Y-89416997D01*
X128010255Y-89416999D01*
X127891875Y-89466033D01*
X127891866Y-89466038D01*
X127785331Y-89537223D01*
X127785327Y-89537226D01*
X127694726Y-89627827D01*
X127694723Y-89627831D01*
X127623538Y-89734366D01*
X127623533Y-89734375D01*
X127574499Y-89852755D01*
X127574497Y-89852761D01*
X127549500Y-89978428D01*
X127549500Y-90106571D01*
X127574497Y-90232238D01*
X127574499Y-90232244D01*
X127623533Y-90350624D01*
X127623538Y-90350633D01*
X127694723Y-90457168D01*
X127694725Y-90457171D01*
X127713179Y-90475624D01*
X127746666Y-90536946D01*
X127749500Y-90563307D01*
X127749500Y-92475327D01*
X127729815Y-92542366D01*
X127677011Y-92588121D01*
X127607853Y-92598065D01*
X127556609Y-92578429D01*
X127508133Y-92546038D01*
X127508124Y-92546033D01*
X127389744Y-92496999D01*
X127389738Y-92496997D01*
X127264071Y-92472000D01*
X127264069Y-92472000D01*
X127135931Y-92472000D01*
X127135929Y-92472000D01*
X127010261Y-92496997D01*
X127010255Y-92496999D01*
X126891875Y-92546033D01*
X126891866Y-92546038D01*
X126785331Y-92617223D01*
X126785327Y-92617226D01*
X126694726Y-92707827D01*
X126694723Y-92707831D01*
X126623538Y-92814366D01*
X126623533Y-92814375D01*
X126574499Y-92932755D01*
X126574497Y-92932761D01*
X126549500Y-93058428D01*
X126549500Y-93058431D01*
X126549500Y-93186569D01*
X126549500Y-93186571D01*
X126549499Y-93186571D01*
X126574497Y-93312238D01*
X126574499Y-93312244D01*
X126623533Y-93430624D01*
X126623538Y-93430633D01*
X126694723Y-93537168D01*
X126694725Y-93537171D01*
X126713179Y-93555624D01*
X126746666Y-93616946D01*
X126749500Y-93643307D01*
X126749500Y-95555327D01*
X126729815Y-95622366D01*
X126677011Y-95668121D01*
X126607853Y-95678065D01*
X126556609Y-95658429D01*
X126508133Y-95626038D01*
X126508124Y-95626033D01*
X126389744Y-95576999D01*
X126389738Y-95576997D01*
X126264071Y-95552000D01*
X126264069Y-95552000D01*
X126135931Y-95552000D01*
X126135929Y-95552000D01*
X126010261Y-95576997D01*
X126010255Y-95576999D01*
X125891875Y-95626033D01*
X125891866Y-95626038D01*
X125785331Y-95697223D01*
X125785327Y-95697226D01*
X125694726Y-95787827D01*
X125694723Y-95787831D01*
X125623538Y-95894366D01*
X125623533Y-95894375D01*
X125574499Y-96012755D01*
X125574497Y-96012761D01*
X125549500Y-96138428D01*
X125549500Y-96138431D01*
X125549500Y-96266569D01*
X125549500Y-96266571D01*
X125549499Y-96266571D01*
X125574497Y-96392238D01*
X125574499Y-96392244D01*
X125623533Y-96510624D01*
X125623538Y-96510633D01*
X125694723Y-96617168D01*
X125694725Y-96617171D01*
X125713179Y-96635624D01*
X125746666Y-96696946D01*
X125749500Y-96723307D01*
X125749500Y-98635327D01*
X125729815Y-98702366D01*
X125677011Y-98748121D01*
X125607853Y-98758065D01*
X125556609Y-98738429D01*
X125508133Y-98706038D01*
X125508124Y-98706033D01*
X125389744Y-98656999D01*
X125389738Y-98656997D01*
X125264071Y-98632000D01*
X125264069Y-98632000D01*
X125135931Y-98632000D01*
X125135929Y-98632000D01*
X125010261Y-98656997D01*
X125010255Y-98656999D01*
X124891875Y-98706033D01*
X124891866Y-98706038D01*
X124785331Y-98777223D01*
X124785327Y-98777226D01*
X124694726Y-98867827D01*
X124694723Y-98867831D01*
X124623538Y-98974366D01*
X124623533Y-98974375D01*
X124574499Y-99092755D01*
X124574497Y-99092761D01*
X124549500Y-99218428D01*
X124549500Y-99218431D01*
X124549500Y-99346569D01*
X124549500Y-99346571D01*
X124549499Y-99346571D01*
X124574497Y-99472238D01*
X124574499Y-99472244D01*
X124623533Y-99590624D01*
X124623538Y-99590633D01*
X124694723Y-99697168D01*
X124694725Y-99697171D01*
X124713179Y-99715624D01*
X124746666Y-99776946D01*
X124749500Y-99803307D01*
X124749500Y-101715327D01*
X124729815Y-101782366D01*
X124677011Y-101828121D01*
X124607853Y-101838065D01*
X124556609Y-101818429D01*
X124508133Y-101786038D01*
X124508124Y-101786033D01*
X124389744Y-101736999D01*
X124389738Y-101736997D01*
X124264071Y-101712000D01*
X124264069Y-101712000D01*
X124135931Y-101712000D01*
X124135929Y-101712000D01*
X124010261Y-101736997D01*
X124010255Y-101736999D01*
X123891875Y-101786033D01*
X123891866Y-101786038D01*
X123785331Y-101857223D01*
X123785327Y-101857226D01*
X123694726Y-101947827D01*
X123694723Y-101947831D01*
X123623538Y-102054366D01*
X123623533Y-102054375D01*
X123574499Y-102172755D01*
X123574497Y-102172761D01*
X123549500Y-102298428D01*
X123549500Y-102298431D01*
X123549500Y-102426569D01*
X123549500Y-102426571D01*
X123549499Y-102426571D01*
X122875500Y-102426571D01*
X122875500Y-102237027D01*
X122875500Y-102237024D01*
X122875499Y-102237022D01*
X122839168Y-102054375D01*
X122835322Y-102035039D01*
X122766884Y-101869815D01*
X122756509Y-101844767D01*
X122642096Y-101673536D01*
X122642090Y-101673528D01*
X122496471Y-101527909D01*
X122496463Y-101527903D01*
X122325232Y-101413490D01*
X122134961Y-101334678D01*
X122134953Y-101334676D01*
X121932976Y-101294500D01*
X121932973Y-101294500D01*
X121727027Y-101294500D01*
X121727024Y-101294500D01*
X121525046Y-101334676D01*
X121525038Y-101334678D01*
X121334767Y-101413490D01*
X121163536Y-101527903D01*
X121163528Y-101527909D01*
X121017909Y-101673528D01*
X121017903Y-101673536D01*
X120903490Y-101844767D01*
X120824678Y-102035038D01*
X120824676Y-102035046D01*
X120784500Y-102237022D01*
X120500500Y-102237022D01*
X120500500Y-99697022D01*
X120784500Y-99697022D01*
X120784500Y-99902977D01*
X120824676Y-100104953D01*
X120824678Y-100104961D01*
X120903490Y-100295232D01*
X121017903Y-100466463D01*
X121017909Y-100466471D01*
X121163528Y-100612090D01*
X121163536Y-100612096D01*
X121334767Y-100726509D01*
X121381854Y-100746013D01*
X121525039Y-100805322D01*
X121727022Y-100845499D01*
X121727025Y-100845500D01*
X121727027Y-100845500D01*
X121932975Y-100845500D01*
X121932976Y-100845499D01*
X122134961Y-100805322D01*
X122325230Y-100726510D01*
X122325230Y-100726509D01*
X122325232Y-100726509D01*
X122410275Y-100669684D01*
X122496468Y-100612093D01*
X122642093Y-100466468D01*
X122756510Y-100295230D01*
X122835322Y-100104961D01*
X122875500Y-99902973D01*
X122875500Y-99697027D01*
X122875500Y-99697024D01*
X122875499Y-99697022D01*
X122862363Y-99630983D01*
X122835322Y-99495039D01*
X122756510Y-99304770D01*
X122756509Y-99304767D01*
X122642096Y-99133536D01*
X122642090Y-99133528D01*
X122496471Y-98987909D01*
X122496463Y-98987903D01*
X122325232Y-98873490D01*
X122134961Y-98794678D01*
X122134953Y-98794676D01*
X121932976Y-98754500D01*
X121932973Y-98754500D01*
X121727027Y-98754500D01*
X121727024Y-98754500D01*
X121525046Y-98794676D01*
X121525038Y-98794678D01*
X121334767Y-98873490D01*
X121163536Y-98987903D01*
X121163528Y-98987909D01*
X121017909Y-99133528D01*
X121017903Y-99133536D01*
X120903490Y-99304767D01*
X120824678Y-99495038D01*
X120824676Y-99495046D01*
X120784500Y-99697022D01*
X120500500Y-99697022D01*
X120500500Y-97157022D01*
X120784500Y-97157022D01*
X120784500Y-97362977D01*
X120824676Y-97564953D01*
X120824678Y-97564961D01*
X120903490Y-97755232D01*
X121017903Y-97926463D01*
X121017909Y-97926471D01*
X121163528Y-98072090D01*
X121163536Y-98072096D01*
X121334767Y-98186509D01*
X121390496Y-98209592D01*
X121525039Y-98265322D01*
X121708597Y-98301834D01*
X121727022Y-98305499D01*
X121727025Y-98305500D01*
X121727027Y-98305500D01*
X121932975Y-98305500D01*
X121932976Y-98305499D01*
X122134961Y-98265322D01*
X122325230Y-98186510D01*
X122325230Y-98186509D01*
X122325232Y-98186509D01*
X122466675Y-98092000D01*
X122496468Y-98072093D01*
X122642093Y-97926468D01*
X122735616Y-97786500D01*
X122756509Y-97755232D01*
X122764593Y-97735716D01*
X122835322Y-97564961D01*
X122875500Y-97362973D01*
X122875500Y-97157027D01*
X122875500Y-97157024D01*
X122875499Y-97157022D01*
X122864371Y-97101077D01*
X122835322Y-96955039D01*
X122756510Y-96764770D01*
X122756509Y-96764767D01*
X122642096Y-96593536D01*
X122642090Y-96593528D01*
X122496471Y-96447909D01*
X122496463Y-96447903D01*
X122325232Y-96333490D01*
X122134961Y-96254678D01*
X122134953Y-96254676D01*
X121932976Y-96214500D01*
X121932973Y-96214500D01*
X121727027Y-96214500D01*
X121727024Y-96214500D01*
X121525046Y-96254676D01*
X121525038Y-96254678D01*
X121334767Y-96333490D01*
X121163536Y-96447903D01*
X121163528Y-96447909D01*
X121017909Y-96593528D01*
X121017903Y-96593536D01*
X120903490Y-96764767D01*
X120824678Y-96955038D01*
X120824676Y-96955046D01*
X120784500Y-97157022D01*
X120500500Y-97157022D01*
X120500500Y-94617022D01*
X120784500Y-94617022D01*
X120784500Y-94822977D01*
X120824676Y-95024953D01*
X120824678Y-95024961D01*
X120903490Y-95215232D01*
X121017903Y-95386463D01*
X121017909Y-95386471D01*
X121163528Y-95532090D01*
X121163536Y-95532096D01*
X121334767Y-95646509D01*
X121363545Y-95658429D01*
X121525039Y-95725322D01*
X121727022Y-95765499D01*
X121727025Y-95765500D01*
X121727027Y-95765500D01*
X121932975Y-95765500D01*
X121932976Y-95765499D01*
X122134961Y-95725322D01*
X122325230Y-95646510D01*
X122325230Y-95646509D01*
X122325232Y-95646509D01*
X122429264Y-95576997D01*
X122496468Y-95532093D01*
X122642093Y-95386468D01*
X122729754Y-95255273D01*
X122756509Y-95215232D01*
X122757419Y-95213035D01*
X122835322Y-95024961D01*
X122875500Y-94822973D01*
X122875500Y-94617027D01*
X122875500Y-94617024D01*
X122875499Y-94617022D01*
X122870497Y-94591875D01*
X122835322Y-94415039D01*
X122766177Y-94248108D01*
X122756509Y-94224767D01*
X122642096Y-94053536D01*
X122642090Y-94053528D01*
X122496471Y-93907909D01*
X122496463Y-93907903D01*
X122325232Y-93793490D01*
X122134961Y-93714678D01*
X122134953Y-93714676D01*
X121932976Y-93674500D01*
X121932973Y-93674500D01*
X121727027Y-93674500D01*
X121727024Y-93674500D01*
X121525046Y-93714676D01*
X121525038Y-93714678D01*
X121334767Y-93793490D01*
X121163536Y-93907903D01*
X121163528Y-93907909D01*
X121017909Y-94053528D01*
X121017903Y-94053536D01*
X120903490Y-94224767D01*
X120824678Y-94415038D01*
X120824676Y-94415046D01*
X120784500Y-94617022D01*
X120500500Y-94617022D01*
X120500500Y-92077022D01*
X120784500Y-92077022D01*
X120784500Y-92282977D01*
X120824676Y-92484953D01*
X120824678Y-92484961D01*
X120903490Y-92675232D01*
X121017903Y-92846463D01*
X121017909Y-92846471D01*
X121163528Y-92992090D01*
X121163536Y-92992096D01*
X121334767Y-93106509D01*
X121381854Y-93126013D01*
X121525039Y-93185322D01*
X121727022Y-93225499D01*
X121727025Y-93225500D01*
X121727027Y-93225500D01*
X121932975Y-93225500D01*
X121932976Y-93225499D01*
X122134961Y-93185322D01*
X122325230Y-93106510D01*
X122325230Y-93106509D01*
X122325232Y-93106509D01*
X122410275Y-93049684D01*
X122496468Y-92992093D01*
X122642093Y-92846468D01*
X122734727Y-92707831D01*
X122756509Y-92675232D01*
X122756510Y-92675230D01*
X122835322Y-92484961D01*
X122875500Y-92282973D01*
X122875500Y-92077027D01*
X122875500Y-92077025D01*
X122875500Y-92077024D01*
X122875499Y-92077022D01*
X122869864Y-92048692D01*
X122835322Y-91875039D01*
X122756510Y-91684770D01*
X122756509Y-91684767D01*
X122642096Y-91513536D01*
X122642090Y-91513528D01*
X122496471Y-91367909D01*
X122496463Y-91367903D01*
X122325232Y-91253490D01*
X122134961Y-91174678D01*
X122134953Y-91174676D01*
X121932976Y-91134500D01*
X121932973Y-91134500D01*
X121727027Y-91134500D01*
X121727024Y-91134500D01*
X121525046Y-91174676D01*
X121525038Y-91174678D01*
X121334767Y-91253490D01*
X121163536Y-91367903D01*
X121163528Y-91367909D01*
X121017909Y-91513528D01*
X121017903Y-91513536D01*
X120903490Y-91684767D01*
X120824678Y-91875038D01*
X120824676Y-91875046D01*
X120784500Y-92077022D01*
X120500500Y-92077022D01*
X120500500Y-89537022D01*
X120784500Y-89537022D01*
X120784500Y-89742977D01*
X120824676Y-89944953D01*
X120824678Y-89944961D01*
X120903490Y-90135232D01*
X121017903Y-90306463D01*
X121017909Y-90306471D01*
X121163528Y-90452090D01*
X121163536Y-90452096D01*
X121334767Y-90566509D01*
X121381854Y-90586013D01*
X121525039Y-90645322D01*
X121727022Y-90685499D01*
X121727025Y-90685500D01*
X121727027Y-90685500D01*
X121932975Y-90685500D01*
X121932976Y-90685499D01*
X122134961Y-90645322D01*
X122325230Y-90566510D01*
X122325230Y-90566509D01*
X122325232Y-90566509D01*
X122488871Y-90457169D01*
X122496468Y-90452093D01*
X122642093Y-90306468D01*
X122699684Y-90220275D01*
X122756509Y-90135232D01*
X122768381Y-90106571D01*
X122835322Y-89944961D01*
X122875500Y-89742973D01*
X122875500Y-89537027D01*
X122875500Y-89537024D01*
X122875499Y-89537022D01*
X122867822Y-89498429D01*
X122835322Y-89335039D01*
X122756510Y-89144770D01*
X122756509Y-89144767D01*
X122642096Y-88973536D01*
X122642090Y-88973528D01*
X122496471Y-88827909D01*
X122496463Y-88827903D01*
X122325232Y-88713490D01*
X122134961Y-88634678D01*
X122134953Y-88634676D01*
X121932976Y-88594500D01*
X121932973Y-88594500D01*
X121727027Y-88594500D01*
X121727024Y-88594500D01*
X121525046Y-88634676D01*
X121525038Y-88634678D01*
X121334767Y-88713490D01*
X121163536Y-88827903D01*
X121163528Y-88827909D01*
X121017909Y-88973528D01*
X121017903Y-88973536D01*
X120903490Y-89144767D01*
X120824678Y-89335038D01*
X120824676Y-89335046D01*
X120784500Y-89537022D01*
X120500500Y-89537022D01*
X120500500Y-86997022D01*
X120784500Y-86997022D01*
X120784500Y-87202977D01*
X120824676Y-87404953D01*
X120824678Y-87404961D01*
X120903490Y-87595232D01*
X121017903Y-87766463D01*
X121017909Y-87766471D01*
X121163528Y-87912090D01*
X121163536Y-87912096D01*
X121334767Y-88026509D01*
X121381854Y-88046013D01*
X121525039Y-88105322D01*
X121727022Y-88145499D01*
X121727025Y-88145500D01*
X121727027Y-88145500D01*
X121932975Y-88145500D01*
X121932976Y-88145499D01*
X122134961Y-88105322D01*
X122325230Y-88026510D01*
X122325230Y-88026509D01*
X122325232Y-88026509D01*
X122453668Y-87940691D01*
X122496468Y-87912093D01*
X122642093Y-87766468D01*
X122699684Y-87680275D01*
X122756509Y-87595232D01*
X122756510Y-87595230D01*
X122835322Y-87404961D01*
X122875500Y-87202973D01*
X122875500Y-86997027D01*
X122875500Y-86997024D01*
X122875499Y-86997022D01*
X122835322Y-86795039D01*
X122756510Y-86604770D01*
X122756509Y-86604767D01*
X122642096Y-86433536D01*
X122642090Y-86433528D01*
X122496471Y-86287909D01*
X122496463Y-86287903D01*
X122325232Y-86173490D01*
X122134961Y-86094678D01*
X122134953Y-86094676D01*
X121932976Y-86054500D01*
X121932973Y-86054500D01*
X121727027Y-86054500D01*
X121727024Y-86054500D01*
X121525046Y-86094676D01*
X121525038Y-86094678D01*
X121334767Y-86173490D01*
X121163536Y-86287903D01*
X121163528Y-86287909D01*
X121017909Y-86433528D01*
X121017903Y-86433536D01*
X120903490Y-86604767D01*
X120824678Y-86795038D01*
X120824676Y-86795046D01*
X120784500Y-86997022D01*
X120500500Y-86997022D01*
X120500500Y-84457022D01*
X120784500Y-84457022D01*
X120784500Y-84662977D01*
X120824676Y-84864953D01*
X120824678Y-84864961D01*
X120903490Y-85055232D01*
X121017903Y-85226463D01*
X121017909Y-85226471D01*
X121163528Y-85372090D01*
X121163536Y-85372096D01*
X121334767Y-85486509D01*
X121381854Y-85506013D01*
X121525039Y-85565322D01*
X121727022Y-85605499D01*
X121727025Y-85605500D01*
X121727027Y-85605500D01*
X121932975Y-85605500D01*
X121932976Y-85605499D01*
X122134961Y-85565322D01*
X122325230Y-85486510D01*
X122325230Y-85486509D01*
X122325232Y-85486509D01*
X122466675Y-85392000D01*
X122496468Y-85372093D01*
X122642093Y-85226468D01*
X122699684Y-85140275D01*
X122756509Y-85055232D01*
X122770375Y-85021757D01*
X122835322Y-84864961D01*
X122875500Y-84662973D01*
X122875500Y-84457027D01*
X122875500Y-84457024D01*
X122875499Y-84457022D01*
X122864814Y-84403307D01*
X122835322Y-84255039D01*
X122759606Y-84072244D01*
X122756509Y-84064767D01*
X122642096Y-83893536D01*
X122642090Y-83893528D01*
X122496471Y-83747909D01*
X122496463Y-83747903D01*
X122325232Y-83633490D01*
X122134961Y-83554678D01*
X122134953Y-83554676D01*
X121932976Y-83514500D01*
X121932973Y-83514500D01*
X121727027Y-83514500D01*
X121727024Y-83514500D01*
X121525046Y-83554676D01*
X121525038Y-83554678D01*
X121334767Y-83633490D01*
X121163536Y-83747903D01*
X121163528Y-83747909D01*
X121017909Y-83893528D01*
X121017903Y-83893536D01*
X120903490Y-84064767D01*
X120824678Y-84255038D01*
X120824676Y-84255046D01*
X120784500Y-84457022D01*
X120500500Y-84457022D01*
X120500500Y-84037964D01*
X120520185Y-83970925D01*
X120536815Y-83950287D01*
X121425410Y-83061691D01*
X121486731Y-83028208D01*
X121537281Y-83027757D01*
X121727024Y-83065500D01*
X121727027Y-83065500D01*
X121932975Y-83065500D01*
X121932976Y-83065499D01*
X122134961Y-83025322D01*
X122325230Y-82946510D01*
X122325230Y-82946509D01*
X122325232Y-82946509D01*
X122466675Y-82852000D01*
X122496468Y-82832093D01*
X122642093Y-82686468D01*
X122699684Y-82600275D01*
X122756509Y-82515232D01*
X122764593Y-82495716D01*
X122835322Y-82324961D01*
X122875500Y-82122973D01*
X122875500Y-81917027D01*
X122875500Y-81917024D01*
X122875499Y-81917022D01*
X122863450Y-81856446D01*
X122835322Y-81715039D01*
X122756510Y-81524770D01*
X122756509Y-81524767D01*
X122642096Y-81353536D01*
X122642090Y-81353528D01*
X122496471Y-81207909D01*
X122496463Y-81207903D01*
X122325232Y-81093490D01*
X122134961Y-81014678D01*
X122134953Y-81014676D01*
X121932976Y-80974500D01*
X121932973Y-80974500D01*
X121727027Y-80974500D01*
X121727024Y-80974500D01*
X121525046Y-81014676D01*
X121525038Y-81014678D01*
X121334767Y-81093490D01*
X121163536Y-81207903D01*
X121163528Y-81207909D01*
X121017909Y-81353528D01*
X121017903Y-81353536D01*
X120903490Y-81524767D01*
X120824678Y-81715038D01*
X120824676Y-81715046D01*
X120784500Y-81917022D01*
X120784500Y-82122977D01*
X120822242Y-82312717D01*
X120816015Y-82382308D01*
X120788306Y-82424589D01*
X119712181Y-83500715D01*
X119650858Y-83534200D01*
X119581166Y-83529216D01*
X119525233Y-83487344D01*
X119500816Y-83421880D01*
X119500500Y-83413034D01*
X119500500Y-79377022D01*
X120784500Y-79377022D01*
X120784500Y-79582977D01*
X120824676Y-79784953D01*
X120824678Y-79784961D01*
X120903490Y-79975232D01*
X121017903Y-80146463D01*
X121017909Y-80146471D01*
X121163528Y-80292090D01*
X121163536Y-80292096D01*
X121334767Y-80406509D01*
X121390496Y-80429592D01*
X121525039Y-80485322D01*
X121727022Y-80525499D01*
X121727025Y-80525500D01*
X121727027Y-80525500D01*
X121932975Y-80525500D01*
X121932976Y-80525499D01*
X122134961Y-80485322D01*
X122325230Y-80406510D01*
X122325230Y-80406509D01*
X122325232Y-80406509D01*
X122410275Y-80349684D01*
X122496468Y-80292093D01*
X122642093Y-80146468D01*
X122699684Y-80060275D01*
X122756509Y-79975232D01*
X122756510Y-79975230D01*
X122835322Y-79784961D01*
X122875500Y-79582973D01*
X122875500Y-79377027D01*
X122875500Y-79377024D01*
X122875499Y-79377022D01*
X122835323Y-79175046D01*
X122835322Y-79175039D01*
X122756510Y-78984770D01*
X122756509Y-78984767D01*
X122642096Y-78813536D01*
X122642090Y-78813528D01*
X122496471Y-78667909D01*
X122496463Y-78667903D01*
X122325232Y-78553490D01*
X122134961Y-78474678D01*
X122134953Y-78474676D01*
X121932976Y-78434500D01*
X121932973Y-78434500D01*
X121727027Y-78434500D01*
X121727024Y-78434500D01*
X121525046Y-78474676D01*
X121525038Y-78474678D01*
X121334767Y-78553490D01*
X121163536Y-78667903D01*
X121163528Y-78667909D01*
X121017909Y-78813528D01*
X121017903Y-78813536D01*
X120903490Y-78984767D01*
X120824678Y-79175038D01*
X120824676Y-79175046D01*
X120784500Y-79377022D01*
X119500500Y-79377022D01*
X119500500Y-76837022D01*
X120784500Y-76837022D01*
X120784500Y-77042977D01*
X120824676Y-77244953D01*
X120824678Y-77244961D01*
X120903490Y-77435232D01*
X121017903Y-77606463D01*
X121017909Y-77606471D01*
X121163528Y-77752090D01*
X121163536Y-77752096D01*
X121334767Y-77866509D01*
X121390496Y-77889592D01*
X121525039Y-77945322D01*
X121727022Y-77985499D01*
X121727025Y-77985500D01*
X121727027Y-77985500D01*
X121932975Y-77985500D01*
X121932976Y-77985499D01*
X122134961Y-77945322D01*
X122325230Y-77866510D01*
X122325230Y-77866509D01*
X122325232Y-77866509D01*
X122410275Y-77809684D01*
X122496468Y-77752093D01*
X122642093Y-77606468D01*
X122756510Y-77435230D01*
X122835322Y-77244961D01*
X122875500Y-77042973D01*
X122875500Y-76837027D01*
X122875500Y-76837024D01*
X122875499Y-76837022D01*
X122835323Y-76635046D01*
X122835322Y-76635039D01*
X122835320Y-76635034D01*
X122835319Y-76635030D01*
X122833255Y-76630047D01*
X122833242Y-76630017D01*
X122816953Y-76590691D01*
X143949500Y-76590691D01*
X143949500Y-98559310D01*
X143963217Y-98610505D01*
X143963218Y-98610505D01*
X143980201Y-98673888D01*
X144006918Y-98720162D01*
X144039511Y-98776614D01*
X145423386Y-100160490D01*
X145526114Y-100219799D01*
X145640691Y-100250500D01*
X146207322Y-100250500D01*
X146274361Y-100270185D01*
X146310424Y-100305609D01*
X146417906Y-100466467D01*
X146417909Y-100466471D01*
X146563528Y-100612090D01*
X146563536Y-100612096D01*
X146734767Y-100726509D01*
X146781854Y-100746013D01*
X146925039Y-100805322D01*
X147127022Y-100845499D01*
X147127025Y-100845500D01*
X147127027Y-100845500D01*
X147332975Y-100845500D01*
X147332976Y-100845499D01*
X147534961Y-100805322D01*
X147725230Y-100726510D01*
X147725230Y-100726509D01*
X147725232Y-100726509D01*
X147810275Y-100669684D01*
X147896468Y-100612093D01*
X148042093Y-100466468D01*
X148156510Y-100295230D01*
X148235322Y-100104961D01*
X148275500Y-99902973D01*
X148275500Y-99697027D01*
X148275500Y-99697024D01*
X148275499Y-99697022D01*
X148262363Y-99630983D01*
X148235322Y-99495039D01*
X148156510Y-99304770D01*
X148156509Y-99304767D01*
X148042096Y-99133536D01*
X148042090Y-99133528D01*
X147896471Y-98987909D01*
X147896463Y-98987903D01*
X147725232Y-98873490D01*
X147534961Y-98794678D01*
X147534953Y-98794676D01*
X147332976Y-98754500D01*
X147332973Y-98754500D01*
X147127027Y-98754500D01*
X147127024Y-98754500D01*
X146925046Y-98794676D01*
X146925038Y-98794678D01*
X146734767Y-98873490D01*
X146563536Y-98987903D01*
X146563528Y-98987909D01*
X146417909Y-99133528D01*
X146417906Y-99133532D01*
X146310424Y-99294391D01*
X146256812Y-99339196D01*
X146207322Y-99349500D01*
X145937966Y-99349500D01*
X145870927Y-99329815D01*
X145850285Y-99313181D01*
X144886819Y-98349715D01*
X144853334Y-98288392D01*
X144850500Y-98262034D01*
X144850500Y-97157022D01*
X146184500Y-97157022D01*
X146184500Y-97362977D01*
X146224676Y-97564953D01*
X146224678Y-97564961D01*
X146303490Y-97755232D01*
X146417903Y-97926463D01*
X146417909Y-97926471D01*
X146563528Y-98072090D01*
X146563536Y-98072096D01*
X146734767Y-98186509D01*
X146790496Y-98209592D01*
X146925039Y-98265322D01*
X147108597Y-98301834D01*
X147127022Y-98305499D01*
X147127025Y-98305500D01*
X147127027Y-98305500D01*
X147332975Y-98305500D01*
X147332976Y-98305499D01*
X147534961Y-98265322D01*
X147725230Y-98186510D01*
X147725230Y-98186509D01*
X147725232Y-98186509D01*
X147866675Y-98092000D01*
X147896468Y-98072093D01*
X148042093Y-97926468D01*
X148135616Y-97786500D01*
X148156509Y-97755232D01*
X148164593Y-97735716D01*
X148235322Y-97564961D01*
X148275500Y-97362973D01*
X148275500Y-97157027D01*
X148275500Y-97157024D01*
X148275499Y-97157022D01*
X148264371Y-97101077D01*
X148235322Y-96955039D01*
X148156510Y-96764770D01*
X148156509Y-96764767D01*
X148042096Y-96593536D01*
X148042090Y-96593528D01*
X147896471Y-96447909D01*
X147896463Y-96447903D01*
X147725232Y-96333490D01*
X147534961Y-96254678D01*
X147534953Y-96254676D01*
X147332976Y-96214500D01*
X147332973Y-96214500D01*
X147127027Y-96214500D01*
X147127024Y-96214500D01*
X146925046Y-96254676D01*
X146925038Y-96254678D01*
X146734767Y-96333490D01*
X146563536Y-96447903D01*
X146563528Y-96447909D01*
X146417909Y-96593528D01*
X146417903Y-96593536D01*
X146303490Y-96764767D01*
X146224678Y-96955038D01*
X146224676Y-96955046D01*
X146184500Y-97157022D01*
X144850500Y-97157022D01*
X144850500Y-94617022D01*
X146184500Y-94617022D01*
X146184500Y-94822977D01*
X146224676Y-95024953D01*
X146224678Y-95024961D01*
X146303490Y-95215232D01*
X146417903Y-95386463D01*
X146417909Y-95386471D01*
X146563528Y-95532090D01*
X146563536Y-95532096D01*
X146734767Y-95646509D01*
X146763545Y-95658429D01*
X146925039Y-95725322D01*
X147127022Y-95765499D01*
X147127025Y-95765500D01*
X147127027Y-95765500D01*
X147332975Y-95765500D01*
X147332976Y-95765499D01*
X147534961Y-95725322D01*
X147725230Y-95646510D01*
X147725230Y-95646509D01*
X147725232Y-95646509D01*
X147829264Y-95576997D01*
X147896468Y-95532093D01*
X148042093Y-95386468D01*
X148095360Y-95306748D01*
X148149576Y-95225609D01*
X148203188Y-95180804D01*
X148252678Y-95170500D01*
X151699193Y-95170500D01*
X151766232Y-95190185D01*
X151786875Y-95206820D01*
X151835327Y-95255273D01*
X151835331Y-95255276D01*
X151941866Y-95326461D01*
X151941872Y-95326464D01*
X151941873Y-95326465D01*
X152060256Y-95375501D01*
X152060260Y-95375501D01*
X152060261Y-95375502D01*
X152185928Y-95400500D01*
X152185931Y-95400500D01*
X152314071Y-95400500D01*
X152405046Y-95382403D01*
X152439744Y-95375501D01*
X152558127Y-95326465D01*
X152664669Y-95255276D01*
X152755276Y-95164669D01*
X152826465Y-95058127D01*
X152875501Y-94939744D01*
X152883928Y-94897380D01*
X152900500Y-94814071D01*
X152900500Y-94685928D01*
X152875502Y-94560261D01*
X152875501Y-94560260D01*
X152875501Y-94560256D01*
X152826465Y-94441873D01*
X152826464Y-94441872D01*
X152826461Y-94441866D01*
X152755276Y-94335331D01*
X152755273Y-94335327D01*
X152664672Y-94244726D01*
X152664668Y-94244723D01*
X152558133Y-94173538D01*
X152558124Y-94173533D01*
X152439744Y-94124499D01*
X152439738Y-94124497D01*
X152314071Y-94099500D01*
X152314069Y-94099500D01*
X152185931Y-94099500D01*
X152185929Y-94099500D01*
X152060261Y-94124497D01*
X152060255Y-94124499D01*
X151941875Y-94173533D01*
X151941866Y-94173538D01*
X151830266Y-94248108D01*
X151828778Y-94245881D01*
X151775122Y-94268667D01*
X151760773Y-94269500D01*
X148252678Y-94269500D01*
X148185639Y-94249815D01*
X148149576Y-94214391D01*
X148042093Y-94053532D01*
X148042090Y-94053528D01*
X147896471Y-93907909D01*
X147896463Y-93907903D01*
X147725232Y-93793490D01*
X147534961Y-93714678D01*
X147534953Y-93714676D01*
X147332976Y-93674500D01*
X147332973Y-93674500D01*
X147127027Y-93674500D01*
X147127024Y-93674500D01*
X146925046Y-93714676D01*
X146925038Y-93714678D01*
X146734767Y-93793490D01*
X146563536Y-93907903D01*
X146563528Y-93907909D01*
X146417909Y-94053528D01*
X146417903Y-94053536D01*
X146303490Y-94224767D01*
X146224678Y-94415038D01*
X146224676Y-94415046D01*
X146184500Y-94617022D01*
X144850500Y-94617022D01*
X144850500Y-92077022D01*
X146184500Y-92077022D01*
X146184500Y-92282977D01*
X146224676Y-92484953D01*
X146224678Y-92484961D01*
X146303490Y-92675232D01*
X146417903Y-92846463D01*
X146417909Y-92846471D01*
X146563528Y-92992090D01*
X146563536Y-92992096D01*
X146734767Y-93106509D01*
X146781854Y-93126013D01*
X146925039Y-93185322D01*
X147127022Y-93225499D01*
X147127025Y-93225500D01*
X147127027Y-93225500D01*
X147332975Y-93225500D01*
X147332976Y-93225499D01*
X147534961Y-93185322D01*
X147725230Y-93106510D01*
X147725230Y-93106509D01*
X147725232Y-93106509D01*
X147810275Y-93049684D01*
X147896468Y-92992093D01*
X148042093Y-92846468D01*
X148134727Y-92707831D01*
X148156509Y-92675232D01*
X148156510Y-92675230D01*
X148235322Y-92484961D01*
X148275500Y-92282973D01*
X148275500Y-92077027D01*
X148269864Y-92048692D01*
X148276091Y-91979100D01*
X148318954Y-91923923D01*
X148384844Y-91900678D01*
X148391481Y-91900500D01*
X153062035Y-91900500D01*
X153129074Y-91920185D01*
X153149716Y-91936819D01*
X153414245Y-92201349D01*
X153447730Y-92262672D01*
X153449968Y-92301177D01*
X153449500Y-92305931D01*
X153449500Y-92434069D01*
X153449500Y-92434071D01*
X153449499Y-92434071D01*
X153474497Y-92559738D01*
X153474499Y-92559744D01*
X153523533Y-92678124D01*
X153523538Y-92678133D01*
X153594723Y-92784668D01*
X153594726Y-92784672D01*
X153685327Y-92875273D01*
X153685331Y-92875276D01*
X153791866Y-92946461D01*
X153791872Y-92946464D01*
X153791873Y-92946465D01*
X153910256Y-92995501D01*
X153910260Y-92995501D01*
X153910261Y-92995502D01*
X154035928Y-93020500D01*
X154035931Y-93020500D01*
X154164071Y-93020500D01*
X154248615Y-93003682D01*
X154289744Y-92995501D01*
X154408127Y-92946465D01*
X154514669Y-92875276D01*
X154605276Y-92784669D01*
X154676465Y-92678127D01*
X154725501Y-92559744D01*
X154737982Y-92496999D01*
X154750500Y-92434071D01*
X154750500Y-92305928D01*
X154725502Y-92180261D01*
X154725501Y-92180260D01*
X154725501Y-92180256D01*
X154676465Y-92061873D01*
X154676464Y-92061872D01*
X154676461Y-92061866D01*
X154605276Y-91955331D01*
X154605273Y-91955327D01*
X154514672Y-91864726D01*
X154514668Y-91864723D01*
X154408133Y-91793538D01*
X154408124Y-91793533D01*
X154289742Y-91744498D01*
X154289739Y-91744497D01*
X154254055Y-91737399D01*
X154192144Y-91705013D01*
X154190567Y-91703463D01*
X153576616Y-91089513D01*
X153576614Y-91089511D01*
X153525250Y-91059856D01*
X153473888Y-91030201D01*
X153461780Y-91026957D01*
X153449673Y-91023713D01*
X153449670Y-91023712D01*
X153389001Y-91007456D01*
X153359309Y-90999500D01*
X147900691Y-90999500D01*
X147810325Y-91023713D01*
X147810324Y-91023712D01*
X147786116Y-91030199D01*
X147786113Y-91030200D01*
X147683386Y-91089511D01*
X147634588Y-91138308D01*
X147573264Y-91171792D01*
X147522717Y-91172242D01*
X147332976Y-91134500D01*
X147332973Y-91134500D01*
X147127027Y-91134500D01*
X147127024Y-91134500D01*
X146925046Y-91174676D01*
X146925038Y-91174678D01*
X146734767Y-91253490D01*
X146563536Y-91367903D01*
X146563528Y-91367909D01*
X146417909Y-91513528D01*
X146417903Y-91513536D01*
X146303490Y-91684767D01*
X146224678Y-91875038D01*
X146224676Y-91875046D01*
X146184500Y-92077022D01*
X144850500Y-92077022D01*
X144850500Y-89537022D01*
X146184500Y-89537022D01*
X146184500Y-89742977D01*
X146224676Y-89944953D01*
X146224678Y-89944961D01*
X146303490Y-90135232D01*
X146417903Y-90306463D01*
X146417909Y-90306471D01*
X146563528Y-90452090D01*
X146563536Y-90452096D01*
X146734767Y-90566509D01*
X146781854Y-90586013D01*
X146925039Y-90645322D01*
X147127022Y-90685499D01*
X147127025Y-90685500D01*
X147127027Y-90685500D01*
X147332975Y-90685500D01*
X147332976Y-90685499D01*
X147534961Y-90645322D01*
X147725230Y-90566510D01*
X147725230Y-90566509D01*
X147725232Y-90566509D01*
X147888871Y-90457169D01*
X147896468Y-90452093D01*
X148042093Y-90306468D01*
X148091692Y-90232238D01*
X148149576Y-90145609D01*
X148203188Y-90100804D01*
X148252678Y-90090500D01*
X154002035Y-90090500D01*
X154069074Y-90110185D01*
X154089716Y-90126819D01*
X155013181Y-91050284D01*
X155046666Y-91111607D01*
X155049500Y-91137965D01*
X155049500Y-94379192D01*
X155029815Y-94446231D01*
X155013181Y-94466873D01*
X154994726Y-94485327D01*
X154994723Y-94485331D01*
X154923538Y-94591866D01*
X154923533Y-94591875D01*
X154874499Y-94710255D01*
X154874497Y-94710261D01*
X154849500Y-94835928D01*
X154849500Y-94835931D01*
X154849500Y-94964069D01*
X154849500Y-94964071D01*
X154849499Y-94964071D01*
X154874497Y-95089738D01*
X154874499Y-95089744D01*
X154923533Y-95208124D01*
X154923538Y-95208133D01*
X154994723Y-95314668D01*
X154994726Y-95314672D01*
X155085327Y-95405273D01*
X155085331Y-95405276D01*
X155191866Y-95476461D01*
X155191872Y-95476464D01*
X155191873Y-95476465D01*
X155310256Y-95525501D01*
X155310260Y-95525501D01*
X155310261Y-95525502D01*
X155435928Y-95550500D01*
X155435931Y-95550500D01*
X155564071Y-95550500D01*
X155648615Y-95533682D01*
X155689744Y-95525501D01*
X155808127Y-95476465D01*
X155914669Y-95405276D01*
X156005276Y-95314669D01*
X156076465Y-95208127D01*
X156125501Y-95089744D01*
X156134045Y-95046792D01*
X156150500Y-94964071D01*
X156150500Y-94835928D01*
X156125502Y-94710261D01*
X156125501Y-94710260D01*
X156125501Y-94710256D01*
X156076465Y-94591873D01*
X156076464Y-94591872D01*
X156076461Y-94591866D01*
X156005276Y-94485331D01*
X156005273Y-94485327D01*
X155986819Y-94466873D01*
X155953334Y-94405550D01*
X155950500Y-94379192D01*
X155950500Y-90840693D01*
X155950500Y-90840691D01*
X155919799Y-90726114D01*
X155919799Y-90726113D01*
X155860489Y-90623386D01*
X154516614Y-89279511D01*
X154465250Y-89249856D01*
X154413888Y-89220201D01*
X154401780Y-89216957D01*
X154389673Y-89213713D01*
X154389670Y-89213712D01*
X154351478Y-89203478D01*
X154299309Y-89189500D01*
X154299308Y-89189500D01*
X148252678Y-89189500D01*
X148185639Y-89169815D01*
X148149576Y-89134391D01*
X148042093Y-88973532D01*
X148042090Y-88973528D01*
X147896471Y-88827909D01*
X147896463Y-88827903D01*
X147725232Y-88713490D01*
X147534961Y-88634678D01*
X147534953Y-88634676D01*
X147332976Y-88594500D01*
X147332973Y-88594500D01*
X147127027Y-88594500D01*
X147127024Y-88594500D01*
X146925046Y-88634676D01*
X146925038Y-88634678D01*
X146734767Y-88713490D01*
X146563536Y-88827903D01*
X146563528Y-88827909D01*
X146417909Y-88973528D01*
X146417903Y-88973536D01*
X146303490Y-89144767D01*
X146224678Y-89335038D01*
X146224676Y-89335046D01*
X146184500Y-89537022D01*
X144850500Y-89537022D01*
X144850500Y-86997022D01*
X146184500Y-86997022D01*
X146184500Y-87202977D01*
X146224676Y-87404953D01*
X146224678Y-87404961D01*
X146303490Y-87595232D01*
X146417903Y-87766463D01*
X146417909Y-87766471D01*
X146563528Y-87912090D01*
X146563536Y-87912096D01*
X146734767Y-88026509D01*
X146781854Y-88046013D01*
X146925039Y-88105322D01*
X147127022Y-88145499D01*
X147127025Y-88145500D01*
X147127027Y-88145500D01*
X147332975Y-88145500D01*
X147332976Y-88145499D01*
X147534961Y-88105322D01*
X147725230Y-88026510D01*
X147725230Y-88026509D01*
X147725232Y-88026509D01*
X147853668Y-87940691D01*
X147896468Y-87912093D01*
X148042093Y-87766468D01*
X148099684Y-87680275D01*
X148156509Y-87595232D01*
X148156510Y-87595230D01*
X148235322Y-87404961D01*
X148275500Y-87202973D01*
X148275500Y-86997027D01*
X148275500Y-86997024D01*
X148275499Y-86997022D01*
X148235322Y-86795039D01*
X148156510Y-86604770D01*
X148156509Y-86604767D01*
X148042096Y-86433536D01*
X148042090Y-86433528D01*
X147896471Y-86287909D01*
X147896463Y-86287903D01*
X147725232Y-86173490D01*
X147534961Y-86094678D01*
X147534953Y-86094676D01*
X147332976Y-86054500D01*
X147332973Y-86054500D01*
X147127027Y-86054500D01*
X147127024Y-86054500D01*
X146925046Y-86094676D01*
X146925038Y-86094678D01*
X146734767Y-86173490D01*
X146563536Y-86287903D01*
X146563528Y-86287909D01*
X146417909Y-86433528D01*
X146417903Y-86433536D01*
X146303490Y-86604767D01*
X146224678Y-86795038D01*
X146224676Y-86795046D01*
X146184500Y-86997022D01*
X144850500Y-86997022D01*
X144850500Y-84457022D01*
X146184500Y-84457022D01*
X146184500Y-84662977D01*
X146224676Y-84864953D01*
X146224678Y-84864961D01*
X146303490Y-85055232D01*
X146417903Y-85226463D01*
X146417909Y-85226471D01*
X146563528Y-85372090D01*
X146563536Y-85372096D01*
X146734767Y-85486509D01*
X146781854Y-85506013D01*
X146925039Y-85565322D01*
X147127022Y-85605499D01*
X147127025Y-85605500D01*
X147127027Y-85605500D01*
X147332975Y-85605500D01*
X147332976Y-85605499D01*
X147534961Y-85565322D01*
X147725230Y-85486510D01*
X147725230Y-85486509D01*
X147725232Y-85486509D01*
X147866675Y-85392000D01*
X147896468Y-85372093D01*
X148042093Y-85226468D01*
X148099684Y-85140275D01*
X148156509Y-85055232D01*
X148170375Y-85021757D01*
X148235322Y-84864961D01*
X148275500Y-84662973D01*
X148275500Y-84457027D01*
X148275500Y-84457024D01*
X148275499Y-84457022D01*
X148264814Y-84403307D01*
X148235322Y-84255039D01*
X148159606Y-84072244D01*
X148156509Y-84064767D01*
X148042096Y-83893536D01*
X148042090Y-83893528D01*
X147896471Y-83747909D01*
X147896463Y-83747903D01*
X147725232Y-83633490D01*
X147534961Y-83554678D01*
X147534953Y-83554676D01*
X147332976Y-83514500D01*
X147332973Y-83514500D01*
X147127027Y-83514500D01*
X147127024Y-83514500D01*
X146925046Y-83554676D01*
X146925038Y-83554678D01*
X146734767Y-83633490D01*
X146563536Y-83747903D01*
X146563528Y-83747909D01*
X146417909Y-83893528D01*
X146417903Y-83893536D01*
X146303490Y-84064767D01*
X146224678Y-84255038D01*
X146224676Y-84255046D01*
X146184500Y-84457022D01*
X144850500Y-84457022D01*
X144850500Y-81917022D01*
X146184500Y-81917022D01*
X146184500Y-82122977D01*
X146224676Y-82324953D01*
X146224678Y-82324961D01*
X146303490Y-82515232D01*
X146417903Y-82686463D01*
X146417909Y-82686471D01*
X146563528Y-82832090D01*
X146563536Y-82832096D01*
X146734767Y-82946509D01*
X146781854Y-82966013D01*
X146925039Y-83025322D01*
X147107888Y-83061693D01*
X147127022Y-83065499D01*
X147127025Y-83065500D01*
X147127027Y-83065500D01*
X147332975Y-83065500D01*
X147332976Y-83065499D01*
X147534961Y-83025322D01*
X147725230Y-82946510D01*
X147725230Y-82946509D01*
X147725232Y-82946509D01*
X147866675Y-82852000D01*
X147896468Y-82832093D01*
X148042093Y-82686468D01*
X148099684Y-82600275D01*
X148156509Y-82515232D01*
X148164593Y-82495716D01*
X148235322Y-82324961D01*
X148275500Y-82122973D01*
X148275500Y-81917027D01*
X148275500Y-81917024D01*
X148275499Y-81917022D01*
X148263450Y-81856446D01*
X148235322Y-81715039D01*
X148156510Y-81524770D01*
X148156509Y-81524767D01*
X148042096Y-81353536D01*
X148042090Y-81353528D01*
X147896471Y-81207909D01*
X147896463Y-81207903D01*
X147725232Y-81093490D01*
X147534961Y-81014678D01*
X147534953Y-81014676D01*
X147332976Y-80974500D01*
X147332973Y-80974500D01*
X147127027Y-80974500D01*
X147127024Y-80974500D01*
X146925046Y-81014676D01*
X146925038Y-81014678D01*
X146734767Y-81093490D01*
X146563536Y-81207903D01*
X146563528Y-81207909D01*
X146417909Y-81353528D01*
X146417903Y-81353536D01*
X146303490Y-81524767D01*
X146224678Y-81715038D01*
X146224676Y-81715046D01*
X146184500Y-81917022D01*
X144850500Y-81917022D01*
X144850500Y-79377022D01*
X146184500Y-79377022D01*
X146184500Y-79582977D01*
X146224676Y-79784953D01*
X146224678Y-79784961D01*
X146303490Y-79975232D01*
X146417903Y-80146463D01*
X146417909Y-80146471D01*
X146563528Y-80292090D01*
X146563536Y-80292096D01*
X146734767Y-80406509D01*
X146790496Y-80429592D01*
X146925039Y-80485322D01*
X147127022Y-80525499D01*
X147127025Y-80525500D01*
X147127027Y-80525500D01*
X147332975Y-80525500D01*
X147332976Y-80525499D01*
X147534961Y-80485322D01*
X147725230Y-80406510D01*
X147725230Y-80406509D01*
X147725232Y-80406509D01*
X147810275Y-80349684D01*
X147896468Y-80292093D01*
X148042093Y-80146468D01*
X148099684Y-80060275D01*
X148156509Y-79975232D01*
X148156510Y-79975230D01*
X148235322Y-79784961D01*
X148275500Y-79582973D01*
X148275500Y-79377027D01*
X148275500Y-79377024D01*
X148275499Y-79377022D01*
X148235323Y-79175046D01*
X148235322Y-79175039D01*
X148156510Y-78984770D01*
X148156509Y-78984767D01*
X148042096Y-78813536D01*
X148042090Y-78813528D01*
X147896471Y-78667909D01*
X147896463Y-78667903D01*
X147725232Y-78553490D01*
X147534961Y-78474678D01*
X147534953Y-78474676D01*
X147332976Y-78434500D01*
X147332973Y-78434500D01*
X147127027Y-78434500D01*
X147127024Y-78434500D01*
X146925046Y-78474676D01*
X146925038Y-78474678D01*
X146734767Y-78553490D01*
X146563536Y-78667903D01*
X146563528Y-78667909D01*
X146417909Y-78813528D01*
X146417903Y-78813536D01*
X146303490Y-78984767D01*
X146224678Y-79175038D01*
X146224676Y-79175046D01*
X146184500Y-79377022D01*
X144850500Y-79377022D01*
X144850500Y-76887965D01*
X144870185Y-76820926D01*
X144886819Y-76800284D01*
X145550284Y-76136819D01*
X145611607Y-76103334D01*
X145637965Y-76100500D01*
X146301535Y-76100500D01*
X146368574Y-76120185D01*
X146414329Y-76172989D01*
X146424273Y-76242147D01*
X146404638Y-76293390D01*
X146303489Y-76444771D01*
X146224678Y-76635038D01*
X146224676Y-76635046D01*
X146184500Y-76837022D01*
X146184500Y-77042977D01*
X146224676Y-77244953D01*
X146224678Y-77244961D01*
X146303490Y-77435232D01*
X146417903Y-77606463D01*
X146417909Y-77606471D01*
X146563528Y-77752090D01*
X146563536Y-77752096D01*
X146734767Y-77866509D01*
X146790496Y-77889592D01*
X146925039Y-77945322D01*
X147127022Y-77985499D01*
X147127025Y-77985500D01*
X147127027Y-77985500D01*
X147332975Y-77985500D01*
X147332976Y-77985499D01*
X147534961Y-77945322D01*
X147725230Y-77866510D01*
X147725230Y-77866509D01*
X147725232Y-77866509D01*
X147810275Y-77809684D01*
X147896468Y-77752093D01*
X148042093Y-77606468D01*
X148156510Y-77435230D01*
X148235322Y-77244961D01*
X148275500Y-77042973D01*
X148275500Y-76837027D01*
X148275500Y-76837024D01*
X148275499Y-76837022D01*
X148235323Y-76635046D01*
X148235322Y-76635039D01*
X148156510Y-76444770D01*
X148055362Y-76293390D01*
X148034485Y-76226713D01*
X148052970Y-76159333D01*
X148104949Y-76112643D01*
X148158465Y-76100500D01*
X158709308Y-76100500D01*
X158709309Y-76100500D01*
X158799673Y-76076286D01*
X158823887Y-76069799D01*
X158926614Y-76010489D01*
X161100284Y-73836819D01*
X161161607Y-73803334D01*
X161187965Y-73800500D01*
X163029192Y-73800500D01*
X163096231Y-73820185D01*
X163116873Y-73836819D01*
X163135327Y-73855273D01*
X163135331Y-73855276D01*
X163241866Y-73926461D01*
X163241875Y-73926466D01*
X163268692Y-73937574D01*
X163360256Y-73975501D01*
X163360260Y-73975501D01*
X163360261Y-73975502D01*
X163485928Y-74000500D01*
X163485931Y-74000500D01*
X163614071Y-74000500D01*
X163698615Y-73983682D01*
X163739744Y-73975501D01*
X163858127Y-73926465D01*
X163964669Y-73855276D01*
X164055276Y-73764669D01*
X164126465Y-73658127D01*
X164175501Y-73539744D01*
X164200500Y-73414069D01*
X164200500Y-73285931D01*
X164200500Y-73285928D01*
X164175502Y-73160261D01*
X164175501Y-73160260D01*
X164175501Y-73160256D01*
X164126465Y-73041873D01*
X164126464Y-73041872D01*
X164126461Y-73041866D01*
X164055276Y-72935331D01*
X164055273Y-72935327D01*
X163964672Y-72844726D01*
X163964668Y-72844723D01*
X163858133Y-72773538D01*
X163858124Y-72773533D01*
X163739744Y-72724499D01*
X163739738Y-72724497D01*
X163614071Y-72699500D01*
X163614069Y-72699500D01*
X163485931Y-72699500D01*
X163485929Y-72699500D01*
X163360261Y-72724497D01*
X163360255Y-72724499D01*
X163241875Y-72773533D01*
X163241866Y-72773538D01*
X163135331Y-72844723D01*
X163135327Y-72844726D01*
X163116873Y-72863181D01*
X163055550Y-72896666D01*
X163029192Y-72899500D01*
X160890691Y-72899500D01*
X160800325Y-72923713D01*
X160800324Y-72923712D01*
X160776116Y-72930199D01*
X160776113Y-72930200D01*
X160673386Y-72989511D01*
X160673383Y-72989513D01*
X158499716Y-75163181D01*
X158438393Y-75196666D01*
X158412035Y-75199500D01*
X148185192Y-75199500D01*
X148118153Y-75179815D01*
X148072398Y-75127011D01*
X148062454Y-75057853D01*
X148082089Y-75006610D01*
X148114689Y-74957820D01*
X148156510Y-74895230D01*
X148235322Y-74704961D01*
X148275500Y-74502973D01*
X148275500Y-74297027D01*
X148275500Y-74297024D01*
X148275499Y-74297022D01*
X148235323Y-74095046D01*
X148235322Y-74095039D01*
X148165497Y-73926466D01*
X148156509Y-73904767D01*
X148042096Y-73733536D01*
X148042090Y-73733528D01*
X147896471Y-73587909D01*
X147896463Y-73587903D01*
X147725232Y-73473490D01*
X147534961Y-73394678D01*
X147534953Y-73394676D01*
X147332976Y-73354500D01*
X147332973Y-73354500D01*
X147127027Y-73354500D01*
X147127024Y-73354500D01*
X146925046Y-73394676D01*
X146925038Y-73394678D01*
X146734767Y-73473490D01*
X146563536Y-73587903D01*
X146563528Y-73587909D01*
X146417909Y-73733528D01*
X146417903Y-73733536D01*
X146303490Y-73904767D01*
X146224678Y-74095038D01*
X146224676Y-74095046D01*
X146184500Y-74297022D01*
X146184500Y-74502977D01*
X146197084Y-74566239D01*
X146224678Y-74704961D01*
X146303490Y-74895230D01*
X146339251Y-74948750D01*
X146377911Y-75006610D01*
X146398788Y-75073288D01*
X146380303Y-75140668D01*
X146328324Y-75187357D01*
X146274808Y-75199500D01*
X145340691Y-75199500D01*
X145271944Y-75217920D01*
X145226112Y-75230201D01*
X145226107Y-75230204D01*
X145123393Y-75289505D01*
X145123385Y-75289511D01*
X144039513Y-76373383D01*
X144039509Y-76373389D01*
X143980201Y-76476112D01*
X143980200Y-76476117D01*
X143949500Y-76590691D01*
X122816953Y-76590691D01*
X122756509Y-76444768D01*
X122756509Y-76444767D01*
X122642096Y-76273536D01*
X122642090Y-76273528D01*
X122496471Y-76127909D01*
X122496463Y-76127903D01*
X122325232Y-76013490D01*
X122134961Y-75934678D01*
X122134953Y-75934676D01*
X121932976Y-75894500D01*
X121932973Y-75894500D01*
X121727027Y-75894500D01*
X121727024Y-75894500D01*
X121525046Y-75934676D01*
X121525038Y-75934678D01*
X121334767Y-76013490D01*
X121163536Y-76127903D01*
X121163528Y-76127909D01*
X121017909Y-76273528D01*
X121017903Y-76273536D01*
X120903490Y-76444767D01*
X120824678Y-76635038D01*
X120824676Y-76635046D01*
X120784500Y-76837022D01*
X119500500Y-76837022D01*
X119500500Y-74297022D01*
X120784500Y-74297022D01*
X120784500Y-74502977D01*
X120824676Y-74704953D01*
X120824678Y-74704961D01*
X120903490Y-74895232D01*
X121017903Y-75066463D01*
X121017909Y-75066471D01*
X121163528Y-75212090D01*
X121163536Y-75212096D01*
X121334767Y-75326509D01*
X121390496Y-75349592D01*
X121525039Y-75405322D01*
X121727022Y-75445499D01*
X121727025Y-75445500D01*
X121727027Y-75445500D01*
X121932975Y-75445500D01*
X121932976Y-75445499D01*
X122134961Y-75405322D01*
X122325230Y-75326510D01*
X122325230Y-75326509D01*
X122325232Y-75326509D01*
X122410275Y-75269684D01*
X122496468Y-75212093D01*
X122642093Y-75066468D01*
X122756510Y-74895230D01*
X122835322Y-74704961D01*
X122875500Y-74502973D01*
X122875500Y-74297027D01*
X122875500Y-74297024D01*
X122875499Y-74297022D01*
X122835323Y-74095046D01*
X122835322Y-74095039D01*
X122765497Y-73926466D01*
X122756509Y-73904767D01*
X122642096Y-73733536D01*
X122642090Y-73733528D01*
X122496471Y-73587909D01*
X122496463Y-73587903D01*
X122325232Y-73473490D01*
X122134961Y-73394678D01*
X122134953Y-73394676D01*
X121932976Y-73354500D01*
X121932973Y-73354500D01*
X121727027Y-73354500D01*
X121727024Y-73354500D01*
X121525046Y-73394676D01*
X121525038Y-73394678D01*
X121334767Y-73473490D01*
X121163536Y-73587903D01*
X121163528Y-73587909D01*
X121017909Y-73733528D01*
X121017903Y-73733536D01*
X120903490Y-73904767D01*
X120824678Y-74095038D01*
X120824676Y-74095046D01*
X120784500Y-74297022D01*
X119500500Y-74297022D01*
X119500500Y-71131739D01*
X120784500Y-71131739D01*
X120784500Y-72588260D01*
X120794426Y-72656391D01*
X120845803Y-72761485D01*
X120928514Y-72844196D01*
X120928515Y-72844196D01*
X120928517Y-72844198D01*
X121033607Y-72895573D01*
X121041109Y-72896666D01*
X121101739Y-72905500D01*
X121101740Y-72905500D01*
X122558261Y-72905500D01*
X122599440Y-72899500D01*
X122626393Y-72895573D01*
X122731483Y-72844198D01*
X122814198Y-72761483D01*
X122865573Y-72656393D01*
X122875500Y-72588260D01*
X122875500Y-71131740D01*
X122875500Y-71131739D01*
X146184500Y-71131739D01*
X146184500Y-72588260D01*
X146194426Y-72656391D01*
X146245803Y-72761485D01*
X146328514Y-72844196D01*
X146328515Y-72844196D01*
X146328517Y-72844198D01*
X146433607Y-72895573D01*
X146441109Y-72896666D01*
X146501739Y-72905500D01*
X146501740Y-72905500D01*
X147958261Y-72905500D01*
X147999440Y-72899500D01*
X148026393Y-72895573D01*
X148131483Y-72844198D01*
X148214198Y-72761483D01*
X148265573Y-72656393D01*
X148275500Y-72588260D01*
X148275500Y-71131740D01*
X148265573Y-71063607D01*
X148214198Y-70958517D01*
X148214196Y-70958515D01*
X148214196Y-70958514D01*
X148131485Y-70875803D01*
X148026391Y-70824426D01*
X147958261Y-70814500D01*
X147958260Y-70814500D01*
X146501740Y-70814500D01*
X146501739Y-70814500D01*
X146433608Y-70824426D01*
X146328514Y-70875803D01*
X146245803Y-70958514D01*
X146194426Y-71063608D01*
X146184500Y-71131739D01*
X122875500Y-71131739D01*
X122865573Y-71063607D01*
X122814198Y-70958517D01*
X122814196Y-70958515D01*
X122814196Y-70958514D01*
X122731485Y-70875803D01*
X122626391Y-70824426D01*
X122558261Y-70814500D01*
X122558260Y-70814500D01*
X121101740Y-70814500D01*
X121101739Y-70814500D01*
X121033608Y-70824426D01*
X120928514Y-70875803D01*
X120845803Y-70958514D01*
X120794426Y-71063608D01*
X120784500Y-71131739D01*
X119500500Y-71131739D01*
X119500500Y-66393713D01*
X120849500Y-66393713D01*
X120849500Y-66606286D01*
X120882316Y-66813482D01*
X120882754Y-66816243D01*
X120938642Y-66988249D01*
X120948444Y-67018414D01*
X121044951Y-67207820D01*
X121169890Y-67379786D01*
X121320213Y-67530109D01*
X121492179Y-67655048D01*
X121492181Y-67655049D01*
X121492184Y-67655051D01*
X121681588Y-67751557D01*
X121883757Y-67817246D01*
X122093713Y-67850500D01*
X122093714Y-67850500D01*
X122306286Y-67850500D01*
X122306287Y-67850500D01*
X122516243Y-67817246D01*
X122718412Y-67751557D01*
X122907816Y-67655051D01*
X122966321Y-67612545D01*
X123079786Y-67530109D01*
X123079788Y-67530106D01*
X123079792Y-67530104D01*
X123230104Y-67379792D01*
X123230106Y-67379788D01*
X123230109Y-67379786D01*
X123355048Y-67207820D01*
X123355047Y-67207820D01*
X123355051Y-67207816D01*
X123451557Y-67018412D01*
X123517246Y-66816243D01*
X123550500Y-66606287D01*
X123550500Y-66393713D01*
X123517246Y-66183757D01*
X123451557Y-65981588D01*
X123355051Y-65792184D01*
X123355049Y-65792181D01*
X123355048Y-65792179D01*
X123277279Y-65685138D01*
X123230109Y-65620214D01*
X123230105Y-65620209D01*
X123079786Y-65469890D01*
X122907820Y-65344951D01*
X122718414Y-65248444D01*
X122718413Y-65248443D01*
X122718412Y-65248443D01*
X122516243Y-65182754D01*
X122516241Y-65182753D01*
X122516240Y-65182753D01*
X122354957Y-65157208D01*
X122306287Y-65149500D01*
X122093713Y-65149500D01*
X122045042Y-65157208D01*
X121883760Y-65182753D01*
X121681585Y-65248444D01*
X121492179Y-65344951D01*
X121320213Y-65469890D01*
X121169890Y-65620213D01*
X121044951Y-65792179D01*
X120948444Y-65981585D01*
X120882753Y-66183760D01*
X120849500Y-66393713D01*
X119500500Y-66393713D01*
X119500500Y-65504427D01*
X119500816Y-65495581D01*
X119502653Y-65469896D01*
X119515131Y-65295434D01*
X119517646Y-65277938D01*
X119559356Y-65086199D01*
X119564333Y-65069248D01*
X119632911Y-64885385D01*
X119640259Y-64869298D01*
X119702815Y-64754734D01*
X119734291Y-64697089D01*
X119743845Y-64682221D01*
X119861448Y-64525123D01*
X119873020Y-64511769D01*
X120011769Y-64373020D01*
X120025123Y-64361448D01*
X120182221Y-64243845D01*
X120197089Y-64234291D01*
X120369298Y-64140258D01*
X120385385Y-64132911D01*
X120569248Y-64064333D01*
X120586199Y-64059356D01*
X120777938Y-64017646D01*
X120795436Y-64015130D01*
X120995582Y-64000816D01*
X121004428Y-64000500D01*
X121065892Y-64000500D01*
X187934108Y-64000500D01*
X187995572Y-64000500D01*
X188004418Y-64000816D01*
G37*
%TD.AperFunction*%
%TD*%
M02*
