%TF.GenerationSoftware,KiCad,Pcbnew,9.0.0*%
%TF.CreationDate,2025-04-30T00:07:22-04:00*%
%TF.ProjectId,W4MLB_Band_Display,57344d4c-425f-4426-916e-645f44697370,1.0*%
%TF.SameCoordinates,Original*%
%TF.FileFunction,Soldermask,Top*%
%TF.FilePolarity,Negative*%
%FSLAX46Y46*%
G04 Gerber Fmt 4.6, Leading zero omitted, Abs format (unit mm)*
G04 Created by KiCad (PCBNEW 9.0.0) date 2025-04-30 00:07:22*
%MOMM*%
%LPD*%
G01*
G04 APERTURE LIST*
G04 Aperture macros list*
%AMRoundRect*
0 Rectangle with rounded corners*
0 $1 Rounding radius*
0 $2 $3 $4 $5 $6 $7 $8 $9 X,Y pos of 4 corners*
0 Add a 4 corners polygon primitive as box body*
4,1,4,$2,$3,$4,$5,$6,$7,$8,$9,$2,$3,0*
0 Add four circle primitives for the rounded corners*
1,1,$1+$1,$2,$3*
1,1,$1+$1,$4,$5*
1,1,$1+$1,$6,$7*
1,1,$1+$1,$8,$9*
0 Add four rect primitives between the rounded corners*
20,1,$1+$1,$2,$3,$4,$5,0*
20,1,$1+$1,$4,$5,$6,$7,0*
20,1,$1+$1,$6,$7,$8,$9,0*
20,1,$1+$1,$8,$9,$2,$3,0*%
G04 Aperture macros list end*
%ADD10C,0.860984*%
%ADD11C,2.200000*%
%ADD12RoundRect,0.250000X-0.350000X-0.450000X0.350000X-0.450000X0.350000X0.450000X-0.350000X0.450000X0*%
%ADD13C,2.336800*%
%ADD14R,2.000000X2.000000*%
%ADD15C,2.000000*%
%ADD16RoundRect,0.250000X-0.475000X0.337500X-0.475000X-0.337500X0.475000X-0.337500X0.475000X0.337500X0*%
%ADD17RoundRect,0.250000X0.325000X0.450000X-0.325000X0.450000X-0.325000X-0.450000X0.325000X-0.450000X0*%
%ADD18O,4.204000X2.204000*%
%ADD19O,2.004000X3.804000*%
%ADD20RoundRect,0.102000X-0.695000X0.695000X-0.695000X-0.695000X0.695000X-0.695000X0.695000X0.695000X0*%
%ADD21C,1.594000*%
%ADD22RoundRect,0.150000X-0.587500X-0.150000X0.587500X-0.150000X0.587500X0.150000X-0.587500X0.150000X0*%
%ADD23O,4.004000X2.104000*%
%ADD24O,2.104000X4.004000*%
%ADD25R,1.700000X1.700000*%
%ADD26O,1.700000X1.700000*%
%ADD27RoundRect,0.102000X-1.000000X-1.000000X1.000000X-1.000000X1.000000X1.000000X-1.000000X1.000000X0*%
%ADD28C,2.204000*%
%ADD29RoundRect,0.102000X1.575000X-0.890000X1.575000X0.890000X-1.575000X0.890000X-1.575000X-0.890000X0*%
%ADD30RoundRect,0.250000X-0.337500X-0.475000X0.337500X-0.475000X0.337500X0.475000X-0.337500X0.475000X0*%
%ADD31RoundRect,0.102000X0.685000X-0.685000X0.685000X0.685000X-0.685000X0.685000X-0.685000X-0.685000X0*%
%ADD32C,1.574000*%
G04 APERTURE END LIST*
%TO.C,J4*%
D10*
X161390492Y-82210000D02*
G75*
G02*
X160529508Y-82210000I-430492J0D01*
G01*
X160529508Y-82210000D02*
G75*
G02*
X161390492Y-82210000I430492J0D01*
G01*
X161390492Y-84750000D02*
G75*
G02*
X160529508Y-84750000I-430492J0D01*
G01*
X160529508Y-84750000D02*
G75*
G02*
X161390492Y-84750000I430492J0D01*
G01*
X161390492Y-87290000D02*
G75*
G02*
X160529508Y-87290000I-430492J0D01*
G01*
X160529508Y-87290000D02*
G75*
G02*
X161390492Y-87290000I430492J0D01*
G01*
X161390492Y-89830000D02*
G75*
G02*
X160529508Y-89830000I-430492J0D01*
G01*
X160529508Y-89830000D02*
G75*
G02*
X161390492Y-89830000I430492J0D01*
G01*
X161390492Y-92370000D02*
G75*
G02*
X160529508Y-92370000I-430492J0D01*
G01*
X160529508Y-92370000D02*
G75*
G02*
X161390492Y-92370000I430492J0D01*
G01*
X161390492Y-94910000D02*
G75*
G02*
X160529508Y-94910000I-430492J0D01*
G01*
X160529508Y-94910000D02*
G75*
G02*
X161390492Y-94910000I430492J0D01*
G01*
X161390492Y-97450000D02*
G75*
G02*
X160529508Y-97450000I-430492J0D01*
G01*
X160529508Y-97450000D02*
G75*
G02*
X161390492Y-97450000I430492J0D01*
G01*
X161390492Y-99990000D02*
G75*
G02*
X160529508Y-99990000I-430492J0D01*
G01*
X160529508Y-99990000D02*
G75*
G02*
X161390492Y-99990000I430492J0D01*
G01*
X163930492Y-82210000D02*
G75*
G02*
X163069508Y-82210000I-430492J0D01*
G01*
X163069508Y-82210000D02*
G75*
G02*
X163930492Y-82210000I430492J0D01*
G01*
X163930492Y-84750000D02*
G75*
G02*
X163069508Y-84750000I-430492J0D01*
G01*
X163069508Y-84750000D02*
G75*
G02*
X163930492Y-84750000I430492J0D01*
G01*
X163930492Y-87290000D02*
G75*
G02*
X163069508Y-87290000I-430492J0D01*
G01*
X163069508Y-87290000D02*
G75*
G02*
X163930492Y-87290000I430492J0D01*
G01*
X163930492Y-89830000D02*
G75*
G02*
X163069508Y-89830000I-430492J0D01*
G01*
X163069508Y-89830000D02*
G75*
G02*
X163930492Y-89830000I430492J0D01*
G01*
X163930492Y-92370000D02*
G75*
G02*
X163069508Y-92370000I-430492J0D01*
G01*
X163069508Y-92370000D02*
G75*
G02*
X163930492Y-92370000I430492J0D01*
G01*
X163930492Y-94910000D02*
G75*
G02*
X163069508Y-94910000I-430492J0D01*
G01*
X163069508Y-94910000D02*
G75*
G02*
X163930492Y-94910000I430492J0D01*
G01*
X163930492Y-97450000D02*
G75*
G02*
X163069508Y-97450000I-430492J0D01*
G01*
X163069508Y-97450000D02*
G75*
G02*
X163930492Y-97450000I430492J0D01*
G01*
X163930492Y-99990000D02*
G75*
G02*
X163069508Y-99990000I-430492J0D01*
G01*
X163069508Y-99990000D02*
G75*
G02*
X163930492Y-99990000I430492J0D01*
G01*
%TD*%
D11*
%TO.C,MH4*%
X162500000Y-121000000D03*
%TD*%
D12*
%TO.C,R2*%
X166650000Y-73350000D03*
X168650000Y-73350000D03*
%TD*%
D13*
%TO.C,J7*%
X177186000Y-96305000D03*
X177186000Y-88050000D03*
%TD*%
D11*
%TO.C,MH1*%
X122200000Y-66500000D03*
%TD*%
D14*
%TO.C,BZ1*%
X186500000Y-74250000D03*
D15*
X178900000Y-74250000D03*
%TD*%
D16*
%TO.C,C1*%
X178750000Y-105000000D03*
X178750000Y-107075000D03*
%TD*%
D12*
%TO.C,R1*%
X170000000Y-83500000D03*
X172000000Y-83500000D03*
%TD*%
D17*
%TO.C,D1*%
X136000000Y-71750000D03*
X133950000Y-71750000D03*
%TD*%
D11*
%TO.C,MH2*%
X187000000Y-66500000D03*
%TD*%
D18*
%TO.C,J6*%
X141267500Y-125000000D03*
D19*
X137517500Y-121300000D03*
X145017500Y-121300000D03*
%TD*%
D20*
%TO.C,J2*%
X147230000Y-71860000D03*
D21*
X147230000Y-74400000D03*
X147230000Y-76940000D03*
X147230000Y-79480000D03*
X147230000Y-82020000D03*
X147230000Y-84560000D03*
X147230000Y-87100000D03*
X147230000Y-89640000D03*
X147230000Y-92180000D03*
X147230000Y-94720000D03*
X147230000Y-97260000D03*
X147230000Y-99800000D03*
X147230000Y-102340000D03*
X147230000Y-104880000D03*
X147230000Y-107420000D03*
%TD*%
D22*
%TO.C,Q1*%
X172412500Y-73350000D03*
X172412500Y-75250000D03*
X174287500Y-74300000D03*
%TD*%
D17*
%TO.C,D3*%
X172000000Y-81000000D03*
X169950000Y-81000000D03*
%TD*%
D23*
%TO.C,J8*%
X182950000Y-113237500D03*
X182950000Y-119167500D03*
D24*
X187600000Y-115917500D03*
%TD*%
D25*
%TO.C,J9*%
X152500000Y-66500000D03*
D26*
X155040000Y-66500000D03*
X157580000Y-66500000D03*
X160120000Y-66500000D03*
X162660000Y-66500000D03*
X165200000Y-66500000D03*
X167740000Y-66500000D03*
X170280000Y-66500000D03*
X172820000Y-66500000D03*
%TD*%
D11*
%TO.C,MH3*%
X124000000Y-113750000D03*
%TD*%
D18*
%TO.C,J5*%
X126017500Y-125000000D03*
D19*
X122267500Y-121300000D03*
X129767500Y-121300000D03*
%TD*%
D27*
%TO.C,U1*%
X-41750000Y-179690000D03*
D28*
X-41750000Y-182230000D03*
X-41750000Y-184770000D03*
X-41750000Y-187310000D03*
X-41750000Y-189850000D03*
X-41750000Y-192390000D03*
X-41750000Y-194930000D03*
X-41750000Y-197470000D03*
X-41750000Y-200010000D03*
X-41750000Y-202550000D03*
X-41750000Y-205090000D03*
X-41750000Y-207630000D03*
X-41750000Y-210170000D03*
X-41750000Y-212710000D03*
X-41750000Y-215250000D03*
X-16350000Y-215250000D03*
X-16350000Y-212710000D03*
X-16350000Y-210170000D03*
X-16350000Y-207630000D03*
X-16350000Y-205090000D03*
X-16350000Y-202550000D03*
X-16350000Y-200010000D03*
X-16350000Y-197470000D03*
X-16350000Y-194930000D03*
X-16350000Y-192390000D03*
X-16350000Y-189850000D03*
X-16350000Y-187310000D03*
X-16350000Y-184770000D03*
X-16350000Y-182230000D03*
X-16350000Y-179690000D03*
%TD*%
D29*
%TO.C,F1*%
X183250000Y-109250000D03*
X183250000Y-104020000D03*
%TD*%
D17*
%TO.C,D2*%
X136000000Y-74500000D03*
X133950000Y-74500000D03*
%TD*%
D14*
%TO.C,C2*%
X174750000Y-121000000D03*
D15*
X169750000Y-121000000D03*
%TD*%
D30*
%TO.C,C3*%
X124500000Y-82000000D03*
X126575000Y-82000000D03*
%TD*%
%TO.C,C4*%
X124500000Y-79500000D03*
X126575000Y-79500000D03*
%TD*%
D20*
%TO.C,J1*%
X121830000Y-71860000D03*
D21*
X121830000Y-74400000D03*
X121830000Y-76940000D03*
X121830000Y-79480000D03*
X121830000Y-82020000D03*
X121830000Y-84560000D03*
X121830000Y-87100000D03*
X121830000Y-89640000D03*
X121830000Y-92180000D03*
X121830000Y-94720000D03*
X121830000Y-97260000D03*
X121830000Y-99800000D03*
X121830000Y-102340000D03*
X121830000Y-104880000D03*
X121830000Y-107420000D03*
%TD*%
D31*
%TO.C,J3*%
X133010000Y-80802500D03*
D32*
X135550000Y-80802500D03*
X133010000Y-83342500D03*
X135550000Y-83342500D03*
X133010000Y-85882500D03*
X135550000Y-85882500D03*
X133010000Y-88422500D03*
X135550000Y-88422500D03*
X133010000Y-90962500D03*
X135550000Y-90962500D03*
X133010000Y-93502500D03*
X135550000Y-93502500D03*
X133010000Y-96042500D03*
X135550000Y-96042500D03*
X133010000Y-98582500D03*
X135550000Y-98582500D03*
%TD*%
M02*
