%TF.GenerationSoftware,KiCad,Pcbnew,9.0.0*%
%TF.CreationDate,2025-04-30T00:07:22-04:00*%
%TF.ProjectId,W4MLB_Band_Display,57344d4c-425f-4426-916e-645f44697370,1.0*%
%TF.SameCoordinates,Original*%
%TF.FileFunction,Copper,L1,Top*%
%TF.FilePolarity,Positive*%
%FSLAX46Y46*%
G04 Gerber Fmt 4.6, Leading zero omitted, Abs format (unit mm)*
G04 Created by KiCad (PCBNEW 9.0.0) date 2025-04-30 00:07:22*
%MOMM*%
%LPD*%
G01*
G04 APERTURE LIST*
G04 Aperture macros list*
%AMRoundRect*
0 Rectangle with rounded corners*
0 $1 Rounding radius*
0 $2 $3 $4 $5 $6 $7 $8 $9 X,Y pos of 4 corners*
0 Add a 4 corners polygon primitive as box body*
4,1,4,$2,$3,$4,$5,$6,$7,$8,$9,$2,$3,0*
0 Add four circle primitives for the rounded corners*
1,1,$1+$1,$2,$3*
1,1,$1+$1,$4,$5*
1,1,$1+$1,$6,$7*
1,1,$1+$1,$8,$9*
0 Add four rect primitives between the rounded corners*
20,1,$1+$1,$2,$3,$4,$5,0*
20,1,$1+$1,$4,$5,$6,$7,0*
20,1,$1+$1,$6,$7,$8,$9,0*
20,1,$1+$1,$8,$9,$2,$3,0*%
G04 Aperture macros list end*
%TA.AperFunction,SMDPad,CuDef*%
%ADD10RoundRect,0.250000X-0.350000X-0.450000X0.350000X-0.450000X0.350000X0.450000X-0.350000X0.450000X0*%
%TD*%
%TA.AperFunction,ComponentPad*%
%ADD11C,2.336800*%
%TD*%
%TA.AperFunction,ComponentPad*%
%ADD12R,2.000000X2.000000*%
%TD*%
%TA.AperFunction,ComponentPad*%
%ADD13C,2.000000*%
%TD*%
%TA.AperFunction,SMDPad,CuDef*%
%ADD14RoundRect,0.250000X-0.475000X0.337500X-0.475000X-0.337500X0.475000X-0.337500X0.475000X0.337500X0*%
%TD*%
%TA.AperFunction,SMDPad,CuDef*%
%ADD15RoundRect,0.250000X0.325000X0.450000X-0.325000X0.450000X-0.325000X-0.450000X0.325000X-0.450000X0*%
%TD*%
%TA.AperFunction,ComponentPad*%
%ADD16O,4.000000X2.000000*%
%TD*%
%TA.AperFunction,ComponentPad*%
%ADD17O,1.800000X3.600000*%
%TD*%
%TA.AperFunction,ComponentPad*%
%ADD18R,1.390000X1.390000*%
%TD*%
%TA.AperFunction,ComponentPad*%
%ADD19C,1.390000*%
%TD*%
%TA.AperFunction,ComponentPad*%
%ADD20C,1.620010*%
%TD*%
%TA.AperFunction,SMDPad,CuDef*%
%ADD21RoundRect,0.150000X-0.587500X-0.150000X0.587500X-0.150000X0.587500X0.150000X-0.587500X0.150000X0*%
%TD*%
%TA.AperFunction,ComponentPad*%
%ADD22O,3.800000X1.900000*%
%TD*%
%TA.AperFunction,ComponentPad*%
%ADD23O,1.900000X3.800000*%
%TD*%
%TA.AperFunction,ComponentPad*%
%ADD24R,1.700000X1.700000*%
%TD*%
%TA.AperFunction,ComponentPad*%
%ADD25O,1.700000X1.700000*%
%TD*%
%TA.AperFunction,SMDPad,CuDef*%
%ADD26R,3.150000X1.780000*%
%TD*%
%TA.AperFunction,SMDPad,CuDef*%
%ADD27RoundRect,0.250000X-0.337500X-0.475000X0.337500X-0.475000X0.337500X0.475000X-0.337500X0.475000X0*%
%TD*%
%TA.AperFunction,ComponentPad*%
%ADD28R,1.370000X1.370000*%
%TD*%
%TA.AperFunction,ComponentPad*%
%ADD29C,1.370000*%
%TD*%
%TA.AperFunction,ViaPad*%
%ADD30C,0.600000*%
%TD*%
%TA.AperFunction,Conductor*%
%ADD31C,0.400000*%
%TD*%
%TA.AperFunction,Conductor*%
%ADD32C,0.200000*%
%TD*%
%TA.AperFunction,Conductor*%
%ADD33C,0.900000*%
%TD*%
%TA.AperFunction,Conductor*%
%ADD34C,0.254000*%
%TD*%
G04 APERTURE END LIST*
D10*
%TO.P,R2,1*%
%TO.N,GPIO2*%
X166650000Y-73350000D03*
%TO.P,R2,2*%
%TO.N,Net-(Q1-B)*%
X168650000Y-73350000D03*
%TD*%
D11*
%TO.P,J7,1,1*%
%TO.N,+5V*%
X177186000Y-96305000D03*
%TO.P,J7,2,2*%
%TO.N,GND*%
X177186000Y-88050000D03*
%TD*%
D12*
%TO.P,BZ1,1,+*%
%TO.N,+5V*%
X186500000Y-74250000D03*
D13*
%TO.P,BZ1,2,-*%
%TO.N,Net-(BZ1--)*%
X178900000Y-74250000D03*
%TD*%
D14*
%TO.P,C1,1*%
%TO.N,+5V*%
X178750000Y-105000000D03*
%TO.P,C1,2*%
%TO.N,GND*%
X178750000Y-107075000D03*
%TD*%
D10*
%TO.P,R1,1*%
%TO.N,Net-(D3-A)*%
X170000000Y-83500000D03*
%TO.P,R1,2*%
%TO.N,+5V*%
X172000000Y-83500000D03*
%TD*%
D15*
%TO.P,D1,1,K*%
%TO.N,GPIO23*%
X136000000Y-71750000D03*
%TO.P,D1,2,A*%
%TO.N,GPIO34*%
X133950000Y-71750000D03*
%TD*%
D16*
%TO.P,J6,1*%
%TO.N,GND*%
X141267500Y-125000000D03*
D17*
%TO.P,J6,2*%
%TO.N,GPIO35*%
X137517500Y-121300000D03*
%TO.P,J6,3*%
%TO.N,GND*%
X145017500Y-121300000D03*
%TD*%
D18*
%TO.P,J2,01,01*%
%TO.N,GPIO23*%
X147230000Y-71860000D03*
D19*
%TO.P,J2,02,02*%
%TO.N,GPIO22*%
X147230000Y-74400000D03*
%TO.P,J2,03,03*%
%TO.N,GPIO1*%
X147230000Y-76940000D03*
%TO.P,J2,04,04*%
%TO.N,GPIO3*%
X147230000Y-79480000D03*
%TO.P,J2,05,05*%
%TO.N,GPIO21*%
X147230000Y-82020000D03*
%TO.P,J2,06,06*%
%TO.N,GPIO19*%
X147230000Y-84560000D03*
%TO.P,J2,07,07*%
%TO.N,GPIO18*%
X147230000Y-87100000D03*
%TO.P,J2,08,08*%
%TO.N,GPIO5*%
X147230000Y-89640000D03*
%TO.P,J2,09,09*%
%TO.N,GPIO17*%
X147230000Y-92180000D03*
%TO.P,J2,10,10*%
%TO.N,GPIO16*%
X147230000Y-94720000D03*
%TO.P,J2,11,11*%
%TO.N,GPIO4*%
X147230000Y-97260000D03*
%TO.P,J2,12,12*%
%TO.N,GPIO2*%
X147230000Y-99800000D03*
%TO.P,J2,13,13*%
%TO.N,GPIO15*%
X147230000Y-102340000D03*
%TO.P,J2,14,14*%
%TO.N,GND*%
X147230000Y-104880000D03*
%TO.P,J2,15,15*%
%TO.N,/+3.3VDC*%
X147230000Y-107420000D03*
%TD*%
D20*
%TO.P,J4,1,1*%
%TO.N,GPIO32*%
X163500000Y-99990000D03*
%TO.P,J4,2,2*%
%TO.N,GPIO18*%
X160960000Y-99990000D03*
%TO.P,J4,3,3*%
%TO.N,GPIO33*%
X163500000Y-97450000D03*
%TO.P,J4,4,4*%
%TO.N,GND*%
X160960000Y-97450000D03*
%TO.P,J4,5,5*%
%TO.N,GPIO25*%
X163500000Y-94910000D03*
%TO.P,J4,6,6*%
%TO.N,GPIO5*%
X160960000Y-94910000D03*
%TO.P,J4,7,7*%
%TO.N,GPIO26*%
X163500000Y-92370000D03*
%TO.P,J4,8,8*%
%TO.N,GPIO17*%
X160960000Y-92370000D03*
%TO.P,J4,9,9*%
%TO.N,GPIO27*%
X163500000Y-89830000D03*
%TO.P,J4,10,10*%
%TO.N,GPIO16*%
X160960000Y-89830000D03*
%TO.P,J4,11,11*%
%TO.N,GPIO14*%
X163500000Y-87290000D03*
%TO.P,J4,12,12*%
%TO.N,GPIO4*%
X160960000Y-87290000D03*
%TO.P,J4,13,13*%
%TO.N,GPIO12*%
X163500000Y-84750000D03*
%TO.P,J4,14,14*%
%TO.N,GPIO15*%
X160960000Y-84750000D03*
%TO.P,J4,15,15*%
%TO.N,GPIO13*%
X163500000Y-82210000D03*
%TO.P,J4,16,16*%
%TO.N,GND*%
X160960000Y-82210000D03*
%TD*%
D21*
%TO.P,Q1,1,B*%
%TO.N,Net-(Q1-B)*%
X172412500Y-73350000D03*
%TO.P,Q1,2,E*%
%TO.N,GND*%
X172412500Y-75250000D03*
%TO.P,Q1,3,C*%
%TO.N,Net-(BZ1--)*%
X174287500Y-74300000D03*
%TD*%
D15*
%TO.P,D3,1,K*%
%TO.N,GND*%
X172000000Y-81000000D03*
%TO.P,D3,2,A*%
%TO.N,Net-(D3-A)*%
X169950000Y-81000000D03*
%TD*%
D22*
%TO.P,J8,1*%
%TO.N,/PWR IN*%
X182950000Y-113237500D03*
%TO.P,J8,2*%
%TO.N,GND*%
X182950000Y-119167500D03*
D23*
%TO.P,J8,3*%
X187600000Y-115917500D03*
%TD*%
D24*
%TO.P,J9,1,Pin_1*%
%TO.N,GPIO36*%
X152500000Y-66500000D03*
D25*
%TO.P,J9,2,Pin_2*%
%TO.N,GPIO39*%
X155040000Y-66500000D03*
%TO.P,J9,3,Pin_3*%
%TO.N,GPIO21*%
X157580000Y-66500000D03*
%TO.P,J9,4,Pin_4*%
%TO.N,GPIO22*%
X160120000Y-66500000D03*
%TO.P,J9,5,Pin_5*%
%TO.N,GPIO1*%
X162660000Y-66500000D03*
%TO.P,J9,6,Pin_6*%
%TO.N,GPIO3*%
X165200000Y-66500000D03*
%TO.P,J9,7,Pin_7*%
%TO.N,GND*%
X167740000Y-66500000D03*
%TO.P,J9,8,Pin_8*%
%TO.N,/+3.3VDC*%
X170280000Y-66500000D03*
%TO.P,J9,9,Pin_9*%
%TO.N,+5V*%
X172820000Y-66500000D03*
%TD*%
D16*
%TO.P,J5,1*%
%TO.N,GND*%
X126017500Y-125000000D03*
D17*
%TO.P,J5,2*%
%TO.N,GPIO34*%
X122267500Y-121300000D03*
%TO.P,J5,3*%
%TO.N,GND*%
X129767500Y-121300000D03*
%TD*%
D12*
%TO.P,U1,1,3V3*%
%TO.N,unconnected-(U1-3V3-Pad1)*%
X-41750000Y-179690000D03*
D13*
%TO.P,U1,2,GND*%
%TO.N,unconnected-(U1-GND-Pad2)*%
X-41750000Y-182230000D03*
%TO.P,U1,3,D15*%
%TO.N,unconnected-(U1-D15-Pad3)*%
X-41750000Y-184770000D03*
%TO.P,U1,4,D2*%
%TO.N,unconnected-(U1-D2-Pad4)*%
X-41750000Y-187310000D03*
%TO.P,U1,5,D4*%
%TO.N,unconnected-(U1-D4-Pad5)*%
X-41750000Y-189850000D03*
%TO.P,U1,6,RX2*%
%TO.N,unconnected-(U1-RX2-Pad6)*%
X-41750000Y-192390000D03*
%TO.P,U1,7,TX2*%
%TO.N,unconnected-(U1-TX2-Pad7)*%
X-41750000Y-194930000D03*
%TO.P,U1,8,D5*%
%TO.N,unconnected-(U1-D5-Pad8)*%
X-41750000Y-197470000D03*
%TO.P,U1,9,D18*%
%TO.N,unconnected-(U1-D18-Pad9)*%
X-41750000Y-200010000D03*
%TO.P,U1,10,D19*%
%TO.N,unconnected-(U1-D19-Pad10)*%
X-41750000Y-202550000D03*
%TO.P,U1,11,D21*%
%TO.N,unconnected-(U1-D21-Pad11)*%
X-41750000Y-205090000D03*
%TO.P,U1,12,RX0*%
%TO.N,unconnected-(U1-RX0-Pad12)*%
X-41750000Y-207630000D03*
%TO.P,U1,13,TX0*%
%TO.N,unconnected-(U1-TX0-Pad13)*%
X-41750000Y-210170000D03*
%TO.P,U1,14,D22*%
%TO.N,unconnected-(U1-D22-Pad14)*%
X-41750000Y-212710000D03*
%TO.P,U1,15,D23*%
%TO.N,unconnected-(U1-D23-Pad15)*%
X-41750000Y-215250000D03*
%TO.P,U1,16,EN*%
%TO.N,unconnected-(U1-EN-Pad16)*%
X-16350000Y-215250000D03*
%TO.P,U1,17,VP*%
%TO.N,unconnected-(U1-VP-Pad17)*%
X-16350000Y-212710000D03*
%TO.P,U1,18,VN*%
%TO.N,unconnected-(U1-VN-Pad18)*%
X-16350000Y-210170000D03*
%TO.P,U1,19,D34*%
%TO.N,unconnected-(U1-D34-Pad19)*%
X-16350000Y-207630000D03*
%TO.P,U1,20,D35*%
%TO.N,unconnected-(U1-D35-Pad20)*%
X-16350000Y-205090000D03*
%TO.P,U1,21,D32*%
%TO.N,unconnected-(U1-D32-Pad21)*%
X-16350000Y-202550000D03*
%TO.P,U1,22,D33*%
%TO.N,unconnected-(U1-D33-Pad22)*%
X-16350000Y-200010000D03*
%TO.P,U1,23,D25*%
%TO.N,unconnected-(U1-D25-Pad23)*%
X-16350000Y-197470000D03*
%TO.P,U1,24,D26*%
%TO.N,unconnected-(U1-D26-Pad24)*%
X-16350000Y-194930000D03*
%TO.P,U1,25,D27*%
%TO.N,unconnected-(U1-D27-Pad25)*%
X-16350000Y-192390000D03*
%TO.P,U1,26,D14*%
%TO.N,unconnected-(U1-D14-Pad26)*%
X-16350000Y-189850000D03*
%TO.P,U1,27,D12*%
%TO.N,unconnected-(U1-D12-Pad27)*%
X-16350000Y-187310000D03*
%TO.P,U1,28,D13*%
%TO.N,unconnected-(U1-D13-Pad28)*%
X-16350000Y-184770000D03*
%TO.P,U1,29,GND__1*%
%TO.N,unconnected-(U1-GND__1-Pad29)*%
X-16350000Y-182230000D03*
%TO.P,U1,30,VIN*%
%TO.N,unconnected-(U1-VIN-Pad30)*%
X-16350000Y-179690000D03*
%TD*%
D26*
%TO.P,F1,1*%
%TO.N,/PWR IN*%
X183250000Y-109250000D03*
%TO.P,F1,2*%
%TO.N,+5V*%
X183250000Y-104020000D03*
%TD*%
D15*
%TO.P,D2,1,K*%
%TO.N,GPIO19*%
X136000000Y-74500000D03*
%TO.P,D2,2,A*%
%TO.N,GPIO35*%
X133950000Y-74500000D03*
%TD*%
D12*
%TO.P,C2,1*%
%TO.N,+5V*%
X174750000Y-121000000D03*
D13*
%TO.P,C2,2*%
%TO.N,GND*%
X169750000Y-121000000D03*
%TD*%
D27*
%TO.P,C3,1*%
%TO.N,GPIO35*%
X124500000Y-82000000D03*
%TO.P,C3,2*%
%TO.N,GND*%
X126575000Y-82000000D03*
%TD*%
%TO.P,C4,1*%
%TO.N,GPIO34*%
X124500000Y-79500000D03*
%TO.P,C4,2*%
%TO.N,GND*%
X126575000Y-79500000D03*
%TD*%
D18*
%TO.P,J1,01,01*%
%TO.N,unconnected-(J1-Pad01)*%
X121830000Y-71860000D03*
D19*
%TO.P,J1,02,02*%
%TO.N,GPIO36*%
X121830000Y-74400000D03*
%TO.P,J1,03,03*%
%TO.N,GPIO39*%
X121830000Y-76940000D03*
%TO.P,J1,04,04*%
%TO.N,GPIO34*%
X121830000Y-79480000D03*
%TO.P,J1,05,05*%
%TO.N,GPIO35*%
X121830000Y-82020000D03*
%TO.P,J1,06,06*%
%TO.N,GPIO32*%
X121830000Y-84560000D03*
%TO.P,J1,07,07*%
%TO.N,GPIO33*%
X121830000Y-87100000D03*
%TO.P,J1,08,08*%
%TO.N,GPIO25*%
X121830000Y-89640000D03*
%TO.P,J1,09,09*%
%TO.N,GPIO26*%
X121830000Y-92180000D03*
%TO.P,J1,10,10*%
%TO.N,GPIO27*%
X121830000Y-94720000D03*
%TO.P,J1,11,11*%
%TO.N,GPIO14*%
X121830000Y-97260000D03*
%TO.P,J1,12,12*%
%TO.N,GPIO12*%
X121830000Y-99800000D03*
%TO.P,J1,13,13*%
%TO.N,GPIO13*%
X121830000Y-102340000D03*
%TO.P,J1,14,14*%
%TO.N,GND*%
X121830000Y-104880000D03*
%TO.P,J1,15,15*%
%TO.N,+5V*%
X121830000Y-107420000D03*
%TD*%
D28*
%TO.P,J3,01,01*%
%TO.N,GPIO32*%
X133010000Y-80802500D03*
D29*
%TO.P,J3,02,02*%
%TO.N,GPIO18*%
X135550000Y-80802500D03*
%TO.P,J3,03,03*%
%TO.N,GPIO33*%
X133010000Y-83342500D03*
%TO.P,J3,04,04*%
%TO.N,GND*%
X135550000Y-83342500D03*
%TO.P,J3,05,05*%
%TO.N,GPIO25*%
X133010000Y-85882500D03*
%TO.P,J3,06,06*%
%TO.N,GPIO5*%
X135550000Y-85882500D03*
%TO.P,J3,07,07*%
%TO.N,GPIO26*%
X133010000Y-88422500D03*
%TO.P,J3,08,08*%
%TO.N,GPIO17*%
X135550000Y-88422500D03*
%TO.P,J3,09,09*%
%TO.N,GPIO27*%
X133010000Y-90962500D03*
%TO.P,J3,10,10*%
%TO.N,GPIO16*%
X135550000Y-90962500D03*
%TO.P,J3,11,11*%
%TO.N,GPIO14*%
X133010000Y-93502500D03*
%TO.P,J3,12,12*%
%TO.N,GPIO4*%
X135550000Y-93502500D03*
%TO.P,J3,13,13*%
%TO.N,GPIO12*%
X133010000Y-96042500D03*
%TO.P,J3,14,14*%
%TO.N,GPIO15*%
X135550000Y-96042500D03*
%TO.P,J3,15,15*%
%TO.N,GPIO13*%
X133010000Y-98582500D03*
%TO.P,J3,16,16*%
%TO.N,GND*%
X135550000Y-98582500D03*
%TD*%
D30*
%TO.N,GND*%
X127980000Y-82000000D03*
X174125000Y-81000000D03*
X172400000Y-77050000D03*
X128000000Y-79450000D03*
X178750000Y-108490000D03*
%TO.N,GPIO32*%
X131200000Y-80802500D03*
%TO.N,GPIO16*%
X152250000Y-94750000D03*
%TO.N,GPIO17*%
X154100000Y-92370000D03*
%TO.N,GPIO13*%
X124200000Y-102362500D03*
%TO.N,GPIO33*%
X130200000Y-83882500D03*
%TO.N,GPIO25*%
X129200000Y-86962500D03*
%TO.N,GPIO27*%
X127200000Y-93122500D03*
%TO.N,GPIO26*%
X128200000Y-90042500D03*
%TO.N,GPIO2*%
X163550000Y-73350000D03*
%TO.N,GPIO14*%
X126200000Y-96202500D03*
%TO.N,GPIO12*%
X125200000Y-99282500D03*
%TO.N,GPIO5*%
X155500000Y-94900000D03*
%TO.N,GPIO15*%
X151400000Y-96750000D03*
%TD*%
D31*
%TO.N,GND*%
X172400000Y-77050000D02*
X172400000Y-75262500D01*
D32*
X128000000Y-79390000D02*
X128000000Y-79450000D01*
X126575000Y-82000000D02*
X127980000Y-82000000D01*
X127950000Y-79500000D02*
X126575000Y-79500000D01*
D31*
X178750000Y-108490000D02*
X178750000Y-107075000D01*
X174125000Y-81000000D02*
X172000000Y-81000000D01*
D32*
X172400000Y-75262500D02*
X172412500Y-75250000D01*
X128000000Y-79450000D02*
X127950000Y-79500000D01*
D33*
%TO.N,+5V*%
X186500000Y-72250000D02*
X180750000Y-66500000D01*
D32*
X172000000Y-83500000D02*
X172045000Y-83455000D01*
D33*
X169710000Y-112000000D02*
X174750000Y-117040000D01*
X186500000Y-72250000D02*
X186500000Y-74250000D01*
X186500000Y-74250000D02*
X186500000Y-86991000D01*
X174750000Y-117040000D02*
X174750000Y-121000000D01*
X126400000Y-112000000D02*
X169710000Y-112000000D01*
X121830000Y-107420000D02*
X121830000Y-107430000D01*
D31*
X182605000Y-83455000D02*
X182650000Y-83500000D01*
X172045000Y-83455000D02*
X182605000Y-83455000D01*
D33*
X121830000Y-107430000D02*
X126400000Y-112000000D01*
X186500000Y-86991000D02*
X177186000Y-96305000D01*
D31*
X182650000Y-83500000D02*
X186141000Y-86991000D01*
X185700000Y-74250000D02*
X186500000Y-74250000D01*
D33*
X180750000Y-66500000D02*
X172710000Y-66500000D01*
D32*
X174790000Y-111920000D02*
X174750000Y-111960000D01*
D34*
%TO.N,GPIO32*%
X131200000Y-80802500D02*
X131220000Y-80802500D01*
X131097500Y-80802500D02*
X131200000Y-80802500D01*
X121830000Y-84560000D02*
X127340000Y-84560000D01*
X131220000Y-80802500D02*
X133010000Y-80802500D01*
X127340000Y-84560000D02*
X131097500Y-80802500D01*
D32*
%TO.N,GPIO16*%
X145625000Y-94725000D02*
X145630000Y-94720000D01*
X141862500Y-90962500D02*
X145625000Y-94725000D01*
X152250000Y-91400000D02*
X152250000Y-94750000D01*
X145630000Y-94720000D02*
X147230000Y-94720000D01*
X153820000Y-89830000D02*
X152400000Y-91250000D01*
X135550000Y-90962500D02*
X141862500Y-90962500D01*
X152400000Y-91250000D02*
X152250000Y-91400000D01*
X160960000Y-89830000D02*
X153820000Y-89830000D01*
%TO.N,GPIO34*%
X121830000Y-79480000D02*
X124480000Y-79480000D01*
X120050000Y-81260000D02*
X120050000Y-119750000D01*
X121830000Y-79480000D02*
X120050000Y-81260000D01*
X124500000Y-76450000D02*
X124500000Y-79500000D01*
X129200000Y-71750000D02*
X124500000Y-76450000D01*
X120050000Y-119750000D02*
X121600000Y-121300000D01*
X133950000Y-71750000D02*
X129200000Y-71750000D01*
X124480000Y-79480000D02*
X124500000Y-79500000D01*
X121600000Y-121300000D02*
X122267500Y-121300000D01*
%TO.N,GPIO17*%
X141822500Y-88422500D02*
X145580000Y-92180000D01*
X154100000Y-92370000D02*
X160960000Y-92370000D01*
X145580000Y-92180000D02*
X147230000Y-92180000D01*
X135550000Y-88422500D02*
X141822500Y-88422500D01*
%TO.N,GPIO36*%
X128600000Y-68000000D02*
X150890000Y-68000000D01*
X121830000Y-74400000D02*
X122200000Y-74400000D01*
X122200000Y-74400000D02*
X128600000Y-68000000D01*
X150890000Y-68000000D02*
X152390000Y-66500000D01*
%TO.N,GPIO4*%
X141602500Y-93502500D02*
X145360000Y-97260000D01*
X135550000Y-93502500D02*
X141602500Y-93502500D01*
X162250000Y-101550000D02*
X161050000Y-102750000D01*
X162250000Y-88580000D02*
X162250000Y-101550000D01*
X160960000Y-87290000D02*
X162250000Y-88580000D01*
X152720000Y-102750000D02*
X147230000Y-97260000D01*
X145360000Y-97260000D02*
X147230000Y-97260000D01*
X161050000Y-102750000D02*
X152720000Y-102750000D01*
%TO.N,GPIO13*%
X126342500Y-102340000D02*
X130100000Y-98582500D01*
X130100000Y-98582500D02*
X133010000Y-98582500D01*
X121830000Y-102340000D02*
X124130000Y-102340000D01*
X124130000Y-102340000D02*
X124140000Y-102340000D01*
X124140000Y-102340000D02*
X126342500Y-102340000D01*
%TO.N,GPIO33*%
X130732500Y-83350000D02*
X130200000Y-83882500D01*
X127000000Y-87100000D02*
X121830000Y-87100000D01*
X133010000Y-83342500D02*
X133010000Y-83340000D01*
X130200000Y-83900000D02*
X127000000Y-87100000D01*
X133010000Y-83342500D02*
X133002500Y-83350000D01*
X130200000Y-83882500D02*
X130200000Y-83900000D01*
X133002500Y-83350000D02*
X130732500Y-83350000D01*
%TO.N,GPIO39*%
X153750000Y-69400000D02*
X155050000Y-68100000D01*
X129370000Y-69400000D02*
X153750000Y-69400000D01*
X121830000Y-76940000D02*
X129370000Y-69400000D01*
X155050000Y-68100000D02*
X155050000Y-66620000D01*
%TO.N,GPIO25*%
X129401250Y-86761250D02*
X129401250Y-86748750D01*
X126522500Y-89640000D02*
X129401250Y-86761250D01*
X129401250Y-86748750D02*
X130267500Y-85882500D01*
X121830000Y-89640000D02*
X126522500Y-89640000D01*
X130267500Y-85882500D02*
X133010000Y-85882500D01*
%TO.N,GPIO35*%
X133950000Y-74650000D02*
X133950000Y-74500000D01*
X130150000Y-78450000D02*
X130150000Y-75600000D01*
X127850000Y-80750000D02*
X130150000Y-78450000D01*
X124480000Y-82020000D02*
X124500000Y-82000000D01*
X124500000Y-82000000D02*
X125750000Y-80750000D01*
X121830000Y-82020000D02*
X124480000Y-82020000D01*
X131250000Y-74500000D02*
X133950000Y-74500000D01*
X130150000Y-75600000D02*
X131250000Y-74500000D01*
X125750000Y-80750000D02*
X127850000Y-80750000D01*
%TO.N,GPIO27*%
X125602500Y-94720000D02*
X127200000Y-93122500D01*
X127227500Y-93122500D02*
X129387500Y-90962500D01*
X121830000Y-94720000D02*
X125602500Y-94720000D01*
X129387500Y-90962500D02*
X133010000Y-90962500D01*
X127200000Y-93122500D02*
X127227500Y-93122500D01*
%TO.N,GPIO26*%
X129800000Y-88450000D02*
X132982500Y-88450000D01*
X126070000Y-92180000D02*
X129800000Y-88450000D01*
X121830000Y-92180000D02*
X126070000Y-92180000D01*
X133010000Y-88460000D02*
X133010000Y-88422500D01*
X132982500Y-88450000D02*
X133010000Y-88422500D01*
%TO.N,GPIO2*%
X166650000Y-73350000D02*
X163550000Y-73350000D01*
%TO.N,GPIO14*%
X126200000Y-96202500D02*
X128900000Y-93502500D01*
X128900000Y-93502500D02*
X133010000Y-93502500D01*
X125142500Y-97260000D02*
X126200000Y-96202500D01*
X121830000Y-97260000D02*
X125142500Y-97260000D01*
%TO.N,GPIO22*%
X147230000Y-74400000D02*
X153600000Y-74400000D01*
X153600000Y-74400000D02*
X160150000Y-67850000D01*
X160150000Y-67850000D02*
X160150000Y-66640000D01*
%TO.N,GPIO18*%
X147230000Y-87100000D02*
X148900000Y-87100000D01*
X150400000Y-88600000D02*
X150400000Y-97700000D01*
X135550000Y-80802500D02*
X138952500Y-80802500D01*
X152690000Y-99990000D02*
X160960000Y-99990000D01*
X150400000Y-97700000D02*
X152690000Y-99990000D01*
X145250000Y-87100000D02*
X147230000Y-87100000D01*
X135647500Y-80900000D02*
X135550000Y-80802500D01*
X138952500Y-80802500D02*
X145250000Y-87100000D01*
X148900000Y-87100000D02*
X150400000Y-88600000D01*
%TO.N,GPIO1*%
X162700000Y-68250000D02*
X162700000Y-66650000D01*
X147230000Y-76940000D02*
X154010000Y-76940000D01*
X154010000Y-76940000D02*
X162700000Y-68250000D01*
%TO.N,GPIO12*%
X125200000Y-99282500D02*
X128440000Y-96042500D01*
X128440000Y-96042500D02*
X133010000Y-96042500D01*
X121830000Y-99800000D02*
X124682500Y-99800000D01*
X133010000Y-96042500D02*
X133642500Y-96042500D01*
X124682500Y-99800000D02*
X125200000Y-99282500D01*
%TO.N,GPIO3*%
X165200000Y-68650000D02*
X165200000Y-66610000D01*
X147230000Y-79480000D02*
X154370000Y-79480000D01*
X154370000Y-79480000D02*
X165200000Y-68650000D01*
%TO.N,GPIO23*%
X136000000Y-71750000D02*
X147120000Y-71750000D01*
X147120000Y-71750000D02*
X147230000Y-71860000D01*
%TO.N,GPIO5*%
X155510000Y-94910000D02*
X155500000Y-94900000D01*
X160960000Y-94910000D02*
X155510000Y-94910000D01*
X141582500Y-85882500D02*
X145340000Y-89640000D01*
X135550000Y-85882500D02*
X141582500Y-85882500D01*
X145340000Y-89640000D02*
X147230000Y-89640000D01*
%TO.N,GPIO15*%
X138742500Y-96042500D02*
X145050000Y-102350000D01*
X151550000Y-88550000D02*
X151400000Y-88700000D01*
X145060000Y-102340000D02*
X147230000Y-102340000D01*
X151400000Y-88700000D02*
X151400000Y-96750000D01*
X155350000Y-84750000D02*
X151550000Y-88550000D01*
X160960000Y-84750000D02*
X155350000Y-84750000D01*
X135550000Y-96042500D02*
X138742500Y-96042500D01*
X145050000Y-102350000D02*
X145060000Y-102340000D01*
%TO.N,GPIO21*%
X145770000Y-82020000D02*
X144800000Y-81050000D01*
X157600000Y-67900000D02*
X157600000Y-66630000D01*
X146100000Y-73100000D02*
X152400000Y-73100000D01*
X144800000Y-74400000D02*
X146100000Y-73100000D01*
X147230000Y-82020000D02*
X145770000Y-82020000D01*
X144800000Y-81050000D02*
X144800000Y-74400000D01*
X152400000Y-73100000D02*
X157600000Y-67900000D01*
%TO.N,GPIO19*%
X141150000Y-76250000D02*
X139400000Y-74500000D01*
X139400000Y-74500000D02*
X136000000Y-74500000D01*
X145260000Y-84560000D02*
X141150000Y-80450000D01*
X141150000Y-80450000D02*
X141150000Y-76250000D01*
X147230000Y-84560000D02*
X145260000Y-84560000D01*
%TO.N,Net-(D3-A)*%
X169975000Y-83475000D02*
X170000000Y-83500000D01*
D31*
X170000000Y-83500000D02*
X170000000Y-81050000D01*
%TO.N,Net-(BZ1--)*%
X178850000Y-74300000D02*
X178900000Y-74250000D01*
X174287500Y-74300000D02*
X178850000Y-74300000D01*
D32*
X178900000Y-74250000D02*
X178900000Y-74750000D01*
%TO.N,Net-(Q1-B)*%
X168650000Y-73350000D02*
X172412500Y-73350000D01*
%TD*%
%TA.AperFunction,Conductor*%
%TO.N,/PWR IN*%
G36*
X183527353Y-107451990D02*
G01*
X184785496Y-107456444D01*
X184797618Y-107457082D01*
X184974267Y-107475094D01*
X184998062Y-107479910D01*
X185161958Y-107530209D01*
X185184365Y-107539573D01*
X185335313Y-107620850D01*
X185355460Y-107634398D01*
X185487679Y-107743539D01*
X185504796Y-107760750D01*
X185613207Y-107893568D01*
X185626644Y-107913790D01*
X185707089Y-108065186D01*
X185716329Y-108087644D01*
X185765723Y-108251813D01*
X185770409Y-108275641D01*
X185787446Y-108452374D01*
X185788018Y-108464517D01*
X185780022Y-112518565D01*
X185780018Y-112519262D01*
X185779942Y-112529268D01*
X185779924Y-112530654D01*
X185779733Y-112540825D01*
X185779718Y-112541520D01*
X185759999Y-113349996D01*
X185759948Y-113359442D01*
X185759948Y-113359446D01*
X185755037Y-114253106D01*
X185754198Y-114266843D01*
X185732773Y-114449859D01*
X185726573Y-114476632D01*
X185667667Y-114643892D01*
X185655722Y-114668641D01*
X185561423Y-114818819D01*
X185544320Y-114840330D01*
X185419257Y-114966050D01*
X185397835Y-114983266D01*
X185248154Y-115078350D01*
X185223468Y-115090424D01*
X185056520Y-115150205D01*
X185029779Y-115156546D01*
X184846877Y-115178929D01*
X184833146Y-115179840D01*
X181174265Y-115219113D01*
X181162042Y-115218641D01*
X180984082Y-115202949D01*
X180960072Y-115198415D01*
X180811610Y-115154867D01*
X180794545Y-115149861D01*
X180771896Y-115140709D01*
X180667045Y-115085764D01*
X180619108Y-115060643D01*
X180598687Y-115047224D01*
X180464563Y-114938748D01*
X180447172Y-114921586D01*
X180336927Y-114788923D01*
X180323237Y-114768683D01*
X180259988Y-114651795D01*
X180241142Y-114616966D01*
X180231689Y-114594438D01*
X180227635Y-114581269D01*
X180180940Y-114429578D01*
X180176088Y-114405631D01*
X180161988Y-114266843D01*
X180158030Y-114227894D01*
X180157396Y-114215684D01*
X180156836Y-113997466D01*
X180153922Y-112862499D01*
X180597224Y-112862499D01*
X180597225Y-112862500D01*
X181736311Y-112862500D01*
X181658325Y-112883396D01*
X181571675Y-112933424D01*
X181500924Y-113004175D01*
X181450896Y-113090825D01*
X181425000Y-113187472D01*
X181425000Y-113287528D01*
X181450896Y-113384175D01*
X181500924Y-113470825D01*
X181571675Y-113541576D01*
X181658325Y-113591604D01*
X181736311Y-113612500D01*
X180597225Y-113612500D01*
X180656230Y-113794104D01*
X180656231Y-113794107D01*
X180759849Y-113997466D01*
X180894004Y-114182114D01*
X181055385Y-114343495D01*
X181240033Y-114477650D01*
X181443395Y-114581269D01*
X181660455Y-114651795D01*
X181885884Y-114687500D01*
X182575000Y-114687500D01*
X182575000Y-113617500D01*
X183325000Y-113617500D01*
X183325000Y-114687500D01*
X184014116Y-114687500D01*
X184239544Y-114651795D01*
X184456604Y-114581269D01*
X184659966Y-114477650D01*
X184844614Y-114343495D01*
X185005995Y-114182114D01*
X185140150Y-113997466D01*
X185243768Y-113794107D01*
X185243769Y-113794104D01*
X185302775Y-113612500D01*
X184163689Y-113612500D01*
X184241675Y-113591604D01*
X184328325Y-113541576D01*
X184399076Y-113470825D01*
X184449104Y-113384175D01*
X184475000Y-113287528D01*
X184475000Y-113187472D01*
X184449104Y-113090825D01*
X184399076Y-113004175D01*
X184328325Y-112933424D01*
X184241675Y-112883396D01*
X184163689Y-112862500D01*
X185302775Y-112862500D01*
X185302775Y-112862499D01*
X185243769Y-112680895D01*
X185243768Y-112680892D01*
X185140150Y-112477533D01*
X185005995Y-112292885D01*
X184844614Y-112131504D01*
X184659966Y-111997349D01*
X184456604Y-111893730D01*
X184239544Y-111823204D01*
X184014116Y-111787500D01*
X183325000Y-111787500D01*
X183325000Y-112857500D01*
X182575000Y-112857500D01*
X182575000Y-111787500D01*
X181885884Y-111787500D01*
X181660455Y-111823204D01*
X181443395Y-111893730D01*
X181240033Y-111997349D01*
X181055385Y-112131504D01*
X180894004Y-112292885D01*
X180759849Y-112477533D01*
X180656231Y-112680892D01*
X180656230Y-112680895D01*
X180597224Y-112862499D01*
X180153922Y-112862499D01*
X180147054Y-110187844D01*
X181175000Y-110187844D01*
X181181401Y-110247372D01*
X181181403Y-110247379D01*
X181231645Y-110382086D01*
X181231649Y-110382093D01*
X181317809Y-110497187D01*
X181317812Y-110497190D01*
X181432906Y-110583350D01*
X181432913Y-110583354D01*
X181567620Y-110633596D01*
X181567627Y-110633598D01*
X181627155Y-110639999D01*
X181627172Y-110640000D01*
X182875000Y-110640000D01*
X183625000Y-110640000D01*
X184872828Y-110640000D01*
X184872844Y-110639999D01*
X184932372Y-110633598D01*
X184932379Y-110633596D01*
X185067086Y-110583354D01*
X185067093Y-110583350D01*
X185182187Y-110497190D01*
X185182190Y-110497187D01*
X185268350Y-110382093D01*
X185268354Y-110382086D01*
X185318596Y-110247379D01*
X185318598Y-110247372D01*
X185324999Y-110187844D01*
X185325000Y-110187827D01*
X185325000Y-109625000D01*
X183625000Y-109625000D01*
X183625000Y-110640000D01*
X182875000Y-110640000D01*
X182875000Y-109625000D01*
X181175000Y-109625000D01*
X181175000Y-110187844D01*
X180147054Y-110187844D01*
X180142598Y-108452217D01*
X180143168Y-108440045D01*
X180155482Y-108312155D01*
X181175000Y-108312155D01*
X181175000Y-108875000D01*
X182875000Y-108875000D01*
X183625000Y-108875000D01*
X185325000Y-108875000D01*
X185325000Y-108312172D01*
X185324999Y-108312155D01*
X185318598Y-108252627D01*
X185318596Y-108252620D01*
X185268354Y-108117913D01*
X185268350Y-108117906D01*
X185182190Y-108002812D01*
X185182187Y-108002809D01*
X185067093Y-107916649D01*
X185067086Y-107916645D01*
X184932379Y-107866403D01*
X184932372Y-107866401D01*
X184872844Y-107860000D01*
X183625000Y-107860000D01*
X183625000Y-108875000D01*
X182875000Y-108875000D01*
X182875000Y-107860000D01*
X181627155Y-107860000D01*
X181567627Y-107866401D01*
X181567620Y-107866403D01*
X181432913Y-107916645D01*
X181432906Y-107916649D01*
X181317812Y-108002809D01*
X181317809Y-108002812D01*
X181231649Y-108117906D01*
X181231645Y-108117913D01*
X181181403Y-108252620D01*
X181181401Y-108252627D01*
X181175000Y-108312155D01*
X180155482Y-108312155D01*
X180160269Y-108262437D01*
X180164983Y-108238505D01*
X180214761Y-108073567D01*
X180224076Y-108051016D01*
X180295784Y-107916645D01*
X180305184Y-107899029D01*
X180318730Y-107878744D01*
X180428045Y-107745572D01*
X180445293Y-107728341D01*
X180578573Y-107619154D01*
X180598854Y-107605638D01*
X180750950Y-107524660D01*
X180773482Y-107515380D01*
X180938480Y-107465760D01*
X180962410Y-107461069D01*
X181140047Y-107444139D01*
X181152222Y-107443582D01*
X183527353Y-107451990D01*
G37*
%TD.AperFunction*%
%TD*%
%TA.AperFunction,Conductor*%
%TO.N,+5V*%
G36*
X185082753Y-93880315D02*
G01*
X185354280Y-93899746D01*
X185371780Y-93902264D01*
X185633423Y-93959212D01*
X185650399Y-93964199D01*
X185901273Y-94057824D01*
X185917366Y-94065178D01*
X186152347Y-94193568D01*
X186167221Y-94203133D01*
X186377653Y-94360772D01*
X186381530Y-94363676D01*
X186394895Y-94375265D01*
X186584160Y-94564687D01*
X186595741Y-94578064D01*
X186756104Y-94792504D01*
X186765666Y-94807401D01*
X186893854Y-95042476D01*
X186901198Y-95058582D01*
X186994612Y-95309526D01*
X186999587Y-95326514D01*
X187056314Y-95588192D01*
X187058820Y-95605715D01*
X187078024Y-95877239D01*
X187078333Y-95886090D01*
X187071678Y-103898814D01*
X187071351Y-103907707D01*
X187051510Y-104180482D01*
X187048951Y-104198082D01*
X186991247Y-104460858D01*
X186986196Y-104477912D01*
X186891492Y-104729723D01*
X186884054Y-104745879D01*
X186754293Y-104981563D01*
X186744619Y-104996488D01*
X186582480Y-105211177D01*
X186570771Y-105224564D01*
X186379588Y-105413846D01*
X186366084Y-105425421D01*
X186149785Y-105585406D01*
X186134764Y-105594930D01*
X185897802Y-105722325D01*
X185881573Y-105729602D01*
X185628820Y-105821786D01*
X185611716Y-105826666D01*
X185348378Y-105881741D01*
X185330753Y-105884124D01*
X185057793Y-105901238D01*
X185048898Y-105901476D01*
X180007862Y-105855275D01*
X179941005Y-105834977D01*
X179895736Y-105781756D01*
X179886427Y-105712509D01*
X179903463Y-105666177D01*
X179909356Y-105656623D01*
X179909358Y-105656619D01*
X179964505Y-105490197D01*
X179964506Y-105490190D01*
X179974999Y-105387486D01*
X179975000Y-105387473D01*
X179975000Y-105375000D01*
X177525001Y-105375000D01*
X177525001Y-105387486D01*
X177535494Y-105490197D01*
X177592914Y-105663477D01*
X177591461Y-105663958D01*
X177600691Y-105724769D01*
X177572164Y-105788550D01*
X177513683Y-105826782D01*
X177476683Y-105832077D01*
X177250000Y-105829999D01*
X177205095Y-123531786D01*
X177205095Y-123531792D01*
X177205072Y-123540666D01*
X177204734Y-123549491D01*
X177184701Y-123820364D01*
X177182147Y-123837842D01*
X177124781Y-124098795D01*
X177119770Y-124115732D01*
X177025904Y-124365898D01*
X177018536Y-124381952D01*
X176890084Y-124616229D01*
X176880511Y-124631073D01*
X176720070Y-124844730D01*
X176708484Y-124858064D01*
X176519309Y-125046759D01*
X176505946Y-125058310D01*
X176291887Y-125218207D01*
X176277023Y-125227740D01*
X176042415Y-125355599D01*
X176026343Y-125362926D01*
X175775940Y-125456158D01*
X175758989Y-125461126D01*
X175497894Y-125517828D01*
X175480410Y-125520338D01*
X175209478Y-125539685D01*
X175200646Y-125540000D01*
X174042664Y-125540000D01*
X174033795Y-125539682D01*
X173761729Y-125520172D01*
X173744172Y-125517641D01*
X173482020Y-125460460D01*
X173465004Y-125455450D01*
X173213694Y-125361448D01*
X173197567Y-125354062D01*
X172962231Y-125225160D01*
X172947323Y-125215547D01*
X172840507Y-125135305D01*
X172732793Y-125054388D01*
X172719419Y-125042757D01*
X172530071Y-124852630D01*
X172518487Y-124839200D01*
X172358214Y-124624014D01*
X172348663Y-124609067D01*
X172220733Y-124373213D01*
X172213412Y-124357055D01*
X172120441Y-124105352D01*
X172115501Y-124088316D01*
X172109023Y-124058024D01*
X172059396Y-123825928D01*
X172056938Y-123808367D01*
X172038545Y-123536215D01*
X172038264Y-123527345D01*
X172044339Y-122047844D01*
X173250000Y-122047844D01*
X173256401Y-122107372D01*
X173256403Y-122107379D01*
X173306645Y-122242086D01*
X173306649Y-122242093D01*
X173392809Y-122357187D01*
X173392812Y-122357190D01*
X173507906Y-122443350D01*
X173507913Y-122443354D01*
X173642620Y-122493596D01*
X173642627Y-122493598D01*
X173702155Y-122499999D01*
X173702172Y-122500000D01*
X174375000Y-122500000D01*
X175125000Y-122500000D01*
X175797828Y-122500000D01*
X175797844Y-122499999D01*
X175857372Y-122493598D01*
X175857379Y-122493596D01*
X175992086Y-122443354D01*
X175992093Y-122443350D01*
X176107187Y-122357190D01*
X176107190Y-122357187D01*
X176193350Y-122242093D01*
X176193354Y-122242086D01*
X176243596Y-122107379D01*
X176243598Y-122107372D01*
X176249999Y-122047844D01*
X176250000Y-122047827D01*
X176250000Y-121375000D01*
X175125000Y-121375000D01*
X175125000Y-122500000D01*
X174375000Y-122500000D01*
X174375000Y-121375000D01*
X173250000Y-121375000D01*
X173250000Y-122047844D01*
X172044339Y-122047844D01*
X172047315Y-121323129D01*
X172048912Y-120934174D01*
X174250000Y-120934174D01*
X174250000Y-121065826D01*
X174284075Y-121192993D01*
X174349901Y-121307007D01*
X174442993Y-121400099D01*
X174557007Y-121465925D01*
X174684174Y-121500000D01*
X174815826Y-121500000D01*
X174942993Y-121465925D01*
X175057007Y-121400099D01*
X175150099Y-121307007D01*
X175215925Y-121192993D01*
X175250000Y-121065826D01*
X175250000Y-120934174D01*
X175215925Y-120807007D01*
X175150099Y-120692993D01*
X175082106Y-120625000D01*
X175125000Y-120625000D01*
X176250000Y-120625000D01*
X176250000Y-119952172D01*
X176249999Y-119952155D01*
X176243598Y-119892627D01*
X176243596Y-119892620D01*
X176193354Y-119757913D01*
X176193350Y-119757906D01*
X176107190Y-119642812D01*
X176107187Y-119642809D01*
X175992093Y-119556649D01*
X175992086Y-119556645D01*
X175857379Y-119506403D01*
X175857372Y-119506401D01*
X175797844Y-119500000D01*
X175125000Y-119500000D01*
X175125000Y-120625000D01*
X175082106Y-120625000D01*
X175057007Y-120599901D01*
X174942993Y-120534075D01*
X174815826Y-120500000D01*
X174684174Y-120500000D01*
X174557007Y-120534075D01*
X174442993Y-120599901D01*
X174349901Y-120692993D01*
X174284075Y-120807007D01*
X174250000Y-120934174D01*
X172048912Y-120934174D01*
X172052944Y-119952155D01*
X173250000Y-119952155D01*
X173250000Y-120625000D01*
X174375000Y-120625000D01*
X174375000Y-119500000D01*
X173702155Y-119500000D01*
X173642627Y-119506401D01*
X173642620Y-119506403D01*
X173507913Y-119556645D01*
X173507906Y-119556649D01*
X173392812Y-119642809D01*
X173392809Y-119642812D01*
X173306649Y-119757906D01*
X173306645Y-119757913D01*
X173256403Y-119892620D01*
X173256401Y-119892627D01*
X173250000Y-119952155D01*
X172052944Y-119952155D01*
X172052960Y-119948342D01*
X172108883Y-106328839D01*
X172110719Y-105881741D01*
X172114512Y-104957844D01*
X181175000Y-104957844D01*
X181181401Y-105017372D01*
X181181403Y-105017379D01*
X181231645Y-105152086D01*
X181231649Y-105152093D01*
X181317809Y-105267187D01*
X181317812Y-105267190D01*
X181432906Y-105353350D01*
X181432913Y-105353354D01*
X181567620Y-105403596D01*
X181567627Y-105403598D01*
X181627155Y-105409999D01*
X181627172Y-105410000D01*
X182875000Y-105410000D01*
X183625000Y-105410000D01*
X184872828Y-105410000D01*
X184872844Y-105409999D01*
X184932372Y-105403598D01*
X184932379Y-105403596D01*
X185067086Y-105353354D01*
X185067093Y-105353350D01*
X185182187Y-105267190D01*
X185182190Y-105267187D01*
X185268350Y-105152093D01*
X185268354Y-105152086D01*
X185318596Y-105017379D01*
X185318598Y-105017372D01*
X185324999Y-104957844D01*
X185325000Y-104957827D01*
X185325000Y-104395000D01*
X183625000Y-104395000D01*
X183625000Y-105410000D01*
X182875000Y-105410000D01*
X182875000Y-104395000D01*
X181175000Y-104395000D01*
X181175000Y-104957844D01*
X172114512Y-104957844D01*
X172115930Y-104612513D01*
X177525000Y-104612513D01*
X177525000Y-104625000D01*
X178375000Y-104625000D01*
X179125000Y-104625000D01*
X179974999Y-104625000D01*
X179974999Y-104612528D01*
X179974998Y-104612513D01*
X179964506Y-104509804D01*
X179922368Y-104382643D01*
X179922367Y-104382640D01*
X179909359Y-104343382D01*
X179909356Y-104343375D01*
X179817315Y-104194154D01*
X179693345Y-104070184D01*
X179544124Y-103978143D01*
X179544119Y-103978141D01*
X179377697Y-103922994D01*
X179377690Y-103922993D01*
X179274986Y-103912500D01*
X179125000Y-103912500D01*
X179125000Y-104625000D01*
X178375000Y-104625000D01*
X178375000Y-103912500D01*
X178225027Y-103912500D01*
X178225012Y-103912501D01*
X178122302Y-103922994D01*
X177955880Y-103978141D01*
X177955875Y-103978143D01*
X177806654Y-104070184D01*
X177682684Y-104194154D01*
X177590643Y-104343375D01*
X177590641Y-104343380D01*
X177535494Y-104509802D01*
X177535493Y-104509809D01*
X177525000Y-104612513D01*
X172115930Y-104612513D01*
X172122214Y-103082155D01*
X181175000Y-103082155D01*
X181175000Y-103645000D01*
X182875000Y-103645000D01*
X183625000Y-103645000D01*
X185325000Y-103645000D01*
X185325000Y-103082172D01*
X185324999Y-103082155D01*
X185318598Y-103022627D01*
X185318596Y-103022620D01*
X185268354Y-102887913D01*
X185268350Y-102887906D01*
X185182190Y-102772812D01*
X185182187Y-102772809D01*
X185067093Y-102686649D01*
X185067086Y-102686645D01*
X184932379Y-102636403D01*
X184932372Y-102636401D01*
X184872844Y-102630000D01*
X183625000Y-102630000D01*
X183625000Y-103645000D01*
X182875000Y-103645000D01*
X182875000Y-102630000D01*
X181627155Y-102630000D01*
X181567627Y-102636401D01*
X181567620Y-102636403D01*
X181432913Y-102686645D01*
X181432906Y-102686649D01*
X181317812Y-102772809D01*
X181317809Y-102772812D01*
X181231649Y-102887906D01*
X181231645Y-102887913D01*
X181181403Y-103022620D01*
X181181401Y-103022627D01*
X181175000Y-103082155D01*
X172122214Y-103082155D01*
X172150490Y-96195639D01*
X175517600Y-96195639D01*
X175517600Y-96414360D01*
X175546147Y-96631186D01*
X175602752Y-96842442D01*
X175686444Y-97044491D01*
X175686446Y-97044496D01*
X175770531Y-97190137D01*
X176330818Y-96629850D01*
X176375670Y-96738131D01*
X176475739Y-96887896D01*
X176603104Y-97015261D01*
X176752869Y-97115330D01*
X176861147Y-97160181D01*
X176300860Y-97720467D01*
X176446503Y-97804553D01*
X176446508Y-97804555D01*
X176648557Y-97888247D01*
X176859813Y-97944852D01*
X177076639Y-97973399D01*
X177076654Y-97973400D01*
X177295346Y-97973400D01*
X177295360Y-97973399D01*
X177512186Y-97944852D01*
X177723442Y-97888247D01*
X177925491Y-97804555D01*
X177925500Y-97804551D01*
X178071137Y-97720467D01*
X177510851Y-97160181D01*
X177619131Y-97115330D01*
X177768896Y-97015261D01*
X177896261Y-96887896D01*
X177996330Y-96738131D01*
X178041181Y-96629851D01*
X178601467Y-97190137D01*
X178685551Y-97044500D01*
X178685555Y-97044491D01*
X178769247Y-96842442D01*
X178825852Y-96631186D01*
X178854399Y-96414360D01*
X178854400Y-96414346D01*
X178854400Y-96195653D01*
X178854399Y-96195639D01*
X178825852Y-95978813D01*
X178769247Y-95767557D01*
X178685555Y-95565508D01*
X178685553Y-95565503D01*
X178601467Y-95419861D01*
X178601467Y-95419860D01*
X178041180Y-95980147D01*
X177996330Y-95871869D01*
X177896261Y-95722104D01*
X177768896Y-95594739D01*
X177619131Y-95494670D01*
X177510851Y-95449818D01*
X178071138Y-94889531D01*
X177925496Y-94805446D01*
X177925491Y-94805444D01*
X177723442Y-94721752D01*
X177512186Y-94665147D01*
X177295360Y-94636600D01*
X177076639Y-94636600D01*
X176859813Y-94665147D01*
X176648557Y-94721752D01*
X176446508Y-94805444D01*
X176446503Y-94805446D01*
X176300861Y-94889531D01*
X176861148Y-95449818D01*
X176752869Y-95494670D01*
X176603104Y-95594739D01*
X176475739Y-95722104D01*
X176375670Y-95871869D01*
X176330818Y-95980148D01*
X175770531Y-95419861D01*
X175686446Y-95565503D01*
X175686444Y-95565508D01*
X175602752Y-95767557D01*
X175546147Y-95978813D01*
X175517600Y-96195639D01*
X172150490Y-96195639D01*
X172151802Y-95876165D01*
X172152151Y-95867396D01*
X172172572Y-95596799D01*
X172175148Y-95579349D01*
X172232812Y-95318721D01*
X172237835Y-95301824D01*
X172331918Y-95052004D01*
X172339288Y-95035993D01*
X172467882Y-94802052D01*
X172477436Y-94787272D01*
X172637933Y-94573954D01*
X172649497Y-94560668D01*
X172838638Y-94372300D01*
X172851993Y-94360772D01*
X173063306Y-94203138D01*
X173065952Y-94201164D01*
X173080804Y-94191651D01*
X173315249Y-94064032D01*
X173331297Y-94056725D01*
X173581491Y-93963673D01*
X173598403Y-93958721D01*
X173859280Y-93902124D01*
X173876722Y-93899622D01*
X174147403Y-93880313D01*
X174156226Y-93880000D01*
X185073903Y-93880000D01*
X185082753Y-93880315D01*
G37*
%TD.AperFunction*%
%TD*%
M02*
