%TF.GenerationSoftware,KiCad,Pcbnew,9.0.0*%
%TF.CreationDate,2025-04-14T04:50:02-04:00*%
%TF.ProjectId,W4MLB_Band_Display,57344d4c-425f-4426-916e-645f44697370,1.0*%
%TF.SameCoordinates,Original*%
%TF.FileFunction,Soldermask,Bot*%
%TF.FilePolarity,Negative*%
%FSLAX46Y46*%
G04 Gerber Fmt 4.6, Leading zero omitted, Abs format (unit mm)*
G04 Created by KiCad (PCBNEW 9.0.0) date 2025-04-14 04:50:02*
%MOMM*%
%LPD*%
G01*
G04 APERTURE LIST*
%ADD10C,0.860984*%
%ADD11O,1.800000X3.600000*%
%ADD12O,4.000000X2.000000*%
%ADD13C,2.400000*%
%ADD14C,1.850000*%
%ADD15R,1.850000X1.850000*%
%ADD16C,1.390000*%
%ADD17R,1.390000X1.390000*%
%ADD18R,1.370000X1.370000*%
%ADD19C,1.370000*%
%ADD20R,1.700000X1.700000*%
%ADD21O,1.700000X1.700000*%
%ADD22R,2.400000X2.400000*%
%ADD23O,2.400000X2.400000*%
%ADD24O,3.800000X1.900000*%
%ADD25O,1.900000X3.800000*%
%ADD26R,2.000000X2.000000*%
%ADD27C,2.000000*%
%ADD28O,3.800000X5.500000*%
%ADD29O,3.800000X5.300000*%
G04 APERTURE END LIST*
%TO.C,J4*%
D10*
X161390492Y-82210000D02*
G75*
G02*
X160529508Y-82210000I-430492J0D01*
G01*
X160529508Y-82210000D02*
G75*
G02*
X161390492Y-82210000I430492J0D01*
G01*
X161390492Y-84750000D02*
G75*
G02*
X160529508Y-84750000I-430492J0D01*
G01*
X160529508Y-84750000D02*
G75*
G02*
X161390492Y-84750000I430492J0D01*
G01*
X161390492Y-87290000D02*
G75*
G02*
X160529508Y-87290000I-430492J0D01*
G01*
X160529508Y-87290000D02*
G75*
G02*
X161390492Y-87290000I430492J0D01*
G01*
X161390492Y-89830000D02*
G75*
G02*
X160529508Y-89830000I-430492J0D01*
G01*
X160529508Y-89830000D02*
G75*
G02*
X161390492Y-89830000I430492J0D01*
G01*
X161390492Y-92370000D02*
G75*
G02*
X160529508Y-92370000I-430492J0D01*
G01*
X160529508Y-92370000D02*
G75*
G02*
X161390492Y-92370000I430492J0D01*
G01*
X161390492Y-94910000D02*
G75*
G02*
X160529508Y-94910000I-430492J0D01*
G01*
X160529508Y-94910000D02*
G75*
G02*
X161390492Y-94910000I430492J0D01*
G01*
X161390492Y-97450000D02*
G75*
G02*
X160529508Y-97450000I-430492J0D01*
G01*
X160529508Y-97450000D02*
G75*
G02*
X161390492Y-97450000I430492J0D01*
G01*
X161390492Y-99990000D02*
G75*
G02*
X160529508Y-99990000I-430492J0D01*
G01*
X160529508Y-99990000D02*
G75*
G02*
X161390492Y-99990000I430492J0D01*
G01*
X163930492Y-82210000D02*
G75*
G02*
X163069508Y-82210000I-430492J0D01*
G01*
X163069508Y-82210000D02*
G75*
G02*
X163930492Y-82210000I430492J0D01*
G01*
X163930492Y-84750000D02*
G75*
G02*
X163069508Y-84750000I-430492J0D01*
G01*
X163069508Y-84750000D02*
G75*
G02*
X163930492Y-84750000I430492J0D01*
G01*
X163930492Y-87290000D02*
G75*
G02*
X163069508Y-87290000I-430492J0D01*
G01*
X163069508Y-87290000D02*
G75*
G02*
X163930492Y-87290000I430492J0D01*
G01*
X163930492Y-89830000D02*
G75*
G02*
X163069508Y-89830000I-430492J0D01*
G01*
X163069508Y-89830000D02*
G75*
G02*
X163930492Y-89830000I430492J0D01*
G01*
X163930492Y-92370000D02*
G75*
G02*
X163069508Y-92370000I-430492J0D01*
G01*
X163069508Y-92370000D02*
G75*
G02*
X163930492Y-92370000I430492J0D01*
G01*
X163930492Y-94910000D02*
G75*
G02*
X163069508Y-94910000I-430492J0D01*
G01*
X163069508Y-94910000D02*
G75*
G02*
X163930492Y-94910000I430492J0D01*
G01*
X163930492Y-97450000D02*
G75*
G02*
X163069508Y-97450000I-430492J0D01*
G01*
X163069508Y-97450000D02*
G75*
G02*
X163930492Y-97450000I430492J0D01*
G01*
X163930492Y-99990000D02*
G75*
G02*
X163069508Y-99990000I-430492J0D01*
G01*
X163069508Y-99990000D02*
G75*
G02*
X163930492Y-99990000I430492J0D01*
G01*
%TD*%
D11*
%TO.C,J8*%
X145017500Y-121300000D03*
D12*
X141267500Y-125000000D03*
D11*
X137517500Y-121300000D03*
%TD*%
D13*
%TO.C,F1*%
X180810000Y-108410000D03*
X180810000Y-98490000D03*
X184210000Y-108410000D03*
X184210000Y-98490000D03*
%TD*%
D14*
%TO.C,J6*%
X181000000Y-86000000D03*
D15*
X181000000Y-91000000D03*
%TD*%
D16*
%TO.C,J2*%
X147230000Y-79480000D03*
X147230000Y-104880000D03*
D17*
X147230000Y-71860000D03*
D16*
X147230000Y-74400000D03*
X147230000Y-76940000D03*
X147230000Y-82020000D03*
X147230000Y-84560000D03*
X147230000Y-87100000D03*
X147230000Y-89640000D03*
X147230000Y-92180000D03*
X147230000Y-94720000D03*
X147230000Y-97260000D03*
X147230000Y-99800000D03*
X147230000Y-102340000D03*
X147230000Y-107420000D03*
%TD*%
D18*
%TO.C,J3*%
X133010000Y-80802500D03*
D19*
X135550000Y-80802500D03*
X133010000Y-83342500D03*
X133010000Y-85882500D03*
X135550000Y-85882500D03*
X133010000Y-88422500D03*
X135550000Y-88422500D03*
X133010000Y-90962500D03*
X135550000Y-90962500D03*
X133010000Y-93502500D03*
X135550000Y-93502500D03*
X133010000Y-96042500D03*
X135550000Y-96042500D03*
X133010000Y-98582500D03*
X135550000Y-83342500D03*
X135550000Y-98582500D03*
%TD*%
D20*
%TO.C,J9*%
X125430000Y-66582500D03*
D21*
X127970000Y-66582500D03*
X130510000Y-66582500D03*
X133050000Y-66582500D03*
X135590000Y-66582500D03*
X138130000Y-66582500D03*
X140670000Y-66582500D03*
X143210000Y-66582500D03*
X145750000Y-66582500D03*
X148290000Y-66582500D03*
%TD*%
D16*
%TO.C,J1*%
X121830000Y-104880000D03*
D17*
X121830000Y-71860000D03*
D16*
X121830000Y-74400000D03*
X121830000Y-76940000D03*
X121830000Y-79480000D03*
X121830000Y-82020000D03*
X121830000Y-84560000D03*
X121830000Y-87100000D03*
X121830000Y-89640000D03*
X121830000Y-92180000D03*
X121830000Y-94720000D03*
X121830000Y-97260000D03*
X121830000Y-99800000D03*
X121830000Y-102340000D03*
X121830000Y-107420000D03*
%TD*%
D22*
%TO.C,C2*%
X174750000Y-122750000D03*
D23*
X149750000Y-122750000D03*
%TD*%
D11*
%TO.C,J7*%
X129767500Y-121300000D03*
D12*
X126017500Y-125000000D03*
D11*
X122267500Y-121300000D03*
%TD*%
D24*
%TO.C,J5*%
X182950000Y-119167500D03*
D25*
X187600000Y-115917500D03*
D24*
X182950000Y-113237500D03*
%TD*%
D26*
%TO.C,U1*%
X207350000Y-79190000D03*
D27*
X207350000Y-81730000D03*
X207350000Y-84270000D03*
X207350000Y-86810000D03*
X207350000Y-89350000D03*
X207350000Y-91890000D03*
X207350000Y-94430000D03*
X207350000Y-96970000D03*
X207350000Y-99510000D03*
X207350000Y-102050000D03*
X207350000Y-104590000D03*
X207350000Y-107130000D03*
X207350000Y-109670000D03*
X207350000Y-112210000D03*
X207350000Y-114750000D03*
X232750000Y-114750000D03*
X232750000Y-112210000D03*
X232750000Y-109670000D03*
X232750000Y-107130000D03*
X232750000Y-104590000D03*
X232750000Y-102050000D03*
X232750000Y-99510000D03*
X232750000Y-96970000D03*
X232750000Y-94430000D03*
X232750000Y-91890000D03*
X232750000Y-89350000D03*
X232750000Y-86810000D03*
X232750000Y-84270000D03*
X232750000Y-81730000D03*
X232750000Y-79190000D03*
%TD*%
D28*
%TO.C,F2*%
X200000000Y-108750000D03*
D29*
X200000000Y-100750000D03*
%TD*%
M02*
