M48
; DRILL file {KiCad 9.0.0} date 2025-04-30T10:50:01-0400
; FORMAT={-:-/ absolute / metric / decimal}
; #@! TF.CreationDate,2025-04-30T10:50:01-04:00
; #@! TF.GenerationSoftware,Kicad,Pcbnew,9.0.0
; #@! TF.FileFunction,MixedPlating,1,2
FMAT,2
METRIC
; #@! TA.AperFunction,Plated,PTH,ViaDrill
T1C0.300
; #@! TA.AperFunction,Plated,PTH,ViaDrill
T2C0.400
; #@! TA.AperFunction,Plated,PTH,ComponentDrill
T3C0.760
; #@! TA.AperFunction,Plated,PTH,ComponentDrill
T4C1.000
; #@! TA.AperFunction,Plated,PTH,ComponentDrill
T5C1.020
; #@! TA.AperFunction,Plated,PTH,ComponentDrill
T6C1.020
; #@! TA.AperFunction,Plated,PTH,ComponentDrill
T7C1.040
; #@! TA.AperFunction,Plated,PTH,ComponentDrill
T8C1.300
; #@! TA.AperFunction,Plated,PTH,ComponentDrill
T9C1.346
; #@! TA.AperFunction,NonPlated,NPTH,ComponentDrill
T10C2.200
%
G90
G05
T1
X124.2Y-102.362
X125.2Y-99.282
X126.2Y-96.203
X127.2Y-93.123
X128.2Y-90.042
X129.2Y-86.962
X130.2Y-83.882
X131.2Y-80.802
X160.47Y-87.1
X165.55Y-87.923
X168.09Y-89.219
X170.63Y-90.041
X173.15Y-90.864
X175.71Y-92.13
T2
X127.98Y-82.0
X128.0Y-79.45
X177.9Y-75.65
X183.63Y-76.14
X205.54Y-101.2
X209.3Y-74.5
T4
X157.93Y-66.5
X160.47Y-66.5
X163.01Y-66.5
X165.55Y-66.5
X168.09Y-66.5
X170.63Y-66.5
X173.17Y-66.5
X175.71Y-66.5
X178.25Y-66.5
X187.0Y-121.5
X189.9Y-74.0
X192.0Y-121.5
X197.5Y-74.0
T5
X160.47Y-97.46
X160.47Y-100.0
X163.01Y-97.46
X163.01Y-100.0
X165.55Y-97.46
X165.55Y-100.0
X168.09Y-97.46
X168.09Y-100.0
X170.63Y-97.46
X170.63Y-100.0
X173.17Y-97.46
X173.17Y-100.0
X175.71Y-97.46
X175.71Y-100.0
X178.25Y-97.46
X178.25Y-100.0
T6
X16.35Y-153.19
X16.35Y-155.73
X16.35Y-158.27
X16.35Y-160.81
X16.35Y-163.35
X16.35Y-165.89
X16.35Y-168.43
X16.35Y-170.97
X16.35Y-173.51
X16.35Y-176.05
X16.35Y-178.59
X16.35Y-181.13
X16.35Y-183.67
X16.35Y-186.21
X16.35Y-188.75
X41.75Y-153.19
X41.75Y-155.73
X41.75Y-158.27
X41.75Y-160.81
X41.75Y-163.35
X41.75Y-165.89
X41.75Y-168.43
X41.75Y-170.97
X41.75Y-173.51
X41.75Y-176.05
X41.75Y-178.59
X41.75Y-181.13
X41.75Y-183.67
X41.75Y-186.21
X41.75Y-188.75
X133.01Y-80.802
X133.01Y-83.343
X133.01Y-85.882
X133.01Y-88.422
X133.01Y-90.962
X133.01Y-93.502
X133.01Y-96.042
X133.01Y-98.582
X135.55Y-80.802
X135.55Y-83.343
X135.55Y-85.882
X135.55Y-88.422
X135.55Y-90.962
X135.55Y-93.502
X135.55Y-96.042
X135.55Y-98.582
T7
X121.83Y-71.86
X121.83Y-74.4
X121.83Y-76.94
X121.83Y-79.48
X121.83Y-82.02
X121.83Y-84.56
X121.83Y-87.1
X121.83Y-89.64
X121.83Y-92.18
X121.83Y-94.72
X121.83Y-97.26
X121.83Y-99.8
X121.83Y-102.34
X121.83Y-104.88
X121.83Y-107.42
X147.23Y-71.86
X147.23Y-74.4
X147.23Y-76.94
X147.23Y-79.48
X147.23Y-82.02
X147.23Y-84.56
X147.23Y-87.1
X147.23Y-89.64
X147.23Y-92.18
X147.23Y-94.72
X147.23Y-97.26
X147.23Y-99.8
X147.23Y-102.34
X147.23Y-104.88
X147.23Y-107.42
T9
X207.74Y-87.13
X207.74Y-91.09
X207.74Y-95.05
X207.74Y-99.01
X210.2Y-87.13
X210.2Y-91.09
X210.2Y-95.05
X210.2Y-99.01
T10
X122.536Y-124.464
X122.566Y-67.066
X211.264Y-67.036
X211.264Y-124.464
T3
G00X199.055Y-113.737
M15
G01X201.345Y-113.737
M16
G05
G00X199.055Y-119.667
M15
G01X201.345Y-119.667
M16
G05
G00X204.85Y-115.272
M15
G01X204.85Y-117.562
M16
G05
T4
G00X132.267Y-120.55
M15
G01X132.267Y-122.05
M16
G05
G00X139.767Y-120.55
M15
G01X139.767Y-122.05
M16
G05
G00X147.517Y-120.55
M15
G01X147.517Y-122.05
M16
G05
G00X155.017Y-120.55
M15
G01X155.017Y-122.05
M16
G05
T8
G00X135.417Y-125.0
M15
G01X136.618Y-125.0
M16
G05
G00X150.667Y-125.0
M15
G01X151.868Y-125.0
M16
G05
M30
