M48
; DRILL file {KiCad 9.0.0} date 2025-04-29T23:51:18-0400
; FORMAT={-:-/ absolute / metric / decimal}
; #@! TF.CreationDate,2025-04-29T23:51:18-04:00
; #@! TF.GenerationSoftware,Kicad,Pcbnew,9.0.0
; #@! TF.FileFunction,Plated,1,2,PTH
FMAT,2
METRIC
; #@! TA.AperFunction,Plated,PTH,ViaDrill
T1C0.300
; #@! TA.AperFunction,Plated,PTH,ComponentDrill
T2C0.760
; #@! TA.AperFunction,Plated,PTH,ComponentDrill
T3C1.000
; #@! TA.AperFunction,Plated,PTH,ComponentDrill
T4C1.020
; #@! TA.AperFunction,Plated,PTH,ComponentDrill
T5C1.020
; #@! TA.AperFunction,Plated,PTH,ComponentDrill
T6C1.040
; #@! TA.AperFunction,Plated,PTH,ComponentDrill
T7C1.300
; #@! TA.AperFunction,Plated,PTH,ComponentDrill
T8C1.829
; #@! TA.AperFunction,Plated,PTH,ComponentDrill
T9C2.000
%
G90
G05
T1
X124.2Y-102.362
X125.2Y-99.282
X126.2Y-96.203
X127.2Y-93.123
X127.98Y-82.0
X128.0Y-79.45
X128.2Y-90.042
X129.2Y-86.962
X130.2Y-83.882
X131.2Y-80.802
X151.4Y-96.75
X152.25Y-94.75
X154.1Y-92.37
X155.5Y-94.9
X163.55Y-73.35
X172.4Y-77.05
X174.125Y-81.0
X178.75Y-108.49
T3
X152.5Y-66.5
X155.04Y-66.5
X157.58Y-66.5
X160.12Y-66.5
X162.66Y-66.5
X165.2Y-66.5
X167.74Y-66.5
X169.75Y-121.0
X170.28Y-66.5
X172.82Y-66.5
X174.75Y-121.0
X178.9Y-74.25
X186.5Y-74.25
T4
X160.96Y-82.21
X160.96Y-84.75
X160.96Y-87.29
X160.96Y-89.83
X160.96Y-92.37
X160.96Y-94.91
X160.96Y-97.45
X160.96Y-99.99
X163.5Y-82.21
X163.5Y-84.75
X163.5Y-87.29
X163.5Y-89.83
X163.5Y-92.37
X163.5Y-94.91
X163.5Y-97.45
X163.5Y-99.99
T5
X-41.75Y-179.69
X-41.75Y-182.23
X-41.75Y-184.77
X-41.75Y-187.31
X-41.75Y-189.85
X-41.75Y-192.39
X-41.75Y-194.93
X-41.75Y-197.47
X-41.75Y-200.01
X-41.75Y-202.55
X-41.75Y-205.09
X-41.75Y-207.63
X-41.75Y-210.17
X-41.75Y-212.71
X-41.75Y-215.25
X-16.35Y-179.69
X-16.35Y-182.23
X-16.35Y-184.77
X-16.35Y-187.31
X-16.35Y-189.85
X-16.35Y-192.39
X-16.35Y-194.93
X-16.35Y-197.47
X-16.35Y-200.01
X-16.35Y-202.55
X-16.35Y-205.09
X-16.35Y-207.63
X-16.35Y-210.17
X-16.35Y-212.71
X-16.35Y-215.25
X133.01Y-80.802
X133.01Y-83.343
X133.01Y-85.882
X133.01Y-88.422
X133.01Y-90.962
X133.01Y-93.502
X133.01Y-96.042
X133.01Y-98.582
X135.55Y-80.802
X135.55Y-83.343
X135.55Y-85.882
X135.55Y-88.422
X135.55Y-90.962
X135.55Y-93.502
X135.55Y-96.042
X135.55Y-98.582
T6
X121.83Y-71.86
X121.83Y-74.4
X121.83Y-76.94
X121.83Y-79.48
X121.83Y-82.02
X121.83Y-84.56
X121.83Y-87.1
X121.83Y-89.64
X121.83Y-92.18
X121.83Y-94.72
X121.83Y-97.26
X121.83Y-99.8
X121.83Y-102.34
X121.83Y-104.88
X121.83Y-107.42
X147.23Y-71.86
X147.23Y-74.4
X147.23Y-76.94
X147.23Y-79.48
X147.23Y-82.02
X147.23Y-84.56
X147.23Y-87.1
X147.23Y-89.64
X147.23Y-92.18
X147.23Y-94.72
X147.23Y-97.26
X147.23Y-99.8
X147.23Y-102.34
X147.23Y-104.88
X147.23Y-107.42
T8
X177.186Y-88.05
X177.186Y-96.305
T2
G00X181.805Y-113.237
M15
G01X184.095Y-113.237
M16
G05
G00X181.805Y-119.167
M15
G01X184.095Y-119.167
M16
G05
G00X187.6Y-114.772
M15
G01X187.6Y-117.062
M16
G05
T3
G00X122.267Y-120.55
M15
G01X122.267Y-122.05
M16
G05
G00X129.767Y-120.55
M15
G01X129.767Y-122.05
M16
G05
G00X137.517Y-120.55
M15
G01X137.517Y-122.05
M16
G05
G00X145.017Y-120.55
M15
G01X145.017Y-122.05
M16
G05
T7
G00X125.417Y-125.0
M15
G01X126.617Y-125.0
M16
G05
G00X140.667Y-125.0
M15
G01X141.868Y-125.0
M16
G05
T9
G00X-48.85Y-192.75
M15
G01X-48.85Y-191.25
M16
G05
G00X-48.85Y-200.75
M15
G01X-48.85Y-199.25
M16
G05
M30
