<?xml version="1.0" standalone="no"?>
<!DOCTYPE svg PUBLIC "-//W3C//DTD SVG 20010904//EN"
 "http://www.w3.org/TR/2001/REC-SVG-20010904/DTD/svg10.dtd">
<svg version="1.0" xmlns="http://www.w3.org/2000/svg"
 width="300.000000pt" height="300.000000pt" viewBox="0 0 300.000000 300.000000"
 preserveAspectRatio="xMidYMid meet">
<metadata>
Created by potrace 1.10, written by Peter Selinger 2001-2011
</metadata>
<g transform="translate(0.000000,300.000000) scale(0.100000,-0.100000)"
fill="#000000" stroke="none">
<path d="M1365 2964 c-221 -18 -483 -111 -669 -239 -32 -22 -65 -44 -74 -50
-47 -32 -203 -183 -237 -231 -11 -15 -27 -35 -35 -43 -9 -9 -36 -47 -62 -86
-157 -239 -240 -535 -232 -828 3 -136 7 -165 35 -287 37 -160 114 -349 178
-437 17 -24 31 -46 31 -49 0 -3 10 -19 22 -34 13 -15 34 -43 47 -62 14 -18 67
-75 119 -125 210 -208 518 -363 787 -398 28 -3 64 -8 80 -10 58 -8 251 -5 325
4 66 9 125 21 235 50 116 31 298 122 426 213 92 66 227 192 266 248 9 14 23
31 31 39 59 61 192 304 224 410 70 234 73 254 73 476 0 195 -15 292 -72 463
-42 128 -84 213 -172 347 -121 185 -346 382 -546 479 -33 16 -68 33 -78 38
-45 22 -257 87 -302 93 -191 25 -274 28 -400 19z m420 -58 c498 -113 892 -465
1050 -939 50 -152 68 -268 69 -442 0 -390 -136 -719 -413 -996 -210 -210 -451
-337 -748 -395 -118 -24 -364 -24 -490 -1 -574 105 -1018 540 -1140 1117 -14
65 -18 131 -18 275 0 211 11 283 70 455 166 489 584 844 1100 935 106 19 421
13 520 -9z"/>
<path d="M1305 2865 c-203 -31 -394 -103 -550 -208 -308 -206 -509 -505 -586
-870 -29 -134 -31 -369 -6 -502 84 -431 348 -782 734 -974 609 -304 1352 -104
1728 464 146 221 212 429 222 705 11 291 -65 556 -228 805 -66 99 -249 284
-350 353 -151 102 -344 183 -520 217 -116 23 -332 28 -444 10z m415 -41 c123
-19 250 -58 250 -76 0 -5 5 -6 10 -3 6 4 16 2 23 -3 7 -6 21 -12 32 -14 11 -1
22 -5 25 -8 3 -3 31 -19 63 -35 98 -51 104 -55 115 -67 8 -10 -2 -14 -44 -15
-59 -3 -107 -23 -136 -57 l-19 -21 -15 23 c-9 12 -22 22 -29 22 -7 0 -18 7
-25 15 -18 22 -218 18 -242 -5 -19 -17 -50 -129 -49 -172 1 -16 -3 -28 -8 -28
-5 0 -7 -9 -4 -20 3 -11 1 -20 -5 -20 -11 0 -22 34 -22 72 0 15 -5 39 -12 53
-10 22 -9 28 3 36 11 8 11 12 2 16 -7 2 -13 11 -13 19 0 8 -11 26 -25 40 -22
22 -31 25 -66 19 -42 -7 -83 -40 -94 -75 -3 -11 -10 -20 -15 -20 -4 0 -11 -11
-14 -25 -4 -14 -11 -25 -17 -25 -6 0 -7 -4 -4 -10 3 -5 3 -10 -2 -10 -4 0 -14
-15 -22 -32 -23 -54 -32 -61 -47 -40 -19 28 -75 20 -122 -16 -50 -40 -64 -31
-60 40 2 31 6 54 10 52 4 -3 12 5 18 16 17 31 74 20 66 -14 -2 -6 -1 -8 1 -4
3 5 13 3 24 -3 28 -14 71 -7 88 14 13 19 8 108 -7 106 -20 -3 -23 3 -11 18 10
12 10 15 1 9 -16 -9 -54 2 -47 15 5 8 -36 14 -85 12 -34 -1 -85 -15 -88 -24
-2 -5 -9 -9 -15 -9 -7 0 -23 -12 -36 -26 l-24 -25 -31 29 c-48 45 -68 52 -160
52 -91 0 -108 11 -52 31 19 7 33 16 30 20 -2 4 23 20 56 35 33 15 60 32 60 37
0 5 7 7 15 3 8 -3 15 -2 15 3 0 10 213 80 253 83 15 1 27 6 27 9 0 4 16 8 35
8 19 1 51 1 70 2 19 0 35 5 35 10 0 12 225 1 340 -17z m-754 -284 c23 -22 25
-31 21 -73 -3 -38 -11 -56 -36 -80 -28 -29 -38 -32 -105 -35 l-74 -4 -12 -64
-12 -64 -39 0 c-22 0 -39 2 -39 5 0 3 11 56 24 118 14 62 30 138 36 171 l12
58 98 -4 c89 -3 102 -6 126 -28z m319 -2 c19 -18 37 -45 41 -60 6 -27 5 -28
-34 -28 -31 0 -41 4 -45 20 -8 31 -49 45 -82 29 -42 -21 -67 -62 -73 -118 -6
-65 15 -101 59 -101 28 0 71 30 80 58 4 13 79 5 79 -8 0 -18 -48 -76 -78 -93
-45 -27 -124 -27 -160 -1 -44 33 -64 81 -58 142 11 118 81 192 183 192 46 0
58 -4 88 -32z m300 10 c2 -13 14 -84 25 -160 11 -75 23 -143 26 -152 5 -13 -1
-16 -34 -16 -40 0 -41 1 -44 38 l-3 37 -66 3 -65 3 -20 -40 c-18 -38 -22 -41
-61 -41 l-41 0 75 133 c41 72 86 151 99 175 23 38 28 42 64 42 33 0 40 -4 45
-22z m399 -7 c38 -36 37 -102 -3 -142 -16 -16 -38 -29 -49 -29 -18 0 -17 -5
14 -62 43 -81 43 -88 -5 -88 -38 0 -39 1 -61 60 -26 69 -39 83 -76 78 -25 -3
-28 -9 -40 -67 -7 -35 -15 -66 -18 -68 -2 -2 -19 -3 -38 -1 l-35 3 38 170 c20
94 38 172 38 174 1 2 48 2 105 -1 94 -3 108 -6 130 -27z m287 12 c24 -14 59
-66 59 -87 0 -3 -18 -6 -39 -6 -31 0 -41 4 -46 20 -12 39 -105 39 -105 0 0
-14 19 -29 70 -55 74 -37 90 -56 90 -105 0 -44 -55 -99 -101 -101 -102 -5
-142 11 -165 66 -21 50 -18 55 26 55 32 0 40 -4 40 -18 0 -28 21 -42 61 -42
42 0 71 22 62 46 -3 8 -29 26 -58 39 -72 32 -95 56 -95 103 0 42 21 79 54 92
36 15 116 11 147 -7z m-1579 -10 c2 -10 0 -38 -5 -63 -4 -25 -12 -67 -16 -95
-5 -27 -14 -71 -21 -96 -10 -40 -9 -51 5 -72 16 -25 65 -43 65 -24 0 7 4 7 12
-1 7 -7 16 -12 22 -12 5 0 6 3 3 7 -4 3 -1 13 7 22 7 9 19 34 26 56 16 49 24
55 77 55 23 0 58 9 77 19 l34 20 6 -22 c3 -12 1 -24 -5 -28 -7 -4 -5 -9 5 -12
9 -4 16 -14 16 -23 0 -18 53 -74 70 -74 5 0 10 -5 10 -10 0 -6 10 -8 24 -4 13
3 27 1 30 -4 7 -11 65 1 101 21 28 16 45 14 82 -5 18 -10 35 -14 37 -9 3 4 15
7 28 6 26 -2 48 16 48 39 0 9 14 19 33 24 29 9 36 6 75 -32 46 -44 87 -54 110
-27 11 14 13 14 25 1 9 -12 22 -14 52 -9 22 4 43 5 47 3 3 -2 4 6 0 18 -4 16
-2 20 10 15 12 -4 14 -1 11 13 -6 23 18 81 32 77 5 -2 10 -12 10 -23 0 -10 4
-22 8 -25 4 -3 16 -21 25 -40 15 -30 22 -34 60 -36 42 -3 87 21 76 39 -3 4 2
8 11 8 8 0 18 -7 21 -15 4 -8 12 -15 20 -15 8 0 14 -4 14 -10 0 -5 9 -10 20
-10 11 0 20 -5 20 -12 0 -9 3 -9 11 -1 7 7 24 8 47 2 20 -4 39 -4 42 0 3 5 22
14 42 21 20 8 35 17 32 22 -3 4 1 11 9 14 17 6 36 47 39 85 2 29 -20 89 -33
89 -5 0 -9 5 -9 10 0 6 9 10 20 10 22 0 49 45 43 73 -6 25 12 21 31 -8 9 -14
21 -23 25 -20 5 3 18 -10 30 -28 11 -17 21 -28 21 -24 0 11 55 -55 63 -75 4
-10 10 -18 15 -18 8 0 58 -69 99 -135 26 -42 56 -111 54 -122 -1 -7 3 -13 9
-13 5 0 10 -9 10 -19 0 -11 3 -21 8 -23 4 -1 21 -44 39 -95 l32 -92 -28 5
c-20 4 -30 1 -34 -10 -4 -9 -21 -23 -39 -31 -31 -14 -32 -15 -10 -21 31 -9 27
-23 -8 -30 -37 -8 -38 -17 -3 -44 21 -16 24 -23 14 -30 -13 -7 -58 1 -81 15
-14 9 -13 -8 2 -23 21 -21 -2 -27 -33 -10 -26 16 -30 16 -36 2 -3 -8 -1 -26 5
-40 9 -19 9 -24 -2 -24 -16 0 -42 28 -55 60 l-10 25 -7 -23 c-5 -18 -9 -20
-20 -11 -8 6 -14 20 -14 30 0 26 -15 24 -38 -6 -11 -13 -22 -21 -26 -18 -9 10
-7 52 4 74 12 21 1 26 -17 8 -18 -18 -23 5 -8 35 13 24 12 28 -2 33 -8 3 -24
1 -35 -6 -11 -7 -22 -10 -25 -7 -12 12 29 56 60 65 17 5 26 10 20 11 -7 2 -17
4 -23 5 -5 1 -13 3 -16 4 -14 3 20 31 37 31 30 0 21 27 -16 48 -13 7 -26 7
-37 1 -22 -12 -33 9 -24 46 7 26 -8 60 -34 82 -10 8 -30 11 -56 7 -24 -3 -44
-2 -48 4 -4 7 -17 7 -36 2 -16 -5 -38 -6 -49 -3 -13 3 -23 0 -27 -10 -5 -15
-8 -15 -30 0 -18 11 -28 13 -36 5 -6 -6 -19 -7 -33 -2 -12 5 -40 5 -61 0 -29
-7 -42 -5 -55 6 -8 8 -18 11 -21 8 -3 -3 -27 -7 -53 -8 -41 -2 -46 -1 -42 16
3 11 -1 22 -9 25 -8 3 -12 9 -9 13 9 15 -13 20 -39 10 -14 -5 -26 -16 -26 -24
0 -21 -25 -26 -48 -10 -20 13 -24 12 -51 -16 -18 -19 -32 -27 -36 -20 -8 13
-87 9 -98 -5 -5 -6 -7 -3 -3 7 3 10 1 20 -5 23 -5 4 -7 11 -4 16 9 13 -20 39
-42 39 -10 0 -30 -7 -45 -14 -25 -13 -28 -13 -28 0 0 9 -5 12 -11 8 -6 -3 -32
-8 -58 -9 -50 -3 -101 -33 -79 -46 16 -10 23 -131 9 -158 -13 -23 -9 -26 20
-11 16 9 19 22 19 90 0 64 -3 80 -15 80 -8 0 -15 5 -15 10 0 6 27 10 60 10 61
0 100 -21 100 -53 0 -26 -32 -56 -65 -63 -31 -5 -35 -10 -35 -36 0 -21 6 -31
20 -35 30 -8 35 -4 32 22 -3 19 1 25 16 25 27 0 32 -9 21 -37 -12 -32 -7 -38
20 -21 19 11 21 22 21 100 0 72 -3 89 -17 97 -15 9 -12 10 15 11 l32 0 0 -99
c0 -70 4 -101 13 -104 6 -3 -5 -6 -26 -6 -33 -1 -37 -3 -28 -18 10 -18 71 -26
71 -10 0 5 5 5 10 2 17 -10 11 -19 -18 -33 -16 -6 -38 -30 -51 -52 -30 -54
-22 -117 22 -160 17 -16 36 -30 43 -30 7 0 14 -5 16 -11 3 -8 10 -9 23 -2 42
21 90 33 93 23 2 -5 10 -10 18 -10 8 0 14 -7 14 -15 0 -8 -5 -15 -10 -15 -6 0
-18 -17 -27 -37 -34 -81 -48 -108 -55 -111 -5 -2 -8 -10 -8 -17 0 -7 -6 -15
-12 -18 -9 -3 -5 -13 12 -32 23 -24 30 -26 73 -21 51 7 87 -5 87 -29 0 -8 -4
-15 -10 -15 -5 0 -7 -12 -5 -27 9 -52 13 -142 7 -148 -3 -3 -7 -14 -9 -25 -2
-17 0 -17 22 4 22 21 25 31 25 95 0 54 -4 73 -15 77 -8 4 -15 10 -15 15 0 14
126 5 144 -10 22 -19 20 -58 -4 -73 -28 -18 -25 -28 15 -72 19 -21 35 -40 35
-42 0 -2 -11 -4 -24 -4 -18 0 -32 12 -53 45 -34 55 -53 58 -53 10 0 -24 5 -35
15 -35 8 0 15 -5 15 -10 0 -6 -15 -10 -33 -8 -44 3 -72 -14 -37 -23 14 -3 33
-2 42 3 28 13 54 9 73 -12 18 -20 18 -21 -1 -35 -10 -8 -15 -15 -10 -15 5 0 4
-6 -2 -13 -12 -13 -11 -35 1 -54 4 -6 3 -23 -3 -38 -5 -14 -10 -36 -10 -49 0
-24 45 -70 60 -61 5 3 11 1 14 -3 7 -12 41 -8 59 6 8 7 22 10 31 6 12 -5 15
-2 10 12 -5 13 1 11 18 -8 27 -30 43 -37 35 -14 -4 11 0 13 21 7 31 -8 62 -4
62 9 0 5 15 4 33 -2 53 -16 87 -16 97 1 8 13 11 13 18 3 11 -16 59 -21 90 -10
13 4 22 4 22 -2 0 -5 22 -9 49 -7 32 1 47 6 44 14 -3 6 3 10 13 9 10 -2 20 -8
22 -14 2 -7 12 -12 22 -12 10 0 28 -13 40 -30 18 -25 24 -28 45 -20 14 5 25 6
25 2 1 -4 7 4 15 18 10 17 14 20 15 9 0 -9 -11 -28 -25 -43 -14 -15 -25 -31
-25 -37 0 -5 -4 -9 -10 -9 -5 0 -10 -5 -10 -10 0 -11 -57 -78 -95 -111 -55
-49 -81 -69 -88 -69 -5 0 -5 -5 -1 -12 5 -8 2 -9 -10 -5 -10 4 -19 1 -22 -7
-7 -19 -92 -78 -103 -72 -5 3 -11 -1 -15 -9 -5 -14 -168 -99 -191 -100 -6 0
-28 -9 -50 -19 -41 -20 -58 -21 -158 -10 -65 7 -194 -26 -204 -51 -7 -20 -149
-22 -156 -2 -4 9 -8 9 -15 -2 -8 -11 -16 -11 -46 -1 -19 6 -40 9 -45 6 -4 -3
-33 1 -64 9 -30 8 -67 16 -81 19 -47 9 -166 50 -166 58 0 4 -11 8 -24 8 -13 0
-26 3 -28 8 -2 4 -21 16 -43 27 -22 11 -67 37 -100 58 -33 20 -67 40 -75 44
-8 4 -23 17 -33 30 -10 13 -24 23 -30 23 -16 1 -57 36 -57 49 0 6 -7 11 -16
11 -10 0 -14 6 -11 15 4 8 2 17 -3 20 -6 4 -10 2 -10 -4 0 -5 -15 5 -33 22
-19 18 -32 35 -30 40 2 4 -3 7 -11 7 -8 0 -18 9 -21 20 -4 11 -22 37 -41 58
-19 20 -34 42 -34 49 0 6 -6 18 -14 26 -22 21 -56 89 -50 99 3 4 -2 11 -10 14
-9 3 -16 12 -16 19 0 7 -5 15 -10 17 -6 2 -11 17 -13 35 -1 17 -6 31 -12 30
-5 -1 -10 9 -11 22 -1 13 -7 26 -13 30 -6 4 -9 15 -6 23 3 8 0 22 -8 29 -7 8
-19 46 -25 84 -6 39 -15 81 -18 95 -3 14 -8 72 -10 130 -2 58 -6 111 -9 117
-2 7 0 37 5 65 6 29 11 68 13 87 1 19 7 36 12 38 14 4 44 -48 38 -65 -3 -7 2
-24 11 -37 12 -19 23 -24 44 -21 109 17 130 18 151 7 12 -7 31 -14 41 -16 10
-2 29 -13 42 -24 12 -11 31 -26 41 -33 10 -7 19 -23 20 -35 0 -12 5 -19 9 -17
5 3 5 11 1 17 -3 7 3 4 14 -6 24 -21 84 -15 104 9 6 7 26 16 44 20 19 3 36 12
39 20 4 12 10 11 34 -3 35 -22 80 -74 76 -88 -2 -5 13 -21 34 -35 20 -13 39
-26 42 -28 2 -2 -2 -8 -10 -13 -13 -9 -12 -10 2 -5 10 3 20 1 24 -5 11 -18 12
-63 1 -89 -16 -40 -16 -92 1 -130 8 -19 14 -40 13 -47 -1 -6 8 -28 19 -48 12
-21 19 -40 16 -43 -3 -3 4 -10 16 -16 14 -7 22 -21 23 -37 0 -14 7 -33 17 -42
9 -9 26 -33 39 -54 13 -21 29 -41 36 -46 6 -4 10 -14 6 -22 -4 -11 -1 -13 11
-9 24 9 43 -12 50 -56 3 -22 11 -40 16 -40 6 0 10 -6 10 -14 0 -17 -35 -30
-51 -20 -8 4 -9 3 -5 -4 6 -11 -13 -17 -37 -13 -5 1 -6 -3 -3 -8 4 -5 0 -11
-6 -14 -7 -2 -10 -8 -6 -11 3 -4 21 -1 40 8 18 8 43 15 54 14 34 -3 107 25
126 47 9 11 15 21 13 23 -1 1 -22 -2 -45 -7 -55 -12 -70 -6 -70 30 0 15 -8 44
-17 63 -17 33 -29 41 -59 37 -6 -1 -17 20 -23 45 -12 49 -41 90 -41 60 0 -9
-4 -16 -9 -16 -12 0 -11 59 1 66 12 8 10 44 -3 44 -6 0 -9 -7 -5 -15 3 -9 0
-15 -9 -15 -9 0 -28 27 -45 61 -30 63 -30 80 4 109 20 16 21 34 1 26 -9 -3
-15 0 -15 9 0 8 -4 15 -10 15 -5 0 -7 -13 -3 -30 6 -33 -7 -40 -27 -15 -10 13
-10 27 4 78 25 93 11 177 -30 177 -13 0 -24 4 -24 9 0 5 -11 19 -25 32 -13 13
-25 28 -25 32 0 4 -10 22 -22 38 -40 54 -111 77 -126 42 -4 -10 -11 -18 -17
-18 -18 0 -105 -38 -105 -45 0 -16 -40 3 -40 19 -1 21 -45 71 -64 71 -8 0 -17
4 -21 9 -3 5 -22 15 -43 21 -20 7 -42 19 -49 27 -7 9 -13 11 -18 4 -3 -6 -16
-11 -28 -11 -13 0 -46 -6 -75 -14 -48 -12 -62 -10 -45 7 14 15 8 60 -9 71 -10
6 -18 21 -18 33 l0 23 208 0 c214 0 232 -3 232 -41 0 -14 24 -18 193 -28 105
-7 203 -13 217 -14 14 -1 25 -8 25 -16 0 -8 6 -16 13 -18 8 -3 12 7 12 31 0
44 10 50 58 36 l39 -10 16 -85 c17 -92 77 -243 114 -289 19 -22 22 -35 17 -62
-6 -32 7 -77 68 -228 17 -43 19 -63 13 -140 -5 -66 -12 -96 -27 -117 -15 -19
-19 -35 -14 -54 5 -18 0 -37 -13 -59 -12 -18 -18 -35 -15 -38 11 -12 54 45 58
77 6 50 16 76 27 70 9 -6 11 5 13 77 1 20 4 40 8 44 4 4 3 13 -2 19 -7 8 -7
21 -1 38 7 18 7 28 0 33 -6 4 -8 20 -5 38 4 19 3 26 -3 17 -5 -7 -11 -9 -14
-5 -10 17 -11 59 -3 73 6 9 5 12 -2 7 -14 -8 -28 17 -37 67 -4 20 -11 37 -16
37 -5 0 -5 10 0 23 5 13 6 30 1 37 -4 7 -6 19 -3 26 2 6 -1 15 -6 19 -6 3 -9
11 -5 16 3 5 0 8 -7 7 -7 -2 -15 6 -17 17 -2 11 -12 31 -22 45 -9 14 -23 43
-29 65 -7 22 -16 49 -21 60 -13 30 -23 76 -26 117 -3 47 -8 54 -54 78 -47 24
-86 26 -94 5 -7 -19 -47 -35 -61 -25 -5 4 -48 8 -95 8 -173 1 -248 12 -291 44
l-39 28 -187 0 c-198 0 -253 -9 -253 -42 0 -10 -4 -18 -10 -18 -13 0 -13 57 0
65 5 3 7 12 4 20 -4 8 1 18 10 21 10 4 14 13 11 24 -3 10 0 31 6 46 6 16 15
38 19 49 23 59 90 194 100 200 6 3 8 10 5 15 -3 5 3 15 15 22 11 7 20 21 20
30 0 10 7 18 15 18 9 0 12 6 9 15 -4 8 -2 15 4 15 5 0 12 10 16 23 5 18 8 20
16 7 8 -12 10 -11 10 7 0 24 147 183 169 183 6 0 11 6 11 14 0 13 13 23 32 25
3 1 8 -7 10 -16z m1373 -153 c16 -18 17 -20 2 -21 -42 -3 -67 -19 -67 -41 0
-18 -1 -18 -16 -3 -15 14 -14 18 10 40 14 13 26 29 26 35 0 17 26 11 45 -10z
m-390 -280 c0 -8 -8 -16 -17 -18 -13 -2 -18 3 -18 18 0 15 5 20 18 18 9 -2 17
-10 17 -18z m-105 -30 c0 -13 7 -20 20 -20 11 0 20 -4 20 -10 0 -5 -9 -10 -20
-10 -17 0 -20 -7 -20 -50 0 -43 3 -50 20 -50 26 0 26 -17 0 -25 -34 -11 -50
12 -50 70 0 33 -5 56 -12 59 -10 5 -10 7 0 12 6 3 12 14 12 25 0 10 7 19 15
19 8 0 15 -9 15 -20z m-81 -42 c4 -13 6 -40 3 -60 -3 -28 0 -39 11 -44 9 -3
13 -12 11 -19 -7 -17 74 -44 84 -29 7 10 118 12 128 1 3 -3 17 -1 31 6 17 8
29 8 41 0 22 -13 56 -10 78 8 10 8 15 9 11 3 -10 -16 34 -26 51 -11 11 9 17 8
27 -6 13 -18 31 -24 20 -7 -3 6 0 10 7 11 95 5 144 3 163 -7 20 -10 23 -10 18
4 -5 12 -2 14 18 9 68 -19 72 -20 65 -8 -5 7 0 11 13 11 12 0 21 6 21 14 0 21
20 30 33 17 8 -8 8 -11 -1 -11 -7 0 -12 -7 -12 -15 0 -8 -5 -15 -11 -15 -6 0
-9 -7 -5 -15 3 -8 -1 -21 -9 -29 -17 -16 -20 -76 -5 -76 12 0 42 -58 38 -72
-7 -20 54 -78 82 -78 15 0 30 -3 34 -7 7 -8 11 -9 37 -12 5 0 7 -6 4 -12 -4
-6 -1 -9 6 -8 8 1 22 -1 32 -6 20 -9 60 21 50 38 -4 6 0 8 9 4 9 -3 25 1 37 9
12 8 25 13 29 10 5 -3 23 4 40 14 27 17 31 24 26 45 -4 17 -1 32 8 43 9 9 18
30 22 45 7 30 31 46 47 30 29 -29 43 -400 19 -508 -6 -27 -13 -65 -16 -83 -2
-18 -11 -54 -20 -80 -22 -70 -116 -272 -126 -272 -4 0 -8 -9 -8 -20 0 -11 -7
-20 -15 -20 -18 0 -18 -1 -4 39 6 17 15 31 21 31 5 0 6 4 3 10 -3 5 1 22 9 38
14 28 14 30 -10 42 -13 8 -54 13 -90 13 -49 0 -64 3 -60 13 3 8 0 11 -9 7 -8
-3 -18 2 -21 11 -5 13 -12 12 -52 -9 -26 -14 -61 -25 -77 -25 -17 0 -36 -5
-43 -12 -16 -16 -24 -6 -26 34 -2 18 -5 40 -8 48 -2 8 -3 12 -1 8 7 -12 30
-10 55 5 55 30 73 86 45 137 -10 19 -21 37 -23 39 -8 9 -125 11 -119 1 3 -5 0
-10 -8 -10 -20 0 -28 12 -17 25 13 15 7 60 -8 60 -6 0 -14 3 -18 7 -7 7 45 11
126 9 19 -1 60 -1 90 -1 30 0 75 0 99 0 52 -1 82 21 73 53 -3 12 -10 25 -16
29 -7 5 -5 8 4 8 17 0 50 34 50 50 0 6 -7 21 -15 34 -12 19 -25 24 -60 24 -26
1 -45 -3 -45 -10 0 -6 -9 -8 -22 -3 -13 4 -43 7 -68 7 -24 -1 -51 5 -59 11
-11 9 -13 9 -8 0 5 -8 -8 -11 -50 -11 -32 1 -69 -2 -82 -6 -18 -6 -30 -1 -56
24 l-33 32 -33 -30 c-32 -29 -34 -29 -58 -13 -14 9 -22 11 -18 5 4 -8 -7 -14
-33 -18 -22 -3 -40 -11 -40 -17 0 -5 -9 -1 -20 9 -16 15 -34 18 -107 16 -123
-3 -123 -3 -123 -17 0 -9 10 -12 30 -9 18 3 30 0 30 -7 0 -8 6 -7 20 1 16 10
24 10 41 0 15 -10 24 -11 32 -3 18 18 55 13 67 -8 5 -11 10 -40 10 -65 0 -26
5 -46 13 -49 6 -3 -6 -6 -27 -6 -31 -1 -37 2 -28 11 18 18 15 97 -3 104 -8 4
-21 1 -29 -5 -18 -15 -18 -91 0 -98 25 -10 6 -19 -31 -15 -29 4 -33 6 -20 16
10 8 14 24 11 54 -4 51 -8 56 -35 47 -18 -5 -21 -15 -21 -56 0 -27 5 -49 10
-49 6 0 10 -3 10 -7 0 -9 -148 -8 -157 1 -4 3 1 6 10 6 9 0 17 6 17 13 0 26
-18 38 -51 35 -26 -2 -35 -8 -37 -25 -2 -16 2 -23 12 -23 9 0 16 -5 16 -11 0
-6 -7 -8 -16 -5 -9 3 -29 6 -46 6 -30 0 -30 0 -10 18 11 9 35 54 53 100 17 45
35 82 39 82 4 0 22 -42 41 -92 28 -76 38 -94 57 -96 20 -3 22 0 22 52 0 52 -1
55 -30 61 -17 4 -28 10 -25 14 5 10 -17 61 -27 61 -17 0 6 29 32 40 23 10 33
9 53 -5 15 -10 28 -12 31 -6 3 5 26 8 51 6 25 -1 42 1 39 6 -6 10 9 12 19 3 3
-3 26 -7 51 -9 34 -2 46 1 46 11 0 18 8 18 26 -1 21 -21 34 -19 69 9 23 18 27
27 19 37 -18 22 -22 68 -9 86 11 15 10 22 -7 46 -11 15 -31 35 -44 44 -22 14
-25 14 -41 -6 -13 -14 -33 -22 -68 -25 -27 -2 -51 -9 -53 -15 -5 -16 -32 -13
-38 4 -5 11 -16 13 -48 9 -22 -4 -46 -11 -52 -16 -12 -9 -44 -1 -44 11 0 4
-18 6 -41 5 -44 -2 -84 28 -74 54 8 22 -45 63 -66 51 -24 -13 -35 -11 -52 6
-24 23 -9 52 34 69 35 14 38 19 29 36 -11 21 -40 17 -40 -6 0 -8 -7 -14 -15
-14 -8 0 -15 6 -15 13 0 22 23 37 57 37 26 0 35 -5 42 -22z m182 -40 c-2 -46
1 -58 16 -67 15 -8 9 -10 -27 -10 -35 0 -41 2 -27 10 22 13 23 81 2 103 -22
21 -19 28 12 24 26 -3 27 -5 24 -60z m157 50 c6 -6 12 -31 12 -57 0 -26 5 -52
12 -59 9 -9 3 -12 -27 -12 -25 0 -35 3 -27 9 9 5 12 25 10 57 -3 41 -6 49 -23
49 -17 0 -20 -8 -23 -49 -2 -32 1 -52 10 -57 8 -6 -2 -9 -26 -9 -31 0 -37 3
-28 12 18 18 15 97 -3 104 -28 11 -5 22 47 22 29 0 59 -5 66 -10z m92 -47 c0
-62 7 -75 34 -65 23 9 23 104 0 104 -8 0 -12 5 -9 10 3 6 17 10 31 10 23 0 24
-3 24 -60 0 -45 4 -61 18 -70 14 -9 11 -10 -18 -9 -19 1 -43 -1 -52 -5 -9 -4
-26 -3 -37 4 -17 9 -21 20 -21 65 0 30 -4 55 -10 55 -5 0 -10 5 -10 10 0 6 11
10 25 10 24 0 25 -3 25 -59z m160 47 c0 -9 3 -9 12 0 15 15 54 16 63 2 4 -7
12 -7 25 0 28 15 57 12 64 -6 3 -9 6 -35 6 -59 0 -30 5 -47 16 -53 24 -13 5
-19 -36 -11 -19 3 -29 7 -22 8 8 1 12 20 12 57 0 52 -1 55 -22 52 -20 -3 -23
-10 -26 -52 -2 -32 1 -52 10 -57 8 -6 -2 -9 -26 -9 -31 0 -37 3 -28 12 18 18
15 97 -3 104 -8 4 -21 1 -29 -5 -18 -15 -18 -78 1 -96 13 -13 10 -15 -23 -15
-30 0 -35 3 -26 12 18 18 15 97 -3 104 -8 4 -12 10 -9 15 8 13 44 11 44 -3z
m-580 -240 c0 -46 -11 -49 -27 -8 -9 25 -17 30 -43 30 -26 0 -33 -5 -47 -37
-20 -50 -8 -102 29 -122 25 -14 29 -14 58 8 40 29 50 20 17 -13 -36 -36 -80
-35 -118 3 -40 40 -41 105 -3 150 24 29 31 31 80 30 l54 -2 0 -39z m480 -2 c0
-19 4 -23 20 -19 11 3 20 0 20 -6 0 -6 -9 -11 -20 -11 -17 0 -20 -7 -20 -50 0
-43 3 -50 19 -50 30 0 34 -17 7 -24 -46 -11 -56 1 -56 65 0 47 -3 59 -16 59
-8 0 -12 5 -9 10 4 6 11 8 16 5 5 -4 9 5 9 19 0 16 6 26 15 26 9 0 15 -9 15
-24z m-533 -33 c8 -10 12 -12 8 -5 -3 6 -4 12 0 12 3 0 10 -12 15 -26 12 -32
1 -49 -33 -52 -22 -1 -24 2 -22 41 3 56 7 60 32 30z m185 0 c25 -23 24 -87 -2
-113 -62 -62 -146 34 -94 108 18 27 69 30 96 5z m136 5 c7 -7 12 -36 12 -65 0
-35 4 -53 12 -53 9 0 9 -3 1 -11 -8 -8 -17 -8 -29 -1 -12 7 -23 6 -36 -1 -35
-22 -75 26 -48 58 6 7 25 17 41 20 32 7 37 26 13 45 -13 11 -16 10 -21 -8 -3
-12 -12 -22 -19 -22 -17 0 -19 37 -1 43 23 10 63 7 75 -5z m142 -15 c-1 -25
-2 -26 -14 -10 -15 20 -56 23 -56 4 0 -7 14 -20 32 -28 47 -21 57 -44 31 -70
-17 -17 -28 -20 -57 -15 -31 6 -36 11 -36 33 l0 27 20 -22 c12 -12 30 -22 40
-22 32 0 23 30 -14 45 -64 27 -55 85 14 85 37 0 40 -2 40 -27z m190 -228 c0
-17 4 -23 14 -19 8 3 17 1 21 -5 3 -7 -3 -11 -15 -11 -19 0 -21 -5 -18 -52 2
-44 6 -52 21 -50 9 2 17 -2 17 -7 0 -16 -20 -23 -46 -17 -22 6 -24 11 -24 66
0 50 -3 60 -17 60 -17 1 -17 1 0 14 9 7 17 21 17 30 0 9 7 16 15 16 9 0 15 -9
15 -25z m-92 -27 c7 -7 12 -33 12 -58 0 -25 5 -51 12 -58 17 -17 2 -27 -24
-15 -16 7 -28 7 -40 -1 -23 -14 -52 3 -56 33 -3 17 5 25 37 39 26 11 40 23 38
32 -3 20 -37 26 -37 6 0 -9 -7 -16 -15 -16 -8 0 -15 6 -15 13 0 21 22 37 50
37 14 0 31 -5 38 -12z m244 -5 c10 -9 18 -24 18 -35 0 -15 -8 -18 -45 -18 -49
0 -59 -15 -29 -44 19 -20 24 -20 52 0 20 13 22 13 22 0 0 -33 -61 -46 -95 -20
-28 21 -28 100 -1 120 26 19 55 18 78 -3z m78 -43 c0 -64 15 -85 45 -60 20 17
20 89 0 96 -25 10 -17 26 13 22 26 -3 27 -5 25 -58 -2 -39 1 -58 12 -66 12 -9
3 -12 -43 -17 -69 -8 -82 4 -82 75 0 26 -4 48 -10 48 -5 0 -10 5 -10 10 0 6
11 10 25 10 24 0 25 -3 25 -60z m227 43 c3 -8 0 -20 -6 -26 -10 -9 -15 -8 -25
5 -18 25 -26 12 -26 -44 0 -36 4 -48 15 -48 8 0 15 -5 15 -11 0 -7 -9 -9 -22
-5 -13 3 -32 6 -43 7 -11 0 -14 3 -7 6 15 6 17 99 2 108 -23 14 -7 24 41 23
33 -1 53 -6 56 -15z m-592 -157 c49 -4 48 -3 38 -18 -4 -7 -6 -21 -4 -31 1
-12 -5 -20 -18 -24 -12 -3 -21 -9 -21 -14 0 -10 -31 -4 -59 11 -15 7 -32 8
-57 1 -33 -9 -38 -7 -59 17 -13 15 -19 29 -14 30 19 7 8 23 -11 17 -23 -7 -48
4 -32 14 9 5 140 4 237 -3z m115 -126 c0 -60 4 -100 10 -100 6 0 10 -4 10 -9
0 -5 -28 -9 -61 -7 -70 2 -89 18 -89 73 0 42 34 76 73 70 22 -3 27 0 27 19 0
12 -10 29 -22 37 -23 16 -22 16 15 16 l37 1 0 -100z m80 81 c0 -11 -4 -22 -9
-25 -12 -8 -34 21 -26 34 11 17 35 11 35 -9z m-250 -70 c5 -11 10 -40 10 -65
0 -25 5 -46 10 -46 6 0 10 -4 10 -10 0 -13 -37 -13 -45 0 -5 8 -11 7 -21 -1
-22 -18 -64 -3 -64 25 0 28 15 42 53 51 18 5 27 13 25 24 -4 21 -38 27 -38 7
0 -9 -8 -16 -20 -16 -11 0 -20 7 -20 15 0 35 82 48 100 16z m250 -42 c0 -46 4
-65 17 -74 14 -10 10 -12 -25 -12 -23 0 -42 4 -42 8 0 5 5 9 10 9 17 0 12 100
-5 106 -21 9 -8 24 21 24 23 0 24 -3 24 -61z m150 41 c22 -22 26 -60 9 -93
-16 -29 -28 -37 -60 -37 -35 0 -63 33 -63 75 0 66 69 100 114 55z m-354 -139
c-11 -18 79 -22 140 -7 14 4 23 3 20 -2 -6 -11 57 -12 64 -1 3 4 12 4 20 -1
13 -8 13 -10 -1 -10 -11 0 -19 -12 -23 -34 -6 -33 -9 -34 -59 -40 -28 -3 -63
-6 -77 -5 -130 3 -140 5 -140 17 0 8 5 10 13 6 6 -4 3 4 -9 17 -37 42 -38 49
-6 43 19 -4 32 -1 41 10 14 17 26 22 17 7z m281 -57 c3 -8 1 -20 -5 -26 -15
-15 -43 8 -35 28 7 19 32 18 40 -2z m-359 -37 c4 -42 -13 -50 -22 -12 -7 29
-53 46 -67 24 -14 -22 -11 -29 23 -47 50 -27 79 -58 71 -79 -14 -41 -35 -53
-84 -51 -45 3 -47 4 -51 36 -5 41 9 52 22 18 11 -30 53 -44 75 -26 20 16 3 48
-33 61 -62 24 -78 63 -42 99 16 16 31 20 63 17 40 -4 42 -5 45 -40z m572 0 c0
-22 3 -23 51 -19 45 3 51 2 46 -13 -4 -9 0 -33 9 -53 l15 -37 14 40 c9 24 11
41 5 43 -22 8 -8 22 20 22 33 0 36 -6 17 -29 -8 -9 -26 -46 -42 -83 -15 -37
-36 -75 -46 -84 -21 -19 -49 -12 -49 12 0 12 6 15 25 10 38 -10 43 30 12 99
-22 46 -30 55 -52 55 -25 0 -26 -2 -23 -52 2 -44 6 -53 21 -52 10 1 16 -3 14
-10 -2 -6 -17 -11 -33 -11 -29 0 -29 1 -32 63 -2 50 -6 62 -20 63 -15 1 -15 2
1 6 10 3 17 14 17 29 0 15 6 24 15 24 9 0 15 -9 15 -23z m-431 -43 c24 -30 26
-55 10 -87 -16 -29 -28 -37 -61 -37 -37 0 -72 45 -64 84 14 67 77 89 115 40z
m141 11 c15 -17 5 -49 -13 -42 -6 2 -11 12 -11 21 3 26 -35 20 -42 -8 -15 -61
18 -105 54 -72 12 10 22 13 26 7 8 -12 -32 -41 -58 -41 -53 0 -78 88 -36 130
24 24 62 26 80 5z m70 -44 c0 -33 5 -63 10 -66 21 -13 9 -25 -25 -25 -19 0
-35 5 -35 10 0 6 5 10 10 10 6 0 10 25 10 55 0 37 -4 55 -12 55 -9 0 -8 4 2
10 32 21 40 11 40 -49z m146 34 c25 -39 12 -59 -36 -52 -34 4 -40 2 -40 -13 0
-10 7 -24 16 -31 14 -11 21 -10 46 4 28 16 29 16 26 0 -5 -28 -54 -40 -86 -22
-36 20 -43 88 -13 118 29 29 67 27 87 -4z"/>
<path d="M806 2499 c-3 -8 -9 -31 -15 -51 l-9 -38 44 0 c34 0 51 6 69 25 41
40 29 62 -38 71 -35 5 -48 3 -51 -7z"/>
<path d="M1487 2420 c-20 -35 -36 -64 -35 -64 2 -1 23 1 48 4 l45 5 -10 59
-10 59 -38 -63z"/>
<path d="M1806 2491 c-3 -9 -7 -30 -11 -46 l-6 -31 62 6 c44 4 65 11 75 25 27
37 12 51 -58 57 -47 4 -59 2 -62 -11z"/>
<path d="M1190 2060 c0 -32 4 -40 19 -40 27 0 44 26 37 55 -5 18 -13 25 -31
25 -22 0 -25 -4 -25 -40z"/>
<path d="M2461 2040 c-13 -11 -29 -20 -37 -20 -8 0 -14 -5 -14 -11 0 -5 -8
-10 -17 -9 -25 3 -63 -10 -63 -21 0 -5 14 -9 31 -9 17 0 39 -5 50 -10 21 -12
26 -1 8 17 -18 18 5 23 34 8 31 -16 42 -6 33 31 -10 39 25 27 47 -16 16 -33
18 -34 23 -12 9 31 23 27 31 -8 6 -33 16 -37 35 -15 7 9 22 25 33 36 20 20 20
20 -23 14 -32 -3 -44 -1 -48 9 -3 8 -11 13 -18 10 -7 -3 -19 2 -26 11 -17 20
-50 18 -79 -5z"/>
<path d="M2659 1949 c-16 -49 -13 -59 9 -37 20 20 27 -2 10 -32 -20 -34 -10
-44 32 -35 30 7 40 20 19 27 -12 4 -39 72 -39 100 0 36 -17 24 -31 -23z"/>
<path d="M2448 1924 c-24 -12 -48 -42 -48 -57 0 -3 15 10 34 29 29 29 41 34
79 34 37 0 51 -5 76 -31 17 -17 31 -26 31 -21 0 6 -14 22 -31 36 -35 30 -97
35 -141 10z"/>
<path d="M1135 1910 c-3 -5 0 -11 7 -11 76 -8 88 -7 88 6 0 18 -85 22 -95 5z"/>
<path d="M2611 1772 c-15 -36 -59 -62 -106 -62 -29 0 -45 8 -71 34 -39 39 -47
33 -10 -7 57 -61 169 -43 197 32 14 34 4 37 -10 3z"/>
<path d="M1185 1315 c0 -51 3 -65 15 -65 12 0 15 14 15 65 0 51 -3 65 -15 65
-12 0 -15 -14 -15 -65z"/>
<path d="M1089 1319 c2 -36 -1 -54 -10 -60 -10 -6 -4 -9 18 -9 30 0 32 2 23
25 -10 27 6 47 21 24 7 -11 9 -9 9 8 0 16 -5 20 -20 16 -22 -6 -25 3 -10 27 8
12 13 13 30 2 17 -10 20 -10 20 3 0 11 -11 15 -42 15 l-43 0 4 -51z"/>
<path d="M1245 1329 c-4 -6 -4 -13 0 -17 4 -4 10 -1 12 6 6 17 23 15 23 -3 0
-8 -4 -15 -9 -15 -15 0 -42 -31 -36 -41 4 -5 23 -9 44 -9 37 0 37 0 33 38 -3
20 -10 40 -16 44 -16 11 -44 10 -51 -3z"/>
<path d="M1670 1250 c0 -37 2 -41 21 -38 12 2 27 11 33 21 14 22 -3 51 -33 55
-19 3 -21 -1 -21 -38z"/>
<path d="M1660 790 c-8 -5 -23 -11 -34 -14 -15 -5 -16 -9 -6 -21 19 -23 3 -31
-20 -10 -16 14 -17 20 -8 27 9 5 5 8 -11 8 -16 0 -22 -4 -17 -15 4 -11 -3 -15
-27 -16 -28 -1 -27 -2 11 -8 42 -7 114 -62 100 -76 -3 -3 -13 1 -22 10 -8 9
-37 23 -63 32 -27 9 -53 20 -60 25 -7 5 -14 5 -17 -1 -3 -5 7 -12 24 -16 16
-4 33 -11 36 -17 4 -6 -2 -8 -17 -4 -13 3 -18 3 -11 0 8 -4 5 -11 -10 -25 -28
-23 -16 -25 17 -3 17 11 36 14 60 10 49 -9 54 -26 8 -27 -21 -1 -51 -5 -68 -9
l-30 -8 27 -1 c25 -1 27 -3 18 -27 -6 -14 -10 -38 -10 -54 l0 -29 26 26 26 26
15 -34 15 -34 19 50 c10 28 17 55 15 60 -2 6 -9 -9 -16 -32 -15 -49 -30 -56
-30 -14 0 18 8 34 23 44 12 9 17 16 10 16 -7 1 -30 -17 -53 -40 -44 -45 -57
-30 -19 22 21 30 71 41 84 19 4 -6 11 -7 17 -4 6 4 8 3 5 -3 -4 -6 0 -19 8
-29 13 -18 14 -18 8 6 -5 22 1 19 44 -23 38 -37 49 -43 49 -28 0 11 -3 18 -6
16 -10 -6 -110 92 -110 108 0 23 58 67 87 67 36 0 24 9 -15 12 -22 1 -31 7
-28 15 3 7 1 13 -4 13 -6 0 -10 -4 -10 -9 0 -22 -43 -82 -52 -73 -14 14 0 51
30 79 25 23 21 30 -8 13z"/>
<path d="M1790 730 c0 -5 -16 -12 -35 -16 -19 -3 -47 -17 -62 -31 -21 -19 -23
-23 -8 -18 44 18 93 17 121 -1 l29 -18 -19 22 c-11 12 -25 22 -33 22 -23 0
-14 18 14 27 22 8 24 11 10 16 -9 3 -17 2 -17 -3z"/>
<path d="M1705 649 c-30 -7 -30 -7 -3 -8 15 -1 35 -11 46 -26 19 -24 20 -24
25 -4 5 18 12 21 41 17 51 -6 30 9 -24 17 -24 4 -47 8 -50 9 -3 1 -18 -1 -35
-5z"/>
<path d="M1276 625 c-32 -7 -65 -20 -74 -28 -13 -14 -12 -15 9 -12 56 9 149
40 149 50 0 7 -13 5 -84 -10z"/>
<path d="M1628 316 c-37 -28 -67 -57 -68 -63 0 -7 -5 -13 -12 -13 -6 0 -9 -3
-5 -6 7 -7 65 27 119 69 27 22 41 27 50 20 7 -6 35 -16 63 -22 27 -7 55 -17
62 -23 14 -11 17 0 5 18 -10 15 -67 44 -87 44 -9 0 -26 6 -38 14 -20 13 -27
10 -89 -38z"/>
<path d="M1438 1979 c-20 -11 -24 -34 -8 -44 15 -9 40 14 40 36 0 21 -7 23
-32 8z"/>
<path d="M1539 1497 c-14 -31 -9 -40 19 -35 17 3 17 6 6 33 l-12 30 -13 -28z"/>
<path d="M1556 1754 c-20 -51 8 -109 42 -87 19 12 26 44 18 79 -7 28 -50 34
-60 8z"/>
<path d="M1715 1706 c-11 -8 -16 -19 -12 -30 10 -27 42 -15 45 17 4 30 -5 34
-33 13z"/>
<path d="M1959 1431 c-19 -15 -21 -22 -12 -32 18 -18 43 -3 43 26 0 30 -1 30
-31 6z"/>
<path d="M2186 1485 c-9 -25 -9 -25 25 -25 24 0 30 4 27 18 -4 23 -44 28 -52
7z"/>
<path d="M1988 1205 c-17 -38 0 -80 32 -80 23 0 25 3 25 50 0 44 -3 50 -22 53
-17 2 -26 -4 -35 -23z"/>
<path d="M1858 1169 c-19 -10 -25 -49 -9 -49 25 0 41 14 41 36 0 26 -6 29 -32
13z"/>
<path d="M2234 1216 c-3 -8 -4 -31 -2 -52 3 -34 6 -39 28 -39 32 0 49 42 32
80 -13 27 -49 34 -58 11z"/>
<path d="M1945 945 c-3 -8 -7 -22 -10 -30 -2 -8 0 -27 5 -41 7 -18 16 -25 32
-22 30 4 46 48 30 83 -13 28 -50 34 -57 10z"/>
<path d="M2307 953 c-17 -17 -5 -33 24 -33 24 0 30 3 25 16 -3 9 -6 18 -6 20
0 7 -36 5 -43 -3z"/>
</g>
</svg>
