%TF.GenerationSoftware,KiCad,Pcbnew,9.0.0*%
%TF.CreationDate,2025-04-14T04:50:01-04:00*%
%TF.ProjectId,W4MLB_Band_Display,57344d4c-425f-4426-916e-645f44697370,1.0*%
%TF.SameCoordinates,Original*%
%TF.FileFunction,Legend,Bot*%
%TF.FilePolarity,Positive*%
%FSLAX46Y46*%
G04 Gerber Fmt 4.6, Leading zero omitted, Abs format (unit mm)*
G04 Created by KiCad (PCBNEW 9.0.0) date 2025-04-14 04:50:01*
%MOMM*%
%LPD*%
G01*
G04 APERTURE LIST*
%ADD10C,0.125000*%
%ADD11C,0.150000*%
%ADD12C,0.200000*%
%ADD13C,0.120000*%
G04 APERTURE END LIST*
D10*
X140271119Y-68877474D02*
X140271119Y-69448902D01*
X141271119Y-69163188D02*
X140271119Y-69163188D01*
X140271119Y-69686998D02*
X141271119Y-70353664D01*
X140271119Y-70353664D02*
X141271119Y-69686998D01*
X141271119Y-70734617D02*
X140271119Y-70734617D01*
X140271119Y-70734617D02*
X140271119Y-70972712D01*
X140271119Y-70972712D02*
X140318738Y-71115569D01*
X140318738Y-71115569D02*
X140413976Y-71210807D01*
X140413976Y-71210807D02*
X140509214Y-71258426D01*
X140509214Y-71258426D02*
X140699690Y-71306045D01*
X140699690Y-71306045D02*
X140842547Y-71306045D01*
X140842547Y-71306045D02*
X141033023Y-71258426D01*
X141033023Y-71258426D02*
X141128261Y-71210807D01*
X141128261Y-71210807D02*
X141223500Y-71115569D01*
X141223500Y-71115569D02*
X141271119Y-70972712D01*
X141271119Y-70972712D02*
X141271119Y-70734617D01*
X133371119Y-101844140D02*
X133371119Y-101272712D01*
X133371119Y-101558426D02*
X132371119Y-101558426D01*
X132371119Y-101558426D02*
X132513976Y-101463188D01*
X132513976Y-101463188D02*
X132609214Y-101367950D01*
X132609214Y-101367950D02*
X132656833Y-101272712D01*
X132371119Y-102748902D02*
X132371119Y-102272712D01*
X132371119Y-102272712D02*
X132847309Y-102225093D01*
X132847309Y-102225093D02*
X132799690Y-102272712D01*
X132799690Y-102272712D02*
X132752071Y-102367950D01*
X132752071Y-102367950D02*
X132752071Y-102606045D01*
X132752071Y-102606045D02*
X132799690Y-102701283D01*
X132799690Y-102701283D02*
X132847309Y-102748902D01*
X132847309Y-102748902D02*
X132942547Y-102796521D01*
X132942547Y-102796521D02*
X133180642Y-102796521D01*
X133180642Y-102796521D02*
X133275880Y-102748902D01*
X133275880Y-102748902D02*
X133323500Y-102701283D01*
X133323500Y-102701283D02*
X133371119Y-102606045D01*
X133371119Y-102606045D02*
X133371119Y-102367950D01*
X133371119Y-102367950D02*
X133323500Y-102272712D01*
X133323500Y-102272712D02*
X133275880Y-102225093D01*
X124818738Y-69544140D02*
X124771119Y-69448902D01*
X124771119Y-69448902D02*
X124771119Y-69306045D01*
X124771119Y-69306045D02*
X124818738Y-69163188D01*
X124818738Y-69163188D02*
X124913976Y-69067950D01*
X124913976Y-69067950D02*
X125009214Y-69020331D01*
X125009214Y-69020331D02*
X125199690Y-68972712D01*
X125199690Y-68972712D02*
X125342547Y-68972712D01*
X125342547Y-68972712D02*
X125533023Y-69020331D01*
X125533023Y-69020331D02*
X125628261Y-69067950D01*
X125628261Y-69067950D02*
X125723500Y-69163188D01*
X125723500Y-69163188D02*
X125771119Y-69306045D01*
X125771119Y-69306045D02*
X125771119Y-69401283D01*
X125771119Y-69401283D02*
X125723500Y-69544140D01*
X125723500Y-69544140D02*
X125675880Y-69591759D01*
X125675880Y-69591759D02*
X125342547Y-69591759D01*
X125342547Y-69591759D02*
X125342547Y-69401283D01*
X125771119Y-70020331D02*
X124771119Y-70020331D01*
X124771119Y-70020331D02*
X124771119Y-70401283D01*
X124771119Y-70401283D02*
X124818738Y-70496521D01*
X124818738Y-70496521D02*
X124866357Y-70544140D01*
X124866357Y-70544140D02*
X124961595Y-70591759D01*
X124961595Y-70591759D02*
X125104452Y-70591759D01*
X125104452Y-70591759D02*
X125199690Y-70544140D01*
X125199690Y-70544140D02*
X125247309Y-70496521D01*
X125247309Y-70496521D02*
X125294928Y-70401283D01*
X125294928Y-70401283D02*
X125294928Y-70020331D01*
X125771119Y-71020331D02*
X124771119Y-71020331D01*
X124771119Y-71686997D02*
X124771119Y-71877473D01*
X124771119Y-71877473D02*
X124818738Y-71972711D01*
X124818738Y-71972711D02*
X124913976Y-72067949D01*
X124913976Y-72067949D02*
X125104452Y-72115568D01*
X125104452Y-72115568D02*
X125437785Y-72115568D01*
X125437785Y-72115568D02*
X125628261Y-72067949D01*
X125628261Y-72067949D02*
X125723500Y-71972711D01*
X125723500Y-71972711D02*
X125771119Y-71877473D01*
X125771119Y-71877473D02*
X125771119Y-71686997D01*
X125771119Y-71686997D02*
X125723500Y-71591759D01*
X125723500Y-71591759D02*
X125628261Y-71496521D01*
X125628261Y-71496521D02*
X125437785Y-71448902D01*
X125437785Y-71448902D02*
X125104452Y-71448902D01*
X125104452Y-71448902D02*
X124913976Y-71496521D01*
X124913976Y-71496521D02*
X124818738Y-71591759D01*
X124818738Y-71591759D02*
X124771119Y-71686997D01*
X124771119Y-72448902D02*
X124771119Y-73067949D01*
X124771119Y-73067949D02*
X125152071Y-72734616D01*
X125152071Y-72734616D02*
X125152071Y-72877473D01*
X125152071Y-72877473D02*
X125199690Y-72972711D01*
X125199690Y-72972711D02*
X125247309Y-73020330D01*
X125247309Y-73020330D02*
X125342547Y-73067949D01*
X125342547Y-73067949D02*
X125580642Y-73067949D01*
X125580642Y-73067949D02*
X125675880Y-73020330D01*
X125675880Y-73020330D02*
X125723500Y-72972711D01*
X125723500Y-72972711D02*
X125771119Y-72877473D01*
X125771119Y-72877473D02*
X125771119Y-72591759D01*
X125771119Y-72591759D02*
X125723500Y-72496521D01*
X125723500Y-72496521D02*
X125675880Y-72448902D01*
X124771119Y-73925092D02*
X124771119Y-73734616D01*
X124771119Y-73734616D02*
X124818738Y-73639378D01*
X124818738Y-73639378D02*
X124866357Y-73591759D01*
X124866357Y-73591759D02*
X125009214Y-73496521D01*
X125009214Y-73496521D02*
X125199690Y-73448902D01*
X125199690Y-73448902D02*
X125580642Y-73448902D01*
X125580642Y-73448902D02*
X125675880Y-73496521D01*
X125675880Y-73496521D02*
X125723500Y-73544140D01*
X125723500Y-73544140D02*
X125771119Y-73639378D01*
X125771119Y-73639378D02*
X125771119Y-73829854D01*
X125771119Y-73829854D02*
X125723500Y-73925092D01*
X125723500Y-73925092D02*
X125675880Y-73972711D01*
X125675880Y-73972711D02*
X125580642Y-74020330D01*
X125580642Y-74020330D02*
X125342547Y-74020330D01*
X125342547Y-74020330D02*
X125247309Y-73972711D01*
X125247309Y-73972711D02*
X125199690Y-73925092D01*
X125199690Y-73925092D02*
X125152071Y-73829854D01*
X125152071Y-73829854D02*
X125152071Y-73639378D01*
X125152071Y-73639378D02*
X125199690Y-73544140D01*
X125199690Y-73544140D02*
X125247309Y-73496521D01*
X125247309Y-73496521D02*
X125342547Y-73448902D01*
X124771119Y-74591759D02*
X125009214Y-74591759D01*
X124913976Y-74353664D02*
X125009214Y-74591759D01*
X125009214Y-74591759D02*
X124913976Y-74829854D01*
X125199690Y-74448902D02*
X125009214Y-74591759D01*
X125009214Y-74591759D02*
X125199690Y-74734616D01*
X135318738Y-69644140D02*
X135271119Y-69548902D01*
X135271119Y-69548902D02*
X135271119Y-69406045D01*
X135271119Y-69406045D02*
X135318738Y-69263188D01*
X135318738Y-69263188D02*
X135413976Y-69167950D01*
X135413976Y-69167950D02*
X135509214Y-69120331D01*
X135509214Y-69120331D02*
X135699690Y-69072712D01*
X135699690Y-69072712D02*
X135842547Y-69072712D01*
X135842547Y-69072712D02*
X136033023Y-69120331D01*
X136033023Y-69120331D02*
X136128261Y-69167950D01*
X136128261Y-69167950D02*
X136223500Y-69263188D01*
X136223500Y-69263188D02*
X136271119Y-69406045D01*
X136271119Y-69406045D02*
X136271119Y-69501283D01*
X136271119Y-69501283D02*
X136223500Y-69644140D01*
X136223500Y-69644140D02*
X136175880Y-69691759D01*
X136175880Y-69691759D02*
X135842547Y-69691759D01*
X135842547Y-69691759D02*
X135842547Y-69501283D01*
X136271119Y-70120331D02*
X135271119Y-70120331D01*
X135271119Y-70120331D02*
X135271119Y-70501283D01*
X135271119Y-70501283D02*
X135318738Y-70596521D01*
X135318738Y-70596521D02*
X135366357Y-70644140D01*
X135366357Y-70644140D02*
X135461595Y-70691759D01*
X135461595Y-70691759D02*
X135604452Y-70691759D01*
X135604452Y-70691759D02*
X135699690Y-70644140D01*
X135699690Y-70644140D02*
X135747309Y-70596521D01*
X135747309Y-70596521D02*
X135794928Y-70501283D01*
X135794928Y-70501283D02*
X135794928Y-70120331D01*
X136271119Y-71120331D02*
X135271119Y-71120331D01*
X135271119Y-71786997D02*
X135271119Y-71977473D01*
X135271119Y-71977473D02*
X135318738Y-72072711D01*
X135318738Y-72072711D02*
X135413976Y-72167949D01*
X135413976Y-72167949D02*
X135604452Y-72215568D01*
X135604452Y-72215568D02*
X135937785Y-72215568D01*
X135937785Y-72215568D02*
X136128261Y-72167949D01*
X136128261Y-72167949D02*
X136223500Y-72072711D01*
X136223500Y-72072711D02*
X136271119Y-71977473D01*
X136271119Y-71977473D02*
X136271119Y-71786997D01*
X136271119Y-71786997D02*
X136223500Y-71691759D01*
X136223500Y-71691759D02*
X136128261Y-71596521D01*
X136128261Y-71596521D02*
X135937785Y-71548902D01*
X135937785Y-71548902D02*
X135604452Y-71548902D01*
X135604452Y-71548902D02*
X135413976Y-71596521D01*
X135413976Y-71596521D02*
X135318738Y-71691759D01*
X135318738Y-71691759D02*
X135271119Y-71786997D01*
X135366357Y-72596521D02*
X135318738Y-72644140D01*
X135318738Y-72644140D02*
X135271119Y-72739378D01*
X135271119Y-72739378D02*
X135271119Y-72977473D01*
X135271119Y-72977473D02*
X135318738Y-73072711D01*
X135318738Y-73072711D02*
X135366357Y-73120330D01*
X135366357Y-73120330D02*
X135461595Y-73167949D01*
X135461595Y-73167949D02*
X135556833Y-73167949D01*
X135556833Y-73167949D02*
X135699690Y-73120330D01*
X135699690Y-73120330D02*
X136271119Y-72548902D01*
X136271119Y-72548902D02*
X136271119Y-73167949D01*
X134966357Y-77272712D02*
X134918738Y-77320331D01*
X134918738Y-77320331D02*
X134871119Y-77415569D01*
X134871119Y-77415569D02*
X134871119Y-77653664D01*
X134871119Y-77653664D02*
X134918738Y-77748902D01*
X134918738Y-77748902D02*
X134966357Y-77796521D01*
X134966357Y-77796521D02*
X135061595Y-77844140D01*
X135061595Y-77844140D02*
X135156833Y-77844140D01*
X135156833Y-77844140D02*
X135299690Y-77796521D01*
X135299690Y-77796521D02*
X135871119Y-77225093D01*
X135871119Y-77225093D02*
X135871119Y-77844140D01*
X138871119Y-69791759D02*
X138394928Y-69458426D01*
X138871119Y-69220331D02*
X137871119Y-69220331D01*
X137871119Y-69220331D02*
X137871119Y-69601283D01*
X137871119Y-69601283D02*
X137918738Y-69696521D01*
X137918738Y-69696521D02*
X137966357Y-69744140D01*
X137966357Y-69744140D02*
X138061595Y-69791759D01*
X138061595Y-69791759D02*
X138204452Y-69791759D01*
X138204452Y-69791759D02*
X138299690Y-69744140D01*
X138299690Y-69744140D02*
X138347309Y-69696521D01*
X138347309Y-69696521D02*
X138394928Y-69601283D01*
X138394928Y-69601283D02*
X138394928Y-69220331D01*
X137871119Y-70125093D02*
X138871119Y-70791759D01*
X137871119Y-70791759D02*
X138871119Y-70125093D01*
X138871119Y-71172712D02*
X137871119Y-71172712D01*
X137871119Y-71172712D02*
X137871119Y-71410807D01*
X137871119Y-71410807D02*
X137918738Y-71553664D01*
X137918738Y-71553664D02*
X138013976Y-71648902D01*
X138013976Y-71648902D02*
X138109214Y-71696521D01*
X138109214Y-71696521D02*
X138299690Y-71744140D01*
X138299690Y-71744140D02*
X138442547Y-71744140D01*
X138442547Y-71744140D02*
X138633023Y-71696521D01*
X138633023Y-71696521D02*
X138728261Y-71648902D01*
X138728261Y-71648902D02*
X138823500Y-71553664D01*
X138823500Y-71553664D02*
X138871119Y-71410807D01*
X138871119Y-71410807D02*
X138871119Y-71172712D01*
X142818738Y-69069140D02*
X142771119Y-68973902D01*
X142771119Y-68973902D02*
X142771119Y-68831045D01*
X142771119Y-68831045D02*
X142818738Y-68688188D01*
X142818738Y-68688188D02*
X142913976Y-68592950D01*
X142913976Y-68592950D02*
X143009214Y-68545331D01*
X143009214Y-68545331D02*
X143199690Y-68497712D01*
X143199690Y-68497712D02*
X143342547Y-68497712D01*
X143342547Y-68497712D02*
X143533023Y-68545331D01*
X143533023Y-68545331D02*
X143628261Y-68592950D01*
X143628261Y-68592950D02*
X143723500Y-68688188D01*
X143723500Y-68688188D02*
X143771119Y-68831045D01*
X143771119Y-68831045D02*
X143771119Y-68926283D01*
X143771119Y-68926283D02*
X143723500Y-69069140D01*
X143723500Y-69069140D02*
X143675880Y-69116759D01*
X143675880Y-69116759D02*
X143342547Y-69116759D01*
X143342547Y-69116759D02*
X143342547Y-68926283D01*
X143771119Y-69545331D02*
X142771119Y-69545331D01*
X142771119Y-69545331D02*
X143771119Y-70116759D01*
X143771119Y-70116759D02*
X142771119Y-70116759D01*
X143771119Y-70592950D02*
X142771119Y-70592950D01*
X142771119Y-70592950D02*
X142771119Y-70831045D01*
X142771119Y-70831045D02*
X142818738Y-70973902D01*
X142818738Y-70973902D02*
X142913976Y-71069140D01*
X142913976Y-71069140D02*
X143009214Y-71116759D01*
X143009214Y-71116759D02*
X143199690Y-71164378D01*
X143199690Y-71164378D02*
X143342547Y-71164378D01*
X143342547Y-71164378D02*
X143533023Y-71116759D01*
X143533023Y-71116759D02*
X143628261Y-71069140D01*
X143628261Y-71069140D02*
X143723500Y-70973902D01*
X143723500Y-70973902D02*
X143771119Y-70831045D01*
X143771119Y-70831045D02*
X143771119Y-70592950D01*
X130118738Y-69544140D02*
X130071119Y-69448902D01*
X130071119Y-69448902D02*
X130071119Y-69306045D01*
X130071119Y-69306045D02*
X130118738Y-69163188D01*
X130118738Y-69163188D02*
X130213976Y-69067950D01*
X130213976Y-69067950D02*
X130309214Y-69020331D01*
X130309214Y-69020331D02*
X130499690Y-68972712D01*
X130499690Y-68972712D02*
X130642547Y-68972712D01*
X130642547Y-68972712D02*
X130833023Y-69020331D01*
X130833023Y-69020331D02*
X130928261Y-69067950D01*
X130928261Y-69067950D02*
X131023500Y-69163188D01*
X131023500Y-69163188D02*
X131071119Y-69306045D01*
X131071119Y-69306045D02*
X131071119Y-69401283D01*
X131071119Y-69401283D02*
X131023500Y-69544140D01*
X131023500Y-69544140D02*
X130975880Y-69591759D01*
X130975880Y-69591759D02*
X130642547Y-69591759D01*
X130642547Y-69591759D02*
X130642547Y-69401283D01*
X131071119Y-70020331D02*
X130071119Y-70020331D01*
X130071119Y-70020331D02*
X130071119Y-70401283D01*
X130071119Y-70401283D02*
X130118738Y-70496521D01*
X130118738Y-70496521D02*
X130166357Y-70544140D01*
X130166357Y-70544140D02*
X130261595Y-70591759D01*
X130261595Y-70591759D02*
X130404452Y-70591759D01*
X130404452Y-70591759D02*
X130499690Y-70544140D01*
X130499690Y-70544140D02*
X130547309Y-70496521D01*
X130547309Y-70496521D02*
X130594928Y-70401283D01*
X130594928Y-70401283D02*
X130594928Y-70020331D01*
X131071119Y-71020331D02*
X130071119Y-71020331D01*
X130071119Y-71686997D02*
X130071119Y-71877473D01*
X130071119Y-71877473D02*
X130118738Y-71972711D01*
X130118738Y-71972711D02*
X130213976Y-72067949D01*
X130213976Y-72067949D02*
X130404452Y-72115568D01*
X130404452Y-72115568D02*
X130737785Y-72115568D01*
X130737785Y-72115568D02*
X130928261Y-72067949D01*
X130928261Y-72067949D02*
X131023500Y-71972711D01*
X131023500Y-71972711D02*
X131071119Y-71877473D01*
X131071119Y-71877473D02*
X131071119Y-71686997D01*
X131071119Y-71686997D02*
X131023500Y-71591759D01*
X131023500Y-71591759D02*
X130928261Y-71496521D01*
X130928261Y-71496521D02*
X130737785Y-71448902D01*
X130737785Y-71448902D02*
X130404452Y-71448902D01*
X130404452Y-71448902D02*
X130213976Y-71496521D01*
X130213976Y-71496521D02*
X130118738Y-71591759D01*
X130118738Y-71591759D02*
X130071119Y-71686997D01*
X130071119Y-72448902D02*
X130071119Y-73067949D01*
X130071119Y-73067949D02*
X130452071Y-72734616D01*
X130452071Y-72734616D02*
X130452071Y-72877473D01*
X130452071Y-72877473D02*
X130499690Y-72972711D01*
X130499690Y-72972711D02*
X130547309Y-73020330D01*
X130547309Y-73020330D02*
X130642547Y-73067949D01*
X130642547Y-73067949D02*
X130880642Y-73067949D01*
X130880642Y-73067949D02*
X130975880Y-73020330D01*
X130975880Y-73020330D02*
X131023500Y-72972711D01*
X131023500Y-72972711D02*
X131071119Y-72877473D01*
X131071119Y-72877473D02*
X131071119Y-72591759D01*
X131071119Y-72591759D02*
X131023500Y-72496521D01*
X131023500Y-72496521D02*
X130975880Y-72448902D01*
X130404452Y-73925092D02*
X131071119Y-73925092D01*
X130023500Y-73686997D02*
X130737785Y-73448902D01*
X130737785Y-73448902D02*
X130737785Y-74067949D01*
X130071119Y-74591759D02*
X130309214Y-74591759D01*
X130213976Y-74353664D02*
X130309214Y-74591759D01*
X130309214Y-74591759D02*
X130213976Y-74829854D01*
X130499690Y-74448902D02*
X130309214Y-74591759D01*
X130309214Y-74591759D02*
X130499690Y-74734616D01*
X136171119Y-101944140D02*
X136171119Y-101372712D01*
X136171119Y-101658426D02*
X135171119Y-101658426D01*
X135171119Y-101658426D02*
X135313976Y-101563188D01*
X135313976Y-101563188D02*
X135409214Y-101467950D01*
X135409214Y-101467950D02*
X135456833Y-101372712D01*
X135171119Y-102801283D02*
X135171119Y-102610807D01*
X135171119Y-102610807D02*
X135218738Y-102515569D01*
X135218738Y-102515569D02*
X135266357Y-102467950D01*
X135266357Y-102467950D02*
X135409214Y-102372712D01*
X135409214Y-102372712D02*
X135599690Y-102325093D01*
X135599690Y-102325093D02*
X135980642Y-102325093D01*
X135980642Y-102325093D02*
X136075880Y-102372712D01*
X136075880Y-102372712D02*
X136123500Y-102420331D01*
X136123500Y-102420331D02*
X136171119Y-102515569D01*
X136171119Y-102515569D02*
X136171119Y-102706045D01*
X136171119Y-102706045D02*
X136123500Y-102801283D01*
X136123500Y-102801283D02*
X136075880Y-102848902D01*
X136075880Y-102848902D02*
X135980642Y-102896521D01*
X135980642Y-102896521D02*
X135742547Y-102896521D01*
X135742547Y-102896521D02*
X135647309Y-102848902D01*
X135647309Y-102848902D02*
X135599690Y-102801283D01*
X135599690Y-102801283D02*
X135552071Y-102706045D01*
X135552071Y-102706045D02*
X135552071Y-102515569D01*
X135552071Y-102515569D02*
X135599690Y-102420331D01*
X135599690Y-102420331D02*
X135647309Y-102372712D01*
X135647309Y-102372712D02*
X135742547Y-102325093D01*
X132818738Y-69644140D02*
X132771119Y-69548902D01*
X132771119Y-69548902D02*
X132771119Y-69406045D01*
X132771119Y-69406045D02*
X132818738Y-69263188D01*
X132818738Y-69263188D02*
X132913976Y-69167950D01*
X132913976Y-69167950D02*
X133009214Y-69120331D01*
X133009214Y-69120331D02*
X133199690Y-69072712D01*
X133199690Y-69072712D02*
X133342547Y-69072712D01*
X133342547Y-69072712D02*
X133533023Y-69120331D01*
X133533023Y-69120331D02*
X133628261Y-69167950D01*
X133628261Y-69167950D02*
X133723500Y-69263188D01*
X133723500Y-69263188D02*
X133771119Y-69406045D01*
X133771119Y-69406045D02*
X133771119Y-69501283D01*
X133771119Y-69501283D02*
X133723500Y-69644140D01*
X133723500Y-69644140D02*
X133675880Y-69691759D01*
X133675880Y-69691759D02*
X133342547Y-69691759D01*
X133342547Y-69691759D02*
X133342547Y-69501283D01*
X133771119Y-70120331D02*
X132771119Y-70120331D01*
X132771119Y-70120331D02*
X132771119Y-70501283D01*
X132771119Y-70501283D02*
X132818738Y-70596521D01*
X132818738Y-70596521D02*
X132866357Y-70644140D01*
X132866357Y-70644140D02*
X132961595Y-70691759D01*
X132961595Y-70691759D02*
X133104452Y-70691759D01*
X133104452Y-70691759D02*
X133199690Y-70644140D01*
X133199690Y-70644140D02*
X133247309Y-70596521D01*
X133247309Y-70596521D02*
X133294928Y-70501283D01*
X133294928Y-70501283D02*
X133294928Y-70120331D01*
X133771119Y-71120331D02*
X132771119Y-71120331D01*
X132771119Y-71786997D02*
X132771119Y-71977473D01*
X132771119Y-71977473D02*
X132818738Y-72072711D01*
X132818738Y-72072711D02*
X132913976Y-72167949D01*
X132913976Y-72167949D02*
X133104452Y-72215568D01*
X133104452Y-72215568D02*
X133437785Y-72215568D01*
X133437785Y-72215568D02*
X133628261Y-72167949D01*
X133628261Y-72167949D02*
X133723500Y-72072711D01*
X133723500Y-72072711D02*
X133771119Y-71977473D01*
X133771119Y-71977473D02*
X133771119Y-71786997D01*
X133771119Y-71786997D02*
X133723500Y-71691759D01*
X133723500Y-71691759D02*
X133628261Y-71596521D01*
X133628261Y-71596521D02*
X133437785Y-71548902D01*
X133437785Y-71548902D02*
X133104452Y-71548902D01*
X133104452Y-71548902D02*
X132913976Y-71596521D01*
X132913976Y-71596521D02*
X132818738Y-71691759D01*
X132818738Y-71691759D02*
X132771119Y-71786997D01*
X132771119Y-72548902D02*
X132771119Y-73167949D01*
X132771119Y-73167949D02*
X133152071Y-72834616D01*
X133152071Y-72834616D02*
X133152071Y-72977473D01*
X133152071Y-72977473D02*
X133199690Y-73072711D01*
X133199690Y-73072711D02*
X133247309Y-73120330D01*
X133247309Y-73120330D02*
X133342547Y-73167949D01*
X133342547Y-73167949D02*
X133580642Y-73167949D01*
X133580642Y-73167949D02*
X133675880Y-73120330D01*
X133675880Y-73120330D02*
X133723500Y-73072711D01*
X133723500Y-73072711D02*
X133771119Y-72977473D01*
X133771119Y-72977473D02*
X133771119Y-72691759D01*
X133771119Y-72691759D02*
X133723500Y-72596521D01*
X133723500Y-72596521D02*
X133675880Y-72548902D01*
X132771119Y-74072711D02*
X132771119Y-73596521D01*
X132771119Y-73596521D02*
X133247309Y-73548902D01*
X133247309Y-73548902D02*
X133199690Y-73596521D01*
X133199690Y-73596521D02*
X133152071Y-73691759D01*
X133152071Y-73691759D02*
X133152071Y-73929854D01*
X133152071Y-73929854D02*
X133199690Y-74025092D01*
X133199690Y-74025092D02*
X133247309Y-74072711D01*
X133247309Y-74072711D02*
X133342547Y-74120330D01*
X133342547Y-74120330D02*
X133580642Y-74120330D01*
X133580642Y-74120330D02*
X133675880Y-74072711D01*
X133675880Y-74072711D02*
X133723500Y-74025092D01*
X133723500Y-74025092D02*
X133771119Y-73929854D01*
X133771119Y-73929854D02*
X133771119Y-73691759D01*
X133771119Y-73691759D02*
X133723500Y-73596521D01*
X133723500Y-73596521D02*
X133675880Y-73548902D01*
X132771119Y-74691759D02*
X133009214Y-74691759D01*
X132913976Y-74453664D02*
X133009214Y-74691759D01*
X133009214Y-74691759D02*
X132913976Y-74929854D01*
X133199690Y-74548902D02*
X133009214Y-74691759D01*
X133009214Y-74691759D02*
X133199690Y-74834616D01*
X132871119Y-77944140D02*
X132871119Y-77372712D01*
X132871119Y-77658426D02*
X131871119Y-77658426D01*
X131871119Y-77658426D02*
X132013976Y-77563188D01*
X132013976Y-77563188D02*
X132109214Y-77467950D01*
X132109214Y-77467950D02*
X132156833Y-77372712D01*
X145590166Y-68520331D02*
X145590166Y-69282236D01*
X145971119Y-68901283D02*
X145209214Y-68901283D01*
X144971119Y-69663188D02*
X144971119Y-70282235D01*
X144971119Y-70282235D02*
X145352071Y-69948902D01*
X145352071Y-69948902D02*
X145352071Y-70091759D01*
X145352071Y-70091759D02*
X145399690Y-70186997D01*
X145399690Y-70186997D02*
X145447309Y-70234616D01*
X145447309Y-70234616D02*
X145542547Y-70282235D01*
X145542547Y-70282235D02*
X145780642Y-70282235D01*
X145780642Y-70282235D02*
X145875880Y-70234616D01*
X145875880Y-70234616D02*
X145923500Y-70186997D01*
X145923500Y-70186997D02*
X145971119Y-70091759D01*
X145971119Y-70091759D02*
X145971119Y-69806045D01*
X145971119Y-69806045D02*
X145923500Y-69710807D01*
X145923500Y-69710807D02*
X145875880Y-69663188D01*
X145875880Y-70710807D02*
X145923500Y-70758426D01*
X145923500Y-70758426D02*
X145971119Y-70710807D01*
X145971119Y-70710807D02*
X145923500Y-70663188D01*
X145923500Y-70663188D02*
X145875880Y-70710807D01*
X145875880Y-70710807D02*
X145971119Y-70710807D01*
X144971119Y-71091759D02*
X144971119Y-71710806D01*
X144971119Y-71710806D02*
X145352071Y-71377473D01*
X145352071Y-71377473D02*
X145352071Y-71520330D01*
X145352071Y-71520330D02*
X145399690Y-71615568D01*
X145399690Y-71615568D02*
X145447309Y-71663187D01*
X145447309Y-71663187D02*
X145542547Y-71710806D01*
X145542547Y-71710806D02*
X145780642Y-71710806D01*
X145780642Y-71710806D02*
X145875880Y-71663187D01*
X145875880Y-71663187D02*
X145923500Y-71615568D01*
X145923500Y-71615568D02*
X145971119Y-71520330D01*
X145971119Y-71520330D02*
X145971119Y-71234616D01*
X145971119Y-71234616D02*
X145923500Y-71139378D01*
X145923500Y-71139378D02*
X145875880Y-71091759D01*
X144971119Y-71996521D02*
X145971119Y-72329854D01*
X145971119Y-72329854D02*
X144971119Y-72663187D01*
X127618738Y-69544140D02*
X127571119Y-69448902D01*
X127571119Y-69448902D02*
X127571119Y-69306045D01*
X127571119Y-69306045D02*
X127618738Y-69163188D01*
X127618738Y-69163188D02*
X127713976Y-69067950D01*
X127713976Y-69067950D02*
X127809214Y-69020331D01*
X127809214Y-69020331D02*
X127999690Y-68972712D01*
X127999690Y-68972712D02*
X128142547Y-68972712D01*
X128142547Y-68972712D02*
X128333023Y-69020331D01*
X128333023Y-69020331D02*
X128428261Y-69067950D01*
X128428261Y-69067950D02*
X128523500Y-69163188D01*
X128523500Y-69163188D02*
X128571119Y-69306045D01*
X128571119Y-69306045D02*
X128571119Y-69401283D01*
X128571119Y-69401283D02*
X128523500Y-69544140D01*
X128523500Y-69544140D02*
X128475880Y-69591759D01*
X128475880Y-69591759D02*
X128142547Y-69591759D01*
X128142547Y-69591759D02*
X128142547Y-69401283D01*
X128571119Y-70020331D02*
X127571119Y-70020331D01*
X127571119Y-70020331D02*
X127571119Y-70401283D01*
X127571119Y-70401283D02*
X127618738Y-70496521D01*
X127618738Y-70496521D02*
X127666357Y-70544140D01*
X127666357Y-70544140D02*
X127761595Y-70591759D01*
X127761595Y-70591759D02*
X127904452Y-70591759D01*
X127904452Y-70591759D02*
X127999690Y-70544140D01*
X127999690Y-70544140D02*
X128047309Y-70496521D01*
X128047309Y-70496521D02*
X128094928Y-70401283D01*
X128094928Y-70401283D02*
X128094928Y-70020331D01*
X128571119Y-71020331D02*
X127571119Y-71020331D01*
X127571119Y-71686997D02*
X127571119Y-71877473D01*
X127571119Y-71877473D02*
X127618738Y-71972711D01*
X127618738Y-71972711D02*
X127713976Y-72067949D01*
X127713976Y-72067949D02*
X127904452Y-72115568D01*
X127904452Y-72115568D02*
X128237785Y-72115568D01*
X128237785Y-72115568D02*
X128428261Y-72067949D01*
X128428261Y-72067949D02*
X128523500Y-71972711D01*
X128523500Y-71972711D02*
X128571119Y-71877473D01*
X128571119Y-71877473D02*
X128571119Y-71686997D01*
X128571119Y-71686997D02*
X128523500Y-71591759D01*
X128523500Y-71591759D02*
X128428261Y-71496521D01*
X128428261Y-71496521D02*
X128237785Y-71448902D01*
X128237785Y-71448902D02*
X127904452Y-71448902D01*
X127904452Y-71448902D02*
X127713976Y-71496521D01*
X127713976Y-71496521D02*
X127618738Y-71591759D01*
X127618738Y-71591759D02*
X127571119Y-71686997D01*
X127571119Y-72448902D02*
X127571119Y-73067949D01*
X127571119Y-73067949D02*
X127952071Y-72734616D01*
X127952071Y-72734616D02*
X127952071Y-72877473D01*
X127952071Y-72877473D02*
X127999690Y-72972711D01*
X127999690Y-72972711D02*
X128047309Y-73020330D01*
X128047309Y-73020330D02*
X128142547Y-73067949D01*
X128142547Y-73067949D02*
X128380642Y-73067949D01*
X128380642Y-73067949D02*
X128475880Y-73020330D01*
X128475880Y-73020330D02*
X128523500Y-72972711D01*
X128523500Y-72972711D02*
X128571119Y-72877473D01*
X128571119Y-72877473D02*
X128571119Y-72591759D01*
X128571119Y-72591759D02*
X128523500Y-72496521D01*
X128523500Y-72496521D02*
X128475880Y-72448902D01*
X128571119Y-73544140D02*
X128571119Y-73734616D01*
X128571119Y-73734616D02*
X128523500Y-73829854D01*
X128523500Y-73829854D02*
X128475880Y-73877473D01*
X128475880Y-73877473D02*
X128333023Y-73972711D01*
X128333023Y-73972711D02*
X128142547Y-74020330D01*
X128142547Y-74020330D02*
X127761595Y-74020330D01*
X127761595Y-74020330D02*
X127666357Y-73972711D01*
X127666357Y-73972711D02*
X127618738Y-73925092D01*
X127618738Y-73925092D02*
X127571119Y-73829854D01*
X127571119Y-73829854D02*
X127571119Y-73639378D01*
X127571119Y-73639378D02*
X127618738Y-73544140D01*
X127618738Y-73544140D02*
X127666357Y-73496521D01*
X127666357Y-73496521D02*
X127761595Y-73448902D01*
X127761595Y-73448902D02*
X127999690Y-73448902D01*
X127999690Y-73448902D02*
X128094928Y-73496521D01*
X128094928Y-73496521D02*
X128142547Y-73544140D01*
X128142547Y-73544140D02*
X128190166Y-73639378D01*
X128190166Y-73639378D02*
X128190166Y-73829854D01*
X128190166Y-73829854D02*
X128142547Y-73925092D01*
X128142547Y-73925092D02*
X128094928Y-73972711D01*
X128094928Y-73972711D02*
X127999690Y-74020330D01*
X127571119Y-74591759D02*
X127809214Y-74591759D01*
X127713976Y-74353664D02*
X127809214Y-74591759D01*
X127809214Y-74591759D02*
X127713976Y-74829854D01*
X127999690Y-74448902D02*
X127809214Y-74591759D01*
X127809214Y-74591759D02*
X127999690Y-74734616D01*
X148990166Y-68620331D02*
X148990166Y-69382236D01*
X149371119Y-69001283D02*
X148609214Y-69001283D01*
X148371119Y-70334616D02*
X148371119Y-69858426D01*
X148371119Y-69858426D02*
X148847309Y-69810807D01*
X148847309Y-69810807D02*
X148799690Y-69858426D01*
X148799690Y-69858426D02*
X148752071Y-69953664D01*
X148752071Y-69953664D02*
X148752071Y-70191759D01*
X148752071Y-70191759D02*
X148799690Y-70286997D01*
X148799690Y-70286997D02*
X148847309Y-70334616D01*
X148847309Y-70334616D02*
X148942547Y-70382235D01*
X148942547Y-70382235D02*
X149180642Y-70382235D01*
X149180642Y-70382235D02*
X149275880Y-70334616D01*
X149275880Y-70334616D02*
X149323500Y-70286997D01*
X149323500Y-70286997D02*
X149371119Y-70191759D01*
X149371119Y-70191759D02*
X149371119Y-69953664D01*
X149371119Y-69953664D02*
X149323500Y-69858426D01*
X149323500Y-69858426D02*
X149275880Y-69810807D01*
X148371119Y-70667950D02*
X149371119Y-71001283D01*
X149371119Y-71001283D02*
X148371119Y-71334616D01*
X140551231Y-84920331D02*
X139551231Y-84920331D01*
X139551231Y-84920331D02*
X139551231Y-85301283D01*
X139551231Y-85301283D02*
X139598850Y-85396521D01*
X139598850Y-85396521D02*
X139646469Y-85444140D01*
X139646469Y-85444140D02*
X139741707Y-85491759D01*
X139741707Y-85491759D02*
X139884564Y-85491759D01*
X139884564Y-85491759D02*
X139979802Y-85444140D01*
X139979802Y-85444140D02*
X140027421Y-85396521D01*
X140027421Y-85396521D02*
X140075040Y-85301283D01*
X140075040Y-85301283D02*
X140075040Y-84920331D01*
X140551231Y-86063188D02*
X140503612Y-85967950D01*
X140503612Y-85967950D02*
X140408373Y-85920331D01*
X140408373Y-85920331D02*
X139551231Y-85920331D01*
X139884564Y-86872712D02*
X140551231Y-86872712D01*
X139884564Y-86444141D02*
X140408373Y-86444141D01*
X140408373Y-86444141D02*
X140503612Y-86491760D01*
X140503612Y-86491760D02*
X140551231Y-86586998D01*
X140551231Y-86586998D02*
X140551231Y-86729855D01*
X140551231Y-86729855D02*
X140503612Y-86825093D01*
X140503612Y-86825093D02*
X140455992Y-86872712D01*
X139884564Y-87777474D02*
X140694088Y-87777474D01*
X140694088Y-87777474D02*
X140789326Y-87729855D01*
X140789326Y-87729855D02*
X140836945Y-87682236D01*
X140836945Y-87682236D02*
X140884564Y-87586998D01*
X140884564Y-87586998D02*
X140884564Y-87444141D01*
X140884564Y-87444141D02*
X140836945Y-87348903D01*
X140503612Y-87777474D02*
X140551231Y-87682236D01*
X140551231Y-87682236D02*
X140551231Y-87491760D01*
X140551231Y-87491760D02*
X140503612Y-87396522D01*
X140503612Y-87396522D02*
X140455992Y-87348903D01*
X140455992Y-87348903D02*
X140360754Y-87301284D01*
X140360754Y-87301284D02*
X140075040Y-87301284D01*
X140075040Y-87301284D02*
X139979802Y-87348903D01*
X139979802Y-87348903D02*
X139932183Y-87396522D01*
X139932183Y-87396522D02*
X139884564Y-87491760D01*
X139884564Y-87491760D02*
X139884564Y-87682236D01*
X139884564Y-87682236D02*
X139932183Y-87777474D01*
X140551231Y-89444141D02*
X139551231Y-89444141D01*
X140503612Y-89444141D02*
X140551231Y-89348903D01*
X140551231Y-89348903D02*
X140551231Y-89158427D01*
X140551231Y-89158427D02*
X140503612Y-89063189D01*
X140503612Y-89063189D02*
X140455992Y-89015570D01*
X140455992Y-89015570D02*
X140360754Y-88967951D01*
X140360754Y-88967951D02*
X140075040Y-88967951D01*
X140075040Y-88967951D02*
X139979802Y-89015570D01*
X139979802Y-89015570D02*
X139932183Y-89063189D01*
X139932183Y-89063189D02*
X139884564Y-89158427D01*
X139884564Y-89158427D02*
X139884564Y-89348903D01*
X139884564Y-89348903D02*
X139932183Y-89444141D01*
X140551231Y-89920332D02*
X139884564Y-89920332D01*
X139551231Y-89920332D02*
X139598850Y-89872713D01*
X139598850Y-89872713D02*
X139646469Y-89920332D01*
X139646469Y-89920332D02*
X139598850Y-89967951D01*
X139598850Y-89967951D02*
X139551231Y-89920332D01*
X139551231Y-89920332D02*
X139646469Y-89920332D01*
X140551231Y-90396522D02*
X139884564Y-90396522D01*
X140075040Y-90396522D02*
X139979802Y-90444141D01*
X139979802Y-90444141D02*
X139932183Y-90491760D01*
X139932183Y-90491760D02*
X139884564Y-90586998D01*
X139884564Y-90586998D02*
X139884564Y-90682236D01*
X140503612Y-91396522D02*
X140551231Y-91301284D01*
X140551231Y-91301284D02*
X140551231Y-91110808D01*
X140551231Y-91110808D02*
X140503612Y-91015570D01*
X140503612Y-91015570D02*
X140408373Y-90967951D01*
X140408373Y-90967951D02*
X140027421Y-90967951D01*
X140027421Y-90967951D02*
X139932183Y-91015570D01*
X139932183Y-91015570D02*
X139884564Y-91110808D01*
X139884564Y-91110808D02*
X139884564Y-91301284D01*
X139884564Y-91301284D02*
X139932183Y-91396522D01*
X139932183Y-91396522D02*
X140027421Y-91444141D01*
X140027421Y-91444141D02*
X140122659Y-91444141D01*
X140122659Y-91444141D02*
X140217897Y-90967951D01*
X140503612Y-92301284D02*
X140551231Y-92206046D01*
X140551231Y-92206046D02*
X140551231Y-92015570D01*
X140551231Y-92015570D02*
X140503612Y-91920332D01*
X140503612Y-91920332D02*
X140455992Y-91872713D01*
X140455992Y-91872713D02*
X140360754Y-91825094D01*
X140360754Y-91825094D02*
X140075040Y-91825094D01*
X140075040Y-91825094D02*
X139979802Y-91872713D01*
X139979802Y-91872713D02*
X139932183Y-91920332D01*
X139932183Y-91920332D02*
X139884564Y-92015570D01*
X139884564Y-92015570D02*
X139884564Y-92206046D01*
X139884564Y-92206046D02*
X139932183Y-92301284D01*
X139884564Y-92586999D02*
X139884564Y-92967951D01*
X139551231Y-92729856D02*
X140408373Y-92729856D01*
X140408373Y-92729856D02*
X140503612Y-92777475D01*
X140503612Y-92777475D02*
X140551231Y-92872713D01*
X140551231Y-92872713D02*
X140551231Y-92967951D01*
X140551231Y-93444142D02*
X140503612Y-93348904D01*
X140503612Y-93348904D02*
X140408373Y-93301285D01*
X140408373Y-93301285D02*
X139551231Y-93301285D01*
X139884564Y-93729857D02*
X140551231Y-93967952D01*
X139884564Y-94206047D02*
X140551231Y-93967952D01*
X140551231Y-93967952D02*
X140789326Y-93872714D01*
X140789326Y-93872714D02*
X140836945Y-93825095D01*
X140836945Y-93825095D02*
X140884564Y-93729857D01*
X142161175Y-84920331D02*
X141494508Y-84920331D01*
X141161175Y-84920331D02*
X141208794Y-84872712D01*
X141208794Y-84872712D02*
X141256413Y-84920331D01*
X141256413Y-84920331D02*
X141208794Y-84967950D01*
X141208794Y-84967950D02*
X141161175Y-84920331D01*
X141161175Y-84920331D02*
X141256413Y-84920331D01*
X141494508Y-85396521D02*
X142161175Y-85396521D01*
X141589746Y-85396521D02*
X141542127Y-85444140D01*
X141542127Y-85444140D02*
X141494508Y-85539378D01*
X141494508Y-85539378D02*
X141494508Y-85682235D01*
X141494508Y-85682235D02*
X141542127Y-85777473D01*
X141542127Y-85777473D02*
X141637365Y-85825092D01*
X141637365Y-85825092D02*
X142161175Y-85825092D01*
X141494508Y-86158426D02*
X141494508Y-86539378D01*
X141161175Y-86301283D02*
X142018317Y-86301283D01*
X142018317Y-86301283D02*
X142113556Y-86348902D01*
X142113556Y-86348902D02*
X142161175Y-86444140D01*
X142161175Y-86444140D02*
X142161175Y-86539378D01*
X142161175Y-87015569D02*
X142113556Y-86920331D01*
X142113556Y-86920331D02*
X142065936Y-86872712D01*
X142065936Y-86872712D02*
X141970698Y-86825093D01*
X141970698Y-86825093D02*
X141684984Y-86825093D01*
X141684984Y-86825093D02*
X141589746Y-86872712D01*
X141589746Y-86872712D02*
X141542127Y-86920331D01*
X141542127Y-86920331D02*
X141494508Y-87015569D01*
X141494508Y-87015569D02*
X141494508Y-87158426D01*
X141494508Y-87158426D02*
X141542127Y-87253664D01*
X141542127Y-87253664D02*
X141589746Y-87301283D01*
X141589746Y-87301283D02*
X141684984Y-87348902D01*
X141684984Y-87348902D02*
X141970698Y-87348902D01*
X141970698Y-87348902D02*
X142065936Y-87301283D01*
X142065936Y-87301283D02*
X142113556Y-87253664D01*
X142113556Y-87253664D02*
X142161175Y-87158426D01*
X142161175Y-87158426D02*
X142161175Y-87015569D01*
X142161175Y-88539379D02*
X141161175Y-88539379D01*
X141637365Y-88539379D02*
X141637365Y-89110807D01*
X142161175Y-89110807D02*
X141161175Y-89110807D01*
X141161175Y-89586998D02*
X141970698Y-89586998D01*
X141970698Y-89586998D02*
X142065936Y-89634617D01*
X142065936Y-89634617D02*
X142113556Y-89682236D01*
X142113556Y-89682236D02*
X142161175Y-89777474D01*
X142161175Y-89777474D02*
X142161175Y-89967950D01*
X142161175Y-89967950D02*
X142113556Y-90063188D01*
X142113556Y-90063188D02*
X142065936Y-90110807D01*
X142065936Y-90110807D02*
X141970698Y-90158426D01*
X141970698Y-90158426D02*
X141161175Y-90158426D01*
X141637365Y-90967950D02*
X141684984Y-91110807D01*
X141684984Y-91110807D02*
X141732603Y-91158426D01*
X141732603Y-91158426D02*
X141827841Y-91206045D01*
X141827841Y-91206045D02*
X141970698Y-91206045D01*
X141970698Y-91206045D02*
X142065936Y-91158426D01*
X142065936Y-91158426D02*
X142113556Y-91110807D01*
X142113556Y-91110807D02*
X142161175Y-91015569D01*
X142161175Y-91015569D02*
X142161175Y-90634617D01*
X142161175Y-90634617D02*
X141161175Y-90634617D01*
X141161175Y-90634617D02*
X141161175Y-90967950D01*
X141161175Y-90967950D02*
X141208794Y-91063188D01*
X141208794Y-91063188D02*
X141256413Y-91110807D01*
X141256413Y-91110807D02*
X141351651Y-91158426D01*
X141351651Y-91158426D02*
X141446889Y-91158426D01*
X141446889Y-91158426D02*
X141542127Y-91110807D01*
X141542127Y-91110807D02*
X141589746Y-91063188D01*
X141589746Y-91063188D02*
X141637365Y-90967950D01*
X141637365Y-90967950D02*
X141637365Y-90634617D01*
X141161175Y-91539379D02*
X141161175Y-92206045D01*
X141161175Y-92206045D02*
X142161175Y-91777474D01*
X141161175Y-93063188D02*
X141161175Y-92586998D01*
X141161175Y-92586998D02*
X141637365Y-92539379D01*
X141637365Y-92539379D02*
X141589746Y-92586998D01*
X141589746Y-92586998D02*
X141542127Y-92682236D01*
X141542127Y-92682236D02*
X141542127Y-92920331D01*
X141542127Y-92920331D02*
X141589746Y-93015569D01*
X141589746Y-93015569D02*
X141637365Y-93063188D01*
X141637365Y-93063188D02*
X141732603Y-93110807D01*
X141732603Y-93110807D02*
X141970698Y-93110807D01*
X141970698Y-93110807D02*
X142065936Y-93063188D01*
X142065936Y-93063188D02*
X142113556Y-93015569D01*
X142113556Y-93015569D02*
X142161175Y-92920331D01*
X142161175Y-92920331D02*
X142161175Y-92682236D01*
X142161175Y-92682236D02*
X142113556Y-92586998D01*
X142113556Y-92586998D02*
X142065936Y-92539379D01*
X143771119Y-85396521D02*
X143771119Y-84920331D01*
X143771119Y-84920331D02*
X142771119Y-84920331D01*
X143247309Y-85729855D02*
X143247309Y-86063188D01*
X143771119Y-86206045D02*
X143771119Y-85729855D01*
X143771119Y-85729855D02*
X142771119Y-85729855D01*
X142771119Y-85729855D02*
X142771119Y-86206045D01*
X143771119Y-86634617D02*
X142771119Y-86634617D01*
X142771119Y-86634617D02*
X142771119Y-86872712D01*
X142771119Y-86872712D02*
X142818738Y-87015569D01*
X142818738Y-87015569D02*
X142913976Y-87110807D01*
X142913976Y-87110807D02*
X143009214Y-87158426D01*
X143009214Y-87158426D02*
X143199690Y-87206045D01*
X143199690Y-87206045D02*
X143342547Y-87206045D01*
X143342547Y-87206045D02*
X143533023Y-87158426D01*
X143533023Y-87158426D02*
X143628261Y-87110807D01*
X143628261Y-87110807D02*
X143723500Y-87015569D01*
X143723500Y-87015569D02*
X143771119Y-86872712D01*
X143771119Y-86872712D02*
X143771119Y-86634617D01*
X143771119Y-88396522D02*
X142771119Y-88396522D01*
X142771119Y-88396522D02*
X143485404Y-88729855D01*
X143485404Y-88729855D02*
X142771119Y-89063188D01*
X142771119Y-89063188D02*
X143771119Y-89063188D01*
X143771119Y-89967950D02*
X143247309Y-89967950D01*
X143247309Y-89967950D02*
X143152071Y-89920331D01*
X143152071Y-89920331D02*
X143104452Y-89825093D01*
X143104452Y-89825093D02*
X143104452Y-89634617D01*
X143104452Y-89634617D02*
X143152071Y-89539379D01*
X143723500Y-89967950D02*
X143771119Y-89872712D01*
X143771119Y-89872712D02*
X143771119Y-89634617D01*
X143771119Y-89634617D02*
X143723500Y-89539379D01*
X143723500Y-89539379D02*
X143628261Y-89491760D01*
X143628261Y-89491760D02*
X143533023Y-89491760D01*
X143533023Y-89491760D02*
X143437785Y-89539379D01*
X143437785Y-89539379D02*
X143390166Y-89634617D01*
X143390166Y-89634617D02*
X143390166Y-89872712D01*
X143390166Y-89872712D02*
X143342547Y-89967950D01*
X143104452Y-90301284D02*
X143104452Y-90682236D01*
X142771119Y-90444141D02*
X143628261Y-90444141D01*
X143628261Y-90444141D02*
X143723500Y-90491760D01*
X143723500Y-90491760D02*
X143771119Y-90586998D01*
X143771119Y-90586998D02*
X143771119Y-90682236D01*
X143771119Y-91015570D02*
X143104452Y-91015570D01*
X143294928Y-91015570D02*
X143199690Y-91063189D01*
X143199690Y-91063189D02*
X143152071Y-91110808D01*
X143152071Y-91110808D02*
X143104452Y-91206046D01*
X143104452Y-91206046D02*
X143104452Y-91301284D01*
X143771119Y-91634618D02*
X143104452Y-91634618D01*
X142771119Y-91634618D02*
X142818738Y-91586999D01*
X142818738Y-91586999D02*
X142866357Y-91634618D01*
X142866357Y-91634618D02*
X142818738Y-91682237D01*
X142818738Y-91682237D02*
X142771119Y-91634618D01*
X142771119Y-91634618D02*
X142866357Y-91634618D01*
X143771119Y-92015570D02*
X143104452Y-92539379D01*
X143104452Y-92015570D02*
X143771119Y-92539379D01*
X151551231Y-65163188D02*
X151789326Y-65163188D01*
X151694088Y-64925093D02*
X151789326Y-65163188D01*
X151789326Y-65163188D02*
X151694088Y-65401283D01*
X151979802Y-65020331D02*
X151789326Y-65163188D01*
X151789326Y-65163188D02*
X151979802Y-65306045D01*
X151598850Y-67067950D02*
X151551231Y-66972712D01*
X151551231Y-66972712D02*
X151551231Y-66829855D01*
X151551231Y-66829855D02*
X151598850Y-66686998D01*
X151598850Y-66686998D02*
X151694088Y-66591760D01*
X151694088Y-66591760D02*
X151789326Y-66544141D01*
X151789326Y-66544141D02*
X151979802Y-66496522D01*
X151979802Y-66496522D02*
X152122659Y-66496522D01*
X152122659Y-66496522D02*
X152313135Y-66544141D01*
X152313135Y-66544141D02*
X152408373Y-66591760D01*
X152408373Y-66591760D02*
X152503612Y-66686998D01*
X152503612Y-66686998D02*
X152551231Y-66829855D01*
X152551231Y-66829855D02*
X152551231Y-66925093D01*
X152551231Y-66925093D02*
X152503612Y-67067950D01*
X152503612Y-67067950D02*
X152455992Y-67115569D01*
X152455992Y-67115569D02*
X152122659Y-67115569D01*
X152122659Y-67115569D02*
X152122659Y-66925093D01*
X152551231Y-67544141D02*
X151551231Y-67544141D01*
X151551231Y-67544141D02*
X151551231Y-67925093D01*
X151551231Y-67925093D02*
X151598850Y-68020331D01*
X151598850Y-68020331D02*
X151646469Y-68067950D01*
X151646469Y-68067950D02*
X151741707Y-68115569D01*
X151741707Y-68115569D02*
X151884564Y-68115569D01*
X151884564Y-68115569D02*
X151979802Y-68067950D01*
X151979802Y-68067950D02*
X152027421Y-68020331D01*
X152027421Y-68020331D02*
X152075040Y-67925093D01*
X152075040Y-67925093D02*
X152075040Y-67544141D01*
X152551231Y-68544141D02*
X151551231Y-68544141D01*
X151551231Y-69210807D02*
X151551231Y-69401283D01*
X151551231Y-69401283D02*
X151598850Y-69496521D01*
X151598850Y-69496521D02*
X151694088Y-69591759D01*
X151694088Y-69591759D02*
X151884564Y-69639378D01*
X151884564Y-69639378D02*
X152217897Y-69639378D01*
X152217897Y-69639378D02*
X152408373Y-69591759D01*
X152408373Y-69591759D02*
X152503612Y-69496521D01*
X152503612Y-69496521D02*
X152551231Y-69401283D01*
X152551231Y-69401283D02*
X152551231Y-69210807D01*
X152551231Y-69210807D02*
X152503612Y-69115569D01*
X152503612Y-69115569D02*
X152408373Y-69020331D01*
X152408373Y-69020331D02*
X152217897Y-68972712D01*
X152217897Y-68972712D02*
X151884564Y-68972712D01*
X151884564Y-68972712D02*
X151694088Y-69020331D01*
X151694088Y-69020331D02*
X151598850Y-69115569D01*
X151598850Y-69115569D02*
X151551231Y-69210807D01*
X152503612Y-70020331D02*
X152551231Y-70163188D01*
X152551231Y-70163188D02*
X152551231Y-70401283D01*
X152551231Y-70401283D02*
X152503612Y-70496521D01*
X152503612Y-70496521D02*
X152455992Y-70544140D01*
X152455992Y-70544140D02*
X152360754Y-70591759D01*
X152360754Y-70591759D02*
X152265516Y-70591759D01*
X152265516Y-70591759D02*
X152170278Y-70544140D01*
X152170278Y-70544140D02*
X152122659Y-70496521D01*
X152122659Y-70496521D02*
X152075040Y-70401283D01*
X152075040Y-70401283D02*
X152027421Y-70210807D01*
X152027421Y-70210807D02*
X151979802Y-70115569D01*
X151979802Y-70115569D02*
X151932183Y-70067950D01*
X151932183Y-70067950D02*
X151836945Y-70020331D01*
X151836945Y-70020331D02*
X151741707Y-70020331D01*
X151741707Y-70020331D02*
X151646469Y-70067950D01*
X151646469Y-70067950D02*
X151598850Y-70115569D01*
X151598850Y-70115569D02*
X151551231Y-70210807D01*
X151551231Y-70210807D02*
X151551231Y-70448902D01*
X151551231Y-70448902D02*
X151598850Y-70591759D01*
X153161175Y-64925093D02*
X153161175Y-65544140D01*
X153161175Y-65544140D02*
X153542127Y-65210807D01*
X153542127Y-65210807D02*
X153542127Y-65353664D01*
X153542127Y-65353664D02*
X153589746Y-65448902D01*
X153589746Y-65448902D02*
X153637365Y-65496521D01*
X153637365Y-65496521D02*
X153732603Y-65544140D01*
X153732603Y-65544140D02*
X153970698Y-65544140D01*
X153970698Y-65544140D02*
X154065936Y-65496521D01*
X154065936Y-65496521D02*
X154113556Y-65448902D01*
X154113556Y-65448902D02*
X154161175Y-65353664D01*
X154161175Y-65353664D02*
X154161175Y-65067950D01*
X154161175Y-65067950D02*
X154113556Y-64972712D01*
X154113556Y-64972712D02*
X154065936Y-64925093D01*
X153494508Y-66401283D02*
X154161175Y-66401283D01*
X153113556Y-66163188D02*
X153827841Y-65925093D01*
X153827841Y-65925093D02*
X153827841Y-66544140D01*
X154113556Y-66972712D02*
X154161175Y-66972712D01*
X154161175Y-66972712D02*
X154256413Y-66925093D01*
X154256413Y-66925093D02*
X154304032Y-66877474D01*
X153161175Y-67306045D02*
X153161175Y-67925092D01*
X153161175Y-67925092D02*
X153542127Y-67591759D01*
X153542127Y-67591759D02*
X153542127Y-67734616D01*
X153542127Y-67734616D02*
X153589746Y-67829854D01*
X153589746Y-67829854D02*
X153637365Y-67877473D01*
X153637365Y-67877473D02*
X153732603Y-67925092D01*
X153732603Y-67925092D02*
X153970698Y-67925092D01*
X153970698Y-67925092D02*
X154065936Y-67877473D01*
X154065936Y-67877473D02*
X154113556Y-67829854D01*
X154113556Y-67829854D02*
X154161175Y-67734616D01*
X154161175Y-67734616D02*
X154161175Y-67448902D01*
X154161175Y-67448902D02*
X154113556Y-67353664D01*
X154113556Y-67353664D02*
X154065936Y-67306045D01*
X153161175Y-68829854D02*
X153161175Y-68353664D01*
X153161175Y-68353664D02*
X153637365Y-68306045D01*
X153637365Y-68306045D02*
X153589746Y-68353664D01*
X153589746Y-68353664D02*
X153542127Y-68448902D01*
X153542127Y-68448902D02*
X153542127Y-68686997D01*
X153542127Y-68686997D02*
X153589746Y-68782235D01*
X153589746Y-68782235D02*
X153637365Y-68829854D01*
X153637365Y-68829854D02*
X153732603Y-68877473D01*
X153732603Y-68877473D02*
X153970698Y-68877473D01*
X153970698Y-68877473D02*
X154065936Y-68829854D01*
X154065936Y-68829854D02*
X154113556Y-68782235D01*
X154113556Y-68782235D02*
X154161175Y-68686997D01*
X154161175Y-68686997D02*
X154161175Y-68448902D01*
X154161175Y-68448902D02*
X154113556Y-68353664D01*
X154113556Y-68353664D02*
X154065936Y-68306045D01*
X154113556Y-69353664D02*
X154161175Y-69353664D01*
X154161175Y-69353664D02*
X154256413Y-69306045D01*
X154256413Y-69306045D02*
X154304032Y-69258426D01*
X153161175Y-69686997D02*
X153161175Y-70306044D01*
X153161175Y-70306044D02*
X153542127Y-69972711D01*
X153542127Y-69972711D02*
X153542127Y-70115568D01*
X153542127Y-70115568D02*
X153589746Y-70210806D01*
X153589746Y-70210806D02*
X153637365Y-70258425D01*
X153637365Y-70258425D02*
X153732603Y-70306044D01*
X153732603Y-70306044D02*
X153970698Y-70306044D01*
X153970698Y-70306044D02*
X154065936Y-70258425D01*
X154065936Y-70258425D02*
X154113556Y-70210806D01*
X154113556Y-70210806D02*
X154161175Y-70115568D01*
X154161175Y-70115568D02*
X154161175Y-69829854D01*
X154161175Y-69829854D02*
X154113556Y-69734616D01*
X154113556Y-69734616D02*
X154065936Y-69686997D01*
X153161175Y-71163187D02*
X153161175Y-70972711D01*
X153161175Y-70972711D02*
X153208794Y-70877473D01*
X153208794Y-70877473D02*
X153256413Y-70829854D01*
X153256413Y-70829854D02*
X153399270Y-70734616D01*
X153399270Y-70734616D02*
X153589746Y-70686997D01*
X153589746Y-70686997D02*
X153970698Y-70686997D01*
X153970698Y-70686997D02*
X154065936Y-70734616D01*
X154065936Y-70734616D02*
X154113556Y-70782235D01*
X154113556Y-70782235D02*
X154161175Y-70877473D01*
X154161175Y-70877473D02*
X154161175Y-71067949D01*
X154161175Y-71067949D02*
X154113556Y-71163187D01*
X154113556Y-71163187D02*
X154065936Y-71210806D01*
X154065936Y-71210806D02*
X153970698Y-71258425D01*
X153970698Y-71258425D02*
X153732603Y-71258425D01*
X153732603Y-71258425D02*
X153637365Y-71210806D01*
X153637365Y-71210806D02*
X153589746Y-71163187D01*
X153589746Y-71163187D02*
X153542127Y-71067949D01*
X153542127Y-71067949D02*
X153542127Y-70877473D01*
X153542127Y-70877473D02*
X153589746Y-70782235D01*
X153589746Y-70782235D02*
X153637365Y-70734616D01*
X153637365Y-70734616D02*
X153732603Y-70686997D01*
X154113556Y-71734616D02*
X154161175Y-71734616D01*
X154161175Y-71734616D02*
X154256413Y-71686997D01*
X154256413Y-71686997D02*
X154304032Y-71639378D01*
X153161175Y-72067949D02*
X153161175Y-72686996D01*
X153161175Y-72686996D02*
X153542127Y-72353663D01*
X153542127Y-72353663D02*
X153542127Y-72496520D01*
X153542127Y-72496520D02*
X153589746Y-72591758D01*
X153589746Y-72591758D02*
X153637365Y-72639377D01*
X153637365Y-72639377D02*
X153732603Y-72686996D01*
X153732603Y-72686996D02*
X153970698Y-72686996D01*
X153970698Y-72686996D02*
X154065936Y-72639377D01*
X154065936Y-72639377D02*
X154113556Y-72591758D01*
X154113556Y-72591758D02*
X154161175Y-72496520D01*
X154161175Y-72496520D02*
X154161175Y-72210806D01*
X154161175Y-72210806D02*
X154113556Y-72115568D01*
X154113556Y-72115568D02*
X154065936Y-72067949D01*
X154161175Y-73163187D02*
X154161175Y-73353663D01*
X154161175Y-73353663D02*
X154113556Y-73448901D01*
X154113556Y-73448901D02*
X154065936Y-73496520D01*
X154065936Y-73496520D02*
X153923079Y-73591758D01*
X153923079Y-73591758D02*
X153732603Y-73639377D01*
X153732603Y-73639377D02*
X153351651Y-73639377D01*
X153351651Y-73639377D02*
X153256413Y-73591758D01*
X153256413Y-73591758D02*
X153208794Y-73544139D01*
X153208794Y-73544139D02*
X153161175Y-73448901D01*
X153161175Y-73448901D02*
X153161175Y-73258425D01*
X153161175Y-73258425D02*
X153208794Y-73163187D01*
X153208794Y-73163187D02*
X153256413Y-73115568D01*
X153256413Y-73115568D02*
X153351651Y-73067949D01*
X153351651Y-73067949D02*
X153589746Y-73067949D01*
X153589746Y-73067949D02*
X153684984Y-73115568D01*
X153684984Y-73115568D02*
X153732603Y-73163187D01*
X153732603Y-73163187D02*
X153780222Y-73258425D01*
X153780222Y-73258425D02*
X153780222Y-73448901D01*
X153780222Y-73448901D02*
X153732603Y-73544139D01*
X153732603Y-73544139D02*
X153684984Y-73591758D01*
X153684984Y-73591758D02*
X153589746Y-73639377D01*
X155771119Y-65020331D02*
X154771119Y-65020331D01*
X155771119Y-65496521D02*
X154771119Y-65496521D01*
X154771119Y-65496521D02*
X155771119Y-66067949D01*
X155771119Y-66067949D02*
X154771119Y-66067949D01*
X155771119Y-66544140D02*
X154771119Y-66544140D01*
X154771119Y-66544140D02*
X154771119Y-66925092D01*
X154771119Y-66925092D02*
X154818738Y-67020330D01*
X154818738Y-67020330D02*
X154866357Y-67067949D01*
X154866357Y-67067949D02*
X154961595Y-67115568D01*
X154961595Y-67115568D02*
X155104452Y-67115568D01*
X155104452Y-67115568D02*
X155199690Y-67067949D01*
X155199690Y-67067949D02*
X155247309Y-67020330D01*
X155247309Y-67020330D02*
X155294928Y-66925092D01*
X155294928Y-66925092D02*
X155294928Y-66544140D01*
X154771119Y-67544140D02*
X155580642Y-67544140D01*
X155580642Y-67544140D02*
X155675880Y-67591759D01*
X155675880Y-67591759D02*
X155723500Y-67639378D01*
X155723500Y-67639378D02*
X155771119Y-67734616D01*
X155771119Y-67734616D02*
X155771119Y-67925092D01*
X155771119Y-67925092D02*
X155723500Y-68020330D01*
X155723500Y-68020330D02*
X155675880Y-68067949D01*
X155675880Y-68067949D02*
X155580642Y-68115568D01*
X155580642Y-68115568D02*
X154771119Y-68115568D01*
X154771119Y-68448902D02*
X154771119Y-69020330D01*
X155771119Y-68734616D02*
X154771119Y-68734616D01*
X154771119Y-70306045D02*
X154771119Y-70496521D01*
X154771119Y-70496521D02*
X154818738Y-70591759D01*
X154818738Y-70591759D02*
X154913976Y-70686997D01*
X154913976Y-70686997D02*
X155104452Y-70734616D01*
X155104452Y-70734616D02*
X155437785Y-70734616D01*
X155437785Y-70734616D02*
X155628261Y-70686997D01*
X155628261Y-70686997D02*
X155723500Y-70591759D01*
X155723500Y-70591759D02*
X155771119Y-70496521D01*
X155771119Y-70496521D02*
X155771119Y-70306045D01*
X155771119Y-70306045D02*
X155723500Y-70210807D01*
X155723500Y-70210807D02*
X155628261Y-70115569D01*
X155628261Y-70115569D02*
X155437785Y-70067950D01*
X155437785Y-70067950D02*
X155104452Y-70067950D01*
X155104452Y-70067950D02*
X154913976Y-70115569D01*
X154913976Y-70115569D02*
X154818738Y-70210807D01*
X154818738Y-70210807D02*
X154771119Y-70306045D01*
X155771119Y-71163188D02*
X154771119Y-71163188D01*
X154771119Y-71163188D02*
X155771119Y-71734616D01*
X155771119Y-71734616D02*
X154771119Y-71734616D01*
X155771119Y-72686997D02*
X155771119Y-72210807D01*
X155771119Y-72210807D02*
X154771119Y-72210807D01*
X155294928Y-73210807D02*
X155771119Y-73210807D01*
X154771119Y-72877474D02*
X155294928Y-73210807D01*
X155294928Y-73210807D02*
X154771119Y-73544140D01*
D11*
X129354819Y-80166666D02*
X130069104Y-80166666D01*
X130069104Y-80166666D02*
X130211961Y-80119047D01*
X130211961Y-80119047D02*
X130307200Y-80023809D01*
X130307200Y-80023809D02*
X130354819Y-79880952D01*
X130354819Y-79880952D02*
X130354819Y-79785714D01*
X129354819Y-80547619D02*
X129354819Y-81166666D01*
X129354819Y-81166666D02*
X129735771Y-80833333D01*
X129735771Y-80833333D02*
X129735771Y-80976190D01*
X129735771Y-80976190D02*
X129783390Y-81071428D01*
X129783390Y-81071428D02*
X129831009Y-81119047D01*
X129831009Y-81119047D02*
X129926247Y-81166666D01*
X129926247Y-81166666D02*
X130164342Y-81166666D01*
X130164342Y-81166666D02*
X130259580Y-81119047D01*
X130259580Y-81119047D02*
X130307200Y-81071428D01*
X130307200Y-81071428D02*
X130354819Y-80976190D01*
X130354819Y-80976190D02*
X130354819Y-80690476D01*
X130354819Y-80690476D02*
X130307200Y-80595238D01*
X130307200Y-80595238D02*
X130259580Y-80547619D01*
X122114819Y-66249166D02*
X122829104Y-66249166D01*
X122829104Y-66249166D02*
X122971961Y-66201547D01*
X122971961Y-66201547D02*
X123067200Y-66106309D01*
X123067200Y-66106309D02*
X123114819Y-65963452D01*
X123114819Y-65963452D02*
X123114819Y-65868214D01*
X123114819Y-66772976D02*
X123114819Y-66963452D01*
X123114819Y-66963452D02*
X123067200Y-67058690D01*
X123067200Y-67058690D02*
X123019580Y-67106309D01*
X123019580Y-67106309D02*
X122876723Y-67201547D01*
X122876723Y-67201547D02*
X122686247Y-67249166D01*
X122686247Y-67249166D02*
X122305295Y-67249166D01*
X122305295Y-67249166D02*
X122210057Y-67201547D01*
X122210057Y-67201547D02*
X122162438Y-67153928D01*
X122162438Y-67153928D02*
X122114819Y-67058690D01*
X122114819Y-67058690D02*
X122114819Y-66868214D01*
X122114819Y-66868214D02*
X122162438Y-66772976D01*
X122162438Y-66772976D02*
X122210057Y-66725357D01*
X122210057Y-66725357D02*
X122305295Y-66677738D01*
X122305295Y-66677738D02*
X122543390Y-66677738D01*
X122543390Y-66677738D02*
X122638628Y-66725357D01*
X122638628Y-66725357D02*
X122686247Y-66772976D01*
X122686247Y-66772976D02*
X122733866Y-66868214D01*
X122733866Y-66868214D02*
X122733866Y-67058690D01*
X122733866Y-67058690D02*
X122686247Y-67153928D01*
X122686247Y-67153928D02*
X122638628Y-67201547D01*
X122638628Y-67201547D02*
X122543390Y-67249166D01*
D12*
%TO.C,J3*%
X131805000Y-79277500D02*
X131805000Y-100107500D01*
X131805000Y-100107500D02*
X136755000Y-100107500D01*
X136755000Y-79277500D02*
X131805000Y-79277500D01*
X136755000Y-79277500D02*
X136755000Y-100107500D01*
X133110000Y-78627500D02*
G75*
G02*
X132910000Y-78627500I-100000J0D01*
G01*
X132910000Y-78627500D02*
G75*
G02*
X133110000Y-78627500I100000J0D01*
G01*
D13*
%TO.C,J9*%
X124100000Y-66582500D02*
X124100000Y-67912500D01*
X124100000Y-67912500D02*
X125430000Y-67912500D01*
X126700000Y-65252500D02*
X126700000Y-67912500D01*
X126700000Y-65252500D02*
X149620000Y-65252500D01*
X126700000Y-67912500D02*
X149620000Y-67912500D01*
X149620000Y-65252500D02*
X149620000Y-67912500D01*
%TD*%
M02*
