%TF.GenerationSoftware,KiCad,Pcbnew,9.0.0*%
%TF.CreationDate,2025-04-14T04:50:01-04:00*%
%TF.ProjectId,W4MLB_Band_Display,57344d4c-425f-4426-916e-645f44697370,1.0*%
%TF.SameCoordinates,Original*%
%TF.FileFunction,Soldermask,Top*%
%TF.FilePolarity,Negative*%
%FSLAX46Y46*%
G04 Gerber Fmt 4.6, Leading zero omitted, Abs format (unit mm)*
G04 Created by KiCad (PCBNEW 9.0.0) date 2025-04-14 04:50:01*
%MOMM*%
%LPD*%
G01*
G04 APERTURE LIST*
G04 Aperture macros list*
%AMRoundRect*
0 Rectangle with rounded corners*
0 $1 Rounding radius*
0 $2 $3 $4 $5 $6 $7 $8 $9 X,Y pos of 4 corners*
0 Add a 4 corners polygon primitive as box body*
4,1,4,$2,$3,$4,$5,$6,$7,$8,$9,$2,$3,0*
0 Add four circle primitives for the rounded corners*
1,1,$1+$1,$2,$3*
1,1,$1+$1,$4,$5*
1,1,$1+$1,$6,$7*
1,1,$1+$1,$8,$9*
0 Add four rect primitives between the rounded corners*
20,1,$1+$1,$2,$3,$4,$5,0*
20,1,$1+$1,$4,$5,$6,$7,0*
20,1,$1+$1,$6,$7,$8,$9,0*
20,1,$1+$1,$8,$9,$2,$3,0*%
G04 Aperture macros list end*
%ADD10C,0.860984*%
%ADD11O,2.004000X3.804000*%
%ADD12O,4.204000X2.204000*%
%ADD13RoundRect,0.250000X0.450000X-0.325000X0.450000X0.325000X-0.450000X0.325000X-0.450000X-0.325000X0*%
%ADD14RoundRect,0.250000X-0.450000X0.325000X-0.450000X-0.325000X0.450000X-0.325000X0.450000X0.325000X0*%
%ADD15RoundRect,0.250000X0.350000X0.450000X-0.350000X0.450000X-0.350000X-0.450000X0.350000X-0.450000X0*%
%ADD16C,2.604000*%
%ADD17C,2.054000*%
%ADD18RoundRect,0.102000X0.925000X-0.925000X0.925000X0.925000X-0.925000X0.925000X-0.925000X-0.925000X0*%
%ADD19C,1.594000*%
%ADD20RoundRect,0.102000X-0.695000X0.695000X-0.695000X-0.695000X0.695000X-0.695000X0.695000X0.695000X0*%
%ADD21RoundRect,0.102000X0.685000X-0.685000X0.685000X0.685000X-0.685000X0.685000X-0.685000X-0.685000X0*%
%ADD22C,1.574000*%
%ADD23R,1.700000X1.700000*%
%ADD24O,1.700000X1.700000*%
%ADD25R,2.400000X2.400000*%
%ADD26O,2.400000X2.400000*%
%ADD27O,4.004000X2.104000*%
%ADD28O,2.104000X4.004000*%
%ADD29RoundRect,0.102000X-1.000000X-1.000000X1.000000X-1.000000X1.000000X1.000000X-1.000000X1.000000X0*%
%ADD30C,2.204000*%
%ADD31O,3.800000X5.500000*%
%ADD32O,3.800000X5.300000*%
G04 APERTURE END LIST*
%TO.C,J4*%
D10*
X161390492Y-82210000D02*
G75*
G02*
X160529508Y-82210000I-430492J0D01*
G01*
X160529508Y-82210000D02*
G75*
G02*
X161390492Y-82210000I430492J0D01*
G01*
X161390492Y-84750000D02*
G75*
G02*
X160529508Y-84750000I-430492J0D01*
G01*
X160529508Y-84750000D02*
G75*
G02*
X161390492Y-84750000I430492J0D01*
G01*
X161390492Y-87290000D02*
G75*
G02*
X160529508Y-87290000I-430492J0D01*
G01*
X160529508Y-87290000D02*
G75*
G02*
X161390492Y-87290000I430492J0D01*
G01*
X161390492Y-89830000D02*
G75*
G02*
X160529508Y-89830000I-430492J0D01*
G01*
X160529508Y-89830000D02*
G75*
G02*
X161390492Y-89830000I430492J0D01*
G01*
X161390492Y-92370000D02*
G75*
G02*
X160529508Y-92370000I-430492J0D01*
G01*
X160529508Y-92370000D02*
G75*
G02*
X161390492Y-92370000I430492J0D01*
G01*
X161390492Y-94910000D02*
G75*
G02*
X160529508Y-94910000I-430492J0D01*
G01*
X160529508Y-94910000D02*
G75*
G02*
X161390492Y-94910000I430492J0D01*
G01*
X161390492Y-97450000D02*
G75*
G02*
X160529508Y-97450000I-430492J0D01*
G01*
X160529508Y-97450000D02*
G75*
G02*
X161390492Y-97450000I430492J0D01*
G01*
X161390492Y-99990000D02*
G75*
G02*
X160529508Y-99990000I-430492J0D01*
G01*
X160529508Y-99990000D02*
G75*
G02*
X161390492Y-99990000I430492J0D01*
G01*
X163930492Y-82210000D02*
G75*
G02*
X163069508Y-82210000I-430492J0D01*
G01*
X163069508Y-82210000D02*
G75*
G02*
X163930492Y-82210000I430492J0D01*
G01*
X163930492Y-84750000D02*
G75*
G02*
X163069508Y-84750000I-430492J0D01*
G01*
X163069508Y-84750000D02*
G75*
G02*
X163930492Y-84750000I430492J0D01*
G01*
X163930492Y-87290000D02*
G75*
G02*
X163069508Y-87290000I-430492J0D01*
G01*
X163069508Y-87290000D02*
G75*
G02*
X163930492Y-87290000I430492J0D01*
G01*
X163930492Y-89830000D02*
G75*
G02*
X163069508Y-89830000I-430492J0D01*
G01*
X163069508Y-89830000D02*
G75*
G02*
X163930492Y-89830000I430492J0D01*
G01*
X163930492Y-92370000D02*
G75*
G02*
X163069508Y-92370000I-430492J0D01*
G01*
X163069508Y-92370000D02*
G75*
G02*
X163930492Y-92370000I430492J0D01*
G01*
X163930492Y-94910000D02*
G75*
G02*
X163069508Y-94910000I-430492J0D01*
G01*
X163069508Y-94910000D02*
G75*
G02*
X163930492Y-94910000I430492J0D01*
G01*
X163930492Y-97450000D02*
G75*
G02*
X163069508Y-97450000I-430492J0D01*
G01*
X163069508Y-97450000D02*
G75*
G02*
X163930492Y-97450000I430492J0D01*
G01*
X163930492Y-99990000D02*
G75*
G02*
X163069508Y-99990000I-430492J0D01*
G01*
X163069508Y-99990000D02*
G75*
G02*
X163930492Y-99990000I430492J0D01*
G01*
%TD*%
D11*
%TO.C,J8*%
X145017500Y-121300000D03*
D12*
X141267500Y-125000000D03*
D11*
X137517500Y-121300000D03*
%TD*%
D13*
%TO.C,D3*%
X183750000Y-77550000D03*
X183750000Y-75500000D03*
%TD*%
D14*
%TO.C,D1*%
X142750000Y-95750000D03*
X142750000Y-97800000D03*
%TD*%
D15*
%TO.C,R1*%
X180500000Y-75500000D03*
X178500000Y-75500000D03*
%TD*%
D16*
%TO.C,F1*%
X180810000Y-108410000D03*
X180810000Y-98490000D03*
X184210000Y-108410000D03*
X184210000Y-98490000D03*
%TD*%
D17*
%TO.C,J6*%
X181000000Y-86000000D03*
D18*
X181000000Y-91000000D03*
%TD*%
D19*
%TO.C,J2*%
X147230000Y-79480000D03*
X147230000Y-104880000D03*
D20*
X147230000Y-71860000D03*
D19*
X147230000Y-74400000D03*
X147230000Y-76940000D03*
X147230000Y-82020000D03*
X147230000Y-84560000D03*
X147230000Y-87100000D03*
X147230000Y-89640000D03*
X147230000Y-92180000D03*
X147230000Y-94720000D03*
X147230000Y-97260000D03*
X147230000Y-99800000D03*
X147230000Y-102340000D03*
X147230000Y-107420000D03*
%TD*%
D21*
%TO.C,J3*%
X133010000Y-80802500D03*
D22*
X135550000Y-80802500D03*
X133010000Y-83342500D03*
X133010000Y-85882500D03*
X135550000Y-85882500D03*
X133010000Y-88422500D03*
X135550000Y-88422500D03*
X133010000Y-90962500D03*
X135550000Y-90962500D03*
X133010000Y-93502500D03*
X135550000Y-93502500D03*
X133010000Y-96042500D03*
X135550000Y-96042500D03*
X133010000Y-98582500D03*
X135550000Y-83342500D03*
X135550000Y-98582500D03*
%TD*%
D23*
%TO.C,J9*%
X125430000Y-66582500D03*
D24*
X127970000Y-66582500D03*
X130510000Y-66582500D03*
X133050000Y-66582500D03*
X135590000Y-66582500D03*
X138130000Y-66582500D03*
X140670000Y-66582500D03*
X143210000Y-66582500D03*
X145750000Y-66582500D03*
X148290000Y-66582500D03*
%TD*%
D19*
%TO.C,J1*%
X121830000Y-104880000D03*
D20*
X121830000Y-71860000D03*
D19*
X121830000Y-74400000D03*
X121830000Y-76940000D03*
X121830000Y-79480000D03*
X121830000Y-82020000D03*
X121830000Y-84560000D03*
X121830000Y-87100000D03*
X121830000Y-89640000D03*
X121830000Y-92180000D03*
X121830000Y-94720000D03*
X121830000Y-97260000D03*
X121830000Y-99800000D03*
X121830000Y-102340000D03*
X121830000Y-107420000D03*
%TD*%
D25*
%TO.C,C2*%
X174750000Y-122750000D03*
D26*
X149750000Y-122750000D03*
%TD*%
D11*
%TO.C,J7*%
X129767500Y-121300000D03*
D12*
X126017500Y-125000000D03*
D11*
X122267500Y-121300000D03*
%TD*%
D27*
%TO.C,J5*%
X182950000Y-119167500D03*
D28*
X187600000Y-115917500D03*
D27*
X182950000Y-113237500D03*
%TD*%
D14*
%TO.C,D2*%
X150750000Y-98950000D03*
X150750000Y-101000000D03*
%TD*%
D29*
%TO.C,U1*%
X207350000Y-79190000D03*
D30*
X207350000Y-81730000D03*
X207350000Y-84270000D03*
X207350000Y-86810000D03*
X207350000Y-89350000D03*
X207350000Y-91890000D03*
X207350000Y-94430000D03*
X207350000Y-96970000D03*
X207350000Y-99510000D03*
X207350000Y-102050000D03*
X207350000Y-104590000D03*
X207350000Y-107130000D03*
X207350000Y-109670000D03*
X207350000Y-112210000D03*
X207350000Y-114750000D03*
X232750000Y-114750000D03*
X232750000Y-112210000D03*
X232750000Y-109670000D03*
X232750000Y-107130000D03*
X232750000Y-104590000D03*
X232750000Y-102050000D03*
X232750000Y-99510000D03*
X232750000Y-96970000D03*
X232750000Y-94430000D03*
X232750000Y-91890000D03*
X232750000Y-89350000D03*
X232750000Y-86810000D03*
X232750000Y-84270000D03*
X232750000Y-81730000D03*
X232750000Y-79190000D03*
%TD*%
D31*
%TO.C,F2*%
X200000000Y-108750000D03*
D32*
X200000000Y-100750000D03*
%TD*%
M02*
