%TF.GenerationSoftware,KiCad,Pcbnew,9.0.0*%
%TF.CreationDate,2025-04-23T05:04:15-04:00*%
%TF.ProjectId,W4MLB_Band_Display_V2,57344d4c-425f-4426-916e-645f44697370,1.0*%
%TF.SameCoordinates,Original*%
%TF.FileFunction,Copper,L1,Top*%
%TF.FilePolarity,Positive*%
%FSLAX46Y46*%
G04 Gerber Fmt 4.6, Leading zero omitted, Abs format (unit mm)*
G04 Created by KiCad (PCBNEW 9.0.0) date 2025-04-23 05:04:15*
%MOMM*%
%LPD*%
G01*
G04 APERTURE LIST*
G04 Aperture macros list*
%AMRoundRect*
0 Rectangle with rounded corners*
0 $1 Rounding radius*
0 $2 $3 $4 $5 $6 $7 $8 $9 X,Y pos of 4 corners*
0 Add a 4 corners polygon primitive as box body*
4,1,4,$2,$3,$4,$5,$6,$7,$8,$9,$2,$3,0*
0 Add four circle primitives for the rounded corners*
1,1,$1+$1,$2,$3*
1,1,$1+$1,$4,$5*
1,1,$1+$1,$6,$7*
1,1,$1+$1,$8,$9*
0 Add four rect primitives between the rounded corners*
20,1,$1+$1,$2,$3,$4,$5,0*
20,1,$1+$1,$4,$5,$6,$7,0*
20,1,$1+$1,$6,$7,$8,$9,0*
20,1,$1+$1,$8,$9,$2,$3,0*%
G04 Aperture macros list end*
%TA.AperFunction,SMDPad,CuDef*%
%ADD10RoundRect,0.250000X-0.350000X-0.450000X0.350000X-0.450000X0.350000X0.450000X-0.350000X0.450000X0*%
%TD*%
%TA.AperFunction,SMDPad,CuDef*%
%ADD11RoundRect,0.250000X0.325000X0.450000X-0.325000X0.450000X-0.325000X-0.450000X0.325000X-0.450000X0*%
%TD*%
%TA.AperFunction,ComponentPad*%
%ADD12C,1.620010*%
%TD*%
%TA.AperFunction,ComponentPad*%
%ADD13O,1.800000X3.600000*%
%TD*%
%TA.AperFunction,ComponentPad*%
%ADD14O,4.000000X2.000000*%
%TD*%
%TA.AperFunction,ComponentPad*%
%ADD15C,2.019300*%
%TD*%
%TA.AperFunction,ComponentPad*%
%ADD16R,2.000000X2.000000*%
%TD*%
%TA.AperFunction,ComponentPad*%
%ADD17C,2.000000*%
%TD*%
%TA.AperFunction,SMDPad,CuDef*%
%ADD18RoundRect,0.250000X-0.337500X-0.475000X0.337500X-0.475000X0.337500X0.475000X-0.337500X0.475000X0*%
%TD*%
%TA.AperFunction,ComponentPad*%
%ADD19R,1.390000X1.390000*%
%TD*%
%TA.AperFunction,ComponentPad*%
%ADD20C,1.390000*%
%TD*%
%TA.AperFunction,SMDPad,CuDef*%
%ADD21RoundRect,0.150000X-0.587500X-0.150000X0.587500X-0.150000X0.587500X0.150000X-0.587500X0.150000X0*%
%TD*%
%TA.AperFunction,ComponentPad*%
%ADD22O,3.800000X1.900000*%
%TD*%
%TA.AperFunction,ComponentPad*%
%ADD23O,1.900000X3.800000*%
%TD*%
%TA.AperFunction,ComponentPad*%
%ADD24R,1.700000X1.700000*%
%TD*%
%TA.AperFunction,ComponentPad*%
%ADD25O,1.700000X1.700000*%
%TD*%
%TA.AperFunction,SMDPad,CuDef*%
%ADD26R,3.150000X1.780000*%
%TD*%
%TA.AperFunction,ComponentPad*%
%ADD27R,1.370000X1.370000*%
%TD*%
%TA.AperFunction,ComponentPad*%
%ADD28C,1.370000*%
%TD*%
%TA.AperFunction,ViaPad*%
%ADD29C,0.700000*%
%TD*%
%TA.AperFunction,ViaPad*%
%ADD30C,0.600000*%
%TD*%
%TA.AperFunction,Conductor*%
%ADD31C,0.400000*%
%TD*%
%TA.AperFunction,Conductor*%
%ADD32C,0.254000*%
%TD*%
%TA.AperFunction,Conductor*%
%ADD33C,0.200000*%
%TD*%
%TA.AperFunction,Conductor*%
%ADD34C,0.600000*%
%TD*%
%TA.AperFunction,Conductor*%
%ADD35C,0.900000*%
%TD*%
G04 APERTURE END LIST*
D10*
%TO.P,R1,2*%
%TO.N,+5V*%
X207750000Y-77000000D03*
%TO.P,R1,1*%
%TO.N,Net-(D3-A)*%
X205750000Y-77000000D03*
%TD*%
D11*
%TO.P,D3,2,A*%
%TO.N,Net-(D3-A)*%
X205700000Y-74500000D03*
%TO.P,D3,1,K*%
%TO.N,GND*%
X207750000Y-74500000D03*
%TD*%
D12*
%TO.P,J4,16,16*%
%TO.N,GND*%
X178250000Y-97460000D03*
%TO.P,J4,15,15*%
%TO.N,GPIO13*%
X178250000Y-100000000D03*
%TO.P,J4,14,14*%
%TO.N,GPIO15*%
X175710000Y-97460000D03*
%TO.P,J4,13,13*%
%TO.N,GPIO12*%
X175710000Y-100000000D03*
%TO.P,J4,12,12*%
%TO.N,GPIO4*%
X173170000Y-97460000D03*
%TO.P,J4,11,11*%
%TO.N,GPIO14*%
X173170000Y-100000000D03*
%TO.P,J4,10,10*%
%TO.N,GPIO16*%
X170630000Y-97460000D03*
%TO.P,J4,9,9*%
%TO.N,GPIO27*%
X170630000Y-100000000D03*
%TO.P,J4,8,8*%
%TO.N,GPIO17*%
X168090000Y-97460000D03*
%TO.P,J4,7,7*%
%TO.N,GPIO26*%
X168090000Y-100000000D03*
%TO.P,J4,6,6*%
%TO.N,GPIO5*%
X165550000Y-97460000D03*
%TO.P,J4,5,5*%
%TO.N,GPIO25*%
X165550000Y-100000000D03*
%TO.P,J4,4,4*%
%TO.N,GND*%
X163010000Y-97460000D03*
%TO.P,J4,3,3*%
%TO.N,GPIO33*%
X163010000Y-100000000D03*
%TO.P,J4,2,2*%
%TO.N,GPIO18*%
X160470000Y-97460000D03*
%TO.P,J4,1,1*%
%TO.N,GPIO32*%
X160470000Y-100000000D03*
%TD*%
D13*
%TO.P,J6,3*%
%TO.N,GND*%
X155017500Y-121300000D03*
%TO.P,J6,2*%
%TO.N,GPIO35*%
X147517500Y-121300000D03*
D14*
%TO.P,J6,1*%
%TO.N,GND*%
X151267500Y-125000000D03*
%TD*%
D13*
%TO.P,J5,3*%
%TO.N,GND*%
X139767500Y-121300000D03*
%TO.P,J5,2*%
%TO.N,GPIO34*%
X132267500Y-121300000D03*
D14*
%TO.P,J5,1*%
%TO.N,GND*%
X136017500Y-125000000D03*
%TD*%
D15*
%TO.P,J7,01_1,01*%
%TO.N,+5V*%
X210260000Y-86990000D03*
%TO.P,J7,02_1,02*%
X210260000Y-90950000D03*
%TO.P,J7,03_1,03*%
%TO.N,GND*%
X210260000Y-94910000D03*
%TO.P,J7,04_1,04*%
X210260000Y-98870000D03*
%TO.P,J7,01_2,01__1*%
%TO.N,+5V*%
X207800000Y-86990000D03*
%TO.P,J7,02_2,02__1*%
X207800000Y-90950000D03*
%TO.P,J7,03_2,03__1*%
%TO.N,GND*%
X207800000Y-94910000D03*
%TO.P,J7,04_2,04__1*%
X207800000Y-98870000D03*
%TD*%
D10*
%TO.P,R2,1*%
%TO.N,GPIO2*%
X177862500Y-73100000D03*
%TO.P,R2,2*%
%TO.N,Net-(Q1-B)*%
X179862500Y-73100000D03*
%TD*%
D16*
%TO.P,BZ1,1,+*%
%TO.N,+5V*%
X197500000Y-74000000D03*
D17*
%TO.P,BZ1,2,-*%
%TO.N,Net-(BZ1--)*%
X189900000Y-74000000D03*
%TD*%
D18*
%TO.P,C1,1*%
%TO.N,+5V*%
X202425000Y-101250000D03*
%TO.P,C1,2*%
%TO.N,GND*%
X204500000Y-101250000D03*
%TD*%
D11*
%TO.P,D1,1,K*%
%TO.N,GPIO23*%
X136000000Y-71750000D03*
%TO.P,D1,2,A*%
%TO.N,GPIO34*%
X133950000Y-71750000D03*
%TD*%
D19*
%TO.P,J2,01,01*%
%TO.N,GPIO23*%
X147230000Y-71860000D03*
D20*
%TO.P,J2,02,02*%
%TO.N,GPIO22*%
X147230000Y-74400000D03*
%TO.P,J2,03,03*%
%TO.N,GPIO1*%
X147230000Y-76940000D03*
%TO.P,J2,04,04*%
%TO.N,GPIO3*%
X147230000Y-79480000D03*
%TO.P,J2,05,05*%
%TO.N,GPIO21*%
X147230000Y-82020000D03*
%TO.P,J2,06,06*%
%TO.N,GPIO19*%
X147230000Y-84560000D03*
%TO.P,J2,07,07*%
%TO.N,GPIO18*%
X147230000Y-87100000D03*
%TO.P,J2,08,08*%
%TO.N,GPIO5*%
X147230000Y-89640000D03*
%TO.P,J2,09,09*%
%TO.N,GPIO17*%
X147230000Y-92180000D03*
%TO.P,J2,10,10*%
%TO.N,GPIO16*%
X147230000Y-94720000D03*
%TO.P,J2,11,11*%
%TO.N,GPIO4*%
X147230000Y-97260000D03*
%TO.P,J2,12,12*%
%TO.N,GPIO2*%
X147230000Y-99800000D03*
%TO.P,J2,13,13*%
%TO.N,GPIO15*%
X147230000Y-102340000D03*
%TO.P,J2,14,14*%
%TO.N,GND*%
X147230000Y-104880000D03*
%TO.P,J2,15,15*%
%TO.N,/+3.3VDC*%
X147230000Y-107420000D03*
%TD*%
D21*
%TO.P,Q1,1,B*%
%TO.N,Net-(Q1-B)*%
X183625000Y-73100000D03*
%TO.P,Q1,2,E*%
%TO.N,GND*%
X183625000Y-75000000D03*
%TO.P,Q1,3,C*%
%TO.N,Net-(BZ1--)*%
X185500000Y-74050000D03*
%TD*%
D22*
%TO.P,J8,1*%
%TO.N,/PWR IN*%
X200200000Y-113737500D03*
%TO.P,J8,2*%
%TO.N,GND*%
X200200000Y-119667500D03*
D23*
%TO.P,J8,3*%
X204850000Y-116417500D03*
%TD*%
D24*
%TO.P,J9,1,Pin_1*%
%TO.N,GPIO36*%
X157930000Y-66500000D03*
D25*
%TO.P,J9,2,Pin_2*%
%TO.N,GPIO39*%
X160470000Y-66500000D03*
%TO.P,J9,3,Pin_3*%
%TO.N,GPIO21*%
X163010000Y-66500000D03*
%TO.P,J9,4,Pin_4*%
%TO.N,GPIO22*%
X165550000Y-66500000D03*
%TO.P,J9,5,Pin_5*%
%TO.N,GPIO1*%
X168090000Y-66500000D03*
%TO.P,J9,6,Pin_6*%
%TO.N,GPIO3*%
X170630000Y-66500000D03*
%TO.P,J9,7,Pin_7*%
%TO.N,GND*%
X173170000Y-66500000D03*
%TO.P,J9,8,Pin_8*%
%TO.N,/+3.3VDC*%
X175710000Y-66500000D03*
%TO.P,J9,9,Pin_9*%
%TO.N,+5V*%
X178250000Y-66500000D03*
%TD*%
D16*
%TO.P,U1,1,3V3*%
%TO.N,unconnected-(U1-3V3-Pad1)*%
X16350000Y-153190000D03*
D17*
%TO.P,U1,2,GND*%
%TO.N,unconnected-(U1-GND-Pad2)*%
X16350000Y-155730000D03*
%TO.P,U1,3,D15*%
%TO.N,unconnected-(U1-D15-Pad3)*%
X16350000Y-158270000D03*
%TO.P,U1,4,D2*%
%TO.N,unconnected-(U1-D2-Pad4)*%
X16350000Y-160810000D03*
%TO.P,U1,5,D4*%
%TO.N,unconnected-(U1-D4-Pad5)*%
X16350000Y-163350000D03*
%TO.P,U1,6,RX2*%
%TO.N,unconnected-(U1-RX2-Pad6)*%
X16350000Y-165890000D03*
%TO.P,U1,7,TX2*%
%TO.N,unconnected-(U1-TX2-Pad7)*%
X16350000Y-168430000D03*
%TO.P,U1,8,D5*%
%TO.N,unconnected-(U1-D5-Pad8)*%
X16350000Y-170970000D03*
%TO.P,U1,9,D18*%
%TO.N,unconnected-(U1-D18-Pad9)*%
X16350000Y-173510000D03*
%TO.P,U1,10,D19*%
%TO.N,unconnected-(U1-D19-Pad10)*%
X16350000Y-176050000D03*
%TO.P,U1,11,D21*%
%TO.N,unconnected-(U1-D21-Pad11)*%
X16350000Y-178590000D03*
%TO.P,U1,12,RX0*%
%TO.N,unconnected-(U1-RX0-Pad12)*%
X16350000Y-181130000D03*
%TO.P,U1,13,TX0*%
%TO.N,unconnected-(U1-TX0-Pad13)*%
X16350000Y-183670000D03*
%TO.P,U1,14,D22*%
%TO.N,unconnected-(U1-D22-Pad14)*%
X16350000Y-186210000D03*
%TO.P,U1,15,D23*%
%TO.N,unconnected-(U1-D23-Pad15)*%
X16350000Y-188750000D03*
%TO.P,U1,16,EN*%
%TO.N,unconnected-(U1-EN-Pad16)*%
X41750000Y-188750000D03*
%TO.P,U1,17,VP*%
%TO.N,unconnected-(U1-VP-Pad17)*%
X41750000Y-186210000D03*
%TO.P,U1,18,VN*%
%TO.N,unconnected-(U1-VN-Pad18)*%
X41750000Y-183670000D03*
%TO.P,U1,19,D34*%
%TO.N,unconnected-(U1-D34-Pad19)*%
X41750000Y-181130000D03*
%TO.P,U1,20,D35*%
%TO.N,unconnected-(U1-D35-Pad20)*%
X41750000Y-178590000D03*
%TO.P,U1,21,D32*%
%TO.N,unconnected-(U1-D32-Pad21)*%
X41750000Y-176050000D03*
%TO.P,U1,22,D33*%
%TO.N,unconnected-(U1-D33-Pad22)*%
X41750000Y-173510000D03*
%TO.P,U1,23,D25*%
%TO.N,unconnected-(U1-D25-Pad23)*%
X41750000Y-170970000D03*
%TO.P,U1,24,D26*%
%TO.N,unconnected-(U1-D26-Pad24)*%
X41750000Y-168430000D03*
%TO.P,U1,25,D27*%
%TO.N,unconnected-(U1-D27-Pad25)*%
X41750000Y-165890000D03*
%TO.P,U1,26,D14*%
%TO.N,unconnected-(U1-D14-Pad26)*%
X41750000Y-163350000D03*
%TO.P,U1,27,D12*%
%TO.N,unconnected-(U1-D12-Pad27)*%
X41750000Y-160810000D03*
%TO.P,U1,28,D13*%
%TO.N,unconnected-(U1-D13-Pad28)*%
X41750000Y-158270000D03*
%TO.P,U1,29,GND__1*%
%TO.N,unconnected-(U1-GND__1-Pad29)*%
X41750000Y-155730000D03*
%TO.P,U1,30,VIN*%
%TO.N,unconnected-(U1-VIN-Pad30)*%
X41750000Y-153190000D03*
%TD*%
D26*
%TO.P,F1,1*%
%TO.N,/PWR IN*%
X200500000Y-109750000D03*
%TO.P,F1,2*%
%TO.N,+5V*%
X200500000Y-104520000D03*
%TD*%
D11*
%TO.P,D2,1,K*%
%TO.N,GPIO19*%
X136000000Y-74500000D03*
%TO.P,D2,2,A*%
%TO.N,GPIO35*%
X133950000Y-74500000D03*
%TD*%
D16*
%TO.P,C2,1*%
%TO.N,+5V*%
X192000000Y-121500000D03*
D17*
%TO.P,C2,2*%
%TO.N,GND*%
X187000000Y-121500000D03*
%TD*%
D18*
%TO.P,C3,1*%
%TO.N,GPIO35*%
X124500000Y-82000000D03*
%TO.P,C3,2*%
%TO.N,GND*%
X126575000Y-82000000D03*
%TD*%
%TO.P,C4,1*%
%TO.N,GPIO34*%
X124500000Y-79500000D03*
%TO.P,C4,2*%
%TO.N,GND*%
X126575000Y-79500000D03*
%TD*%
D19*
%TO.P,J1,01,01*%
%TO.N,unconnected-(J1-Pad01)*%
X121830000Y-71860000D03*
D20*
%TO.P,J1,02,02*%
%TO.N,GPIO36*%
X121830000Y-74400000D03*
%TO.P,J1,03,03*%
%TO.N,GPIO39*%
X121830000Y-76940000D03*
%TO.P,J1,04,04*%
%TO.N,GPIO34*%
X121830000Y-79480000D03*
%TO.P,J1,05,05*%
%TO.N,GPIO35*%
X121830000Y-82020000D03*
%TO.P,J1,06,06*%
%TO.N,GPIO32*%
X121830000Y-84560000D03*
%TO.P,J1,07,07*%
%TO.N,GPIO33*%
X121830000Y-87100000D03*
%TO.P,J1,08,08*%
%TO.N,GPIO25*%
X121830000Y-89640000D03*
%TO.P,J1,09,09*%
%TO.N,GPIO26*%
X121830000Y-92180000D03*
%TO.P,J1,10,10*%
%TO.N,GPIO27*%
X121830000Y-94720000D03*
%TO.P,J1,11,11*%
%TO.N,GPIO14*%
X121830000Y-97260000D03*
%TO.P,J1,12,12*%
%TO.N,GPIO12*%
X121830000Y-99800000D03*
%TO.P,J1,13,13*%
%TO.N,GPIO13*%
X121830000Y-102340000D03*
%TO.P,J1,14,14*%
%TO.N,GND*%
X121830000Y-104880000D03*
%TO.P,J1,15,15*%
%TO.N,+5V*%
X121830000Y-107420000D03*
%TD*%
D27*
%TO.P,J3,01,01*%
%TO.N,GPIO32*%
X133010000Y-80802500D03*
D28*
%TO.P,J3,02,02*%
%TO.N,GPIO18*%
X135550000Y-80802500D03*
%TO.P,J3,03,03*%
%TO.N,GPIO33*%
X133010000Y-83342500D03*
%TO.P,J3,04,04*%
%TO.N,GND*%
X135550000Y-83342500D03*
%TO.P,J3,05,05*%
%TO.N,GPIO25*%
X133010000Y-85882500D03*
%TO.P,J3,06,06*%
%TO.N,GPIO5*%
X135550000Y-85882500D03*
%TO.P,J3,07,07*%
%TO.N,GPIO26*%
X133010000Y-88422500D03*
%TO.P,J3,08,08*%
%TO.N,GPIO17*%
X135550000Y-88422500D03*
%TO.P,J3,09,09*%
%TO.N,GPIO27*%
X133010000Y-90962500D03*
%TO.P,J3,10,10*%
%TO.N,GPIO16*%
X135550000Y-90962500D03*
%TO.P,J3,11,11*%
%TO.N,GPIO14*%
X133010000Y-93502500D03*
%TO.P,J3,12,12*%
%TO.N,GPIO4*%
X135550000Y-93502500D03*
%TO.P,J3,13,13*%
%TO.N,GPIO12*%
X133010000Y-96042500D03*
%TO.P,J3,14,14*%
%TO.N,GPIO15*%
X135550000Y-96042500D03*
%TO.P,J3,15,15*%
%TO.N,GPIO13*%
X133010000Y-98582500D03*
%TO.P,J3,16,16*%
%TO.N,GND*%
X135550000Y-98582500D03*
%TD*%
D29*
%TO.N,GND*%
X209875000Y-74500000D03*
D30*
%TO.N,GPIO5*%
X165550000Y-87922857D03*
%TO.N,GPIO17*%
X168090000Y-89218571D03*
%TO.N,GPIO4*%
X173150000Y-90864286D03*
D29*
%TO.N,GND*%
X183630000Y-76140000D03*
%TO.N,GPIO2*%
X177900000Y-75650000D03*
%TO.N,GND*%
X127980000Y-82000000D03*
X128000000Y-79450000D03*
X204500000Y-102600000D03*
D30*
%TO.N,GPIO32*%
X131200000Y-80802500D03*
%TO.N,GPIO13*%
X124200000Y-102362500D03*
%TO.N,GPIO33*%
X130200000Y-83882500D03*
%TO.N,GPIO25*%
X129200000Y-86962500D03*
%TO.N,GPIO27*%
X127200000Y-93122500D03*
%TO.N,GPIO26*%
X128200000Y-90042500D03*
%TO.N,GPIO14*%
X126200000Y-96202500D03*
%TO.N,GPIO12*%
X125200000Y-99282500D03*
%TO.N,GPIO18*%
X160470000Y-87100000D03*
%TO.N,GPIO15*%
X175710000Y-92130000D03*
%TO.N,GPIO16*%
X170630000Y-90041429D03*
%TD*%
D31*
%TO.N,GND*%
X204500000Y-102600000D02*
X204500000Y-101250000D01*
D32*
%TO.N,GPIO2*%
X177900000Y-75650000D02*
X177900000Y-73137500D01*
D33*
%TO.N,GPIO35*%
X131250000Y-74500000D02*
X133950000Y-74500000D01*
X128250000Y-80750000D02*
X130150000Y-78850000D01*
X130150000Y-75600000D02*
X131250000Y-74500000D01*
X125750000Y-80750000D02*
X128250000Y-80750000D01*
X130150000Y-78850000D02*
X130150000Y-75600000D01*
X124500000Y-82000000D02*
X125750000Y-80750000D01*
D31*
%TO.N,Net-(D3-A)*%
X205750000Y-77000000D02*
X205750000Y-74550000D01*
D33*
X205725000Y-76975000D02*
X205750000Y-77000000D01*
D31*
%TO.N,GND*%
X209875000Y-74500000D02*
X207750000Y-74500000D01*
D33*
%TO.N,+5V*%
X207750000Y-77000000D02*
X207795000Y-76955000D01*
%TO.N,GPIO34*%
X126900000Y-121300000D02*
X132267500Y-121300000D01*
X120050000Y-114450000D02*
X126900000Y-121300000D01*
X120050000Y-81260000D02*
X120050000Y-114450000D01*
X121830000Y-79480000D02*
X120050000Y-81260000D01*
D31*
%TO.N,+5V*%
X207750000Y-82550000D02*
X210260000Y-85060000D01*
X210260000Y-85060000D02*
X210260000Y-86990000D01*
X207750000Y-77000000D02*
X207750000Y-82550000D01*
X207040000Y-86230000D02*
X207040000Y-86990000D01*
X197500000Y-76690000D02*
X207040000Y-86230000D01*
X197500000Y-74000000D02*
X197500000Y-76690000D01*
D33*
%TO.N,GPIO15*%
X175710000Y-97460000D02*
X175710000Y-92130000D01*
%TO.N,GPIO4*%
X173170000Y-90884286D02*
X173150000Y-90864286D01*
X173170000Y-97460000D02*
X173170000Y-90884286D01*
%TO.N,GPIO16*%
X170630000Y-97460000D02*
X170630000Y-90041429D01*
%TO.N,GPIO17*%
X168090000Y-97460000D02*
X168090000Y-89218571D01*
%TO.N,GPIO5*%
X165550000Y-97460000D02*
X165550000Y-87922857D01*
%TO.N,GPIO18*%
X160470000Y-97460000D02*
X160470000Y-87100000D01*
D34*
%TO.N,/+3.3VDC*%
X175710000Y-80240000D02*
X175710000Y-66500000D01*
X157200000Y-84200000D02*
X171750000Y-84200000D01*
X151450000Y-89950000D02*
X157200000Y-84200000D01*
X149080000Y-107420000D02*
X151450000Y-105050000D01*
X151450000Y-105050000D02*
X151450000Y-89950000D01*
X171750000Y-84200000D02*
X175710000Y-80240000D01*
X147230000Y-107420000D02*
X149080000Y-107420000D01*
X147250000Y-107400000D02*
X147230000Y-107420000D01*
D35*
%TO.N,+5V*%
X186250000Y-115750000D02*
X192000000Y-121500000D01*
X130160000Y-115750000D02*
X186250000Y-115750000D01*
X121830000Y-107420000D02*
X130160000Y-115750000D01*
D32*
%TO.N,Net-(Q1-B)*%
X179862500Y-73100000D02*
X183625000Y-73100000D01*
D31*
%TO.N,GND*%
X183630000Y-76140000D02*
X183630000Y-75005000D01*
%TO.N,Net-(BZ1--)*%
X185500000Y-74050000D02*
X189850000Y-74050000D01*
D33*
%TO.N,GPIO4*%
X173150000Y-97440000D02*
X173170000Y-97460000D01*
%TO.N,GPIO5*%
X165550000Y-97460000D02*
X165550000Y-98000000D01*
D31*
%TO.N,+5V*%
X197500000Y-71400000D02*
X197500000Y-74000000D01*
X192600000Y-66500000D02*
X197500000Y-71400000D01*
X178250000Y-66500000D02*
X192600000Y-66500000D01*
D33*
%TO.N,GPIO1*%
X168090000Y-70560000D02*
X168090000Y-66500000D01*
X161710000Y-76940000D02*
X168090000Y-70560000D01*
X147230000Y-76940000D02*
X161710000Y-76940000D01*
%TO.N,GPIO3*%
X170630000Y-70620000D02*
X170630000Y-66500000D01*
X161770000Y-79480000D02*
X170630000Y-70620000D01*
X147230000Y-79480000D02*
X161770000Y-79480000D01*
%TO.N,GPIO22*%
X161300000Y-74400000D02*
X165550000Y-70150000D01*
X147230000Y-74400000D02*
X161300000Y-74400000D01*
X165550000Y-70150000D02*
X165550000Y-66500000D01*
%TO.N,GPIO21*%
X163010000Y-69490000D02*
X163010000Y-66500000D01*
X146100000Y-73100000D02*
X159400000Y-73100000D01*
X145770000Y-82020000D02*
X144800000Y-81050000D01*
X159400000Y-73100000D02*
X163010000Y-69490000D01*
X147230000Y-82020000D02*
X145770000Y-82020000D01*
X144800000Y-81050000D02*
X144800000Y-74400000D01*
X144800000Y-74400000D02*
X146100000Y-73100000D01*
%TO.N,GPIO39*%
X160470000Y-68430000D02*
X160470000Y-66500000D01*
X159500000Y-69400000D02*
X160470000Y-68430000D01*
X129370000Y-69400000D02*
X159500000Y-69400000D01*
X121830000Y-76940000D02*
X129370000Y-69400000D01*
%TO.N,GPIO36*%
X152390000Y-66500000D02*
X157930000Y-66500000D01*
X150890000Y-68000000D02*
X152390000Y-66500000D01*
%TO.N,GND*%
X128000000Y-79390000D02*
X128000000Y-79450000D01*
D32*
X126575000Y-82000000D02*
X127980000Y-82000000D01*
X127950000Y-79500000D02*
X126575000Y-79500000D01*
D33*
X128000000Y-79450000D02*
X127950000Y-79500000D01*
D35*
%TO.N,+5V*%
X121830000Y-107420000D02*
X121830000Y-107430000D01*
D33*
X192040000Y-112420000D02*
X192000000Y-112460000D01*
D32*
%TO.N,GPIO32*%
X131200000Y-80802500D02*
X131220000Y-80802500D01*
X131097500Y-80802500D02*
X131200000Y-80802500D01*
X121830000Y-84560000D02*
X127340000Y-84560000D01*
X131220000Y-80802500D02*
X133010000Y-80802500D01*
X127340000Y-84560000D02*
X131097500Y-80802500D01*
D33*
%TO.N,GPIO16*%
X145625000Y-94725000D02*
X145630000Y-94720000D01*
X141862500Y-90962500D02*
X145625000Y-94725000D01*
X145630000Y-94720000D02*
X147230000Y-94720000D01*
X135550000Y-90962500D02*
X141862500Y-90962500D01*
D32*
%TO.N,GPIO34*%
X121830000Y-79480000D02*
X124480000Y-79480000D01*
D33*
X124500000Y-76450000D02*
X124500000Y-79500000D01*
X129200000Y-71750000D02*
X124500000Y-76450000D01*
X133950000Y-71750000D02*
X129200000Y-71750000D01*
X124480000Y-79480000D02*
X124500000Y-79500000D01*
%TO.N,GPIO17*%
X141822500Y-88422500D02*
X145580000Y-92180000D01*
X145580000Y-92180000D02*
X147230000Y-92180000D01*
X135550000Y-88422500D02*
X141822500Y-88422500D01*
%TO.N,GPIO36*%
X128600000Y-68000000D02*
X150890000Y-68000000D01*
X121830000Y-74400000D02*
X122200000Y-74400000D01*
X122200000Y-74400000D02*
X128600000Y-68000000D01*
%TO.N,GPIO4*%
X141602500Y-93502500D02*
X145360000Y-97260000D01*
X135550000Y-93502500D02*
X141602500Y-93502500D01*
X145360000Y-97260000D02*
X147230000Y-97260000D01*
%TO.N,GPIO13*%
X126342500Y-102340000D02*
X130100000Y-98582500D01*
X130100000Y-98582500D02*
X133010000Y-98582500D01*
X121830000Y-102340000D02*
X124130000Y-102340000D01*
X124130000Y-102340000D02*
X124140000Y-102340000D01*
X124140000Y-102340000D02*
X126342500Y-102340000D01*
%TO.N,GPIO33*%
X130732500Y-83350000D02*
X130200000Y-83882500D01*
X127000000Y-87100000D02*
X121830000Y-87100000D01*
X133010000Y-83342500D02*
X133010000Y-83340000D01*
X130200000Y-83900000D02*
X127000000Y-87100000D01*
X133010000Y-83342500D02*
X133002500Y-83350000D01*
X130200000Y-83882500D02*
X130200000Y-83900000D01*
X133002500Y-83350000D02*
X130732500Y-83350000D01*
%TO.N,GPIO25*%
X129401250Y-86761250D02*
X129401250Y-86748750D01*
X126522500Y-89640000D02*
X129401250Y-86761250D01*
X129401250Y-86748750D02*
X130267500Y-85882500D01*
X121830000Y-89640000D02*
X126522500Y-89640000D01*
X130267500Y-85882500D02*
X133010000Y-85882500D01*
%TO.N,GPIO35*%
X133950000Y-74650000D02*
X133950000Y-74500000D01*
X124480000Y-82020000D02*
X124500000Y-82000000D01*
D32*
X121830000Y-82020000D02*
X124480000Y-82020000D01*
D33*
%TO.N,GPIO27*%
X125602500Y-94720000D02*
X127200000Y-93122500D01*
X127227500Y-93122500D02*
X129387500Y-90962500D01*
X121830000Y-94720000D02*
X125602500Y-94720000D01*
X129387500Y-90962500D02*
X133010000Y-90962500D01*
X127200000Y-93122500D02*
X127227500Y-93122500D01*
%TO.N,GPIO26*%
X129800000Y-88450000D02*
X132982500Y-88450000D01*
X126070000Y-92180000D02*
X129800000Y-88450000D01*
X121830000Y-92180000D02*
X126070000Y-92180000D01*
X133010000Y-88460000D02*
X133010000Y-88422500D01*
X132982500Y-88450000D02*
X133010000Y-88422500D01*
%TO.N,GPIO14*%
X126200000Y-96202500D02*
X128900000Y-93502500D01*
X128900000Y-93502500D02*
X133010000Y-93502500D01*
X125142500Y-97260000D02*
X126200000Y-96202500D01*
X121830000Y-97260000D02*
X125142500Y-97260000D01*
%TO.N,GPIO18*%
X135550000Y-80802500D02*
X138952500Y-80802500D01*
X145250000Y-87100000D02*
X147230000Y-87100000D01*
X135647500Y-80900000D02*
X135550000Y-80802500D01*
X138952500Y-80802500D02*
X145250000Y-87100000D01*
%TO.N,GPIO12*%
X125200000Y-99282500D02*
X128440000Y-96042500D01*
X128440000Y-96042500D02*
X133010000Y-96042500D01*
X121830000Y-99800000D02*
X124682500Y-99800000D01*
X133010000Y-96042500D02*
X133642500Y-96042500D01*
X124682500Y-99800000D02*
X125200000Y-99282500D01*
%TO.N,GPIO23*%
X136000000Y-71750000D02*
X147120000Y-71750000D01*
X147120000Y-71750000D02*
X147230000Y-71860000D01*
%TO.N,GPIO5*%
X141582500Y-85882500D02*
X145340000Y-89640000D01*
X135550000Y-85882500D02*
X141582500Y-85882500D01*
X145340000Y-89640000D02*
X147230000Y-89640000D01*
%TO.N,GPIO15*%
X138742500Y-96042500D02*
X145050000Y-102350000D01*
X145060000Y-102340000D02*
X147230000Y-102340000D01*
X135550000Y-96042500D02*
X138742500Y-96042500D01*
X145050000Y-102350000D02*
X145060000Y-102340000D01*
%TO.N,GPIO19*%
X141150000Y-76250000D02*
X139400000Y-74500000D01*
X139400000Y-74500000D02*
X136000000Y-74500000D01*
X145260000Y-84560000D02*
X141150000Y-80450000D01*
X141150000Y-80450000D02*
X141150000Y-76250000D01*
X147230000Y-84560000D02*
X145260000Y-84560000D01*
%TD*%
%TA.AperFunction,Conductor*%
%TO.N,+5V*%
G36*
X199535194Y-84064193D02*
G01*
X211284820Y-84103407D01*
X211293566Y-84103745D01*
X211562365Y-84123692D01*
X211579682Y-84126217D01*
X211838693Y-84182923D01*
X211855482Y-84187865D01*
X212103901Y-84280520D01*
X212119844Y-84287789D01*
X212352704Y-84414534D01*
X212367464Y-84423977D01*
X212492900Y-84517354D01*
X212580138Y-84582296D01*
X212593422Y-84593730D01*
X212781639Y-84780443D01*
X212793174Y-84793630D01*
X212953199Y-85005031D01*
X212962752Y-85019702D01*
X213069543Y-85212204D01*
X213091366Y-85251542D01*
X213098764Y-85267431D01*
X213193403Y-85515082D01*
X213198487Y-85531855D01*
X213257265Y-85790381D01*
X213259933Y-85807704D01*
X213282033Y-86076306D01*
X213282443Y-86085065D01*
X213336749Y-90864022D01*
X213336527Y-90872986D01*
X213319733Y-91148103D01*
X213317350Y-91165869D01*
X213261989Y-91431271D01*
X213257071Y-91448506D01*
X213164023Y-91703160D01*
X213156671Y-91719507D01*
X213027880Y-91958092D01*
X213018251Y-91973202D01*
X212937331Y-92081964D01*
X212856415Y-92190720D01*
X212844705Y-92204289D01*
X212653192Y-92396211D01*
X212639647Y-92407950D01*
X212422478Y-92570248D01*
X212407383Y-92579912D01*
X212169080Y-92709208D01*
X212152750Y-92716595D01*
X211898289Y-92810188D01*
X211881063Y-92815143D01*
X211615777Y-92871070D01*
X211598018Y-92873490D01*
X211322954Y-92890871D01*
X211313989Y-92891113D01*
X208486264Y-92865012D01*
X206047499Y-92842500D01*
X206047498Y-92842500D01*
X203599324Y-95257580D01*
X203595683Y-96088842D01*
X203577537Y-100232129D01*
X203557559Y-100299082D01*
X203504555Y-100344605D01*
X203435354Y-100354245D01*
X203371926Y-100324942D01*
X203356268Y-100308492D01*
X203354814Y-100306653D01*
X203230845Y-100182684D01*
X203081624Y-100090643D01*
X203081619Y-100090641D01*
X202915197Y-100035494D01*
X202915190Y-100035493D01*
X202812486Y-100025000D01*
X202675000Y-100025000D01*
X202675000Y-102474999D01*
X202812472Y-102474999D01*
X202812486Y-102474998D01*
X202915197Y-102464505D01*
X203081619Y-102409358D01*
X203081624Y-102409356D01*
X203230842Y-102317317D01*
X203356890Y-102191269D01*
X203418213Y-102157784D01*
X203487905Y-102162768D01*
X203543839Y-102204639D01*
X203568256Y-102270103D01*
X203568571Y-102279493D01*
X203558740Y-104524345D01*
X203558387Y-104533165D01*
X203537901Y-104803688D01*
X203535321Y-104821141D01*
X203477605Y-105081706D01*
X203472573Y-105098616D01*
X203378465Y-105348345D01*
X203371085Y-105364371D01*
X203242488Y-105598216D01*
X203232909Y-105613031D01*
X203072426Y-105826259D01*
X203060840Y-105839565D01*
X202871718Y-106027861D01*
X202858362Y-106039388D01*
X202644429Y-106198940D01*
X202629571Y-106208455D01*
X202395164Y-106336026D01*
X202379107Y-106343336D01*
X202128965Y-106436351D01*
X202112033Y-106441308D01*
X201851224Y-106497881D01*
X201833760Y-106500385D01*
X201682105Y-106511201D01*
X201563141Y-106519686D01*
X201554322Y-106520000D01*
X194520000Y-106520000D01*
X194512854Y-108512828D01*
X194457161Y-124042752D01*
X194456815Y-124051576D01*
X194436525Y-124322257D01*
X194433956Y-124339721D01*
X194376391Y-124600452D01*
X194371368Y-124617375D01*
X194277363Y-124867293D01*
X194269988Y-124883330D01*
X194141454Y-125117359D01*
X194131878Y-125132186D01*
X193971411Y-125345603D01*
X193959825Y-125358922D01*
X193770684Y-125547385D01*
X193757325Y-125558922D01*
X193543337Y-125718623D01*
X193528475Y-125728147D01*
X193293979Y-125855844D01*
X193277915Y-125863161D01*
X193027665Y-125956267D01*
X193010725Y-125961229D01*
X192749795Y-126017858D01*
X192732322Y-126020365D01*
X192461559Y-126039686D01*
X192452733Y-126040000D01*
X191284905Y-126040000D01*
X191276059Y-126039684D01*
X191239397Y-126037061D01*
X191004648Y-126020269D01*
X190987134Y-126017750D01*
X190725595Y-125960847D01*
X190708617Y-125955861D01*
X190457842Y-125862311D01*
X190441747Y-125854960D01*
X190311571Y-125783865D01*
X190206828Y-125726661D01*
X190191952Y-125717099D01*
X189980695Y-125558922D01*
X189977693Y-125556674D01*
X189964322Y-125545085D01*
X189775076Y-125355795D01*
X189763494Y-125342425D01*
X189603115Y-125128123D01*
X189593559Y-125113249D01*
X189465318Y-124878301D01*
X189457970Y-124862204D01*
X189441382Y-124817705D01*
X189364476Y-124611397D01*
X189359496Y-124594424D01*
X189302655Y-124332865D01*
X189300141Y-124315350D01*
X189280791Y-124043943D01*
X189280477Y-124035095D01*
X189281033Y-121698608D01*
X189281330Y-120452155D01*
X190500000Y-120452155D01*
X190500000Y-121250000D01*
X191566988Y-121250000D01*
X191534075Y-121307007D01*
X191500000Y-121434174D01*
X191500000Y-121565826D01*
X191534075Y-121692993D01*
X191566988Y-121750000D01*
X190500000Y-121750000D01*
X190500000Y-122547844D01*
X190506401Y-122607372D01*
X190506403Y-122607379D01*
X190556645Y-122742086D01*
X190556649Y-122742093D01*
X190642809Y-122857187D01*
X190642812Y-122857190D01*
X190757906Y-122943350D01*
X190757913Y-122943354D01*
X190892620Y-122993596D01*
X190892627Y-122993598D01*
X190952155Y-122999999D01*
X190952172Y-123000000D01*
X191750000Y-123000000D01*
X191750000Y-121933012D01*
X191807007Y-121965925D01*
X191934174Y-122000000D01*
X192065826Y-122000000D01*
X192192993Y-121965925D01*
X192250000Y-121933012D01*
X192250000Y-123000000D01*
X193047828Y-123000000D01*
X193047844Y-122999999D01*
X193107372Y-122993598D01*
X193107379Y-122993596D01*
X193242086Y-122943354D01*
X193242093Y-122943350D01*
X193357187Y-122857190D01*
X193357190Y-122857187D01*
X193443350Y-122742093D01*
X193443354Y-122742086D01*
X193493596Y-122607379D01*
X193493598Y-122607372D01*
X193499999Y-122547844D01*
X193500000Y-122547827D01*
X193500000Y-121750000D01*
X192433012Y-121750000D01*
X192465925Y-121692993D01*
X192500000Y-121565826D01*
X192500000Y-121434174D01*
X192465925Y-121307007D01*
X192433012Y-121250000D01*
X193500000Y-121250000D01*
X193500000Y-120452172D01*
X193499999Y-120452155D01*
X193493598Y-120392627D01*
X193493596Y-120392620D01*
X193443354Y-120257913D01*
X193443350Y-120257906D01*
X193357190Y-120142812D01*
X193357187Y-120142809D01*
X193242093Y-120056649D01*
X193242086Y-120056645D01*
X193107379Y-120006403D01*
X193107372Y-120006401D01*
X193047844Y-120000000D01*
X192250000Y-120000000D01*
X192250000Y-121066988D01*
X192192993Y-121034075D01*
X192065826Y-121000000D01*
X191934174Y-121000000D01*
X191807007Y-121034075D01*
X191750000Y-121066988D01*
X191750000Y-120000000D01*
X190952155Y-120000000D01*
X190892627Y-120006401D01*
X190892620Y-120006403D01*
X190757913Y-120056645D01*
X190757906Y-120056649D01*
X190642812Y-120142809D01*
X190642809Y-120142812D01*
X190556649Y-120257906D01*
X190556645Y-120257913D01*
X190506403Y-120392620D01*
X190506401Y-120392627D01*
X190500000Y-120452155D01*
X189281330Y-120452155D01*
X189281331Y-120448821D01*
X189284172Y-108512828D01*
X189284665Y-106441308D01*
X189284899Y-105457844D01*
X198425000Y-105457844D01*
X198431401Y-105517372D01*
X198431403Y-105517379D01*
X198481645Y-105652086D01*
X198481649Y-105652093D01*
X198567809Y-105767187D01*
X198567812Y-105767190D01*
X198682906Y-105853350D01*
X198682913Y-105853354D01*
X198817620Y-105903596D01*
X198817627Y-105903598D01*
X198877155Y-105909999D01*
X198877172Y-105910000D01*
X200250000Y-105910000D01*
X200750000Y-105910000D01*
X202122828Y-105910000D01*
X202122844Y-105909999D01*
X202182372Y-105903598D01*
X202182379Y-105903596D01*
X202317086Y-105853354D01*
X202317093Y-105853350D01*
X202432187Y-105767190D01*
X202432190Y-105767187D01*
X202518350Y-105652093D01*
X202518354Y-105652086D01*
X202568596Y-105517379D01*
X202568598Y-105517372D01*
X202574999Y-105457844D01*
X202575000Y-105457827D01*
X202575000Y-104770000D01*
X200750000Y-104770000D01*
X200750000Y-105910000D01*
X200250000Y-105910000D01*
X200250000Y-104770000D01*
X198425000Y-104770000D01*
X198425000Y-105457844D01*
X189284899Y-105457844D01*
X189285345Y-103582155D01*
X198425000Y-103582155D01*
X198425000Y-104270000D01*
X200250000Y-104270000D01*
X200750000Y-104270000D01*
X202575000Y-104270000D01*
X202575000Y-103582172D01*
X202574999Y-103582155D01*
X202568598Y-103522627D01*
X202568596Y-103522620D01*
X202518354Y-103387913D01*
X202518350Y-103387906D01*
X202432190Y-103272812D01*
X202432187Y-103272809D01*
X202317093Y-103186649D01*
X202317086Y-103186645D01*
X202182379Y-103136403D01*
X202182372Y-103136401D01*
X202122844Y-103130000D01*
X200750000Y-103130000D01*
X200750000Y-104270000D01*
X200250000Y-104270000D01*
X200250000Y-103130000D01*
X198877155Y-103130000D01*
X198817627Y-103136401D01*
X198817620Y-103136403D01*
X198682913Y-103186645D01*
X198682906Y-103186649D01*
X198567812Y-103272809D01*
X198567809Y-103272812D01*
X198481649Y-103387906D01*
X198481645Y-103387913D01*
X198431403Y-103522620D01*
X198431401Y-103522627D01*
X198425000Y-103582155D01*
X189285345Y-103582155D01*
X189285775Y-101774986D01*
X201337501Y-101774986D01*
X201347994Y-101877697D01*
X201403141Y-102044119D01*
X201403143Y-102044124D01*
X201495184Y-102193345D01*
X201619154Y-102317315D01*
X201768375Y-102409356D01*
X201768380Y-102409358D01*
X201934802Y-102464505D01*
X201934809Y-102464506D01*
X202037519Y-102474999D01*
X202174999Y-102474999D01*
X202175000Y-102474998D01*
X202175000Y-101500000D01*
X201337501Y-101500000D01*
X201337501Y-101774986D01*
X189285775Y-101774986D01*
X189286025Y-100725013D01*
X201337500Y-100725013D01*
X201337500Y-101000000D01*
X202175000Y-101000000D01*
X202175000Y-100025000D01*
X202037527Y-100025000D01*
X202037512Y-100025001D01*
X201934802Y-100035494D01*
X201768380Y-100090641D01*
X201768375Y-100090643D01*
X201619154Y-100182684D01*
X201495184Y-100306654D01*
X201403143Y-100455875D01*
X201403141Y-100455880D01*
X201347994Y-100622302D01*
X201347993Y-100622309D01*
X201337500Y-100725013D01*
X189286025Y-100725013D01*
X189288380Y-90831188D01*
X206290350Y-90831188D01*
X206290350Y-91068811D01*
X206327522Y-91303507D01*
X206400954Y-91529506D01*
X206508832Y-91741229D01*
X206570432Y-91826013D01*
X206570432Y-91826014D01*
X207181278Y-91215168D01*
X207203506Y-91268832D01*
X207277169Y-91379076D01*
X207370924Y-91472831D01*
X207481168Y-91546494D01*
X207534830Y-91568721D01*
X206923984Y-92179566D01*
X207008770Y-92241167D01*
X207220493Y-92349045D01*
X207446492Y-92422477D01*
X207681189Y-92459650D01*
X207918811Y-92459650D01*
X208153507Y-92422477D01*
X208379506Y-92349045D01*
X208591221Y-92241171D01*
X208591227Y-92241167D01*
X208676013Y-92179566D01*
X208676014Y-92179566D01*
X208065169Y-91568721D01*
X208118832Y-91546494D01*
X208229076Y-91472831D01*
X208322831Y-91379076D01*
X208396494Y-91268832D01*
X208418721Y-91215168D01*
X209029999Y-91826446D01*
X209034120Y-91822325D01*
X209641277Y-91215167D01*
X209663506Y-91268832D01*
X209737169Y-91379076D01*
X209830924Y-91472831D01*
X209941168Y-91546494D01*
X209994830Y-91568721D01*
X209383984Y-92179566D01*
X209468770Y-92241167D01*
X209680493Y-92349045D01*
X209906492Y-92422477D01*
X210141189Y-92459650D01*
X210378811Y-92459650D01*
X210613507Y-92422477D01*
X210839506Y-92349045D01*
X211051221Y-92241171D01*
X211051227Y-92241167D01*
X211136013Y-92179566D01*
X211136014Y-92179566D01*
X210525169Y-91568721D01*
X210578832Y-91546494D01*
X210689076Y-91472831D01*
X210782831Y-91379076D01*
X210856494Y-91268832D01*
X210878721Y-91215169D01*
X211489566Y-91826014D01*
X211489566Y-91826013D01*
X211551167Y-91741227D01*
X211551171Y-91741221D01*
X211659045Y-91529506D01*
X211732477Y-91303507D01*
X211769650Y-91068811D01*
X211769650Y-90831188D01*
X211732477Y-90596492D01*
X211659045Y-90370493D01*
X211551167Y-90158770D01*
X211489566Y-90073985D01*
X211489566Y-90073984D01*
X210878721Y-90684830D01*
X210856494Y-90631168D01*
X210782831Y-90520924D01*
X210689076Y-90427169D01*
X210578832Y-90353506D01*
X210525167Y-90331277D01*
X211136014Y-89720432D01*
X211051229Y-89658832D01*
X210839506Y-89550954D01*
X210613507Y-89477522D01*
X210378811Y-89440350D01*
X210141189Y-89440350D01*
X209906492Y-89477522D01*
X209680493Y-89550954D01*
X209468772Y-89658831D01*
X209468768Y-89658833D01*
X209383985Y-89720431D01*
X209383985Y-89720433D01*
X209994830Y-90331278D01*
X209941168Y-90353506D01*
X209830924Y-90427169D01*
X209737169Y-90520924D01*
X209663506Y-90631168D01*
X209641278Y-90684831D01*
X209029999Y-90073552D01*
X209025806Y-90077745D01*
X208418721Y-90684830D01*
X208396494Y-90631168D01*
X208322831Y-90520924D01*
X208229076Y-90427169D01*
X208118832Y-90353506D01*
X208065167Y-90331277D01*
X208676014Y-89720432D01*
X208591229Y-89658832D01*
X208379506Y-89550954D01*
X208153507Y-89477522D01*
X207918811Y-89440350D01*
X207681189Y-89440350D01*
X207446492Y-89477522D01*
X207220493Y-89550954D01*
X207008772Y-89658831D01*
X207008768Y-89658833D01*
X206923985Y-89720431D01*
X206923985Y-89720433D01*
X207534830Y-90331278D01*
X207481168Y-90353506D01*
X207370924Y-90427169D01*
X207277169Y-90520924D01*
X207203506Y-90631168D01*
X207181278Y-90684830D01*
X206570433Y-90073985D01*
X206570431Y-90073985D01*
X206508833Y-90158768D01*
X206508831Y-90158772D01*
X206400954Y-90370493D01*
X206327522Y-90596492D01*
X206290350Y-90831188D01*
X189288380Y-90831188D01*
X189289322Y-86871188D01*
X206290350Y-86871188D01*
X206290350Y-87108811D01*
X206327522Y-87343507D01*
X206400954Y-87569506D01*
X206508832Y-87781229D01*
X206570432Y-87866013D01*
X206570432Y-87866014D01*
X207181278Y-87255168D01*
X207203506Y-87308832D01*
X207277169Y-87419076D01*
X207370924Y-87512831D01*
X207481168Y-87586494D01*
X207534830Y-87608721D01*
X206923984Y-88219566D01*
X207008770Y-88281167D01*
X207220493Y-88389045D01*
X207446492Y-88462477D01*
X207681189Y-88499650D01*
X207918811Y-88499650D01*
X208153507Y-88462477D01*
X208379506Y-88389045D01*
X208591221Y-88281171D01*
X208591227Y-88281167D01*
X208676013Y-88219566D01*
X208676014Y-88219566D01*
X208065169Y-87608721D01*
X208118832Y-87586494D01*
X208229076Y-87512831D01*
X208322831Y-87419076D01*
X208396494Y-87308832D01*
X208418721Y-87255168D01*
X209029999Y-87866446D01*
X209034120Y-87862325D01*
X209641277Y-87255167D01*
X209663506Y-87308832D01*
X209737169Y-87419076D01*
X209830924Y-87512831D01*
X209941168Y-87586494D01*
X209994830Y-87608721D01*
X209383984Y-88219566D01*
X209468770Y-88281167D01*
X209680493Y-88389045D01*
X209906492Y-88462477D01*
X210141189Y-88499650D01*
X210378811Y-88499650D01*
X210613507Y-88462477D01*
X210839506Y-88389045D01*
X211051221Y-88281171D01*
X211051227Y-88281167D01*
X211136013Y-88219566D01*
X211136014Y-88219566D01*
X210525169Y-87608721D01*
X210578832Y-87586494D01*
X210689076Y-87512831D01*
X210782831Y-87419076D01*
X210856494Y-87308832D01*
X210878721Y-87255169D01*
X211489566Y-87866014D01*
X211489566Y-87866013D01*
X211551167Y-87781227D01*
X211551171Y-87781221D01*
X211659045Y-87569506D01*
X211732477Y-87343507D01*
X211769650Y-87108811D01*
X211769650Y-86871188D01*
X211732477Y-86636492D01*
X211659045Y-86410493D01*
X211551167Y-86198770D01*
X211489566Y-86113985D01*
X211489566Y-86113984D01*
X210878721Y-86724830D01*
X210856494Y-86671168D01*
X210782831Y-86560924D01*
X210689076Y-86467169D01*
X210578832Y-86393506D01*
X210525167Y-86371277D01*
X211136014Y-85760432D01*
X211051229Y-85698832D01*
X210839506Y-85590954D01*
X210613507Y-85517522D01*
X210378811Y-85480350D01*
X210141189Y-85480350D01*
X209906492Y-85517522D01*
X209680493Y-85590954D01*
X209468772Y-85698831D01*
X209468768Y-85698833D01*
X209383985Y-85760431D01*
X209383985Y-85760433D01*
X209994830Y-86371278D01*
X209941168Y-86393506D01*
X209830924Y-86467169D01*
X209737169Y-86560924D01*
X209663506Y-86671168D01*
X209641278Y-86724831D01*
X209029999Y-86113552D01*
X209025806Y-86117745D01*
X208418721Y-86724830D01*
X208396494Y-86671168D01*
X208322831Y-86560924D01*
X208229076Y-86467169D01*
X208118832Y-86393506D01*
X208065167Y-86371277D01*
X208676014Y-85760432D01*
X208591229Y-85698832D01*
X208379506Y-85590954D01*
X208153507Y-85517522D01*
X207918811Y-85480350D01*
X207681189Y-85480350D01*
X207446492Y-85517522D01*
X207220493Y-85590954D01*
X207008772Y-85698831D01*
X207008768Y-85698833D01*
X206923985Y-85760431D01*
X206923985Y-85760433D01*
X207534830Y-86371278D01*
X207481168Y-86393506D01*
X207370924Y-86467169D01*
X207277169Y-86560924D01*
X207203506Y-86671168D01*
X207181278Y-86724830D01*
X206570433Y-86113985D01*
X206570431Y-86113985D01*
X206508833Y-86198768D01*
X206508831Y-86198772D01*
X206400954Y-86410493D01*
X206327522Y-86636492D01*
X206290350Y-86871188D01*
X189289322Y-86871188D01*
X189289520Y-86040616D01*
X189289837Y-86031807D01*
X189309391Y-85759875D01*
X189311920Y-85742354D01*
X189369096Y-85480354D01*
X189374099Y-85463365D01*
X189468051Y-85212193D01*
X189475424Y-85196096D01*
X189604227Y-84960896D01*
X189613822Y-84946009D01*
X189774855Y-84731569D01*
X189786467Y-84718213D01*
X189976425Y-84528932D01*
X189989841Y-84517354D01*
X190127786Y-84414534D01*
X190204840Y-84357100D01*
X190219762Y-84347556D01*
X190455424Y-84219593D01*
X190471560Y-84212273D01*
X190723054Y-84119224D01*
X190740067Y-84114280D01*
X191002259Y-84058043D01*
X191019792Y-84055576D01*
X191291802Y-84036996D01*
X191300618Y-84036710D01*
X199535194Y-84064193D01*
G37*
%TD.AperFunction*%
%TD*%
%TA.AperFunction,Conductor*%
%TO.N,/PWR IN*%
G36*
X200777353Y-107951990D02*
G01*
X202035496Y-107956444D01*
X202047618Y-107957082D01*
X202224267Y-107975094D01*
X202248062Y-107979910D01*
X202411958Y-108030209D01*
X202434365Y-108039573D01*
X202585313Y-108120850D01*
X202605460Y-108134398D01*
X202737679Y-108243539D01*
X202754796Y-108260750D01*
X202863207Y-108393568D01*
X202876644Y-108413790D01*
X202957089Y-108565186D01*
X202966329Y-108587644D01*
X203015723Y-108751813D01*
X203020409Y-108775641D01*
X203037446Y-108952374D01*
X203038018Y-108964517D01*
X203030022Y-113018565D01*
X203030018Y-113019262D01*
X203029942Y-113029268D01*
X203029924Y-113030654D01*
X203029733Y-113040825D01*
X203029718Y-113041520D01*
X203009999Y-113849996D01*
X203009948Y-113859442D01*
X203009948Y-113859446D01*
X203005037Y-114753106D01*
X203004198Y-114766843D01*
X202982773Y-114949859D01*
X202976573Y-114976632D01*
X202917667Y-115143892D01*
X202905722Y-115168641D01*
X202811423Y-115318819D01*
X202794320Y-115340330D01*
X202669257Y-115466050D01*
X202647835Y-115483266D01*
X202498154Y-115578350D01*
X202473468Y-115590424D01*
X202306520Y-115650205D01*
X202279779Y-115656546D01*
X202096877Y-115678929D01*
X202083146Y-115679840D01*
X198424265Y-115719113D01*
X198412042Y-115718641D01*
X198234082Y-115702949D01*
X198210072Y-115698415D01*
X198061610Y-115654867D01*
X198044545Y-115649861D01*
X198021896Y-115640709D01*
X197917045Y-115585764D01*
X197869108Y-115560643D01*
X197848687Y-115547224D01*
X197714563Y-115438748D01*
X197697172Y-115421586D01*
X197586927Y-115288923D01*
X197573237Y-115268683D01*
X197509988Y-115151795D01*
X197491142Y-115116966D01*
X197481689Y-115094438D01*
X197477635Y-115081269D01*
X197430940Y-114929578D01*
X197426088Y-114905631D01*
X197411988Y-114766843D01*
X197408030Y-114727894D01*
X197407396Y-114715684D01*
X197406314Y-114294104D01*
X197404243Y-113487500D01*
X197821522Y-113487500D01*
X198767599Y-113487500D01*
X198750924Y-113504175D01*
X198700896Y-113590825D01*
X198675000Y-113687472D01*
X198675000Y-113787528D01*
X198700896Y-113884175D01*
X198750924Y-113970825D01*
X198767599Y-113987500D01*
X197821522Y-113987500D01*
X197835704Y-114077044D01*
X197906230Y-114294104D01*
X198009849Y-114497466D01*
X198144004Y-114682114D01*
X198305385Y-114843495D01*
X198490033Y-114977650D01*
X198693395Y-115081269D01*
X198910455Y-115151795D01*
X199135884Y-115187500D01*
X199950000Y-115187500D01*
X199950000Y-114117500D01*
X200450000Y-114117500D01*
X200450000Y-115187500D01*
X201264116Y-115187500D01*
X201489544Y-115151795D01*
X201706604Y-115081269D01*
X201909966Y-114977650D01*
X202094614Y-114843495D01*
X202255995Y-114682114D01*
X202390150Y-114497466D01*
X202493769Y-114294104D01*
X202564295Y-114077044D01*
X202578478Y-113987500D01*
X201632401Y-113987500D01*
X201649076Y-113970825D01*
X201699104Y-113884175D01*
X201725000Y-113787528D01*
X201725000Y-113687472D01*
X201699104Y-113590825D01*
X201649076Y-113504175D01*
X201632401Y-113487500D01*
X202578478Y-113487500D01*
X202564295Y-113397955D01*
X202493769Y-113180895D01*
X202390150Y-112977533D01*
X202255995Y-112792885D01*
X202094614Y-112631504D01*
X201909966Y-112497349D01*
X201706604Y-112393730D01*
X201489544Y-112323204D01*
X201264116Y-112287500D01*
X200450000Y-112287500D01*
X200450000Y-113357500D01*
X199950000Y-113357500D01*
X199950000Y-112287500D01*
X199135884Y-112287500D01*
X198910455Y-112323204D01*
X198693395Y-112393730D01*
X198490033Y-112497349D01*
X198305385Y-112631504D01*
X198144004Y-112792885D01*
X198009849Y-112977533D01*
X197906230Y-113180895D01*
X197835704Y-113397955D01*
X197821522Y-113487500D01*
X197404243Y-113487500D01*
X197397054Y-110687844D01*
X198425000Y-110687844D01*
X198431401Y-110747372D01*
X198431403Y-110747379D01*
X198481645Y-110882086D01*
X198481649Y-110882093D01*
X198567809Y-110997187D01*
X198567812Y-110997190D01*
X198682906Y-111083350D01*
X198682913Y-111083354D01*
X198817620Y-111133596D01*
X198817627Y-111133598D01*
X198877155Y-111139999D01*
X198877172Y-111140000D01*
X200250000Y-111140000D01*
X200750000Y-111140000D01*
X202122828Y-111140000D01*
X202122844Y-111139999D01*
X202182372Y-111133598D01*
X202182379Y-111133596D01*
X202317086Y-111083354D01*
X202317093Y-111083350D01*
X202432187Y-110997190D01*
X202432190Y-110997187D01*
X202518350Y-110882093D01*
X202518354Y-110882086D01*
X202568596Y-110747379D01*
X202568598Y-110747372D01*
X202574999Y-110687844D01*
X202575000Y-110687827D01*
X202575000Y-110000000D01*
X200750000Y-110000000D01*
X200750000Y-111140000D01*
X200250000Y-111140000D01*
X200250000Y-110000000D01*
X198425000Y-110000000D01*
X198425000Y-110687844D01*
X197397054Y-110687844D01*
X197392598Y-108952217D01*
X197393168Y-108940045D01*
X197405482Y-108812155D01*
X198425000Y-108812155D01*
X198425000Y-109500000D01*
X200250000Y-109500000D01*
X200750000Y-109500000D01*
X202575000Y-109500000D01*
X202575000Y-108812172D01*
X202574999Y-108812155D01*
X202568598Y-108752627D01*
X202568596Y-108752620D01*
X202518354Y-108617913D01*
X202518350Y-108617906D01*
X202432190Y-108502812D01*
X202432187Y-108502809D01*
X202317093Y-108416649D01*
X202317086Y-108416645D01*
X202182379Y-108366403D01*
X202182372Y-108366401D01*
X202122844Y-108360000D01*
X200750000Y-108360000D01*
X200750000Y-109500000D01*
X200250000Y-109500000D01*
X200250000Y-108360000D01*
X198877155Y-108360000D01*
X198817627Y-108366401D01*
X198817620Y-108366403D01*
X198682913Y-108416645D01*
X198682906Y-108416649D01*
X198567812Y-108502809D01*
X198567809Y-108502812D01*
X198481649Y-108617906D01*
X198481645Y-108617913D01*
X198431403Y-108752620D01*
X198431401Y-108752627D01*
X198425000Y-108812155D01*
X197405482Y-108812155D01*
X197410269Y-108762437D01*
X197414983Y-108738505D01*
X197464761Y-108573567D01*
X197474076Y-108551016D01*
X197545784Y-108416645D01*
X197555184Y-108399029D01*
X197568730Y-108378744D01*
X197678045Y-108245572D01*
X197695293Y-108228341D01*
X197828573Y-108119154D01*
X197848854Y-108105638D01*
X198000950Y-108024660D01*
X198023482Y-108015380D01*
X198188480Y-107965760D01*
X198212410Y-107961069D01*
X198390047Y-107944139D01*
X198402222Y-107943582D01*
X200777353Y-107951990D01*
G37*
%TD.AperFunction*%
%TD*%
M02*
