%TF.GenerationSoftware,KiCad,Pcbnew,9.0.0*%
%TF.CreationDate,2025-04-23T05:04:15-04:00*%
%TF.ProjectId,W4MLB_Band_Display_V2,57344d4c-425f-4426-916e-645f44697370,1.0*%
%TF.SameCoordinates,Original*%
%TF.FileFunction,Copper,L2,Bot*%
%TF.FilePolarity,Positive*%
%FSLAX46Y46*%
G04 Gerber Fmt 4.6, Leading zero omitted, Abs format (unit mm)*
G04 Created by KiCad (PCBNEW 9.0.0) date 2025-04-23 05:04:15*
%MOMM*%
%LPD*%
G01*
G04 APERTURE LIST*
%TA.AperFunction,ComponentPad*%
%ADD10C,1.620010*%
%TD*%
%TA.AperFunction,ComponentPad*%
%ADD11O,1.800000X3.600000*%
%TD*%
%TA.AperFunction,ComponentPad*%
%ADD12O,4.000000X2.000000*%
%TD*%
%TA.AperFunction,ComponentPad*%
%ADD13C,2.019300*%
%TD*%
%TA.AperFunction,ComponentPad*%
%ADD14R,2.000000X2.000000*%
%TD*%
%TA.AperFunction,ComponentPad*%
%ADD15C,2.000000*%
%TD*%
%TA.AperFunction,ComponentPad*%
%ADD16R,1.390000X1.390000*%
%TD*%
%TA.AperFunction,ComponentPad*%
%ADD17C,1.390000*%
%TD*%
%TA.AperFunction,ComponentPad*%
%ADD18O,3.800000X1.900000*%
%TD*%
%TA.AperFunction,ComponentPad*%
%ADD19O,1.900000X3.800000*%
%TD*%
%TA.AperFunction,ComponentPad*%
%ADD20R,1.700000X1.700000*%
%TD*%
%TA.AperFunction,ComponentPad*%
%ADD21O,1.700000X1.700000*%
%TD*%
%TA.AperFunction,ComponentPad*%
%ADD22R,1.370000X1.370000*%
%TD*%
%TA.AperFunction,ComponentPad*%
%ADD23C,1.370000*%
%TD*%
%TA.AperFunction,ViaPad*%
%ADD24C,0.700000*%
%TD*%
%TA.AperFunction,ViaPad*%
%ADD25C,0.600000*%
%TD*%
%TA.AperFunction,Conductor*%
%ADD26C,0.200000*%
%TD*%
%TA.AperFunction,Conductor*%
%ADD27C,0.254000*%
%TD*%
G04 APERTURE END LIST*
D10*
%TO.P,J4,16,16*%
%TO.N,GND*%
X178250000Y-97460000D03*
%TO.P,J4,15,15*%
%TO.N,GPIO13*%
X178250000Y-100000000D03*
%TO.P,J4,14,14*%
%TO.N,GPIO15*%
X175710000Y-97460000D03*
%TO.P,J4,13,13*%
%TO.N,GPIO12*%
X175710000Y-100000000D03*
%TO.P,J4,12,12*%
%TO.N,GPIO4*%
X173170000Y-97460000D03*
%TO.P,J4,11,11*%
%TO.N,GPIO14*%
X173170000Y-100000000D03*
%TO.P,J4,10,10*%
%TO.N,GPIO16*%
X170630000Y-97460000D03*
%TO.P,J4,9,9*%
%TO.N,GPIO27*%
X170630000Y-100000000D03*
%TO.P,J4,8,8*%
%TO.N,GPIO17*%
X168090000Y-97460000D03*
%TO.P,J4,7,7*%
%TO.N,GPIO26*%
X168090000Y-100000000D03*
%TO.P,J4,6,6*%
%TO.N,GPIO5*%
X165550000Y-97460000D03*
%TO.P,J4,5,5*%
%TO.N,GPIO25*%
X165550000Y-100000000D03*
%TO.P,J4,4,4*%
%TO.N,GND*%
X163010000Y-97460000D03*
%TO.P,J4,3,3*%
%TO.N,GPIO33*%
X163010000Y-100000000D03*
%TO.P,J4,2,2*%
%TO.N,GPIO18*%
X160470000Y-97460000D03*
%TO.P,J4,1,1*%
%TO.N,GPIO32*%
X160470000Y-100000000D03*
%TD*%
D11*
%TO.P,J6,3*%
%TO.N,GND*%
X155017500Y-121300000D03*
%TO.P,J6,2*%
%TO.N,GPIO35*%
X147517500Y-121300000D03*
D12*
%TO.P,J6,1*%
%TO.N,GND*%
X151267500Y-125000000D03*
%TD*%
D11*
%TO.P,J5,3*%
%TO.N,GND*%
X139767500Y-121300000D03*
%TO.P,J5,2*%
%TO.N,GPIO34*%
X132267500Y-121300000D03*
D12*
%TO.P,J5,1*%
%TO.N,GND*%
X136017500Y-125000000D03*
%TD*%
D13*
%TO.P,J7,01_1,01*%
%TO.N,+5V*%
X210260000Y-86990000D03*
%TO.P,J7,02_1,02*%
X210260000Y-90950000D03*
%TO.P,J7,03_1,03*%
%TO.N,GND*%
X210260000Y-94910000D03*
%TO.P,J7,04_1,04*%
X210260000Y-98870000D03*
%TO.P,J7,01_2,01__1*%
%TO.N,+5V*%
X207800000Y-86990000D03*
%TO.P,J7,02_2,02__1*%
X207800000Y-90950000D03*
%TO.P,J7,03_2,03__1*%
%TO.N,GND*%
X207800000Y-94910000D03*
%TO.P,J7,04_2,04__1*%
X207800000Y-98870000D03*
%TD*%
D14*
%TO.P,BZ1,1,+*%
%TO.N,+5V*%
X197500000Y-74000000D03*
D15*
%TO.P,BZ1,2,-*%
%TO.N,Net-(BZ1--)*%
X189900000Y-74000000D03*
%TD*%
D16*
%TO.P,J2,01,01*%
%TO.N,GPIO23*%
X147230000Y-71860000D03*
D17*
%TO.P,J2,02,02*%
%TO.N,GPIO22*%
X147230000Y-74400000D03*
%TO.P,J2,03,03*%
%TO.N,GPIO1*%
X147230000Y-76940000D03*
%TO.P,J2,04,04*%
%TO.N,GPIO3*%
X147230000Y-79480000D03*
%TO.P,J2,05,05*%
%TO.N,GPIO21*%
X147230000Y-82020000D03*
%TO.P,J2,06,06*%
%TO.N,GPIO19*%
X147230000Y-84560000D03*
%TO.P,J2,07,07*%
%TO.N,GPIO18*%
X147230000Y-87100000D03*
%TO.P,J2,08,08*%
%TO.N,GPIO5*%
X147230000Y-89640000D03*
%TO.P,J2,09,09*%
%TO.N,GPIO17*%
X147230000Y-92180000D03*
%TO.P,J2,10,10*%
%TO.N,GPIO16*%
X147230000Y-94720000D03*
%TO.P,J2,11,11*%
%TO.N,GPIO4*%
X147230000Y-97260000D03*
%TO.P,J2,12,12*%
%TO.N,GPIO2*%
X147230000Y-99800000D03*
%TO.P,J2,13,13*%
%TO.N,GPIO15*%
X147230000Y-102340000D03*
%TO.P,J2,14,14*%
%TO.N,GND*%
X147230000Y-104880000D03*
%TO.P,J2,15,15*%
%TO.N,/+3.3VDC*%
X147230000Y-107420000D03*
%TD*%
D18*
%TO.P,J8,1*%
%TO.N,/PWR IN*%
X200200000Y-113737500D03*
%TO.P,J8,2*%
%TO.N,GND*%
X200200000Y-119667500D03*
D19*
%TO.P,J8,3*%
X204850000Y-116417500D03*
%TD*%
D20*
%TO.P,J9,1,Pin_1*%
%TO.N,GPIO36*%
X157930000Y-66500000D03*
D21*
%TO.P,J9,2,Pin_2*%
%TO.N,GPIO39*%
X160470000Y-66500000D03*
%TO.P,J9,3,Pin_3*%
%TO.N,GPIO21*%
X163010000Y-66500000D03*
%TO.P,J9,4,Pin_4*%
%TO.N,GPIO22*%
X165550000Y-66500000D03*
%TO.P,J9,5,Pin_5*%
%TO.N,GPIO1*%
X168090000Y-66500000D03*
%TO.P,J9,6,Pin_6*%
%TO.N,GPIO3*%
X170630000Y-66500000D03*
%TO.P,J9,7,Pin_7*%
%TO.N,GND*%
X173170000Y-66500000D03*
%TO.P,J9,8,Pin_8*%
%TO.N,/+3.3VDC*%
X175710000Y-66500000D03*
%TO.P,J9,9,Pin_9*%
%TO.N,+5V*%
X178250000Y-66500000D03*
%TD*%
D14*
%TO.P,U1,1,3V3*%
%TO.N,unconnected-(U1-3V3-Pad1)*%
X16350000Y-153190000D03*
D15*
%TO.P,U1,2,GND*%
%TO.N,unconnected-(U1-GND-Pad2)*%
X16350000Y-155730000D03*
%TO.P,U1,3,D15*%
%TO.N,unconnected-(U1-D15-Pad3)*%
X16350000Y-158270000D03*
%TO.P,U1,4,D2*%
%TO.N,unconnected-(U1-D2-Pad4)*%
X16350000Y-160810000D03*
%TO.P,U1,5,D4*%
%TO.N,unconnected-(U1-D4-Pad5)*%
X16350000Y-163350000D03*
%TO.P,U1,6,RX2*%
%TO.N,unconnected-(U1-RX2-Pad6)*%
X16350000Y-165890000D03*
%TO.P,U1,7,TX2*%
%TO.N,unconnected-(U1-TX2-Pad7)*%
X16350000Y-168430000D03*
%TO.P,U1,8,D5*%
%TO.N,unconnected-(U1-D5-Pad8)*%
X16350000Y-170970000D03*
%TO.P,U1,9,D18*%
%TO.N,unconnected-(U1-D18-Pad9)*%
X16350000Y-173510000D03*
%TO.P,U1,10,D19*%
%TO.N,unconnected-(U1-D19-Pad10)*%
X16350000Y-176050000D03*
%TO.P,U1,11,D21*%
%TO.N,unconnected-(U1-D21-Pad11)*%
X16350000Y-178590000D03*
%TO.P,U1,12,RX0*%
%TO.N,unconnected-(U1-RX0-Pad12)*%
X16350000Y-181130000D03*
%TO.P,U1,13,TX0*%
%TO.N,unconnected-(U1-TX0-Pad13)*%
X16350000Y-183670000D03*
%TO.P,U1,14,D22*%
%TO.N,unconnected-(U1-D22-Pad14)*%
X16350000Y-186210000D03*
%TO.P,U1,15,D23*%
%TO.N,unconnected-(U1-D23-Pad15)*%
X16350000Y-188750000D03*
%TO.P,U1,16,EN*%
%TO.N,unconnected-(U1-EN-Pad16)*%
X41750000Y-188750000D03*
%TO.P,U1,17,VP*%
%TO.N,unconnected-(U1-VP-Pad17)*%
X41750000Y-186210000D03*
%TO.P,U1,18,VN*%
%TO.N,unconnected-(U1-VN-Pad18)*%
X41750000Y-183670000D03*
%TO.P,U1,19,D34*%
%TO.N,unconnected-(U1-D34-Pad19)*%
X41750000Y-181130000D03*
%TO.P,U1,20,D35*%
%TO.N,unconnected-(U1-D35-Pad20)*%
X41750000Y-178590000D03*
%TO.P,U1,21,D32*%
%TO.N,unconnected-(U1-D32-Pad21)*%
X41750000Y-176050000D03*
%TO.P,U1,22,D33*%
%TO.N,unconnected-(U1-D33-Pad22)*%
X41750000Y-173510000D03*
%TO.P,U1,23,D25*%
%TO.N,unconnected-(U1-D25-Pad23)*%
X41750000Y-170970000D03*
%TO.P,U1,24,D26*%
%TO.N,unconnected-(U1-D26-Pad24)*%
X41750000Y-168430000D03*
%TO.P,U1,25,D27*%
%TO.N,unconnected-(U1-D27-Pad25)*%
X41750000Y-165890000D03*
%TO.P,U1,26,D14*%
%TO.N,unconnected-(U1-D14-Pad26)*%
X41750000Y-163350000D03*
%TO.P,U1,27,D12*%
%TO.N,unconnected-(U1-D12-Pad27)*%
X41750000Y-160810000D03*
%TO.P,U1,28,D13*%
%TO.N,unconnected-(U1-D13-Pad28)*%
X41750000Y-158270000D03*
%TO.P,U1,29,GND__1*%
%TO.N,unconnected-(U1-GND__1-Pad29)*%
X41750000Y-155730000D03*
%TO.P,U1,30,VIN*%
%TO.N,unconnected-(U1-VIN-Pad30)*%
X41750000Y-153190000D03*
%TD*%
D14*
%TO.P,C2,1*%
%TO.N,+5V*%
X192000000Y-121500000D03*
D15*
%TO.P,C2,2*%
%TO.N,GND*%
X187000000Y-121500000D03*
%TD*%
D16*
%TO.P,J1,01,01*%
%TO.N,unconnected-(J1-Pad01)*%
X121830000Y-71860000D03*
D17*
%TO.P,J1,02,02*%
%TO.N,GPIO36*%
X121830000Y-74400000D03*
%TO.P,J1,03,03*%
%TO.N,GPIO39*%
X121830000Y-76940000D03*
%TO.P,J1,04,04*%
%TO.N,GPIO34*%
X121830000Y-79480000D03*
%TO.P,J1,05,05*%
%TO.N,GPIO35*%
X121830000Y-82020000D03*
%TO.P,J1,06,06*%
%TO.N,GPIO32*%
X121830000Y-84560000D03*
%TO.P,J1,07,07*%
%TO.N,GPIO33*%
X121830000Y-87100000D03*
%TO.P,J1,08,08*%
%TO.N,GPIO25*%
X121830000Y-89640000D03*
%TO.P,J1,09,09*%
%TO.N,GPIO26*%
X121830000Y-92180000D03*
%TO.P,J1,10,10*%
%TO.N,GPIO27*%
X121830000Y-94720000D03*
%TO.P,J1,11,11*%
%TO.N,GPIO14*%
X121830000Y-97260000D03*
%TO.P,J1,12,12*%
%TO.N,GPIO12*%
X121830000Y-99800000D03*
%TO.P,J1,13,13*%
%TO.N,GPIO13*%
X121830000Y-102340000D03*
%TO.P,J1,14,14*%
%TO.N,GND*%
X121830000Y-104880000D03*
%TO.P,J1,15,15*%
%TO.N,+5V*%
X121830000Y-107420000D03*
%TD*%
D22*
%TO.P,J3,01,01*%
%TO.N,GPIO32*%
X133010000Y-80802500D03*
D23*
%TO.P,J3,02,02*%
%TO.N,GPIO18*%
X135550000Y-80802500D03*
%TO.P,J3,03,03*%
%TO.N,GPIO33*%
X133010000Y-83342500D03*
%TO.P,J3,04,04*%
%TO.N,GND*%
X135550000Y-83342500D03*
%TO.P,J3,05,05*%
%TO.N,GPIO25*%
X133010000Y-85882500D03*
%TO.P,J3,06,06*%
%TO.N,GPIO5*%
X135550000Y-85882500D03*
%TO.P,J3,07,07*%
%TO.N,GPIO26*%
X133010000Y-88422500D03*
%TO.P,J3,08,08*%
%TO.N,GPIO17*%
X135550000Y-88422500D03*
%TO.P,J3,09,09*%
%TO.N,GPIO27*%
X133010000Y-90962500D03*
%TO.P,J3,10,10*%
%TO.N,GPIO16*%
X135550000Y-90962500D03*
%TO.P,J3,11,11*%
%TO.N,GPIO14*%
X133010000Y-93502500D03*
%TO.P,J3,12,12*%
%TO.N,GPIO4*%
X135550000Y-93502500D03*
%TO.P,J3,13,13*%
%TO.N,GPIO12*%
X133010000Y-96042500D03*
%TO.P,J3,14,14*%
%TO.N,GPIO15*%
X135550000Y-96042500D03*
%TO.P,J3,15,15*%
%TO.N,GPIO13*%
X133010000Y-98582500D03*
%TO.P,J3,16,16*%
%TO.N,GND*%
X135550000Y-98582500D03*
%TD*%
D24*
%TO.N,GND*%
X209875000Y-74500000D03*
D25*
%TO.N,GPIO5*%
X165550000Y-87922857D03*
%TO.N,GPIO17*%
X168090000Y-89218571D03*
%TO.N,GPIO4*%
X173150000Y-90864286D03*
D24*
%TO.N,GND*%
X183630000Y-76140000D03*
%TO.N,GPIO2*%
X177900000Y-75650000D03*
%TO.N,GND*%
X127980000Y-82000000D03*
X128000000Y-79450000D03*
X204500000Y-102600000D03*
D25*
%TO.N,GPIO32*%
X131200000Y-80802500D03*
%TO.N,GPIO13*%
X124200000Y-102362500D03*
%TO.N,GPIO33*%
X130200000Y-83882500D03*
%TO.N,GPIO25*%
X129200000Y-86962500D03*
%TO.N,GPIO27*%
X127200000Y-93122500D03*
%TO.N,GPIO26*%
X128200000Y-90042500D03*
%TO.N,GPIO14*%
X126200000Y-96202500D03*
%TO.N,GPIO12*%
X125200000Y-99282500D03*
%TO.N,GPIO18*%
X160470000Y-87100000D03*
%TO.N,GPIO15*%
X175710000Y-92130000D03*
%TO.N,GPIO16*%
X170630000Y-90041429D03*
%TD*%
D26*
%TO.N,GPIO2*%
X144400000Y-77150000D02*
X144400000Y-98150000D01*
X145900000Y-75650000D02*
X144400000Y-77150000D01*
X177900000Y-75650000D02*
X145900000Y-75650000D01*
X144400000Y-98150000D02*
X146050000Y-99800000D01*
X146050000Y-99800000D02*
X147230000Y-99800000D01*
%TO.N,GPIO35*%
X120050000Y-83800000D02*
X121830000Y-82020000D01*
X120050000Y-114450000D02*
X120050000Y-83800000D01*
X124200000Y-118600000D02*
X120050000Y-114450000D01*
X142650000Y-118600000D02*
X124200000Y-118600000D01*
X145350000Y-121300000D02*
X142650000Y-118600000D01*
X147517500Y-121300000D02*
X145350000Y-121300000D01*
%TO.N,GPIO15*%
X148910000Y-102340000D02*
X155950000Y-95300000D01*
X155950000Y-95300000D02*
X173700000Y-95300000D01*
X173700000Y-95300000D02*
X175710000Y-93290000D01*
X147230000Y-102340000D02*
X148910000Y-102340000D01*
X175710000Y-93290000D02*
X175710000Y-92130000D01*
%TO.N,GPIO4*%
X173150000Y-92400000D02*
X173150000Y-90864286D01*
X153740000Y-94460000D02*
X171090000Y-94460000D01*
X150940000Y-97260000D02*
X153740000Y-94460000D01*
X171090000Y-94460000D02*
X173150000Y-92400000D01*
X147230000Y-97260000D02*
X150940000Y-97260000D01*
%TO.N,GPIO16*%
X170630000Y-91470000D02*
X170630000Y-90041429D01*
X168640000Y-93460000D02*
X170630000Y-91470000D01*
X150730000Y-94720000D02*
X151990000Y-93460000D01*
X151990000Y-93460000D02*
X168640000Y-93460000D01*
X147230000Y-94720000D02*
X150730000Y-94720000D01*
%TO.N,GPIO17*%
X168090000Y-90960000D02*
X168090000Y-89218571D01*
X166870000Y-92180000D02*
X168090000Y-90960000D01*
X147230000Y-92180000D02*
X166870000Y-92180000D01*
%TO.N,GPIO18*%
X147230000Y-87100000D02*
X160470000Y-87100000D01*
%TO.N,GPIO5*%
X163832857Y-89640000D02*
X155090000Y-89640000D01*
X165550000Y-87922857D02*
X163832857Y-89640000D01*
X147230000Y-89640000D02*
X155090000Y-89640000D01*
%TO.N,GPIO33*%
X160726857Y-110273143D02*
X163010000Y-107990000D01*
X163010000Y-107990000D02*
X163010000Y-100000000D01*
X136823143Y-110273143D02*
X160726857Y-110273143D01*
X130200000Y-103650000D02*
X136823143Y-110273143D01*
X130200000Y-83882500D02*
X130200000Y-103650000D01*
%TO.N,GPIO25*%
X165550000Y-109050000D02*
X165550000Y-100000000D01*
X163130714Y-111469286D02*
X165550000Y-109050000D01*
X135919286Y-111469286D02*
X163130714Y-111469286D01*
X129200000Y-104750000D02*
X135919286Y-111469286D01*
X129200000Y-86962500D02*
X129200000Y-104750000D01*
%TO.N,GPIO26*%
X168090000Y-110410000D02*
X168090000Y-100000000D01*
X165834571Y-112665429D02*
X168090000Y-110410000D01*
X128200000Y-105700000D02*
X135165429Y-112665429D01*
X135165429Y-112665429D02*
X165834571Y-112665429D01*
X128200000Y-90042500D02*
X128200000Y-105700000D01*
%TO.N,GPIO27*%
X170630000Y-111770000D02*
X170630000Y-100000000D01*
X168538429Y-113861571D02*
X170630000Y-111770000D01*
X127200000Y-93122500D02*
X127200000Y-106350000D01*
X127200000Y-106350000D02*
X134711571Y-113861571D01*
X134711571Y-113861571D02*
X168538429Y-113861571D01*
%TO.N,GPIO12*%
X171953857Y-116350000D02*
X172050000Y-116253857D01*
X133850000Y-116350000D02*
X171953857Y-116350000D01*
X125200000Y-107700000D02*
X133850000Y-116350000D01*
X125200000Y-99282500D02*
X125200000Y-107700000D01*
%TO.N,GPIO15*%
X175710000Y-97460000D02*
X175710000Y-97490000D01*
%TO.N,GPIO14*%
X170650000Y-115050000D02*
X173170000Y-112530000D01*
%TO.N,GPIO12*%
X172050000Y-116300000D02*
X175710000Y-112640000D01*
D27*
%TO.N,GPIO32*%
X158400000Y-109050000D02*
X160470000Y-106980000D01*
X137150000Y-109050000D02*
X158400000Y-109050000D01*
X160470000Y-106980000D02*
X160470000Y-100000000D01*
X131220000Y-103120000D02*
X137150000Y-109050000D01*
X131220000Y-80802500D02*
X131220000Y-103120000D01*
D26*
%TO.N,GPIO14*%
X126200000Y-106850000D02*
X134400000Y-115050000D01*
X134400000Y-115057714D02*
X170650000Y-115057714D01*
X126200000Y-96202500D02*
X126200000Y-106850000D01*
X173170000Y-112530000D02*
X173170000Y-100000000D01*
%TO.N,GPIO12*%
X175710000Y-112640000D02*
X175710000Y-100000000D01*
%TO.N,GPIO13*%
X178250000Y-112850000D02*
X178250000Y-100000000D01*
X173650000Y-117450000D02*
X178250000Y-112850000D01*
X133300000Y-117450000D02*
X173650000Y-117450000D01*
X124140000Y-108290000D02*
X133300000Y-117450000D01*
X124140000Y-102340000D02*
X124140000Y-108290000D01*
%TO.N,GND*%
X181960000Y-102250000D02*
X182000000Y-102290000D01*
%TD*%
%TA.AperFunction,Conductor*%
%TO.N,GND*%
G36*
X212804418Y-64000816D02*
G01*
X213004561Y-64015130D01*
X213022063Y-64017647D01*
X213213797Y-64059355D01*
X213230755Y-64064334D01*
X213414609Y-64132909D01*
X213430701Y-64140259D01*
X213602904Y-64234288D01*
X213617784Y-64243849D01*
X213774867Y-64361441D01*
X213788237Y-64373027D01*
X213926972Y-64511762D01*
X213938558Y-64525132D01*
X214056146Y-64682210D01*
X214065711Y-64697095D01*
X214159740Y-64869298D01*
X214167090Y-64885390D01*
X214235662Y-65069236D01*
X214240646Y-65086212D01*
X214282351Y-65277931D01*
X214284869Y-65295442D01*
X214299184Y-65495580D01*
X214299500Y-65504427D01*
X214299500Y-125995572D01*
X214299184Y-126004419D01*
X214284869Y-126204557D01*
X214282351Y-126222068D01*
X214240646Y-126413787D01*
X214235662Y-126430763D01*
X214167090Y-126614609D01*
X214159740Y-126630701D01*
X214065711Y-126802904D01*
X214056146Y-126817789D01*
X213938558Y-126974867D01*
X213926972Y-126988237D01*
X213788237Y-127126972D01*
X213774867Y-127138558D01*
X213617789Y-127256146D01*
X213602904Y-127265711D01*
X213430701Y-127359740D01*
X213414609Y-127367090D01*
X213230763Y-127435662D01*
X213213787Y-127440646D01*
X213022068Y-127482351D01*
X213004557Y-127484869D01*
X212823779Y-127497799D01*
X212804417Y-127499184D01*
X212795572Y-127499500D01*
X121004428Y-127499500D01*
X120995582Y-127499184D01*
X120973622Y-127497613D01*
X120795442Y-127484869D01*
X120777931Y-127482351D01*
X120586212Y-127440646D01*
X120569236Y-127435662D01*
X120385390Y-127367090D01*
X120369298Y-127359740D01*
X120197095Y-127265711D01*
X120182210Y-127256146D01*
X120025132Y-127138558D01*
X120011762Y-127126972D01*
X119873027Y-126988237D01*
X119861441Y-126974867D01*
X119743849Y-126817784D01*
X119734288Y-126802904D01*
X119640259Y-126630701D01*
X119632909Y-126614609D01*
X119564334Y-126430755D01*
X119559355Y-126413797D01*
X119517647Y-126222063D01*
X119515130Y-126204556D01*
X119500816Y-126004418D01*
X119500500Y-125995572D01*
X119500500Y-124358179D01*
X121185034Y-124358179D01*
X121185034Y-124570753D01*
X121218288Y-124780709D01*
X121268739Y-124935981D01*
X121283978Y-124982880D01*
X121380485Y-125172286D01*
X121505424Y-125344252D01*
X121655747Y-125494575D01*
X121827713Y-125619514D01*
X121827715Y-125619515D01*
X121827718Y-125619517D01*
X122017122Y-125716023D01*
X122219291Y-125781712D01*
X122429247Y-125814966D01*
X122429248Y-125814966D01*
X122641820Y-125814966D01*
X122641821Y-125814966D01*
X122851777Y-125781712D01*
X123053946Y-125716023D01*
X123243350Y-125619517D01*
X123303519Y-125575802D01*
X123415320Y-125494575D01*
X123415322Y-125494572D01*
X123415326Y-125494570D01*
X123565638Y-125344258D01*
X123565640Y-125344254D01*
X123565643Y-125344252D01*
X123690584Y-125172283D01*
X123698555Y-125156641D01*
X123729439Y-125096026D01*
X123787091Y-124982878D01*
X123852780Y-124780709D01*
X123857644Y-124750000D01*
X133538398Y-124750000D01*
X134817499Y-124750000D01*
X134792479Y-124810402D01*
X134767500Y-124935981D01*
X134767500Y-125064019D01*
X134792479Y-125189598D01*
X134817499Y-125250000D01*
X133538398Y-125250000D01*
X133554434Y-125351247D01*
X133627397Y-125575802D01*
X133734585Y-125786171D01*
X133873366Y-125977186D01*
X134040313Y-126144133D01*
X134231328Y-126282914D01*
X134441697Y-126390102D01*
X134666252Y-126463065D01*
X134666251Y-126463065D01*
X134899448Y-126500000D01*
X135767500Y-126500000D01*
X135767500Y-125650000D01*
X136267500Y-125650000D01*
X136267500Y-126500000D01*
X137135552Y-126500000D01*
X137368747Y-126463065D01*
X137593302Y-126390102D01*
X137803671Y-126282914D01*
X137994686Y-126144133D01*
X138161633Y-125977186D01*
X138300414Y-125786171D01*
X138407602Y-125575802D01*
X138480565Y-125351247D01*
X138496602Y-125250000D01*
X137217501Y-125250000D01*
X137242521Y-125189598D01*
X137267500Y-125064019D01*
X137267500Y-124935981D01*
X137242521Y-124810402D01*
X137217501Y-124750000D01*
X138496602Y-124750000D01*
X148788398Y-124750000D01*
X150067499Y-124750000D01*
X150042479Y-124810402D01*
X150017500Y-124935981D01*
X150017500Y-125064019D01*
X150042479Y-125189598D01*
X150067499Y-125250000D01*
X148788398Y-125250000D01*
X148804434Y-125351247D01*
X148877397Y-125575802D01*
X148984585Y-125786171D01*
X149123366Y-125977186D01*
X149290313Y-126144133D01*
X149481328Y-126282914D01*
X149691697Y-126390102D01*
X149916252Y-126463065D01*
X149916251Y-126463065D01*
X150149448Y-126500000D01*
X151017500Y-126500000D01*
X151017500Y-125650000D01*
X151517500Y-125650000D01*
X151517500Y-126500000D01*
X152385552Y-126500000D01*
X152618747Y-126463065D01*
X152843302Y-126390102D01*
X153053671Y-126282914D01*
X153244686Y-126144133D01*
X153411633Y-125977186D01*
X153550414Y-125786171D01*
X153657602Y-125575802D01*
X153730565Y-125351247D01*
X153746602Y-125250000D01*
X152467501Y-125250000D01*
X152492521Y-125189598D01*
X152517500Y-125064019D01*
X152517500Y-124935981D01*
X152492521Y-124810402D01*
X152467501Y-124750000D01*
X153746602Y-124750000D01*
X153730565Y-124648752D01*
X153657602Y-124424197D01*
X153650166Y-124409602D01*
X153623965Y-124358179D01*
X209913966Y-124358179D01*
X209913966Y-124570753D01*
X209947220Y-124780709D01*
X209997671Y-124935981D01*
X210012910Y-124982880D01*
X210109417Y-125172286D01*
X210234356Y-125344252D01*
X210384679Y-125494575D01*
X210556645Y-125619514D01*
X210556647Y-125619515D01*
X210556650Y-125619517D01*
X210746054Y-125716023D01*
X210948223Y-125781712D01*
X211158179Y-125814966D01*
X211158180Y-125814966D01*
X211370752Y-125814966D01*
X211370753Y-125814966D01*
X211580709Y-125781712D01*
X211782878Y-125716023D01*
X211972282Y-125619517D01*
X212032451Y-125575802D01*
X212144252Y-125494575D01*
X212144254Y-125494572D01*
X212144258Y-125494570D01*
X212294570Y-125344258D01*
X212294572Y-125344254D01*
X212294575Y-125344252D01*
X212419514Y-125172286D01*
X212419516Y-125172283D01*
X212419517Y-125172282D01*
X212516023Y-124982878D01*
X212581712Y-124780709D01*
X212614966Y-124570753D01*
X212614966Y-124358179D01*
X212581712Y-124148223D01*
X212516023Y-123946054D01*
X212419517Y-123756650D01*
X212419515Y-123756647D01*
X212419514Y-123756645D01*
X212294575Y-123584679D01*
X212144252Y-123434356D01*
X211972286Y-123309417D01*
X211782880Y-123212910D01*
X211782879Y-123212909D01*
X211782878Y-123212909D01*
X211580709Y-123147220D01*
X211580707Y-123147219D01*
X211580706Y-123147219D01*
X211419423Y-123121674D01*
X211370753Y-123113966D01*
X211158179Y-123113966D01*
X211109508Y-123121674D01*
X210948226Y-123147219D01*
X210746051Y-123212910D01*
X210556645Y-123309417D01*
X210384679Y-123434356D01*
X210234356Y-123584679D01*
X210109417Y-123756645D01*
X210012910Y-123946051D01*
X209947219Y-124148226D01*
X209936829Y-124213828D01*
X209913966Y-124358179D01*
X153623965Y-124358179D01*
X153550414Y-124213828D01*
X153411633Y-124022813D01*
X153244686Y-123855866D01*
X153053671Y-123717085D01*
X152843302Y-123609897D01*
X152618747Y-123536934D01*
X152618748Y-123536934D01*
X152385552Y-123500000D01*
X151517500Y-123500000D01*
X151517500Y-124350000D01*
X151017500Y-124350000D01*
X151017500Y-123500000D01*
X150149448Y-123500000D01*
X149916252Y-123536934D01*
X149691697Y-123609897D01*
X149481328Y-123717085D01*
X149290313Y-123855866D01*
X149123366Y-124022813D01*
X148984585Y-124213828D01*
X148877397Y-124424197D01*
X148804434Y-124648752D01*
X148788398Y-124750000D01*
X138496602Y-124750000D01*
X138480565Y-124648752D01*
X138407602Y-124424197D01*
X138300414Y-124213828D01*
X138161633Y-124022813D01*
X137994686Y-123855866D01*
X137803671Y-123717085D01*
X137593302Y-123609897D01*
X137368747Y-123536934D01*
X137368748Y-123536934D01*
X137135552Y-123500000D01*
X136267500Y-123500000D01*
X136267500Y-124350000D01*
X135767500Y-124350000D01*
X135767500Y-123500000D01*
X134899448Y-123500000D01*
X134666252Y-123536934D01*
X134441697Y-123609897D01*
X134231328Y-123717085D01*
X134040313Y-123855866D01*
X133873366Y-124022813D01*
X133734585Y-124213828D01*
X133627397Y-124424197D01*
X133554434Y-124648752D01*
X133538398Y-124750000D01*
X123857644Y-124750000D01*
X123886034Y-124570753D01*
X123886034Y-124358179D01*
X123852780Y-124148223D01*
X123787091Y-123946054D01*
X123690585Y-123756650D01*
X123690583Y-123756647D01*
X123690582Y-123756645D01*
X123565643Y-123584679D01*
X123415320Y-123434356D01*
X123243354Y-123309417D01*
X123053948Y-123212910D01*
X123053947Y-123212909D01*
X123053946Y-123212909D01*
X122851777Y-123147220D01*
X122851775Y-123147219D01*
X122851774Y-123147219D01*
X122690491Y-123121674D01*
X122641821Y-123113966D01*
X122429247Y-123113966D01*
X122380576Y-123121674D01*
X122219294Y-123147219D01*
X122017119Y-123212910D01*
X121827713Y-123309417D01*
X121655747Y-123434356D01*
X121505424Y-123584679D01*
X121380485Y-123756645D01*
X121283978Y-123946051D01*
X121218287Y-124148226D01*
X121207897Y-124213828D01*
X121185034Y-124358179D01*
X119500500Y-124358179D01*
X119500500Y-114836965D01*
X119520185Y-114769926D01*
X119572989Y-114724171D01*
X119642147Y-114714227D01*
X119705703Y-114743252D01*
X119712181Y-114749284D01*
X123923386Y-118960489D01*
X123923387Y-118960490D01*
X123923389Y-118960491D01*
X123982693Y-118994729D01*
X123982696Y-118994732D01*
X124016937Y-119014500D01*
X124026114Y-119019799D01*
X124140691Y-119050500D01*
X131645082Y-119050500D01*
X131712121Y-119070185D01*
X131757876Y-119122989D01*
X131767820Y-119192147D01*
X131738795Y-119255703D01*
X131701377Y-119284985D01*
X131612094Y-119330476D01*
X131566746Y-119363424D01*
X131452854Y-119446172D01*
X131452852Y-119446174D01*
X131452851Y-119446174D01*
X131313674Y-119585351D01*
X131313674Y-119585352D01*
X131313672Y-119585354D01*
X131290337Y-119617472D01*
X131197976Y-119744594D01*
X131108617Y-119919970D01*
X131047790Y-120107173D01*
X131017000Y-120301577D01*
X131017000Y-122298422D01*
X131047790Y-122492826D01*
X131108617Y-122680029D01*
X131161040Y-122782914D01*
X131197976Y-122855405D01*
X131313672Y-123014646D01*
X131452854Y-123153828D01*
X131612095Y-123269524D01*
X131690386Y-123309415D01*
X131787470Y-123358882D01*
X131787472Y-123358882D01*
X131787475Y-123358884D01*
X131887817Y-123391487D01*
X131974673Y-123419709D01*
X132169078Y-123450500D01*
X132169083Y-123450500D01*
X132365922Y-123450500D01*
X132560326Y-123419709D01*
X132747525Y-123358884D01*
X132922905Y-123269524D01*
X133082146Y-123153828D01*
X133221328Y-123014646D01*
X133337024Y-122855405D01*
X133426384Y-122680025D01*
X133487209Y-122492826D01*
X133493976Y-122450099D01*
X133518000Y-122298422D01*
X133518000Y-120301577D01*
X133487209Y-120107173D01*
X133426382Y-119919970D01*
X133379243Y-119827455D01*
X133337024Y-119744595D01*
X133221328Y-119585354D01*
X133082146Y-119446172D01*
X132922905Y-119330476D01*
X132833622Y-119284984D01*
X132782827Y-119237011D01*
X132766032Y-119169190D01*
X132788569Y-119103055D01*
X132843284Y-119059603D01*
X132889918Y-119050500D01*
X138861473Y-119050500D01*
X138928512Y-119070185D01*
X138974267Y-119122989D01*
X138984211Y-119192147D01*
X138955186Y-119255703D01*
X138934358Y-119274818D01*
X138855464Y-119332137D01*
X138855458Y-119332142D01*
X138699642Y-119487958D01*
X138570113Y-119666239D01*
X138470067Y-119862589D01*
X138401973Y-120072164D01*
X138367500Y-120289818D01*
X138367500Y-121050000D01*
X139267500Y-121050000D01*
X139267500Y-121550000D01*
X138367500Y-121550000D01*
X138367500Y-122310181D01*
X138401973Y-122527835D01*
X138470067Y-122737410D01*
X138570113Y-122933760D01*
X138699642Y-123112041D01*
X138855458Y-123267857D01*
X139033739Y-123397386D01*
X139230089Y-123497432D01*
X139439663Y-123565526D01*
X139517499Y-123577854D01*
X139517500Y-123577854D01*
X139517500Y-122483012D01*
X139574507Y-122515925D01*
X139701674Y-122550000D01*
X139833326Y-122550000D01*
X139960493Y-122515925D01*
X140017500Y-122483012D01*
X140017500Y-123577854D01*
X140095334Y-123565526D01*
X140095337Y-123565526D01*
X140304910Y-123497432D01*
X140501260Y-123397386D01*
X140679541Y-123267857D01*
X140835357Y-123112041D01*
X140964886Y-122933760D01*
X141064932Y-122737410D01*
X141133026Y-122527835D01*
X141167500Y-122310181D01*
X141167500Y-121550000D01*
X140267500Y-121550000D01*
X140267500Y-121050000D01*
X141167500Y-121050000D01*
X141167500Y-120289818D01*
X141133026Y-120072164D01*
X141064932Y-119862589D01*
X140964886Y-119666239D01*
X140835357Y-119487958D01*
X140679541Y-119332142D01*
X140679535Y-119332137D01*
X140600642Y-119274818D01*
X140557976Y-119219488D01*
X140551997Y-119149875D01*
X140584603Y-119088080D01*
X140645441Y-119053723D01*
X140673527Y-119050500D01*
X142412035Y-119050500D01*
X142479074Y-119070185D01*
X142499715Y-119086818D01*
X145073386Y-121660490D01*
X145176114Y-121719799D01*
X145290691Y-121750500D01*
X146143000Y-121750500D01*
X146210039Y-121770185D01*
X146255794Y-121822989D01*
X146267000Y-121874500D01*
X146267000Y-122298422D01*
X146297790Y-122492826D01*
X146358617Y-122680029D01*
X146411040Y-122782914D01*
X146447976Y-122855405D01*
X146563672Y-123014646D01*
X146702854Y-123153828D01*
X146862095Y-123269524D01*
X146940386Y-123309415D01*
X147037470Y-123358882D01*
X147037472Y-123358882D01*
X147037475Y-123358884D01*
X147137817Y-123391487D01*
X147224673Y-123419709D01*
X147419078Y-123450500D01*
X147419083Y-123450500D01*
X147615922Y-123450500D01*
X147810326Y-123419709D01*
X147997525Y-123358884D01*
X148172905Y-123269524D01*
X148332146Y-123153828D01*
X148471328Y-123014646D01*
X148587024Y-122855405D01*
X148676384Y-122680025D01*
X148737209Y-122492826D01*
X148743976Y-122450099D01*
X148768000Y-122298422D01*
X148768000Y-120301578D01*
X148766137Y-120289818D01*
X153617500Y-120289818D01*
X153617500Y-121050000D01*
X154517500Y-121050000D01*
X154517500Y-121550000D01*
X153617500Y-121550000D01*
X153617500Y-122310181D01*
X153651973Y-122527835D01*
X153720067Y-122737410D01*
X153820113Y-122933760D01*
X153949642Y-123112041D01*
X154105458Y-123267857D01*
X154283739Y-123397386D01*
X154480089Y-123497432D01*
X154689663Y-123565526D01*
X154767499Y-123577854D01*
X154767500Y-123577854D01*
X154767500Y-122483012D01*
X154824507Y-122515925D01*
X154951674Y-122550000D01*
X155083326Y-122550000D01*
X155210493Y-122515925D01*
X155267500Y-122483012D01*
X155267500Y-123577854D01*
X155345334Y-123565526D01*
X155345337Y-123565526D01*
X155554910Y-123497432D01*
X155751260Y-123397386D01*
X155929541Y-123267857D01*
X156085357Y-123112041D01*
X156214886Y-122933760D01*
X156314932Y-122737410D01*
X156347531Y-122637081D01*
X156383026Y-122527835D01*
X156417500Y-122310181D01*
X156417500Y-121550000D01*
X155517500Y-121550000D01*
X155517500Y-121381947D01*
X185500000Y-121381947D01*
X185500000Y-121618052D01*
X185536934Y-121851247D01*
X185609897Y-122075802D01*
X185717087Y-122286174D01*
X185777338Y-122369104D01*
X185777340Y-122369105D01*
X186517037Y-121629408D01*
X186534075Y-121692993D01*
X186599901Y-121807007D01*
X186692993Y-121900099D01*
X186807007Y-121965925D01*
X186870590Y-121982962D01*
X186130893Y-122722658D01*
X186213828Y-122782914D01*
X186424197Y-122890102D01*
X186648752Y-122963065D01*
X186648751Y-122963065D01*
X186881948Y-123000000D01*
X187118052Y-123000000D01*
X187351247Y-122963065D01*
X187575802Y-122890102D01*
X187786163Y-122782918D01*
X187786169Y-122782914D01*
X187869104Y-122722658D01*
X187869105Y-122722658D01*
X187129408Y-121982962D01*
X187192993Y-121965925D01*
X187307007Y-121900099D01*
X187400099Y-121807007D01*
X187465925Y-121692993D01*
X187482962Y-121629408D01*
X188222658Y-122369105D01*
X188222658Y-122369104D01*
X188282914Y-122286169D01*
X188282918Y-122286163D01*
X188390102Y-122075802D01*
X188463065Y-121851247D01*
X188500000Y-121618052D01*
X188500000Y-121381947D01*
X188463065Y-121148752D01*
X188390102Y-120924197D01*
X188282914Y-120713828D01*
X188222658Y-120630894D01*
X188222658Y-120630893D01*
X187482962Y-121370590D01*
X187465925Y-121307007D01*
X187400099Y-121192993D01*
X187307007Y-121099901D01*
X187192993Y-121034075D01*
X187129409Y-121017037D01*
X187679707Y-120466739D01*
X190649500Y-120466739D01*
X190649500Y-122533260D01*
X190659426Y-122601391D01*
X190710803Y-122706485D01*
X190793514Y-122789196D01*
X190793515Y-122789196D01*
X190793517Y-122789198D01*
X190898607Y-122840573D01*
X190932673Y-122845536D01*
X190966739Y-122850500D01*
X190966740Y-122850500D01*
X193033261Y-122850500D01*
X193055971Y-122847191D01*
X193101393Y-122840573D01*
X193206483Y-122789198D01*
X193289198Y-122706483D01*
X193340573Y-122601393D01*
X193350500Y-122533260D01*
X193350500Y-120466740D01*
X193340573Y-120398607D01*
X193289198Y-120293517D01*
X193289196Y-120293515D01*
X193289196Y-120293514D01*
X193206485Y-120210803D01*
X193101391Y-120159426D01*
X193033261Y-120149500D01*
X193033260Y-120149500D01*
X190966740Y-120149500D01*
X190966739Y-120149500D01*
X190898608Y-120159426D01*
X190793514Y-120210803D01*
X190710803Y-120293514D01*
X190659426Y-120398608D01*
X190649500Y-120466739D01*
X187679707Y-120466739D01*
X187771874Y-120374572D01*
X187869105Y-120277340D01*
X187869104Y-120277338D01*
X187786174Y-120217087D01*
X187575802Y-120109897D01*
X187351247Y-120036934D01*
X187351248Y-120036934D01*
X187136425Y-120002910D01*
X187118052Y-120000000D01*
X186881948Y-120000000D01*
X186648752Y-120036934D01*
X186424197Y-120109897D01*
X186213830Y-120217084D01*
X186130894Y-120277340D01*
X186870591Y-121017037D01*
X186807007Y-121034075D01*
X186692993Y-121099901D01*
X186599901Y-121192993D01*
X186534075Y-121307007D01*
X186517037Y-121370590D01*
X185777340Y-120630894D01*
X185717084Y-120713830D01*
X185609897Y-120924197D01*
X185536934Y-121148752D01*
X185500000Y-121381947D01*
X155517500Y-121381947D01*
X155517500Y-121050000D01*
X156417500Y-121050000D01*
X156417500Y-120289818D01*
X156383026Y-120072164D01*
X156314932Y-119862589D01*
X156214886Y-119666239D01*
X156114049Y-119527449D01*
X156114048Y-119527447D01*
X156085362Y-119487964D01*
X156085357Y-119487958D01*
X156014899Y-119417500D01*
X197821522Y-119417500D01*
X198767599Y-119417500D01*
X198750924Y-119434175D01*
X198700896Y-119520825D01*
X198675000Y-119617472D01*
X198675000Y-119717528D01*
X198700896Y-119814175D01*
X198750924Y-119900825D01*
X198767599Y-119917500D01*
X197821522Y-119917500D01*
X197835704Y-120007044D01*
X197906230Y-120224104D01*
X198009849Y-120427466D01*
X198144004Y-120612114D01*
X198305385Y-120773495D01*
X198490033Y-120907650D01*
X198693395Y-121011269D01*
X198910455Y-121081795D01*
X199135884Y-121117500D01*
X199950000Y-121117500D01*
X199950000Y-120047500D01*
X200450000Y-120047500D01*
X200450000Y-121117500D01*
X201264116Y-121117500D01*
X201489544Y-121081795D01*
X201706604Y-121011269D01*
X201909966Y-120907650D01*
X202094614Y-120773495D01*
X202255995Y-120612114D01*
X202390150Y-120427466D01*
X202493769Y-120224104D01*
X202564295Y-120007044D01*
X202578478Y-119917500D01*
X201632401Y-119917500D01*
X201649076Y-119900825D01*
X201699104Y-119814175D01*
X201725000Y-119717528D01*
X201725000Y-119617472D01*
X201699104Y-119520825D01*
X201649076Y-119434175D01*
X201632401Y-119417500D01*
X202578478Y-119417500D01*
X202564295Y-119327955D01*
X202493769Y-119110895D01*
X202390150Y-118907533D01*
X202255995Y-118722885D01*
X202094614Y-118561504D01*
X201909966Y-118427349D01*
X201706604Y-118323730D01*
X201489544Y-118253204D01*
X201264116Y-118217500D01*
X200450000Y-118217500D01*
X200450000Y-119287500D01*
X199950000Y-119287500D01*
X199950000Y-118217500D01*
X199135884Y-118217500D01*
X198910455Y-118253204D01*
X198693395Y-118323730D01*
X198490033Y-118427349D01*
X198305385Y-118561504D01*
X198144004Y-118722885D01*
X198009849Y-118907533D01*
X197906230Y-119110895D01*
X197835704Y-119327955D01*
X197821522Y-119417500D01*
X156014899Y-119417500D01*
X155929541Y-119332142D01*
X155751260Y-119202613D01*
X155554910Y-119102567D01*
X155345336Y-119034473D01*
X155267500Y-119022144D01*
X155267500Y-120116988D01*
X155210493Y-120084075D01*
X155083326Y-120050000D01*
X154951674Y-120050000D01*
X154824507Y-120084075D01*
X154767500Y-120116988D01*
X154767500Y-119022144D01*
X154689664Y-119034473D01*
X154689661Y-119034473D01*
X154480089Y-119102567D01*
X154283739Y-119202613D01*
X154105458Y-119332142D01*
X153949642Y-119487958D01*
X153820113Y-119666239D01*
X153720067Y-119862589D01*
X153651973Y-120072164D01*
X153617500Y-120289818D01*
X148766137Y-120289818D01*
X148737209Y-120107173D01*
X148676382Y-119919970D01*
X148629243Y-119827455D01*
X148587024Y-119744595D01*
X148471328Y-119585354D01*
X148332146Y-119446172D01*
X148172905Y-119330476D01*
X148167957Y-119327955D01*
X147997529Y-119241117D01*
X147810326Y-119180290D01*
X147615922Y-119149500D01*
X147615917Y-119149500D01*
X147419083Y-119149500D01*
X147419078Y-119149500D01*
X147224673Y-119180290D01*
X147037470Y-119241117D01*
X146862094Y-119330476D01*
X146816746Y-119363424D01*
X146702854Y-119446172D01*
X146702852Y-119446174D01*
X146702851Y-119446174D01*
X146563674Y-119585351D01*
X146563674Y-119585352D01*
X146563672Y-119585354D01*
X146540337Y-119617472D01*
X146447976Y-119744594D01*
X146358617Y-119919970D01*
X146297790Y-120107173D01*
X146267000Y-120301577D01*
X146267000Y-120725500D01*
X146247315Y-120792539D01*
X146194511Y-120838294D01*
X146143000Y-120849500D01*
X145587966Y-120849500D01*
X145520927Y-120829815D01*
X145500285Y-120813181D01*
X142926616Y-118239513D01*
X142926614Y-118239511D01*
X142875250Y-118209856D01*
X142823888Y-118180201D01*
X142811780Y-118176957D01*
X142799673Y-118173713D01*
X142799670Y-118173712D01*
X142761478Y-118163478D01*
X142709309Y-118149500D01*
X142709308Y-118149500D01*
X124437965Y-118149500D01*
X124370926Y-118129815D01*
X124350284Y-118113181D01*
X120536819Y-114299716D01*
X120503334Y-114238393D01*
X120500500Y-114212035D01*
X120500500Y-107317022D01*
X120784500Y-107317022D01*
X120784500Y-107522977D01*
X120824676Y-107724953D01*
X120824678Y-107724961D01*
X120903490Y-107915232D01*
X121017903Y-108086463D01*
X121017909Y-108086471D01*
X121163528Y-108232090D01*
X121163536Y-108232096D01*
X121334767Y-108346509D01*
X121341527Y-108349309D01*
X121525039Y-108425322D01*
X121718903Y-108463884D01*
X121727022Y-108465499D01*
X121727025Y-108465500D01*
X121727027Y-108465500D01*
X121932975Y-108465500D01*
X121932976Y-108465499D01*
X122134961Y-108425322D01*
X122325230Y-108346510D01*
X122325230Y-108346509D01*
X122325232Y-108346509D01*
X122444814Y-108266607D01*
X122496468Y-108232093D01*
X122642093Y-108086468D01*
X122715497Y-107976610D01*
X122756509Y-107915232D01*
X122764768Y-107895294D01*
X122835322Y-107724961D01*
X122875500Y-107522973D01*
X122875500Y-107317027D01*
X122875500Y-107317024D01*
X122875499Y-107317022D01*
X122866780Y-107273188D01*
X122835322Y-107115039D01*
X122756510Y-106924770D01*
X122756509Y-106924767D01*
X122642096Y-106753536D01*
X122642090Y-106753528D01*
X122496471Y-106607909D01*
X122496463Y-106607903D01*
X122325232Y-106493490D01*
X122134961Y-106414678D01*
X122134953Y-106414676D01*
X121932976Y-106374500D01*
X121932973Y-106374500D01*
X121727027Y-106374500D01*
X121727024Y-106374500D01*
X121525046Y-106414676D01*
X121525038Y-106414678D01*
X121334767Y-106493490D01*
X121163536Y-106607903D01*
X121163528Y-106607909D01*
X121017909Y-106753528D01*
X121017903Y-106753536D01*
X120903490Y-106924767D01*
X120824678Y-107115038D01*
X120824676Y-107115046D01*
X120784500Y-107317022D01*
X120500500Y-107317022D01*
X120500500Y-105419421D01*
X120520185Y-105352382D01*
X120572989Y-105306627D01*
X120642147Y-105296683D01*
X120705703Y-105325708D01*
X120734985Y-105363126D01*
X120807942Y-105506312D01*
X120825696Y-105530749D01*
X121330707Y-105025738D01*
X121345437Y-105080712D01*
X121413896Y-105199287D01*
X121510713Y-105296104D01*
X121629288Y-105364563D01*
X121684259Y-105379292D01*
X121179248Y-105884302D01*
X121179249Y-105884303D01*
X121203680Y-105902053D01*
X121371281Y-105987451D01*
X121550166Y-106045574D01*
X121735952Y-106075000D01*
X121924048Y-106075000D01*
X122109831Y-106045574D01*
X122109834Y-106045574D01*
X122288718Y-105987451D01*
X122456316Y-105902055D01*
X122480749Y-105884303D01*
X122480749Y-105884302D01*
X121975740Y-105379292D01*
X122030712Y-105364563D01*
X122149287Y-105296104D01*
X122246104Y-105199287D01*
X122314563Y-105080712D01*
X122329292Y-105025739D01*
X122834302Y-105530749D01*
X122834303Y-105530749D01*
X122852055Y-105506316D01*
X122937451Y-105338718D01*
X122995574Y-105159834D01*
X122995574Y-105159831D01*
X123025000Y-104974048D01*
X123025000Y-104785951D01*
X122995574Y-104600168D01*
X122995574Y-104600165D01*
X122937451Y-104421281D01*
X122852053Y-104253680D01*
X122834303Y-104229249D01*
X122834302Y-104229248D01*
X122329292Y-104734259D01*
X122314563Y-104679288D01*
X122246104Y-104560713D01*
X122149287Y-104463896D01*
X122030712Y-104395437D01*
X121975739Y-104380707D01*
X122480749Y-103875696D01*
X122456312Y-103857942D01*
X122288718Y-103772548D01*
X122109833Y-103714425D01*
X121924048Y-103685000D01*
X121735952Y-103685000D01*
X121550168Y-103714425D01*
X121550165Y-103714425D01*
X121371281Y-103772548D01*
X121203681Y-103857945D01*
X121179249Y-103875696D01*
X121179248Y-103875696D01*
X121684260Y-104380707D01*
X121629288Y-104395437D01*
X121510713Y-104463896D01*
X121413896Y-104560713D01*
X121345437Y-104679288D01*
X121330707Y-104734260D01*
X120825696Y-104229248D01*
X120825696Y-104229249D01*
X120807944Y-104253684D01*
X120734984Y-104396874D01*
X120687010Y-104447669D01*
X120619189Y-104464464D01*
X120553054Y-104441926D01*
X120509603Y-104387211D01*
X120500500Y-104340578D01*
X120500500Y-102237022D01*
X120784500Y-102237022D01*
X120784500Y-102442977D01*
X120824676Y-102644953D01*
X120824678Y-102644961D01*
X120903490Y-102835232D01*
X121017903Y-103006463D01*
X121017909Y-103006471D01*
X121163528Y-103152090D01*
X121163536Y-103152096D01*
X121334767Y-103266509D01*
X121390496Y-103289592D01*
X121525039Y-103345322D01*
X121727022Y-103385499D01*
X121727025Y-103385500D01*
X121727027Y-103385500D01*
X121932975Y-103385500D01*
X121932976Y-103385499D01*
X122134961Y-103345322D01*
X122325230Y-103266510D01*
X122325230Y-103266509D01*
X122325232Y-103266509D01*
X122410275Y-103209684D01*
X122496468Y-103152093D01*
X122642093Y-103006468D01*
X122756510Y-102835230D01*
X122835322Y-102644961D01*
X122875500Y-102442973D01*
X122875500Y-102426571D01*
X123549499Y-102426571D01*
X123574497Y-102552238D01*
X123574499Y-102552244D01*
X123623533Y-102670624D01*
X123623534Y-102670626D01*
X123623535Y-102670627D01*
X123668602Y-102738075D01*
X123689480Y-102804750D01*
X123689500Y-102806964D01*
X123689500Y-108349309D01*
X123709868Y-108425322D01*
X123709867Y-108425322D01*
X123709868Y-108425324D01*
X123720199Y-108463884D01*
X123721132Y-108465500D01*
X123779511Y-108566614D01*
X133023386Y-117810489D01*
X133126113Y-117869799D01*
X133150321Y-117876284D01*
X133150324Y-117876286D01*
X133150325Y-117876286D01*
X133180447Y-117884357D01*
X133240691Y-117900500D01*
X133240693Y-117900500D01*
X173709308Y-117900500D01*
X173709309Y-117900500D01*
X173799673Y-117876286D01*
X173823887Y-117869799D01*
X173926614Y-117810489D01*
X176383720Y-115353383D01*
X203400000Y-115353383D01*
X203400000Y-116167500D01*
X204470000Y-116167500D01*
X204470000Y-116667500D01*
X203400000Y-116667500D01*
X203400000Y-117481616D01*
X203435704Y-117707044D01*
X203506230Y-117924104D01*
X203609849Y-118127466D01*
X203744004Y-118312114D01*
X203905385Y-118473495D01*
X204090033Y-118607650D01*
X204293395Y-118711269D01*
X204510455Y-118781795D01*
X204600000Y-118795978D01*
X204600000Y-117849901D01*
X204616675Y-117866576D01*
X204703325Y-117916604D01*
X204799972Y-117942500D01*
X204900028Y-117942500D01*
X204996675Y-117916604D01*
X205083325Y-117866576D01*
X205100000Y-117849901D01*
X205100000Y-118795977D01*
X205189544Y-118781795D01*
X205406604Y-118711269D01*
X205609966Y-118607650D01*
X205794614Y-118473495D01*
X205955995Y-118312114D01*
X206090150Y-118127466D01*
X206193769Y-117924104D01*
X206264295Y-117707044D01*
X206300000Y-117481616D01*
X206300000Y-116667500D01*
X205230000Y-116667500D01*
X205230000Y-116167500D01*
X206300000Y-116167500D01*
X206300000Y-115353383D01*
X206264295Y-115127955D01*
X206193769Y-114910895D01*
X206090150Y-114707533D01*
X205955995Y-114522885D01*
X205794614Y-114361504D01*
X205609966Y-114227349D01*
X205406602Y-114123729D01*
X205189541Y-114053203D01*
X205100000Y-114039021D01*
X205100000Y-114985099D01*
X205083325Y-114968424D01*
X204996675Y-114918396D01*
X204900028Y-114892500D01*
X204799972Y-114892500D01*
X204703325Y-114918396D01*
X204616675Y-114968424D01*
X204600000Y-114985099D01*
X204600000Y-114039021D01*
X204599999Y-114039021D01*
X204510458Y-114053203D01*
X204293397Y-114123729D01*
X204090033Y-114227349D01*
X203905385Y-114361504D01*
X203744004Y-114522885D01*
X203609849Y-114707533D01*
X203506230Y-114910895D01*
X203435704Y-115127955D01*
X203400000Y-115353383D01*
X176383720Y-115353383D01*
X178101955Y-113635148D01*
X197949500Y-113635148D01*
X197949500Y-113839851D01*
X197981522Y-114042034D01*
X198044781Y-114236723D01*
X198137715Y-114419113D01*
X198258028Y-114584713D01*
X198402786Y-114729471D01*
X198550742Y-114836965D01*
X198568390Y-114849787D01*
X198652219Y-114892500D01*
X198750776Y-114942718D01*
X198750778Y-114942718D01*
X198750781Y-114942720D01*
X198829890Y-114968424D01*
X198945465Y-115005977D01*
X199046557Y-115021988D01*
X199147648Y-115038000D01*
X199147649Y-115038000D01*
X201252351Y-115038000D01*
X201252352Y-115038000D01*
X201454534Y-115005977D01*
X201649219Y-114942720D01*
X201831610Y-114849787D01*
X201969942Y-114749284D01*
X201997213Y-114729471D01*
X201997215Y-114729468D01*
X201997219Y-114729466D01*
X202141966Y-114584719D01*
X202141968Y-114584715D01*
X202141971Y-114584713D01*
X202240761Y-114448738D01*
X202262287Y-114419110D01*
X202355220Y-114236719D01*
X202418477Y-114042034D01*
X202450500Y-113839852D01*
X202450500Y-113635148D01*
X202418477Y-113432966D01*
X202355220Y-113238281D01*
X202355218Y-113238278D01*
X202355218Y-113238276D01*
X202298323Y-113126615D01*
X202262287Y-113055890D01*
X202239035Y-113023886D01*
X202141971Y-112890286D01*
X201997213Y-112745528D01*
X201831613Y-112625215D01*
X201831612Y-112625214D01*
X201831610Y-112625213D01*
X201761143Y-112589308D01*
X201649223Y-112532281D01*
X201454534Y-112469022D01*
X201279995Y-112441378D01*
X201252352Y-112437000D01*
X199147648Y-112437000D01*
X199123329Y-112440851D01*
X198945465Y-112469022D01*
X198750776Y-112532281D01*
X198568386Y-112625215D01*
X198402786Y-112745528D01*
X198258028Y-112890286D01*
X198137715Y-113055886D01*
X198044781Y-113238276D01*
X197981522Y-113432965D01*
X197949500Y-113635148D01*
X178101955Y-113635148D01*
X178610489Y-113126614D01*
X178651321Y-113055890D01*
X178669799Y-113023886D01*
X178700500Y-112909309D01*
X178700500Y-101148911D01*
X178720185Y-101081872D01*
X178768206Y-101038426D01*
X178858237Y-100992553D01*
X178902439Y-100960438D01*
X179006013Y-100885189D01*
X179006015Y-100885186D01*
X179006019Y-100885184D01*
X179135184Y-100756019D01*
X179135186Y-100756015D01*
X179135189Y-100756013D01*
X179239751Y-100612093D01*
X179242553Y-100608237D01*
X179325483Y-100445479D01*
X179381930Y-100271752D01*
X179398046Y-100170000D01*
X179410505Y-100091339D01*
X179410505Y-99908660D01*
X179389643Y-99776946D01*
X179381930Y-99728248D01*
X179350327Y-99630983D01*
X179325484Y-99554523D01*
X179319664Y-99543100D01*
X179242553Y-99391763D01*
X179235653Y-99382267D01*
X179135189Y-99243986D01*
X179006013Y-99114810D01*
X178858240Y-99007449D01*
X178858239Y-99007448D01*
X178858237Y-99007447D01*
X178793326Y-98974373D01*
X178695463Y-98924508D01*
X178692331Y-98923211D01*
X178691325Y-98922400D01*
X178691138Y-98922305D01*
X178691158Y-98922265D01*
X178675801Y-98909887D01*
X178656673Y-98900669D01*
X178649141Y-98888399D01*
X178637932Y-98879364D01*
X178631228Y-98859216D01*
X178620123Y-98841123D01*
X178620420Y-98826730D01*
X178615875Y-98813067D01*
X178621128Y-98792493D01*
X178621568Y-98771268D01*
X178629600Y-98759319D01*
X178631677Y-98751188D01*
X206290350Y-98751188D01*
X206290350Y-98988811D01*
X206327522Y-99223507D01*
X206400954Y-99449506D01*
X206508832Y-99661229D01*
X206570432Y-99746013D01*
X206570432Y-99746014D01*
X207181278Y-99135168D01*
X207203506Y-99188832D01*
X207277169Y-99299076D01*
X207370924Y-99392831D01*
X207481168Y-99466494D01*
X207534830Y-99488721D01*
X206923984Y-100099566D01*
X207008770Y-100161167D01*
X207220493Y-100269045D01*
X207446492Y-100342477D01*
X207681189Y-100379650D01*
X207918811Y-100379650D01*
X208153507Y-100342477D01*
X208379506Y-100269045D01*
X208591221Y-100161171D01*
X208591227Y-100161167D01*
X208676013Y-100099566D01*
X208676014Y-100099566D01*
X208065169Y-99488721D01*
X208118832Y-99466494D01*
X208229076Y-99392831D01*
X208322831Y-99299076D01*
X208396494Y-99188832D01*
X208418721Y-99135168D01*
X209029999Y-99746446D01*
X209034120Y-99742325D01*
X209641277Y-99135167D01*
X209663506Y-99188832D01*
X209737169Y-99299076D01*
X209830924Y-99392831D01*
X209941168Y-99466494D01*
X209994830Y-99488721D01*
X209383984Y-100099566D01*
X209468770Y-100161167D01*
X209680493Y-100269045D01*
X209906492Y-100342477D01*
X210141189Y-100379650D01*
X210378811Y-100379650D01*
X210613507Y-100342477D01*
X210839506Y-100269045D01*
X211051221Y-100161171D01*
X211051227Y-100161167D01*
X211136013Y-100099566D01*
X211136014Y-100099566D01*
X210525169Y-99488721D01*
X210578832Y-99466494D01*
X210689076Y-99392831D01*
X210782831Y-99299076D01*
X210856494Y-99188832D01*
X210878721Y-99135169D01*
X211489566Y-99746014D01*
X211489566Y-99746013D01*
X211551167Y-99661227D01*
X211551171Y-99661221D01*
X211659045Y-99449506D01*
X211732477Y-99223507D01*
X211769650Y-98988811D01*
X211769650Y-98751188D01*
X211732477Y-98516492D01*
X211659045Y-98290493D01*
X211551167Y-98078770D01*
X211489566Y-97993985D01*
X211489566Y-97993984D01*
X210878721Y-98604830D01*
X210856494Y-98551168D01*
X210782831Y-98440924D01*
X210689076Y-98347169D01*
X210578832Y-98273506D01*
X210525167Y-98251277D01*
X211136014Y-97640432D01*
X211051229Y-97578832D01*
X210839506Y-97470954D01*
X210613507Y-97397522D01*
X210378811Y-97360350D01*
X210141189Y-97360350D01*
X209906492Y-97397522D01*
X209680493Y-97470954D01*
X209468772Y-97578831D01*
X209468768Y-97578833D01*
X209383985Y-97640431D01*
X209383985Y-97640433D01*
X209994830Y-98251278D01*
X209941168Y-98273506D01*
X209830924Y-98347169D01*
X209737169Y-98440924D01*
X209663506Y-98551168D01*
X209641278Y-98604831D01*
X209029999Y-97993552D01*
X209025806Y-97997745D01*
X208418721Y-98604830D01*
X208396494Y-98551168D01*
X208322831Y-98440924D01*
X208229076Y-98347169D01*
X208118832Y-98273506D01*
X208065167Y-98251277D01*
X208676014Y-97640432D01*
X208591229Y-97578832D01*
X208379506Y-97470954D01*
X208153507Y-97397522D01*
X207918811Y-97360350D01*
X207681189Y-97360350D01*
X207446492Y-97397522D01*
X207220493Y-97470954D01*
X207008772Y-97578831D01*
X207008768Y-97578833D01*
X206923985Y-97640431D01*
X206923985Y-97640433D01*
X207534830Y-98251278D01*
X207481168Y-98273506D01*
X207370924Y-98347169D01*
X207277169Y-98440924D01*
X207203506Y-98551168D01*
X207181278Y-98604830D01*
X206570433Y-97993985D01*
X206570431Y-97993985D01*
X206508833Y-98078768D01*
X206508831Y-98078772D01*
X206400954Y-98290493D01*
X206327522Y-98516492D01*
X206290350Y-98751188D01*
X178631677Y-98751188D01*
X178633163Y-98745370D01*
X178648704Y-98730903D01*
X178660550Y-98713284D01*
X178677917Y-98703711D01*
X178684306Y-98697765D01*
X178690629Y-98694820D01*
X178831349Y-98634040D01*
X178936594Y-98580415D01*
X178936598Y-98580413D01*
X178983083Y-98546637D01*
X178983083Y-98546636D01*
X178387570Y-97951124D01*
X178446851Y-97935240D01*
X178563144Y-97868098D01*
X178658098Y-97773144D01*
X178725240Y-97656851D01*
X178741123Y-97597570D01*
X179336636Y-98193083D01*
X179336637Y-98193083D01*
X179370413Y-98146598D01*
X179370415Y-98146594D01*
X179464026Y-97962871D01*
X179527749Y-97766754D01*
X179543345Y-97668294D01*
X179560005Y-97563105D01*
X179560005Y-97356894D01*
X179527749Y-97153245D01*
X179464026Y-96957128D01*
X179370416Y-96773407D01*
X179336636Y-96726915D01*
X178741123Y-97322428D01*
X178725240Y-97263149D01*
X178658098Y-97146856D01*
X178563144Y-97051902D01*
X178446851Y-96984760D01*
X178387569Y-96968875D01*
X178983084Y-96373362D01*
X178983083Y-96373361D01*
X178936597Y-96339587D01*
X178936584Y-96339579D01*
X178752871Y-96245972D01*
X178642892Y-96210238D01*
X178556754Y-96182250D01*
X178353105Y-96149995D01*
X178146895Y-96149995D01*
X177943245Y-96182250D01*
X177747128Y-96245973D01*
X177563403Y-96339585D01*
X177516915Y-96373361D01*
X177516914Y-96373362D01*
X178112428Y-96968876D01*
X178053149Y-96984760D01*
X177936856Y-97051902D01*
X177841902Y-97146856D01*
X177774760Y-97263149D01*
X177758876Y-97322429D01*
X177163362Y-96726914D01*
X177163361Y-96726915D01*
X177129585Y-96773403D01*
X177035972Y-96957128D01*
X177019274Y-97008521D01*
X176979836Y-97066196D01*
X176915477Y-97093394D01*
X176846630Y-97081479D01*
X176795155Y-97034234D01*
X176786784Y-97017661D01*
X176785483Y-97014521D01*
X176757776Y-96960144D01*
X176702553Y-96851763D01*
X176695653Y-96842267D01*
X176595189Y-96703986D01*
X176466017Y-96574814D01*
X176466012Y-96574810D01*
X176391889Y-96520956D01*
X176391866Y-96520941D01*
X176318236Y-96467446D01*
X176155476Y-96384515D01*
X175981753Y-96328070D01*
X175801339Y-96299495D01*
X175801334Y-96299495D01*
X175618666Y-96299495D01*
X175618661Y-96299495D01*
X175438246Y-96328070D01*
X175264523Y-96384515D01*
X175101759Y-96467449D01*
X174953986Y-96574810D01*
X174824810Y-96703986D01*
X174717449Y-96851759D01*
X174634515Y-97014523D01*
X174578070Y-97188246D01*
X174562473Y-97286721D01*
X174532544Y-97349856D01*
X174473232Y-97386787D01*
X174403369Y-97385789D01*
X174345137Y-97347179D01*
X174317527Y-97286721D01*
X174310047Y-97239499D01*
X174301930Y-97188248D01*
X174267239Y-97081479D01*
X174245484Y-97014523D01*
X174217776Y-96960144D01*
X174162553Y-96851763D01*
X174155653Y-96842267D01*
X174055189Y-96703986D01*
X173926013Y-96574810D01*
X173778240Y-96467449D01*
X173778239Y-96467448D01*
X173778237Y-96467447D01*
X173684431Y-96419650D01*
X173615476Y-96384515D01*
X173441753Y-96328070D01*
X173261339Y-96299495D01*
X173261334Y-96299495D01*
X173078666Y-96299495D01*
X173078661Y-96299495D01*
X172898246Y-96328070D01*
X172724523Y-96384515D01*
X172561759Y-96467449D01*
X172413986Y-96574810D01*
X172284810Y-96703986D01*
X172177449Y-96851759D01*
X172094515Y-97014523D01*
X172038070Y-97188246D01*
X172022473Y-97286721D01*
X171992544Y-97349856D01*
X171933232Y-97386787D01*
X171863369Y-97385789D01*
X171805137Y-97347179D01*
X171777527Y-97286721D01*
X171770047Y-97239499D01*
X171761930Y-97188248D01*
X171727239Y-97081479D01*
X171705484Y-97014523D01*
X171677776Y-96960144D01*
X171622553Y-96851763D01*
X171615653Y-96842267D01*
X171515189Y-96703986D01*
X171386013Y-96574810D01*
X171238240Y-96467449D01*
X171238239Y-96467448D01*
X171238237Y-96467447D01*
X171144431Y-96419650D01*
X171075476Y-96384515D01*
X170901753Y-96328070D01*
X170721339Y-96299495D01*
X170721334Y-96299495D01*
X170538666Y-96299495D01*
X170538661Y-96299495D01*
X170358246Y-96328070D01*
X170184523Y-96384515D01*
X170021759Y-96467449D01*
X169873986Y-96574810D01*
X169744810Y-96703986D01*
X169637449Y-96851759D01*
X169554515Y-97014523D01*
X169498070Y-97188246D01*
X169482473Y-97286721D01*
X169452544Y-97349856D01*
X169393232Y-97386787D01*
X169323369Y-97385789D01*
X169265137Y-97347179D01*
X169237527Y-97286721D01*
X169230047Y-97239499D01*
X169221930Y-97188248D01*
X169187239Y-97081479D01*
X169165484Y-97014523D01*
X169137776Y-96960144D01*
X169082553Y-96851763D01*
X169075653Y-96842267D01*
X168975189Y-96703986D01*
X168846013Y-96574810D01*
X168698240Y-96467449D01*
X168698239Y-96467448D01*
X168698237Y-96467447D01*
X168604431Y-96419650D01*
X168535476Y-96384515D01*
X168361753Y-96328070D01*
X168181339Y-96299495D01*
X168181334Y-96299495D01*
X167998666Y-96299495D01*
X167998661Y-96299495D01*
X167818246Y-96328070D01*
X167644523Y-96384515D01*
X167481759Y-96467449D01*
X167333986Y-96574810D01*
X167204810Y-96703986D01*
X167097449Y-96851759D01*
X167014515Y-97014523D01*
X166958070Y-97188246D01*
X166942473Y-97286721D01*
X166912544Y-97349856D01*
X166853232Y-97386787D01*
X166783369Y-97385789D01*
X166725137Y-97347179D01*
X166697527Y-97286721D01*
X166690047Y-97239499D01*
X166681930Y-97188248D01*
X166647239Y-97081479D01*
X166625484Y-97014523D01*
X166597776Y-96960144D01*
X166542553Y-96851763D01*
X166535653Y-96842267D01*
X166435189Y-96703986D01*
X166306013Y-96574810D01*
X166158240Y-96467449D01*
X166158239Y-96467448D01*
X166158237Y-96467447D01*
X166064431Y-96419650D01*
X165995476Y-96384515D01*
X165821753Y-96328070D01*
X165641339Y-96299495D01*
X165641334Y-96299495D01*
X165458666Y-96299495D01*
X165458661Y-96299495D01*
X165278246Y-96328070D01*
X165104523Y-96384515D01*
X164941759Y-96467449D01*
X164793986Y-96574810D01*
X164664810Y-96703986D01*
X164557449Y-96851759D01*
X164474510Y-97014534D01*
X164473209Y-97017674D01*
X164472397Y-97018681D01*
X164472305Y-97018862D01*
X164472266Y-97018842D01*
X164429359Y-97072070D01*
X164363061Y-97094124D01*
X164295365Y-97076833D01*
X164247763Y-97025688D01*
X164240725Y-97008519D01*
X164224028Y-96957132D01*
X164130416Y-96773407D01*
X164096636Y-96726915D01*
X163501123Y-97322428D01*
X163485240Y-97263149D01*
X163418098Y-97146856D01*
X163323144Y-97051902D01*
X163206851Y-96984760D01*
X163147569Y-96968875D01*
X163743084Y-96373362D01*
X163743083Y-96373361D01*
X163696597Y-96339587D01*
X163696584Y-96339579D01*
X163512871Y-96245973D01*
X163316754Y-96182250D01*
X163113105Y-96149995D01*
X162906895Y-96149995D01*
X162703245Y-96182250D01*
X162507128Y-96245973D01*
X162323403Y-96339585D01*
X162276915Y-96373361D01*
X162276914Y-96373362D01*
X162872428Y-96968876D01*
X162813149Y-96984760D01*
X162696856Y-97051902D01*
X162601902Y-97146856D01*
X162534760Y-97263149D01*
X162518876Y-97322428D01*
X161923362Y-96726914D01*
X161923361Y-96726915D01*
X161889585Y-96773403D01*
X161795972Y-96957128D01*
X161779274Y-97008521D01*
X161739836Y-97066196D01*
X161675477Y-97093394D01*
X161606630Y-97081479D01*
X161555155Y-97034234D01*
X161546784Y-97017661D01*
X161545483Y-97014521D01*
X161517776Y-96960144D01*
X161462553Y-96851763D01*
X161455653Y-96842267D01*
X161355189Y-96703986D01*
X161226017Y-96574814D01*
X161226012Y-96574810D01*
X161151889Y-96520956D01*
X161151866Y-96520941D01*
X161078236Y-96467446D01*
X160915476Y-96384515D01*
X160741753Y-96328070D01*
X160561339Y-96299495D01*
X160561334Y-96299495D01*
X160378666Y-96299495D01*
X160378661Y-96299495D01*
X160198246Y-96328070D01*
X160024523Y-96384515D01*
X159861759Y-96467449D01*
X159713986Y-96574810D01*
X159584810Y-96703986D01*
X159477449Y-96851759D01*
X159394515Y-97014523D01*
X159338070Y-97188246D01*
X159309495Y-97368660D01*
X159309495Y-97551339D01*
X159338070Y-97731753D01*
X159394515Y-97905476D01*
X159477449Y-98068240D01*
X159584810Y-98216013D01*
X159713986Y-98345189D01*
X159826063Y-98426616D01*
X159861763Y-98452553D01*
X160024521Y-98535483D01*
X160024523Y-98535484D01*
X160099977Y-98560000D01*
X160198248Y-98591930D01*
X160249499Y-98600047D01*
X160296721Y-98607527D01*
X160359856Y-98637456D01*
X160396787Y-98696768D01*
X160395789Y-98766631D01*
X160357179Y-98824863D01*
X160296721Y-98852473D01*
X160198246Y-98868070D01*
X160024523Y-98924515D01*
X159861759Y-99007449D01*
X159713986Y-99114810D01*
X159584810Y-99243986D01*
X159477449Y-99391759D01*
X159394515Y-99554523D01*
X159338070Y-99728246D01*
X159309495Y-99908660D01*
X159309495Y-100091339D01*
X159338070Y-100271753D01*
X159394515Y-100445476D01*
X159477449Y-100608240D01*
X159584810Y-100756013D01*
X159713986Y-100885189D01*
X159861761Y-100992552D01*
X159924794Y-101024669D01*
X159975591Y-101072643D01*
X159992500Y-101135154D01*
X159992500Y-106730851D01*
X159972815Y-106797890D01*
X159956181Y-106818532D01*
X158238532Y-108536181D01*
X158177209Y-108569666D01*
X158150851Y-108572500D01*
X147795785Y-108572500D01*
X147728746Y-108552815D01*
X147682991Y-108500011D01*
X147673047Y-108430853D01*
X147702072Y-108367297D01*
X147726892Y-108345399D01*
X147896468Y-108232093D01*
X148042093Y-108086468D01*
X148115497Y-107976610D01*
X148156509Y-107915232D01*
X148164768Y-107895294D01*
X148235322Y-107724961D01*
X148275500Y-107522973D01*
X148275500Y-107317027D01*
X148275500Y-107317024D01*
X148275499Y-107317022D01*
X148266780Y-107273188D01*
X148235322Y-107115039D01*
X148156510Y-106924770D01*
X148156509Y-106924767D01*
X148042096Y-106753536D01*
X148042090Y-106753528D01*
X147896471Y-106607909D01*
X147896463Y-106607903D01*
X147725232Y-106493490D01*
X147534961Y-106414678D01*
X147534953Y-106414676D01*
X147332976Y-106374500D01*
X147332973Y-106374500D01*
X147127027Y-106374500D01*
X147127024Y-106374500D01*
X146925046Y-106414676D01*
X146925038Y-106414678D01*
X146734767Y-106493490D01*
X146563536Y-106607903D01*
X146563528Y-106607909D01*
X146417909Y-106753528D01*
X146417903Y-106753536D01*
X146303490Y-106924767D01*
X146224678Y-107115038D01*
X146224676Y-107115046D01*
X146184500Y-107317022D01*
X146184500Y-107522977D01*
X146224676Y-107724953D01*
X146224678Y-107724961D01*
X146303490Y-107915232D01*
X146417903Y-108086463D01*
X146417909Y-108086471D01*
X146563529Y-108232091D01*
X146563532Y-108232093D01*
X146733105Y-108345398D01*
X146777911Y-108399010D01*
X146786618Y-108468334D01*
X146756464Y-108531362D01*
X146697021Y-108568082D01*
X146664215Y-108572500D01*
X137399149Y-108572500D01*
X137332110Y-108552815D01*
X137311468Y-108536181D01*
X133561238Y-104785951D01*
X146035000Y-104785951D01*
X146035000Y-104974048D01*
X146064425Y-105159831D01*
X146064425Y-105159834D01*
X146122548Y-105338718D01*
X146207942Y-105506312D01*
X146225696Y-105530749D01*
X146730707Y-105025738D01*
X146745437Y-105080712D01*
X146813896Y-105199287D01*
X146910713Y-105296104D01*
X147029288Y-105364563D01*
X147084259Y-105379292D01*
X146579248Y-105884302D01*
X146579249Y-105884303D01*
X146603680Y-105902053D01*
X146771281Y-105987451D01*
X146950166Y-106045574D01*
X147135952Y-106075000D01*
X147324048Y-106075000D01*
X147509831Y-106045574D01*
X147509834Y-106045574D01*
X147688718Y-105987451D01*
X147856316Y-105902055D01*
X147880749Y-105884303D01*
X147880749Y-105884302D01*
X147375740Y-105379292D01*
X147430712Y-105364563D01*
X147549287Y-105296104D01*
X147646104Y-105199287D01*
X147714563Y-105080712D01*
X147729292Y-105025739D01*
X148234302Y-105530749D01*
X148234303Y-105530749D01*
X148252055Y-105506316D01*
X148337451Y-105338718D01*
X148395574Y-105159834D01*
X148395574Y-105159831D01*
X148425000Y-104974048D01*
X148425000Y-104785951D01*
X148395574Y-104600168D01*
X148395574Y-104600165D01*
X148337451Y-104421281D01*
X148252053Y-104253680D01*
X148234303Y-104229249D01*
X148234302Y-104229248D01*
X147729292Y-104734259D01*
X147714563Y-104679288D01*
X147646104Y-104560713D01*
X147549287Y-104463896D01*
X147430712Y-104395437D01*
X147375739Y-104380707D01*
X147880749Y-103875696D01*
X147856312Y-103857942D01*
X147688718Y-103772548D01*
X147509833Y-103714425D01*
X147324048Y-103685000D01*
X147135952Y-103685000D01*
X146950168Y-103714425D01*
X146950165Y-103714425D01*
X146771281Y-103772548D01*
X146603681Y-103857945D01*
X146579249Y-103875696D01*
X146579248Y-103875696D01*
X147084260Y-104380707D01*
X147029288Y-104395437D01*
X146910713Y-104463896D01*
X146813896Y-104560713D01*
X146745437Y-104679288D01*
X146730707Y-104734260D01*
X146225696Y-104229248D01*
X146225696Y-104229249D01*
X146207945Y-104253681D01*
X146122548Y-104421281D01*
X146064425Y-104600165D01*
X146064425Y-104600168D01*
X146035000Y-104785951D01*
X133561238Y-104785951D01*
X131733819Y-102958532D01*
X131700334Y-102897209D01*
X131697500Y-102870851D01*
X131697500Y-98684490D01*
X131974499Y-98684490D01*
X132014292Y-98884538D01*
X132014295Y-98884548D01*
X132092348Y-99072986D01*
X132092355Y-99072999D01*
X132205674Y-99242592D01*
X132205677Y-99242596D01*
X132349903Y-99386822D01*
X132349907Y-99386825D01*
X132519500Y-99500144D01*
X132519513Y-99500151D01*
X132623202Y-99543100D01*
X132707956Y-99578206D01*
X132707960Y-99578206D01*
X132707961Y-99578207D01*
X132908009Y-99618000D01*
X132908012Y-99618000D01*
X133111990Y-99618000D01*
X133249615Y-99590624D01*
X133312044Y-99578206D01*
X133500493Y-99500148D01*
X133508141Y-99495038D01*
X133606551Y-99429283D01*
X133661104Y-99392831D01*
X133670093Y-99386825D01*
X133814325Y-99242593D01*
X133927648Y-99072993D01*
X134005706Y-98884544D01*
X134027053Y-98777226D01*
X134045500Y-98684490D01*
X134045500Y-98489238D01*
X134365000Y-98489238D01*
X134365000Y-98675761D01*
X134394178Y-98859984D01*
X134451819Y-99037384D01*
X134536498Y-99203577D01*
X134552854Y-99226090D01*
X134552855Y-99226090D01*
X135058871Y-98720074D01*
X135074755Y-98779353D01*
X135141898Y-98895647D01*
X135236853Y-98990602D01*
X135353147Y-99057745D01*
X135412424Y-99073628D01*
X134906408Y-99579643D01*
X134906408Y-99579644D01*
X134928918Y-99595999D01*
X135095115Y-99680680D01*
X135272515Y-99738321D01*
X135456739Y-99767500D01*
X135643261Y-99767500D01*
X135827484Y-99738321D01*
X136004884Y-99680680D01*
X136171075Y-99596002D01*
X136193590Y-99579643D01*
X136193591Y-99579643D01*
X135687575Y-99073627D01*
X135746853Y-99057745D01*
X135863147Y-98990602D01*
X135958102Y-98895647D01*
X136025245Y-98779353D01*
X136041128Y-98720075D01*
X136547143Y-99226091D01*
X136547143Y-99226090D01*
X136563502Y-99203575D01*
X136648180Y-99037384D01*
X136705821Y-98859984D01*
X136735000Y-98675761D01*
X136735000Y-98489238D01*
X136705821Y-98305015D01*
X136648180Y-98127615D01*
X136563499Y-97961418D01*
X136547144Y-97938908D01*
X136547143Y-97938908D01*
X136041127Y-98444923D01*
X136025245Y-98385647D01*
X135958102Y-98269353D01*
X135863147Y-98174398D01*
X135746853Y-98107255D01*
X135687574Y-98091371D01*
X136193590Y-97585355D01*
X136193590Y-97585354D01*
X136171077Y-97568998D01*
X136004884Y-97484319D01*
X135827484Y-97426678D01*
X135643261Y-97397500D01*
X135456739Y-97397500D01*
X135272515Y-97426678D01*
X135095115Y-97484319D01*
X134928927Y-97568995D01*
X134928923Y-97568998D01*
X134906408Y-97585354D01*
X134906408Y-97585356D01*
X135412425Y-98091371D01*
X135353147Y-98107255D01*
X135236853Y-98174398D01*
X135141898Y-98269353D01*
X135074755Y-98385647D01*
X135058871Y-98444924D01*
X134552856Y-97938908D01*
X134552854Y-97938908D01*
X134536498Y-97961423D01*
X134536495Y-97961427D01*
X134451819Y-98127615D01*
X134394178Y-98305015D01*
X134365000Y-98489238D01*
X134045500Y-98489238D01*
X134045500Y-98480509D01*
X134005707Y-98280461D01*
X134005706Y-98280460D01*
X134005706Y-98280456D01*
X133984370Y-98228946D01*
X133927651Y-98092013D01*
X133927644Y-98092000D01*
X133814325Y-97922407D01*
X133814322Y-97922403D01*
X133670093Y-97778174D01*
X133606549Y-97735716D01*
X133500499Y-97664855D01*
X133500486Y-97664848D01*
X133312048Y-97586795D01*
X133312038Y-97586792D01*
X133111990Y-97547000D01*
X133111988Y-97547000D01*
X132908012Y-97547000D01*
X132908010Y-97547000D01*
X132707961Y-97586792D01*
X132707951Y-97586795D01*
X132519513Y-97664848D01*
X132519500Y-97664855D01*
X132349907Y-97778174D01*
X132349903Y-97778177D01*
X132205677Y-97922403D01*
X132205674Y-97922407D01*
X132092355Y-98092000D01*
X132092348Y-98092013D01*
X132014295Y-98280451D01*
X132014292Y-98280461D01*
X131974500Y-98480509D01*
X131974500Y-98480512D01*
X131974500Y-98684488D01*
X131974500Y-98684490D01*
X131974499Y-98684490D01*
X131697500Y-98684490D01*
X131697500Y-96144490D01*
X131974499Y-96144490D01*
X132014292Y-96344538D01*
X132014295Y-96344548D01*
X132092348Y-96532986D01*
X132092355Y-96532999D01*
X132205674Y-96702592D01*
X132205677Y-96702596D01*
X132349903Y-96846822D01*
X132349907Y-96846825D01*
X132519500Y-96960144D01*
X132519513Y-96960151D01*
X132698367Y-97034234D01*
X132707956Y-97038206D01*
X132707960Y-97038206D01*
X132707961Y-97038207D01*
X132908009Y-97078000D01*
X132908012Y-97078000D01*
X133111990Y-97078000D01*
X133246579Y-97051227D01*
X133312044Y-97038206D01*
X133500493Y-96960148D01*
X133670093Y-96846825D01*
X133814325Y-96702593D01*
X133927648Y-96532993D01*
X134005706Y-96344544D01*
X134031574Y-96214500D01*
X134045500Y-96144490D01*
X134514499Y-96144490D01*
X134554292Y-96344538D01*
X134554295Y-96344548D01*
X134632348Y-96532986D01*
X134632355Y-96532999D01*
X134745674Y-96702592D01*
X134745677Y-96702596D01*
X134889903Y-96846822D01*
X134889907Y-96846825D01*
X135059500Y-96960144D01*
X135059513Y-96960151D01*
X135238367Y-97034234D01*
X135247956Y-97038206D01*
X135247960Y-97038206D01*
X135247961Y-97038207D01*
X135448009Y-97078000D01*
X135448012Y-97078000D01*
X135651990Y-97078000D01*
X135786579Y-97051227D01*
X135852044Y-97038206D01*
X136040493Y-96960148D01*
X136210093Y-96846825D01*
X136354325Y-96702593D01*
X136467648Y-96532993D01*
X136545706Y-96344544D01*
X136571574Y-96214500D01*
X136585500Y-96144490D01*
X136585500Y-95940509D01*
X136545707Y-95740461D01*
X136545706Y-95740460D01*
X136545706Y-95740456D01*
X136529457Y-95701227D01*
X136467651Y-95552013D01*
X136467644Y-95552000D01*
X136354325Y-95382407D01*
X136354322Y-95382403D01*
X136210096Y-95238177D01*
X136210092Y-95238174D01*
X136040499Y-95124855D01*
X136040486Y-95124848D01*
X135852048Y-95046795D01*
X135852038Y-95046792D01*
X135651990Y-95007000D01*
X135651988Y-95007000D01*
X135448012Y-95007000D01*
X135448010Y-95007000D01*
X135247961Y-95046792D01*
X135247951Y-95046795D01*
X135059513Y-95124848D01*
X135059500Y-95124855D01*
X134889907Y-95238174D01*
X134889903Y-95238177D01*
X134745677Y-95382403D01*
X134745674Y-95382407D01*
X134632355Y-95552000D01*
X134632348Y-95552013D01*
X134554295Y-95740451D01*
X134554292Y-95740461D01*
X134514500Y-95940509D01*
X134514500Y-95940512D01*
X134514500Y-96144488D01*
X134514500Y-96144490D01*
X134514499Y-96144490D01*
X134045500Y-96144490D01*
X134045500Y-95940509D01*
X134005707Y-95740461D01*
X134005706Y-95740460D01*
X134005706Y-95740456D01*
X133989457Y-95701227D01*
X133927651Y-95552013D01*
X133927644Y-95552000D01*
X133814325Y-95382407D01*
X133814322Y-95382403D01*
X133670096Y-95238177D01*
X133670092Y-95238174D01*
X133500499Y-95124855D01*
X133500486Y-95124848D01*
X133312048Y-95046795D01*
X133312038Y-95046792D01*
X133111990Y-95007000D01*
X133111988Y-95007000D01*
X132908012Y-95007000D01*
X132908010Y-95007000D01*
X132707961Y-95046792D01*
X132707951Y-95046795D01*
X132519513Y-95124848D01*
X132519500Y-95124855D01*
X132349907Y-95238174D01*
X132349903Y-95238177D01*
X132205677Y-95382403D01*
X132205674Y-95382407D01*
X132092355Y-95552000D01*
X132092348Y-95552013D01*
X132014295Y-95740451D01*
X132014292Y-95740461D01*
X131974500Y-95940509D01*
X131974500Y-95940512D01*
X131974500Y-96144488D01*
X131974500Y-96144490D01*
X131974499Y-96144490D01*
X131697500Y-96144490D01*
X131697500Y-93604490D01*
X131974499Y-93604490D01*
X132014292Y-93804538D01*
X132014295Y-93804548D01*
X132092348Y-93992986D01*
X132092355Y-93992999D01*
X132205674Y-94162592D01*
X132205677Y-94162596D01*
X132349903Y-94306822D01*
X132349907Y-94306825D01*
X132519500Y-94420144D01*
X132519513Y-94420151D01*
X132666233Y-94480924D01*
X132707956Y-94498206D01*
X132707960Y-94498206D01*
X132707961Y-94498207D01*
X132908009Y-94538000D01*
X132908012Y-94538000D01*
X133111990Y-94538000D01*
X133246579Y-94511227D01*
X133312044Y-94498206D01*
X133500493Y-94420148D01*
X133670093Y-94306825D01*
X133814325Y-94162593D01*
X133927648Y-93992993D01*
X134005706Y-93804544D01*
X134023582Y-93714676D01*
X134045500Y-93604490D01*
X134514499Y-93604490D01*
X134554292Y-93804538D01*
X134554295Y-93804548D01*
X134632348Y-93992986D01*
X134632355Y-93992999D01*
X134745674Y-94162592D01*
X134745677Y-94162596D01*
X134889903Y-94306822D01*
X134889907Y-94306825D01*
X135059500Y-94420144D01*
X135059513Y-94420151D01*
X135206233Y-94480924D01*
X135247956Y-94498206D01*
X135247960Y-94498206D01*
X135247961Y-94498207D01*
X135448009Y-94538000D01*
X135448012Y-94538000D01*
X135651990Y-94538000D01*
X135786579Y-94511227D01*
X135852044Y-94498206D01*
X136040493Y-94420148D01*
X136210093Y-94306825D01*
X136354325Y-94162593D01*
X136467648Y-93992993D01*
X136545706Y-93804544D01*
X136563582Y-93714676D01*
X136585500Y-93604490D01*
X136585500Y-93400509D01*
X136545707Y-93200461D01*
X136545706Y-93200460D01*
X136545706Y-93200456D01*
X136511997Y-93119074D01*
X136467651Y-93012013D01*
X136467644Y-93012000D01*
X136354325Y-92842407D01*
X136354322Y-92842403D01*
X136210096Y-92698177D01*
X136210092Y-92698174D01*
X136040499Y-92584855D01*
X136040486Y-92584848D01*
X135852048Y-92506795D01*
X135852038Y-92506792D01*
X135651990Y-92467000D01*
X135651988Y-92467000D01*
X135448012Y-92467000D01*
X135448010Y-92467000D01*
X135247961Y-92506792D01*
X135247951Y-92506795D01*
X135059513Y-92584848D01*
X135059500Y-92584855D01*
X134889907Y-92698174D01*
X134889903Y-92698177D01*
X134745677Y-92842403D01*
X134745674Y-92842407D01*
X134632355Y-93012000D01*
X134632348Y-93012013D01*
X134554295Y-93200451D01*
X134554292Y-93200461D01*
X134514500Y-93400509D01*
X134514500Y-93400512D01*
X134514500Y-93604488D01*
X134514500Y-93604490D01*
X134514499Y-93604490D01*
X134045500Y-93604490D01*
X134045500Y-93400509D01*
X134005707Y-93200461D01*
X134005706Y-93200460D01*
X134005706Y-93200456D01*
X133971997Y-93119074D01*
X133927651Y-93012013D01*
X133927644Y-93012000D01*
X133814325Y-92842407D01*
X133814322Y-92842403D01*
X133670096Y-92698177D01*
X133670092Y-92698174D01*
X133500499Y-92584855D01*
X133500486Y-92584848D01*
X133312048Y-92506795D01*
X133312038Y-92506792D01*
X133111990Y-92467000D01*
X133111988Y-92467000D01*
X132908012Y-92467000D01*
X132908010Y-92467000D01*
X132707961Y-92506792D01*
X132707951Y-92506795D01*
X132519513Y-92584848D01*
X132519500Y-92584855D01*
X132349907Y-92698174D01*
X132349903Y-92698177D01*
X132205677Y-92842403D01*
X132205674Y-92842407D01*
X132092355Y-93012000D01*
X132092348Y-93012013D01*
X132014295Y-93200451D01*
X132014292Y-93200461D01*
X131974500Y-93400509D01*
X131974500Y-93400512D01*
X131974500Y-93604488D01*
X131974500Y-93604490D01*
X131974499Y-93604490D01*
X131697500Y-93604490D01*
X131697500Y-91064490D01*
X131974499Y-91064490D01*
X132014292Y-91264538D01*
X132014295Y-91264548D01*
X132092348Y-91452986D01*
X132092355Y-91452999D01*
X132205674Y-91622592D01*
X132205677Y-91622596D01*
X132349903Y-91766822D01*
X132349907Y-91766825D01*
X132519500Y-91880144D01*
X132519513Y-91880151D01*
X132707951Y-91958204D01*
X132707956Y-91958206D01*
X132707960Y-91958206D01*
X132707961Y-91958207D01*
X132908009Y-91998000D01*
X132908012Y-91998000D01*
X133111990Y-91998000D01*
X133246579Y-91971227D01*
X133312044Y-91958206D01*
X133500493Y-91880148D01*
X133670093Y-91766825D01*
X133814325Y-91622593D01*
X133927648Y-91452993D01*
X134005706Y-91264544D01*
X134045500Y-91064490D01*
X134514499Y-91064490D01*
X134554292Y-91264538D01*
X134554295Y-91264548D01*
X134632348Y-91452986D01*
X134632355Y-91452999D01*
X134745674Y-91622592D01*
X134745677Y-91622596D01*
X134889903Y-91766822D01*
X134889907Y-91766825D01*
X135059500Y-91880144D01*
X135059513Y-91880151D01*
X135247951Y-91958204D01*
X135247956Y-91958206D01*
X135247960Y-91958206D01*
X135247961Y-91958207D01*
X135448009Y-91998000D01*
X135448012Y-91998000D01*
X135651990Y-91998000D01*
X135786579Y-91971227D01*
X135852044Y-91958206D01*
X136040493Y-91880148D01*
X136210093Y-91766825D01*
X136354325Y-91622593D01*
X136467648Y-91452993D01*
X136545706Y-91264544D01*
X136585500Y-91064488D01*
X136585500Y-90860512D01*
X136585500Y-90860509D01*
X136545707Y-90660461D01*
X136545706Y-90660460D01*
X136545706Y-90660456D01*
X136533711Y-90631497D01*
X136467651Y-90472013D01*
X136467644Y-90472000D01*
X136354325Y-90302407D01*
X136354322Y-90302403D01*
X136210096Y-90158177D01*
X136210092Y-90158174D01*
X136040499Y-90044855D01*
X136040486Y-90044848D01*
X135852048Y-89966795D01*
X135852038Y-89966792D01*
X135651990Y-89927000D01*
X135651988Y-89927000D01*
X135448012Y-89927000D01*
X135448010Y-89927000D01*
X135247961Y-89966792D01*
X135247951Y-89966795D01*
X135059513Y-90044848D01*
X135059500Y-90044855D01*
X134889907Y-90158174D01*
X134889903Y-90158177D01*
X134745677Y-90302403D01*
X134745674Y-90302407D01*
X134632355Y-90472000D01*
X134632348Y-90472013D01*
X134554295Y-90660451D01*
X134554292Y-90660461D01*
X134514500Y-90860509D01*
X134514500Y-90860512D01*
X134514500Y-91064488D01*
X134514500Y-91064490D01*
X134514499Y-91064490D01*
X134045500Y-91064490D01*
X134045500Y-91064488D01*
X134045500Y-90860512D01*
X134045500Y-90860509D01*
X134005707Y-90660461D01*
X134005706Y-90660460D01*
X134005706Y-90660456D01*
X133993711Y-90631497D01*
X133927651Y-90472013D01*
X133927644Y-90472000D01*
X133814325Y-90302407D01*
X133814322Y-90302403D01*
X133670096Y-90158177D01*
X133670092Y-90158174D01*
X133500499Y-90044855D01*
X133500486Y-90044848D01*
X133312048Y-89966795D01*
X133312038Y-89966792D01*
X133111990Y-89927000D01*
X133111988Y-89927000D01*
X132908012Y-89927000D01*
X132908010Y-89927000D01*
X132707961Y-89966792D01*
X132707951Y-89966795D01*
X132519513Y-90044848D01*
X132519500Y-90044855D01*
X132349907Y-90158174D01*
X132349903Y-90158177D01*
X132205677Y-90302403D01*
X132205674Y-90302407D01*
X132092355Y-90472000D01*
X132092348Y-90472013D01*
X132014295Y-90660451D01*
X132014292Y-90660461D01*
X131974500Y-90860509D01*
X131974500Y-90860512D01*
X131974500Y-91064488D01*
X131974500Y-91064490D01*
X131974499Y-91064490D01*
X131697500Y-91064490D01*
X131697500Y-88524490D01*
X131974499Y-88524490D01*
X132014292Y-88724538D01*
X132014295Y-88724548D01*
X132092348Y-88912986D01*
X132092355Y-88912999D01*
X132205674Y-89082592D01*
X132205677Y-89082596D01*
X132349903Y-89226822D01*
X132349907Y-89226825D01*
X132519500Y-89340144D01*
X132519513Y-89340151D01*
X132702456Y-89415928D01*
X132707956Y-89418206D01*
X132707960Y-89418206D01*
X132707961Y-89418207D01*
X132908009Y-89458000D01*
X132908012Y-89458000D01*
X133111990Y-89458000D01*
X133246579Y-89431227D01*
X133312044Y-89418206D01*
X133500493Y-89340148D01*
X133670093Y-89226825D01*
X133814325Y-89082593D01*
X133927648Y-88912993D01*
X134005706Y-88724544D01*
X134022104Y-88642106D01*
X134045500Y-88524490D01*
X134514499Y-88524490D01*
X134554292Y-88724538D01*
X134554295Y-88724548D01*
X134632348Y-88912986D01*
X134632355Y-88912999D01*
X134745674Y-89082592D01*
X134745677Y-89082596D01*
X134889903Y-89226822D01*
X134889907Y-89226825D01*
X135059500Y-89340144D01*
X135059513Y-89340151D01*
X135242456Y-89415928D01*
X135247956Y-89418206D01*
X135247960Y-89418206D01*
X135247961Y-89418207D01*
X135448009Y-89458000D01*
X135448012Y-89458000D01*
X135651990Y-89458000D01*
X135786579Y-89431227D01*
X135852044Y-89418206D01*
X136040493Y-89340148D01*
X136210093Y-89226825D01*
X136354325Y-89082593D01*
X136467648Y-88912993D01*
X136545706Y-88724544D01*
X136562104Y-88642106D01*
X136585500Y-88524490D01*
X136585500Y-88320509D01*
X136545707Y-88120461D01*
X136545706Y-88120460D01*
X136545706Y-88120456D01*
X136507187Y-88027462D01*
X136467651Y-87932013D01*
X136467644Y-87932000D01*
X136354325Y-87762407D01*
X136354322Y-87762403D01*
X136210096Y-87618177D01*
X136210092Y-87618174D01*
X136040499Y-87504855D01*
X136040486Y-87504848D01*
X135852048Y-87426795D01*
X135852038Y-87426792D01*
X135651990Y-87387000D01*
X135651988Y-87387000D01*
X135448012Y-87387000D01*
X135448010Y-87387000D01*
X135247961Y-87426792D01*
X135247951Y-87426795D01*
X135059513Y-87504848D01*
X135059500Y-87504855D01*
X134889907Y-87618174D01*
X134889903Y-87618177D01*
X134745677Y-87762403D01*
X134745674Y-87762407D01*
X134632355Y-87932000D01*
X134632348Y-87932013D01*
X134554295Y-88120451D01*
X134554292Y-88120461D01*
X134514500Y-88320509D01*
X134514500Y-88320512D01*
X134514500Y-88524488D01*
X134514500Y-88524490D01*
X134514499Y-88524490D01*
X134045500Y-88524490D01*
X134045500Y-88320509D01*
X134005707Y-88120461D01*
X134005706Y-88120460D01*
X134005706Y-88120456D01*
X133967187Y-88027462D01*
X133927651Y-87932013D01*
X133927644Y-87932000D01*
X133814325Y-87762407D01*
X133814322Y-87762403D01*
X133670096Y-87618177D01*
X133670092Y-87618174D01*
X133500499Y-87504855D01*
X133500486Y-87504848D01*
X133312048Y-87426795D01*
X133312038Y-87426792D01*
X133111990Y-87387000D01*
X133111988Y-87387000D01*
X132908012Y-87387000D01*
X132908010Y-87387000D01*
X132707961Y-87426792D01*
X132707951Y-87426795D01*
X132519513Y-87504848D01*
X132519500Y-87504855D01*
X132349907Y-87618174D01*
X132349903Y-87618177D01*
X132205677Y-87762403D01*
X132205674Y-87762407D01*
X132092355Y-87932000D01*
X132092348Y-87932013D01*
X132014295Y-88120451D01*
X132014292Y-88120461D01*
X131974500Y-88320509D01*
X131974500Y-88320512D01*
X131974500Y-88524488D01*
X131974500Y-88524490D01*
X131974499Y-88524490D01*
X131697500Y-88524490D01*
X131697500Y-85984490D01*
X131974499Y-85984490D01*
X132014292Y-86184538D01*
X132014295Y-86184548D01*
X132092348Y-86372986D01*
X132092355Y-86372999D01*
X132205674Y-86542592D01*
X132205677Y-86542596D01*
X132349903Y-86686822D01*
X132349907Y-86686825D01*
X132519500Y-86800144D01*
X132519513Y-86800151D01*
X132707951Y-86878204D01*
X132707956Y-86878206D01*
X132707960Y-86878206D01*
X132707961Y-86878207D01*
X132908009Y-86918000D01*
X132908012Y-86918000D01*
X133111990Y-86918000D01*
X133288174Y-86882954D01*
X133312044Y-86878206D01*
X133500493Y-86800148D01*
X133670093Y-86686825D01*
X133814325Y-86542593D01*
X133927648Y-86372993D01*
X134005706Y-86184544D01*
X134045500Y-85984490D01*
X134514499Y-85984490D01*
X134554292Y-86184538D01*
X134554295Y-86184548D01*
X134632348Y-86372986D01*
X134632355Y-86372999D01*
X134745674Y-86542592D01*
X134745677Y-86542596D01*
X134889903Y-86686822D01*
X134889907Y-86686825D01*
X135059500Y-86800144D01*
X135059513Y-86800151D01*
X135247951Y-86878204D01*
X135247956Y-86878206D01*
X135247960Y-86878206D01*
X135247961Y-86878207D01*
X135448009Y-86918000D01*
X135448012Y-86918000D01*
X135651990Y-86918000D01*
X135828174Y-86882954D01*
X135852044Y-86878206D01*
X136040493Y-86800148D01*
X136210093Y-86686825D01*
X136354325Y-86542593D01*
X136467648Y-86372993D01*
X136545706Y-86184544D01*
X136585500Y-85984488D01*
X136585500Y-85780512D01*
X136585500Y-85780509D01*
X136545707Y-85580461D01*
X136545706Y-85580460D01*
X136545706Y-85580456D01*
X136539437Y-85565321D01*
X136467651Y-85392013D01*
X136467644Y-85392000D01*
X136354325Y-85222407D01*
X136354322Y-85222403D01*
X136210096Y-85078177D01*
X136210092Y-85078174D01*
X136040499Y-84964855D01*
X136040486Y-84964848D01*
X135852048Y-84886795D01*
X135852038Y-84886792D01*
X135651990Y-84847000D01*
X135651988Y-84847000D01*
X135448012Y-84847000D01*
X135448010Y-84847000D01*
X135247961Y-84886792D01*
X135247951Y-84886795D01*
X135059513Y-84964848D01*
X135059500Y-84964855D01*
X134889907Y-85078174D01*
X134889903Y-85078177D01*
X134745677Y-85222403D01*
X134745674Y-85222407D01*
X134632355Y-85392000D01*
X134632348Y-85392013D01*
X134554295Y-85580451D01*
X134554292Y-85580461D01*
X134514500Y-85780509D01*
X134514500Y-85780512D01*
X134514500Y-85984488D01*
X134514500Y-85984490D01*
X134514499Y-85984490D01*
X134045500Y-85984490D01*
X134045500Y-85984488D01*
X134045500Y-85780512D01*
X134045500Y-85780509D01*
X134005707Y-85580461D01*
X134005706Y-85580460D01*
X134005706Y-85580456D01*
X133999437Y-85565321D01*
X133927651Y-85392013D01*
X133927644Y-85392000D01*
X133814325Y-85222407D01*
X133814322Y-85222403D01*
X133670096Y-85078177D01*
X133670092Y-85078174D01*
X133500499Y-84964855D01*
X133500486Y-84964848D01*
X133312048Y-84886795D01*
X133312038Y-84886792D01*
X133111990Y-84847000D01*
X133111988Y-84847000D01*
X132908012Y-84847000D01*
X132908010Y-84847000D01*
X132707961Y-84886792D01*
X132707951Y-84886795D01*
X132519513Y-84964848D01*
X132519500Y-84964855D01*
X132349907Y-85078174D01*
X132349903Y-85078177D01*
X132205677Y-85222403D01*
X132205674Y-85222407D01*
X132092355Y-85392000D01*
X132092348Y-85392013D01*
X132014295Y-85580451D01*
X132014292Y-85580461D01*
X131974500Y-85780509D01*
X131974500Y-85780512D01*
X131974500Y-85984488D01*
X131974500Y-85984490D01*
X131974499Y-85984490D01*
X131697500Y-85984490D01*
X131697500Y-83444490D01*
X131974499Y-83444490D01*
X132014292Y-83644538D01*
X132014295Y-83644548D01*
X132092348Y-83832986D01*
X132092355Y-83832999D01*
X132205674Y-84002592D01*
X132205677Y-84002596D01*
X132349903Y-84146822D01*
X132349907Y-84146825D01*
X132519500Y-84260144D01*
X132519513Y-84260151D01*
X132653438Y-84315624D01*
X132707956Y-84338206D01*
X132707960Y-84338206D01*
X132707961Y-84338207D01*
X132908009Y-84378000D01*
X132908012Y-84378000D01*
X133111990Y-84378000D01*
X133246579Y-84351227D01*
X133312044Y-84338206D01*
X133500493Y-84260148D01*
X133528463Y-84241459D01*
X133606551Y-84189283D01*
X133637370Y-84168689D01*
X133670093Y-84146825D01*
X133814325Y-84002593D01*
X133927648Y-83832993D01*
X134005706Y-83644544D01*
X134027655Y-83534200D01*
X134045500Y-83444490D01*
X134045500Y-83249238D01*
X134365000Y-83249238D01*
X134365000Y-83435761D01*
X134394178Y-83619984D01*
X134451819Y-83797384D01*
X134536498Y-83963577D01*
X134552854Y-83986090D01*
X134552855Y-83986090D01*
X135058871Y-83480074D01*
X135074755Y-83539353D01*
X135141898Y-83655647D01*
X135236853Y-83750602D01*
X135353147Y-83817745D01*
X135412424Y-83833628D01*
X134906408Y-84339643D01*
X134906408Y-84339644D01*
X134928918Y-84355999D01*
X135095115Y-84440680D01*
X135272515Y-84498321D01*
X135456739Y-84527500D01*
X135643261Y-84527500D01*
X135827484Y-84498321D01*
X136004884Y-84440680D01*
X136171075Y-84356002D01*
X136193590Y-84339643D01*
X136193591Y-84339643D01*
X135687575Y-83833627D01*
X135746853Y-83817745D01*
X135863147Y-83750602D01*
X135958102Y-83655647D01*
X136025245Y-83539353D01*
X136041128Y-83480075D01*
X136547143Y-83986091D01*
X136547143Y-83986090D01*
X136563502Y-83963575D01*
X136648180Y-83797384D01*
X136705821Y-83619984D01*
X136735000Y-83435761D01*
X136735000Y-83249238D01*
X136705821Y-83065015D01*
X136648180Y-82887615D01*
X136563499Y-82721418D01*
X136547144Y-82698908D01*
X136547143Y-82698908D01*
X136041127Y-83204923D01*
X136025245Y-83145647D01*
X135958102Y-83029353D01*
X135863147Y-82934398D01*
X135746853Y-82867255D01*
X135687574Y-82851371D01*
X136193590Y-82345355D01*
X136193590Y-82345354D01*
X136171077Y-82328998D01*
X136004884Y-82244319D01*
X135827484Y-82186678D01*
X135643261Y-82157500D01*
X135456739Y-82157500D01*
X135272515Y-82186678D01*
X135095115Y-82244319D01*
X134928927Y-82328995D01*
X134928923Y-82328998D01*
X134906408Y-82345354D01*
X134906408Y-82345356D01*
X135412425Y-82851371D01*
X135353147Y-82867255D01*
X135236853Y-82934398D01*
X135141898Y-83029353D01*
X135074755Y-83145647D01*
X135058871Y-83204924D01*
X134552856Y-82698908D01*
X134552854Y-82698908D01*
X134536498Y-82721423D01*
X134536495Y-82721427D01*
X134451819Y-82887615D01*
X134394178Y-83065015D01*
X134365000Y-83249238D01*
X134045500Y-83249238D01*
X134045500Y-83240509D01*
X134005707Y-83040461D01*
X134005706Y-83040460D01*
X134005706Y-83040456D01*
X133984370Y-82988946D01*
X133927651Y-82852013D01*
X133927644Y-82852000D01*
X133814325Y-82682407D01*
X133814322Y-82682403D01*
X133670093Y-82538174D01*
X133606549Y-82495716D01*
X133500499Y-82424855D01*
X133500486Y-82424848D01*
X133312048Y-82346795D01*
X133312038Y-82346792D01*
X133111990Y-82307000D01*
X133111988Y-82307000D01*
X132908012Y-82307000D01*
X132908010Y-82307000D01*
X132707961Y-82346792D01*
X132707951Y-82346795D01*
X132519513Y-82424848D01*
X132519500Y-82424855D01*
X132349907Y-82538174D01*
X132349903Y-82538177D01*
X132205677Y-82682403D01*
X132205674Y-82682407D01*
X132092355Y-82852000D01*
X132092348Y-82852013D01*
X132014295Y-83040451D01*
X132014292Y-83040461D01*
X131974500Y-83240509D01*
X131974500Y-83240512D01*
X131974500Y-83444488D01*
X131974500Y-83444490D01*
X131974499Y-83444490D01*
X131697500Y-83444490D01*
X131697500Y-81266422D01*
X131717185Y-81199383D01*
X131718397Y-81197532D01*
X131747397Y-81154130D01*
X131801009Y-81109324D01*
X131870334Y-81100617D01*
X131933362Y-81130771D01*
X131970082Y-81190214D01*
X131974500Y-81223020D01*
X131974500Y-81520760D01*
X131984426Y-81588891D01*
X132035803Y-81693985D01*
X132118514Y-81776696D01*
X132118515Y-81776696D01*
X132118517Y-81776698D01*
X132223607Y-81828073D01*
X132257673Y-81833036D01*
X132291739Y-81838000D01*
X132291740Y-81838000D01*
X133728261Y-81838000D01*
X133750971Y-81834691D01*
X133796393Y-81828073D01*
X133901483Y-81776698D01*
X133984198Y-81693983D01*
X134035573Y-81588893D01*
X134045500Y-81520760D01*
X134045500Y-80904490D01*
X134514499Y-80904490D01*
X134554292Y-81104538D01*
X134554295Y-81104548D01*
X134632348Y-81292986D01*
X134632355Y-81292999D01*
X134745674Y-81462592D01*
X134745677Y-81462596D01*
X134889903Y-81606822D01*
X134889907Y-81606825D01*
X135059500Y-81720144D01*
X135059513Y-81720151D01*
X135196026Y-81776696D01*
X135247956Y-81798206D01*
X135247960Y-81798206D01*
X135247961Y-81798207D01*
X135448009Y-81838000D01*
X135448012Y-81838000D01*
X135651990Y-81838000D01*
X135786579Y-81811227D01*
X135852044Y-81798206D01*
X136040493Y-81720148D01*
X136210093Y-81606825D01*
X136354325Y-81462593D01*
X136467648Y-81292993D01*
X136545706Y-81104544D01*
X136585500Y-80904488D01*
X136585500Y-80700512D01*
X136585500Y-80700509D01*
X136545707Y-80500461D01*
X136545706Y-80500460D01*
X136545706Y-80500456D01*
X136543186Y-80494373D01*
X136467651Y-80312013D01*
X136467644Y-80312000D01*
X136354325Y-80142407D01*
X136354322Y-80142403D01*
X136210096Y-79998177D01*
X136210092Y-79998174D01*
X136040499Y-79884855D01*
X136040486Y-79884848D01*
X135852048Y-79806795D01*
X135852038Y-79806792D01*
X135651990Y-79767000D01*
X135651988Y-79767000D01*
X135448012Y-79767000D01*
X135448010Y-79767000D01*
X135247961Y-79806792D01*
X135247951Y-79806795D01*
X135059513Y-79884848D01*
X135059500Y-79884855D01*
X134889907Y-79998174D01*
X134889903Y-79998177D01*
X134745677Y-80142403D01*
X134745674Y-80142407D01*
X134632355Y-80312000D01*
X134632348Y-80312013D01*
X134554295Y-80500451D01*
X134554292Y-80500461D01*
X134514500Y-80700509D01*
X134514500Y-80700512D01*
X134514500Y-80904488D01*
X134514500Y-80904490D01*
X134514499Y-80904490D01*
X134045500Y-80904490D01*
X134045500Y-80084240D01*
X134035573Y-80016107D01*
X133984198Y-79911017D01*
X133984196Y-79911015D01*
X133984196Y-79911014D01*
X133901485Y-79828303D01*
X133796391Y-79776926D01*
X133728261Y-79767000D01*
X133728260Y-79767000D01*
X132291740Y-79767000D01*
X132291739Y-79767000D01*
X132223608Y-79776926D01*
X132118514Y-79828303D01*
X132035803Y-79911014D01*
X131984426Y-80016108D01*
X131974500Y-80084239D01*
X131974500Y-80381979D01*
X131954815Y-80449018D01*
X131902011Y-80494773D01*
X131832853Y-80504717D01*
X131769297Y-80475692D01*
X131747398Y-80450870D01*
X131705276Y-80387831D01*
X131705273Y-80387827D01*
X131614672Y-80297226D01*
X131614668Y-80297223D01*
X131508133Y-80226038D01*
X131508124Y-80226033D01*
X131389744Y-80176999D01*
X131389738Y-80176997D01*
X131264071Y-80152000D01*
X131264069Y-80152000D01*
X131135931Y-80152000D01*
X131135929Y-80152000D01*
X131010261Y-80176997D01*
X131010255Y-80176999D01*
X130891875Y-80226033D01*
X130891866Y-80226038D01*
X130785331Y-80297223D01*
X130785327Y-80297226D01*
X130694726Y-80387827D01*
X130694723Y-80387831D01*
X130623538Y-80494366D01*
X130623533Y-80494375D01*
X130574499Y-80612755D01*
X130574497Y-80612761D01*
X130549500Y-80738428D01*
X130549500Y-80738431D01*
X130549500Y-80866569D01*
X130549500Y-80866571D01*
X130549499Y-80866571D01*
X130574497Y-80992238D01*
X130574499Y-80992244D01*
X130623533Y-81110624D01*
X130623538Y-81110633D01*
X130694723Y-81217168D01*
X130694725Y-81217171D01*
X130706178Y-81228623D01*
X130739665Y-81289945D01*
X130742500Y-81316307D01*
X130742500Y-83230649D01*
X130722815Y-83297688D01*
X130670011Y-83343443D01*
X130600853Y-83353387D01*
X130549610Y-83333752D01*
X130508131Y-83306037D01*
X130508124Y-83306033D01*
X130389744Y-83256999D01*
X130389738Y-83256997D01*
X130264071Y-83232000D01*
X130264069Y-83232000D01*
X130135931Y-83232000D01*
X130135929Y-83232000D01*
X130010261Y-83256997D01*
X130010255Y-83256999D01*
X129891875Y-83306033D01*
X129891866Y-83306038D01*
X129785331Y-83377223D01*
X129785327Y-83377226D01*
X129694726Y-83467827D01*
X129694723Y-83467831D01*
X129623538Y-83574366D01*
X129623533Y-83574375D01*
X129574499Y-83692755D01*
X129574497Y-83692761D01*
X129549500Y-83818428D01*
X129549500Y-83818431D01*
X129549500Y-83946569D01*
X129549500Y-83946571D01*
X129549499Y-83946571D01*
X129574497Y-84072238D01*
X129574499Y-84072244D01*
X129623533Y-84190624D01*
X129623538Y-84190633D01*
X129694723Y-84297168D01*
X129694725Y-84297171D01*
X129713179Y-84315624D01*
X129746666Y-84376946D01*
X129749500Y-84403307D01*
X129749500Y-86315327D01*
X129729815Y-86382366D01*
X129677011Y-86428121D01*
X129607853Y-86438065D01*
X129556609Y-86418429D01*
X129508133Y-86386038D01*
X129508124Y-86386033D01*
X129389744Y-86336999D01*
X129389738Y-86336997D01*
X129264071Y-86312000D01*
X129264069Y-86312000D01*
X129135931Y-86312000D01*
X129135929Y-86312000D01*
X129010261Y-86336997D01*
X129010255Y-86336999D01*
X128891875Y-86386033D01*
X128891866Y-86386038D01*
X128785331Y-86457223D01*
X128785327Y-86457226D01*
X128694726Y-86547827D01*
X128694723Y-86547831D01*
X128623538Y-86654366D01*
X128623533Y-86654375D01*
X128574499Y-86772755D01*
X128574497Y-86772761D01*
X128549500Y-86898428D01*
X128549500Y-86898431D01*
X128549500Y-87026569D01*
X128549500Y-87026571D01*
X128549499Y-87026571D01*
X128574497Y-87152238D01*
X128574499Y-87152244D01*
X128623533Y-87270624D01*
X128623538Y-87270633D01*
X128694723Y-87377168D01*
X128694725Y-87377171D01*
X128713179Y-87395624D01*
X128746666Y-87456946D01*
X128749500Y-87483307D01*
X128749500Y-89395327D01*
X128729815Y-89462366D01*
X128677011Y-89508121D01*
X128607853Y-89518065D01*
X128556609Y-89498429D01*
X128508133Y-89466038D01*
X128508124Y-89466033D01*
X128389744Y-89416999D01*
X128389738Y-89416997D01*
X128264071Y-89392000D01*
X128264069Y-89392000D01*
X128135931Y-89392000D01*
X128135929Y-89392000D01*
X128010261Y-89416997D01*
X128010255Y-89416999D01*
X127891875Y-89466033D01*
X127891866Y-89466038D01*
X127785331Y-89537223D01*
X127785327Y-89537226D01*
X127694726Y-89627827D01*
X127694723Y-89627831D01*
X127623538Y-89734366D01*
X127623533Y-89734375D01*
X127574499Y-89852755D01*
X127574497Y-89852761D01*
X127549500Y-89978428D01*
X127549500Y-89978431D01*
X127549500Y-90106569D01*
X127549500Y-90106571D01*
X127549499Y-90106571D01*
X127574497Y-90232238D01*
X127574499Y-90232244D01*
X127623533Y-90350624D01*
X127623538Y-90350633D01*
X127694723Y-90457168D01*
X127694725Y-90457171D01*
X127713179Y-90475624D01*
X127746666Y-90536946D01*
X127749500Y-90563307D01*
X127749500Y-92475327D01*
X127729815Y-92542366D01*
X127677011Y-92588121D01*
X127607853Y-92598065D01*
X127556609Y-92578429D01*
X127508133Y-92546038D01*
X127508124Y-92546033D01*
X127389744Y-92496999D01*
X127389738Y-92496997D01*
X127264071Y-92472000D01*
X127264069Y-92472000D01*
X127135931Y-92472000D01*
X127135929Y-92472000D01*
X127010261Y-92496997D01*
X127010255Y-92496999D01*
X126891875Y-92546033D01*
X126891866Y-92546038D01*
X126785331Y-92617223D01*
X126785327Y-92617226D01*
X126694726Y-92707827D01*
X126694723Y-92707831D01*
X126623538Y-92814366D01*
X126623533Y-92814375D01*
X126574499Y-92932755D01*
X126574497Y-92932761D01*
X126549500Y-93058428D01*
X126549500Y-93058431D01*
X126549500Y-93186569D01*
X126549500Y-93186571D01*
X126549499Y-93186571D01*
X126574497Y-93312238D01*
X126574499Y-93312244D01*
X126623533Y-93430624D01*
X126623538Y-93430633D01*
X126694723Y-93537168D01*
X126694725Y-93537171D01*
X126713179Y-93555624D01*
X126746666Y-93616946D01*
X126749500Y-93643307D01*
X126749500Y-95555327D01*
X126729815Y-95622366D01*
X126677011Y-95668121D01*
X126607853Y-95678065D01*
X126556609Y-95658429D01*
X126508133Y-95626038D01*
X126508124Y-95626033D01*
X126389744Y-95576999D01*
X126389738Y-95576997D01*
X126264071Y-95552000D01*
X126264069Y-95552000D01*
X126135931Y-95552000D01*
X126135929Y-95552000D01*
X126010261Y-95576997D01*
X126010255Y-95576999D01*
X125891875Y-95626033D01*
X125891866Y-95626038D01*
X125785331Y-95697223D01*
X125785327Y-95697226D01*
X125694726Y-95787827D01*
X125694723Y-95787831D01*
X125623538Y-95894366D01*
X125623533Y-95894375D01*
X125574499Y-96012755D01*
X125574497Y-96012761D01*
X125549500Y-96138428D01*
X125549500Y-96138431D01*
X125549500Y-96266569D01*
X125549500Y-96266571D01*
X125549499Y-96266571D01*
X125574497Y-96392238D01*
X125574499Y-96392244D01*
X125623533Y-96510624D01*
X125623538Y-96510633D01*
X125694723Y-96617168D01*
X125694725Y-96617171D01*
X125713179Y-96635624D01*
X125746666Y-96696946D01*
X125749500Y-96723307D01*
X125749500Y-98635327D01*
X125729815Y-98702366D01*
X125677011Y-98748121D01*
X125607853Y-98758065D01*
X125556609Y-98738429D01*
X125508133Y-98706038D01*
X125508124Y-98706033D01*
X125389744Y-98656999D01*
X125389738Y-98656997D01*
X125264071Y-98632000D01*
X125264069Y-98632000D01*
X125135931Y-98632000D01*
X125135929Y-98632000D01*
X125010261Y-98656997D01*
X125010255Y-98656999D01*
X124891875Y-98706033D01*
X124891866Y-98706038D01*
X124785331Y-98777223D01*
X124785327Y-98777226D01*
X124694726Y-98867827D01*
X124694723Y-98867831D01*
X124623538Y-98974366D01*
X124623533Y-98974375D01*
X124574499Y-99092755D01*
X124574497Y-99092761D01*
X124549500Y-99218428D01*
X124549500Y-99218431D01*
X124549500Y-99346569D01*
X124549500Y-99346571D01*
X124549499Y-99346571D01*
X124574497Y-99472238D01*
X124574499Y-99472244D01*
X124623533Y-99590624D01*
X124623538Y-99590633D01*
X124694723Y-99697168D01*
X124694725Y-99697171D01*
X124713179Y-99715624D01*
X124746666Y-99776946D01*
X124749500Y-99803307D01*
X124749500Y-101715327D01*
X124729815Y-101782366D01*
X124677011Y-101828121D01*
X124607853Y-101838065D01*
X124556609Y-101818429D01*
X124508133Y-101786038D01*
X124508124Y-101786033D01*
X124389744Y-101736999D01*
X124389738Y-101736997D01*
X124264071Y-101712000D01*
X124264069Y-101712000D01*
X124135931Y-101712000D01*
X124135929Y-101712000D01*
X124010261Y-101736997D01*
X124010255Y-101736999D01*
X123891875Y-101786033D01*
X123891866Y-101786038D01*
X123785331Y-101857223D01*
X123785327Y-101857226D01*
X123694726Y-101947827D01*
X123694723Y-101947831D01*
X123623538Y-102054366D01*
X123623533Y-102054375D01*
X123574499Y-102172755D01*
X123574497Y-102172761D01*
X123549500Y-102298428D01*
X123549500Y-102298431D01*
X123549500Y-102426569D01*
X123549500Y-102426571D01*
X123549499Y-102426571D01*
X122875500Y-102426571D01*
X122875500Y-102237027D01*
X122875500Y-102237024D01*
X122875499Y-102237022D01*
X122839168Y-102054375D01*
X122835322Y-102035039D01*
X122766884Y-101869815D01*
X122756509Y-101844767D01*
X122642096Y-101673536D01*
X122642090Y-101673528D01*
X122496471Y-101527909D01*
X122496463Y-101527903D01*
X122325232Y-101413490D01*
X122134961Y-101334678D01*
X122134953Y-101334676D01*
X121932976Y-101294500D01*
X121932973Y-101294500D01*
X121727027Y-101294500D01*
X121727024Y-101294500D01*
X121525046Y-101334676D01*
X121525038Y-101334678D01*
X121334767Y-101413490D01*
X121163536Y-101527903D01*
X121163528Y-101527909D01*
X121017909Y-101673528D01*
X121017903Y-101673536D01*
X120903490Y-101844767D01*
X120824678Y-102035038D01*
X120824676Y-102035046D01*
X120784500Y-102237022D01*
X120500500Y-102237022D01*
X120500500Y-99697022D01*
X120784500Y-99697022D01*
X120784500Y-99902977D01*
X120824676Y-100104953D01*
X120824678Y-100104961D01*
X120903490Y-100295232D01*
X121017903Y-100466463D01*
X121017909Y-100466471D01*
X121163528Y-100612090D01*
X121163536Y-100612096D01*
X121334767Y-100726509D01*
X121390496Y-100749592D01*
X121525039Y-100805322D01*
X121727022Y-100845499D01*
X121727025Y-100845500D01*
X121727027Y-100845500D01*
X121932975Y-100845500D01*
X121932976Y-100845499D01*
X122134961Y-100805322D01*
X122325230Y-100726510D01*
X122325230Y-100726509D01*
X122325232Y-100726509D01*
X122410275Y-100669684D01*
X122496468Y-100612093D01*
X122642093Y-100466468D01*
X122756510Y-100295230D01*
X122835322Y-100104961D01*
X122875500Y-99902973D01*
X122875500Y-99697027D01*
X122875500Y-99697024D01*
X122875499Y-99697022D01*
X122862363Y-99630983D01*
X122835322Y-99495039D01*
X122756510Y-99304770D01*
X122756509Y-99304767D01*
X122642096Y-99133536D01*
X122642090Y-99133528D01*
X122496471Y-98987909D01*
X122496463Y-98987903D01*
X122325232Y-98873490D01*
X122134961Y-98794678D01*
X122134953Y-98794676D01*
X121932976Y-98754500D01*
X121932973Y-98754500D01*
X121727027Y-98754500D01*
X121727024Y-98754500D01*
X121525046Y-98794676D01*
X121525038Y-98794678D01*
X121334767Y-98873490D01*
X121163536Y-98987903D01*
X121163528Y-98987909D01*
X121017909Y-99133528D01*
X121017903Y-99133536D01*
X120903490Y-99304767D01*
X120824678Y-99495038D01*
X120824676Y-99495046D01*
X120784500Y-99697022D01*
X120500500Y-99697022D01*
X120500500Y-97157022D01*
X120784500Y-97157022D01*
X120784500Y-97362977D01*
X120824676Y-97564953D01*
X120824678Y-97564961D01*
X120903490Y-97755232D01*
X121017903Y-97926463D01*
X121017909Y-97926471D01*
X121163528Y-98072090D01*
X121163536Y-98072096D01*
X121334767Y-98186509D01*
X121389812Y-98209309D01*
X121525039Y-98265322D01*
X121724589Y-98305015D01*
X121727022Y-98305499D01*
X121727025Y-98305500D01*
X121727027Y-98305500D01*
X121932975Y-98305500D01*
X121932976Y-98305499D01*
X122134961Y-98265322D01*
X122325230Y-98186510D01*
X122325230Y-98186509D01*
X122325232Y-98186509D01*
X122486478Y-98078768D01*
X122496468Y-98072093D01*
X122642093Y-97926468D01*
X122699684Y-97840275D01*
X122756509Y-97755232D01*
X122766235Y-97731752D01*
X122835322Y-97564961D01*
X122875500Y-97362973D01*
X122875500Y-97157027D01*
X122875500Y-97157024D01*
X122875499Y-97157022D01*
X122862988Y-97094124D01*
X122835322Y-96955039D01*
X122756510Y-96764770D01*
X122756509Y-96764767D01*
X122642096Y-96593536D01*
X122642090Y-96593528D01*
X122496471Y-96447909D01*
X122496463Y-96447903D01*
X122325232Y-96333490D01*
X122134961Y-96254678D01*
X122134953Y-96254676D01*
X121932976Y-96214500D01*
X121932973Y-96214500D01*
X121727027Y-96214500D01*
X121727024Y-96214500D01*
X121525046Y-96254676D01*
X121525038Y-96254678D01*
X121334767Y-96333490D01*
X121163536Y-96447903D01*
X121163528Y-96447909D01*
X121017909Y-96593528D01*
X121017903Y-96593536D01*
X120903490Y-96764767D01*
X120824678Y-96955038D01*
X120824676Y-96955046D01*
X120784500Y-97157022D01*
X120500500Y-97157022D01*
X120500500Y-94617022D01*
X120784500Y-94617022D01*
X120784500Y-94822977D01*
X120824676Y-95024953D01*
X120824678Y-95024961D01*
X120903490Y-95215232D01*
X121017903Y-95386463D01*
X121017909Y-95386471D01*
X121163528Y-95532090D01*
X121163536Y-95532096D01*
X121334767Y-95646509D01*
X121363545Y-95658429D01*
X121525039Y-95725322D01*
X121665865Y-95753334D01*
X121727022Y-95765499D01*
X121727025Y-95765500D01*
X121727027Y-95765500D01*
X121932975Y-95765500D01*
X121932976Y-95765499D01*
X122134961Y-95725322D01*
X122325230Y-95646510D01*
X122325230Y-95646509D01*
X122325232Y-95646509D01*
X122458843Y-95557233D01*
X122496468Y-95532093D01*
X122642093Y-95386468D01*
X122724253Y-95263507D01*
X122756509Y-95215232D01*
X122756510Y-95215230D01*
X122835322Y-95024961D01*
X122875500Y-94822973D01*
X122875500Y-94617027D01*
X122875500Y-94617024D01*
X122875499Y-94617022D01*
X122863450Y-94556446D01*
X122835322Y-94415039D01*
X122766884Y-94249815D01*
X122756509Y-94224767D01*
X122642096Y-94053536D01*
X122642090Y-94053528D01*
X122496471Y-93907909D01*
X122496463Y-93907903D01*
X122325232Y-93793490D01*
X122134961Y-93714678D01*
X122134953Y-93714676D01*
X121932976Y-93674500D01*
X121932973Y-93674500D01*
X121727027Y-93674500D01*
X121727024Y-93674500D01*
X121525046Y-93714676D01*
X121525038Y-93714678D01*
X121334767Y-93793490D01*
X121163536Y-93907903D01*
X121163528Y-93907909D01*
X121017909Y-94053528D01*
X121017903Y-94053536D01*
X120903490Y-94224767D01*
X120824678Y-94415038D01*
X120824676Y-94415046D01*
X120784500Y-94617022D01*
X120500500Y-94617022D01*
X120500500Y-92077022D01*
X120784500Y-92077022D01*
X120784500Y-92282977D01*
X120824676Y-92484953D01*
X120824678Y-92484961D01*
X120903490Y-92675232D01*
X121017903Y-92846463D01*
X121017909Y-92846471D01*
X121163528Y-92992090D01*
X121163536Y-92992096D01*
X121334767Y-93106509D01*
X121365102Y-93119074D01*
X121525039Y-93185322D01*
X121727022Y-93225499D01*
X121727025Y-93225500D01*
X121727027Y-93225500D01*
X121932975Y-93225500D01*
X121932976Y-93225499D01*
X122134961Y-93185322D01*
X122325230Y-93106510D01*
X122325230Y-93106509D01*
X122325232Y-93106509D01*
X122470416Y-93009500D01*
X122496468Y-92992093D01*
X122642093Y-92846468D01*
X122734727Y-92707831D01*
X122756509Y-92675232D01*
X122766626Y-92650807D01*
X122835322Y-92484961D01*
X122875500Y-92282973D01*
X122875500Y-92077027D01*
X122875500Y-92077024D01*
X122875499Y-92077022D01*
X122873292Y-92065928D01*
X122835322Y-91875039D01*
X122756510Y-91684770D01*
X122756509Y-91684767D01*
X122642096Y-91513536D01*
X122642090Y-91513528D01*
X122496471Y-91367909D01*
X122496463Y-91367903D01*
X122325232Y-91253490D01*
X122134961Y-91174678D01*
X122134953Y-91174676D01*
X121932976Y-91134500D01*
X121932973Y-91134500D01*
X121727027Y-91134500D01*
X121727024Y-91134500D01*
X121525046Y-91174676D01*
X121525038Y-91174678D01*
X121334767Y-91253490D01*
X121163536Y-91367903D01*
X121163528Y-91367909D01*
X121017909Y-91513528D01*
X121017903Y-91513536D01*
X120903490Y-91684767D01*
X120824678Y-91875038D01*
X120824676Y-91875046D01*
X120784500Y-92077022D01*
X120500500Y-92077022D01*
X120500500Y-89537022D01*
X120784500Y-89537022D01*
X120784500Y-89742977D01*
X120824676Y-89944953D01*
X120824678Y-89944961D01*
X120903490Y-90135232D01*
X121017903Y-90306463D01*
X121017909Y-90306471D01*
X121163528Y-90452090D01*
X121163536Y-90452096D01*
X121334767Y-90566509D01*
X121390496Y-90589592D01*
X121525039Y-90645322D01*
X121671933Y-90674541D01*
X121727022Y-90685499D01*
X121727025Y-90685500D01*
X121727027Y-90685500D01*
X121932975Y-90685500D01*
X121932976Y-90685499D01*
X122134961Y-90645322D01*
X122325230Y-90566510D01*
X122325230Y-90566509D01*
X122325232Y-90566509D01*
X122488871Y-90457169D01*
X122496468Y-90452093D01*
X122642093Y-90306468D01*
X122708631Y-90206886D01*
X122756509Y-90135232D01*
X122768381Y-90106571D01*
X122835322Y-89944961D01*
X122875500Y-89742973D01*
X122875500Y-89537027D01*
X122875500Y-89537024D01*
X122875499Y-89537022D01*
X122860649Y-89462366D01*
X122835322Y-89335039D01*
X122756510Y-89144770D01*
X122756509Y-89144767D01*
X122642096Y-88973536D01*
X122642090Y-88973528D01*
X122496471Y-88827909D01*
X122496463Y-88827903D01*
X122325232Y-88713490D01*
X122134961Y-88634678D01*
X122134953Y-88634676D01*
X121932976Y-88594500D01*
X121932973Y-88594500D01*
X121727027Y-88594500D01*
X121727024Y-88594500D01*
X121525046Y-88634676D01*
X121525038Y-88634678D01*
X121334767Y-88713490D01*
X121163536Y-88827903D01*
X121163528Y-88827909D01*
X121017909Y-88973528D01*
X121017903Y-88973536D01*
X120903490Y-89144767D01*
X120824678Y-89335038D01*
X120824676Y-89335046D01*
X120784500Y-89537022D01*
X120500500Y-89537022D01*
X120500500Y-86997022D01*
X120784500Y-86997022D01*
X120784500Y-87202977D01*
X120824676Y-87404953D01*
X120824678Y-87404961D01*
X120903490Y-87595232D01*
X121017903Y-87766463D01*
X121017909Y-87766471D01*
X121163528Y-87912090D01*
X121163536Y-87912096D01*
X121334767Y-88026509D01*
X121337068Y-88027462D01*
X121525039Y-88105322D01*
X121727022Y-88145499D01*
X121727025Y-88145500D01*
X121727027Y-88145500D01*
X121932975Y-88145500D01*
X121932976Y-88145499D01*
X122134961Y-88105322D01*
X122325230Y-88026510D01*
X122325230Y-88026509D01*
X122325232Y-88026509D01*
X122466675Y-87932000D01*
X122496468Y-87912093D01*
X122642093Y-87766468D01*
X122702233Y-87676461D01*
X122756509Y-87595232D01*
X122759994Y-87586819D01*
X122835322Y-87404961D01*
X122875500Y-87202973D01*
X122875500Y-86997027D01*
X122875500Y-86997024D01*
X122875499Y-86997022D01*
X122835322Y-86795039D01*
X122756510Y-86604770D01*
X122756509Y-86604767D01*
X122642096Y-86433536D01*
X122642090Y-86433528D01*
X122496471Y-86287909D01*
X122496463Y-86287903D01*
X122325232Y-86173490D01*
X122134961Y-86094678D01*
X122134953Y-86094676D01*
X121932976Y-86054500D01*
X121932973Y-86054500D01*
X121727027Y-86054500D01*
X121727024Y-86054500D01*
X121525046Y-86094676D01*
X121525038Y-86094678D01*
X121334767Y-86173490D01*
X121163536Y-86287903D01*
X121163528Y-86287909D01*
X121017909Y-86433528D01*
X121017903Y-86433536D01*
X120903490Y-86604767D01*
X120824678Y-86795038D01*
X120824676Y-86795046D01*
X120784500Y-86997022D01*
X120500500Y-86997022D01*
X120500500Y-84457022D01*
X120784500Y-84457022D01*
X120784500Y-84662977D01*
X120824676Y-84864953D01*
X120824678Y-84864961D01*
X120903490Y-85055232D01*
X121017903Y-85226463D01*
X121017909Y-85226471D01*
X121163528Y-85372090D01*
X121163536Y-85372096D01*
X121334767Y-85486509D01*
X121390496Y-85509592D01*
X121525039Y-85565322D01*
X121727022Y-85605499D01*
X121727025Y-85605500D01*
X121727027Y-85605500D01*
X121932975Y-85605500D01*
X121932976Y-85605499D01*
X122134961Y-85565322D01*
X122325230Y-85486510D01*
X122325230Y-85486509D01*
X122325232Y-85486509D01*
X122466675Y-85392000D01*
X122496468Y-85372093D01*
X122642093Y-85226468D01*
X122699684Y-85140275D01*
X122756509Y-85055232D01*
X122756510Y-85055230D01*
X122835322Y-84864961D01*
X122875500Y-84662973D01*
X122875500Y-84457027D01*
X122875500Y-84457024D01*
X122875499Y-84457022D01*
X122864814Y-84403307D01*
X122835322Y-84255039D01*
X122759606Y-84072244D01*
X122756509Y-84064767D01*
X122642096Y-83893536D01*
X122642090Y-83893528D01*
X122496471Y-83747909D01*
X122496463Y-83747903D01*
X122325232Y-83633490D01*
X122134961Y-83554678D01*
X122134953Y-83554676D01*
X121932976Y-83514500D01*
X121932973Y-83514500D01*
X121727027Y-83514500D01*
X121727024Y-83514500D01*
X121525046Y-83554676D01*
X121525038Y-83554678D01*
X121334767Y-83633490D01*
X121163536Y-83747903D01*
X121163528Y-83747909D01*
X121017909Y-83893528D01*
X121017903Y-83893536D01*
X120903490Y-84064767D01*
X120824678Y-84255038D01*
X120824676Y-84255046D01*
X120784500Y-84457022D01*
X120500500Y-84457022D01*
X120500500Y-84037964D01*
X120520185Y-83970925D01*
X120536815Y-83950287D01*
X121425410Y-83061691D01*
X121486731Y-83028208D01*
X121537281Y-83027757D01*
X121727024Y-83065500D01*
X121727027Y-83065500D01*
X121932975Y-83065500D01*
X121932976Y-83065499D01*
X122134961Y-83025322D01*
X122325230Y-82946510D01*
X122325230Y-82946509D01*
X122325232Y-82946509D01*
X122466675Y-82852000D01*
X122496468Y-82832093D01*
X122642093Y-82686468D01*
X122699684Y-82600275D01*
X122756509Y-82515232D01*
X122764593Y-82495716D01*
X122835322Y-82324961D01*
X122875500Y-82122973D01*
X122875500Y-81917027D01*
X122875500Y-81917024D01*
X122875499Y-81917022D01*
X122835322Y-81715039D01*
X122756510Y-81524770D01*
X122756509Y-81524767D01*
X122642096Y-81353536D01*
X122642090Y-81353528D01*
X122496471Y-81207909D01*
X122496463Y-81207903D01*
X122325232Y-81093490D01*
X122134961Y-81014678D01*
X122134953Y-81014676D01*
X121932976Y-80974500D01*
X121932973Y-80974500D01*
X121727027Y-80974500D01*
X121727024Y-80974500D01*
X121525046Y-81014676D01*
X121525038Y-81014678D01*
X121334767Y-81093490D01*
X121163536Y-81207903D01*
X121163528Y-81207909D01*
X121017909Y-81353528D01*
X121017903Y-81353536D01*
X120903490Y-81524767D01*
X120824678Y-81715038D01*
X120824676Y-81715046D01*
X120784500Y-81917022D01*
X120784500Y-82122977D01*
X120822242Y-82312717D01*
X120816015Y-82382308D01*
X120788306Y-82424589D01*
X119712181Y-83500715D01*
X119650858Y-83534200D01*
X119581166Y-83529216D01*
X119525233Y-83487344D01*
X119500816Y-83421880D01*
X119500500Y-83413034D01*
X119500500Y-79377022D01*
X120784500Y-79377022D01*
X120784500Y-79582977D01*
X120824676Y-79784953D01*
X120824678Y-79784961D01*
X120903490Y-79975232D01*
X121017903Y-80146463D01*
X121017909Y-80146471D01*
X121163528Y-80292090D01*
X121163536Y-80292096D01*
X121334767Y-80406509D01*
X121390496Y-80429592D01*
X121525039Y-80485322D01*
X121727022Y-80525499D01*
X121727025Y-80525500D01*
X121727027Y-80525500D01*
X121932975Y-80525500D01*
X121932976Y-80525499D01*
X122134961Y-80485322D01*
X122325230Y-80406510D01*
X122325230Y-80406509D01*
X122325232Y-80406509D01*
X122466675Y-80312000D01*
X122496468Y-80292093D01*
X122642093Y-80146468D01*
X122699684Y-80060275D01*
X122756509Y-79975232D01*
X122756510Y-79975230D01*
X122835322Y-79784961D01*
X122875500Y-79582973D01*
X122875500Y-79377027D01*
X122875500Y-79377024D01*
X122875499Y-79377022D01*
X122835323Y-79175046D01*
X122835322Y-79175039D01*
X122756510Y-78984770D01*
X122756509Y-78984767D01*
X122642096Y-78813536D01*
X122642090Y-78813528D01*
X122496471Y-78667909D01*
X122496463Y-78667903D01*
X122325232Y-78553490D01*
X122134961Y-78474678D01*
X122134953Y-78474676D01*
X121932976Y-78434500D01*
X121932973Y-78434500D01*
X121727027Y-78434500D01*
X121727024Y-78434500D01*
X121525046Y-78474676D01*
X121525038Y-78474678D01*
X121334767Y-78553490D01*
X121163536Y-78667903D01*
X121163528Y-78667909D01*
X121017909Y-78813528D01*
X121017903Y-78813536D01*
X120903490Y-78984767D01*
X120824678Y-79175038D01*
X120824676Y-79175046D01*
X120784500Y-79377022D01*
X119500500Y-79377022D01*
X119500500Y-76837022D01*
X120784500Y-76837022D01*
X120784500Y-77042977D01*
X120824676Y-77244953D01*
X120824678Y-77244961D01*
X120903490Y-77435232D01*
X121017903Y-77606463D01*
X121017909Y-77606471D01*
X121163528Y-77752090D01*
X121163536Y-77752096D01*
X121334767Y-77866509D01*
X121390496Y-77889592D01*
X121525039Y-77945322D01*
X121727022Y-77985499D01*
X121727025Y-77985500D01*
X121727027Y-77985500D01*
X121932975Y-77985500D01*
X121932976Y-77985499D01*
X122134961Y-77945322D01*
X122325230Y-77866510D01*
X122325230Y-77866509D01*
X122325232Y-77866509D01*
X122410275Y-77809684D01*
X122496468Y-77752093D01*
X122642093Y-77606468D01*
X122756510Y-77435230D01*
X122835322Y-77244961D01*
X122866008Y-77090691D01*
X143949500Y-77090691D01*
X143949500Y-98209309D01*
X143964509Y-98265322D01*
X143980201Y-98323887D01*
X144039511Y-98426614D01*
X145773386Y-100160489D01*
X145789860Y-100170000D01*
X145789861Y-100170000D01*
X145801323Y-100176618D01*
X145876108Y-100219796D01*
X145876109Y-100219797D01*
X145876111Y-100219797D01*
X145876114Y-100219799D01*
X145990691Y-100250500D01*
X146207322Y-100250500D01*
X146274361Y-100270185D01*
X146310424Y-100305609D01*
X146417906Y-100466467D01*
X146417909Y-100466471D01*
X146563528Y-100612090D01*
X146563536Y-100612096D01*
X146734767Y-100726509D01*
X146790496Y-100749592D01*
X146925039Y-100805322D01*
X147127022Y-100845499D01*
X147127025Y-100845500D01*
X147127027Y-100845500D01*
X147332975Y-100845500D01*
X147332976Y-100845499D01*
X147534961Y-100805322D01*
X147725230Y-100726510D01*
X147725230Y-100726509D01*
X147725232Y-100726509D01*
X147810275Y-100669684D01*
X147896468Y-100612093D01*
X148042093Y-100466468D01*
X148156510Y-100295230D01*
X148235322Y-100104961D01*
X148275500Y-99902973D01*
X148275500Y-99697027D01*
X148275500Y-99697024D01*
X148275499Y-99697022D01*
X148262363Y-99630983D01*
X148235322Y-99495039D01*
X148156510Y-99304770D01*
X148156509Y-99304767D01*
X148042096Y-99133536D01*
X148042090Y-99133528D01*
X147896471Y-98987909D01*
X147896463Y-98987903D01*
X147725232Y-98873490D01*
X147534961Y-98794678D01*
X147534953Y-98794676D01*
X147332976Y-98754500D01*
X147332973Y-98754500D01*
X147127027Y-98754500D01*
X147127024Y-98754500D01*
X146925046Y-98794676D01*
X146925038Y-98794678D01*
X146734767Y-98873490D01*
X146563536Y-98987903D01*
X146563528Y-98987909D01*
X146417909Y-99133528D01*
X146417906Y-99133532D01*
X146342725Y-99246049D01*
X146289113Y-99290854D01*
X146219788Y-99299561D01*
X146156760Y-99269407D01*
X146151942Y-99264839D01*
X144886819Y-97999716D01*
X144853334Y-97938393D01*
X144850500Y-97912035D01*
X144850500Y-94617022D01*
X146184500Y-94617022D01*
X146184500Y-94822977D01*
X146224676Y-95024953D01*
X146224678Y-95024961D01*
X146303490Y-95215232D01*
X146417903Y-95386463D01*
X146417909Y-95386471D01*
X146563528Y-95532090D01*
X146563536Y-95532096D01*
X146734767Y-95646509D01*
X146763545Y-95658429D01*
X146925039Y-95725322D01*
X147065865Y-95753334D01*
X147127022Y-95765499D01*
X147127025Y-95765500D01*
X147127027Y-95765500D01*
X147332975Y-95765500D01*
X147332976Y-95765499D01*
X147534961Y-95725322D01*
X147725230Y-95646510D01*
X147725230Y-95646509D01*
X147725232Y-95646509D01*
X147858843Y-95557233D01*
X147896468Y-95532093D01*
X148042093Y-95386468D01*
X148124253Y-95263507D01*
X148149576Y-95225609D01*
X148203188Y-95180804D01*
X148252678Y-95170500D01*
X150789308Y-95170500D01*
X150789309Y-95170500D01*
X150879673Y-95146286D01*
X150903887Y-95139799D01*
X151006614Y-95080489D01*
X152140284Y-93946819D01*
X152201607Y-93913334D01*
X152227965Y-93910500D01*
X153353035Y-93910500D01*
X153420074Y-93930185D01*
X153465829Y-93982989D01*
X153475773Y-94052147D01*
X153446748Y-94115703D01*
X153440716Y-94122181D01*
X150789716Y-96773181D01*
X150728393Y-96806666D01*
X150702035Y-96809500D01*
X148252678Y-96809500D01*
X148185639Y-96789815D01*
X148149576Y-96754391D01*
X148042093Y-96593532D01*
X148042090Y-96593528D01*
X147896471Y-96447909D01*
X147896463Y-96447903D01*
X147725232Y-96333490D01*
X147534961Y-96254678D01*
X147534953Y-96254676D01*
X147332976Y-96214500D01*
X147332973Y-96214500D01*
X147127027Y-96214500D01*
X147127024Y-96214500D01*
X146925046Y-96254676D01*
X146925038Y-96254678D01*
X146734767Y-96333490D01*
X146563536Y-96447903D01*
X146563528Y-96447909D01*
X146417909Y-96593528D01*
X146417903Y-96593536D01*
X146303490Y-96764767D01*
X146224678Y-96955038D01*
X146224676Y-96955046D01*
X146184500Y-97157022D01*
X146184500Y-97362977D01*
X146224676Y-97564953D01*
X146224678Y-97564961D01*
X146303490Y-97755232D01*
X146417903Y-97926463D01*
X146417909Y-97926471D01*
X146563528Y-98072090D01*
X146563536Y-98072096D01*
X146734767Y-98186509D01*
X146789812Y-98209309D01*
X146925039Y-98265322D01*
X147124589Y-98305015D01*
X147127022Y-98305499D01*
X147127025Y-98305500D01*
X147127027Y-98305500D01*
X147332975Y-98305500D01*
X147332976Y-98305499D01*
X147534961Y-98265322D01*
X147725230Y-98186510D01*
X147725230Y-98186509D01*
X147725232Y-98186509D01*
X147886478Y-98078768D01*
X147896468Y-98072093D01*
X148042093Y-97926468D01*
X148085369Y-97861699D01*
X148149576Y-97765609D01*
X148203188Y-97720804D01*
X148252678Y-97710500D01*
X150999308Y-97710500D01*
X150999309Y-97710500D01*
X151089673Y-97686286D01*
X151113887Y-97679799D01*
X151216614Y-97620489D01*
X153890284Y-94946819D01*
X153951607Y-94913334D01*
X153977965Y-94910500D01*
X155403035Y-94910500D01*
X155470074Y-94930185D01*
X155515829Y-94982989D01*
X155525773Y-95052147D01*
X155496748Y-95115703D01*
X155490716Y-95122181D01*
X148759716Y-101853181D01*
X148698393Y-101886666D01*
X148672035Y-101889500D01*
X148252678Y-101889500D01*
X148185639Y-101869815D01*
X148149576Y-101834391D01*
X148042093Y-101673532D01*
X148042090Y-101673528D01*
X147896471Y-101527909D01*
X147896463Y-101527903D01*
X147725232Y-101413490D01*
X147534961Y-101334678D01*
X147534953Y-101334676D01*
X147332976Y-101294500D01*
X147332973Y-101294500D01*
X147127027Y-101294500D01*
X147127024Y-101294500D01*
X146925046Y-101334676D01*
X146925038Y-101334678D01*
X146734767Y-101413490D01*
X146563536Y-101527903D01*
X146563528Y-101527909D01*
X146417909Y-101673528D01*
X146417903Y-101673536D01*
X146303490Y-101844767D01*
X146224678Y-102035038D01*
X146224676Y-102035046D01*
X146184500Y-102237022D01*
X146184500Y-102442977D01*
X146224676Y-102644953D01*
X146224678Y-102644961D01*
X146303490Y-102835232D01*
X146417903Y-103006463D01*
X146417909Y-103006471D01*
X146563528Y-103152090D01*
X146563536Y-103152096D01*
X146734767Y-103266509D01*
X146790496Y-103289592D01*
X146925039Y-103345322D01*
X147127022Y-103385499D01*
X147127025Y-103385500D01*
X147127027Y-103385500D01*
X147332975Y-103385500D01*
X147332976Y-103385499D01*
X147534961Y-103345322D01*
X147725230Y-103266510D01*
X147725230Y-103266509D01*
X147725232Y-103266509D01*
X147810275Y-103209684D01*
X147896468Y-103152093D01*
X148042093Y-103006468D01*
X148098390Y-102922213D01*
X148149576Y-102845609D01*
X148203188Y-102800804D01*
X148252678Y-102790500D01*
X148969307Y-102790500D01*
X148969309Y-102790500D01*
X149054035Y-102767797D01*
X149071941Y-102763000D01*
X149071942Y-102762999D01*
X149083887Y-102759799D01*
X149186614Y-102700489D01*
X156100284Y-95786819D01*
X156161607Y-95753334D01*
X156187965Y-95750500D01*
X173759307Y-95750500D01*
X173759309Y-95750500D01*
X173853274Y-95725322D01*
X173873887Y-95719799D01*
X173976614Y-95660489D01*
X174845915Y-94791188D01*
X206290350Y-94791188D01*
X206290350Y-95028811D01*
X206327522Y-95263507D01*
X206400954Y-95489506D01*
X206508832Y-95701229D01*
X206570432Y-95786013D01*
X206570432Y-95786014D01*
X207181278Y-95175168D01*
X207203506Y-95228832D01*
X207277169Y-95339076D01*
X207370924Y-95432831D01*
X207481168Y-95506494D01*
X207534830Y-95528721D01*
X206923984Y-96139566D01*
X207008770Y-96201167D01*
X207220493Y-96309045D01*
X207446492Y-96382477D01*
X207681189Y-96419650D01*
X207918811Y-96419650D01*
X208153507Y-96382477D01*
X208379506Y-96309045D01*
X208591221Y-96201171D01*
X208591227Y-96201167D01*
X208676013Y-96139566D01*
X208676014Y-96139566D01*
X208065169Y-95528721D01*
X208118832Y-95506494D01*
X208229076Y-95432831D01*
X208322831Y-95339076D01*
X208396494Y-95228832D01*
X208418721Y-95175168D01*
X209029999Y-95786446D01*
X209034120Y-95782325D01*
X209641277Y-95175167D01*
X209663506Y-95228832D01*
X209737169Y-95339076D01*
X209830924Y-95432831D01*
X209941168Y-95506494D01*
X209994830Y-95528721D01*
X209383984Y-96139566D01*
X209468770Y-96201167D01*
X209680493Y-96309045D01*
X209906492Y-96382477D01*
X210141189Y-96419650D01*
X210378811Y-96419650D01*
X210613507Y-96382477D01*
X210839506Y-96309045D01*
X211051221Y-96201171D01*
X211051227Y-96201167D01*
X211136013Y-96139566D01*
X211136014Y-96139566D01*
X210525169Y-95528721D01*
X210578832Y-95506494D01*
X210689076Y-95432831D01*
X210782831Y-95339076D01*
X210856494Y-95228832D01*
X210878721Y-95175169D01*
X211489566Y-95786014D01*
X211489566Y-95786013D01*
X211551167Y-95701227D01*
X211551171Y-95701221D01*
X211659045Y-95489506D01*
X211732477Y-95263507D01*
X211769650Y-95028811D01*
X211769650Y-94791188D01*
X211732477Y-94556492D01*
X211659045Y-94330493D01*
X211551167Y-94118770D01*
X211489566Y-94033985D01*
X211489566Y-94033984D01*
X210878721Y-94644830D01*
X210856494Y-94591168D01*
X210782831Y-94480924D01*
X210689076Y-94387169D01*
X210578832Y-94313506D01*
X210525167Y-94291277D01*
X211136014Y-93680432D01*
X211051229Y-93618832D01*
X210839506Y-93510954D01*
X210613507Y-93437522D01*
X210378811Y-93400350D01*
X210141189Y-93400350D01*
X209906492Y-93437522D01*
X209680493Y-93510954D01*
X209468772Y-93618831D01*
X209468768Y-93618833D01*
X209383985Y-93680431D01*
X209383985Y-93680433D01*
X209994830Y-94291278D01*
X209941168Y-94313506D01*
X209830924Y-94387169D01*
X209737169Y-94480924D01*
X209663506Y-94591168D01*
X209641278Y-94644831D01*
X209029999Y-94033552D01*
X209025806Y-94037745D01*
X208418721Y-94644830D01*
X208396494Y-94591168D01*
X208322831Y-94480924D01*
X208229076Y-94387169D01*
X208118832Y-94313506D01*
X208065167Y-94291277D01*
X208676014Y-93680432D01*
X208591229Y-93618832D01*
X208379506Y-93510954D01*
X208153507Y-93437522D01*
X207918811Y-93400350D01*
X207681189Y-93400350D01*
X207446492Y-93437522D01*
X207220493Y-93510954D01*
X207008772Y-93618831D01*
X207008768Y-93618833D01*
X206923985Y-93680431D01*
X206923985Y-93680433D01*
X207534830Y-94291278D01*
X207481168Y-94313506D01*
X207370924Y-94387169D01*
X207277169Y-94480924D01*
X207203506Y-94591168D01*
X207181278Y-94644830D01*
X206570433Y-94033985D01*
X206570431Y-94033985D01*
X206508833Y-94118768D01*
X206508831Y-94118772D01*
X206400954Y-94330493D01*
X206327522Y-94556492D01*
X206290350Y-94791188D01*
X174845915Y-94791188D01*
X176070489Y-93566614D01*
X176129799Y-93463887D01*
X176138710Y-93430633D01*
X176138930Y-93429813D01*
X176149714Y-93389561D01*
X176160500Y-93349309D01*
X176160500Y-92650807D01*
X176180185Y-92583768D01*
X176196821Y-92563124D01*
X176215274Y-92544671D01*
X176215276Y-92544669D01*
X176286465Y-92438127D01*
X176335501Y-92319744D01*
X176353537Y-92229074D01*
X176360500Y-92194071D01*
X176360500Y-92065928D01*
X176335502Y-91940261D01*
X176335501Y-91940260D01*
X176335501Y-91940256D01*
X176286465Y-91821873D01*
X176286464Y-91821872D01*
X176286461Y-91821866D01*
X176215276Y-91715331D01*
X176215273Y-91715327D01*
X176124672Y-91624726D01*
X176124668Y-91624723D01*
X176018133Y-91553538D01*
X176018124Y-91553533D01*
X175899744Y-91504499D01*
X175899738Y-91504497D01*
X175774071Y-91479500D01*
X175774069Y-91479500D01*
X175645931Y-91479500D01*
X175645929Y-91479500D01*
X175520261Y-91504497D01*
X175520255Y-91504499D01*
X175401875Y-91553533D01*
X175401866Y-91553538D01*
X175295331Y-91624723D01*
X175295327Y-91624726D01*
X175204726Y-91715327D01*
X175204723Y-91715331D01*
X175133538Y-91821866D01*
X175133533Y-91821875D01*
X175084499Y-91940255D01*
X175084497Y-91940261D01*
X175059500Y-92065928D01*
X175059500Y-92065931D01*
X175059500Y-92194069D01*
X175059500Y-92194071D01*
X175059499Y-92194071D01*
X175084497Y-92319738D01*
X175084499Y-92319744D01*
X175133533Y-92438124D01*
X175133538Y-92438133D01*
X175204723Y-92544668D01*
X175204725Y-92544671D01*
X175223179Y-92563124D01*
X175256666Y-92624446D01*
X175259500Y-92650807D01*
X175259500Y-93052035D01*
X175239815Y-93119074D01*
X175223181Y-93139716D01*
X173549716Y-94813181D01*
X173488393Y-94846666D01*
X173462035Y-94849500D01*
X171636965Y-94849500D01*
X171569926Y-94829815D01*
X171524171Y-94777011D01*
X171514227Y-94707853D01*
X171543252Y-94644297D01*
X171549284Y-94637819D01*
X172512603Y-93674500D01*
X173510489Y-92676614D01*
X173569799Y-92573887D01*
X173587776Y-92506794D01*
X173600500Y-92459309D01*
X173600500Y-91385093D01*
X173620185Y-91318054D01*
X173636821Y-91297410D01*
X173655274Y-91278957D01*
X173655276Y-91278955D01*
X173726465Y-91172413D01*
X173775501Y-91054030D01*
X173775501Y-91054027D01*
X173775503Y-91054024D01*
X173800500Y-90928357D01*
X173800500Y-90842948D01*
X206439850Y-90842948D01*
X206439850Y-91057051D01*
X206473340Y-91268503D01*
X206539500Y-91472120D01*
X206627020Y-91643886D01*
X206636695Y-91662874D01*
X206762536Y-91836078D01*
X206913922Y-91987464D01*
X207087126Y-92113305D01*
X207177251Y-92159226D01*
X207277879Y-92210499D01*
X207277881Y-92210499D01*
X207277884Y-92210501D01*
X207335046Y-92229074D01*
X207481496Y-92276659D01*
X207692949Y-92310150D01*
X207692954Y-92310150D01*
X207907051Y-92310150D01*
X208118503Y-92276659D01*
X208322116Y-92210501D01*
X208512874Y-92113305D01*
X208686078Y-91987464D01*
X208837464Y-91836078D01*
X208929683Y-91709150D01*
X208985012Y-91666486D01*
X209054626Y-91660507D01*
X209116421Y-91693113D01*
X209130314Y-91709147D01*
X209222536Y-91836078D01*
X209373922Y-91987464D01*
X209547126Y-92113305D01*
X209637251Y-92159226D01*
X209737879Y-92210499D01*
X209737881Y-92210499D01*
X209737884Y-92210501D01*
X209795046Y-92229074D01*
X209941496Y-92276659D01*
X210152949Y-92310150D01*
X210152954Y-92310150D01*
X210367051Y-92310150D01*
X210578503Y-92276659D01*
X210782116Y-92210501D01*
X210972874Y-92113305D01*
X211146078Y-91987464D01*
X211297464Y-91836078D01*
X211423305Y-91662874D01*
X211520501Y-91472116D01*
X211586659Y-91268503D01*
X211592435Y-91232035D01*
X211620150Y-91057051D01*
X211620150Y-90842948D01*
X211586659Y-90631496D01*
X211542372Y-90495197D01*
X211520501Y-90427884D01*
X211520499Y-90427881D01*
X211520499Y-90427879D01*
X211449134Y-90287819D01*
X211423305Y-90237126D01*
X211297464Y-90063922D01*
X211146078Y-89912536D01*
X210972874Y-89786695D01*
X210887073Y-89742977D01*
X210782120Y-89689500D01*
X210578503Y-89623340D01*
X210367051Y-89589850D01*
X210367046Y-89589850D01*
X210152954Y-89589850D01*
X210152949Y-89589850D01*
X209941496Y-89623340D01*
X209737879Y-89689500D01*
X209547125Y-89786695D01*
X209373920Y-89912537D01*
X209222538Y-90063919D01*
X209130318Y-90190848D01*
X209074987Y-90233513D01*
X209005374Y-90239492D01*
X208943579Y-90206886D01*
X208929682Y-90190848D01*
X208905943Y-90158174D01*
X208837464Y-90063922D01*
X208686078Y-89912536D01*
X208512874Y-89786695D01*
X208427073Y-89742977D01*
X208322120Y-89689500D01*
X208118503Y-89623340D01*
X207907051Y-89589850D01*
X207907046Y-89589850D01*
X207692954Y-89589850D01*
X207692949Y-89589850D01*
X207481496Y-89623340D01*
X207277879Y-89689500D01*
X207087125Y-89786695D01*
X206913920Y-89912537D01*
X206762538Y-90063919D01*
X206636695Y-90237125D01*
X206539500Y-90427879D01*
X206473340Y-90631496D01*
X206439850Y-90842948D01*
X173800500Y-90842948D01*
X173800500Y-90800214D01*
X173775502Y-90674547D01*
X173775501Y-90674546D01*
X173775501Y-90674542D01*
X173726465Y-90556159D01*
X173726464Y-90556158D01*
X173726461Y-90556152D01*
X173655276Y-90449617D01*
X173655273Y-90449613D01*
X173564672Y-90359012D01*
X173564668Y-90359009D01*
X173458133Y-90287824D01*
X173458124Y-90287819D01*
X173339744Y-90238785D01*
X173339738Y-90238783D01*
X173214071Y-90213786D01*
X173214069Y-90213786D01*
X173085931Y-90213786D01*
X173085929Y-90213786D01*
X172960261Y-90238783D01*
X172960255Y-90238785D01*
X172841875Y-90287819D01*
X172841866Y-90287824D01*
X172735331Y-90359009D01*
X172735327Y-90359012D01*
X172644726Y-90449613D01*
X172644723Y-90449617D01*
X172573538Y-90556152D01*
X172573533Y-90556161D01*
X172524499Y-90674541D01*
X172524497Y-90674547D01*
X172499500Y-90800214D01*
X172499500Y-90800217D01*
X172499500Y-90928355D01*
X172499500Y-90928357D01*
X172499499Y-90928357D01*
X172524497Y-91054024D01*
X172524498Y-91054027D01*
X172524499Y-91054030D01*
X172528831Y-91064488D01*
X172573533Y-91172410D01*
X172573538Y-91172419D01*
X172644723Y-91278954D01*
X172644725Y-91278957D01*
X172663179Y-91297410D01*
X172696666Y-91358732D01*
X172699500Y-91385093D01*
X172699500Y-92162035D01*
X172679815Y-92229074D01*
X172663181Y-92249716D01*
X170939716Y-93973181D01*
X170878393Y-94006666D01*
X170852035Y-94009500D01*
X169026965Y-94009500D01*
X168959926Y-93989815D01*
X168914171Y-93937011D01*
X168904227Y-93867853D01*
X168933252Y-93804297D01*
X168939284Y-93797819D01*
X169963087Y-92774016D01*
X170990489Y-91746614D01*
X171049799Y-91643887D01*
X171056285Y-91619675D01*
X171056286Y-91619675D01*
X171056286Y-91619671D01*
X171080500Y-91529309D01*
X171080500Y-90562236D01*
X171100185Y-90495197D01*
X171116821Y-90474553D01*
X171135274Y-90456100D01*
X171135276Y-90456098D01*
X171206465Y-90349556D01*
X171255501Y-90231173D01*
X171272521Y-90145609D01*
X171280500Y-90105500D01*
X171280500Y-89977357D01*
X171255502Y-89851690D01*
X171255501Y-89851689D01*
X171255501Y-89851685D01*
X171208982Y-89739378D01*
X171206466Y-89733304D01*
X171206461Y-89733295D01*
X171135276Y-89626760D01*
X171135273Y-89626756D01*
X171044672Y-89536155D01*
X171044668Y-89536152D01*
X170938133Y-89464967D01*
X170938124Y-89464962D01*
X170819744Y-89415928D01*
X170819738Y-89415926D01*
X170694071Y-89390929D01*
X170694069Y-89390929D01*
X170565931Y-89390929D01*
X170565929Y-89390929D01*
X170440261Y-89415926D01*
X170440255Y-89415928D01*
X170321875Y-89464962D01*
X170321866Y-89464967D01*
X170215331Y-89536152D01*
X170215327Y-89536155D01*
X170124726Y-89626756D01*
X170124723Y-89626760D01*
X170053538Y-89733295D01*
X170053533Y-89733304D01*
X170004499Y-89851684D01*
X170004497Y-89851690D01*
X169979500Y-89977357D01*
X169979500Y-89977360D01*
X169979500Y-90105498D01*
X169979500Y-90105500D01*
X169979499Y-90105500D01*
X170004497Y-90231167D01*
X170004499Y-90231173D01*
X170053533Y-90349553D01*
X170053538Y-90349562D01*
X170124723Y-90456097D01*
X170124725Y-90456100D01*
X170143179Y-90474553D01*
X170176666Y-90535875D01*
X170179500Y-90562236D01*
X170179500Y-91232035D01*
X170159815Y-91299074D01*
X170143181Y-91319716D01*
X168489716Y-92973181D01*
X168428393Y-93006666D01*
X168402035Y-93009500D01*
X151930691Y-93009500D01*
X151840325Y-93033713D01*
X151840324Y-93033712D01*
X151816116Y-93040199D01*
X151816113Y-93040200D01*
X151713386Y-93099511D01*
X151713383Y-93099513D01*
X150579716Y-94233181D01*
X150518393Y-94266666D01*
X150492035Y-94269500D01*
X148252678Y-94269500D01*
X148185639Y-94249815D01*
X148149576Y-94214391D01*
X148042093Y-94053532D01*
X148042090Y-94053528D01*
X147896471Y-93907909D01*
X147896463Y-93907903D01*
X147725232Y-93793490D01*
X147534961Y-93714678D01*
X147534953Y-93714676D01*
X147332976Y-93674500D01*
X147332973Y-93674500D01*
X147127027Y-93674500D01*
X147127024Y-93674500D01*
X146925046Y-93714676D01*
X146925038Y-93714678D01*
X146734767Y-93793490D01*
X146563536Y-93907903D01*
X146563528Y-93907909D01*
X146417909Y-94053528D01*
X146417903Y-94053536D01*
X146303490Y-94224767D01*
X146224678Y-94415038D01*
X146224676Y-94415046D01*
X146184500Y-94617022D01*
X144850500Y-94617022D01*
X144850500Y-92077022D01*
X146184500Y-92077022D01*
X146184500Y-92282977D01*
X146224676Y-92484953D01*
X146224678Y-92484961D01*
X146303490Y-92675232D01*
X146417903Y-92846463D01*
X146417909Y-92846471D01*
X146563528Y-92992090D01*
X146563536Y-92992096D01*
X146734767Y-93106509D01*
X146765102Y-93119074D01*
X146925039Y-93185322D01*
X147127022Y-93225499D01*
X147127025Y-93225500D01*
X147127027Y-93225500D01*
X147332975Y-93225500D01*
X147332976Y-93225499D01*
X147534961Y-93185322D01*
X147725230Y-93106510D01*
X147725230Y-93106509D01*
X147725232Y-93106509D01*
X147870416Y-93009500D01*
X147896468Y-92992093D01*
X148042093Y-92846468D01*
X148090504Y-92774016D01*
X148149576Y-92685609D01*
X148203188Y-92640804D01*
X148252678Y-92630500D01*
X166929308Y-92630500D01*
X166929309Y-92630500D01*
X167019673Y-92606286D01*
X167043887Y-92599799D01*
X167146614Y-92540489D01*
X168450490Y-91236613D01*
X168509799Y-91133886D01*
X168531196Y-91054030D01*
X168540500Y-91019309D01*
X168540500Y-89739378D01*
X168560185Y-89672339D01*
X168576821Y-89651695D01*
X168595274Y-89633242D01*
X168595276Y-89633240D01*
X168666465Y-89526698D01*
X168715501Y-89408315D01*
X168729061Y-89340148D01*
X168740500Y-89282642D01*
X168740500Y-89154499D01*
X168715502Y-89028832D01*
X168715501Y-89028831D01*
X168715501Y-89028827D01*
X168666465Y-88910444D01*
X168666464Y-88910443D01*
X168666461Y-88910437D01*
X168595276Y-88803902D01*
X168595273Y-88803898D01*
X168504672Y-88713297D01*
X168504668Y-88713294D01*
X168398133Y-88642109D01*
X168398124Y-88642104D01*
X168279744Y-88593070D01*
X168279738Y-88593068D01*
X168154071Y-88568071D01*
X168154069Y-88568071D01*
X168025931Y-88568071D01*
X168025929Y-88568071D01*
X167900261Y-88593068D01*
X167900255Y-88593070D01*
X167781875Y-88642104D01*
X167781866Y-88642109D01*
X167675331Y-88713294D01*
X167675327Y-88713297D01*
X167584726Y-88803898D01*
X167584723Y-88803902D01*
X167513538Y-88910437D01*
X167513533Y-88910446D01*
X167464499Y-89028826D01*
X167464497Y-89028832D01*
X167439500Y-89154499D01*
X167439500Y-89154502D01*
X167439500Y-89282640D01*
X167439500Y-89282642D01*
X167439499Y-89282642D01*
X167464497Y-89408309D01*
X167464499Y-89408315D01*
X167513533Y-89526695D01*
X167513538Y-89526704D01*
X167584723Y-89633239D01*
X167584725Y-89633242D01*
X167603179Y-89651695D01*
X167636666Y-89713017D01*
X167639500Y-89739378D01*
X167639500Y-90722035D01*
X167619815Y-90789074D01*
X167603181Y-90809716D01*
X166719716Y-91693181D01*
X166658393Y-91726666D01*
X166632035Y-91729500D01*
X148252678Y-91729500D01*
X148185639Y-91709815D01*
X148149576Y-91674391D01*
X148042093Y-91513532D01*
X148042090Y-91513528D01*
X147896471Y-91367909D01*
X147896463Y-91367903D01*
X147725232Y-91253490D01*
X147534961Y-91174678D01*
X147534953Y-91174676D01*
X147332976Y-91134500D01*
X147332973Y-91134500D01*
X147127027Y-91134500D01*
X147127024Y-91134500D01*
X146925046Y-91174676D01*
X146925038Y-91174678D01*
X146734767Y-91253490D01*
X146563536Y-91367903D01*
X146563528Y-91367909D01*
X146417909Y-91513528D01*
X146417903Y-91513536D01*
X146303490Y-91684767D01*
X146224678Y-91875038D01*
X146224676Y-91875046D01*
X146184500Y-92077022D01*
X144850500Y-92077022D01*
X144850500Y-89537022D01*
X146184500Y-89537022D01*
X146184500Y-89742977D01*
X146224676Y-89944953D01*
X146224678Y-89944961D01*
X146303490Y-90135232D01*
X146417903Y-90306463D01*
X146417909Y-90306471D01*
X146563528Y-90452090D01*
X146563536Y-90452096D01*
X146734767Y-90566509D01*
X146790496Y-90589592D01*
X146925039Y-90645322D01*
X147071933Y-90674541D01*
X147127022Y-90685499D01*
X147127025Y-90685500D01*
X147127027Y-90685500D01*
X147332975Y-90685500D01*
X147332976Y-90685499D01*
X147534961Y-90645322D01*
X147725230Y-90566510D01*
X147725230Y-90566509D01*
X147725232Y-90566509D01*
X147888871Y-90457169D01*
X147896468Y-90452093D01*
X148042093Y-90306468D01*
X148104021Y-90213786D01*
X148149576Y-90145609D01*
X148203188Y-90100804D01*
X148252678Y-90090500D01*
X163892164Y-90090500D01*
X163892166Y-90090500D01*
X163974052Y-90068558D01*
X163991357Y-90063922D01*
X163991358Y-90063921D01*
X164006744Y-90059799D01*
X164109471Y-90000489D01*
X165500284Y-88609676D01*
X165561607Y-88576191D01*
X165587965Y-88573357D01*
X165614071Y-88573357D01*
X165698615Y-88556539D01*
X165739744Y-88548358D01*
X165858127Y-88499322D01*
X165964669Y-88428133D01*
X166055276Y-88337526D01*
X166126465Y-88230984D01*
X166175501Y-88112601D01*
X166200500Y-87986926D01*
X166200500Y-87858788D01*
X166200500Y-87858785D01*
X166175501Y-87733113D01*
X166126465Y-87614730D01*
X166126464Y-87614729D01*
X166126461Y-87614723D01*
X166055276Y-87508188D01*
X166055273Y-87508184D01*
X165964672Y-87417583D01*
X165964668Y-87417580D01*
X165858133Y-87346395D01*
X165858124Y-87346390D01*
X165739744Y-87297356D01*
X165739738Y-87297354D01*
X165614071Y-87272357D01*
X165614069Y-87272357D01*
X165485931Y-87272357D01*
X165485929Y-87272357D01*
X165360261Y-87297354D01*
X165360255Y-87297356D01*
X165241875Y-87346390D01*
X165241866Y-87346395D01*
X165135331Y-87417580D01*
X165135327Y-87417583D01*
X165044726Y-87508184D01*
X165044723Y-87508188D01*
X164973538Y-87614723D01*
X164973533Y-87614732D01*
X164924499Y-87733112D01*
X164924499Y-87733113D01*
X164899500Y-87858785D01*
X164899500Y-87884892D01*
X164879815Y-87951931D01*
X164863181Y-87972573D01*
X163682573Y-89153181D01*
X163621250Y-89186666D01*
X163594892Y-89189500D01*
X148252678Y-89189500D01*
X148185639Y-89169815D01*
X148149576Y-89134391D01*
X148042093Y-88973532D01*
X148042090Y-88973528D01*
X147896471Y-88827909D01*
X147896463Y-88827903D01*
X147725232Y-88713490D01*
X147534961Y-88634678D01*
X147534953Y-88634676D01*
X147332976Y-88594500D01*
X147332973Y-88594500D01*
X147127027Y-88594500D01*
X147127024Y-88594500D01*
X146925046Y-88634676D01*
X146925038Y-88634678D01*
X146734767Y-88713490D01*
X146563536Y-88827903D01*
X146563528Y-88827909D01*
X146417909Y-88973528D01*
X146417903Y-88973536D01*
X146303490Y-89144767D01*
X146224678Y-89335038D01*
X146224676Y-89335046D01*
X146184500Y-89537022D01*
X144850500Y-89537022D01*
X144850500Y-86997022D01*
X146184500Y-86997022D01*
X146184500Y-87202977D01*
X146224676Y-87404953D01*
X146224678Y-87404961D01*
X146303490Y-87595232D01*
X146417903Y-87766463D01*
X146417909Y-87766471D01*
X146563528Y-87912090D01*
X146563536Y-87912096D01*
X146734767Y-88026509D01*
X146737068Y-88027462D01*
X146925039Y-88105322D01*
X147127022Y-88145499D01*
X147127025Y-88145500D01*
X147127027Y-88145500D01*
X147332975Y-88145500D01*
X147332976Y-88145499D01*
X147534961Y-88105322D01*
X147725230Y-88026510D01*
X147725230Y-88026509D01*
X147725232Y-88026509D01*
X147866675Y-87932000D01*
X147896468Y-87912093D01*
X148042093Y-87766468D01*
X148102231Y-87676465D01*
X148149576Y-87605609D01*
X148203188Y-87560804D01*
X148252678Y-87550500D01*
X159949192Y-87550500D01*
X160016231Y-87570185D01*
X160036873Y-87586819D01*
X160055327Y-87605273D01*
X160055331Y-87605276D01*
X160161866Y-87676461D01*
X160161872Y-87676464D01*
X160161873Y-87676465D01*
X160280256Y-87725501D01*
X160280260Y-87725501D01*
X160280261Y-87725502D01*
X160405928Y-87750500D01*
X160405931Y-87750500D01*
X160534071Y-87750500D01*
X160621482Y-87733112D01*
X160659744Y-87725501D01*
X160778127Y-87676465D01*
X160884669Y-87605276D01*
X160975276Y-87514669D01*
X161046465Y-87408127D01*
X161095501Y-87289744D01*
X161112761Y-87202975D01*
X161120500Y-87164071D01*
X161120500Y-87035928D01*
X161095501Y-86910258D01*
X161095501Y-86910256D01*
X161084190Y-86882948D01*
X206439850Y-86882948D01*
X206439850Y-87097051D01*
X206473340Y-87308503D01*
X206539500Y-87512120D01*
X206623237Y-87676461D01*
X206636695Y-87702874D01*
X206762536Y-87876078D01*
X206913922Y-88027464D01*
X207087126Y-88153305D01*
X207177251Y-88199226D01*
X207277879Y-88250499D01*
X207277881Y-88250499D01*
X207277884Y-88250501D01*
X207387025Y-88285963D01*
X207481496Y-88316659D01*
X207692949Y-88350150D01*
X207692954Y-88350150D01*
X207907051Y-88350150D01*
X208118503Y-88316659D01*
X208322116Y-88250501D01*
X208512874Y-88153305D01*
X208686078Y-88027464D01*
X208837464Y-87876078D01*
X208929683Y-87749150D01*
X208985012Y-87706486D01*
X209054626Y-87700507D01*
X209116421Y-87733113D01*
X209130314Y-87749147D01*
X209222536Y-87876078D01*
X209373922Y-88027464D01*
X209547126Y-88153305D01*
X209637251Y-88199226D01*
X209737879Y-88250499D01*
X209737881Y-88250499D01*
X209737884Y-88250501D01*
X209847025Y-88285963D01*
X209941496Y-88316659D01*
X210152949Y-88350150D01*
X210152954Y-88350150D01*
X210367051Y-88350150D01*
X210578503Y-88316659D01*
X210782116Y-88250501D01*
X210972874Y-88153305D01*
X211146078Y-88027464D01*
X211297464Y-87876078D01*
X211423305Y-87702874D01*
X211520501Y-87512116D01*
X211586659Y-87308503D01*
X211620150Y-87097051D01*
X211620150Y-86882948D01*
X211586659Y-86671496D01*
X211522650Y-86474499D01*
X211520501Y-86467884D01*
X211520499Y-86467881D01*
X211520499Y-86467879D01*
X211428796Y-86287903D01*
X211423305Y-86277126D01*
X211297464Y-86103922D01*
X211146078Y-85952536D01*
X210972874Y-85826695D01*
X210782120Y-85729500D01*
X210578503Y-85663340D01*
X210367051Y-85629850D01*
X210367046Y-85629850D01*
X210152954Y-85629850D01*
X210152949Y-85629850D01*
X209941496Y-85663340D01*
X209737879Y-85729500D01*
X209547125Y-85826695D01*
X209373920Y-85952537D01*
X209222537Y-86103920D01*
X209130318Y-86230848D01*
X209074987Y-86273513D01*
X209005374Y-86279492D01*
X208943579Y-86246886D01*
X208929682Y-86230848D01*
X208888008Y-86173490D01*
X208837464Y-86103922D01*
X208686078Y-85952536D01*
X208512874Y-85826695D01*
X208322120Y-85729500D01*
X208118503Y-85663340D01*
X207907051Y-85629850D01*
X207907046Y-85629850D01*
X207692954Y-85629850D01*
X207692949Y-85629850D01*
X207481496Y-85663340D01*
X207277879Y-85729500D01*
X207087125Y-85826695D01*
X206913920Y-85952537D01*
X206762537Y-86103920D01*
X206636695Y-86277125D01*
X206539500Y-86467879D01*
X206473340Y-86671496D01*
X206439850Y-86882948D01*
X161084190Y-86882948D01*
X161047779Y-86795046D01*
X161046466Y-86791875D01*
X161046461Y-86791866D01*
X160975276Y-86685331D01*
X160975273Y-86685327D01*
X160884672Y-86594726D01*
X160884668Y-86594723D01*
X160778133Y-86523538D01*
X160778124Y-86523533D01*
X160659744Y-86474499D01*
X160659738Y-86474497D01*
X160534071Y-86449500D01*
X160534069Y-86449500D01*
X160405931Y-86449500D01*
X160405929Y-86449500D01*
X160280261Y-86474497D01*
X160280255Y-86474499D01*
X160161875Y-86523533D01*
X160161866Y-86523538D01*
X160055331Y-86594723D01*
X160055327Y-86594726D01*
X160036873Y-86613181D01*
X159975550Y-86646666D01*
X159949192Y-86649500D01*
X148252678Y-86649500D01*
X148185639Y-86629815D01*
X148149576Y-86594391D01*
X148042093Y-86433532D01*
X148042090Y-86433528D01*
X147896471Y-86287909D01*
X147896463Y-86287903D01*
X147725232Y-86173490D01*
X147534961Y-86094678D01*
X147534953Y-86094676D01*
X147332976Y-86054500D01*
X147332973Y-86054500D01*
X147127027Y-86054500D01*
X147127024Y-86054500D01*
X146925046Y-86094676D01*
X146925038Y-86094678D01*
X146734767Y-86173490D01*
X146563536Y-86287903D01*
X146563528Y-86287909D01*
X146417909Y-86433528D01*
X146417903Y-86433536D01*
X146303490Y-86604767D01*
X146224678Y-86795038D01*
X146224676Y-86795046D01*
X146184500Y-86997022D01*
X144850500Y-86997022D01*
X144850500Y-84457022D01*
X146184500Y-84457022D01*
X146184500Y-84662977D01*
X146224676Y-84864953D01*
X146224678Y-84864961D01*
X146303490Y-85055232D01*
X146417903Y-85226463D01*
X146417909Y-85226471D01*
X146563528Y-85372090D01*
X146563536Y-85372096D01*
X146734767Y-85486509D01*
X146790496Y-85509592D01*
X146925039Y-85565322D01*
X147127022Y-85605499D01*
X147127025Y-85605500D01*
X147127027Y-85605500D01*
X147332975Y-85605500D01*
X147332976Y-85605499D01*
X147534961Y-85565322D01*
X147725230Y-85486510D01*
X147725230Y-85486509D01*
X147725232Y-85486509D01*
X147866675Y-85392000D01*
X147896468Y-85372093D01*
X148042093Y-85226468D01*
X148099684Y-85140275D01*
X148156509Y-85055232D01*
X148156510Y-85055230D01*
X148235322Y-84864961D01*
X148275500Y-84662973D01*
X148275500Y-84457027D01*
X148275500Y-84457024D01*
X148275499Y-84457022D01*
X148264814Y-84403307D01*
X148235322Y-84255039D01*
X148159606Y-84072244D01*
X148156509Y-84064767D01*
X148042096Y-83893536D01*
X148042090Y-83893528D01*
X147896471Y-83747909D01*
X147896463Y-83747903D01*
X147725232Y-83633490D01*
X147534961Y-83554678D01*
X147534953Y-83554676D01*
X147332976Y-83514500D01*
X147332973Y-83514500D01*
X147127027Y-83514500D01*
X147127024Y-83514500D01*
X146925046Y-83554676D01*
X146925038Y-83554678D01*
X146734767Y-83633490D01*
X146563536Y-83747903D01*
X146563528Y-83747909D01*
X146417909Y-83893528D01*
X146417903Y-83893536D01*
X146303490Y-84064767D01*
X146224678Y-84255038D01*
X146224676Y-84255046D01*
X146184500Y-84457022D01*
X144850500Y-84457022D01*
X144850500Y-81917022D01*
X146184500Y-81917022D01*
X146184500Y-82122977D01*
X146224676Y-82324953D01*
X146224678Y-82324961D01*
X146303490Y-82515232D01*
X146417903Y-82686463D01*
X146417909Y-82686471D01*
X146563528Y-82832090D01*
X146563536Y-82832096D01*
X146734767Y-82946509D01*
X146790496Y-82969592D01*
X146925039Y-83025322D01*
X147107888Y-83061693D01*
X147127022Y-83065499D01*
X147127025Y-83065500D01*
X147127027Y-83065500D01*
X147332975Y-83065500D01*
X147332976Y-83065499D01*
X147534961Y-83025322D01*
X147725230Y-82946510D01*
X147725230Y-82946509D01*
X147725232Y-82946509D01*
X147866675Y-82852000D01*
X147896468Y-82832093D01*
X148042093Y-82686468D01*
X148099684Y-82600275D01*
X148156509Y-82515232D01*
X148164593Y-82495716D01*
X148235322Y-82324961D01*
X148275500Y-82122973D01*
X148275500Y-81917027D01*
X148275500Y-81917024D01*
X148275499Y-81917022D01*
X148235322Y-81715039D01*
X148156510Y-81524770D01*
X148156509Y-81524767D01*
X148042096Y-81353536D01*
X148042090Y-81353528D01*
X147896471Y-81207909D01*
X147896463Y-81207903D01*
X147725232Y-81093490D01*
X147534961Y-81014678D01*
X147534953Y-81014676D01*
X147332976Y-80974500D01*
X147332973Y-80974500D01*
X147127027Y-80974500D01*
X147127024Y-80974500D01*
X146925046Y-81014676D01*
X146925038Y-81014678D01*
X146734767Y-81093490D01*
X146563536Y-81207903D01*
X146563528Y-81207909D01*
X146417909Y-81353528D01*
X146417903Y-81353536D01*
X146303490Y-81524767D01*
X146224678Y-81715038D01*
X146224676Y-81715046D01*
X146184500Y-81917022D01*
X144850500Y-81917022D01*
X144850500Y-79377022D01*
X146184500Y-79377022D01*
X146184500Y-79582977D01*
X146224676Y-79784953D01*
X146224678Y-79784961D01*
X146303490Y-79975232D01*
X146417903Y-80146463D01*
X146417909Y-80146471D01*
X146563528Y-80292090D01*
X146563536Y-80292096D01*
X146734767Y-80406509D01*
X146790496Y-80429592D01*
X146925039Y-80485322D01*
X147127022Y-80525499D01*
X147127025Y-80525500D01*
X147127027Y-80525500D01*
X147332975Y-80525500D01*
X147332976Y-80525499D01*
X147534961Y-80485322D01*
X147725230Y-80406510D01*
X147725230Y-80406509D01*
X147725232Y-80406509D01*
X147866675Y-80312000D01*
X147896468Y-80292093D01*
X148042093Y-80146468D01*
X148099684Y-80060275D01*
X148156509Y-79975232D01*
X148156510Y-79975230D01*
X148235322Y-79784961D01*
X148275500Y-79582973D01*
X148275500Y-79377027D01*
X148275500Y-79377024D01*
X148275499Y-79377022D01*
X148235323Y-79175046D01*
X148235322Y-79175039D01*
X148156510Y-78984770D01*
X148156509Y-78984767D01*
X148042096Y-78813536D01*
X148042090Y-78813528D01*
X147896471Y-78667909D01*
X147896463Y-78667903D01*
X147725232Y-78553490D01*
X147534961Y-78474678D01*
X147534953Y-78474676D01*
X147332976Y-78434500D01*
X147332973Y-78434500D01*
X147127027Y-78434500D01*
X147127024Y-78434500D01*
X146925046Y-78474676D01*
X146925038Y-78474678D01*
X146734767Y-78553490D01*
X146563536Y-78667903D01*
X146563528Y-78667909D01*
X146417909Y-78813528D01*
X146417903Y-78813536D01*
X146303490Y-78984767D01*
X146224678Y-79175038D01*
X146224676Y-79175046D01*
X146184500Y-79377022D01*
X144850500Y-79377022D01*
X144850500Y-77387965D01*
X144870185Y-77320926D01*
X144886819Y-77300284D01*
X146050284Y-76136819D01*
X146077211Y-76122115D01*
X146103030Y-76105523D01*
X146109230Y-76104631D01*
X146111607Y-76103334D01*
X146137965Y-76100500D01*
X146301535Y-76100500D01*
X146368574Y-76120185D01*
X146414329Y-76172989D01*
X146424273Y-76242147D01*
X146404638Y-76293390D01*
X146303489Y-76444771D01*
X146224678Y-76635038D01*
X146224676Y-76635046D01*
X146184500Y-76837022D01*
X146184500Y-77042977D01*
X146224676Y-77244953D01*
X146224678Y-77244961D01*
X146303490Y-77435232D01*
X146417903Y-77606463D01*
X146417909Y-77606471D01*
X146563528Y-77752090D01*
X146563536Y-77752096D01*
X146734767Y-77866509D01*
X146790496Y-77889592D01*
X146925039Y-77945322D01*
X147127022Y-77985499D01*
X147127025Y-77985500D01*
X147127027Y-77985500D01*
X147332975Y-77985500D01*
X147332976Y-77985499D01*
X147534961Y-77945322D01*
X147725230Y-77866510D01*
X147725230Y-77866509D01*
X147725232Y-77866509D01*
X147810275Y-77809684D01*
X147896468Y-77752093D01*
X148042093Y-77606468D01*
X148156510Y-77435230D01*
X148235322Y-77244961D01*
X148275500Y-77042973D01*
X148275500Y-76837027D01*
X148275500Y-76837024D01*
X148275499Y-76837022D01*
X148235323Y-76635046D01*
X148235322Y-76635039D01*
X148156510Y-76444770D01*
X148055362Y-76293390D01*
X148034485Y-76226713D01*
X148052970Y-76159333D01*
X148104949Y-76112643D01*
X148158465Y-76100500D01*
X177308482Y-76100500D01*
X177375521Y-76120185D01*
X177396158Y-76136814D01*
X177432333Y-76172989D01*
X177453459Y-76194115D01*
X177568182Y-76270771D01*
X177568195Y-76270778D01*
X177695667Y-76323578D01*
X177695672Y-76323580D01*
X177695676Y-76323580D01*
X177695677Y-76323581D01*
X177831004Y-76350500D01*
X177831007Y-76350500D01*
X177968995Y-76350500D01*
X178060041Y-76332389D01*
X178104328Y-76323580D01*
X178202924Y-76282740D01*
X178231804Y-76270778D01*
X178231804Y-76270777D01*
X178231811Y-76270775D01*
X178346542Y-76194114D01*
X178444114Y-76096542D01*
X178520775Y-75981811D01*
X178573580Y-75854328D01*
X178600500Y-75718993D01*
X178600500Y-75581007D01*
X178600500Y-75581004D01*
X178573581Y-75445677D01*
X178573580Y-75445676D01*
X178573580Y-75445672D01*
X178524222Y-75326510D01*
X178520778Y-75318195D01*
X178520771Y-75318182D01*
X178444114Y-75203458D01*
X178444111Y-75203454D01*
X178346545Y-75105888D01*
X178346541Y-75105885D01*
X178231817Y-75029228D01*
X178231804Y-75029221D01*
X178104332Y-74976421D01*
X178104322Y-74976418D01*
X177968995Y-74949500D01*
X177968993Y-74949500D01*
X177831007Y-74949500D01*
X177831005Y-74949500D01*
X177695677Y-74976418D01*
X177695667Y-74976421D01*
X177568195Y-75029221D01*
X177568182Y-75029228D01*
X177453459Y-75105884D01*
X177432333Y-75127011D01*
X177396161Y-75163182D01*
X177334841Y-75196666D01*
X177308482Y-75199500D01*
X148185192Y-75199500D01*
X148118153Y-75179815D01*
X148072398Y-75127011D01*
X148062454Y-75057853D01*
X148082089Y-75006610D01*
X148120248Y-74949500D01*
X148156510Y-74895230D01*
X148235322Y-74704961D01*
X148275500Y-74502973D01*
X148275500Y-74297027D01*
X148275500Y-74297024D01*
X148275499Y-74297022D01*
X148235323Y-74095046D01*
X148235322Y-74095039D01*
X148235320Y-74095034D01*
X148169568Y-73936293D01*
X148156509Y-73904768D01*
X148156509Y-73904767D01*
X148149123Y-73893713D01*
X188549500Y-73893713D01*
X188549500Y-74106286D01*
X188579709Y-74297022D01*
X188582754Y-74316243D01*
X188643427Y-74502975D01*
X188648444Y-74518414D01*
X188744951Y-74707820D01*
X188869890Y-74879786D01*
X189020213Y-75030109D01*
X189192179Y-75155048D01*
X189192181Y-75155049D01*
X189192184Y-75155051D01*
X189381588Y-75251557D01*
X189583757Y-75317246D01*
X189793713Y-75350500D01*
X189793714Y-75350500D01*
X190006286Y-75350500D01*
X190006287Y-75350500D01*
X190216243Y-75317246D01*
X190418412Y-75251557D01*
X190607816Y-75155051D01*
X190675484Y-75105888D01*
X190779786Y-75030109D01*
X190779788Y-75030106D01*
X190779792Y-75030104D01*
X190930104Y-74879792D01*
X190930106Y-74879788D01*
X190930109Y-74879786D01*
X191055048Y-74707820D01*
X191055047Y-74707820D01*
X191055051Y-74707816D01*
X191151557Y-74518412D01*
X191217246Y-74316243D01*
X191250500Y-74106287D01*
X191250500Y-73893713D01*
X191217246Y-73683757D01*
X191151557Y-73481588D01*
X191055051Y-73292184D01*
X191055049Y-73292181D01*
X191055048Y-73292179D01*
X190930109Y-73120213D01*
X190779786Y-72969890D01*
X190775449Y-72966739D01*
X196149500Y-72966739D01*
X196149500Y-75033260D01*
X196159426Y-75101391D01*
X196210803Y-75206485D01*
X196293514Y-75289196D01*
X196293515Y-75289196D01*
X196293517Y-75289198D01*
X196398607Y-75340573D01*
X196432673Y-75345536D01*
X196466739Y-75350500D01*
X196466740Y-75350500D01*
X198533261Y-75350500D01*
X198555971Y-75347191D01*
X198601393Y-75340573D01*
X198706483Y-75289198D01*
X198789198Y-75206483D01*
X198840573Y-75101393D01*
X198850500Y-75033260D01*
X198850500Y-72966740D01*
X198840573Y-72898607D01*
X198789198Y-72793517D01*
X198789196Y-72793515D01*
X198789196Y-72793514D01*
X198706485Y-72710803D01*
X198601391Y-72659426D01*
X198533261Y-72649500D01*
X198533260Y-72649500D01*
X196466740Y-72649500D01*
X196466739Y-72649500D01*
X196398608Y-72659426D01*
X196293514Y-72710803D01*
X196210803Y-72793514D01*
X196159426Y-72898608D01*
X196149500Y-72966739D01*
X190775449Y-72966739D01*
X190607820Y-72844951D01*
X190418414Y-72748444D01*
X190418413Y-72748443D01*
X190418412Y-72748443D01*
X190216243Y-72682754D01*
X190216241Y-72682753D01*
X190216240Y-72682753D01*
X190049795Y-72656391D01*
X190006287Y-72649500D01*
X189793713Y-72649500D01*
X189750205Y-72656391D01*
X189583760Y-72682753D01*
X189381585Y-72748444D01*
X189192179Y-72844951D01*
X189020213Y-72969890D01*
X188869890Y-73120213D01*
X188744951Y-73292179D01*
X188648444Y-73481585D01*
X188582753Y-73683760D01*
X188549500Y-73893713D01*
X148149123Y-73893713D01*
X148042096Y-73733536D01*
X148042090Y-73733528D01*
X147896471Y-73587909D01*
X147896463Y-73587903D01*
X147725232Y-73473490D01*
X147534961Y-73394678D01*
X147534953Y-73394676D01*
X147332976Y-73354500D01*
X147332973Y-73354500D01*
X147127027Y-73354500D01*
X147127024Y-73354500D01*
X146925046Y-73394676D01*
X146925038Y-73394678D01*
X146734767Y-73473490D01*
X146563536Y-73587903D01*
X146563528Y-73587909D01*
X146417909Y-73733528D01*
X146417903Y-73733536D01*
X146303490Y-73904767D01*
X146224678Y-74095038D01*
X146224676Y-74095046D01*
X146184500Y-74297022D01*
X146184500Y-74502977D01*
X146187571Y-74518414D01*
X146224678Y-74704961D01*
X146303490Y-74895230D01*
X146339251Y-74948750D01*
X146377911Y-75006610D01*
X146398788Y-75073288D01*
X146380303Y-75140668D01*
X146328324Y-75187357D01*
X146274808Y-75199500D01*
X145840691Y-75199500D01*
X145726114Y-75230201D01*
X145726112Y-75230201D01*
X145726112Y-75230202D01*
X145689125Y-75251557D01*
X145689124Y-75251557D01*
X145623389Y-75289508D01*
X145623384Y-75289512D01*
X144039513Y-76873383D01*
X144039509Y-76873389D01*
X143980201Y-76976112D01*
X143980200Y-76976117D01*
X143962285Y-77042977D01*
X143949500Y-77090691D01*
X122866008Y-77090691D01*
X122875500Y-77042973D01*
X122875500Y-76837027D01*
X122875500Y-76837024D01*
X122875499Y-76837022D01*
X122835323Y-76635046D01*
X122835322Y-76635039D01*
X122779592Y-76500496D01*
X122756509Y-76444767D01*
X122642096Y-76273536D01*
X122642090Y-76273528D01*
X122496471Y-76127909D01*
X122496463Y-76127903D01*
X122325232Y-76013490D01*
X122134961Y-75934678D01*
X122134953Y-75934676D01*
X121932976Y-75894500D01*
X121932973Y-75894500D01*
X121727027Y-75894500D01*
X121727024Y-75894500D01*
X121525046Y-75934676D01*
X121525038Y-75934678D01*
X121334767Y-76013490D01*
X121163536Y-76127903D01*
X121163528Y-76127909D01*
X121017909Y-76273528D01*
X121017903Y-76273536D01*
X120903490Y-76444767D01*
X120824678Y-76635038D01*
X120824676Y-76635046D01*
X120784500Y-76837022D01*
X119500500Y-76837022D01*
X119500500Y-74297022D01*
X120784500Y-74297022D01*
X120784500Y-74502977D01*
X120824676Y-74704953D01*
X120824678Y-74704961D01*
X120903490Y-74895232D01*
X121017903Y-75066463D01*
X121017909Y-75066471D01*
X121163528Y-75212090D01*
X121163536Y-75212096D01*
X121334767Y-75326509D01*
X121368721Y-75340573D01*
X121525039Y-75405322D01*
X121727022Y-75445499D01*
X121727025Y-75445500D01*
X121727027Y-75445500D01*
X121932975Y-75445500D01*
X121932976Y-75445499D01*
X122134961Y-75405322D01*
X122325230Y-75326510D01*
X122325230Y-75326509D01*
X122325232Y-75326509D01*
X122410275Y-75269684D01*
X122496468Y-75212093D01*
X122642093Y-75066468D01*
X122756510Y-74895230D01*
X122835322Y-74704961D01*
X122875500Y-74502973D01*
X122875500Y-74297027D01*
X122875500Y-74297024D01*
X122875499Y-74297022D01*
X122835323Y-74095046D01*
X122835322Y-74095039D01*
X122756510Y-73904770D01*
X122756509Y-73904768D01*
X122756509Y-73904767D01*
X122642096Y-73733536D01*
X122642090Y-73733528D01*
X122496471Y-73587909D01*
X122496463Y-73587903D01*
X122325232Y-73473490D01*
X122134961Y-73394678D01*
X122134953Y-73394676D01*
X121932976Y-73354500D01*
X121932973Y-73354500D01*
X121727027Y-73354500D01*
X121727024Y-73354500D01*
X121525046Y-73394676D01*
X121525038Y-73394678D01*
X121334767Y-73473490D01*
X121163536Y-73587903D01*
X121163528Y-73587909D01*
X121017909Y-73733528D01*
X121017903Y-73733536D01*
X120903490Y-73904767D01*
X120824678Y-74095038D01*
X120824676Y-74095046D01*
X120784500Y-74297022D01*
X119500500Y-74297022D01*
X119500500Y-71131739D01*
X120784500Y-71131739D01*
X120784500Y-72588260D01*
X120794426Y-72656391D01*
X120845803Y-72761485D01*
X120928514Y-72844196D01*
X120928515Y-72844196D01*
X120928517Y-72844198D01*
X121033607Y-72895573D01*
X121067673Y-72900536D01*
X121101739Y-72905500D01*
X121101740Y-72905500D01*
X122558261Y-72905500D01*
X122580971Y-72902191D01*
X122626393Y-72895573D01*
X122731483Y-72844198D01*
X122814198Y-72761483D01*
X122865573Y-72656393D01*
X122875500Y-72588260D01*
X122875500Y-71131740D01*
X122875500Y-71131739D01*
X146184500Y-71131739D01*
X146184500Y-72588260D01*
X146194426Y-72656391D01*
X146245803Y-72761485D01*
X146328514Y-72844196D01*
X146328515Y-72844196D01*
X146328517Y-72844198D01*
X146433607Y-72895573D01*
X146467673Y-72900536D01*
X146501739Y-72905500D01*
X146501740Y-72905500D01*
X147958261Y-72905500D01*
X147980971Y-72902191D01*
X148026393Y-72895573D01*
X148131483Y-72844198D01*
X148214198Y-72761483D01*
X148265573Y-72656393D01*
X148275500Y-72588260D01*
X148275500Y-71131740D01*
X148265573Y-71063607D01*
X148214198Y-70958517D01*
X148214196Y-70958515D01*
X148214196Y-70958514D01*
X148131485Y-70875803D01*
X148026391Y-70824426D01*
X147958261Y-70814500D01*
X147958260Y-70814500D01*
X146501740Y-70814500D01*
X146501739Y-70814500D01*
X146433608Y-70824426D01*
X146328514Y-70875803D01*
X146245803Y-70958514D01*
X146194426Y-71063608D01*
X146184500Y-71131739D01*
X122875500Y-71131739D01*
X122865573Y-71063607D01*
X122814198Y-70958517D01*
X122814196Y-70958515D01*
X122814196Y-70958514D01*
X122731485Y-70875803D01*
X122626391Y-70824426D01*
X122558261Y-70814500D01*
X122558260Y-70814500D01*
X121101740Y-70814500D01*
X121101739Y-70814500D01*
X121033608Y-70824426D01*
X120928514Y-70875803D01*
X120845803Y-70958514D01*
X120794426Y-71063608D01*
X120784500Y-71131739D01*
X119500500Y-71131739D01*
X119500500Y-66959247D01*
X121215034Y-66959247D01*
X121215034Y-67171820D01*
X121247921Y-67379464D01*
X121248288Y-67381777D01*
X121305054Y-67556485D01*
X121313978Y-67583948D01*
X121410485Y-67773354D01*
X121535424Y-67945320D01*
X121685747Y-68095643D01*
X121857713Y-68220582D01*
X121857715Y-68220583D01*
X121857718Y-68220585D01*
X122047122Y-68317091D01*
X122249291Y-68382780D01*
X122459247Y-68416034D01*
X122459248Y-68416034D01*
X122671820Y-68416034D01*
X122671821Y-68416034D01*
X122881777Y-68382780D01*
X123083946Y-68317091D01*
X123273350Y-68220585D01*
X123314646Y-68190582D01*
X123445320Y-68095643D01*
X123445322Y-68095640D01*
X123445326Y-68095638D01*
X123595638Y-67945326D01*
X123595640Y-67945322D01*
X123595643Y-67945320D01*
X123720582Y-67773354D01*
X123720581Y-67773354D01*
X123720585Y-67773350D01*
X123817091Y-67583946D01*
X123882780Y-67381777D01*
X123916034Y-67171821D01*
X123916034Y-66959247D01*
X123882780Y-66749291D01*
X123817091Y-66547122D01*
X123720585Y-66357718D01*
X123720583Y-66357715D01*
X123720582Y-66357713D01*
X123595643Y-66185747D01*
X123445320Y-66035424D01*
X123273354Y-65910485D01*
X123083948Y-65813978D01*
X123083947Y-65813977D01*
X123083946Y-65813977D01*
X122881777Y-65748288D01*
X122881775Y-65748287D01*
X122881773Y-65748287D01*
X122796151Y-65734726D01*
X122755308Y-65728257D01*
X122671821Y-65715034D01*
X122459247Y-65715034D01*
X122410576Y-65722742D01*
X122249294Y-65748287D01*
X122047119Y-65813978D01*
X121857713Y-65910485D01*
X121685747Y-66035424D01*
X121535424Y-66185747D01*
X121410485Y-66357713D01*
X121313978Y-66547119D01*
X121248287Y-66749294D01*
X121215034Y-66959247D01*
X119500500Y-66959247D01*
X119500500Y-65616739D01*
X156729500Y-65616739D01*
X156729500Y-67383260D01*
X156739426Y-67451391D01*
X156790803Y-67556485D01*
X156873514Y-67639196D01*
X156873515Y-67639196D01*
X156873517Y-67639198D01*
X156978607Y-67690573D01*
X157012673Y-67695536D01*
X157046739Y-67700500D01*
X157046740Y-67700500D01*
X158813261Y-67700500D01*
X158835971Y-67697191D01*
X158881393Y-67690573D01*
X158986483Y-67639198D01*
X159069198Y-67556483D01*
X159120573Y-67451393D01*
X159130500Y-67383260D01*
X159130500Y-67031909D01*
X159150185Y-66964870D01*
X159202989Y-66919115D01*
X159272147Y-66909171D01*
X159335703Y-66938196D01*
X159364984Y-66975613D01*
X159443240Y-67129199D01*
X159554310Y-67282073D01*
X159687927Y-67415690D01*
X159840801Y-67526760D01*
X159894157Y-67553946D01*
X160009163Y-67612545D01*
X160009165Y-67612545D01*
X160009168Y-67612547D01*
X160091185Y-67639196D01*
X160188881Y-67670940D01*
X160375514Y-67700500D01*
X160375519Y-67700500D01*
X160564486Y-67700500D01*
X160751118Y-67670940D01*
X160801345Y-67654620D01*
X160930832Y-67612547D01*
X161099199Y-67526760D01*
X161252073Y-67415690D01*
X161385690Y-67282073D01*
X161496760Y-67129199D01*
X161582547Y-66960832D01*
X161622069Y-66839195D01*
X161661507Y-66781521D01*
X161725866Y-66754323D01*
X161794712Y-66766238D01*
X161846188Y-66813482D01*
X161857931Y-66839196D01*
X161897454Y-66960836D01*
X161983237Y-67129194D01*
X161983240Y-67129199D01*
X162094310Y-67282073D01*
X162227927Y-67415690D01*
X162380801Y-67526760D01*
X162434157Y-67553946D01*
X162549163Y-67612545D01*
X162549165Y-67612545D01*
X162549168Y-67612547D01*
X162631185Y-67639196D01*
X162728881Y-67670940D01*
X162915514Y-67700500D01*
X162915519Y-67700500D01*
X163104486Y-67700500D01*
X163291118Y-67670940D01*
X163341345Y-67654620D01*
X163470832Y-67612547D01*
X163639199Y-67526760D01*
X163792073Y-67415690D01*
X163925690Y-67282073D01*
X164036760Y-67129199D01*
X164122547Y-66960832D01*
X164162069Y-66839195D01*
X164201507Y-66781521D01*
X164265866Y-66754323D01*
X164334712Y-66766238D01*
X164386188Y-66813482D01*
X164397931Y-66839196D01*
X164437454Y-66960836D01*
X164523237Y-67129194D01*
X164523240Y-67129199D01*
X164634310Y-67282073D01*
X164767927Y-67415690D01*
X164920801Y-67526760D01*
X164974157Y-67553946D01*
X165089163Y-67612545D01*
X165089165Y-67612545D01*
X165089168Y-67612547D01*
X165171185Y-67639196D01*
X165268881Y-67670940D01*
X165455514Y-67700500D01*
X165455519Y-67700500D01*
X165644486Y-67700500D01*
X165831118Y-67670940D01*
X165881345Y-67654620D01*
X166010832Y-67612547D01*
X166179199Y-67526760D01*
X166332073Y-67415690D01*
X166465690Y-67282073D01*
X166576760Y-67129199D01*
X166662547Y-66960832D01*
X166702069Y-66839195D01*
X166741507Y-66781521D01*
X166805866Y-66754323D01*
X166874712Y-66766238D01*
X166926188Y-66813482D01*
X166937931Y-66839196D01*
X166977454Y-66960836D01*
X167063237Y-67129194D01*
X167063240Y-67129199D01*
X167174310Y-67282073D01*
X167307927Y-67415690D01*
X167460801Y-67526760D01*
X167514157Y-67553946D01*
X167629163Y-67612545D01*
X167629165Y-67612545D01*
X167629168Y-67612547D01*
X167711185Y-67639196D01*
X167808881Y-67670940D01*
X167995514Y-67700500D01*
X167995519Y-67700500D01*
X168184486Y-67700500D01*
X168371118Y-67670940D01*
X168421345Y-67654620D01*
X168550832Y-67612547D01*
X168719199Y-67526760D01*
X168872073Y-67415690D01*
X169005690Y-67282073D01*
X169116760Y-67129199D01*
X169202547Y-66960832D01*
X169242069Y-66839195D01*
X169281507Y-66781521D01*
X169345866Y-66754323D01*
X169414712Y-66766238D01*
X169466188Y-66813482D01*
X169477931Y-66839196D01*
X169517454Y-66960836D01*
X169603237Y-67129194D01*
X169603240Y-67129199D01*
X169714310Y-67282073D01*
X169847927Y-67415690D01*
X170000801Y-67526760D01*
X170054157Y-67553946D01*
X170169163Y-67612545D01*
X170169165Y-67612545D01*
X170169168Y-67612547D01*
X170251185Y-67639196D01*
X170348881Y-67670940D01*
X170535514Y-67700500D01*
X170535519Y-67700500D01*
X170724486Y-67700500D01*
X170911118Y-67670940D01*
X170961345Y-67654620D01*
X171090832Y-67612547D01*
X171259199Y-67526760D01*
X171412073Y-67415690D01*
X171545690Y-67282073D01*
X171656760Y-67129199D01*
X171705621Y-67033302D01*
X171753595Y-66982507D01*
X171821416Y-66965712D01*
X171887551Y-66988249D01*
X171926591Y-67033303D01*
X172015379Y-67207557D01*
X172140272Y-67379459D01*
X172140276Y-67379464D01*
X172290535Y-67529723D01*
X172290540Y-67529727D01*
X172462442Y-67654620D01*
X172651782Y-67751095D01*
X172853871Y-67816757D01*
X172920000Y-67827231D01*
X172920000Y-66933012D01*
X172977007Y-66965925D01*
X173104174Y-67000000D01*
X173235826Y-67000000D01*
X173362993Y-66965925D01*
X173420000Y-66933012D01*
X173420000Y-67827230D01*
X173486126Y-67816757D01*
X173486129Y-67816757D01*
X173688217Y-67751095D01*
X173877557Y-67654620D01*
X174049459Y-67529727D01*
X174049464Y-67529723D01*
X174199723Y-67379464D01*
X174199727Y-67379459D01*
X174324620Y-67207557D01*
X174413408Y-67033303D01*
X174461382Y-66982507D01*
X174529203Y-66965712D01*
X174595338Y-66988249D01*
X174634377Y-67033303D01*
X174683236Y-67129194D01*
X174683240Y-67129199D01*
X174794310Y-67282073D01*
X174927927Y-67415690D01*
X175080801Y-67526760D01*
X175134157Y-67553946D01*
X175249163Y-67612545D01*
X175249165Y-67612545D01*
X175249168Y-67612547D01*
X175331185Y-67639196D01*
X175428881Y-67670940D01*
X175615514Y-67700500D01*
X175615519Y-67700500D01*
X175804486Y-67700500D01*
X175991118Y-67670940D01*
X176041345Y-67654620D01*
X176170832Y-67612547D01*
X176339199Y-67526760D01*
X176492073Y-67415690D01*
X176625690Y-67282073D01*
X176736760Y-67129199D01*
X176822547Y-66960832D01*
X176862069Y-66839195D01*
X176901507Y-66781521D01*
X176965866Y-66754323D01*
X177034712Y-66766238D01*
X177086188Y-66813482D01*
X177097931Y-66839196D01*
X177137454Y-66960836D01*
X177223237Y-67129194D01*
X177223240Y-67129199D01*
X177334310Y-67282073D01*
X177467927Y-67415690D01*
X177620801Y-67526760D01*
X177674157Y-67553946D01*
X177789163Y-67612545D01*
X177789165Y-67612545D01*
X177789168Y-67612547D01*
X177871185Y-67639196D01*
X177968881Y-67670940D01*
X178155514Y-67700500D01*
X178155519Y-67700500D01*
X178344486Y-67700500D01*
X178531118Y-67670940D01*
X178581345Y-67654620D01*
X178710832Y-67612547D01*
X178879199Y-67526760D01*
X179032073Y-67415690D01*
X179165690Y-67282073D01*
X179276760Y-67129199D01*
X179362547Y-66960832D01*
X179372810Y-66929247D01*
X209913966Y-66929247D01*
X209913966Y-67141821D01*
X209947220Y-67351777D01*
X210005038Y-67529723D01*
X210012910Y-67553948D01*
X210109417Y-67743354D01*
X210234356Y-67915320D01*
X210384679Y-68065643D01*
X210556645Y-68190582D01*
X210556647Y-68190583D01*
X210556650Y-68190585D01*
X210746054Y-68287091D01*
X210948223Y-68352780D01*
X211158179Y-68386034D01*
X211158180Y-68386034D01*
X211370752Y-68386034D01*
X211370753Y-68386034D01*
X211580709Y-68352780D01*
X211782878Y-68287091D01*
X211972282Y-68190585D01*
X211994255Y-68174620D01*
X212144252Y-68065643D01*
X212144254Y-68065640D01*
X212144258Y-68065638D01*
X212294570Y-67915326D01*
X212294572Y-67915322D01*
X212294575Y-67915320D01*
X212419514Y-67743354D01*
X212419513Y-67743354D01*
X212419517Y-67743350D01*
X212516023Y-67553946D01*
X212581712Y-67351777D01*
X212614966Y-67141821D01*
X212614966Y-66929247D01*
X212581712Y-66719291D01*
X212516023Y-66517122D01*
X212419517Y-66327718D01*
X212419515Y-66327715D01*
X212419514Y-66327713D01*
X212294575Y-66155747D01*
X212144252Y-66005424D01*
X211972286Y-65880485D01*
X211782880Y-65783978D01*
X211782879Y-65783977D01*
X211782878Y-65783977D01*
X211580709Y-65718288D01*
X211580707Y-65718287D01*
X211580706Y-65718287D01*
X211419423Y-65692742D01*
X211370753Y-65685034D01*
X211158179Y-65685034D01*
X211109508Y-65692742D01*
X210948226Y-65718287D01*
X210746051Y-65783978D01*
X210556645Y-65880485D01*
X210384679Y-66005424D01*
X210234356Y-66155747D01*
X210109417Y-66327713D01*
X210012910Y-66517119D01*
X209947219Y-66719294D01*
X209928229Y-66839196D01*
X209913966Y-66929247D01*
X179372810Y-66929247D01*
X179420940Y-66781118D01*
X179430732Y-66719294D01*
X179450500Y-66594486D01*
X179450500Y-66405513D01*
X179420940Y-66218881D01*
X179374248Y-66075181D01*
X179362547Y-66039168D01*
X179362545Y-66039165D01*
X179362545Y-66039163D01*
X179276759Y-65870800D01*
X179235475Y-65813978D01*
X179165690Y-65717927D01*
X179032073Y-65584310D01*
X178879199Y-65473240D01*
X178873374Y-65470272D01*
X178710836Y-65387454D01*
X178531118Y-65329059D01*
X178344486Y-65299500D01*
X178344481Y-65299500D01*
X178155519Y-65299500D01*
X178155514Y-65299500D01*
X177968881Y-65329059D01*
X177789163Y-65387454D01*
X177620800Y-65473240D01*
X177533579Y-65536610D01*
X177467927Y-65584310D01*
X177467925Y-65584312D01*
X177467924Y-65584312D01*
X177334312Y-65717924D01*
X177334312Y-65717925D01*
X177334310Y-65717927D01*
X177286610Y-65783579D01*
X177223240Y-65870800D01*
X177137454Y-66039163D01*
X177097931Y-66160803D01*
X177058493Y-66218478D01*
X176994134Y-66245676D01*
X176925288Y-66233761D01*
X176873812Y-66186516D01*
X176862069Y-66160803D01*
X176834248Y-66075181D01*
X176822547Y-66039168D01*
X176822545Y-66039165D01*
X176822545Y-66039163D01*
X176736759Y-65870800D01*
X176695475Y-65813978D01*
X176625690Y-65717927D01*
X176492073Y-65584310D01*
X176339199Y-65473240D01*
X176333374Y-65470272D01*
X176170836Y-65387454D01*
X175991118Y-65329059D01*
X175804486Y-65299500D01*
X175804481Y-65299500D01*
X175615519Y-65299500D01*
X175615514Y-65299500D01*
X175428881Y-65329059D01*
X175249163Y-65387454D01*
X175080800Y-65473240D01*
X174993579Y-65536610D01*
X174927927Y-65584310D01*
X174927925Y-65584312D01*
X174927924Y-65584312D01*
X174794312Y-65717924D01*
X174794312Y-65717925D01*
X174794310Y-65717927D01*
X174746322Y-65783977D01*
X174683238Y-65870803D01*
X174634377Y-65966697D01*
X174586402Y-66017492D01*
X174518581Y-66034287D01*
X174452447Y-66011749D01*
X174413408Y-65966696D01*
X174324620Y-65792442D01*
X174199727Y-65620540D01*
X174199723Y-65620535D01*
X174049464Y-65470276D01*
X174049459Y-65470272D01*
X173877557Y-65345379D01*
X173688215Y-65248903D01*
X173486124Y-65183241D01*
X173420000Y-65172768D01*
X173420000Y-66066988D01*
X173362993Y-66034075D01*
X173235826Y-66000000D01*
X173104174Y-66000000D01*
X172977007Y-66034075D01*
X172920000Y-66066988D01*
X172920000Y-65172768D01*
X172919999Y-65172768D01*
X172853875Y-65183241D01*
X172651784Y-65248903D01*
X172462442Y-65345379D01*
X172290540Y-65470272D01*
X172290535Y-65470276D01*
X172140276Y-65620535D01*
X172140272Y-65620540D01*
X172015376Y-65792446D01*
X172015375Y-65792447D01*
X171926590Y-65966696D01*
X171878616Y-66017492D01*
X171810795Y-66034287D01*
X171744660Y-66011749D01*
X171705621Y-65966696D01*
X171656759Y-65870800D01*
X171615475Y-65813978D01*
X171545690Y-65717927D01*
X171412073Y-65584310D01*
X171259199Y-65473240D01*
X171253374Y-65470272D01*
X171090836Y-65387454D01*
X170911118Y-65329059D01*
X170724486Y-65299500D01*
X170724481Y-65299500D01*
X170535519Y-65299500D01*
X170535514Y-65299500D01*
X170348881Y-65329059D01*
X170169163Y-65387454D01*
X170000800Y-65473240D01*
X169913579Y-65536610D01*
X169847927Y-65584310D01*
X169847925Y-65584312D01*
X169847924Y-65584312D01*
X169714312Y-65717924D01*
X169714312Y-65717925D01*
X169714310Y-65717927D01*
X169666610Y-65783579D01*
X169603240Y-65870800D01*
X169517454Y-66039163D01*
X169477931Y-66160803D01*
X169438493Y-66218478D01*
X169374134Y-66245676D01*
X169305288Y-66233761D01*
X169253812Y-66186516D01*
X169242069Y-66160803D01*
X169214248Y-66075181D01*
X169202547Y-66039168D01*
X169202545Y-66039165D01*
X169202545Y-66039163D01*
X169116759Y-65870800D01*
X169075475Y-65813978D01*
X169005690Y-65717927D01*
X168872073Y-65584310D01*
X168719199Y-65473240D01*
X168713374Y-65470272D01*
X168550836Y-65387454D01*
X168371118Y-65329059D01*
X168184486Y-65299500D01*
X168184481Y-65299500D01*
X167995519Y-65299500D01*
X167995514Y-65299500D01*
X167808881Y-65329059D01*
X167629163Y-65387454D01*
X167460800Y-65473240D01*
X167373579Y-65536610D01*
X167307927Y-65584310D01*
X167307925Y-65584312D01*
X167307924Y-65584312D01*
X167174312Y-65717924D01*
X167174312Y-65717925D01*
X167174310Y-65717927D01*
X167126610Y-65783579D01*
X167063240Y-65870800D01*
X166977454Y-66039163D01*
X166937931Y-66160803D01*
X166898493Y-66218478D01*
X166834134Y-66245676D01*
X166765288Y-66233761D01*
X166713812Y-66186516D01*
X166702069Y-66160803D01*
X166674248Y-66075181D01*
X166662547Y-66039168D01*
X166662545Y-66039165D01*
X166662545Y-66039163D01*
X166576759Y-65870800D01*
X166535475Y-65813978D01*
X166465690Y-65717927D01*
X166332073Y-65584310D01*
X166179199Y-65473240D01*
X166173374Y-65470272D01*
X166010836Y-65387454D01*
X165831118Y-65329059D01*
X165644486Y-65299500D01*
X165644481Y-65299500D01*
X165455519Y-65299500D01*
X165455514Y-65299500D01*
X165268881Y-65329059D01*
X165089163Y-65387454D01*
X164920800Y-65473240D01*
X164833579Y-65536610D01*
X164767927Y-65584310D01*
X164767925Y-65584312D01*
X164767924Y-65584312D01*
X164634312Y-65717924D01*
X164634312Y-65717925D01*
X164634310Y-65717927D01*
X164586610Y-65783579D01*
X164523240Y-65870800D01*
X164437454Y-66039163D01*
X164397931Y-66160803D01*
X164358493Y-66218478D01*
X164294134Y-66245676D01*
X164225288Y-66233761D01*
X164173812Y-66186516D01*
X164162069Y-66160803D01*
X164134248Y-66075181D01*
X164122547Y-66039168D01*
X164122545Y-66039165D01*
X164122545Y-66039163D01*
X164036759Y-65870800D01*
X163995475Y-65813978D01*
X163925690Y-65717927D01*
X163792073Y-65584310D01*
X163639199Y-65473240D01*
X163633374Y-65470272D01*
X163470836Y-65387454D01*
X163291118Y-65329059D01*
X163104486Y-65299500D01*
X163104481Y-65299500D01*
X162915519Y-65299500D01*
X162915514Y-65299500D01*
X162728881Y-65329059D01*
X162549163Y-65387454D01*
X162380800Y-65473240D01*
X162293579Y-65536610D01*
X162227927Y-65584310D01*
X162227925Y-65584312D01*
X162227924Y-65584312D01*
X162094312Y-65717924D01*
X162094312Y-65717925D01*
X162094310Y-65717927D01*
X162046610Y-65783579D01*
X161983240Y-65870800D01*
X161897454Y-66039163D01*
X161857931Y-66160803D01*
X161818493Y-66218478D01*
X161754134Y-66245676D01*
X161685288Y-66233761D01*
X161633812Y-66186516D01*
X161622069Y-66160803D01*
X161594248Y-66075181D01*
X161582547Y-66039168D01*
X161582545Y-66039165D01*
X161582545Y-66039163D01*
X161496759Y-65870800D01*
X161455475Y-65813978D01*
X161385690Y-65717927D01*
X161252073Y-65584310D01*
X161099199Y-65473240D01*
X161093374Y-65470272D01*
X160930836Y-65387454D01*
X160751118Y-65329059D01*
X160564486Y-65299500D01*
X160564481Y-65299500D01*
X160375519Y-65299500D01*
X160375514Y-65299500D01*
X160188881Y-65329059D01*
X160009163Y-65387454D01*
X159840800Y-65473240D01*
X159753579Y-65536610D01*
X159687927Y-65584310D01*
X159687925Y-65584312D01*
X159687924Y-65584312D01*
X159554312Y-65717924D01*
X159554312Y-65717925D01*
X159554310Y-65717927D01*
X159506610Y-65783579D01*
X159443240Y-65870800D01*
X159364985Y-66024385D01*
X159317010Y-66075181D01*
X159249189Y-66091976D01*
X159183054Y-66069439D01*
X159139603Y-66014723D01*
X159130500Y-65968090D01*
X159130500Y-65616739D01*
X159120573Y-65548608D01*
X159120573Y-65548607D01*
X159069198Y-65443517D01*
X159069196Y-65443515D01*
X159069196Y-65443514D01*
X158986485Y-65360803D01*
X158881391Y-65309426D01*
X158813261Y-65299500D01*
X158813260Y-65299500D01*
X157046740Y-65299500D01*
X157046739Y-65299500D01*
X156978608Y-65309426D01*
X156873514Y-65360803D01*
X156790803Y-65443514D01*
X156739426Y-65548608D01*
X156729500Y-65616739D01*
X119500500Y-65616739D01*
X119500500Y-65504427D01*
X119500816Y-65495581D01*
X119505213Y-65434108D01*
X119515131Y-65295434D01*
X119517646Y-65277938D01*
X119559356Y-65086199D01*
X119564333Y-65069248D01*
X119632911Y-64885385D01*
X119640259Y-64869298D01*
X119702815Y-64754734D01*
X119734291Y-64697089D01*
X119743845Y-64682221D01*
X119861448Y-64525123D01*
X119873020Y-64511769D01*
X120011769Y-64373020D01*
X120025123Y-64361448D01*
X120182221Y-64243845D01*
X120197089Y-64234291D01*
X120369298Y-64140258D01*
X120385385Y-64132911D01*
X120569248Y-64064333D01*
X120586199Y-64059356D01*
X120777938Y-64017646D01*
X120795436Y-64015130D01*
X120995582Y-64000816D01*
X121004428Y-64000500D01*
X121065892Y-64000500D01*
X187934108Y-64000500D01*
X212734108Y-64000500D01*
X212795572Y-64000500D01*
X212804418Y-64000816D01*
G37*
%TD.AperFunction*%
%TD*%
M02*
