M48
; DRILL file {KiCad 9.0.0} date 2025-04-23T05:04:15-0400
; FORMAT={-:-/ absolute / inch / decimal}
; #@! TF.CreationDate,2025-04-23T05:04:15-04:00
; #@! TF.GenerationSoftware,Kicad,Pcbnew,9.0.0
; #@! TF.FileFunction,Plated,1,2,PTH
FMAT,2
INCH
; #@! TA.AperFunction,Plated,PTH,ViaDrill
T1C0.0118
; #@! TA.AperFunction,Plated,PTH,ViaDrill
T2C0.0157
; #@! TA.AperFunction,Plated,PTH,ComponentDrill
T3C0.0299
; #@! TA.AperFunction,Plated,PTH,ComponentDrill
T4C0.0394
; #@! TA.AperFunction,Plated,PTH,ComponentDrill
T5C0.0402
; #@! TA.AperFunction,Plated,PTH,ComponentDrill
T6C0.0402
; #@! TA.AperFunction,Plated,PTH,ComponentDrill
T7C0.0409
; #@! TA.AperFunction,Plated,PTH,ComponentDrill
T8C0.0512
; #@! TA.AperFunction,Plated,PTH,ComponentDrill
T9C0.0530
%
G90
G05
T1
X4.8898Y-4.03
X4.9291Y-3.9088
X4.9685Y-3.7875
X5.0079Y-3.6662
X5.0472Y-3.545
X5.0866Y-3.4237
X5.126Y-3.3025
X5.1654Y-3.1812
X6.3177Y-3.4291
X6.5177Y-3.4615
X6.6177Y-3.5125
X6.7177Y-3.5449
X6.8169Y-3.5773
X6.9177Y-3.6272
T2
X5.0386Y-3.2283
X5.0394Y-3.128
X7.0039Y-2.9783
X7.2295Y-2.9976
X8.0512Y-4.0394
X8.2628Y-2.9331
T4
X6.2177Y-2.6181
X6.3177Y-2.6181
X6.4177Y-2.6181
X6.5177Y-2.6181
X6.6177Y-2.6181
X6.7177Y-2.6181
X6.8177Y-2.6181
X6.9177Y-2.6181
X7.0177Y-2.6181
X7.3622Y-4.7835
X7.4764Y-2.9134
X7.5591Y-4.7835
X7.7756Y-2.9134
T5
X6.3177Y-3.837
X6.3177Y-3.937
X6.4177Y-3.837
X6.4177Y-3.937
X6.5177Y-3.837
X6.5177Y-3.937
X6.6177Y-3.837
X6.6177Y-3.937
X6.7177Y-3.837
X6.7177Y-3.937
X6.8177Y-3.837
X6.8177Y-3.937
X6.9177Y-3.837
X6.9177Y-3.937
X7.0177Y-3.837
X7.0177Y-3.937
T6
X0.6437Y-6.0311
X0.6437Y-6.1311
X0.6437Y-6.2311
X0.6437Y-6.3311
X0.6437Y-6.4311
X0.6437Y-6.5311
X0.6437Y-6.6311
X0.6437Y-6.7311
X0.6437Y-6.8311
X0.6437Y-6.9311
X0.6437Y-7.0311
X0.6437Y-7.1311
X0.6437Y-7.2311
X0.6437Y-7.3311
X0.6437Y-7.4311
X1.6437Y-6.0311
X1.6437Y-6.1311
X1.6437Y-6.2311
X1.6437Y-6.3311
X1.6437Y-6.4311
X1.6437Y-6.5311
X1.6437Y-6.6311
X1.6437Y-6.7311
X1.6437Y-6.8311
X1.6437Y-6.9311
X1.6437Y-7.0311
X1.6437Y-7.1311
X1.6437Y-7.2311
X1.6437Y-7.3311
X1.6437Y-7.4311
X5.2366Y-3.1812
X5.2366Y-3.2812
X5.2366Y-3.3812
X5.2366Y-3.4812
X5.2366Y-3.5812
X5.2366Y-3.6812
X5.2366Y-3.7812
X5.2366Y-3.8812
X5.3366Y-3.1812
X5.3366Y-3.2812
X5.3366Y-3.3812
X5.3366Y-3.4812
X5.3366Y-3.5812
X5.3366Y-3.6812
X5.3366Y-3.7812
X5.3366Y-3.8812
T7
X4.7965Y-2.8291
X4.7965Y-2.9291
X4.7965Y-3.0291
X4.7965Y-3.1291
X4.7965Y-3.2291
X4.7965Y-3.3291
X4.7965Y-3.4291
X4.7965Y-3.5291
X4.7965Y-3.6291
X4.7965Y-3.7291
X4.7965Y-3.8291
X4.7965Y-3.9291
X4.7965Y-4.0291
X4.7965Y-4.1291
X4.7965Y-4.2291
X5.7965Y-2.8291
X5.7965Y-2.9291
X5.7965Y-3.0291
X5.7965Y-3.1291
X5.7965Y-3.2291
X5.7965Y-3.3291
X5.7965Y-3.4291
X5.7965Y-3.5291
X5.7965Y-3.6291
X5.7965Y-3.7291
X5.7965Y-3.8291
X5.7965Y-3.9291
X5.7965Y-4.0291
X5.7965Y-4.1291
X5.7965Y-4.2291
T9
X8.1811Y-3.4248
X8.1811Y-3.5807
X8.1811Y-3.7366
X8.1811Y-3.8925
X8.278Y-3.4248
X8.278Y-3.5807
X8.278Y-3.7366
X8.278Y-3.8925
T3
G00X7.8368Y-4.4779
M15
G01X7.927Y-4.4779
M16
G05
G00X7.8368Y-4.7113
M15
G01X7.927Y-4.7113
M16
G05
G00X8.065Y-4.5383
M15
G01X8.065Y-4.6284
M16
G05
T4
G00X5.2074Y-4.7461
M15
G01X5.2074Y-4.8051
M16
G05
G00X5.5027Y-4.7461
M15
G01X5.5027Y-4.8051
M16
G05
G00X5.8078Y-4.7461
M15
G01X5.8078Y-4.8051
M16
G05
G00X6.1031Y-4.7461
M15
G01X6.1031Y-4.8051
M16
G05
T8
G00X5.3314Y-4.9213
M15
G01X5.3786Y-4.9213
M16
G05
G00X5.9318Y-4.9213
M15
G01X5.979Y-4.9213
M16
G05
M30
