%TF.GenerationSoftware,KiCad,Pcbnew,9.0.0*%
%TF.CreationDate,2025-04-23T05:04:15-04:00*%
%TF.ProjectId,W4MLB_Band_Display_V2,57344d4c-425f-4426-916e-645f44697370,1.0*%
%TF.SameCoordinates,Original*%
%TF.FileFunction,Soldermask,Bot*%
%TF.FilePolarity,Negative*%
%FSLAX46Y46*%
G04 Gerber Fmt 4.6, Leading zero omitted, Abs format (unit mm)*
G04 Created by KiCad (PCBNEW 9.0.0) date 2025-04-23 05:04:15*
%MOMM*%
%LPD*%
G01*
G04 APERTURE LIST*
%ADD10C,0.860984*%
%ADD11C,2.200000*%
%ADD12O,1.800000X3.600000*%
%ADD13O,4.000000X2.000000*%
%ADD14C,2.019300*%
%ADD15R,2.000000X2.000000*%
%ADD16C,2.000000*%
%ADD17R,1.390000X1.390000*%
%ADD18C,1.390000*%
%ADD19O,3.800000X1.900000*%
%ADD20O,1.900000X3.800000*%
%ADD21R,1.700000X1.700000*%
%ADD22O,1.700000X1.700000*%
%ADD23R,1.370000X1.370000*%
%ADD24C,1.370000*%
G04 APERTURE END LIST*
%TO.C,J4*%
D10*
X160900492Y-100000000D02*
G75*
G02*
X160039508Y-100000000I-430492J0D01*
G01*
X160039508Y-100000000D02*
G75*
G02*
X160900492Y-100000000I430492J0D01*
G01*
X163440492Y-100000000D02*
G75*
G02*
X162579508Y-100000000I-430492J0D01*
G01*
X162579508Y-100000000D02*
G75*
G02*
X163440492Y-100000000I430492J0D01*
G01*
X165980492Y-100000000D02*
G75*
G02*
X165119508Y-100000000I-430492J0D01*
G01*
X165119508Y-100000000D02*
G75*
G02*
X165980492Y-100000000I430492J0D01*
G01*
X168520492Y-100000000D02*
G75*
G02*
X167659508Y-100000000I-430492J0D01*
G01*
X167659508Y-100000000D02*
G75*
G02*
X168520492Y-100000000I430492J0D01*
G01*
X171060492Y-100000000D02*
G75*
G02*
X170199508Y-100000000I-430492J0D01*
G01*
X170199508Y-100000000D02*
G75*
G02*
X171060492Y-100000000I430492J0D01*
G01*
X173600492Y-100000000D02*
G75*
G02*
X172739508Y-100000000I-430492J0D01*
G01*
X172739508Y-100000000D02*
G75*
G02*
X173600492Y-100000000I430492J0D01*
G01*
X176140492Y-100000000D02*
G75*
G02*
X175279508Y-100000000I-430492J0D01*
G01*
X175279508Y-100000000D02*
G75*
G02*
X176140492Y-100000000I430492J0D01*
G01*
X178680492Y-100000000D02*
G75*
G02*
X177819508Y-100000000I-430492J0D01*
G01*
X177819508Y-100000000D02*
G75*
G02*
X178680492Y-100000000I430492J0D01*
G01*
X160900492Y-97460000D02*
G75*
G02*
X160039508Y-97460000I-430492J0D01*
G01*
X160039508Y-97460000D02*
G75*
G02*
X160900492Y-97460000I430492J0D01*
G01*
X163440492Y-97460000D02*
G75*
G02*
X162579508Y-97460000I-430492J0D01*
G01*
X162579508Y-97460000D02*
G75*
G02*
X163440492Y-97460000I430492J0D01*
G01*
X165980492Y-97460000D02*
G75*
G02*
X165119508Y-97460000I-430492J0D01*
G01*
X165119508Y-97460000D02*
G75*
G02*
X165980492Y-97460000I430492J0D01*
G01*
X168520492Y-97460000D02*
G75*
G02*
X167659508Y-97460000I-430492J0D01*
G01*
X167659508Y-97460000D02*
G75*
G02*
X168520492Y-97460000I430492J0D01*
G01*
X171060492Y-97460000D02*
G75*
G02*
X170199508Y-97460000I-430492J0D01*
G01*
X170199508Y-97460000D02*
G75*
G02*
X171060492Y-97460000I430492J0D01*
G01*
X173600492Y-97460000D02*
G75*
G02*
X172739508Y-97460000I-430492J0D01*
G01*
X172739508Y-97460000D02*
G75*
G02*
X173600492Y-97460000I430492J0D01*
G01*
X176140492Y-97460000D02*
G75*
G02*
X175279508Y-97460000I-430492J0D01*
G01*
X175279508Y-97460000D02*
G75*
G02*
X176140492Y-97460000I430492J0D01*
G01*
X178680492Y-97460000D02*
G75*
G02*
X177819508Y-97460000I-430492J0D01*
G01*
X177819508Y-97460000D02*
G75*
G02*
X178680492Y-97460000I430492J0D01*
G01*
%TD*%
D11*
%TO.C,MH4*%
X211264466Y-124464466D03*
%TD*%
%TO.C,MH2*%
X211264466Y-67035534D03*
%TD*%
D12*
%TO.C,J6*%
X155017500Y-121300000D03*
X147517500Y-121300000D03*
D13*
X151267500Y-125000000D03*
%TD*%
D12*
%TO.C,J5*%
X139767500Y-121300000D03*
X132267500Y-121300000D03*
D13*
X136017500Y-125000000D03*
%TD*%
D11*
%TO.C,MH3*%
X122535534Y-124464466D03*
%TD*%
D14*
%TO.C,J7*%
X210260000Y-86990000D03*
X210260000Y-90950000D03*
X210260000Y-94910000D03*
X210260000Y-98870000D03*
X207800000Y-86990000D03*
X207800000Y-90950000D03*
X207800000Y-94910000D03*
X207800000Y-98870000D03*
%TD*%
D11*
%TO.C,MH1*%
X122565534Y-67065534D03*
%TD*%
D15*
%TO.C,BZ1*%
X197500000Y-74000000D03*
D16*
X189900000Y-74000000D03*
%TD*%
D17*
%TO.C,J2*%
X147230000Y-71860000D03*
D18*
X147230000Y-74400000D03*
X147230000Y-76940000D03*
X147230000Y-79480000D03*
X147230000Y-82020000D03*
X147230000Y-84560000D03*
X147230000Y-87100000D03*
X147230000Y-89640000D03*
X147230000Y-92180000D03*
X147230000Y-94720000D03*
X147230000Y-97260000D03*
X147230000Y-99800000D03*
X147230000Y-102340000D03*
X147230000Y-104880000D03*
X147230000Y-107420000D03*
%TD*%
D19*
%TO.C,J8*%
X200200000Y-113737500D03*
X200200000Y-119667500D03*
D20*
X204850000Y-116417500D03*
%TD*%
D21*
%TO.C,J9*%
X157930000Y-66500000D03*
D22*
X160470000Y-66500000D03*
X163010000Y-66500000D03*
X165550000Y-66500000D03*
X168090000Y-66500000D03*
X170630000Y-66500000D03*
X173170000Y-66500000D03*
X175710000Y-66500000D03*
X178250000Y-66500000D03*
%TD*%
D15*
%TO.C,U1*%
X16350000Y-153190000D03*
D16*
X16350000Y-155730000D03*
X16350000Y-158270000D03*
X16350000Y-160810000D03*
X16350000Y-163350000D03*
X16350000Y-165890000D03*
X16350000Y-168430000D03*
X16350000Y-170970000D03*
X16350000Y-173510000D03*
X16350000Y-176050000D03*
X16350000Y-178590000D03*
X16350000Y-181130000D03*
X16350000Y-183670000D03*
X16350000Y-186210000D03*
X16350000Y-188750000D03*
X41750000Y-188750000D03*
X41750000Y-186210000D03*
X41750000Y-183670000D03*
X41750000Y-181130000D03*
X41750000Y-178590000D03*
X41750000Y-176050000D03*
X41750000Y-173510000D03*
X41750000Y-170970000D03*
X41750000Y-168430000D03*
X41750000Y-165890000D03*
X41750000Y-163350000D03*
X41750000Y-160810000D03*
X41750000Y-158270000D03*
X41750000Y-155730000D03*
X41750000Y-153190000D03*
%TD*%
D15*
%TO.C,C2*%
X192000000Y-121500000D03*
D16*
X187000000Y-121500000D03*
%TD*%
D17*
%TO.C,J1*%
X121830000Y-71860000D03*
D18*
X121830000Y-74400000D03*
X121830000Y-76940000D03*
X121830000Y-79480000D03*
X121830000Y-82020000D03*
X121830000Y-84560000D03*
X121830000Y-87100000D03*
X121830000Y-89640000D03*
X121830000Y-92180000D03*
X121830000Y-94720000D03*
X121830000Y-97260000D03*
X121830000Y-99800000D03*
X121830000Y-102340000D03*
X121830000Y-104880000D03*
X121830000Y-107420000D03*
%TD*%
D23*
%TO.C,J3*%
X133010000Y-80802500D03*
D24*
X135550000Y-80802500D03*
X133010000Y-83342500D03*
X135550000Y-83342500D03*
X133010000Y-85882500D03*
X135550000Y-85882500D03*
X133010000Y-88422500D03*
X135550000Y-88422500D03*
X133010000Y-90962500D03*
X135550000Y-90962500D03*
X133010000Y-93502500D03*
X135550000Y-93502500D03*
X133010000Y-96042500D03*
X135550000Y-96042500D03*
X133010000Y-98582500D03*
X135550000Y-98582500D03*
%TD*%
M02*
